M48
; DRILL file {KiCad 7.0.9} date Fri Dec 22 14:38:45 2023
; FORMAT={-:-/ absolute / inch / decimal}
; #@! TF.CreationDate,2023-12-22T14:38:45+09:00
; #@! TF.GenerationSoftware,Kicad,Pcbnew,7.0.9
; #@! TF.FileFunction,Plated,1,4,PTH
FMAT,2
INCH
; #@! TA.AperFunction,Plated,PTH,ViaDrill
T1C0.0157
; #@! TA.AperFunction,Plated,PTH,ComponentDrill
T2C0.0315
; #@! TA.AperFunction,Plated,PTH,ComponentDrill
T3C0.0394
; #@! TA.AperFunction,Plated,PTH,ComponentDrill
T4C0.1091
%
G90
G05
T1
X3.0Y-4.55
X3.05Y-4.8
X3.15Y-5.45
X3.4Y-4.8
X3.6Y-5.45
X3.8Y-4.8
X3.9Y-5.9
X4.0Y-5.45
X4.1Y-3.6
X4.1Y-4.5
X4.15Y-4.8
X4.2Y-3.55
X4.25Y-4.7
X4.3Y-3.55
X4.4Y-5.45
X4.45Y-4.0
X4.5Y-3.45
X4.5Y-3.55
X4.5Y-4.55
X4.55Y-4.8
X4.7Y-4.75
X4.8Y-4.5
X4.8Y-5.45
X4.9Y-4.8
X5.15Y-5.45
X5.2Y-3.4
X5.2Y-3.5
X5.2Y-4.6
X5.25Y-5.0
X5.45Y-5.0
X5.55Y-4.5
X5.55Y-5.45
X5.6Y-3.55
X5.7Y-3.6
X5.75Y-4.8
X5.8Y-3.65
X6.35Y-4.8
X6.4Y-4.7
X6.425Y-4.575
X6.55Y-4.6
X6.6Y-5.0
T2
X6.575Y-3.8702
X6.575Y-4.4702
X6.625Y-2.8998
X6.625Y-2.9998
X6.625Y-3.0998
X6.625Y-3.1998
X6.625Y-3.2998
X6.625Y-3.3998
X6.625Y-3.4998
X6.675Y-3.8702
X6.675Y-4.4702
X6.775Y-3.8702
X6.775Y-4.4702
X6.875Y-3.8702
X6.875Y-4.4702
X6.925Y-2.8998
X6.925Y-2.9998
X6.925Y-3.0998
X6.925Y-3.1998
X6.925Y-3.2998
X6.925Y-3.3998
X6.925Y-3.4998
X6.975Y-3.8702
X6.975Y-4.4702
X7.125Y-3.8702
X7.125Y-4.4702
X7.1754Y-2.8998
X7.1754Y-2.9998
X7.1754Y-3.0998
X7.1754Y-3.1998
X7.1754Y-3.2998
X7.1754Y-3.3998
X7.1754Y-3.4998
X7.225Y-3.8702
X7.225Y-4.4702
X7.325Y-3.8702
X7.325Y-4.4702
X7.425Y-3.8702
X7.425Y-4.4702
X7.4754Y-2.8998
X7.4754Y-2.9998
X7.4754Y-3.0998
X7.4754Y-3.1998
X7.4754Y-3.2998
X7.4754Y-3.3998
X7.4754Y-3.4998
X7.525Y-3.8702
X7.525Y-4.4702
T3
X4.1Y-2.95
X4.1Y-4.2
X4.2Y-2.95
X4.2Y-4.2
X4.3Y-2.95
X4.3Y-4.2
X4.4Y-2.95
X4.4Y-4.2
X4.5Y-2.95
X4.5Y-4.2
X4.6Y-2.95
X4.6Y-4.2
X4.7Y-2.95
X4.7Y-4.2
X4.8Y-2.95
X4.8Y-4.2
X4.9Y-2.95
X4.9Y-4.2
X5.0Y-2.95
X5.0Y-4.2
X5.1Y-2.95
X5.1Y-4.2
X5.2Y-2.95
X5.2Y-4.2
X5.3Y-2.95
X5.3Y-4.2
X5.4Y-2.95
X5.4Y-4.2
X5.5Y-2.95
X5.5Y-4.2
X5.6Y-2.95
X5.6Y-4.2
X5.7Y-2.95
X5.7Y-4.2
X5.8Y-2.95
X5.8Y-4.2
X5.9Y-2.95
X5.9Y-4.2
X6.0Y-2.95
X6.0Y-4.2
X6.3031Y-6.0
X6.4016Y-6.0
X6.5Y-6.0
X7.1Y-5.7
X7.2969Y-5.7
T4
X6.2283Y-5.7244
X6.5748Y-5.7244
T0
M30
