%TF.GenerationSoftware,KiCad,Pcbnew,7.0.9*%
%TF.CreationDate,2023-12-22T14:38:42+09:00*%
%TF.ProjectId,Dev_IO_Board,4465765f-494f-45f4-926f-6172642e6b69,rev?*%
%TF.SameCoordinates,Original*%
%TF.FileFunction,Copper,L4,Bot*%
%TF.FilePolarity,Positive*%
%FSLAX46Y46*%
G04 Gerber Fmt 4.6, Leading zero omitted, Abs format (unit mm)*
G04 Created by KiCad (PCBNEW 7.0.9) date 2023-12-22 14:38:42*
%MOMM*%
%LPD*%
G01*
G04 APERTURE LIST*
%TA.AperFunction,ComponentPad*%
%ADD10R,1.500000X1.500000*%
%TD*%
%TA.AperFunction,ComponentPad*%
%ADD11C,1.500000*%
%TD*%
%TA.AperFunction,ComponentPad*%
%ADD12C,4.155000*%
%TD*%
%TA.AperFunction,ComponentPad*%
%ADD13R,1.600000X1.600000*%
%TD*%
%TA.AperFunction,ComponentPad*%
%ADD14C,1.600000*%
%TD*%
%TA.AperFunction,ComponentPad*%
%ADD15O,1.600000X1.600000*%
%TD*%
%TA.AperFunction,ComponentPad*%
%ADD16R,1.700000X1.700000*%
%TD*%
%TA.AperFunction,ComponentPad*%
%ADD17O,1.700000X1.700000*%
%TD*%
%TA.AperFunction,ComponentPad*%
%ADD18R,2.000000X2.000000*%
%TD*%
%TA.AperFunction,ComponentPad*%
%ADD19C,2.000000*%
%TD*%
%TA.AperFunction,ViaPad*%
%ADD20C,0.800000*%
%TD*%
%TA.AperFunction,Conductor*%
%ADD21C,0.250000*%
%TD*%
G04 APERTURE END LIST*
D10*
%TO.P,VR1,1,CCW*%
%TO.N,GND*%
X160100000Y-152400000D03*
D11*
%TO.P,VR1,2,WIPER*%
%TO.N,Net-(VR1-WIPER)*%
X162600000Y-152400000D03*
%TO.P,VR1,3,CW*%
%TO.N,VCC3V3*%
X165100000Y-152400000D03*
D12*
%TO.P,VR1,MH1,MH1*%
%TO.N,GND*%
X158200000Y-145400000D03*
%TO.P,VR1,MH2,MH2*%
X167000000Y-145400000D03*
%TD*%
D13*
%TO.P,U5,1,E*%
%TO.N,Net-(U3-e)*%
X180975000Y-113542500D03*
D14*
%TO.P,U5,2,D*%
%TO.N,Net-(U3-d)*%
X183515000Y-113542500D03*
%TO.P,U5,3,CC*%
%TO.N,Net-(R29-Pad1)*%
X186055000Y-113542500D03*
%TO.P,U5,4,C*%
%TO.N,Net-(U3-c)*%
X188595000Y-113542500D03*
%TO.P,U5,5,DP*%
%TO.N,GND*%
X191135000Y-113542500D03*
%TO.P,U5,6,B*%
%TO.N,Net-(U3-b)*%
X191135000Y-98302500D03*
%TO.P,U5,7,A*%
%TO.N,Net-(U3-a)*%
X188595000Y-98302500D03*
%TO.P,U5,8,CC*%
%TO.N,Net-(R29-Pad1)*%
X186055000Y-98302500D03*
%TO.P,U5,9,F*%
%TO.N,Net-(U3-f)*%
X183515000Y-98302500D03*
%TO.P,U5,10,G*%
%TO.N,Net-(U3-g)*%
X180975000Y-98302500D03*
%TD*%
D13*
%TO.P,U4,1,E*%
%TO.N,Net-(U2-e)*%
X167005000Y-113542500D03*
D14*
%TO.P,U4,2,D*%
%TO.N,Net-(U2-d)*%
X169545000Y-113542500D03*
%TO.P,U4,3,CC*%
%TO.N,Net-(R28-Pad1)*%
X172085000Y-113542500D03*
%TO.P,U4,4,C*%
%TO.N,Net-(U2-c)*%
X174625000Y-113542500D03*
%TO.P,U4,5,DP*%
%TO.N,GND*%
X177165000Y-113542500D03*
%TO.P,U4,6,B*%
%TO.N,Net-(U2-b)*%
X177165000Y-98302500D03*
%TO.P,U4,7,A*%
%TO.N,Net-(U2-a)*%
X174625000Y-98302500D03*
%TO.P,U4,8,CC*%
%TO.N,Net-(R28-Pad1)*%
X172085000Y-98302500D03*
%TO.P,U4,9,F*%
%TO.N,Net-(U2-f)*%
X169545000Y-98302500D03*
%TO.P,U4,10,G*%
%TO.N,Net-(U2-g)*%
X167005000Y-98302500D03*
%TD*%
D13*
%TO.P,U3,1,B*%
%TO.N,PB1*%
X182255000Y-73655000D03*
D15*
%TO.P,U3,2,C*%
%TO.N,PB10*%
X182255000Y-76195000D03*
%TO.P,U3,3,~{BI}*%
%TO.N,VCC3V3*%
X182255000Y-78735000D03*
%TO.P,U3,4,D*%
%TO.N,PB11*%
X182255000Y-81275000D03*
%TO.P,U3,5,A*%
%TO.N,PA8*%
X182255000Y-83815000D03*
%TO.P,U3,6,e*%
%TO.N,Net-(U3-e)*%
X182255000Y-86355000D03*
%TO.P,U3,7,GND*%
%TO.N,GND*%
X182255000Y-88895000D03*
%TO.P,U3,8,d*%
%TO.N,Net-(U3-d)*%
X189875000Y-88895000D03*
%TO.P,U3,9,c*%
%TO.N,Net-(U3-c)*%
X189875000Y-86355000D03*
%TO.P,U3,10,b*%
%TO.N,Net-(U3-b)*%
X189875000Y-83815000D03*
%TO.P,U3,11,a*%
%TO.N,Net-(U3-a)*%
X189875000Y-81275000D03*
%TO.P,U3,12,g*%
%TO.N,Net-(U3-g)*%
X189875000Y-78735000D03*
%TO.P,U3,13,f*%
%TO.N,Net-(U3-f)*%
X189875000Y-76195000D03*
%TO.P,U3,14,VCC*%
%TO.N,VCC3V3*%
X189875000Y-73655000D03*
%TD*%
D13*
%TO.P,U2,1,B*%
%TO.N,PA2*%
X168275000Y-73655000D03*
D15*
%TO.P,U2,2,C*%
%TO.N,PA5*%
X168275000Y-76195000D03*
%TO.P,U2,3,~{BI}*%
%TO.N,VCC3V3*%
X168275000Y-78735000D03*
%TO.P,U2,4,D*%
%TO.N,PA6*%
X168275000Y-81275000D03*
%TO.P,U2,5,A*%
%TO.N,PA0*%
X168275000Y-83815000D03*
%TO.P,U2,6,e*%
%TO.N,Net-(U2-e)*%
X168275000Y-86355000D03*
%TO.P,U2,7,GND*%
%TO.N,GND*%
X168275000Y-88895000D03*
%TO.P,U2,8,d*%
%TO.N,Net-(U2-d)*%
X175895000Y-88895000D03*
%TO.P,U2,9,c*%
%TO.N,Net-(U2-c)*%
X175895000Y-86355000D03*
%TO.P,U2,10,b*%
%TO.N,Net-(U2-b)*%
X175895000Y-83815000D03*
%TO.P,U2,11,a*%
%TO.N,Net-(U2-a)*%
X175895000Y-81275000D03*
%TO.P,U2,12,g*%
%TO.N,Net-(U2-g)*%
X175895000Y-78735000D03*
%TO.P,U2,13,f*%
%TO.N,Net-(U2-f)*%
X175895000Y-76195000D03*
%TO.P,U2,14,VCC*%
%TO.N,VCC3V3*%
X175895000Y-73655000D03*
%TD*%
D16*
%TO.P,J2,1,Pin_1*%
%TO.N,VBAT*%
X104140000Y-106680000D03*
D17*
%TO.P,J2,2,Pin_2*%
%TO.N,PB6*%
X106680000Y-106680000D03*
%TO.P,J2,3,Pin_3*%
%TO.N,PB7*%
X109220000Y-106680000D03*
%TO.P,J2,4,Pin_4*%
%TO.N,PB8*%
X111760000Y-106680000D03*
%TO.P,J2,5,Pin_5*%
%TO.N,PB9*%
X114300000Y-106680000D03*
%TO.P,J2,6,Pin_6*%
%TO.N,PC13*%
X116840000Y-106680000D03*
%TO.P,J2,7,Pin_7*%
%TO.N,PA5*%
X119380000Y-106680000D03*
%TO.P,J2,8,Pin_8*%
%TO.N,PA6*%
X121920000Y-106680000D03*
%TO.P,J2,9,Pin_9*%
%TO.N,PC0*%
X124460000Y-106680000D03*
%TO.P,J2,10,Pin_10*%
%TO.N,PC1*%
X127000000Y-106680000D03*
%TO.P,J2,11,Pin_11*%
%TO.N,PC2*%
X129540000Y-106680000D03*
%TO.P,J2,12,Pin_12*%
%TO.N,PC3*%
X132080000Y-106680000D03*
%TO.P,J2,13,Pin_13*%
%TO.N,PA0*%
X134620000Y-106680000D03*
%TO.P,J2,14,Pin_14*%
%TO.N,PA1{slash}ADC123_IN1*%
X137160000Y-106680000D03*
%TO.P,J2,15,Pin_15*%
%TO.N,PA2*%
X139700000Y-106680000D03*
%TO.P,J2,16,Pin_16*%
%TO.N,PA3{slash}TIM9_CH2*%
X142240000Y-106680000D03*
%TO.P,J2,17,Pin_17*%
%TO.N,RESET*%
X144780000Y-106680000D03*
%TO.P,J2,18,Pin_18*%
%TO.N,VCC3V3*%
X147320000Y-106680000D03*
%TO.P,J2,19,Pin_19*%
%TO.N,GND*%
X149860000Y-106680000D03*
%TO.P,J2,20,Pin_20*%
X152400000Y-106680000D03*
%TD*%
D16*
%TO.P,J1,1,Pin_1*%
%TO.N,VCC3V3*%
X104140000Y-74930000D03*
D17*
%TO.P,J1,2,Pin_2*%
%TO.N,GND*%
X106680000Y-74930000D03*
%TO.P,J1,3,Pin_3*%
%TO.N,5V*%
X109220000Y-74930000D03*
%TO.P,J1,4,Pin_4*%
%TO.N,PC12*%
X111760000Y-74930000D03*
%TO.P,J1,5,Pin_5*%
%TO.N,PC11*%
X114300000Y-74930000D03*
%TO.P,J1,6,Pin_6*%
%TO.N,PC10*%
X116840000Y-74930000D03*
%TO.P,J1,7,Pin_7*%
%TO.N,PA10{slash}USART1_RX*%
X119380000Y-74930000D03*
%TO.P,J1,8,Pin_8*%
%TO.N,PA9{slash}USART1_TX*%
X121920000Y-74930000D03*
%TO.P,J1,9,Pin_9*%
%TO.N,PA8*%
X124460000Y-74930000D03*
%TO.P,J1,10,Pin_10*%
%TO.N,PC9*%
X127000000Y-74930000D03*
%TO.P,J1,11,Pin_11*%
%TO.N,PC8*%
X129540000Y-74930000D03*
%TO.P,J1,12,Pin_12*%
%TO.N,PC7*%
X132080000Y-74930000D03*
%TO.P,J1,13,Pin_13*%
%TO.N,PC6*%
X134620000Y-74930000D03*
%TO.P,J1,14,Pin_14*%
%TO.N,PB15{slash}SPI2_MOSI*%
X137160000Y-74930000D03*
%TO.P,J1,15,Pin_15*%
%TO.N,PB14{slash}SPI2_MISO*%
X139700000Y-74930000D03*
%TO.P,J1,16,Pin_16*%
%TO.N,PB13{slash}SPI2_SCK*%
X142240000Y-74930000D03*
%TO.P,J1,17,Pin_17*%
%TO.N,PB12{slash}SPI2_NSS*%
X144780000Y-74930000D03*
%TO.P,J1,18,Pin_18*%
%TO.N,PB11*%
X147320000Y-74930000D03*
%TO.P,J1,19,Pin_19*%
%TO.N,PB10*%
X149860000Y-74930000D03*
%TO.P,J1,20,Pin_20*%
%TO.N,PB1*%
X152400000Y-74930000D03*
%TD*%
D18*
%TO.P,BZ1,1,-*%
%TO.N,VCC3V3*%
X180340000Y-144780000D03*
D19*
%TO.P,BZ1,2,+*%
%TO.N,Net-(BZ1-+)*%
X185340000Y-144780000D03*
%TD*%
D20*
%TO.N,GND*%
X99060000Y-149860000D03*
X119380000Y-120650000D03*
X133350000Y-127000000D03*
X106680000Y-90170000D03*
X109220000Y-90170000D03*
X167640000Y-127000000D03*
X121920000Y-114300000D03*
X104140000Y-114300000D03*
X107950000Y-119380000D03*
X147320000Y-92710000D03*
X144780000Y-91440000D03*
X114300000Y-90170000D03*
X132080000Y-88900000D03*
X142240000Y-90170000D03*
X104140000Y-91440000D03*
X114300000Y-87630000D03*
X132080000Y-86360000D03*
X161290000Y-121920000D03*
X163195000Y-116205000D03*
X140970000Y-114300000D03*
X114300000Y-115570000D03*
X132080000Y-116840000D03*
X140970000Y-138430000D03*
X130810000Y-138430000D03*
X121920000Y-138430000D03*
X111760000Y-138430000D03*
X101600000Y-138430000D03*
X91440000Y-138430000D03*
X80010000Y-138430000D03*
%TO.N,VCC3V3*%
X166370000Y-116840000D03*
X162560000Y-119380000D03*
X146050000Y-121920000D03*
X138430000Y-127000000D03*
X124460000Y-121920000D03*
X115570000Y-121920000D03*
X105410000Y-121920000D03*
X96520000Y-121920000D03*
X86360000Y-121920000D03*
X77470000Y-121920000D03*
%TO.N,PC0*%
X76200000Y-115570000D03*
X113030000Y-101600000D03*
%TD*%
D21*
%TO.N,PA8*%
X127000000Y-72390000D02*
X124460000Y-74930000D01*
X170209009Y-72390000D02*
X127000000Y-72390000D01*
X176360991Y-77610000D02*
X175429009Y-77610000D01*
X177020000Y-78269009D02*
X176360991Y-77610000D01*
X175429009Y-77610000D02*
X170209009Y-72390000D01*
X177020000Y-78580000D02*
X177020000Y-78269009D01*
X182255000Y-83815000D02*
X177020000Y-78580000D01*
%TO.N,PA5*%
X141219695Y-76195000D02*
X119380000Y-98034695D01*
X119380000Y-98034695D02*
X119380000Y-106680000D01*
X168275000Y-76195000D02*
X141219695Y-76195000D01*
%TO.N,PA6*%
X121920000Y-98034695D02*
X121920000Y-106680000D01*
X138679695Y-81275000D02*
X121920000Y-98034695D01*
X168275000Y-81275000D02*
X138679695Y-81275000D01*
%TO.N,PA0*%
X157485000Y-83815000D02*
X134620000Y-106680000D01*
X168275000Y-83815000D02*
X157485000Y-83815000D01*
%TO.N,PA2*%
X161290000Y-85090000D02*
X139700000Y-106680000D01*
X169545000Y-85090000D02*
X161290000Y-85090000D01*
X169400000Y-84945000D02*
X169545000Y-85090000D01*
X169400000Y-74780000D02*
X169400000Y-84945000D01*
X168275000Y-73655000D02*
X169400000Y-74780000D01*
%TO.N,PC0*%
X90170000Y-101600000D02*
X76200000Y-115570000D01*
X113030000Y-101600000D02*
X90170000Y-101600000D01*
%TD*%
%TA.AperFunction,Conductor*%
%TO.N,GND*%
G36*
X151940507Y-106470156D02*
G01*
X151900000Y-106608111D01*
X151900000Y-106751889D01*
X151940507Y-106889844D01*
X151966314Y-106930000D01*
X150293686Y-106930000D01*
X150319493Y-106889844D01*
X150360000Y-106751889D01*
X150360000Y-106608111D01*
X150319493Y-106470156D01*
X150293686Y-106430000D01*
X151966314Y-106430000D01*
X151940507Y-106470156D01*
G37*
%TD.AperFunction*%
%TA.AperFunction,Conductor*%
G36*
X167127851Y-76840185D02*
G01*
X167162387Y-76873377D01*
X167274954Y-77034141D01*
X167435858Y-77195045D01*
X167435861Y-77195047D01*
X167622266Y-77325568D01*
X167680275Y-77352618D01*
X167732714Y-77398791D01*
X167751866Y-77465984D01*
X167731650Y-77532865D01*
X167680275Y-77577382D01*
X167622267Y-77604431D01*
X167622265Y-77604432D01*
X167435858Y-77734954D01*
X167274954Y-77895858D01*
X167144432Y-78082265D01*
X167144431Y-78082267D01*
X167048261Y-78288502D01*
X167048258Y-78288511D01*
X166989366Y-78508302D01*
X166989364Y-78508313D01*
X166969532Y-78734998D01*
X166969532Y-78735001D01*
X166989364Y-78961686D01*
X166989366Y-78961697D01*
X167048258Y-79181488D01*
X167048261Y-79181497D01*
X167144431Y-79387732D01*
X167144432Y-79387734D01*
X167274954Y-79574141D01*
X167435858Y-79735045D01*
X167435861Y-79735047D01*
X167622266Y-79865568D01*
X167680275Y-79892618D01*
X167732714Y-79938791D01*
X167751866Y-80005984D01*
X167731650Y-80072865D01*
X167680275Y-80117382D01*
X167622267Y-80144431D01*
X167622265Y-80144432D01*
X167435858Y-80274954D01*
X167274954Y-80435858D01*
X167162387Y-80596623D01*
X167107811Y-80640248D01*
X167060812Y-80649500D01*
X138762438Y-80649500D01*
X138746817Y-80647775D01*
X138746791Y-80648061D01*
X138739029Y-80647327D01*
X138739028Y-80647327D01*
X138669881Y-80649500D01*
X138640344Y-80649500D01*
X138633461Y-80650369D01*
X138627644Y-80650826D01*
X138581068Y-80652290D01*
X138561824Y-80657881D01*
X138542774Y-80661825D01*
X138522906Y-80664334D01*
X138479579Y-80681488D01*
X138474053Y-80683379D01*
X138429309Y-80696379D01*
X138429305Y-80696381D01*
X138412061Y-80706579D01*
X138394600Y-80715133D01*
X138375969Y-80722510D01*
X138375957Y-80722517D01*
X138338265Y-80749902D01*
X138333382Y-80753109D01*
X138293275Y-80776829D01*
X138279109Y-80790995D01*
X138264319Y-80803627D01*
X138248109Y-80815404D01*
X138248106Y-80815407D01*
X138218405Y-80851309D01*
X138214472Y-80855631D01*
X121536208Y-97533894D01*
X121523951Y-97543715D01*
X121524134Y-97543936D01*
X121518123Y-97548908D01*
X121470772Y-97599331D01*
X121449889Y-97620214D01*
X121449877Y-97620227D01*
X121445621Y-97625712D01*
X121441837Y-97630142D01*
X121409937Y-97664113D01*
X121409936Y-97664115D01*
X121400284Y-97681671D01*
X121389610Y-97697921D01*
X121377329Y-97713756D01*
X121377324Y-97713763D01*
X121358815Y-97756533D01*
X121356245Y-97761779D01*
X121333803Y-97802601D01*
X121328822Y-97822002D01*
X121322521Y-97840405D01*
X121314562Y-97858797D01*
X121314561Y-97858800D01*
X121307271Y-97904822D01*
X121306087Y-97910541D01*
X121294501Y-97955667D01*
X121294500Y-97955677D01*
X121294500Y-97975711D01*
X121292973Y-97995110D01*
X121289840Y-98014889D01*
X121289840Y-98014890D01*
X121294225Y-98061278D01*
X121294500Y-98067116D01*
X121294500Y-105404773D01*
X121274815Y-105471812D01*
X121241623Y-105506348D01*
X121048597Y-105641505D01*
X120881505Y-105808597D01*
X120751575Y-105994158D01*
X120696998Y-106037783D01*
X120627500Y-106044977D01*
X120565145Y-106013454D01*
X120548425Y-105994158D01*
X120418494Y-105808597D01*
X120251402Y-105641506D01*
X120251401Y-105641505D01*
X120118093Y-105548161D01*
X120058376Y-105506347D01*
X120014751Y-105451770D01*
X120005500Y-105404772D01*
X120005500Y-98345147D01*
X120025185Y-98278108D01*
X120041819Y-98257466D01*
X141442467Y-76856819D01*
X141503790Y-76823334D01*
X141530148Y-76820500D01*
X167060812Y-76820500D01*
X167127851Y-76840185D01*
G37*
%TD.AperFunction*%
%TA.AperFunction,Conductor*%
G36*
X167127851Y-81920185D02*
G01*
X167162387Y-81953377D01*
X167274954Y-82114141D01*
X167435858Y-82275045D01*
X167435861Y-82275047D01*
X167622266Y-82405568D01*
X167680275Y-82432618D01*
X167732714Y-82478791D01*
X167751866Y-82545984D01*
X167731650Y-82612865D01*
X167680275Y-82657382D01*
X167622267Y-82684431D01*
X167622265Y-82684432D01*
X167435858Y-82814954D01*
X167274954Y-82975858D01*
X167162387Y-83136623D01*
X167107811Y-83180248D01*
X167060812Y-83189500D01*
X157567738Y-83189500D01*
X157552121Y-83187776D01*
X157552094Y-83188062D01*
X157544332Y-83187327D01*
X157475204Y-83189500D01*
X157445650Y-83189500D01*
X157444929Y-83189590D01*
X157438757Y-83190369D01*
X157432945Y-83190826D01*
X157386373Y-83192290D01*
X157386372Y-83192290D01*
X157367129Y-83197881D01*
X157348079Y-83201825D01*
X157328211Y-83204334D01*
X157284884Y-83221488D01*
X157279358Y-83223379D01*
X157234614Y-83236379D01*
X157234610Y-83236381D01*
X157217366Y-83246579D01*
X157199905Y-83255133D01*
X157181274Y-83262510D01*
X157181262Y-83262517D01*
X157143570Y-83289902D01*
X157138687Y-83293109D01*
X157098580Y-83316829D01*
X157084414Y-83330995D01*
X157069624Y-83343627D01*
X157053414Y-83355404D01*
X157053411Y-83355407D01*
X157023710Y-83391309D01*
X157019777Y-83395631D01*
X135075646Y-105339761D01*
X135014323Y-105373246D01*
X134955873Y-105371855D01*
X134855408Y-105344937D01*
X134620001Y-105324341D01*
X134619999Y-105324341D01*
X134384596Y-105344936D01*
X134384586Y-105344938D01*
X134156344Y-105406094D01*
X134156335Y-105406098D01*
X133942171Y-105505964D01*
X133942169Y-105505965D01*
X133748597Y-105641505D01*
X133581505Y-105808597D01*
X133451575Y-105994158D01*
X133396998Y-106037783D01*
X133327500Y-106044977D01*
X133265145Y-106013454D01*
X133248425Y-105994158D01*
X133118494Y-105808597D01*
X132951402Y-105641506D01*
X132951395Y-105641501D01*
X132757834Y-105505967D01*
X132757830Y-105505965D01*
X132705500Y-105481563D01*
X132543663Y-105406097D01*
X132543659Y-105406096D01*
X132543655Y-105406094D01*
X132315413Y-105344938D01*
X132315403Y-105344936D01*
X132080001Y-105324341D01*
X132079999Y-105324341D01*
X131844596Y-105344936D01*
X131844586Y-105344938D01*
X131616344Y-105406094D01*
X131616335Y-105406098D01*
X131402171Y-105505964D01*
X131402169Y-105505965D01*
X131208597Y-105641505D01*
X131041505Y-105808597D01*
X130911575Y-105994158D01*
X130856998Y-106037783D01*
X130787500Y-106044977D01*
X130725145Y-106013454D01*
X130708425Y-105994158D01*
X130578494Y-105808597D01*
X130411402Y-105641506D01*
X130411395Y-105641501D01*
X130217834Y-105505967D01*
X130217830Y-105505965D01*
X130165500Y-105481563D01*
X130003663Y-105406097D01*
X130003659Y-105406096D01*
X130003655Y-105406094D01*
X129775413Y-105344938D01*
X129775403Y-105344936D01*
X129540001Y-105324341D01*
X129539999Y-105324341D01*
X129304596Y-105344936D01*
X129304586Y-105344938D01*
X129076344Y-105406094D01*
X129076335Y-105406098D01*
X128862171Y-105505964D01*
X128862169Y-105505965D01*
X128668597Y-105641505D01*
X128501505Y-105808597D01*
X128371575Y-105994158D01*
X128316998Y-106037783D01*
X128247500Y-106044977D01*
X128185145Y-106013454D01*
X128168425Y-105994158D01*
X128038494Y-105808597D01*
X127871402Y-105641506D01*
X127871395Y-105641501D01*
X127677834Y-105505967D01*
X127677830Y-105505965D01*
X127625500Y-105481563D01*
X127463663Y-105406097D01*
X127463659Y-105406096D01*
X127463655Y-105406094D01*
X127235413Y-105344938D01*
X127235403Y-105344936D01*
X127000001Y-105324341D01*
X126999999Y-105324341D01*
X126764596Y-105344936D01*
X126764586Y-105344938D01*
X126536344Y-105406094D01*
X126536335Y-105406098D01*
X126322171Y-105505964D01*
X126322169Y-105505965D01*
X126128597Y-105641505D01*
X125961505Y-105808597D01*
X125831575Y-105994158D01*
X125776998Y-106037783D01*
X125707500Y-106044977D01*
X125645145Y-106013454D01*
X125628425Y-105994158D01*
X125498494Y-105808597D01*
X125331402Y-105641506D01*
X125331395Y-105641501D01*
X125137834Y-105505967D01*
X125137830Y-105505965D01*
X125085500Y-105481563D01*
X124923663Y-105406097D01*
X124923659Y-105406096D01*
X124923655Y-105406094D01*
X124695413Y-105344938D01*
X124695403Y-105344936D01*
X124460001Y-105324341D01*
X124459999Y-105324341D01*
X124224596Y-105344936D01*
X124224586Y-105344938D01*
X123996344Y-105406094D01*
X123996335Y-105406098D01*
X123782171Y-105505964D01*
X123782169Y-105505965D01*
X123588597Y-105641505D01*
X123421505Y-105808597D01*
X123291575Y-105994158D01*
X123236998Y-106037783D01*
X123167500Y-106044977D01*
X123105145Y-106013454D01*
X123088425Y-105994158D01*
X122958494Y-105808597D01*
X122791402Y-105641506D01*
X122791401Y-105641505D01*
X122658093Y-105548161D01*
X122598376Y-105506347D01*
X122554751Y-105451770D01*
X122545500Y-105404772D01*
X122545500Y-98345147D01*
X122565185Y-98278108D01*
X122581819Y-98257466D01*
X138902467Y-81936819D01*
X138963790Y-81903334D01*
X138990148Y-81900500D01*
X167060812Y-81900500D01*
X167127851Y-81920185D01*
G37*
%TD.AperFunction*%
%TA.AperFunction,Conductor*%
G36*
X191042019Y-68580633D02*
G01*
X191077198Y-68582938D01*
X191123708Y-68585986D01*
X191305459Y-68598985D01*
X191313100Y-68600015D01*
X191406738Y-68618641D01*
X191429420Y-68623153D01*
X191455023Y-68628722D01*
X191573666Y-68654531D01*
X191580383Y-68656395D01*
X191699437Y-68696809D01*
X191796671Y-68733076D01*
X191831741Y-68746157D01*
X191837499Y-68748643D01*
X191952952Y-68805578D01*
X192074906Y-68872170D01*
X192079634Y-68875032D01*
X192136571Y-68913076D01*
X192186649Y-68946537D01*
X192189358Y-68948454D01*
X192298652Y-69030271D01*
X192302345Y-69033265D01*
X192399502Y-69118469D01*
X192402448Y-69121228D01*
X192498769Y-69217549D01*
X192501526Y-69220492D01*
X192586729Y-69317648D01*
X192589732Y-69321353D01*
X192641564Y-69390592D01*
X192671543Y-69430639D01*
X192673461Y-69433349D01*
X192744962Y-69540357D01*
X192747828Y-69545091D01*
X192814421Y-69667047D01*
X192871355Y-69782499D01*
X192873841Y-69788257D01*
X192910212Y-69885768D01*
X192923196Y-69920578D01*
X192928289Y-69935581D01*
X192963597Y-70039596D01*
X192965472Y-70046352D01*
X192996846Y-70190579D01*
X193019980Y-70306880D01*
X193021015Y-70314560D01*
X193034017Y-70496350D01*
X193039367Y-70577966D01*
X193039500Y-70582023D01*
X193039500Y-154207975D01*
X193039367Y-154212032D01*
X193034017Y-154293648D01*
X193021015Y-154475438D01*
X193019980Y-154483118D01*
X192996846Y-154599420D01*
X192965472Y-154743646D01*
X192963597Y-154750401D01*
X192929297Y-154851448D01*
X192923208Y-154869388D01*
X192923195Y-154869425D01*
X192873841Y-155001741D01*
X192871355Y-155007499D01*
X192814421Y-155122952D01*
X192747828Y-155244907D01*
X192744961Y-155249641D01*
X192673461Y-155356649D01*
X192671543Y-155359359D01*
X192589744Y-155468631D01*
X192586723Y-155472357D01*
X192501529Y-155569502D01*
X192498755Y-155572464D01*
X192402464Y-155668755D01*
X192399502Y-155671529D01*
X192302357Y-155756723D01*
X192298631Y-155759744D01*
X192189359Y-155841543D01*
X192186649Y-155843461D01*
X192079641Y-155914961D01*
X192074907Y-155917828D01*
X191952952Y-155984421D01*
X191837499Y-156041355D01*
X191831741Y-156043841D01*
X191710956Y-156088893D01*
X191699418Y-156093197D01*
X191580401Y-156133597D01*
X191573646Y-156135472D01*
X191429420Y-156166846D01*
X191313118Y-156189980D01*
X191305438Y-156191015D01*
X191123648Y-156204017D01*
X191072582Y-156207364D01*
X191042025Y-156209367D01*
X191037976Y-156209500D01*
X68042024Y-156209500D01*
X68037974Y-156209367D01*
X67999954Y-156206875D01*
X67956350Y-156204017D01*
X67774560Y-156191015D01*
X67766880Y-156189980D01*
X67650579Y-156166846D01*
X67506352Y-156135472D01*
X67499596Y-156133597D01*
X67467881Y-156122831D01*
X67380578Y-156093196D01*
X67345768Y-156080212D01*
X67248257Y-156043841D01*
X67242499Y-156041355D01*
X67127047Y-155984421D01*
X67005091Y-155917828D01*
X67000357Y-155914962D01*
X66893349Y-155843461D01*
X66890639Y-155841543D01*
X66850592Y-155811564D01*
X66781353Y-155759732D01*
X66777648Y-155756729D01*
X66680492Y-155671526D01*
X66677549Y-155668769D01*
X66581228Y-155572448D01*
X66578469Y-155569502D01*
X66545450Y-155531851D01*
X66493265Y-155472345D01*
X66490271Y-155468652D01*
X66408454Y-155359358D01*
X66406537Y-155356649D01*
X66335036Y-155249641D01*
X66332170Y-155244906D01*
X66265578Y-155122952D01*
X66208643Y-155007499D01*
X66206157Y-155001741D01*
X66193076Y-154966671D01*
X66156805Y-154869425D01*
X66116395Y-154750383D01*
X66114531Y-154743666D01*
X66083153Y-154599420D01*
X66078641Y-154576738D01*
X66060015Y-154483100D01*
X66058985Y-154475459D01*
X66045986Y-154293708D01*
X66042938Y-154247198D01*
X66040633Y-154212019D01*
X66040500Y-154207964D01*
X66040500Y-153197844D01*
X158850000Y-153197844D01*
X158856401Y-153257372D01*
X158856403Y-153257379D01*
X158906645Y-153392086D01*
X158906649Y-153392093D01*
X158992809Y-153507187D01*
X158992812Y-153507190D01*
X159107906Y-153593350D01*
X159107913Y-153593354D01*
X159242620Y-153643596D01*
X159242627Y-153643598D01*
X159302155Y-153649999D01*
X159302172Y-153650000D01*
X159850000Y-153650000D01*
X159850000Y-152835501D01*
X159957685Y-152884680D01*
X160064237Y-152900000D01*
X160135763Y-152900000D01*
X160242315Y-152884680D01*
X160350000Y-152835501D01*
X160350000Y-153650000D01*
X160897828Y-153650000D01*
X160897844Y-153649999D01*
X160957372Y-153643598D01*
X160957379Y-153643596D01*
X161092086Y-153593354D01*
X161092093Y-153593350D01*
X161207187Y-153507190D01*
X161207190Y-153507187D01*
X161293350Y-153392093D01*
X161293354Y-153392086D01*
X161343596Y-153257379D01*
X161343598Y-153257372D01*
X161349999Y-153197844D01*
X161350000Y-153197827D01*
X161350000Y-153188273D01*
X161369685Y-153121234D01*
X161422489Y-153075479D01*
X161491647Y-153065535D01*
X161555203Y-153094560D01*
X161575569Y-153117142D01*
X161638402Y-153206877D01*
X161793123Y-153361598D01*
X161972361Y-153487102D01*
X162170670Y-153579575D01*
X162382023Y-153636207D01*
X162564926Y-153652208D01*
X162599998Y-153655277D01*
X162600000Y-153655277D01*
X162600002Y-153655277D01*
X162628254Y-153652805D01*
X162817977Y-153636207D01*
X163029330Y-153579575D01*
X163227639Y-153487102D01*
X163406877Y-153361598D01*
X163561598Y-153206877D01*
X163687102Y-153027639D01*
X163737618Y-152919306D01*
X163783790Y-152866867D01*
X163850984Y-152847715D01*
X163917865Y-152867931D01*
X163962381Y-152919306D01*
X164012898Y-153027639D01*
X164138402Y-153206877D01*
X164293123Y-153361598D01*
X164472361Y-153487102D01*
X164670670Y-153579575D01*
X164882023Y-153636207D01*
X165064926Y-153652208D01*
X165099998Y-153655277D01*
X165100000Y-153655277D01*
X165100002Y-153655277D01*
X165128254Y-153652805D01*
X165317977Y-153636207D01*
X165529330Y-153579575D01*
X165727639Y-153487102D01*
X165906877Y-153361598D01*
X166061598Y-153206877D01*
X166187102Y-153027639D01*
X166279575Y-152829330D01*
X166336207Y-152617977D01*
X166355277Y-152400000D01*
X166336207Y-152182023D01*
X166279575Y-151970670D01*
X166187102Y-151772362D01*
X166187100Y-151772359D01*
X166187099Y-151772357D01*
X166061599Y-151593124D01*
X166011095Y-151542620D01*
X165906877Y-151438402D01*
X165727639Y-151312898D01*
X165727640Y-151312898D01*
X165727638Y-151312897D01*
X165628484Y-151266661D01*
X165529330Y-151220425D01*
X165529326Y-151220424D01*
X165529322Y-151220422D01*
X165317977Y-151163793D01*
X165100002Y-151144723D01*
X165099998Y-151144723D01*
X164966516Y-151156401D01*
X164882023Y-151163793D01*
X164882020Y-151163793D01*
X164670677Y-151220422D01*
X164670668Y-151220426D01*
X164472361Y-151312898D01*
X164472357Y-151312900D01*
X164293121Y-151438402D01*
X164138402Y-151593121D01*
X164012900Y-151772357D01*
X164012898Y-151772362D01*
X163962382Y-151880693D01*
X163916209Y-151933132D01*
X163849016Y-151952284D01*
X163782135Y-151932068D01*
X163737618Y-151880693D01*
X163730156Y-151864692D01*
X163687102Y-151772362D01*
X163687099Y-151772358D01*
X163687099Y-151772357D01*
X163561599Y-151593124D01*
X163511095Y-151542620D01*
X163406877Y-151438402D01*
X163227639Y-151312898D01*
X163227640Y-151312898D01*
X163227638Y-151312897D01*
X163128484Y-151266661D01*
X163029330Y-151220425D01*
X163029326Y-151220424D01*
X163029322Y-151220422D01*
X162817977Y-151163793D01*
X162600002Y-151144723D01*
X162599998Y-151144723D01*
X162466516Y-151156401D01*
X162382023Y-151163793D01*
X162382020Y-151163793D01*
X162170677Y-151220422D01*
X162170668Y-151220426D01*
X161972361Y-151312898D01*
X161972357Y-151312900D01*
X161793121Y-151438402D01*
X161638402Y-151593121D01*
X161575575Y-151682849D01*
X161520998Y-151726474D01*
X161451500Y-151733668D01*
X161389145Y-151702145D01*
X161353731Y-151641915D01*
X161350000Y-151611726D01*
X161350000Y-151602172D01*
X161349999Y-151602155D01*
X161343598Y-151542627D01*
X161343596Y-151542620D01*
X161293354Y-151407913D01*
X161293350Y-151407906D01*
X161207190Y-151292812D01*
X161207187Y-151292809D01*
X161092093Y-151206649D01*
X161092086Y-151206645D01*
X160957379Y-151156403D01*
X160957372Y-151156401D01*
X160897844Y-151150000D01*
X160350000Y-151150000D01*
X160350000Y-151964498D01*
X160242315Y-151915320D01*
X160135763Y-151900000D01*
X160064237Y-151900000D01*
X159957685Y-151915320D01*
X159850000Y-151964498D01*
X159850000Y-151150000D01*
X159302155Y-151150000D01*
X159242627Y-151156401D01*
X159242620Y-151156403D01*
X159107913Y-151206645D01*
X159107906Y-151206649D01*
X158992812Y-151292809D01*
X158992809Y-151292812D01*
X158906649Y-151407906D01*
X158906645Y-151407913D01*
X158856403Y-151542620D01*
X158856401Y-151542627D01*
X158850000Y-151602155D01*
X158850000Y-152150000D01*
X159666314Y-152150000D01*
X159640507Y-152190156D01*
X159600000Y-152328111D01*
X159600000Y-152471889D01*
X159640507Y-152609844D01*
X159666314Y-152650000D01*
X158850000Y-152650000D01*
X158850000Y-153197844D01*
X66040500Y-153197844D01*
X66040500Y-145400005D01*
X155617404Y-145400005D01*
X155637767Y-145723674D01*
X155637768Y-145723681D01*
X155698542Y-146042270D01*
X155798763Y-146350718D01*
X155798765Y-146350723D01*
X155936852Y-146644171D01*
X155936855Y-146644177D01*
X156110629Y-146918002D01*
X156209241Y-147037203D01*
X157058605Y-146187839D01*
X157082438Y-146226545D01*
X157238199Y-146403525D01*
X157410723Y-146542828D01*
X156559488Y-147394063D01*
X156816172Y-147580555D01*
X156816182Y-147580562D01*
X157100384Y-147736803D01*
X157100392Y-147736807D01*
X157401930Y-147856194D01*
X157401933Y-147856195D01*
X157716073Y-147936852D01*
X158037825Y-147977499D01*
X158037839Y-147977500D01*
X158362161Y-147977500D01*
X158362174Y-147977499D01*
X158683926Y-147936852D01*
X158998066Y-147856195D01*
X158998069Y-147856194D01*
X159299607Y-147736807D01*
X159299615Y-147736803D01*
X159583817Y-147580562D01*
X159583827Y-147580555D01*
X159840509Y-147394063D01*
X159840510Y-147394063D01*
X158986525Y-146540078D01*
X159073231Y-146481476D01*
X159243441Y-146318343D01*
X159340569Y-146187015D01*
X160190757Y-147037203D01*
X160289367Y-146918007D01*
X160463144Y-146644177D01*
X160463147Y-146644171D01*
X160601234Y-146350723D01*
X160601236Y-146350718D01*
X160701457Y-146042270D01*
X160762231Y-145723681D01*
X160762232Y-145723674D01*
X160782596Y-145400005D01*
X164417404Y-145400005D01*
X164437767Y-145723674D01*
X164437768Y-145723681D01*
X164498542Y-146042270D01*
X164598763Y-146350718D01*
X164598765Y-146350723D01*
X164736852Y-146644171D01*
X164736855Y-146644177D01*
X164910629Y-146918002D01*
X165009241Y-147037203D01*
X165858605Y-146187839D01*
X165882438Y-146226545D01*
X166038199Y-146403525D01*
X166210723Y-146542828D01*
X165359488Y-147394063D01*
X165616172Y-147580555D01*
X165616182Y-147580562D01*
X165900384Y-147736803D01*
X165900392Y-147736807D01*
X166201930Y-147856194D01*
X166201933Y-147856195D01*
X166516073Y-147936852D01*
X166837825Y-147977499D01*
X166837839Y-147977500D01*
X167162161Y-147977500D01*
X167162174Y-147977499D01*
X167483926Y-147936852D01*
X167798066Y-147856195D01*
X167798069Y-147856194D01*
X168099607Y-147736807D01*
X168099615Y-147736803D01*
X168383817Y-147580562D01*
X168383827Y-147580555D01*
X168640509Y-147394063D01*
X168640510Y-147394063D01*
X167786525Y-146540078D01*
X167873231Y-146481476D01*
X168043441Y-146318343D01*
X168140569Y-146187015D01*
X168990757Y-147037203D01*
X169089367Y-146918007D01*
X169263144Y-146644177D01*
X169263147Y-146644171D01*
X169401234Y-146350723D01*
X169401236Y-146350718D01*
X169501457Y-146042270D01*
X169542356Y-145827870D01*
X178839500Y-145827870D01*
X178839501Y-145827876D01*
X178845908Y-145887483D01*
X178896202Y-146022328D01*
X178896206Y-146022335D01*
X178982452Y-146137544D01*
X178982455Y-146137547D01*
X179097664Y-146223793D01*
X179097671Y-146223797D01*
X179232517Y-146274091D01*
X179232516Y-146274091D01*
X179239444Y-146274835D01*
X179292127Y-146280500D01*
X181387872Y-146280499D01*
X181447483Y-146274091D01*
X181582331Y-146223796D01*
X181697546Y-146137546D01*
X181783796Y-146022331D01*
X181834091Y-145887483D01*
X181840500Y-145827873D01*
X181840500Y-144780005D01*
X183834357Y-144780005D01*
X183854890Y-145027812D01*
X183854892Y-145027824D01*
X183915936Y-145268881D01*
X184015826Y-145496606D01*
X184151833Y-145704782D01*
X184169231Y-145723681D01*
X184320256Y-145887738D01*
X184516491Y-146040474D01*
X184735190Y-146158828D01*
X184970386Y-146239571D01*
X185215665Y-146280500D01*
X185464335Y-146280500D01*
X185709614Y-146239571D01*
X185944810Y-146158828D01*
X186163509Y-146040474D01*
X186359744Y-145887738D01*
X186528164Y-145704785D01*
X186664173Y-145496607D01*
X186764063Y-145268881D01*
X186825108Y-145027821D01*
X186845643Y-144780000D01*
X186845163Y-144774213D01*
X186825109Y-144532187D01*
X186825107Y-144532175D01*
X186764063Y-144291118D01*
X186664173Y-144063393D01*
X186528166Y-143855217D01*
X186506557Y-143831744D01*
X186359744Y-143672262D01*
X186163509Y-143519526D01*
X186163507Y-143519525D01*
X186163506Y-143519524D01*
X185944811Y-143401172D01*
X185944802Y-143401169D01*
X185709616Y-143320429D01*
X185464335Y-143279500D01*
X185215665Y-143279500D01*
X184970383Y-143320429D01*
X184735197Y-143401169D01*
X184735188Y-143401172D01*
X184516493Y-143519524D01*
X184320257Y-143672261D01*
X184151833Y-143855217D01*
X184015826Y-144063393D01*
X183915936Y-144291118D01*
X183854892Y-144532175D01*
X183854890Y-144532187D01*
X183834357Y-144779994D01*
X183834357Y-144780005D01*
X181840500Y-144780005D01*
X181840499Y-143732128D01*
X181834091Y-143672517D01*
X181783796Y-143537669D01*
X181783795Y-143537668D01*
X181783793Y-143537664D01*
X181697547Y-143422455D01*
X181697544Y-143422452D01*
X181582335Y-143336206D01*
X181582328Y-143336202D01*
X181447482Y-143285908D01*
X181447483Y-143285908D01*
X181387883Y-143279501D01*
X181387881Y-143279500D01*
X181387873Y-143279500D01*
X181387864Y-143279500D01*
X179292129Y-143279500D01*
X179292123Y-143279501D01*
X179232516Y-143285908D01*
X179097671Y-143336202D01*
X179097664Y-143336206D01*
X178982455Y-143422452D01*
X178982452Y-143422455D01*
X178896206Y-143537664D01*
X178896202Y-143537671D01*
X178845908Y-143672517D01*
X178839501Y-143732116D01*
X178839501Y-143732123D01*
X178839500Y-143732135D01*
X178839500Y-145827870D01*
X169542356Y-145827870D01*
X169562231Y-145723681D01*
X169562232Y-145723674D01*
X169582596Y-145400005D01*
X169582596Y-145399994D01*
X169562232Y-145076325D01*
X169562231Y-145076318D01*
X169501457Y-144757729D01*
X169401236Y-144449281D01*
X169401234Y-144449276D01*
X169263147Y-144155828D01*
X169263144Y-144155822D01*
X169089367Y-143881992D01*
X168990757Y-143762794D01*
X168141392Y-144612158D01*
X168117562Y-144573455D01*
X167961801Y-144396475D01*
X167789275Y-144257170D01*
X168640510Y-143405935D01*
X168640509Y-143405933D01*
X168383835Y-143219449D01*
X168383817Y-143219437D01*
X168099615Y-143063196D01*
X168099607Y-143063192D01*
X167798069Y-142943805D01*
X167798066Y-142943804D01*
X167483926Y-142863147D01*
X167162174Y-142822500D01*
X166837825Y-142822500D01*
X166516073Y-142863147D01*
X166201933Y-142943804D01*
X166201930Y-142943805D01*
X165900392Y-143063192D01*
X165900384Y-143063196D01*
X165616182Y-143219437D01*
X165616164Y-143219449D01*
X165359489Y-143405933D01*
X165359488Y-143405935D01*
X166213474Y-144259921D01*
X166126769Y-144318524D01*
X165956559Y-144481657D01*
X165859430Y-144612983D01*
X165009241Y-143762794D01*
X164910637Y-143881985D01*
X164910634Y-143881989D01*
X164736855Y-144155822D01*
X164736852Y-144155828D01*
X164598765Y-144449276D01*
X164598763Y-144449281D01*
X164498542Y-144757729D01*
X164437768Y-145076318D01*
X164437767Y-145076325D01*
X164417404Y-145399994D01*
X164417404Y-145400005D01*
X160782596Y-145400005D01*
X160782596Y-145399994D01*
X160762232Y-145076325D01*
X160762231Y-145076318D01*
X160701457Y-144757729D01*
X160601236Y-144449281D01*
X160601234Y-144449276D01*
X160463147Y-144155828D01*
X160463144Y-144155822D01*
X160289367Y-143881992D01*
X160190757Y-143762794D01*
X159341392Y-144612158D01*
X159317562Y-144573455D01*
X159161801Y-144396475D01*
X158989275Y-144257170D01*
X159840510Y-143405935D01*
X159840509Y-143405933D01*
X159583835Y-143219449D01*
X159583817Y-143219437D01*
X159299615Y-143063196D01*
X159299607Y-143063192D01*
X158998069Y-142943805D01*
X158998066Y-142943804D01*
X158683926Y-142863147D01*
X158362174Y-142822500D01*
X158037825Y-142822500D01*
X157716073Y-142863147D01*
X157401933Y-142943804D01*
X157401930Y-142943805D01*
X157100392Y-143063192D01*
X157100384Y-143063196D01*
X156816182Y-143219437D01*
X156816164Y-143219449D01*
X156559489Y-143405933D01*
X156559488Y-143405935D01*
X157413474Y-144259921D01*
X157326769Y-144318524D01*
X157156559Y-144481657D01*
X157059430Y-144612983D01*
X156209241Y-143762794D01*
X156110637Y-143881985D01*
X156110634Y-143881989D01*
X155936855Y-144155822D01*
X155936852Y-144155828D01*
X155798765Y-144449276D01*
X155798763Y-144449281D01*
X155698542Y-144757729D01*
X155637768Y-145076318D01*
X155637767Y-145076325D01*
X155617404Y-145399994D01*
X155617404Y-145400005D01*
X66040500Y-145400005D01*
X66040500Y-127000000D01*
X137524540Y-127000000D01*
X137544326Y-127188256D01*
X137544327Y-127188259D01*
X137602818Y-127368277D01*
X137602821Y-127368284D01*
X137697467Y-127532216D01*
X137824129Y-127672888D01*
X137977265Y-127784148D01*
X137977270Y-127784151D01*
X138150192Y-127861142D01*
X138150197Y-127861144D01*
X138335354Y-127900500D01*
X138335355Y-127900500D01*
X138524644Y-127900500D01*
X138524646Y-127900500D01*
X138709803Y-127861144D01*
X138882730Y-127784151D01*
X139035871Y-127672888D01*
X139162533Y-127532216D01*
X139257179Y-127368284D01*
X139315674Y-127188256D01*
X139335460Y-127000000D01*
X139315674Y-126811744D01*
X139257179Y-126631716D01*
X139162533Y-126467784D01*
X139035871Y-126327112D01*
X139035870Y-126327111D01*
X138882734Y-126215851D01*
X138882729Y-126215848D01*
X138709807Y-126138857D01*
X138709802Y-126138855D01*
X138564001Y-126107865D01*
X138524646Y-126099500D01*
X138335354Y-126099500D01*
X138302897Y-126106398D01*
X138150197Y-126138855D01*
X138150192Y-126138857D01*
X137977270Y-126215848D01*
X137977265Y-126215851D01*
X137824129Y-126327111D01*
X137697466Y-126467785D01*
X137602821Y-126631715D01*
X137602818Y-126631722D01*
X137544327Y-126811740D01*
X137544326Y-126811744D01*
X137524540Y-127000000D01*
X66040500Y-127000000D01*
X66040500Y-121920000D01*
X76564540Y-121920000D01*
X76584326Y-122108256D01*
X76584327Y-122108259D01*
X76642818Y-122288277D01*
X76642821Y-122288284D01*
X76737467Y-122452216D01*
X76864129Y-122592888D01*
X77017265Y-122704148D01*
X77017270Y-122704151D01*
X77190192Y-122781142D01*
X77190197Y-122781144D01*
X77375354Y-122820500D01*
X77375355Y-122820500D01*
X77564644Y-122820500D01*
X77564646Y-122820500D01*
X77749803Y-122781144D01*
X77922730Y-122704151D01*
X78075871Y-122592888D01*
X78202533Y-122452216D01*
X78297179Y-122288284D01*
X78355674Y-122108256D01*
X78375460Y-121920000D01*
X85454540Y-121920000D01*
X85474326Y-122108256D01*
X85474327Y-122108259D01*
X85532818Y-122288277D01*
X85532821Y-122288284D01*
X85627467Y-122452216D01*
X85754129Y-122592888D01*
X85907265Y-122704148D01*
X85907270Y-122704151D01*
X86080192Y-122781142D01*
X86080197Y-122781144D01*
X86265354Y-122820500D01*
X86265355Y-122820500D01*
X86454644Y-122820500D01*
X86454646Y-122820500D01*
X86639803Y-122781144D01*
X86812730Y-122704151D01*
X86965871Y-122592888D01*
X87092533Y-122452216D01*
X87187179Y-122288284D01*
X87245674Y-122108256D01*
X87265460Y-121920000D01*
X95614540Y-121920000D01*
X95634326Y-122108256D01*
X95634327Y-122108259D01*
X95692818Y-122288277D01*
X95692821Y-122288284D01*
X95787467Y-122452216D01*
X95914129Y-122592888D01*
X96067265Y-122704148D01*
X96067270Y-122704151D01*
X96240192Y-122781142D01*
X96240197Y-122781144D01*
X96425354Y-122820500D01*
X96425355Y-122820500D01*
X96614644Y-122820500D01*
X96614646Y-122820500D01*
X96799803Y-122781144D01*
X96972730Y-122704151D01*
X97125871Y-122592888D01*
X97252533Y-122452216D01*
X97347179Y-122288284D01*
X97405674Y-122108256D01*
X97425460Y-121920000D01*
X104504540Y-121920000D01*
X104524326Y-122108256D01*
X104524327Y-122108259D01*
X104582818Y-122288277D01*
X104582821Y-122288284D01*
X104677467Y-122452216D01*
X104804129Y-122592888D01*
X104957265Y-122704148D01*
X104957270Y-122704151D01*
X105130192Y-122781142D01*
X105130197Y-122781144D01*
X105315354Y-122820500D01*
X105315355Y-122820500D01*
X105504644Y-122820500D01*
X105504646Y-122820500D01*
X105689803Y-122781144D01*
X105862730Y-122704151D01*
X106015871Y-122592888D01*
X106142533Y-122452216D01*
X106237179Y-122288284D01*
X106295674Y-122108256D01*
X106315460Y-121920000D01*
X114664540Y-121920000D01*
X114684326Y-122108256D01*
X114684327Y-122108259D01*
X114742818Y-122288277D01*
X114742821Y-122288284D01*
X114837467Y-122452216D01*
X114964129Y-122592888D01*
X115117265Y-122704148D01*
X115117270Y-122704151D01*
X115290192Y-122781142D01*
X115290197Y-122781144D01*
X115475354Y-122820500D01*
X115475355Y-122820500D01*
X115664644Y-122820500D01*
X115664646Y-122820500D01*
X115849803Y-122781144D01*
X116022730Y-122704151D01*
X116175871Y-122592888D01*
X116302533Y-122452216D01*
X116397179Y-122288284D01*
X116455674Y-122108256D01*
X116475460Y-121920000D01*
X123554540Y-121920000D01*
X123574326Y-122108256D01*
X123574327Y-122108259D01*
X123632818Y-122288277D01*
X123632821Y-122288284D01*
X123727467Y-122452216D01*
X123854129Y-122592888D01*
X124007265Y-122704148D01*
X124007270Y-122704151D01*
X124180192Y-122781142D01*
X124180197Y-122781144D01*
X124365354Y-122820500D01*
X124365355Y-122820500D01*
X124554644Y-122820500D01*
X124554646Y-122820500D01*
X124739803Y-122781144D01*
X124912730Y-122704151D01*
X125065871Y-122592888D01*
X125192533Y-122452216D01*
X125287179Y-122288284D01*
X125345674Y-122108256D01*
X125365460Y-121920000D01*
X145144540Y-121920000D01*
X145164326Y-122108256D01*
X145164327Y-122108259D01*
X145222818Y-122288277D01*
X145222821Y-122288284D01*
X145317467Y-122452216D01*
X145444129Y-122592888D01*
X145597265Y-122704148D01*
X145597270Y-122704151D01*
X145770192Y-122781142D01*
X145770197Y-122781144D01*
X145955354Y-122820500D01*
X145955355Y-122820500D01*
X146144644Y-122820500D01*
X146144646Y-122820500D01*
X146329803Y-122781144D01*
X146502730Y-122704151D01*
X146655871Y-122592888D01*
X146782533Y-122452216D01*
X146877179Y-122288284D01*
X146935674Y-122108256D01*
X146955460Y-121920000D01*
X146935674Y-121731744D01*
X146877179Y-121551716D01*
X146782533Y-121387784D01*
X146655871Y-121247112D01*
X146655870Y-121247111D01*
X146502734Y-121135851D01*
X146502729Y-121135848D01*
X146329807Y-121058857D01*
X146329802Y-121058855D01*
X146184001Y-121027865D01*
X146144646Y-121019500D01*
X145955354Y-121019500D01*
X145922897Y-121026398D01*
X145770197Y-121058855D01*
X145770192Y-121058857D01*
X145597270Y-121135848D01*
X145597265Y-121135851D01*
X145444129Y-121247111D01*
X145317466Y-121387785D01*
X145222821Y-121551715D01*
X145222818Y-121551722D01*
X145164327Y-121731740D01*
X145164326Y-121731744D01*
X145144540Y-121920000D01*
X125365460Y-121920000D01*
X125345674Y-121731744D01*
X125287179Y-121551716D01*
X125192533Y-121387784D01*
X125065871Y-121247112D01*
X125065870Y-121247111D01*
X124912734Y-121135851D01*
X124912729Y-121135848D01*
X124739807Y-121058857D01*
X124739802Y-121058855D01*
X124594001Y-121027865D01*
X124554646Y-121019500D01*
X124365354Y-121019500D01*
X124332897Y-121026398D01*
X124180197Y-121058855D01*
X124180192Y-121058857D01*
X124007270Y-121135848D01*
X124007265Y-121135851D01*
X123854129Y-121247111D01*
X123727466Y-121387785D01*
X123632821Y-121551715D01*
X123632818Y-121551722D01*
X123574327Y-121731740D01*
X123574326Y-121731744D01*
X123554540Y-121920000D01*
X116475460Y-121920000D01*
X116455674Y-121731744D01*
X116397179Y-121551716D01*
X116302533Y-121387784D01*
X116175871Y-121247112D01*
X116175870Y-121247111D01*
X116022734Y-121135851D01*
X116022729Y-121135848D01*
X115849807Y-121058857D01*
X115849802Y-121058855D01*
X115704001Y-121027865D01*
X115664646Y-121019500D01*
X115475354Y-121019500D01*
X115442897Y-121026398D01*
X115290197Y-121058855D01*
X115290192Y-121058857D01*
X115117270Y-121135848D01*
X115117265Y-121135851D01*
X114964129Y-121247111D01*
X114837466Y-121387785D01*
X114742821Y-121551715D01*
X114742818Y-121551722D01*
X114684327Y-121731740D01*
X114684326Y-121731744D01*
X114664540Y-121920000D01*
X106315460Y-121920000D01*
X106295674Y-121731744D01*
X106237179Y-121551716D01*
X106142533Y-121387784D01*
X106015871Y-121247112D01*
X106015870Y-121247111D01*
X105862734Y-121135851D01*
X105862729Y-121135848D01*
X105689807Y-121058857D01*
X105689802Y-121058855D01*
X105544001Y-121027865D01*
X105504646Y-121019500D01*
X105315354Y-121019500D01*
X105282897Y-121026398D01*
X105130197Y-121058855D01*
X105130192Y-121058857D01*
X104957270Y-121135848D01*
X104957265Y-121135851D01*
X104804129Y-121247111D01*
X104677466Y-121387785D01*
X104582821Y-121551715D01*
X104582818Y-121551722D01*
X104524327Y-121731740D01*
X104524326Y-121731744D01*
X104504540Y-121920000D01*
X97425460Y-121920000D01*
X97405674Y-121731744D01*
X97347179Y-121551716D01*
X97252533Y-121387784D01*
X97125871Y-121247112D01*
X97125870Y-121247111D01*
X96972734Y-121135851D01*
X96972729Y-121135848D01*
X96799807Y-121058857D01*
X96799802Y-121058855D01*
X96654001Y-121027865D01*
X96614646Y-121019500D01*
X96425354Y-121019500D01*
X96392897Y-121026398D01*
X96240197Y-121058855D01*
X96240192Y-121058857D01*
X96067270Y-121135848D01*
X96067265Y-121135851D01*
X95914129Y-121247111D01*
X95787466Y-121387785D01*
X95692821Y-121551715D01*
X95692818Y-121551722D01*
X95634327Y-121731740D01*
X95634326Y-121731744D01*
X95614540Y-121920000D01*
X87265460Y-121920000D01*
X87245674Y-121731744D01*
X87187179Y-121551716D01*
X87092533Y-121387784D01*
X86965871Y-121247112D01*
X86965870Y-121247111D01*
X86812734Y-121135851D01*
X86812729Y-121135848D01*
X86639807Y-121058857D01*
X86639802Y-121058855D01*
X86494001Y-121027865D01*
X86454646Y-121019500D01*
X86265354Y-121019500D01*
X86232897Y-121026398D01*
X86080197Y-121058855D01*
X86080192Y-121058857D01*
X85907270Y-121135848D01*
X85907265Y-121135851D01*
X85754129Y-121247111D01*
X85627466Y-121387785D01*
X85532821Y-121551715D01*
X85532818Y-121551722D01*
X85474327Y-121731740D01*
X85474326Y-121731744D01*
X85454540Y-121920000D01*
X78375460Y-121920000D01*
X78355674Y-121731744D01*
X78297179Y-121551716D01*
X78202533Y-121387784D01*
X78075871Y-121247112D01*
X78075870Y-121247111D01*
X77922734Y-121135851D01*
X77922729Y-121135848D01*
X77749807Y-121058857D01*
X77749802Y-121058855D01*
X77604001Y-121027865D01*
X77564646Y-121019500D01*
X77375354Y-121019500D01*
X77342897Y-121026398D01*
X77190197Y-121058855D01*
X77190192Y-121058857D01*
X77017270Y-121135848D01*
X77017265Y-121135851D01*
X76864129Y-121247111D01*
X76737466Y-121387785D01*
X76642821Y-121551715D01*
X76642818Y-121551722D01*
X76584327Y-121731740D01*
X76584326Y-121731744D01*
X76564540Y-121920000D01*
X66040500Y-121920000D01*
X66040500Y-119380000D01*
X161654540Y-119380000D01*
X161674326Y-119568256D01*
X161674327Y-119568259D01*
X161732818Y-119748277D01*
X161732821Y-119748284D01*
X161827467Y-119912216D01*
X161954129Y-120052888D01*
X162107265Y-120164148D01*
X162107270Y-120164151D01*
X162280192Y-120241142D01*
X162280197Y-120241144D01*
X162465354Y-120280500D01*
X162465355Y-120280500D01*
X162654644Y-120280500D01*
X162654646Y-120280500D01*
X162839803Y-120241144D01*
X163012730Y-120164151D01*
X163165871Y-120052888D01*
X163292533Y-119912216D01*
X163387179Y-119748284D01*
X163445674Y-119568256D01*
X163465460Y-119380000D01*
X163445674Y-119191744D01*
X163387179Y-119011716D01*
X163292533Y-118847784D01*
X163165871Y-118707112D01*
X163165870Y-118707111D01*
X163012734Y-118595851D01*
X163012729Y-118595848D01*
X162839807Y-118518857D01*
X162839802Y-118518855D01*
X162694001Y-118487865D01*
X162654646Y-118479500D01*
X162465354Y-118479500D01*
X162432897Y-118486398D01*
X162280197Y-118518855D01*
X162280192Y-118518857D01*
X162107270Y-118595848D01*
X162107265Y-118595851D01*
X161954129Y-118707111D01*
X161827466Y-118847785D01*
X161732821Y-119011715D01*
X161732818Y-119011722D01*
X161674327Y-119191740D01*
X161674326Y-119191744D01*
X161654540Y-119380000D01*
X66040500Y-119380000D01*
X66040500Y-116840000D01*
X165464540Y-116840000D01*
X165484326Y-117028256D01*
X165484327Y-117028259D01*
X165542818Y-117208277D01*
X165542821Y-117208284D01*
X165637467Y-117372216D01*
X165764129Y-117512888D01*
X165917265Y-117624148D01*
X165917270Y-117624151D01*
X166090192Y-117701142D01*
X166090197Y-117701144D01*
X166275354Y-117740500D01*
X166275355Y-117740500D01*
X166464644Y-117740500D01*
X166464646Y-117740500D01*
X166649803Y-117701144D01*
X166822730Y-117624151D01*
X166975871Y-117512888D01*
X167102533Y-117372216D01*
X167197179Y-117208284D01*
X167255674Y-117028256D01*
X167275460Y-116840000D01*
X167255674Y-116651744D01*
X167197179Y-116471716D01*
X167102533Y-116307784D01*
X166975871Y-116167112D01*
X166975870Y-116167111D01*
X166822734Y-116055851D01*
X166822729Y-116055848D01*
X166649807Y-115978857D01*
X166649802Y-115978855D01*
X166504001Y-115947865D01*
X166464646Y-115939500D01*
X166275354Y-115939500D01*
X166242897Y-115946398D01*
X166090197Y-115978855D01*
X166090192Y-115978857D01*
X165917270Y-116055848D01*
X165917265Y-116055851D01*
X165764129Y-116167111D01*
X165637466Y-116307785D01*
X165542821Y-116471715D01*
X165542818Y-116471722D01*
X165484327Y-116651740D01*
X165484326Y-116651744D01*
X165464540Y-116840000D01*
X66040500Y-116840000D01*
X66040500Y-115570000D01*
X75294540Y-115570000D01*
X75314326Y-115758256D01*
X75314327Y-115758259D01*
X75372818Y-115938277D01*
X75372821Y-115938284D01*
X75467467Y-116102216D01*
X75525899Y-116167111D01*
X75594129Y-116242888D01*
X75747265Y-116354148D01*
X75747270Y-116354151D01*
X75920192Y-116431142D01*
X75920197Y-116431144D01*
X76105354Y-116470500D01*
X76105355Y-116470500D01*
X76294644Y-116470500D01*
X76294646Y-116470500D01*
X76479803Y-116431144D01*
X76652730Y-116354151D01*
X76805871Y-116242888D01*
X76932533Y-116102216D01*
X77027179Y-115938284D01*
X77085674Y-115758256D01*
X77103321Y-115590345D01*
X77129905Y-115525732D01*
X77138952Y-115515636D01*
X78264218Y-114390370D01*
X165704500Y-114390370D01*
X165704501Y-114390376D01*
X165710908Y-114449983D01*
X165761202Y-114584828D01*
X165761206Y-114584835D01*
X165847452Y-114700044D01*
X165847455Y-114700047D01*
X165962664Y-114786293D01*
X165962671Y-114786297D01*
X166097517Y-114836591D01*
X166097516Y-114836591D01*
X166104444Y-114837335D01*
X166157127Y-114843000D01*
X167852872Y-114842999D01*
X167912483Y-114836591D01*
X168047331Y-114786296D01*
X168162546Y-114700046D01*
X168248796Y-114584831D01*
X168299091Y-114449983D01*
X168302862Y-114414901D01*
X168329599Y-114350355D01*
X168386990Y-114310506D01*
X168456816Y-114308011D01*
X168516905Y-114343663D01*
X168527726Y-114357036D01*
X168544956Y-114381643D01*
X168705858Y-114542545D01*
X168705861Y-114542547D01*
X168892266Y-114673068D01*
X169098504Y-114769239D01*
X169318308Y-114828135D01*
X169480230Y-114842301D01*
X169544998Y-114847968D01*
X169545000Y-114847968D01*
X169545002Y-114847968D01*
X169601807Y-114842998D01*
X169771692Y-114828135D01*
X169991496Y-114769239D01*
X170197734Y-114673068D01*
X170384139Y-114542547D01*
X170545047Y-114381639D01*
X170675568Y-114195234D01*
X170702618Y-114137224D01*
X170748790Y-114084785D01*
X170815983Y-114065633D01*
X170882865Y-114085848D01*
X170927382Y-114137225D01*
X170954429Y-114195228D01*
X170954432Y-114195234D01*
X171084954Y-114381641D01*
X171245858Y-114542545D01*
X171245861Y-114542547D01*
X171432266Y-114673068D01*
X171638504Y-114769239D01*
X171858308Y-114828135D01*
X172020230Y-114842301D01*
X172084998Y-114847968D01*
X172085000Y-114847968D01*
X172085002Y-114847968D01*
X172141807Y-114842998D01*
X172311692Y-114828135D01*
X172531496Y-114769239D01*
X172737734Y-114673068D01*
X172924139Y-114542547D01*
X173085047Y-114381639D01*
X173215568Y-114195234D01*
X173242618Y-114137224D01*
X173288790Y-114084785D01*
X173355983Y-114065633D01*
X173422865Y-114085848D01*
X173467382Y-114137225D01*
X173494429Y-114195228D01*
X173494432Y-114195234D01*
X173624954Y-114381641D01*
X173785858Y-114542545D01*
X173785861Y-114542547D01*
X173972266Y-114673068D01*
X174178504Y-114769239D01*
X174398308Y-114828135D01*
X174560230Y-114842301D01*
X174624998Y-114847968D01*
X174625000Y-114847968D01*
X174625002Y-114847968D01*
X174681807Y-114842998D01*
X174851692Y-114828135D01*
X175071496Y-114769239D01*
X175277734Y-114673068D01*
X175464139Y-114542547D01*
X175625047Y-114381639D01*
X175755568Y-114195234D01*
X175782895Y-114136629D01*
X175829064Y-114084195D01*
X175896257Y-114065042D01*
X175963139Y-114085257D01*
X176007657Y-114136633D01*
X176034865Y-114194981D01*
X176034866Y-114194983D01*
X176085973Y-114267971D01*
X176085974Y-114267972D01*
X176767046Y-113586899D01*
X176779835Y-113667648D01*
X176837359Y-113780545D01*
X176926955Y-113870141D01*
X177039852Y-113927665D01*
X177120599Y-113940453D01*
X176439526Y-114621525D01*
X176439526Y-114621526D01*
X176512512Y-114672631D01*
X176512516Y-114672633D01*
X176718673Y-114768765D01*
X176718682Y-114768769D01*
X176938389Y-114827639D01*
X176938400Y-114827641D01*
X177164998Y-114847466D01*
X177165002Y-114847466D01*
X177391599Y-114827641D01*
X177391610Y-114827639D01*
X177611317Y-114768769D01*
X177611331Y-114768764D01*
X177817478Y-114672636D01*
X177890472Y-114621525D01*
X177659317Y-114390370D01*
X179674500Y-114390370D01*
X179674501Y-114390376D01*
X179680908Y-114449983D01*
X179731202Y-114584828D01*
X179731206Y-114584835D01*
X179817452Y-114700044D01*
X179817455Y-114700047D01*
X179932664Y-114786293D01*
X179932671Y-114786297D01*
X180067517Y-114836591D01*
X180067516Y-114836591D01*
X180074444Y-114837335D01*
X180127127Y-114843000D01*
X181822872Y-114842999D01*
X181882483Y-114836591D01*
X182017331Y-114786296D01*
X182132546Y-114700046D01*
X182218796Y-114584831D01*
X182269091Y-114449983D01*
X182272862Y-114414901D01*
X182299599Y-114350355D01*
X182356990Y-114310506D01*
X182426816Y-114308011D01*
X182486905Y-114343663D01*
X182497726Y-114357036D01*
X182514956Y-114381643D01*
X182675858Y-114542545D01*
X182675861Y-114542547D01*
X182862266Y-114673068D01*
X183068504Y-114769239D01*
X183288308Y-114828135D01*
X183450230Y-114842301D01*
X183514998Y-114847968D01*
X183515000Y-114847968D01*
X183515002Y-114847968D01*
X183571807Y-114842998D01*
X183741692Y-114828135D01*
X183961496Y-114769239D01*
X184167734Y-114673068D01*
X184354139Y-114542547D01*
X184515047Y-114381639D01*
X184645568Y-114195234D01*
X184672618Y-114137224D01*
X184718790Y-114084785D01*
X184785983Y-114065633D01*
X184852865Y-114085848D01*
X184897382Y-114137225D01*
X184924429Y-114195228D01*
X184924432Y-114195234D01*
X185054954Y-114381641D01*
X185215858Y-114542545D01*
X185215861Y-114542547D01*
X185402266Y-114673068D01*
X185608504Y-114769239D01*
X185828308Y-114828135D01*
X185990230Y-114842301D01*
X186054998Y-114847968D01*
X186055000Y-114847968D01*
X186055002Y-114847968D01*
X186111807Y-114842998D01*
X186281692Y-114828135D01*
X186501496Y-114769239D01*
X186707734Y-114673068D01*
X186894139Y-114542547D01*
X187055047Y-114381639D01*
X187185568Y-114195234D01*
X187212618Y-114137224D01*
X187258790Y-114084785D01*
X187325983Y-114065633D01*
X187392865Y-114085848D01*
X187437382Y-114137225D01*
X187464429Y-114195228D01*
X187464432Y-114195234D01*
X187594954Y-114381641D01*
X187755858Y-114542545D01*
X187755861Y-114542547D01*
X187942266Y-114673068D01*
X188148504Y-114769239D01*
X188368308Y-114828135D01*
X188530230Y-114842301D01*
X188594998Y-114847968D01*
X188595000Y-114847968D01*
X188595002Y-114847968D01*
X188651807Y-114842998D01*
X188821692Y-114828135D01*
X189041496Y-114769239D01*
X189247734Y-114673068D01*
X189434139Y-114542547D01*
X189595047Y-114381639D01*
X189725568Y-114195234D01*
X189752895Y-114136629D01*
X189799064Y-114084195D01*
X189866257Y-114065042D01*
X189933139Y-114085257D01*
X189977657Y-114136633D01*
X190004865Y-114194981D01*
X190004866Y-114194983D01*
X190055973Y-114267971D01*
X190055974Y-114267972D01*
X190737046Y-113586899D01*
X190749835Y-113667648D01*
X190807359Y-113780545D01*
X190896955Y-113870141D01*
X191009852Y-113927665D01*
X191090599Y-113940453D01*
X190409526Y-114621525D01*
X190409526Y-114621526D01*
X190482512Y-114672631D01*
X190482516Y-114672633D01*
X190688673Y-114768765D01*
X190688682Y-114768769D01*
X190908389Y-114827639D01*
X190908400Y-114827641D01*
X191134998Y-114847466D01*
X191135002Y-114847466D01*
X191361599Y-114827641D01*
X191361610Y-114827639D01*
X191581317Y-114768769D01*
X191581331Y-114768764D01*
X191787478Y-114672636D01*
X191860472Y-114621525D01*
X191179401Y-113940453D01*
X191260148Y-113927665D01*
X191373045Y-113870141D01*
X191462641Y-113780545D01*
X191520165Y-113667648D01*
X191532953Y-113586900D01*
X192214025Y-114267972D01*
X192265136Y-114194978D01*
X192361264Y-113988831D01*
X192361269Y-113988817D01*
X192420139Y-113769110D01*
X192420141Y-113769099D01*
X192439966Y-113542502D01*
X192439966Y-113542497D01*
X192420141Y-113315900D01*
X192420139Y-113315889D01*
X192361269Y-113096182D01*
X192361265Y-113096173D01*
X192265133Y-112890016D01*
X192265131Y-112890012D01*
X192214026Y-112817026D01*
X192214025Y-112817026D01*
X191532953Y-113498098D01*
X191520165Y-113417352D01*
X191462641Y-113304455D01*
X191373045Y-113214859D01*
X191260148Y-113157335D01*
X191179400Y-113144546D01*
X191860472Y-112463474D01*
X191860471Y-112463473D01*
X191787483Y-112412366D01*
X191787481Y-112412365D01*
X191581326Y-112316234D01*
X191581317Y-112316230D01*
X191361610Y-112257360D01*
X191361599Y-112257358D01*
X191135002Y-112237534D01*
X191134998Y-112237534D01*
X190908400Y-112257358D01*
X190908389Y-112257360D01*
X190688682Y-112316230D01*
X190688673Y-112316234D01*
X190482513Y-112412368D01*
X190409527Y-112463472D01*
X190409526Y-112463473D01*
X191090600Y-113144546D01*
X191009852Y-113157335D01*
X190896955Y-113214859D01*
X190807359Y-113304455D01*
X190749835Y-113417352D01*
X190737046Y-113498099D01*
X190055973Y-112817026D01*
X190055972Y-112817027D01*
X190004869Y-112890011D01*
X189977657Y-112948367D01*
X189931484Y-113000806D01*
X189864290Y-113019957D01*
X189797409Y-112999741D01*
X189752893Y-112948365D01*
X189725684Y-112890016D01*
X189725568Y-112889766D01*
X189595047Y-112703361D01*
X189595045Y-112703358D01*
X189434141Y-112542454D01*
X189247734Y-112411932D01*
X189247732Y-112411931D01*
X189041497Y-112315761D01*
X189041488Y-112315758D01*
X188821697Y-112256866D01*
X188821693Y-112256865D01*
X188821692Y-112256865D01*
X188821691Y-112256864D01*
X188821686Y-112256864D01*
X188595002Y-112237032D01*
X188594998Y-112237032D01*
X188368313Y-112256864D01*
X188368302Y-112256866D01*
X188148511Y-112315758D01*
X188148502Y-112315761D01*
X187942267Y-112411931D01*
X187942265Y-112411932D01*
X187755858Y-112542454D01*
X187594954Y-112703358D01*
X187464432Y-112889765D01*
X187464431Y-112889767D01*
X187437382Y-112947775D01*
X187391209Y-113000214D01*
X187324016Y-113019366D01*
X187257135Y-112999150D01*
X187212618Y-112947775D01*
X187185568Y-112889766D01*
X187055047Y-112703361D01*
X187055045Y-112703358D01*
X186894141Y-112542454D01*
X186707734Y-112411932D01*
X186707732Y-112411931D01*
X186501497Y-112315761D01*
X186501488Y-112315758D01*
X186281697Y-112256866D01*
X186281693Y-112256865D01*
X186281692Y-112256865D01*
X186281691Y-112256864D01*
X186281686Y-112256864D01*
X186055002Y-112237032D01*
X186054998Y-112237032D01*
X185828313Y-112256864D01*
X185828302Y-112256866D01*
X185608511Y-112315758D01*
X185608502Y-112315761D01*
X185402267Y-112411931D01*
X185402265Y-112411932D01*
X185215858Y-112542454D01*
X185054954Y-112703358D01*
X184924432Y-112889765D01*
X184924431Y-112889767D01*
X184897382Y-112947775D01*
X184851209Y-113000214D01*
X184784016Y-113019366D01*
X184717135Y-112999150D01*
X184672618Y-112947775D01*
X184645568Y-112889766D01*
X184515047Y-112703361D01*
X184515045Y-112703358D01*
X184354141Y-112542454D01*
X184167734Y-112411932D01*
X184167732Y-112411931D01*
X183961497Y-112315761D01*
X183961488Y-112315758D01*
X183741697Y-112256866D01*
X183741693Y-112256865D01*
X183741692Y-112256865D01*
X183741691Y-112256864D01*
X183741686Y-112256864D01*
X183515002Y-112237032D01*
X183514998Y-112237032D01*
X183288313Y-112256864D01*
X183288302Y-112256866D01*
X183068511Y-112315758D01*
X183068502Y-112315761D01*
X182862267Y-112411931D01*
X182862265Y-112411932D01*
X182675858Y-112542454D01*
X182514954Y-112703358D01*
X182497725Y-112727964D01*
X182443147Y-112771588D01*
X182373648Y-112778780D01*
X182311294Y-112747257D01*
X182275882Y-112687026D01*
X182272861Y-112670091D01*
X182269091Y-112635016D01*
X182218797Y-112500171D01*
X182218793Y-112500164D01*
X182132547Y-112384955D01*
X182132544Y-112384952D01*
X182017335Y-112298706D01*
X182017328Y-112298702D01*
X181882482Y-112248408D01*
X181882483Y-112248408D01*
X181822883Y-112242001D01*
X181822881Y-112242000D01*
X181822873Y-112242000D01*
X181822864Y-112242000D01*
X180127129Y-112242000D01*
X180127123Y-112242001D01*
X180067516Y-112248408D01*
X179932671Y-112298702D01*
X179932664Y-112298706D01*
X179817455Y-112384952D01*
X179817452Y-112384955D01*
X179731206Y-112500164D01*
X179731202Y-112500171D01*
X179680908Y-112635017D01*
X179674501Y-112694616D01*
X179674500Y-112694635D01*
X179674500Y-114390370D01*
X177659317Y-114390370D01*
X177209401Y-113940453D01*
X177290148Y-113927665D01*
X177403045Y-113870141D01*
X177492641Y-113780545D01*
X177550165Y-113667648D01*
X177562953Y-113586900D01*
X178244025Y-114267972D01*
X178295136Y-114194978D01*
X178391264Y-113988831D01*
X178391269Y-113988817D01*
X178450139Y-113769110D01*
X178450141Y-113769099D01*
X178469966Y-113542502D01*
X178469966Y-113542497D01*
X178450141Y-113315900D01*
X178450139Y-113315889D01*
X178391269Y-113096182D01*
X178391265Y-113096173D01*
X178295133Y-112890016D01*
X178295131Y-112890012D01*
X178244026Y-112817026D01*
X178244025Y-112817026D01*
X177562953Y-113498098D01*
X177550165Y-113417352D01*
X177492641Y-113304455D01*
X177403045Y-113214859D01*
X177290148Y-113157335D01*
X177209400Y-113144546D01*
X177890472Y-112463474D01*
X177890471Y-112463473D01*
X177817483Y-112412366D01*
X177817481Y-112412365D01*
X177611326Y-112316234D01*
X177611317Y-112316230D01*
X177391610Y-112257360D01*
X177391599Y-112257358D01*
X177165002Y-112237534D01*
X177164998Y-112237534D01*
X176938400Y-112257358D01*
X176938389Y-112257360D01*
X176718682Y-112316230D01*
X176718673Y-112316234D01*
X176512513Y-112412368D01*
X176439527Y-112463472D01*
X176439526Y-112463473D01*
X177120600Y-113144546D01*
X177039852Y-113157335D01*
X176926955Y-113214859D01*
X176837359Y-113304455D01*
X176779835Y-113417352D01*
X176767046Y-113498099D01*
X176085973Y-112817026D01*
X176085972Y-112817027D01*
X176034869Y-112890011D01*
X176007657Y-112948367D01*
X175961484Y-113000806D01*
X175894290Y-113019957D01*
X175827409Y-112999741D01*
X175782893Y-112948365D01*
X175755684Y-112890016D01*
X175755568Y-112889766D01*
X175625047Y-112703361D01*
X175625045Y-112703358D01*
X175464141Y-112542454D01*
X175277734Y-112411932D01*
X175277732Y-112411931D01*
X175071497Y-112315761D01*
X175071488Y-112315758D01*
X174851697Y-112256866D01*
X174851693Y-112256865D01*
X174851692Y-112256865D01*
X174851691Y-112256864D01*
X174851686Y-112256864D01*
X174625002Y-112237032D01*
X174624998Y-112237032D01*
X174398313Y-112256864D01*
X174398302Y-112256866D01*
X174178511Y-112315758D01*
X174178502Y-112315761D01*
X173972267Y-112411931D01*
X173972265Y-112411932D01*
X173785858Y-112542454D01*
X173624954Y-112703358D01*
X173494432Y-112889765D01*
X173494431Y-112889767D01*
X173467382Y-112947775D01*
X173421209Y-113000214D01*
X173354016Y-113019366D01*
X173287135Y-112999150D01*
X173242618Y-112947775D01*
X173215568Y-112889766D01*
X173085047Y-112703361D01*
X173085045Y-112703358D01*
X172924141Y-112542454D01*
X172737734Y-112411932D01*
X172737732Y-112411931D01*
X172531497Y-112315761D01*
X172531488Y-112315758D01*
X172311697Y-112256866D01*
X172311693Y-112256865D01*
X172311692Y-112256865D01*
X172311691Y-112256864D01*
X172311686Y-112256864D01*
X172085002Y-112237032D01*
X172084998Y-112237032D01*
X171858313Y-112256864D01*
X171858302Y-112256866D01*
X171638511Y-112315758D01*
X171638502Y-112315761D01*
X171432267Y-112411931D01*
X171432265Y-112411932D01*
X171245858Y-112542454D01*
X171084954Y-112703358D01*
X170954432Y-112889765D01*
X170954431Y-112889767D01*
X170927382Y-112947775D01*
X170881209Y-113000214D01*
X170814016Y-113019366D01*
X170747135Y-112999150D01*
X170702618Y-112947775D01*
X170675568Y-112889766D01*
X170545047Y-112703361D01*
X170545045Y-112703358D01*
X170384141Y-112542454D01*
X170197734Y-112411932D01*
X170197732Y-112411931D01*
X169991497Y-112315761D01*
X169991488Y-112315758D01*
X169771697Y-112256866D01*
X169771693Y-112256865D01*
X169771692Y-112256865D01*
X169771691Y-112256864D01*
X169771686Y-112256864D01*
X169545002Y-112237032D01*
X169544998Y-112237032D01*
X169318313Y-112256864D01*
X169318302Y-112256866D01*
X169098511Y-112315758D01*
X169098502Y-112315761D01*
X168892267Y-112411931D01*
X168892265Y-112411932D01*
X168705858Y-112542454D01*
X168544954Y-112703358D01*
X168527725Y-112727964D01*
X168473147Y-112771588D01*
X168403648Y-112778780D01*
X168341294Y-112747257D01*
X168305882Y-112687026D01*
X168302861Y-112670091D01*
X168299091Y-112635016D01*
X168248797Y-112500171D01*
X168248793Y-112500164D01*
X168162547Y-112384955D01*
X168162544Y-112384952D01*
X168047335Y-112298706D01*
X168047328Y-112298702D01*
X167912482Y-112248408D01*
X167912483Y-112248408D01*
X167852883Y-112242001D01*
X167852881Y-112242000D01*
X167852873Y-112242000D01*
X167852864Y-112242000D01*
X166157129Y-112242000D01*
X166157123Y-112242001D01*
X166097516Y-112248408D01*
X165962671Y-112298702D01*
X165962664Y-112298706D01*
X165847455Y-112384952D01*
X165847452Y-112384955D01*
X165761206Y-112500164D01*
X165761202Y-112500171D01*
X165710908Y-112635017D01*
X165704501Y-112694616D01*
X165704500Y-112694635D01*
X165704500Y-114390370D01*
X78264218Y-114390370D01*
X85076720Y-107577870D01*
X102789500Y-107577870D01*
X102789501Y-107577876D01*
X102795908Y-107637483D01*
X102846202Y-107772328D01*
X102846206Y-107772335D01*
X102932452Y-107887544D01*
X102932455Y-107887547D01*
X103047664Y-107973793D01*
X103047671Y-107973797D01*
X103182517Y-108024091D01*
X103182516Y-108024091D01*
X103189444Y-108024835D01*
X103242127Y-108030500D01*
X105037872Y-108030499D01*
X105097483Y-108024091D01*
X105232331Y-107973796D01*
X105347546Y-107887546D01*
X105433796Y-107772331D01*
X105482810Y-107640916D01*
X105524681Y-107584984D01*
X105590145Y-107560566D01*
X105658418Y-107575417D01*
X105686673Y-107596569D01*
X105808599Y-107718495D01*
X105905384Y-107786265D01*
X106002165Y-107854032D01*
X106002167Y-107854033D01*
X106002170Y-107854035D01*
X106216337Y-107953903D01*
X106444592Y-108015063D01*
X106621034Y-108030500D01*
X106679999Y-108035659D01*
X106680000Y-108035659D01*
X106680001Y-108035659D01*
X106738966Y-108030500D01*
X106915408Y-108015063D01*
X107143663Y-107953903D01*
X107357830Y-107854035D01*
X107551401Y-107718495D01*
X107718495Y-107551401D01*
X107848425Y-107365842D01*
X107903002Y-107322217D01*
X107972500Y-107315023D01*
X108034855Y-107346546D01*
X108051575Y-107365842D01*
X108181281Y-107551082D01*
X108181505Y-107551401D01*
X108348599Y-107718495D01*
X108445384Y-107786265D01*
X108542165Y-107854032D01*
X108542167Y-107854033D01*
X108542170Y-107854035D01*
X108756337Y-107953903D01*
X108984592Y-108015063D01*
X109161034Y-108030500D01*
X109219999Y-108035659D01*
X109220000Y-108035659D01*
X109220001Y-108035659D01*
X109278966Y-108030500D01*
X109455408Y-108015063D01*
X109683663Y-107953903D01*
X109897830Y-107854035D01*
X110091401Y-107718495D01*
X110258495Y-107551401D01*
X110388425Y-107365842D01*
X110443002Y-107322217D01*
X110512500Y-107315023D01*
X110574855Y-107346546D01*
X110591575Y-107365842D01*
X110721281Y-107551082D01*
X110721505Y-107551401D01*
X110888599Y-107718495D01*
X110985384Y-107786265D01*
X111082165Y-107854032D01*
X111082167Y-107854033D01*
X111082170Y-107854035D01*
X111296337Y-107953903D01*
X111524592Y-108015063D01*
X111701034Y-108030500D01*
X111759999Y-108035659D01*
X111760000Y-108035659D01*
X111760001Y-108035659D01*
X111818966Y-108030500D01*
X111995408Y-108015063D01*
X112223663Y-107953903D01*
X112437830Y-107854035D01*
X112631401Y-107718495D01*
X112798495Y-107551401D01*
X112928425Y-107365842D01*
X112983002Y-107322217D01*
X113052500Y-107315023D01*
X113114855Y-107346546D01*
X113131575Y-107365842D01*
X113261281Y-107551082D01*
X113261505Y-107551401D01*
X113428599Y-107718495D01*
X113525384Y-107786265D01*
X113622165Y-107854032D01*
X113622167Y-107854033D01*
X113622170Y-107854035D01*
X113836337Y-107953903D01*
X114064592Y-108015063D01*
X114241034Y-108030500D01*
X114299999Y-108035659D01*
X114300000Y-108035659D01*
X114300001Y-108035659D01*
X114358966Y-108030500D01*
X114535408Y-108015063D01*
X114763663Y-107953903D01*
X114977830Y-107854035D01*
X115171401Y-107718495D01*
X115338495Y-107551401D01*
X115468425Y-107365842D01*
X115523002Y-107322217D01*
X115592500Y-107315023D01*
X115654855Y-107346546D01*
X115671575Y-107365842D01*
X115801281Y-107551082D01*
X115801505Y-107551401D01*
X115968599Y-107718495D01*
X116065384Y-107786265D01*
X116162165Y-107854032D01*
X116162167Y-107854033D01*
X116162170Y-107854035D01*
X116376337Y-107953903D01*
X116604592Y-108015063D01*
X116781034Y-108030500D01*
X116839999Y-108035659D01*
X116840000Y-108035659D01*
X116840001Y-108035659D01*
X116898966Y-108030500D01*
X117075408Y-108015063D01*
X117303663Y-107953903D01*
X117517830Y-107854035D01*
X117711401Y-107718495D01*
X117878495Y-107551401D01*
X118008425Y-107365842D01*
X118063002Y-107322217D01*
X118132500Y-107315023D01*
X118194855Y-107346546D01*
X118211575Y-107365842D01*
X118341281Y-107551082D01*
X118341505Y-107551401D01*
X118508599Y-107718495D01*
X118605384Y-107786265D01*
X118702165Y-107854032D01*
X118702167Y-107854033D01*
X118702170Y-107854035D01*
X118916337Y-107953903D01*
X119144592Y-108015063D01*
X119321034Y-108030500D01*
X119379999Y-108035659D01*
X119380000Y-108035659D01*
X119380001Y-108035659D01*
X119438966Y-108030500D01*
X119615408Y-108015063D01*
X119843663Y-107953903D01*
X120057830Y-107854035D01*
X120251401Y-107718495D01*
X120418495Y-107551401D01*
X120548425Y-107365842D01*
X120603002Y-107322217D01*
X120672500Y-107315023D01*
X120734855Y-107346546D01*
X120751575Y-107365842D01*
X120881281Y-107551082D01*
X120881505Y-107551401D01*
X121048599Y-107718495D01*
X121145384Y-107786265D01*
X121242165Y-107854032D01*
X121242167Y-107854033D01*
X121242170Y-107854035D01*
X121456337Y-107953903D01*
X121684592Y-108015063D01*
X121861034Y-108030500D01*
X121919999Y-108035659D01*
X121920000Y-108035659D01*
X121920001Y-108035659D01*
X121978966Y-108030500D01*
X122155408Y-108015063D01*
X122383663Y-107953903D01*
X122597830Y-107854035D01*
X122791401Y-107718495D01*
X122958495Y-107551401D01*
X123088425Y-107365842D01*
X123143002Y-107322217D01*
X123212500Y-107315023D01*
X123274855Y-107346546D01*
X123291575Y-107365842D01*
X123421281Y-107551082D01*
X123421505Y-107551401D01*
X123588599Y-107718495D01*
X123685384Y-107786265D01*
X123782165Y-107854032D01*
X123782167Y-107854033D01*
X123782170Y-107854035D01*
X123996337Y-107953903D01*
X124224592Y-108015063D01*
X124401034Y-108030500D01*
X124459999Y-108035659D01*
X124460000Y-108035659D01*
X124460001Y-108035659D01*
X124518966Y-108030500D01*
X124695408Y-108015063D01*
X124923663Y-107953903D01*
X125137830Y-107854035D01*
X125331401Y-107718495D01*
X125498495Y-107551401D01*
X125628425Y-107365842D01*
X125683002Y-107322217D01*
X125752500Y-107315023D01*
X125814855Y-107346546D01*
X125831575Y-107365842D01*
X125961281Y-107551082D01*
X125961505Y-107551401D01*
X126128599Y-107718495D01*
X126225384Y-107786265D01*
X126322165Y-107854032D01*
X126322167Y-107854033D01*
X126322170Y-107854035D01*
X126536337Y-107953903D01*
X126764592Y-108015063D01*
X126941034Y-108030500D01*
X126999999Y-108035659D01*
X127000000Y-108035659D01*
X127000001Y-108035659D01*
X127058966Y-108030500D01*
X127235408Y-108015063D01*
X127463663Y-107953903D01*
X127677830Y-107854035D01*
X127871401Y-107718495D01*
X128038495Y-107551401D01*
X128168425Y-107365842D01*
X128223002Y-107322217D01*
X128292500Y-107315023D01*
X128354855Y-107346546D01*
X128371575Y-107365842D01*
X128501281Y-107551082D01*
X128501505Y-107551401D01*
X128668599Y-107718495D01*
X128765384Y-107786265D01*
X128862165Y-107854032D01*
X128862167Y-107854033D01*
X128862170Y-107854035D01*
X129076337Y-107953903D01*
X129304592Y-108015063D01*
X129481034Y-108030500D01*
X129539999Y-108035659D01*
X129540000Y-108035659D01*
X129540001Y-108035659D01*
X129598966Y-108030500D01*
X129775408Y-108015063D01*
X130003663Y-107953903D01*
X130217830Y-107854035D01*
X130411401Y-107718495D01*
X130578495Y-107551401D01*
X130708425Y-107365842D01*
X130763002Y-107322217D01*
X130832500Y-107315023D01*
X130894855Y-107346546D01*
X130911575Y-107365842D01*
X131041281Y-107551082D01*
X131041505Y-107551401D01*
X131208599Y-107718495D01*
X131305384Y-107786265D01*
X131402165Y-107854032D01*
X131402167Y-107854033D01*
X131402170Y-107854035D01*
X131616337Y-107953903D01*
X131844592Y-108015063D01*
X132021034Y-108030500D01*
X132079999Y-108035659D01*
X132080000Y-108035659D01*
X132080001Y-108035659D01*
X132138966Y-108030500D01*
X132315408Y-108015063D01*
X132543663Y-107953903D01*
X132757830Y-107854035D01*
X132951401Y-107718495D01*
X133118495Y-107551401D01*
X133248425Y-107365842D01*
X133303002Y-107322217D01*
X133372500Y-107315023D01*
X133434855Y-107346546D01*
X133451575Y-107365842D01*
X133581281Y-107551082D01*
X133581505Y-107551401D01*
X133748599Y-107718495D01*
X133845384Y-107786265D01*
X133942165Y-107854032D01*
X133942167Y-107854033D01*
X133942170Y-107854035D01*
X134156337Y-107953903D01*
X134384592Y-108015063D01*
X134561034Y-108030500D01*
X134619999Y-108035659D01*
X134620000Y-108035659D01*
X134620001Y-108035659D01*
X134678966Y-108030500D01*
X134855408Y-108015063D01*
X135083663Y-107953903D01*
X135297830Y-107854035D01*
X135491401Y-107718495D01*
X135658495Y-107551401D01*
X135788425Y-107365842D01*
X135843002Y-107322217D01*
X135912500Y-107315023D01*
X135974855Y-107346546D01*
X135991575Y-107365842D01*
X136121281Y-107551082D01*
X136121505Y-107551401D01*
X136288599Y-107718495D01*
X136385384Y-107786265D01*
X136482165Y-107854032D01*
X136482167Y-107854033D01*
X136482170Y-107854035D01*
X136696337Y-107953903D01*
X136924592Y-108015063D01*
X137101034Y-108030500D01*
X137159999Y-108035659D01*
X137160000Y-108035659D01*
X137160001Y-108035659D01*
X137218966Y-108030500D01*
X137395408Y-108015063D01*
X137623663Y-107953903D01*
X137837830Y-107854035D01*
X138031401Y-107718495D01*
X138198495Y-107551401D01*
X138328425Y-107365842D01*
X138383002Y-107322217D01*
X138452500Y-107315023D01*
X138514855Y-107346546D01*
X138531575Y-107365842D01*
X138661281Y-107551082D01*
X138661505Y-107551401D01*
X138828599Y-107718495D01*
X138925384Y-107786265D01*
X139022165Y-107854032D01*
X139022167Y-107854033D01*
X139022170Y-107854035D01*
X139236337Y-107953903D01*
X139464592Y-108015063D01*
X139641034Y-108030500D01*
X139699999Y-108035659D01*
X139700000Y-108035659D01*
X139700001Y-108035659D01*
X139758966Y-108030500D01*
X139935408Y-108015063D01*
X140163663Y-107953903D01*
X140377830Y-107854035D01*
X140571401Y-107718495D01*
X140738495Y-107551401D01*
X140868425Y-107365842D01*
X140923002Y-107322217D01*
X140992500Y-107315023D01*
X141054855Y-107346546D01*
X141071575Y-107365842D01*
X141201281Y-107551082D01*
X141201505Y-107551401D01*
X141368599Y-107718495D01*
X141465384Y-107786265D01*
X141562165Y-107854032D01*
X141562167Y-107854033D01*
X141562170Y-107854035D01*
X141776337Y-107953903D01*
X142004592Y-108015063D01*
X142181034Y-108030500D01*
X142239999Y-108035659D01*
X142240000Y-108035659D01*
X142240001Y-108035659D01*
X142298966Y-108030500D01*
X142475408Y-108015063D01*
X142703663Y-107953903D01*
X142917830Y-107854035D01*
X143111401Y-107718495D01*
X143278495Y-107551401D01*
X143408425Y-107365842D01*
X143463002Y-107322217D01*
X143532500Y-107315023D01*
X143594855Y-107346546D01*
X143611575Y-107365842D01*
X143741281Y-107551082D01*
X143741505Y-107551401D01*
X143908599Y-107718495D01*
X144005384Y-107786265D01*
X144102165Y-107854032D01*
X144102167Y-107854033D01*
X144102170Y-107854035D01*
X144316337Y-107953903D01*
X144544592Y-108015063D01*
X144721034Y-108030500D01*
X144779999Y-108035659D01*
X144780000Y-108035659D01*
X144780001Y-108035659D01*
X144838966Y-108030500D01*
X145015408Y-108015063D01*
X145243663Y-107953903D01*
X145457830Y-107854035D01*
X145651401Y-107718495D01*
X145818495Y-107551401D01*
X145948425Y-107365842D01*
X146003002Y-107322217D01*
X146072500Y-107315023D01*
X146134855Y-107346546D01*
X146151575Y-107365842D01*
X146281281Y-107551082D01*
X146281505Y-107551401D01*
X146448599Y-107718495D01*
X146545384Y-107786265D01*
X146642165Y-107854032D01*
X146642167Y-107854033D01*
X146642170Y-107854035D01*
X146856337Y-107953903D01*
X147084592Y-108015063D01*
X147261034Y-108030500D01*
X147319999Y-108035659D01*
X147320000Y-108035659D01*
X147320001Y-108035659D01*
X147378966Y-108030500D01*
X147555408Y-108015063D01*
X147783663Y-107953903D01*
X147997830Y-107854035D01*
X148191401Y-107718495D01*
X148358495Y-107551401D01*
X148488730Y-107365405D01*
X148543307Y-107321781D01*
X148612805Y-107314587D01*
X148675160Y-107346110D01*
X148691879Y-107365405D01*
X148821890Y-107551078D01*
X148988917Y-107718105D01*
X149182421Y-107853600D01*
X149396507Y-107953429D01*
X149396516Y-107953433D01*
X149610000Y-108010634D01*
X149610000Y-107115501D01*
X149717685Y-107164680D01*
X149824237Y-107180000D01*
X149895763Y-107180000D01*
X150002315Y-107164680D01*
X150110000Y-107115501D01*
X150110000Y-108010633D01*
X150323483Y-107953433D01*
X150323492Y-107953429D01*
X150537578Y-107853600D01*
X150731082Y-107718105D01*
X150898105Y-107551082D01*
X151028425Y-107364968D01*
X151083002Y-107321344D01*
X151152501Y-107314151D01*
X151214855Y-107345673D01*
X151231575Y-107364968D01*
X151361894Y-107551082D01*
X151528917Y-107718105D01*
X151722421Y-107853600D01*
X151936507Y-107953429D01*
X151936516Y-107953433D01*
X152150000Y-108010634D01*
X152150000Y-107115501D01*
X152257685Y-107164680D01*
X152364237Y-107180000D01*
X152435763Y-107180000D01*
X152542315Y-107164680D01*
X152650000Y-107115501D01*
X152650000Y-108010633D01*
X152863483Y-107953433D01*
X152863492Y-107953429D01*
X153077578Y-107853600D01*
X153271082Y-107718105D01*
X153438105Y-107551082D01*
X153573600Y-107357578D01*
X153673429Y-107143492D01*
X153673432Y-107143486D01*
X153730636Y-106930000D01*
X152833686Y-106930000D01*
X152859493Y-106889844D01*
X152900000Y-106751889D01*
X152900000Y-106608111D01*
X152859493Y-106470156D01*
X152833686Y-106430000D01*
X153730636Y-106430000D01*
X153730635Y-106429999D01*
X153673432Y-106216513D01*
X153673429Y-106216507D01*
X153573600Y-106002422D01*
X153573599Y-106002420D01*
X153438113Y-105808926D01*
X153438108Y-105808920D01*
X153271082Y-105641894D01*
X153077578Y-105506399D01*
X152863492Y-105406570D01*
X152863486Y-105406567D01*
X152650000Y-105349364D01*
X152650000Y-106244498D01*
X152542315Y-106195320D01*
X152435763Y-106180000D01*
X152364237Y-106180000D01*
X152257685Y-106195320D01*
X152150000Y-106244498D01*
X152150000Y-105349364D01*
X152149999Y-105349364D01*
X151936513Y-105406567D01*
X151936507Y-105406570D01*
X151722422Y-105506399D01*
X151722420Y-105506400D01*
X151528926Y-105641886D01*
X151528920Y-105641891D01*
X151361891Y-105808920D01*
X151361890Y-105808922D01*
X151231575Y-105995031D01*
X151176998Y-106038655D01*
X151107499Y-106045848D01*
X151045145Y-106014326D01*
X151028425Y-105995031D01*
X150898109Y-105808922D01*
X150898108Y-105808920D01*
X150731082Y-105641894D01*
X150537578Y-105506399D01*
X150323492Y-105406570D01*
X150323486Y-105406567D01*
X150110000Y-105349364D01*
X150110000Y-106244498D01*
X150002315Y-106195320D01*
X149895763Y-106180000D01*
X149824237Y-106180000D01*
X149717685Y-106195320D01*
X149610000Y-106244498D01*
X149610000Y-105349364D01*
X149609999Y-105349364D01*
X149396513Y-105406567D01*
X149396507Y-105406570D01*
X149182422Y-105506399D01*
X149182420Y-105506400D01*
X148988926Y-105641886D01*
X148988920Y-105641891D01*
X148821891Y-105808920D01*
X148821890Y-105808922D01*
X148691880Y-105994595D01*
X148637303Y-106038219D01*
X148567804Y-106045412D01*
X148505450Y-106013890D01*
X148488730Y-105994594D01*
X148358494Y-105808597D01*
X148191402Y-105641506D01*
X148191395Y-105641501D01*
X147997834Y-105505967D01*
X147997830Y-105505965D01*
X147945500Y-105481563D01*
X147783663Y-105406097D01*
X147783659Y-105406096D01*
X147783655Y-105406094D01*
X147555413Y-105344938D01*
X147555403Y-105344936D01*
X147320001Y-105324341D01*
X147319999Y-105324341D01*
X147084596Y-105344936D01*
X147084586Y-105344938D01*
X146856344Y-105406094D01*
X146856335Y-105406098D01*
X146642171Y-105505964D01*
X146642169Y-105505965D01*
X146448597Y-105641505D01*
X146281505Y-105808597D01*
X146151575Y-105994158D01*
X146096998Y-106037783D01*
X146027500Y-106044977D01*
X145965145Y-106013454D01*
X145948425Y-105994158D01*
X145818494Y-105808597D01*
X145651402Y-105641506D01*
X145651395Y-105641501D01*
X145457834Y-105505967D01*
X145457830Y-105505965D01*
X145405500Y-105481563D01*
X145243663Y-105406097D01*
X145243659Y-105406096D01*
X145243655Y-105406094D01*
X145015413Y-105344938D01*
X145015403Y-105344936D01*
X144780001Y-105324341D01*
X144779999Y-105324341D01*
X144544596Y-105344936D01*
X144544586Y-105344938D01*
X144316344Y-105406094D01*
X144316335Y-105406098D01*
X144102171Y-105505964D01*
X144102169Y-105505965D01*
X143908597Y-105641505D01*
X143741505Y-105808597D01*
X143611575Y-105994158D01*
X143556998Y-106037783D01*
X143487500Y-106044977D01*
X143425145Y-106013454D01*
X143408425Y-105994158D01*
X143278494Y-105808597D01*
X143111402Y-105641506D01*
X143111395Y-105641501D01*
X142917834Y-105505967D01*
X142917830Y-105505965D01*
X142865500Y-105481563D01*
X142703663Y-105406097D01*
X142703659Y-105406096D01*
X142703655Y-105406094D01*
X142475413Y-105344938D01*
X142475403Y-105344936D01*
X142240001Y-105324341D01*
X142239610Y-105324341D01*
X142239444Y-105324292D01*
X142234606Y-105323869D01*
X142234691Y-105322896D01*
X142172571Y-105304656D01*
X142126816Y-105251852D01*
X142116872Y-105182694D01*
X142145897Y-105119138D01*
X142151929Y-105112660D01*
X148962089Y-98302501D01*
X165699532Y-98302501D01*
X165719364Y-98529186D01*
X165719366Y-98529197D01*
X165778258Y-98748988D01*
X165778261Y-98748997D01*
X165874431Y-98955232D01*
X165874432Y-98955234D01*
X166004954Y-99141641D01*
X166165858Y-99302545D01*
X166165861Y-99302547D01*
X166352266Y-99433068D01*
X166558504Y-99529239D01*
X166778308Y-99588135D01*
X166940230Y-99602301D01*
X167004998Y-99607968D01*
X167005000Y-99607968D01*
X167005002Y-99607968D01*
X167061673Y-99603009D01*
X167231692Y-99588135D01*
X167451496Y-99529239D01*
X167657734Y-99433068D01*
X167844139Y-99302547D01*
X168005047Y-99141639D01*
X168135568Y-98955234D01*
X168162618Y-98897224D01*
X168208790Y-98844785D01*
X168275983Y-98825633D01*
X168342865Y-98845848D01*
X168387382Y-98897225D01*
X168414429Y-98955228D01*
X168414432Y-98955234D01*
X168544954Y-99141641D01*
X168705858Y-99302545D01*
X168705861Y-99302547D01*
X168892266Y-99433068D01*
X169098504Y-99529239D01*
X169318308Y-99588135D01*
X169480230Y-99602301D01*
X169544998Y-99607968D01*
X169545000Y-99607968D01*
X169545002Y-99607968D01*
X169601673Y-99603009D01*
X169771692Y-99588135D01*
X169991496Y-99529239D01*
X170197734Y-99433068D01*
X170384139Y-99302547D01*
X170545047Y-99141639D01*
X170675568Y-98955234D01*
X170702618Y-98897224D01*
X170748790Y-98844785D01*
X170815983Y-98825633D01*
X170882865Y-98845848D01*
X170927382Y-98897225D01*
X170954429Y-98955228D01*
X170954432Y-98955234D01*
X171084954Y-99141641D01*
X171245858Y-99302545D01*
X171245861Y-99302547D01*
X171432266Y-99433068D01*
X171638504Y-99529239D01*
X171858308Y-99588135D01*
X172020230Y-99602301D01*
X172084998Y-99607968D01*
X172085000Y-99607968D01*
X172085002Y-99607968D01*
X172141673Y-99603009D01*
X172311692Y-99588135D01*
X172531496Y-99529239D01*
X172737734Y-99433068D01*
X172924139Y-99302547D01*
X173085047Y-99141639D01*
X173215568Y-98955234D01*
X173242618Y-98897224D01*
X173288790Y-98844785D01*
X173355983Y-98825633D01*
X173422865Y-98845848D01*
X173467382Y-98897225D01*
X173494429Y-98955228D01*
X173494432Y-98955234D01*
X173624954Y-99141641D01*
X173785858Y-99302545D01*
X173785861Y-99302547D01*
X173972266Y-99433068D01*
X174178504Y-99529239D01*
X174398308Y-99588135D01*
X174560230Y-99602301D01*
X174624998Y-99607968D01*
X174625000Y-99607968D01*
X174625002Y-99607968D01*
X174681673Y-99603009D01*
X174851692Y-99588135D01*
X175071496Y-99529239D01*
X175277734Y-99433068D01*
X175464139Y-99302547D01*
X175625047Y-99141639D01*
X175755568Y-98955234D01*
X175782618Y-98897224D01*
X175828790Y-98844785D01*
X175895983Y-98825633D01*
X175962865Y-98845848D01*
X176007382Y-98897225D01*
X176034429Y-98955228D01*
X176034432Y-98955234D01*
X176164954Y-99141641D01*
X176325858Y-99302545D01*
X176325861Y-99302547D01*
X176512266Y-99433068D01*
X176718504Y-99529239D01*
X176938308Y-99588135D01*
X177100230Y-99602301D01*
X177164998Y-99607968D01*
X177165000Y-99607968D01*
X177165002Y-99607968D01*
X177221673Y-99603009D01*
X177391692Y-99588135D01*
X177611496Y-99529239D01*
X177817734Y-99433068D01*
X178004139Y-99302547D01*
X178165047Y-99141639D01*
X178295568Y-98955234D01*
X178391739Y-98748996D01*
X178450635Y-98529192D01*
X178470468Y-98302501D01*
X179669532Y-98302501D01*
X179689364Y-98529186D01*
X179689366Y-98529197D01*
X179748258Y-98748988D01*
X179748261Y-98748997D01*
X179844431Y-98955232D01*
X179844432Y-98955234D01*
X179974954Y-99141641D01*
X180135858Y-99302545D01*
X180135861Y-99302547D01*
X180322266Y-99433068D01*
X180528504Y-99529239D01*
X180748308Y-99588135D01*
X180910230Y-99602301D01*
X180974998Y-99607968D01*
X180975000Y-99607968D01*
X180975002Y-99607968D01*
X181031673Y-99603009D01*
X181201692Y-99588135D01*
X181421496Y-99529239D01*
X181627734Y-99433068D01*
X181814139Y-99302547D01*
X181975047Y-99141639D01*
X182105568Y-98955234D01*
X182132618Y-98897224D01*
X182178790Y-98844785D01*
X182245983Y-98825633D01*
X182312865Y-98845848D01*
X182357382Y-98897225D01*
X182384429Y-98955228D01*
X182384432Y-98955234D01*
X182514954Y-99141641D01*
X182675858Y-99302545D01*
X182675861Y-99302547D01*
X182862266Y-99433068D01*
X183068504Y-99529239D01*
X183288308Y-99588135D01*
X183450230Y-99602301D01*
X183514998Y-99607968D01*
X183515000Y-99607968D01*
X183515002Y-99607968D01*
X183571673Y-99603009D01*
X183741692Y-99588135D01*
X183961496Y-99529239D01*
X184167734Y-99433068D01*
X184354139Y-99302547D01*
X184515047Y-99141639D01*
X184645568Y-98955234D01*
X184672618Y-98897224D01*
X184718790Y-98844785D01*
X184785983Y-98825633D01*
X184852865Y-98845848D01*
X184897382Y-98897225D01*
X184924429Y-98955228D01*
X184924432Y-98955234D01*
X185054954Y-99141641D01*
X185215858Y-99302545D01*
X185215861Y-99302547D01*
X185402266Y-99433068D01*
X185608504Y-99529239D01*
X185828308Y-99588135D01*
X185990230Y-99602301D01*
X186054998Y-99607968D01*
X186055000Y-99607968D01*
X186055002Y-99607968D01*
X186111673Y-99603009D01*
X186281692Y-99588135D01*
X186501496Y-99529239D01*
X186707734Y-99433068D01*
X186894139Y-99302547D01*
X187055047Y-99141639D01*
X187185568Y-98955234D01*
X187212618Y-98897224D01*
X187258790Y-98844785D01*
X187325983Y-98825633D01*
X187392865Y-98845848D01*
X187437382Y-98897225D01*
X187464429Y-98955228D01*
X187464432Y-98955234D01*
X187594954Y-99141641D01*
X187755858Y-99302545D01*
X187755861Y-99302547D01*
X187942266Y-99433068D01*
X188148504Y-99529239D01*
X188368308Y-99588135D01*
X188530230Y-99602301D01*
X188594998Y-99607968D01*
X188595000Y-99607968D01*
X188595002Y-99607968D01*
X188651673Y-99603009D01*
X188821692Y-99588135D01*
X189041496Y-99529239D01*
X189247734Y-99433068D01*
X189434139Y-99302547D01*
X189595047Y-99141639D01*
X189725568Y-98955234D01*
X189752618Y-98897224D01*
X189798790Y-98844785D01*
X189865983Y-98825633D01*
X189932865Y-98845848D01*
X189977382Y-98897225D01*
X190004429Y-98955228D01*
X190004432Y-98955234D01*
X190134954Y-99141641D01*
X190295858Y-99302545D01*
X190295861Y-99302547D01*
X190482266Y-99433068D01*
X190688504Y-99529239D01*
X190908308Y-99588135D01*
X191070230Y-99602301D01*
X191134998Y-99607968D01*
X191135000Y-99607968D01*
X191135002Y-99607968D01*
X191191673Y-99603009D01*
X191361692Y-99588135D01*
X191581496Y-99529239D01*
X191787734Y-99433068D01*
X191974139Y-99302547D01*
X192135047Y-99141639D01*
X192265568Y-98955234D01*
X192361739Y-98748996D01*
X192420635Y-98529192D01*
X192440468Y-98302500D01*
X192420635Y-98075808D01*
X192361739Y-97856004D01*
X192265568Y-97649766D01*
X192135047Y-97463361D01*
X192135045Y-97463358D01*
X191974141Y-97302454D01*
X191787734Y-97171932D01*
X191787732Y-97171931D01*
X191581497Y-97075761D01*
X191581488Y-97075758D01*
X191361697Y-97016866D01*
X191361693Y-97016865D01*
X191361692Y-97016865D01*
X191361691Y-97016864D01*
X191361686Y-97016864D01*
X191135002Y-96997032D01*
X191134998Y-96997032D01*
X190908313Y-97016864D01*
X190908302Y-97016866D01*
X190688511Y-97075758D01*
X190688502Y-97075761D01*
X190482267Y-97171931D01*
X190482265Y-97171932D01*
X190295858Y-97302454D01*
X190134954Y-97463358D01*
X190004432Y-97649765D01*
X190004431Y-97649767D01*
X189977382Y-97707775D01*
X189931209Y-97760214D01*
X189864016Y-97779366D01*
X189797135Y-97759150D01*
X189752618Y-97707775D01*
X189744432Y-97690220D01*
X189725568Y-97649766D01*
X189595047Y-97463361D01*
X189595045Y-97463358D01*
X189434141Y-97302454D01*
X189247734Y-97171932D01*
X189247732Y-97171931D01*
X189041497Y-97075761D01*
X189041488Y-97075758D01*
X188821697Y-97016866D01*
X188821693Y-97016865D01*
X188821692Y-97016865D01*
X188821691Y-97016864D01*
X188821686Y-97016864D01*
X188595002Y-96997032D01*
X188594998Y-96997032D01*
X188368313Y-97016864D01*
X188368302Y-97016866D01*
X188148511Y-97075758D01*
X188148502Y-97075761D01*
X187942267Y-97171931D01*
X187942265Y-97171932D01*
X187755858Y-97302454D01*
X187594954Y-97463358D01*
X187464432Y-97649765D01*
X187464431Y-97649767D01*
X187437382Y-97707775D01*
X187391209Y-97760214D01*
X187324016Y-97779366D01*
X187257135Y-97759150D01*
X187212618Y-97707775D01*
X187204432Y-97690220D01*
X187185568Y-97649766D01*
X187055047Y-97463361D01*
X187055045Y-97463358D01*
X186894141Y-97302454D01*
X186707734Y-97171932D01*
X186707732Y-97171931D01*
X186501497Y-97075761D01*
X186501488Y-97075758D01*
X186281697Y-97016866D01*
X186281693Y-97016865D01*
X186281692Y-97016865D01*
X186281691Y-97016864D01*
X186281686Y-97016864D01*
X186055002Y-96997032D01*
X186054998Y-96997032D01*
X185828313Y-97016864D01*
X185828302Y-97016866D01*
X185608511Y-97075758D01*
X185608502Y-97075761D01*
X185402267Y-97171931D01*
X185402265Y-97171932D01*
X185215858Y-97302454D01*
X185054954Y-97463358D01*
X184924432Y-97649765D01*
X184924431Y-97649767D01*
X184897382Y-97707775D01*
X184851209Y-97760214D01*
X184784016Y-97779366D01*
X184717135Y-97759150D01*
X184672618Y-97707775D01*
X184664432Y-97690220D01*
X184645568Y-97649766D01*
X184515047Y-97463361D01*
X184515045Y-97463358D01*
X184354141Y-97302454D01*
X184167734Y-97171932D01*
X184167732Y-97171931D01*
X183961497Y-97075761D01*
X183961488Y-97075758D01*
X183741697Y-97016866D01*
X183741693Y-97016865D01*
X183741692Y-97016865D01*
X183741691Y-97016864D01*
X183741686Y-97016864D01*
X183515002Y-96997032D01*
X183514998Y-96997032D01*
X183288313Y-97016864D01*
X183288302Y-97016866D01*
X183068511Y-97075758D01*
X183068502Y-97075761D01*
X182862267Y-97171931D01*
X182862265Y-97171932D01*
X182675858Y-97302454D01*
X182514954Y-97463358D01*
X182384432Y-97649765D01*
X182384431Y-97649767D01*
X182357382Y-97707775D01*
X182311209Y-97760214D01*
X182244016Y-97779366D01*
X182177135Y-97759150D01*
X182132618Y-97707775D01*
X182124432Y-97690220D01*
X182105568Y-97649766D01*
X181975047Y-97463361D01*
X181975045Y-97463358D01*
X181814141Y-97302454D01*
X181627734Y-97171932D01*
X181627732Y-97171931D01*
X181421497Y-97075761D01*
X181421488Y-97075758D01*
X181201697Y-97016866D01*
X181201693Y-97016865D01*
X181201692Y-97016865D01*
X181201691Y-97016864D01*
X181201686Y-97016864D01*
X180975002Y-96997032D01*
X180974998Y-96997032D01*
X180748313Y-97016864D01*
X180748302Y-97016866D01*
X180528511Y-97075758D01*
X180528502Y-97075761D01*
X180322267Y-97171931D01*
X180322265Y-97171932D01*
X180135858Y-97302454D01*
X179974954Y-97463358D01*
X179844432Y-97649765D01*
X179844431Y-97649767D01*
X179748261Y-97856002D01*
X179748258Y-97856011D01*
X179689366Y-98075802D01*
X179689364Y-98075813D01*
X179669532Y-98302498D01*
X179669532Y-98302501D01*
X178470468Y-98302501D01*
X178470468Y-98302500D01*
X178450635Y-98075808D01*
X178391739Y-97856004D01*
X178295568Y-97649766D01*
X178165047Y-97463361D01*
X178165045Y-97463358D01*
X178004141Y-97302454D01*
X177817734Y-97171932D01*
X177817732Y-97171931D01*
X177611497Y-97075761D01*
X177611488Y-97075758D01*
X177391697Y-97016866D01*
X177391693Y-97016865D01*
X177391692Y-97016865D01*
X177391691Y-97016864D01*
X177391686Y-97016864D01*
X177165002Y-96997032D01*
X177164998Y-96997032D01*
X176938313Y-97016864D01*
X176938302Y-97016866D01*
X176718511Y-97075758D01*
X176718502Y-97075761D01*
X176512267Y-97171931D01*
X176512265Y-97171932D01*
X176325858Y-97302454D01*
X176164954Y-97463358D01*
X176034432Y-97649765D01*
X176034431Y-97649767D01*
X176007382Y-97707775D01*
X175961209Y-97760214D01*
X175894016Y-97779366D01*
X175827135Y-97759150D01*
X175782618Y-97707775D01*
X175774432Y-97690220D01*
X175755568Y-97649766D01*
X175625047Y-97463361D01*
X175625045Y-97463358D01*
X175464141Y-97302454D01*
X175277734Y-97171932D01*
X175277732Y-97171931D01*
X175071497Y-97075761D01*
X175071488Y-97075758D01*
X174851697Y-97016866D01*
X174851693Y-97016865D01*
X174851692Y-97016865D01*
X174851691Y-97016864D01*
X174851686Y-97016864D01*
X174625002Y-96997032D01*
X174624998Y-96997032D01*
X174398313Y-97016864D01*
X174398302Y-97016866D01*
X174178511Y-97075758D01*
X174178502Y-97075761D01*
X173972267Y-97171931D01*
X173972265Y-97171932D01*
X173785858Y-97302454D01*
X173624954Y-97463358D01*
X173494432Y-97649765D01*
X173494431Y-97649767D01*
X173467382Y-97707775D01*
X173421209Y-97760214D01*
X173354016Y-97779366D01*
X173287135Y-97759150D01*
X173242618Y-97707775D01*
X173234432Y-97690220D01*
X173215568Y-97649766D01*
X173085047Y-97463361D01*
X173085045Y-97463358D01*
X172924141Y-97302454D01*
X172737734Y-97171932D01*
X172737732Y-97171931D01*
X172531497Y-97075761D01*
X172531488Y-97075758D01*
X172311697Y-97016866D01*
X172311693Y-97016865D01*
X172311692Y-97016865D01*
X172311691Y-97016864D01*
X172311686Y-97016864D01*
X172085002Y-96997032D01*
X172084998Y-96997032D01*
X171858313Y-97016864D01*
X171858302Y-97016866D01*
X171638511Y-97075758D01*
X171638502Y-97075761D01*
X171432267Y-97171931D01*
X171432265Y-97171932D01*
X171245858Y-97302454D01*
X171084954Y-97463358D01*
X170954432Y-97649765D01*
X170954431Y-97649767D01*
X170927382Y-97707775D01*
X170881209Y-97760214D01*
X170814016Y-97779366D01*
X170747135Y-97759150D01*
X170702618Y-97707775D01*
X170694432Y-97690220D01*
X170675568Y-97649766D01*
X170545047Y-97463361D01*
X170545045Y-97463358D01*
X170384141Y-97302454D01*
X170197734Y-97171932D01*
X170197732Y-97171931D01*
X169991497Y-97075761D01*
X169991488Y-97075758D01*
X169771697Y-97016866D01*
X169771693Y-97016865D01*
X169771692Y-97016865D01*
X169771691Y-97016864D01*
X169771686Y-97016864D01*
X169545002Y-96997032D01*
X169544998Y-96997032D01*
X169318313Y-97016864D01*
X169318302Y-97016866D01*
X169098511Y-97075758D01*
X169098502Y-97075761D01*
X168892267Y-97171931D01*
X168892265Y-97171932D01*
X168705858Y-97302454D01*
X168544954Y-97463358D01*
X168414432Y-97649765D01*
X168414431Y-97649767D01*
X168387382Y-97707775D01*
X168341209Y-97760214D01*
X168274016Y-97779366D01*
X168207135Y-97759150D01*
X168162618Y-97707775D01*
X168154432Y-97690220D01*
X168135568Y-97649766D01*
X168005047Y-97463361D01*
X168005045Y-97463358D01*
X167844141Y-97302454D01*
X167657734Y-97171932D01*
X167657732Y-97171931D01*
X167451497Y-97075761D01*
X167451488Y-97075758D01*
X167231697Y-97016866D01*
X167231693Y-97016865D01*
X167231692Y-97016865D01*
X167231691Y-97016864D01*
X167231686Y-97016864D01*
X167005002Y-96997032D01*
X167004998Y-96997032D01*
X166778313Y-97016864D01*
X166778302Y-97016866D01*
X166558511Y-97075758D01*
X166558502Y-97075761D01*
X166352267Y-97171931D01*
X166352265Y-97171932D01*
X166165858Y-97302454D01*
X166004954Y-97463358D01*
X165874432Y-97649765D01*
X165874431Y-97649767D01*
X165778261Y-97856002D01*
X165778258Y-97856011D01*
X165719366Y-98075802D01*
X165719364Y-98075813D01*
X165699532Y-98302498D01*
X165699532Y-98302501D01*
X148962089Y-98302501D01*
X161512772Y-85751819D01*
X161574095Y-85718334D01*
X161600453Y-85715500D01*
X166943619Y-85715500D01*
X167010658Y-85735185D01*
X167056413Y-85787989D01*
X167066357Y-85857147D01*
X167056002Y-85891903D01*
X167048262Y-85908501D01*
X167048258Y-85908511D01*
X166989366Y-86128302D01*
X166989364Y-86128313D01*
X166969532Y-86354998D01*
X166969532Y-86355001D01*
X166989364Y-86581686D01*
X166989366Y-86581697D01*
X167048258Y-86801488D01*
X167048261Y-86801497D01*
X167144431Y-87007732D01*
X167144432Y-87007734D01*
X167274954Y-87194141D01*
X167435858Y-87355045D01*
X167435861Y-87355047D01*
X167622266Y-87485568D01*
X167680865Y-87512893D01*
X167733305Y-87559065D01*
X167752457Y-87626258D01*
X167732242Y-87693139D01*
X167680867Y-87737657D01*
X167622515Y-87764867D01*
X167436179Y-87895342D01*
X167275342Y-88056179D01*
X167144865Y-88242517D01*
X167048734Y-88448673D01*
X167048730Y-88448682D01*
X166996127Y-88644999D01*
X166996128Y-88645000D01*
X167959314Y-88645000D01*
X167947359Y-88656955D01*
X167889835Y-88769852D01*
X167870014Y-88895000D01*
X167889835Y-89020148D01*
X167947359Y-89133045D01*
X167959314Y-89145000D01*
X166996128Y-89145000D01*
X167048730Y-89341317D01*
X167048734Y-89341326D01*
X167144865Y-89547482D01*
X167275342Y-89733820D01*
X167436179Y-89894657D01*
X167622517Y-90025134D01*
X167828673Y-90121265D01*
X167828682Y-90121269D01*
X168024999Y-90173872D01*
X168025000Y-90173871D01*
X168025000Y-89210686D01*
X168036955Y-89222641D01*
X168149852Y-89280165D01*
X168243519Y-89295000D01*
X168306481Y-89295000D01*
X168400148Y-89280165D01*
X168513045Y-89222641D01*
X168525000Y-89210686D01*
X168525000Y-90173872D01*
X168721317Y-90121269D01*
X168721326Y-90121265D01*
X168927482Y-90025134D01*
X169113820Y-89894657D01*
X169274657Y-89733820D01*
X169405134Y-89547482D01*
X169501265Y-89341326D01*
X169501269Y-89341317D01*
X169553872Y-89145000D01*
X168590686Y-89145000D01*
X168602641Y-89133045D01*
X168660165Y-89020148D01*
X168679986Y-88895000D01*
X168660165Y-88769852D01*
X168602641Y-88656955D01*
X168590686Y-88645000D01*
X169553872Y-88645000D01*
X169553872Y-88644999D01*
X169501269Y-88448682D01*
X169501265Y-88448673D01*
X169405134Y-88242517D01*
X169274657Y-88056179D01*
X169113820Y-87895342D01*
X168927482Y-87764865D01*
X168869133Y-87737657D01*
X168816694Y-87691484D01*
X168797542Y-87624291D01*
X168817758Y-87557410D01*
X168869129Y-87512895D01*
X168927734Y-87485568D01*
X169114139Y-87355047D01*
X169275047Y-87194139D01*
X169405568Y-87007734D01*
X169501739Y-86801496D01*
X169560635Y-86581692D01*
X169580468Y-86355000D01*
X169560635Y-86128308D01*
X169501739Y-85908504D01*
X169493205Y-85890204D01*
X169482714Y-85821130D01*
X169511233Y-85757345D01*
X169569709Y-85719105D01*
X169590027Y-85714782D01*
X169613655Y-85711797D01*
X169682533Y-85705287D01*
X169682536Y-85705285D01*
X169690141Y-85703586D01*
X169690204Y-85703868D01*
X169694303Y-85702884D01*
X169694232Y-85702605D01*
X169701786Y-85700664D01*
X169701792Y-85700664D01*
X169766133Y-85675189D01*
X169831228Y-85651754D01*
X169831230Y-85651751D01*
X169838180Y-85648211D01*
X169838311Y-85648469D01*
X169842032Y-85646499D01*
X169841893Y-85646246D01*
X169848732Y-85642486D01*
X169904704Y-85601819D01*
X169961938Y-85562924D01*
X169961941Y-85562919D01*
X169967795Y-85557760D01*
X169967986Y-85557977D01*
X169971096Y-85555147D01*
X169970898Y-85554937D01*
X169976583Y-85549598D01*
X169976585Y-85549595D01*
X169976587Y-85549594D01*
X170020683Y-85496289D01*
X170066450Y-85444378D01*
X170066452Y-85444375D01*
X170070834Y-85437927D01*
X170071072Y-85438089D01*
X170073386Y-85434567D01*
X170073142Y-85434412D01*
X170077317Y-85427830D01*
X170077324Y-85427823D01*
X170106782Y-85365221D01*
X170138198Y-85303565D01*
X170138199Y-85303556D01*
X170140840Y-85296224D01*
X170141113Y-85296322D01*
X170142478Y-85292334D01*
X170142203Y-85292245D01*
X170144610Y-85284832D01*
X170144614Y-85284826D01*
X170156134Y-85224432D01*
X170157580Y-85216854D01*
X170161932Y-85197382D01*
X170172673Y-85149333D01*
X170172673Y-85149328D01*
X170173408Y-85141562D01*
X170173695Y-85141589D01*
X170174025Y-85137392D01*
X170173737Y-85137374D01*
X170174227Y-85129586D01*
X170169882Y-85060527D01*
X170167709Y-84991375D01*
X170166488Y-84983668D01*
X170166772Y-84983622D01*
X170166048Y-84979472D01*
X170165766Y-84979526D01*
X170164305Y-84971866D01*
X170142923Y-84906061D01*
X170123618Y-84839610D01*
X170123615Y-84839606D01*
X170120520Y-84832452D01*
X170120783Y-84832337D01*
X170119050Y-84828498D01*
X170118790Y-84828621D01*
X170115468Y-84821562D01*
X170115467Y-84821559D01*
X170078400Y-84763152D01*
X170043170Y-84703580D01*
X170043169Y-84703579D01*
X170042767Y-84702899D01*
X170025500Y-84639779D01*
X170025500Y-74862737D01*
X170027224Y-74847123D01*
X170026938Y-74847096D01*
X170027672Y-74839333D01*
X170025500Y-74770203D01*
X170025500Y-74740651D01*
X170025500Y-74740650D01*
X170024629Y-74733759D01*
X170024172Y-74727945D01*
X170023927Y-74720156D01*
X170022709Y-74681373D01*
X170017122Y-74662144D01*
X170013174Y-74643084D01*
X170010664Y-74623208D01*
X169993507Y-74579875D01*
X169991619Y-74574359D01*
X169978619Y-74529612D01*
X169968418Y-74512363D01*
X169959860Y-74494894D01*
X169952486Y-74476268D01*
X169952483Y-74476264D01*
X169952483Y-74476263D01*
X169925098Y-74438571D01*
X169921890Y-74433687D01*
X169898172Y-74393582D01*
X169898163Y-74393571D01*
X169884005Y-74379413D01*
X169871370Y-74364620D01*
X169859593Y-74348412D01*
X169823693Y-74318713D01*
X169819381Y-74314790D01*
X169611818Y-74107227D01*
X169578333Y-74045904D01*
X169575499Y-74019546D01*
X169575499Y-73139500D01*
X169595184Y-73072461D01*
X169647988Y-73026706D01*
X169699499Y-73015500D01*
X169898557Y-73015500D01*
X169965596Y-73035185D01*
X169986238Y-73051819D01*
X174794745Y-77860326D01*
X174828230Y-77921649D01*
X174823246Y-77991341D01*
X174808639Y-78019130D01*
X174764434Y-78082262D01*
X174668261Y-78288502D01*
X174668258Y-78288511D01*
X174609366Y-78508302D01*
X174609364Y-78508313D01*
X174589532Y-78734998D01*
X174589532Y-78735001D01*
X174609364Y-78961686D01*
X174609366Y-78961697D01*
X174668258Y-79181488D01*
X174668261Y-79181497D01*
X174764431Y-79387732D01*
X174764432Y-79387734D01*
X174894954Y-79574141D01*
X175055858Y-79735045D01*
X175055861Y-79735047D01*
X175242266Y-79865568D01*
X175300275Y-79892618D01*
X175352714Y-79938791D01*
X175371866Y-80005984D01*
X175351650Y-80072865D01*
X175300275Y-80117382D01*
X175242267Y-80144431D01*
X175242265Y-80144432D01*
X175055858Y-80274954D01*
X174894954Y-80435858D01*
X174764432Y-80622265D01*
X174764431Y-80622267D01*
X174668261Y-80828502D01*
X174668258Y-80828511D01*
X174609366Y-81048302D01*
X174609364Y-81048313D01*
X174589532Y-81274998D01*
X174589532Y-81275001D01*
X174609364Y-81501686D01*
X174609366Y-81501697D01*
X174668258Y-81721488D01*
X174668261Y-81721497D01*
X174764431Y-81927732D01*
X174764432Y-81927734D01*
X174894954Y-82114141D01*
X175055858Y-82275045D01*
X175055861Y-82275047D01*
X175242266Y-82405568D01*
X175300275Y-82432618D01*
X175352714Y-82478791D01*
X175371866Y-82545984D01*
X175351650Y-82612865D01*
X175300275Y-82657382D01*
X175242267Y-82684431D01*
X175242265Y-82684432D01*
X175055858Y-82814954D01*
X174894954Y-82975858D01*
X174764432Y-83162265D01*
X174764431Y-83162267D01*
X174668261Y-83368502D01*
X174668258Y-83368511D01*
X174609366Y-83588302D01*
X174609364Y-83588313D01*
X174589532Y-83814998D01*
X174589532Y-83815001D01*
X174609364Y-84041686D01*
X174609366Y-84041697D01*
X174668258Y-84261488D01*
X174668261Y-84261497D01*
X174764431Y-84467732D01*
X174764432Y-84467734D01*
X174894954Y-84654141D01*
X175055858Y-84815045D01*
X175055861Y-84815047D01*
X175242266Y-84945568D01*
X175298662Y-84971866D01*
X175300275Y-84972618D01*
X175352714Y-85018791D01*
X175371866Y-85085984D01*
X175351650Y-85152865D01*
X175300275Y-85197382D01*
X175242267Y-85224431D01*
X175242265Y-85224432D01*
X175055858Y-85354954D01*
X174894954Y-85515858D01*
X174764432Y-85702265D01*
X174764431Y-85702267D01*
X174668261Y-85908502D01*
X174668258Y-85908511D01*
X174609366Y-86128302D01*
X174609364Y-86128313D01*
X174589532Y-86354998D01*
X174589532Y-86355001D01*
X174609364Y-86581686D01*
X174609366Y-86581697D01*
X174668258Y-86801488D01*
X174668261Y-86801497D01*
X174764431Y-87007732D01*
X174764432Y-87007734D01*
X174894954Y-87194141D01*
X175055858Y-87355045D01*
X175055861Y-87355047D01*
X175242266Y-87485568D01*
X175300275Y-87512618D01*
X175352714Y-87558791D01*
X175371866Y-87625984D01*
X175351650Y-87692865D01*
X175300275Y-87737382D01*
X175242267Y-87764431D01*
X175242265Y-87764432D01*
X175055858Y-87894954D01*
X174894954Y-88055858D01*
X174764432Y-88242265D01*
X174764431Y-88242267D01*
X174668261Y-88448502D01*
X174668258Y-88448511D01*
X174609366Y-88668302D01*
X174609364Y-88668313D01*
X174589532Y-88894998D01*
X174589532Y-88895001D01*
X174609364Y-89121686D01*
X174609366Y-89121697D01*
X174668258Y-89341488D01*
X174668261Y-89341497D01*
X174764431Y-89547732D01*
X174764432Y-89547734D01*
X174894954Y-89734141D01*
X175055858Y-89895045D01*
X175055861Y-89895047D01*
X175242266Y-90025568D01*
X175448504Y-90121739D01*
X175668308Y-90180635D01*
X175830230Y-90194801D01*
X175894998Y-90200468D01*
X175895000Y-90200468D01*
X175895002Y-90200468D01*
X175951673Y-90195509D01*
X176121692Y-90180635D01*
X176341496Y-90121739D01*
X176547734Y-90025568D01*
X176734139Y-89895047D01*
X176895047Y-89734139D01*
X177025568Y-89547734D01*
X177121739Y-89341496D01*
X177180635Y-89121692D01*
X177200468Y-88895000D01*
X177180635Y-88668308D01*
X177121739Y-88448504D01*
X177025568Y-88242266D01*
X176895047Y-88055861D01*
X176895045Y-88055858D01*
X176734141Y-87894954D01*
X176547734Y-87764432D01*
X176547728Y-87764429D01*
X176489725Y-87737382D01*
X176437285Y-87691210D01*
X176418133Y-87624017D01*
X176438348Y-87557135D01*
X176489725Y-87512618D01*
X176547734Y-87485568D01*
X176734139Y-87355047D01*
X176895047Y-87194139D01*
X177025568Y-87007734D01*
X177121739Y-86801496D01*
X177180635Y-86581692D01*
X177200468Y-86355000D01*
X177180635Y-86128308D01*
X177121739Y-85908504D01*
X177025568Y-85702266D01*
X176895047Y-85515861D01*
X176895045Y-85515858D01*
X176734141Y-85354954D01*
X176547734Y-85224432D01*
X176547728Y-85224429D01*
X176489725Y-85197382D01*
X176437285Y-85151210D01*
X176418133Y-85084017D01*
X176438348Y-85017135D01*
X176489725Y-84972618D01*
X176491338Y-84971866D01*
X176547734Y-84945568D01*
X176734139Y-84815047D01*
X176895047Y-84654139D01*
X177025568Y-84467734D01*
X177121739Y-84261496D01*
X177180635Y-84041692D01*
X177200468Y-83815000D01*
X177180635Y-83588308D01*
X177121739Y-83368504D01*
X177025568Y-83162266D01*
X176895047Y-82975861D01*
X176895045Y-82975858D01*
X176734141Y-82814954D01*
X176547734Y-82684432D01*
X176547728Y-82684429D01*
X176489725Y-82657382D01*
X176437285Y-82611210D01*
X176418133Y-82544017D01*
X176438348Y-82477135D01*
X176489725Y-82432618D01*
X176547734Y-82405568D01*
X176734139Y-82275047D01*
X176895047Y-82114139D01*
X177025568Y-81927734D01*
X177121739Y-81721496D01*
X177180635Y-81501692D01*
X177200468Y-81275000D01*
X177180635Y-81048308D01*
X177121739Y-80828504D01*
X177025568Y-80622266D01*
X176895047Y-80435861D01*
X176895045Y-80435858D01*
X176734141Y-80274954D01*
X176547734Y-80144432D01*
X176547728Y-80144429D01*
X176489725Y-80117382D01*
X176437285Y-80071210D01*
X176418133Y-80004017D01*
X176438348Y-79937135D01*
X176489725Y-79892618D01*
X176547734Y-79865568D01*
X176734139Y-79735047D01*
X176895047Y-79574139D01*
X176906859Y-79557268D01*
X176961434Y-79513642D01*
X177030933Y-79506447D01*
X177093288Y-79537967D01*
X177096117Y-79540708D01*
X180955586Y-83400177D01*
X180989071Y-83461500D01*
X180987680Y-83519949D01*
X180969367Y-83588296D01*
X180969364Y-83588313D01*
X180949532Y-83814999D01*
X180949532Y-83815001D01*
X180969364Y-84041686D01*
X180969366Y-84041697D01*
X181028258Y-84261488D01*
X181028261Y-84261497D01*
X181124431Y-84467732D01*
X181124432Y-84467734D01*
X181254954Y-84654141D01*
X181415858Y-84815045D01*
X181415861Y-84815047D01*
X181602266Y-84945568D01*
X181658662Y-84971866D01*
X181660275Y-84972618D01*
X181712714Y-85018791D01*
X181731866Y-85085984D01*
X181711650Y-85152865D01*
X181660275Y-85197382D01*
X181602267Y-85224431D01*
X181602265Y-85224432D01*
X181415858Y-85354954D01*
X181254954Y-85515858D01*
X181124432Y-85702265D01*
X181124431Y-85702267D01*
X181028261Y-85908502D01*
X181028258Y-85908511D01*
X180969366Y-86128302D01*
X180969364Y-86128313D01*
X180949532Y-86354998D01*
X180949532Y-86355001D01*
X180969364Y-86581686D01*
X180969366Y-86581697D01*
X181028258Y-86801488D01*
X181028261Y-86801497D01*
X181124431Y-87007732D01*
X181124432Y-87007734D01*
X181254954Y-87194141D01*
X181415858Y-87355045D01*
X181415861Y-87355047D01*
X181602266Y-87485568D01*
X181660865Y-87512893D01*
X181713305Y-87559065D01*
X181732457Y-87626258D01*
X181712242Y-87693139D01*
X181660867Y-87737657D01*
X181602515Y-87764867D01*
X181416179Y-87895342D01*
X181255342Y-88056179D01*
X181124865Y-88242517D01*
X181028734Y-88448673D01*
X181028730Y-88448682D01*
X180976127Y-88644999D01*
X180976128Y-88645000D01*
X181939314Y-88645000D01*
X181927359Y-88656955D01*
X181869835Y-88769852D01*
X181850014Y-88895000D01*
X181869835Y-89020148D01*
X181927359Y-89133045D01*
X181939314Y-89145000D01*
X180976128Y-89145000D01*
X181028730Y-89341317D01*
X181028734Y-89341326D01*
X181124865Y-89547482D01*
X181255342Y-89733820D01*
X181416179Y-89894657D01*
X181602517Y-90025134D01*
X181808673Y-90121265D01*
X181808682Y-90121269D01*
X182004999Y-90173872D01*
X182005000Y-90173871D01*
X182005000Y-89210686D01*
X182016955Y-89222641D01*
X182129852Y-89280165D01*
X182223519Y-89295000D01*
X182286481Y-89295000D01*
X182380148Y-89280165D01*
X182493045Y-89222641D01*
X182505000Y-89210686D01*
X182505000Y-90173872D01*
X182701317Y-90121269D01*
X182701326Y-90121265D01*
X182907482Y-90025134D01*
X183093820Y-89894657D01*
X183254657Y-89733820D01*
X183385134Y-89547482D01*
X183481265Y-89341326D01*
X183481269Y-89341317D01*
X183533872Y-89145000D01*
X182570686Y-89145000D01*
X182582641Y-89133045D01*
X182640165Y-89020148D01*
X182659986Y-88895001D01*
X188569532Y-88895001D01*
X188589364Y-89121686D01*
X188589366Y-89121697D01*
X188648258Y-89341488D01*
X188648261Y-89341497D01*
X188744431Y-89547732D01*
X188744432Y-89547734D01*
X188874954Y-89734141D01*
X189035858Y-89895045D01*
X189035861Y-89895047D01*
X189222266Y-90025568D01*
X189428504Y-90121739D01*
X189648308Y-90180635D01*
X189810230Y-90194801D01*
X189874998Y-90200468D01*
X189875000Y-90200468D01*
X189875002Y-90200468D01*
X189931673Y-90195509D01*
X190101692Y-90180635D01*
X190321496Y-90121739D01*
X190527734Y-90025568D01*
X190714139Y-89895047D01*
X190875047Y-89734139D01*
X191005568Y-89547734D01*
X191101739Y-89341496D01*
X191160635Y-89121692D01*
X191180468Y-88895000D01*
X191160635Y-88668308D01*
X191101739Y-88448504D01*
X191005568Y-88242266D01*
X190875047Y-88055861D01*
X190875045Y-88055858D01*
X190714141Y-87894954D01*
X190527734Y-87764432D01*
X190527728Y-87764429D01*
X190469725Y-87737382D01*
X190417285Y-87691210D01*
X190398133Y-87624017D01*
X190418348Y-87557135D01*
X190469725Y-87512618D01*
X190527734Y-87485568D01*
X190714139Y-87355047D01*
X190875047Y-87194139D01*
X191005568Y-87007734D01*
X191101739Y-86801496D01*
X191160635Y-86581692D01*
X191180468Y-86355000D01*
X191160635Y-86128308D01*
X191101739Y-85908504D01*
X191005568Y-85702266D01*
X190875047Y-85515861D01*
X190875045Y-85515858D01*
X190714141Y-85354954D01*
X190527734Y-85224432D01*
X190527728Y-85224429D01*
X190469725Y-85197382D01*
X190417285Y-85151210D01*
X190398133Y-85084017D01*
X190418348Y-85017135D01*
X190469725Y-84972618D01*
X190471338Y-84971866D01*
X190527734Y-84945568D01*
X190714139Y-84815047D01*
X190875047Y-84654139D01*
X191005568Y-84467734D01*
X191101739Y-84261496D01*
X191160635Y-84041692D01*
X191180468Y-83815000D01*
X191160635Y-83588308D01*
X191101739Y-83368504D01*
X191005568Y-83162266D01*
X190875047Y-82975861D01*
X190875045Y-82975858D01*
X190714141Y-82814954D01*
X190527734Y-82684432D01*
X190527728Y-82684429D01*
X190469725Y-82657382D01*
X190417285Y-82611210D01*
X190398133Y-82544017D01*
X190418348Y-82477135D01*
X190469725Y-82432618D01*
X190527734Y-82405568D01*
X190714139Y-82275047D01*
X190875047Y-82114139D01*
X191005568Y-81927734D01*
X191101739Y-81721496D01*
X191160635Y-81501692D01*
X191180468Y-81275000D01*
X191160635Y-81048308D01*
X191101739Y-80828504D01*
X191005568Y-80622266D01*
X190875047Y-80435861D01*
X190875045Y-80435858D01*
X190714141Y-80274954D01*
X190527734Y-80144432D01*
X190527728Y-80144429D01*
X190469725Y-80117382D01*
X190417285Y-80071210D01*
X190398133Y-80004017D01*
X190418348Y-79937135D01*
X190469725Y-79892618D01*
X190527734Y-79865568D01*
X190714139Y-79735047D01*
X190875047Y-79574139D01*
X191005568Y-79387734D01*
X191101739Y-79181496D01*
X191160635Y-78961692D01*
X191180468Y-78735000D01*
X191160635Y-78508308D01*
X191101739Y-78288504D01*
X191005568Y-78082266D01*
X190875047Y-77895861D01*
X190875045Y-77895858D01*
X190714141Y-77734954D01*
X190527734Y-77604432D01*
X190527728Y-77604429D01*
X190469725Y-77577382D01*
X190417285Y-77531210D01*
X190398133Y-77464017D01*
X190418348Y-77397135D01*
X190469725Y-77352618D01*
X190527734Y-77325568D01*
X190714139Y-77195047D01*
X190875047Y-77034139D01*
X191005568Y-76847734D01*
X191101739Y-76641496D01*
X191160635Y-76421692D01*
X191180468Y-76195000D01*
X191160635Y-75968308D01*
X191101739Y-75748504D01*
X191005568Y-75542266D01*
X190875047Y-75355861D01*
X190875045Y-75355858D01*
X190714141Y-75194954D01*
X190527734Y-75064432D01*
X190527728Y-75064429D01*
X190469725Y-75037382D01*
X190417285Y-74991210D01*
X190398133Y-74924017D01*
X190418348Y-74857135D01*
X190469725Y-74812618D01*
X190527734Y-74785568D01*
X190714139Y-74655047D01*
X190875047Y-74494139D01*
X191005568Y-74307734D01*
X191101739Y-74101496D01*
X191160635Y-73881692D01*
X191180468Y-73655000D01*
X191178823Y-73636202D01*
X191167069Y-73501852D01*
X191160635Y-73428308D01*
X191101739Y-73208504D01*
X191005568Y-73002266D01*
X190875047Y-72815861D01*
X190875045Y-72815858D01*
X190714141Y-72654954D01*
X190527734Y-72524432D01*
X190527732Y-72524431D01*
X190321497Y-72428261D01*
X190321488Y-72428258D01*
X190101697Y-72369366D01*
X190101693Y-72369365D01*
X190101692Y-72369365D01*
X190101691Y-72369364D01*
X190101686Y-72369364D01*
X189875002Y-72349532D01*
X189874998Y-72349532D01*
X189648313Y-72369364D01*
X189648302Y-72369366D01*
X189428511Y-72428258D01*
X189428502Y-72428261D01*
X189222267Y-72524431D01*
X189222265Y-72524432D01*
X189035858Y-72654954D01*
X188874954Y-72815858D01*
X188744432Y-73002265D01*
X188744431Y-73002267D01*
X188648261Y-73208502D01*
X188648258Y-73208511D01*
X188589366Y-73428302D01*
X188589364Y-73428313D01*
X188569532Y-73654998D01*
X188569532Y-73655001D01*
X188589364Y-73881686D01*
X188589366Y-73881697D01*
X188648258Y-74101488D01*
X188648261Y-74101497D01*
X188744431Y-74307732D01*
X188744432Y-74307734D01*
X188874954Y-74494141D01*
X189035858Y-74655045D01*
X189035861Y-74655047D01*
X189222266Y-74785568D01*
X189280275Y-74812618D01*
X189332714Y-74858791D01*
X189351866Y-74925984D01*
X189331650Y-74992865D01*
X189280275Y-75037382D01*
X189222267Y-75064431D01*
X189222265Y-75064432D01*
X189035858Y-75194954D01*
X188874954Y-75355858D01*
X188744432Y-75542265D01*
X188744431Y-75542267D01*
X188648261Y-75748502D01*
X188648258Y-75748511D01*
X188589366Y-75968302D01*
X188589364Y-75968313D01*
X188569532Y-76194998D01*
X188569532Y-76195001D01*
X188589364Y-76421686D01*
X188589366Y-76421697D01*
X188648258Y-76641488D01*
X188648261Y-76641497D01*
X188744431Y-76847732D01*
X188744432Y-76847734D01*
X188874954Y-77034141D01*
X189035858Y-77195045D01*
X189035861Y-77195047D01*
X189222266Y-77325568D01*
X189280275Y-77352618D01*
X189332714Y-77398791D01*
X189351866Y-77465984D01*
X189331650Y-77532865D01*
X189280275Y-77577382D01*
X189222267Y-77604431D01*
X189222265Y-77604432D01*
X189035858Y-77734954D01*
X188874954Y-77895858D01*
X188744432Y-78082265D01*
X188744431Y-78082267D01*
X188648261Y-78288502D01*
X188648258Y-78288511D01*
X188589366Y-78508302D01*
X188589364Y-78508313D01*
X188569532Y-78734998D01*
X188569532Y-78735001D01*
X188589364Y-78961686D01*
X188589366Y-78961697D01*
X188648258Y-79181488D01*
X188648261Y-79181497D01*
X188744431Y-79387732D01*
X188744432Y-79387734D01*
X188874954Y-79574141D01*
X189035858Y-79735045D01*
X189035861Y-79735047D01*
X189222266Y-79865568D01*
X189280275Y-79892618D01*
X189332714Y-79938791D01*
X189351866Y-80005984D01*
X189331650Y-80072865D01*
X189280275Y-80117382D01*
X189222267Y-80144431D01*
X189222265Y-80144432D01*
X189035858Y-80274954D01*
X188874954Y-80435858D01*
X188744432Y-80622265D01*
X188744431Y-80622267D01*
X188648261Y-80828502D01*
X188648258Y-80828511D01*
X188589366Y-81048302D01*
X188589364Y-81048313D01*
X188569532Y-81274998D01*
X188569532Y-81275001D01*
X188589364Y-81501686D01*
X188589366Y-81501697D01*
X188648258Y-81721488D01*
X188648261Y-81721497D01*
X188744431Y-81927732D01*
X188744432Y-81927734D01*
X188874954Y-82114141D01*
X189035858Y-82275045D01*
X189035861Y-82275047D01*
X189222266Y-82405568D01*
X189280275Y-82432618D01*
X189332714Y-82478791D01*
X189351866Y-82545984D01*
X189331650Y-82612865D01*
X189280275Y-82657382D01*
X189222267Y-82684431D01*
X189222265Y-82684432D01*
X189035858Y-82814954D01*
X188874954Y-82975858D01*
X188744432Y-83162265D01*
X188744431Y-83162267D01*
X188648261Y-83368502D01*
X188648258Y-83368511D01*
X188589366Y-83588302D01*
X188589364Y-83588313D01*
X188569532Y-83814998D01*
X188569532Y-83815001D01*
X188589364Y-84041686D01*
X188589366Y-84041697D01*
X188648258Y-84261488D01*
X188648261Y-84261497D01*
X188744431Y-84467732D01*
X188744432Y-84467734D01*
X188874954Y-84654141D01*
X189035858Y-84815045D01*
X189035861Y-84815047D01*
X189222266Y-84945568D01*
X189278662Y-84971866D01*
X189280275Y-84972618D01*
X189332714Y-85018791D01*
X189351866Y-85085984D01*
X189331650Y-85152865D01*
X189280275Y-85197382D01*
X189222267Y-85224431D01*
X189222265Y-85224432D01*
X189035858Y-85354954D01*
X188874954Y-85515858D01*
X188744432Y-85702265D01*
X188744431Y-85702267D01*
X188648261Y-85908502D01*
X188648258Y-85908511D01*
X188589366Y-86128302D01*
X188589364Y-86128313D01*
X188569532Y-86354998D01*
X188569532Y-86355001D01*
X188589364Y-86581686D01*
X188589366Y-86581697D01*
X188648258Y-86801488D01*
X188648261Y-86801497D01*
X188744431Y-87007732D01*
X188744432Y-87007734D01*
X188874954Y-87194141D01*
X189035858Y-87355045D01*
X189035861Y-87355047D01*
X189222266Y-87485568D01*
X189280275Y-87512618D01*
X189332714Y-87558791D01*
X189351866Y-87625984D01*
X189331650Y-87692865D01*
X189280275Y-87737382D01*
X189222267Y-87764431D01*
X189222265Y-87764432D01*
X189035858Y-87894954D01*
X188874954Y-88055858D01*
X188744432Y-88242265D01*
X188744431Y-88242267D01*
X188648261Y-88448502D01*
X188648258Y-88448511D01*
X188589366Y-88668302D01*
X188589364Y-88668313D01*
X188569532Y-88894998D01*
X188569532Y-88895001D01*
X182659986Y-88895001D01*
X182659986Y-88895000D01*
X182640165Y-88769852D01*
X182582641Y-88656955D01*
X182570686Y-88645000D01*
X183533872Y-88645000D01*
X183533872Y-88644999D01*
X183481269Y-88448682D01*
X183481265Y-88448673D01*
X183385134Y-88242517D01*
X183254657Y-88056179D01*
X183093820Y-87895342D01*
X182907482Y-87764865D01*
X182849133Y-87737657D01*
X182796694Y-87691484D01*
X182777542Y-87624291D01*
X182797758Y-87557410D01*
X182849129Y-87512895D01*
X182907734Y-87485568D01*
X183094139Y-87355047D01*
X183255047Y-87194139D01*
X183385568Y-87007734D01*
X183481739Y-86801496D01*
X183540635Y-86581692D01*
X183560468Y-86355000D01*
X183540635Y-86128308D01*
X183481739Y-85908504D01*
X183385568Y-85702266D01*
X183255047Y-85515861D01*
X183255045Y-85515858D01*
X183094141Y-85354954D01*
X182907734Y-85224432D01*
X182907728Y-85224429D01*
X182849725Y-85197382D01*
X182797285Y-85151210D01*
X182778133Y-85084017D01*
X182798348Y-85017135D01*
X182849725Y-84972618D01*
X182851338Y-84971866D01*
X182907734Y-84945568D01*
X183094139Y-84815047D01*
X183255047Y-84654139D01*
X183385568Y-84467734D01*
X183481739Y-84261496D01*
X183540635Y-84041692D01*
X183560468Y-83815000D01*
X183540635Y-83588308D01*
X183481739Y-83368504D01*
X183385568Y-83162266D01*
X183255047Y-82975861D01*
X183255045Y-82975858D01*
X183094141Y-82814954D01*
X182907734Y-82684432D01*
X182907728Y-82684429D01*
X182849725Y-82657382D01*
X182797285Y-82611210D01*
X182778133Y-82544017D01*
X182798348Y-82477135D01*
X182849725Y-82432618D01*
X182907734Y-82405568D01*
X183094139Y-82275047D01*
X183255047Y-82114139D01*
X183385568Y-81927734D01*
X183481739Y-81721496D01*
X183540635Y-81501692D01*
X183560468Y-81275000D01*
X183540635Y-81048308D01*
X183481739Y-80828504D01*
X183385568Y-80622266D01*
X183255047Y-80435861D01*
X183255045Y-80435858D01*
X183094141Y-80274954D01*
X182907734Y-80144432D01*
X182907728Y-80144429D01*
X182849725Y-80117382D01*
X182797285Y-80071210D01*
X182778133Y-80004017D01*
X182798348Y-79937135D01*
X182849725Y-79892618D01*
X182907734Y-79865568D01*
X183094139Y-79735047D01*
X183255047Y-79574139D01*
X183385568Y-79387734D01*
X183481739Y-79181496D01*
X183540635Y-78961692D01*
X183560468Y-78735000D01*
X183540635Y-78508308D01*
X183481739Y-78288504D01*
X183385568Y-78082266D01*
X183255047Y-77895861D01*
X183255045Y-77895858D01*
X183094141Y-77734954D01*
X182907734Y-77604432D01*
X182907728Y-77604429D01*
X182849725Y-77577382D01*
X182797285Y-77531210D01*
X182778133Y-77464017D01*
X182798348Y-77397135D01*
X182849725Y-77352618D01*
X182907734Y-77325568D01*
X183094139Y-77195047D01*
X183255047Y-77034139D01*
X183385568Y-76847734D01*
X183481739Y-76641496D01*
X183540635Y-76421692D01*
X183560468Y-76195000D01*
X183540635Y-75968308D01*
X183481739Y-75748504D01*
X183385568Y-75542266D01*
X183255047Y-75355861D01*
X183255045Y-75355858D01*
X183094143Y-75194956D01*
X183069536Y-75177726D01*
X183025912Y-75123149D01*
X183018719Y-75053650D01*
X183050241Y-74991296D01*
X183110471Y-74955882D01*
X183127404Y-74952861D01*
X183162483Y-74949091D01*
X183297331Y-74898796D01*
X183412546Y-74812546D01*
X183498796Y-74697331D01*
X183549091Y-74562483D01*
X183555500Y-74502873D01*
X183555499Y-72807128D01*
X183549091Y-72747517D01*
X183514567Y-72654954D01*
X183498797Y-72612671D01*
X183498793Y-72612664D01*
X183412547Y-72497455D01*
X183412544Y-72497452D01*
X183297335Y-72411206D01*
X183297328Y-72411202D01*
X183162482Y-72360908D01*
X183162483Y-72360908D01*
X183102883Y-72354501D01*
X183102881Y-72354500D01*
X183102873Y-72354500D01*
X183102864Y-72354500D01*
X181407129Y-72354500D01*
X181407123Y-72354501D01*
X181347516Y-72360908D01*
X181212671Y-72411202D01*
X181212664Y-72411206D01*
X181097455Y-72497452D01*
X181097452Y-72497455D01*
X181011206Y-72612664D01*
X181011202Y-72612671D01*
X180960908Y-72747517D01*
X180954501Y-72807116D01*
X180954501Y-72807123D01*
X180954500Y-72807135D01*
X180954500Y-74502870D01*
X180954501Y-74502876D01*
X180960908Y-74562483D01*
X181011202Y-74697328D01*
X181011206Y-74697335D01*
X181097452Y-74812544D01*
X181097455Y-74812547D01*
X181212664Y-74898793D01*
X181212671Y-74898797D01*
X181257618Y-74915561D01*
X181347517Y-74949091D01*
X181382596Y-74952862D01*
X181447144Y-74979599D01*
X181486993Y-75036991D01*
X181489488Y-75106816D01*
X181453836Y-75166905D01*
X181440464Y-75177725D01*
X181415858Y-75194954D01*
X181254954Y-75355858D01*
X181124432Y-75542265D01*
X181124431Y-75542267D01*
X181028261Y-75748502D01*
X181028258Y-75748511D01*
X180969366Y-75968302D01*
X180969364Y-75968313D01*
X180949532Y-76194998D01*
X180949532Y-76195001D01*
X180969364Y-76421686D01*
X180969366Y-76421697D01*
X181028258Y-76641488D01*
X181028261Y-76641497D01*
X181124431Y-76847732D01*
X181124432Y-76847734D01*
X181254954Y-77034141D01*
X181415858Y-77195045D01*
X181415861Y-77195047D01*
X181602266Y-77325568D01*
X181660275Y-77352618D01*
X181712714Y-77398791D01*
X181731866Y-77465984D01*
X181711650Y-77532865D01*
X181660275Y-77577382D01*
X181602267Y-77604431D01*
X181602265Y-77604432D01*
X181415858Y-77734954D01*
X181254954Y-77895858D01*
X181124432Y-78082265D01*
X181124431Y-78082267D01*
X181028261Y-78288502D01*
X181028258Y-78288511D01*
X180969366Y-78508302D01*
X180969364Y-78508313D01*
X180949532Y-78734998D01*
X180949532Y-78735001D01*
X180969364Y-78961686D01*
X180969366Y-78961697D01*
X181028258Y-79181488D01*
X181028261Y-79181497D01*
X181124431Y-79387732D01*
X181124432Y-79387734D01*
X181254954Y-79574141D01*
X181415858Y-79735045D01*
X181415861Y-79735047D01*
X181602266Y-79865568D01*
X181660275Y-79892618D01*
X181712714Y-79938791D01*
X181731866Y-80005984D01*
X181711650Y-80072865D01*
X181660275Y-80117382D01*
X181602267Y-80144431D01*
X181602265Y-80144432D01*
X181415858Y-80274954D01*
X181254954Y-80435858D01*
X181124432Y-80622265D01*
X181124431Y-80622267D01*
X181028261Y-80828502D01*
X181028258Y-80828511D01*
X180969366Y-81048302D01*
X180969364Y-81048313D01*
X180949532Y-81274998D01*
X180949532Y-81275003D01*
X180953390Y-81319104D01*
X180939623Y-81387603D01*
X180891007Y-81437786D01*
X180822979Y-81453719D01*
X180757135Y-81430343D01*
X180742181Y-81417591D01*
X179330574Y-80005984D01*
X177682217Y-78357626D01*
X177648732Y-78296303D01*
X177645959Y-78273835D01*
X177645500Y-78259209D01*
X177645500Y-78229660D01*
X177645500Y-78229659D01*
X177644629Y-78222768D01*
X177644172Y-78216954D01*
X177642709Y-78170383D01*
X177642709Y-78170381D01*
X177637120Y-78151146D01*
X177633174Y-78132093D01*
X177630664Y-78112217D01*
X177613501Y-78068868D01*
X177611614Y-78063355D01*
X177598617Y-78018619D01*
X177598616Y-78018617D01*
X177588421Y-78001378D01*
X177579860Y-77983902D01*
X177572486Y-77965278D01*
X177572486Y-77965276D01*
X177562474Y-77951497D01*
X177545083Y-77927559D01*
X177541900Y-77922714D01*
X177518170Y-77882588D01*
X177518165Y-77882582D01*
X177504005Y-77868422D01*
X177491370Y-77853629D01*
X177479593Y-77837421D01*
X177443693Y-77807722D01*
X177439381Y-77803799D01*
X176870065Y-77234483D01*
X176836580Y-77173160D01*
X176841564Y-77103468D01*
X176870064Y-77059121D01*
X176895047Y-77034139D01*
X177025568Y-76847734D01*
X177121739Y-76641496D01*
X177180635Y-76421692D01*
X177200468Y-76195000D01*
X177180635Y-75968308D01*
X177121739Y-75748504D01*
X177025568Y-75542266D01*
X176895047Y-75355861D01*
X176895045Y-75355858D01*
X176734141Y-75194954D01*
X176547734Y-75064432D01*
X176547728Y-75064429D01*
X176489725Y-75037382D01*
X176437285Y-74991210D01*
X176418133Y-74924017D01*
X176438348Y-74857135D01*
X176489725Y-74812618D01*
X176547734Y-74785568D01*
X176734139Y-74655047D01*
X176895047Y-74494139D01*
X177025568Y-74307734D01*
X177121739Y-74101496D01*
X177180635Y-73881692D01*
X177200468Y-73655000D01*
X177198823Y-73636202D01*
X177187069Y-73501852D01*
X177180635Y-73428308D01*
X177121739Y-73208504D01*
X177025568Y-73002266D01*
X176895047Y-72815861D01*
X176895045Y-72815858D01*
X176734141Y-72654954D01*
X176547734Y-72524432D01*
X176547732Y-72524431D01*
X176341497Y-72428261D01*
X176341488Y-72428258D01*
X176121697Y-72369366D01*
X176121693Y-72369365D01*
X176121692Y-72369365D01*
X176121691Y-72369364D01*
X176121686Y-72369364D01*
X175895002Y-72349532D01*
X175894998Y-72349532D01*
X175668313Y-72369364D01*
X175668302Y-72369366D01*
X175448511Y-72428258D01*
X175448502Y-72428261D01*
X175242267Y-72524431D01*
X175242265Y-72524432D01*
X175055858Y-72654954D01*
X174894954Y-72815858D01*
X174764432Y-73002265D01*
X174764431Y-73002267D01*
X174668261Y-73208502D01*
X174668258Y-73208511D01*
X174609366Y-73428302D01*
X174609364Y-73428313D01*
X174589532Y-73654998D01*
X174589532Y-73655001D01*
X174609364Y-73881686D01*
X174609366Y-73881697D01*
X174668258Y-74101488D01*
X174668261Y-74101497D01*
X174764431Y-74307732D01*
X174764432Y-74307734D01*
X174894954Y-74494141D01*
X175055858Y-74655045D01*
X175055861Y-74655047D01*
X175242266Y-74785568D01*
X175300275Y-74812618D01*
X175352714Y-74858791D01*
X175371866Y-74925984D01*
X175351650Y-74992865D01*
X175300275Y-75037382D01*
X175242267Y-75064431D01*
X175242265Y-75064432D01*
X175055858Y-75194954D01*
X174894954Y-75355858D01*
X174764432Y-75542265D01*
X174764431Y-75542267D01*
X174674361Y-75735422D01*
X174628188Y-75787861D01*
X174560995Y-75807013D01*
X174494114Y-75786797D01*
X174474298Y-75770698D01*
X170709812Y-72006212D01*
X170699989Y-71993950D01*
X170699768Y-71994134D01*
X170694795Y-71988123D01*
X170676168Y-71970631D01*
X170644373Y-71940773D01*
X170633928Y-71930328D01*
X170623484Y-71919883D01*
X170617995Y-71915625D01*
X170613570Y-71911847D01*
X170579591Y-71879938D01*
X170579589Y-71879936D01*
X170579586Y-71879935D01*
X170562038Y-71870288D01*
X170545772Y-71859604D01*
X170529942Y-71847325D01*
X170487177Y-71828818D01*
X170481931Y-71826248D01*
X170441102Y-71803803D01*
X170441101Y-71803802D01*
X170421702Y-71798822D01*
X170403290Y-71792518D01*
X170384907Y-71784562D01*
X170384901Y-71784560D01*
X170338883Y-71777272D01*
X170333161Y-71776087D01*
X170288030Y-71764500D01*
X170288028Y-71764500D01*
X170267993Y-71764500D01*
X170248595Y-71762973D01*
X170241171Y-71761797D01*
X170228814Y-71759840D01*
X170228813Y-71759840D01*
X170182425Y-71764225D01*
X170176587Y-71764500D01*
X127082737Y-71764500D01*
X127067120Y-71762776D01*
X127067093Y-71763062D01*
X127059331Y-71762327D01*
X126990203Y-71764500D01*
X126960650Y-71764500D01*
X126959929Y-71764590D01*
X126953757Y-71765369D01*
X126947945Y-71765826D01*
X126901372Y-71767290D01*
X126901369Y-71767291D01*
X126882126Y-71772881D01*
X126863083Y-71776825D01*
X126843204Y-71779336D01*
X126843203Y-71779337D01*
X126799878Y-71796490D01*
X126794352Y-71798382D01*
X126749608Y-71811383D01*
X126749604Y-71811385D01*
X126732365Y-71821580D01*
X126714898Y-71830137D01*
X126696269Y-71837512D01*
X126696267Y-71837513D01*
X126658564Y-71864906D01*
X126653682Y-71868112D01*
X126613580Y-71891828D01*
X126599408Y-71906000D01*
X126584623Y-71918628D01*
X126568412Y-71930407D01*
X126538709Y-71966310D01*
X126534777Y-71970631D01*
X124915646Y-73589761D01*
X124854323Y-73623246D01*
X124795873Y-73621855D01*
X124695408Y-73594937D01*
X124460001Y-73574341D01*
X124459999Y-73574341D01*
X124224596Y-73594936D01*
X124224586Y-73594938D01*
X123996344Y-73656094D01*
X123996335Y-73656098D01*
X123782171Y-73755964D01*
X123782169Y-73755965D01*
X123588597Y-73891505D01*
X123421505Y-74058597D01*
X123291575Y-74244158D01*
X123236998Y-74287783D01*
X123167500Y-74294977D01*
X123105145Y-74263454D01*
X123088425Y-74244158D01*
X122958494Y-74058597D01*
X122791402Y-73891506D01*
X122791395Y-73891501D01*
X122777386Y-73881692D01*
X122714518Y-73837671D01*
X122597834Y-73755967D01*
X122597830Y-73755965D01*
X122597828Y-73755964D01*
X122383663Y-73656097D01*
X122383659Y-73656096D01*
X122383655Y-73656094D01*
X122155413Y-73594938D01*
X122155403Y-73594936D01*
X121920001Y-73574341D01*
X121919999Y-73574341D01*
X121684596Y-73594936D01*
X121684586Y-73594938D01*
X121456344Y-73656094D01*
X121456335Y-73656098D01*
X121242171Y-73755964D01*
X121242169Y-73755965D01*
X121048597Y-73891505D01*
X120881505Y-74058597D01*
X120751575Y-74244158D01*
X120696998Y-74287783D01*
X120627500Y-74294977D01*
X120565145Y-74263454D01*
X120548425Y-74244158D01*
X120418494Y-74058597D01*
X120251402Y-73891506D01*
X120251395Y-73891501D01*
X120237386Y-73881692D01*
X120174518Y-73837671D01*
X120057834Y-73755967D01*
X120057830Y-73755965D01*
X120057828Y-73755964D01*
X119843663Y-73656097D01*
X119843659Y-73656096D01*
X119843655Y-73656094D01*
X119615413Y-73594938D01*
X119615403Y-73594936D01*
X119380001Y-73574341D01*
X119379999Y-73574341D01*
X119144596Y-73594936D01*
X119144586Y-73594938D01*
X118916344Y-73656094D01*
X118916335Y-73656098D01*
X118702171Y-73755964D01*
X118702169Y-73755965D01*
X118508597Y-73891505D01*
X118341505Y-74058597D01*
X118211575Y-74244158D01*
X118156998Y-74287783D01*
X118087500Y-74294977D01*
X118025145Y-74263454D01*
X118008425Y-74244158D01*
X117878494Y-74058597D01*
X117711402Y-73891506D01*
X117711395Y-73891501D01*
X117697386Y-73881692D01*
X117634518Y-73837671D01*
X117517834Y-73755967D01*
X117517830Y-73755965D01*
X117517828Y-73755964D01*
X117303663Y-73656097D01*
X117303659Y-73656096D01*
X117303655Y-73656094D01*
X117075413Y-73594938D01*
X117075403Y-73594936D01*
X116840001Y-73574341D01*
X116839999Y-73574341D01*
X116604596Y-73594936D01*
X116604586Y-73594938D01*
X116376344Y-73656094D01*
X116376335Y-73656098D01*
X116162171Y-73755964D01*
X116162169Y-73755965D01*
X115968597Y-73891505D01*
X115801505Y-74058597D01*
X115671575Y-74244158D01*
X115616998Y-74287783D01*
X115547500Y-74294977D01*
X115485145Y-74263454D01*
X115468425Y-74244158D01*
X115338494Y-74058597D01*
X115171402Y-73891506D01*
X115171395Y-73891501D01*
X115157386Y-73881692D01*
X115094518Y-73837671D01*
X114977834Y-73755967D01*
X114977830Y-73755965D01*
X114977828Y-73755964D01*
X114763663Y-73656097D01*
X114763659Y-73656096D01*
X114763655Y-73656094D01*
X114535413Y-73594938D01*
X114535403Y-73594936D01*
X114300001Y-73574341D01*
X114299999Y-73574341D01*
X114064596Y-73594936D01*
X114064586Y-73594938D01*
X113836344Y-73656094D01*
X113836335Y-73656098D01*
X113622171Y-73755964D01*
X113622169Y-73755965D01*
X113428597Y-73891505D01*
X113261505Y-74058597D01*
X113131575Y-74244158D01*
X113076998Y-74287783D01*
X113007500Y-74294977D01*
X112945145Y-74263454D01*
X112928425Y-74244158D01*
X112798494Y-74058597D01*
X112631402Y-73891506D01*
X112631395Y-73891501D01*
X112617386Y-73881692D01*
X112554518Y-73837671D01*
X112437834Y-73755967D01*
X112437830Y-73755965D01*
X112437828Y-73755964D01*
X112223663Y-73656097D01*
X112223659Y-73656096D01*
X112223655Y-73656094D01*
X111995413Y-73594938D01*
X111995403Y-73594936D01*
X111760001Y-73574341D01*
X111759999Y-73574341D01*
X111524596Y-73594936D01*
X111524586Y-73594938D01*
X111296344Y-73656094D01*
X111296335Y-73656098D01*
X111082171Y-73755964D01*
X111082169Y-73755965D01*
X110888597Y-73891505D01*
X110721505Y-74058597D01*
X110591575Y-74244158D01*
X110536998Y-74287783D01*
X110467500Y-74294977D01*
X110405145Y-74263454D01*
X110388425Y-74244158D01*
X110258494Y-74058597D01*
X110091402Y-73891506D01*
X110091395Y-73891501D01*
X110077386Y-73881692D01*
X110014518Y-73837671D01*
X109897834Y-73755967D01*
X109897830Y-73755965D01*
X109897828Y-73755964D01*
X109683663Y-73656097D01*
X109683659Y-73656096D01*
X109683655Y-73656094D01*
X109455413Y-73594938D01*
X109455403Y-73594936D01*
X109220001Y-73574341D01*
X109219999Y-73574341D01*
X108984596Y-73594936D01*
X108984586Y-73594938D01*
X108756344Y-73656094D01*
X108756335Y-73656098D01*
X108542171Y-73755964D01*
X108542169Y-73755965D01*
X108348597Y-73891505D01*
X108181508Y-74058594D01*
X108051269Y-74244595D01*
X107996692Y-74288219D01*
X107927193Y-74295412D01*
X107864839Y-74263890D01*
X107848119Y-74244594D01*
X107718113Y-74058926D01*
X107718108Y-74058920D01*
X107551082Y-73891894D01*
X107357578Y-73756399D01*
X107143492Y-73656570D01*
X107143486Y-73656567D01*
X106930000Y-73599364D01*
X106930000Y-74494498D01*
X106822315Y-74445320D01*
X106715763Y-74430000D01*
X106644237Y-74430000D01*
X106537685Y-74445320D01*
X106430000Y-74494498D01*
X106430000Y-73599364D01*
X106429999Y-73599364D01*
X106216513Y-73656567D01*
X106216507Y-73656570D01*
X106002422Y-73756399D01*
X106002420Y-73756400D01*
X105808926Y-73891886D01*
X105686865Y-74013947D01*
X105625542Y-74047431D01*
X105555850Y-74042447D01*
X105499917Y-74000575D01*
X105483002Y-73969598D01*
X105433797Y-73837671D01*
X105433793Y-73837664D01*
X105347547Y-73722455D01*
X105347544Y-73722452D01*
X105232335Y-73636206D01*
X105232328Y-73636202D01*
X105097482Y-73585908D01*
X105097483Y-73585908D01*
X105037883Y-73579501D01*
X105037881Y-73579500D01*
X105037873Y-73579500D01*
X105037864Y-73579500D01*
X103242129Y-73579500D01*
X103242123Y-73579501D01*
X103182516Y-73585908D01*
X103047671Y-73636202D01*
X103047664Y-73636206D01*
X102932455Y-73722452D01*
X102932452Y-73722455D01*
X102846206Y-73837664D01*
X102846202Y-73837671D01*
X102795908Y-73972517D01*
X102789501Y-74032116D01*
X102789500Y-74032135D01*
X102789500Y-75827870D01*
X102789501Y-75827876D01*
X102795908Y-75887483D01*
X102846202Y-76022328D01*
X102846206Y-76022335D01*
X102932452Y-76137544D01*
X102932455Y-76137547D01*
X103047664Y-76223793D01*
X103047671Y-76223797D01*
X103182517Y-76274091D01*
X103182516Y-76274091D01*
X103189444Y-76274835D01*
X103242127Y-76280500D01*
X105037872Y-76280499D01*
X105097483Y-76274091D01*
X105232331Y-76223796D01*
X105347546Y-76137546D01*
X105433796Y-76022331D01*
X105483002Y-75890401D01*
X105524872Y-75834468D01*
X105590337Y-75810050D01*
X105658610Y-75824901D01*
X105686865Y-75846053D01*
X105808917Y-75968105D01*
X106002421Y-76103600D01*
X106216507Y-76203429D01*
X106216516Y-76203433D01*
X106430000Y-76260634D01*
X106430000Y-75365501D01*
X106537685Y-75414680D01*
X106644237Y-75430000D01*
X106715763Y-75430000D01*
X106822315Y-75414680D01*
X106930000Y-75365501D01*
X106930000Y-76260633D01*
X107143483Y-76203433D01*
X107143492Y-76203429D01*
X107357578Y-76103600D01*
X107551082Y-75968105D01*
X107718105Y-75801082D01*
X107848119Y-75615405D01*
X107902696Y-75571781D01*
X107972195Y-75564588D01*
X108034549Y-75596110D01*
X108051269Y-75615405D01*
X108181505Y-75801401D01*
X108348599Y-75968495D01*
X108445384Y-76036265D01*
X108542165Y-76104032D01*
X108542167Y-76104033D01*
X108542170Y-76104035D01*
X108756337Y-76203903D01*
X108984592Y-76265063D01*
X109161034Y-76280500D01*
X109219999Y-76285659D01*
X109220000Y-76285659D01*
X109220001Y-76285659D01*
X109278966Y-76280500D01*
X109455408Y-76265063D01*
X109683663Y-76203903D01*
X109897830Y-76104035D01*
X110091401Y-75968495D01*
X110258495Y-75801401D01*
X110388425Y-75615842D01*
X110443002Y-75572217D01*
X110512500Y-75565023D01*
X110574855Y-75596546D01*
X110591575Y-75615842D01*
X110721281Y-75801082D01*
X110721505Y-75801401D01*
X110888599Y-75968495D01*
X110985384Y-76036265D01*
X111082165Y-76104032D01*
X111082167Y-76104033D01*
X111082170Y-76104035D01*
X111296337Y-76203903D01*
X111524592Y-76265063D01*
X111701034Y-76280500D01*
X111759999Y-76285659D01*
X111760000Y-76285659D01*
X111760001Y-76285659D01*
X111818966Y-76280500D01*
X111995408Y-76265063D01*
X112223663Y-76203903D01*
X112437830Y-76104035D01*
X112631401Y-75968495D01*
X112798495Y-75801401D01*
X112928425Y-75615842D01*
X112983002Y-75572217D01*
X113052500Y-75565023D01*
X113114855Y-75596546D01*
X113131575Y-75615842D01*
X113261281Y-75801082D01*
X113261505Y-75801401D01*
X113428599Y-75968495D01*
X113525384Y-76036265D01*
X113622165Y-76104032D01*
X113622167Y-76104033D01*
X113622170Y-76104035D01*
X113836337Y-76203903D01*
X114064592Y-76265063D01*
X114241034Y-76280500D01*
X114299999Y-76285659D01*
X114300000Y-76285659D01*
X114300001Y-76285659D01*
X114358966Y-76280500D01*
X114535408Y-76265063D01*
X114763663Y-76203903D01*
X114977830Y-76104035D01*
X115171401Y-75968495D01*
X115338495Y-75801401D01*
X115468425Y-75615842D01*
X115523002Y-75572217D01*
X115592500Y-75565023D01*
X115654855Y-75596546D01*
X115671575Y-75615842D01*
X115801281Y-75801082D01*
X115801505Y-75801401D01*
X115968599Y-75968495D01*
X116065384Y-76036265D01*
X116162165Y-76104032D01*
X116162167Y-76104033D01*
X116162170Y-76104035D01*
X116376337Y-76203903D01*
X116604592Y-76265063D01*
X116781034Y-76280500D01*
X116839999Y-76285659D01*
X116840000Y-76285659D01*
X116840001Y-76285659D01*
X116898966Y-76280500D01*
X117075408Y-76265063D01*
X117303663Y-76203903D01*
X117517830Y-76104035D01*
X117711401Y-75968495D01*
X117878495Y-75801401D01*
X118008425Y-75615842D01*
X118063002Y-75572217D01*
X118132500Y-75565023D01*
X118194855Y-75596546D01*
X118211575Y-75615842D01*
X118341281Y-75801082D01*
X118341505Y-75801401D01*
X118508599Y-75968495D01*
X118605384Y-76036265D01*
X118702165Y-76104032D01*
X118702167Y-76104033D01*
X118702170Y-76104035D01*
X118916337Y-76203903D01*
X119144592Y-76265063D01*
X119321034Y-76280500D01*
X119379999Y-76285659D01*
X119380000Y-76285659D01*
X119380001Y-76285659D01*
X119438966Y-76280500D01*
X119615408Y-76265063D01*
X119843663Y-76203903D01*
X120057830Y-76104035D01*
X120251401Y-75968495D01*
X120418495Y-75801401D01*
X120548425Y-75615842D01*
X120603002Y-75572217D01*
X120672500Y-75565023D01*
X120734855Y-75596546D01*
X120751575Y-75615842D01*
X120881281Y-75801082D01*
X120881505Y-75801401D01*
X121048599Y-75968495D01*
X121145384Y-76036265D01*
X121242165Y-76104032D01*
X121242167Y-76104033D01*
X121242170Y-76104035D01*
X121456337Y-76203903D01*
X121684592Y-76265063D01*
X121861034Y-76280500D01*
X121919999Y-76285659D01*
X121920000Y-76285659D01*
X121920001Y-76285659D01*
X121978966Y-76280500D01*
X122155408Y-76265063D01*
X122383663Y-76203903D01*
X122597830Y-76104035D01*
X122791401Y-75968495D01*
X122958495Y-75801401D01*
X123088425Y-75615842D01*
X123143002Y-75572217D01*
X123212500Y-75565023D01*
X123274855Y-75596546D01*
X123291575Y-75615842D01*
X123421281Y-75801082D01*
X123421505Y-75801401D01*
X123588599Y-75968495D01*
X123685384Y-76036265D01*
X123782165Y-76104032D01*
X123782167Y-76104033D01*
X123782170Y-76104035D01*
X123996337Y-76203903D01*
X124224592Y-76265063D01*
X124401034Y-76280500D01*
X124459999Y-76285659D01*
X124460000Y-76285659D01*
X124460001Y-76285659D01*
X124518966Y-76280500D01*
X124695408Y-76265063D01*
X124923663Y-76203903D01*
X125137830Y-76104035D01*
X125331401Y-75968495D01*
X125498495Y-75801401D01*
X125628425Y-75615842D01*
X125683002Y-75572217D01*
X125752500Y-75565023D01*
X125814855Y-75596546D01*
X125831575Y-75615842D01*
X125961281Y-75801082D01*
X125961505Y-75801401D01*
X126128599Y-75968495D01*
X126225384Y-76036265D01*
X126322165Y-76104032D01*
X126322167Y-76104033D01*
X126322170Y-76104035D01*
X126536337Y-76203903D01*
X126764592Y-76265063D01*
X126941034Y-76280500D01*
X126999999Y-76285659D01*
X127000000Y-76285659D01*
X127000001Y-76285659D01*
X127058966Y-76280500D01*
X127235408Y-76265063D01*
X127463663Y-76203903D01*
X127677830Y-76104035D01*
X127871401Y-75968495D01*
X128038495Y-75801401D01*
X128168425Y-75615842D01*
X128223002Y-75572217D01*
X128292500Y-75565023D01*
X128354855Y-75596546D01*
X128371575Y-75615842D01*
X128501281Y-75801082D01*
X128501505Y-75801401D01*
X128668599Y-75968495D01*
X128765384Y-76036265D01*
X128862165Y-76104032D01*
X128862167Y-76104033D01*
X128862170Y-76104035D01*
X129076337Y-76203903D01*
X129304592Y-76265063D01*
X129481034Y-76280500D01*
X129539999Y-76285659D01*
X129540000Y-76285659D01*
X129540001Y-76285659D01*
X129598966Y-76280500D01*
X129775408Y-76265063D01*
X130003663Y-76203903D01*
X130217830Y-76104035D01*
X130411401Y-75968495D01*
X130578495Y-75801401D01*
X130708425Y-75615842D01*
X130763002Y-75572217D01*
X130832500Y-75565023D01*
X130894855Y-75596546D01*
X130911575Y-75615842D01*
X131041281Y-75801082D01*
X131041505Y-75801401D01*
X131208599Y-75968495D01*
X131305384Y-76036265D01*
X131402165Y-76104032D01*
X131402167Y-76104033D01*
X131402170Y-76104035D01*
X131616337Y-76203903D01*
X131844592Y-76265063D01*
X132021034Y-76280500D01*
X132079999Y-76285659D01*
X132080000Y-76285659D01*
X132080001Y-76285659D01*
X132138966Y-76280500D01*
X132315408Y-76265063D01*
X132543663Y-76203903D01*
X132757830Y-76104035D01*
X132951401Y-75968495D01*
X133118495Y-75801401D01*
X133248425Y-75615842D01*
X133303002Y-75572217D01*
X133372500Y-75565023D01*
X133434855Y-75596546D01*
X133451575Y-75615842D01*
X133581281Y-75801082D01*
X133581505Y-75801401D01*
X133748599Y-75968495D01*
X133845384Y-76036265D01*
X133942165Y-76104032D01*
X133942167Y-76104033D01*
X133942170Y-76104035D01*
X134156337Y-76203903D01*
X134384592Y-76265063D01*
X134561034Y-76280500D01*
X134619999Y-76285659D01*
X134620000Y-76285659D01*
X134620001Y-76285659D01*
X134678966Y-76280500D01*
X134855408Y-76265063D01*
X135083663Y-76203903D01*
X135297830Y-76104035D01*
X135491401Y-75968495D01*
X135658495Y-75801401D01*
X135788425Y-75615842D01*
X135843002Y-75572217D01*
X135912500Y-75565023D01*
X135974855Y-75596546D01*
X135991575Y-75615842D01*
X136121281Y-75801082D01*
X136121505Y-75801401D01*
X136288599Y-75968495D01*
X136385384Y-76036265D01*
X136482165Y-76104032D01*
X136482167Y-76104033D01*
X136482170Y-76104035D01*
X136696337Y-76203903D01*
X136924592Y-76265063D01*
X137101034Y-76280500D01*
X137159999Y-76285659D01*
X137160000Y-76285659D01*
X137160001Y-76285659D01*
X137218966Y-76280500D01*
X137395408Y-76265063D01*
X137623663Y-76203903D01*
X137837830Y-76104035D01*
X138031401Y-75968495D01*
X138198495Y-75801401D01*
X138328425Y-75615842D01*
X138383002Y-75572217D01*
X138452500Y-75565023D01*
X138514855Y-75596546D01*
X138531575Y-75615842D01*
X138661281Y-75801082D01*
X138661505Y-75801401D01*
X138828599Y-75968495D01*
X138925384Y-76036265D01*
X139022165Y-76104032D01*
X139022167Y-76104033D01*
X139022170Y-76104035D01*
X139236337Y-76203903D01*
X139464592Y-76265063D01*
X139641034Y-76280500D01*
X139699999Y-76285659D01*
X139700000Y-76285659D01*
X139700001Y-76285659D01*
X139758966Y-76280500D01*
X139935408Y-76265063D01*
X139938684Y-76264185D01*
X139940182Y-76264220D01*
X139940742Y-76264122D01*
X139940761Y-76264234D01*
X140008533Y-76265844D01*
X140066398Y-76305003D01*
X140093905Y-76369230D01*
X140082322Y-76438133D01*
X140058464Y-76471639D01*
X118996208Y-97533894D01*
X118983951Y-97543715D01*
X118984134Y-97543936D01*
X118978123Y-97548908D01*
X118930772Y-97599331D01*
X118909889Y-97620214D01*
X118909877Y-97620227D01*
X118905621Y-97625712D01*
X118901837Y-97630142D01*
X118869937Y-97664113D01*
X118869936Y-97664115D01*
X118860284Y-97681671D01*
X118849610Y-97697921D01*
X118837329Y-97713756D01*
X118837324Y-97713763D01*
X118818815Y-97756533D01*
X118816245Y-97761779D01*
X118793803Y-97802601D01*
X118788822Y-97822002D01*
X118782521Y-97840405D01*
X118774562Y-97858797D01*
X118774561Y-97858800D01*
X118767271Y-97904822D01*
X118766087Y-97910541D01*
X118754501Y-97955667D01*
X118754500Y-97955677D01*
X118754500Y-97975711D01*
X118752973Y-97995110D01*
X118749840Y-98014889D01*
X118749840Y-98014890D01*
X118754225Y-98061278D01*
X118754500Y-98067116D01*
X118754500Y-105404773D01*
X118734815Y-105471812D01*
X118701623Y-105506348D01*
X118508597Y-105641505D01*
X118341505Y-105808597D01*
X118211575Y-105994158D01*
X118156998Y-106037783D01*
X118087500Y-106044977D01*
X118025145Y-106013454D01*
X118008425Y-105994158D01*
X117878494Y-105808597D01*
X117711402Y-105641506D01*
X117711395Y-105641501D01*
X117517834Y-105505967D01*
X117517830Y-105505965D01*
X117465500Y-105481563D01*
X117303663Y-105406097D01*
X117303659Y-105406096D01*
X117303655Y-105406094D01*
X117075413Y-105344938D01*
X117075403Y-105344936D01*
X116840001Y-105324341D01*
X116839999Y-105324341D01*
X116604596Y-105344936D01*
X116604586Y-105344938D01*
X116376344Y-105406094D01*
X116376335Y-105406098D01*
X116162171Y-105505964D01*
X116162169Y-105505965D01*
X115968597Y-105641505D01*
X115801505Y-105808597D01*
X115671575Y-105994158D01*
X115616998Y-106037783D01*
X115547500Y-106044977D01*
X115485145Y-106013454D01*
X115468425Y-105994158D01*
X115338494Y-105808597D01*
X115171402Y-105641506D01*
X115171395Y-105641501D01*
X114977834Y-105505967D01*
X114977830Y-105505965D01*
X114925500Y-105481563D01*
X114763663Y-105406097D01*
X114763659Y-105406096D01*
X114763655Y-105406094D01*
X114535413Y-105344938D01*
X114535403Y-105344936D01*
X114300001Y-105324341D01*
X114299999Y-105324341D01*
X114064596Y-105344936D01*
X114064586Y-105344938D01*
X113836344Y-105406094D01*
X113836335Y-105406098D01*
X113622171Y-105505964D01*
X113622169Y-105505965D01*
X113428597Y-105641505D01*
X113261505Y-105808597D01*
X113131575Y-105994158D01*
X113076998Y-106037783D01*
X113007500Y-106044977D01*
X112945145Y-106013454D01*
X112928425Y-105994158D01*
X112798494Y-105808597D01*
X112631402Y-105641506D01*
X112631395Y-105641501D01*
X112437834Y-105505967D01*
X112437830Y-105505965D01*
X112385500Y-105481563D01*
X112223663Y-105406097D01*
X112223659Y-105406096D01*
X112223655Y-105406094D01*
X111995413Y-105344938D01*
X111995403Y-105344936D01*
X111760001Y-105324341D01*
X111759999Y-105324341D01*
X111524596Y-105344936D01*
X111524586Y-105344938D01*
X111296344Y-105406094D01*
X111296335Y-105406098D01*
X111082171Y-105505964D01*
X111082169Y-105505965D01*
X110888597Y-105641505D01*
X110721505Y-105808597D01*
X110591575Y-105994158D01*
X110536998Y-106037783D01*
X110467500Y-106044977D01*
X110405145Y-106013454D01*
X110388425Y-105994158D01*
X110258494Y-105808597D01*
X110091402Y-105641506D01*
X110091395Y-105641501D01*
X109897834Y-105505967D01*
X109897830Y-105505965D01*
X109845500Y-105481563D01*
X109683663Y-105406097D01*
X109683659Y-105406096D01*
X109683655Y-105406094D01*
X109455413Y-105344938D01*
X109455403Y-105344936D01*
X109220001Y-105324341D01*
X109219999Y-105324341D01*
X108984596Y-105344936D01*
X108984586Y-105344938D01*
X108756344Y-105406094D01*
X108756335Y-105406098D01*
X108542171Y-105505964D01*
X108542169Y-105505965D01*
X108348597Y-105641505D01*
X108181505Y-105808597D01*
X108051575Y-105994158D01*
X107996998Y-106037783D01*
X107927500Y-106044977D01*
X107865145Y-106013454D01*
X107848425Y-105994158D01*
X107718494Y-105808597D01*
X107551402Y-105641506D01*
X107551395Y-105641501D01*
X107357834Y-105505967D01*
X107357830Y-105505965D01*
X107305500Y-105481563D01*
X107143663Y-105406097D01*
X107143659Y-105406096D01*
X107143655Y-105406094D01*
X106915413Y-105344938D01*
X106915403Y-105344936D01*
X106680001Y-105324341D01*
X106679999Y-105324341D01*
X106444596Y-105344936D01*
X106444586Y-105344938D01*
X106216344Y-105406094D01*
X106216335Y-105406098D01*
X106002171Y-105505964D01*
X106002169Y-105505965D01*
X105808600Y-105641503D01*
X105686673Y-105763430D01*
X105625350Y-105796914D01*
X105555658Y-105791930D01*
X105499725Y-105750058D01*
X105482810Y-105719081D01*
X105433797Y-105587671D01*
X105433793Y-105587664D01*
X105347547Y-105472455D01*
X105347544Y-105472452D01*
X105232335Y-105386206D01*
X105232328Y-105386202D01*
X105097482Y-105335908D01*
X105097483Y-105335908D01*
X105037883Y-105329501D01*
X105037881Y-105329500D01*
X105037873Y-105329500D01*
X105037864Y-105329500D01*
X103242129Y-105329500D01*
X103242123Y-105329501D01*
X103182516Y-105335908D01*
X103047671Y-105386202D01*
X103047664Y-105386206D01*
X102932455Y-105472452D01*
X102932452Y-105472455D01*
X102846206Y-105587664D01*
X102846202Y-105587671D01*
X102795908Y-105722517D01*
X102789501Y-105782116D01*
X102789500Y-105782135D01*
X102789500Y-107577870D01*
X85076720Y-107577870D01*
X90392772Y-102261819D01*
X90454095Y-102228334D01*
X90480453Y-102225500D01*
X112326252Y-102225500D01*
X112393291Y-102245185D01*
X112418400Y-102266526D01*
X112424126Y-102272885D01*
X112424130Y-102272889D01*
X112577265Y-102384148D01*
X112577270Y-102384151D01*
X112750192Y-102461142D01*
X112750197Y-102461144D01*
X112935354Y-102500500D01*
X112935355Y-102500500D01*
X113124644Y-102500500D01*
X113124646Y-102500500D01*
X113309803Y-102461144D01*
X113482730Y-102384151D01*
X113635871Y-102272888D01*
X113762533Y-102132216D01*
X113857179Y-101968284D01*
X113915674Y-101788256D01*
X113935460Y-101600000D01*
X113915674Y-101411744D01*
X113857179Y-101231716D01*
X113762533Y-101067784D01*
X113635871Y-100927112D01*
X113635870Y-100927111D01*
X113482734Y-100815851D01*
X113482729Y-100815848D01*
X113309807Y-100738857D01*
X113309802Y-100738855D01*
X113164001Y-100707865D01*
X113124646Y-100699500D01*
X112935354Y-100699500D01*
X112902897Y-100706398D01*
X112750197Y-100738855D01*
X112750192Y-100738857D01*
X112577270Y-100815848D01*
X112577265Y-100815851D01*
X112424130Y-100927110D01*
X112424126Y-100927114D01*
X112418400Y-100933474D01*
X112358913Y-100970121D01*
X112326252Y-100974500D01*
X90252737Y-100974500D01*
X90237120Y-100972776D01*
X90237093Y-100973062D01*
X90229331Y-100972327D01*
X90160203Y-100974500D01*
X90130650Y-100974500D01*
X90129929Y-100974590D01*
X90123757Y-100975369D01*
X90117945Y-100975826D01*
X90071372Y-100977290D01*
X90071369Y-100977291D01*
X90052126Y-100982881D01*
X90033083Y-100986825D01*
X90013204Y-100989336D01*
X90013203Y-100989337D01*
X89969878Y-101006490D01*
X89964352Y-101008382D01*
X89919608Y-101021383D01*
X89919604Y-101021385D01*
X89902365Y-101031580D01*
X89884898Y-101040137D01*
X89866269Y-101047512D01*
X89866267Y-101047513D01*
X89828564Y-101074906D01*
X89823682Y-101078112D01*
X89783580Y-101101828D01*
X89769408Y-101116000D01*
X89754623Y-101128628D01*
X89738412Y-101140407D01*
X89708709Y-101176310D01*
X89704777Y-101180631D01*
X76252228Y-114633181D01*
X76190905Y-114666666D01*
X76164547Y-114669500D01*
X76105354Y-114669500D01*
X76088568Y-114673068D01*
X75920197Y-114708855D01*
X75920192Y-114708857D01*
X75747270Y-114785848D01*
X75747265Y-114785851D01*
X75594129Y-114897111D01*
X75467466Y-115037785D01*
X75372821Y-115201715D01*
X75372818Y-115201722D01*
X75314327Y-115381740D01*
X75314326Y-115381744D01*
X75294540Y-115570000D01*
X66040500Y-115570000D01*
X66040500Y-70582035D01*
X66040633Y-70577980D01*
X66042393Y-70551103D01*
X66045989Y-70496244D01*
X66058986Y-70314536D01*
X66060014Y-70306903D01*
X66083153Y-70190579D01*
X66084118Y-70186141D01*
X66114533Y-70046323D01*
X66116392Y-70039625D01*
X66156815Y-69920543D01*
X66206159Y-69788251D01*
X66208633Y-69782520D01*
X66265583Y-69667036D01*
X66332179Y-69545076D01*
X66335019Y-69540384D01*
X66406563Y-69433311D01*
X66408428Y-69430676D01*
X66490291Y-69321321D01*
X66493244Y-69317678D01*
X66578503Y-69220459D01*
X66581198Y-69217581D01*
X66677581Y-69121198D01*
X66680459Y-69118503D01*
X66777678Y-69033244D01*
X66781321Y-69030291D01*
X66890676Y-68948428D01*
X66893311Y-68946563D01*
X67000384Y-68875019D01*
X67005076Y-68872179D01*
X67127036Y-68805583D01*
X67242520Y-68748633D01*
X67248251Y-68746159D01*
X67380543Y-68696815D01*
X67499625Y-68656392D01*
X67506323Y-68654533D01*
X67650579Y-68623153D01*
X67656728Y-68621929D01*
X67766903Y-68600014D01*
X67774536Y-68598986D01*
X67956244Y-68585989D01*
X68009211Y-68582517D01*
X68037981Y-68580633D01*
X68042036Y-68580500D01*
X191037964Y-68580500D01*
X191042019Y-68580633D01*
G37*
%TD.AperFunction*%
%TD*%
M02*
