%TF.GenerationSoftware,KiCad,Pcbnew,7.0.9*%
%TF.CreationDate,2023-12-22T14:46:20+09:00*%
%TF.ProjectId,Dev_IO_Board,4465765f-494f-45f4-926f-6172642e6b69,1.0.0*%
%TF.SameCoordinates,Original*%
%TF.FileFunction,Drillmap*%
%TF.FilePolarity,Positive*%
%FSLAX45Y45*%
G04 Gerber Fmt 4.5, Leading zero omitted, Abs format (unit mm)*
G04 Created by KiCad (PCBNEW 7.0.9) date 2023-12-22 14:46:20*
%MOMM*%
%LPD*%
G01*
G04 APERTURE LIST*
%ADD10C,0.100000*%
%ADD11C,0.200000*%
G04 APERTURE END LIST*
D10*
X8372500Y-14198595D02*
X8372500Y-5835595D01*
X20872500Y-14398600D02*
G75*
G03*
X21072500Y-14198595I0J200000D01*
G01*
X20872500Y-14398595D02*
X8572500Y-14398595D01*
X8572500Y-5635590D02*
G75*
G03*
X8372500Y-5835595I0J-200000D01*
G01*
X21072495Y-5835595D02*
G75*
G03*
X20872500Y-5635595I-199995J5D01*
G01*
X8572500Y-5635595D02*
X20872500Y-5635595D01*
X8372505Y-14198595D02*
G75*
G03*
X8572500Y-14398595I199995J-5D01*
G01*
X21072500Y-5835595D02*
X21072500Y-14198595D01*
D11*
X8628277Y-14715079D02*
X8628277Y-14515079D01*
X8628277Y-14515079D02*
X8675896Y-14515079D01*
X8675896Y-14515079D02*
X8704467Y-14524603D01*
X8704467Y-14524603D02*
X8723515Y-14543650D01*
X8723515Y-14543650D02*
X8733039Y-14562698D01*
X8733039Y-14562698D02*
X8742563Y-14600793D01*
X8742563Y-14600793D02*
X8742563Y-14629365D01*
X8742563Y-14629365D02*
X8733039Y-14667460D01*
X8733039Y-14667460D02*
X8723515Y-14686507D01*
X8723515Y-14686507D02*
X8704467Y-14705555D01*
X8704467Y-14705555D02*
X8675896Y-14715079D01*
X8675896Y-14715079D02*
X8628277Y-14715079D01*
X8828277Y-14715079D02*
X8828277Y-14581745D01*
X8828277Y-14619841D02*
X8837801Y-14600793D01*
X8837801Y-14600793D02*
X8847324Y-14591269D01*
X8847324Y-14591269D02*
X8866372Y-14581745D01*
X8866372Y-14581745D02*
X8885420Y-14581745D01*
X8952086Y-14715079D02*
X8952086Y-14581745D01*
X8952086Y-14515079D02*
X8942563Y-14524603D01*
X8942563Y-14524603D02*
X8952086Y-14534126D01*
X8952086Y-14534126D02*
X8961610Y-14524603D01*
X8961610Y-14524603D02*
X8952086Y-14515079D01*
X8952086Y-14515079D02*
X8952086Y-14534126D01*
X9075896Y-14715079D02*
X9056848Y-14705555D01*
X9056848Y-14705555D02*
X9047324Y-14686507D01*
X9047324Y-14686507D02*
X9047324Y-14515079D01*
X9180658Y-14715079D02*
X9161610Y-14705555D01*
X9161610Y-14705555D02*
X9152086Y-14686507D01*
X9152086Y-14686507D02*
X9152086Y-14515079D01*
X9409229Y-14715079D02*
X9409229Y-14515079D01*
X9409229Y-14515079D02*
X9475896Y-14657936D01*
X9475896Y-14657936D02*
X9542563Y-14515079D01*
X9542563Y-14515079D02*
X9542563Y-14715079D01*
X9723515Y-14715079D02*
X9723515Y-14610317D01*
X9723515Y-14610317D02*
X9713991Y-14591269D01*
X9713991Y-14591269D02*
X9694944Y-14581745D01*
X9694944Y-14581745D02*
X9656848Y-14581745D01*
X9656848Y-14581745D02*
X9637801Y-14591269D01*
X9723515Y-14705555D02*
X9704467Y-14715079D01*
X9704467Y-14715079D02*
X9656848Y-14715079D01*
X9656848Y-14715079D02*
X9637801Y-14705555D01*
X9637801Y-14705555D02*
X9628277Y-14686507D01*
X9628277Y-14686507D02*
X9628277Y-14667460D01*
X9628277Y-14667460D02*
X9637801Y-14648412D01*
X9637801Y-14648412D02*
X9656848Y-14638888D01*
X9656848Y-14638888D02*
X9704467Y-14638888D01*
X9704467Y-14638888D02*
X9723515Y-14629365D01*
X9818753Y-14581745D02*
X9818753Y-14781745D01*
X9818753Y-14591269D02*
X9837801Y-14581745D01*
X9837801Y-14581745D02*
X9875896Y-14581745D01*
X9875896Y-14581745D02*
X9894944Y-14591269D01*
X9894944Y-14591269D02*
X9904467Y-14600793D01*
X9904467Y-14600793D02*
X9913991Y-14619841D01*
X9913991Y-14619841D02*
X9913991Y-14676984D01*
X9913991Y-14676984D02*
X9904467Y-14696031D01*
X9904467Y-14696031D02*
X9894944Y-14705555D01*
X9894944Y-14705555D02*
X9875896Y-14715079D01*
X9875896Y-14715079D02*
X9837801Y-14715079D01*
X9837801Y-14715079D02*
X9818753Y-14705555D01*
X9999705Y-14696031D02*
X10009229Y-14705555D01*
X10009229Y-14705555D02*
X9999705Y-14715079D01*
X9999705Y-14715079D02*
X9990182Y-14705555D01*
X9990182Y-14705555D02*
X9999705Y-14696031D01*
X9999705Y-14696031D02*
X9999705Y-14715079D01*
X9999705Y-14591269D02*
X10009229Y-14600793D01*
X10009229Y-14600793D02*
X9999705Y-14610317D01*
X9999705Y-14610317D02*
X9990182Y-14600793D01*
X9990182Y-14600793D02*
X9999705Y-14591269D01*
X9999705Y-14591269D02*
X9999705Y-14610317D01*
M02*
