%TF.GenerationSoftware,KiCad,Pcbnew,7.0.9*%
%TF.CreationDate,2023-12-22T14:46:20+09:00*%
%TF.ProjectId,Dev_IO_Board,4465765f-494f-45f4-926f-6172642e6b69,1.0.0*%
%TF.SameCoordinates,Original*%
%TF.FileFunction,Drillmap*%
%TF.FilePolarity,Positive*%
%FSLAX45Y45*%
G04 Gerber Fmt 4.5, Leading zero omitted, Abs format (unit mm)*
G04 Created by KiCad (PCBNEW 7.0.9) date 2023-12-22 14:46:20*
%MOMM*%
%LPD*%
G01*
G04 APERTURE LIST*
%ADD10C,0.100000*%
%ADD11C,0.200000*%
%ADD12C,0.277000*%
G04 APERTURE END LIST*
D10*
X8372500Y-14198595D02*
X8372500Y-5835595D01*
X20872500Y-14398600D02*
G75*
G03*
X21072500Y-14198595I0J200000D01*
G01*
X20872500Y-14398595D02*
X8572500Y-14398595D01*
X8572500Y-5635590D02*
G75*
G03*
X8372500Y-5835595I0J-200000D01*
G01*
X21072495Y-5835595D02*
G75*
G03*
X20872500Y-5635595I-199995J5D01*
G01*
X8572500Y-5635595D02*
X20872500Y-5635595D01*
X8372505Y-14198595D02*
G75*
G03*
X8572500Y-14398595I199995J-5D01*
G01*
X21072500Y-5835595D02*
X21072500Y-14198595D01*
D11*
D10*
X9368500Y-10314595D02*
X9408500Y-10354595D01*
X9408500Y-10314595D02*
X9368500Y-10354595D01*
X9495500Y-10949595D02*
X9535500Y-10989595D01*
X9535500Y-10949595D02*
X9495500Y-10989595D01*
X9749500Y-12600595D02*
X9789500Y-12640595D01*
X9789500Y-12600595D02*
X9749500Y-12640595D01*
X10384500Y-10949595D02*
X10424500Y-10989595D01*
X10424500Y-10949595D02*
X10384500Y-10989595D01*
X10892500Y-12600595D02*
X10932500Y-12640595D01*
X10932500Y-12600595D02*
X10892500Y-12640595D01*
X11400500Y-10949595D02*
X11440500Y-10989595D01*
X11440500Y-10949595D02*
X11400500Y-10989595D01*
X11654500Y-13743595D02*
X11694500Y-13783595D01*
X11694500Y-13743595D02*
X11654500Y-13783595D01*
X11908500Y-12600595D02*
X11948500Y-12640595D01*
X11948500Y-12600595D02*
X11908500Y-12640595D01*
X12162500Y-7901595D02*
X12202500Y-7941595D01*
X12202500Y-7901595D02*
X12162500Y-7941595D01*
X12162500Y-10187595D02*
X12202500Y-10227595D01*
X12202500Y-10187595D02*
X12162500Y-10227595D01*
X12289500Y-10949595D02*
X12329500Y-10989595D01*
X12329500Y-10949595D02*
X12289500Y-10989595D01*
X12416500Y-7774595D02*
X12456500Y-7814595D01*
X12456500Y-7774595D02*
X12416500Y-7814595D01*
X12543500Y-10695595D02*
X12583500Y-10735595D01*
X12583500Y-10695595D02*
X12543500Y-10735595D01*
X12670500Y-7774595D02*
X12710500Y-7814595D01*
X12710500Y-7774595D02*
X12670500Y-7814595D01*
X12924500Y-12600595D02*
X12964500Y-12640595D01*
X12964500Y-12600595D02*
X12924500Y-12640595D01*
X13051500Y-8917595D02*
X13091500Y-8957595D01*
X13091500Y-8917595D02*
X13051500Y-8957595D01*
X13178500Y-7520595D02*
X13218500Y-7560595D01*
X13218500Y-7520595D02*
X13178500Y-7560595D01*
X13178500Y-7774595D02*
X13218500Y-7814595D01*
X13218500Y-7774595D02*
X13178500Y-7814595D01*
X13178500Y-10314595D02*
X13218500Y-10354595D01*
X13218500Y-10314595D02*
X13178500Y-10354595D01*
X13305500Y-10949595D02*
X13345500Y-10989595D01*
X13345500Y-10949595D02*
X13305500Y-10989595D01*
X13686500Y-10822595D02*
X13726500Y-10862595D01*
X13726500Y-10822595D02*
X13686500Y-10862595D01*
X13940500Y-10187595D02*
X13980500Y-10227595D01*
X13980500Y-10187595D02*
X13940500Y-10227595D01*
X13940500Y-12600595D02*
X13980500Y-12640595D01*
X13980500Y-12600595D02*
X13940500Y-12640595D01*
X14194500Y-10949595D02*
X14234500Y-10989595D01*
X14234500Y-10949595D02*
X14194500Y-10989595D01*
X14829500Y-12600595D02*
X14869500Y-12640595D01*
X14869500Y-12600595D02*
X14829500Y-12640595D01*
X14956500Y-7393595D02*
X14996500Y-7433595D01*
X14996500Y-7393595D02*
X14956500Y-7433595D01*
X14956500Y-7647595D02*
X14996500Y-7687595D01*
X14996500Y-7647595D02*
X14956500Y-7687595D01*
X14956500Y-10441595D02*
X14996500Y-10481595D01*
X14996500Y-10441595D02*
X14956500Y-10481595D01*
X15083500Y-11457595D02*
X15123500Y-11497595D01*
X15123500Y-11457595D02*
X15083500Y-11497595D01*
X15591500Y-11457595D02*
X15631500Y-11497595D01*
X15631500Y-11457595D02*
X15591500Y-11497595D01*
X15845500Y-10187595D02*
X15885500Y-10227595D01*
X15885500Y-10187595D02*
X15845500Y-10227595D01*
X15845500Y-12600595D02*
X15885500Y-12640595D01*
X15885500Y-12600595D02*
X15845500Y-12640595D01*
X15972500Y-7774595D02*
X16012500Y-7814595D01*
X16012500Y-7774595D02*
X15972500Y-7814595D01*
X16226500Y-7901595D02*
X16266500Y-7941595D01*
X16266500Y-7901595D02*
X16226500Y-7941595D01*
X16353500Y-10949595D02*
X16393500Y-10989595D01*
X16393500Y-10949595D02*
X16353500Y-10989595D01*
X16480500Y-8028595D02*
X16520500Y-8068595D01*
X16520500Y-8028595D02*
X16480500Y-8068595D01*
X17877500Y-10949595D02*
X17917500Y-10989595D01*
X17917500Y-10949595D02*
X17877500Y-10989595D01*
X18004500Y-10695595D02*
X18044500Y-10735595D01*
X18044500Y-10695595D02*
X18004500Y-10735595D01*
X18068000Y-10378095D02*
X18108000Y-10418095D01*
X18108000Y-10378095D02*
X18068000Y-10418095D01*
X18385500Y-10441595D02*
X18425500Y-10481595D01*
X18425500Y-10441595D02*
X18385500Y-10481595D01*
X18512500Y-11457595D02*
X18552500Y-11497595D01*
X18552500Y-11457595D02*
X18512500Y-11497595D01*
X18509000Y-8607845D02*
G75*
G03*
X18509000Y-8607845I-40000J0D01*
G01*
X18509000Y-10131845D02*
G75*
G03*
X18509000Y-10131845I-40000J0D01*
G01*
X18636000Y-6143095D02*
G75*
G03*
X18636000Y-6143095I-40000J0D01*
G01*
X18636000Y-6397095D02*
G75*
G03*
X18636000Y-6397095I-40000J0D01*
G01*
X18636000Y-6651095D02*
G75*
G03*
X18636000Y-6651095I-40000J0D01*
G01*
X18636000Y-6905095D02*
G75*
G03*
X18636000Y-6905095I-40000J0D01*
G01*
X18636000Y-7159095D02*
G75*
G03*
X18636000Y-7159095I-40000J0D01*
G01*
X18636000Y-7413095D02*
G75*
G03*
X18636000Y-7413095I-40000J0D01*
G01*
X18636000Y-7667095D02*
G75*
G03*
X18636000Y-7667095I-40000J0D01*
G01*
X18763000Y-8607845D02*
G75*
G03*
X18763000Y-8607845I-40000J0D01*
G01*
X18763000Y-10131845D02*
G75*
G03*
X18763000Y-10131845I-40000J0D01*
G01*
X19017000Y-8607845D02*
G75*
G03*
X19017000Y-8607845I-40000J0D01*
G01*
X19017000Y-10131845D02*
G75*
G03*
X19017000Y-10131845I-40000J0D01*
G01*
X19271000Y-8607845D02*
G75*
G03*
X19271000Y-8607845I-40000J0D01*
G01*
X19271000Y-10131845D02*
G75*
G03*
X19271000Y-10131845I-40000J0D01*
G01*
X19398000Y-6143095D02*
G75*
G03*
X19398000Y-6143095I-40000J0D01*
G01*
X19398000Y-6397095D02*
G75*
G03*
X19398000Y-6397095I-40000J0D01*
G01*
X19398000Y-6651095D02*
G75*
G03*
X19398000Y-6651095I-40000J0D01*
G01*
X19398000Y-6905095D02*
G75*
G03*
X19398000Y-6905095I-40000J0D01*
G01*
X19398000Y-7159095D02*
G75*
G03*
X19398000Y-7159095I-40000J0D01*
G01*
X19398000Y-7413095D02*
G75*
G03*
X19398000Y-7413095I-40000J0D01*
G01*
X19398000Y-7667095D02*
G75*
G03*
X19398000Y-7667095I-40000J0D01*
G01*
X19525000Y-8607845D02*
G75*
G03*
X19525000Y-8607845I-40000J0D01*
G01*
X19525000Y-10131845D02*
G75*
G03*
X19525000Y-10131845I-40000J0D01*
G01*
X19906000Y-8607845D02*
G75*
G03*
X19906000Y-8607845I-40000J0D01*
G01*
X19906000Y-10131845D02*
G75*
G03*
X19906000Y-10131845I-40000J0D01*
G01*
X20034000Y-6143095D02*
G75*
G03*
X20034000Y-6143095I-40000J0D01*
G01*
X20034000Y-6397095D02*
G75*
G03*
X20034000Y-6397095I-40000J0D01*
G01*
X20034000Y-6651095D02*
G75*
G03*
X20034000Y-6651095I-40000J0D01*
G01*
X20034000Y-6905095D02*
G75*
G03*
X20034000Y-6905095I-40000J0D01*
G01*
X20034000Y-7159095D02*
G75*
G03*
X20034000Y-7159095I-40000J0D01*
G01*
X20034000Y-7413095D02*
G75*
G03*
X20034000Y-7413095I-40000J0D01*
G01*
X20034000Y-7667095D02*
G75*
G03*
X20034000Y-7667095I-40000J0D01*
G01*
X20160000Y-8607845D02*
G75*
G03*
X20160000Y-8607845I-40000J0D01*
G01*
X20160000Y-10131845D02*
G75*
G03*
X20160000Y-10131845I-40000J0D01*
G01*
X20414000Y-8607845D02*
G75*
G03*
X20414000Y-8607845I-40000J0D01*
G01*
X20414000Y-10131845D02*
G75*
G03*
X20414000Y-10131845I-40000J0D01*
G01*
X20668000Y-8607845D02*
G75*
G03*
X20668000Y-8607845I-40000J0D01*
G01*
X20668000Y-10131845D02*
G75*
G03*
X20668000Y-10131845I-40000J0D01*
G01*
X20796000Y-6143095D02*
G75*
G03*
X20796000Y-6143095I-40000J0D01*
G01*
X20796000Y-6397095D02*
G75*
G03*
X20796000Y-6397095I-40000J0D01*
G01*
X20796000Y-6651095D02*
G75*
G03*
X20796000Y-6651095I-40000J0D01*
G01*
X20796000Y-6905095D02*
G75*
G03*
X20796000Y-6905095I-40000J0D01*
G01*
X20796000Y-7159095D02*
G75*
G03*
X20796000Y-7159095I-40000J0D01*
G01*
X20796000Y-7413095D02*
G75*
G03*
X20796000Y-7413095I-40000J0D01*
G01*
X20796000Y-7667095D02*
G75*
G03*
X20796000Y-7667095I-40000J0D01*
G01*
X20922000Y-8607845D02*
G75*
G03*
X20922000Y-8607845I-40000J0D01*
G01*
X20922000Y-10131845D02*
G75*
G03*
X20922000Y-10131845I-40000J0D01*
G01*
X12182500Y-6220595D02*
X12182500Y-6320595D01*
X12132500Y-6270595D02*
X12232500Y-6270595D01*
X12182500Y-9395595D02*
X12182500Y-9495595D01*
X12132500Y-9445595D02*
X12232500Y-9445595D01*
X12436500Y-6220595D02*
X12436500Y-6320595D01*
X12386500Y-6270595D02*
X12486500Y-6270595D01*
X12436500Y-9395595D02*
X12436500Y-9495595D01*
X12386500Y-9445595D02*
X12486500Y-9445595D01*
X12690500Y-6220595D02*
X12690500Y-6320595D01*
X12640500Y-6270595D02*
X12740500Y-6270595D01*
X12690500Y-9395595D02*
X12690500Y-9495595D01*
X12640500Y-9445595D02*
X12740500Y-9445595D01*
X12944500Y-6220595D02*
X12944500Y-6320595D01*
X12894500Y-6270595D02*
X12994500Y-6270595D01*
X12944500Y-9395595D02*
X12944500Y-9495595D01*
X12894500Y-9445595D02*
X12994500Y-9445595D01*
X13198500Y-6220595D02*
X13198500Y-6320595D01*
X13148500Y-6270595D02*
X13248500Y-6270595D01*
X13198500Y-9395595D02*
X13198500Y-9495595D01*
X13148500Y-9445595D02*
X13248500Y-9445595D01*
X13452500Y-6220595D02*
X13452500Y-6320595D01*
X13402500Y-6270595D02*
X13502500Y-6270595D01*
X13452500Y-9395595D02*
X13452500Y-9495595D01*
X13402500Y-9445595D02*
X13502500Y-9445595D01*
X13706500Y-6220595D02*
X13706500Y-6320595D01*
X13656500Y-6270595D02*
X13756500Y-6270595D01*
X13706500Y-9395595D02*
X13706500Y-9495595D01*
X13656500Y-9445595D02*
X13756500Y-9445595D01*
X13960500Y-6220595D02*
X13960500Y-6320595D01*
X13910500Y-6270595D02*
X14010500Y-6270595D01*
X13960500Y-9395595D02*
X13960500Y-9495595D01*
X13910500Y-9445595D02*
X14010500Y-9445595D01*
X14214500Y-6220595D02*
X14214500Y-6320595D01*
X14164500Y-6270595D02*
X14264500Y-6270595D01*
X14214500Y-9395595D02*
X14214500Y-9495595D01*
X14164500Y-9445595D02*
X14264500Y-9445595D01*
X14468500Y-6220595D02*
X14468500Y-6320595D01*
X14418500Y-6270595D02*
X14518500Y-6270595D01*
X14468500Y-9395595D02*
X14468500Y-9495595D01*
X14418500Y-9445595D02*
X14518500Y-9445595D01*
X14722500Y-6220595D02*
X14722500Y-6320595D01*
X14672500Y-6270595D02*
X14772500Y-6270595D01*
X14722500Y-9395595D02*
X14722500Y-9495595D01*
X14672500Y-9445595D02*
X14772500Y-9445595D01*
X14976500Y-6220595D02*
X14976500Y-6320595D01*
X14926500Y-6270595D02*
X15026500Y-6270595D01*
X14976500Y-9395595D02*
X14976500Y-9495595D01*
X14926500Y-9445595D02*
X15026500Y-9445595D01*
X15230500Y-6220595D02*
X15230500Y-6320595D01*
X15180500Y-6270595D02*
X15280500Y-6270595D01*
X15230500Y-9395595D02*
X15230500Y-9495595D01*
X15180500Y-9445595D02*
X15280500Y-9445595D01*
X15484500Y-6220595D02*
X15484500Y-6320595D01*
X15434500Y-6270595D02*
X15534500Y-6270595D01*
X15484500Y-9395595D02*
X15484500Y-9495595D01*
X15434500Y-9445595D02*
X15534500Y-9445595D01*
X15738500Y-6220595D02*
X15738500Y-6320595D01*
X15688500Y-6270595D02*
X15788500Y-6270595D01*
X15738500Y-9395595D02*
X15738500Y-9495595D01*
X15688500Y-9445595D02*
X15788500Y-9445595D01*
X15992500Y-6220595D02*
X15992500Y-6320595D01*
X15942500Y-6270595D02*
X16042500Y-6270595D01*
X15992500Y-9395595D02*
X15992500Y-9495595D01*
X15942500Y-9445595D02*
X16042500Y-9445595D01*
X16246500Y-6220595D02*
X16246500Y-6320595D01*
X16196500Y-6270595D02*
X16296500Y-6270595D01*
X16246500Y-9395595D02*
X16246500Y-9495595D01*
X16196500Y-9445595D02*
X16296500Y-9445595D01*
X16500500Y-6220595D02*
X16500500Y-6320595D01*
X16450500Y-6270595D02*
X16550500Y-6270595D01*
X16500500Y-9395595D02*
X16500500Y-9495595D01*
X16450500Y-9445595D02*
X16550500Y-9445595D01*
X16754500Y-6220595D02*
X16754500Y-6320595D01*
X16704500Y-6270595D02*
X16804500Y-6270595D01*
X16754500Y-9395595D02*
X16754500Y-9495595D01*
X16704500Y-9445595D02*
X16804500Y-9445595D01*
X17008500Y-6220595D02*
X17008500Y-6320595D01*
X16958500Y-6270595D02*
X17058500Y-6270595D01*
X17008500Y-9395595D02*
X17008500Y-9495595D01*
X16958500Y-9445595D02*
X17058500Y-9445595D01*
X17778500Y-13967595D02*
X17778500Y-14067595D01*
X17728500Y-14017595D02*
X17828500Y-14017595D01*
X18028500Y-13967595D02*
X18028500Y-14067595D01*
X17978500Y-14017595D02*
X18078500Y-14017595D01*
X18278500Y-13967595D02*
X18278500Y-14067595D01*
X18228500Y-14017595D02*
X18328500Y-14017595D01*
X19802500Y-13205595D02*
X19802500Y-13305595D01*
X19752500Y-13255595D02*
X19852500Y-13255595D01*
X20302500Y-13205595D02*
X20302500Y-13305595D01*
X20252500Y-13255595D02*
X20352500Y-13255595D01*
D12*
X17686435Y-13415530D02*
X17686435Y-13219660D01*
X17490565Y-13219660D01*
X17490565Y-13415530D01*
X17686435Y-13415530D01*
X18566435Y-13415530D02*
X18566435Y-13219660D01*
X18370565Y-13219660D01*
X18370565Y-13415530D01*
X18566435Y-13415530D01*
D11*
X8628277Y-14715079D02*
X8628277Y-14515079D01*
X8628277Y-14515079D02*
X8675896Y-14515079D01*
X8675896Y-14515079D02*
X8704467Y-14524603D01*
X8704467Y-14524603D02*
X8723515Y-14543650D01*
X8723515Y-14543650D02*
X8733039Y-14562698D01*
X8733039Y-14562698D02*
X8742563Y-14600793D01*
X8742563Y-14600793D02*
X8742563Y-14629365D01*
X8742563Y-14629365D02*
X8733039Y-14667460D01*
X8733039Y-14667460D02*
X8723515Y-14686507D01*
X8723515Y-14686507D02*
X8704467Y-14705555D01*
X8704467Y-14705555D02*
X8675896Y-14715079D01*
X8675896Y-14715079D02*
X8628277Y-14715079D01*
X8828277Y-14715079D02*
X8828277Y-14581745D01*
X8828277Y-14619841D02*
X8837801Y-14600793D01*
X8837801Y-14600793D02*
X8847324Y-14591269D01*
X8847324Y-14591269D02*
X8866372Y-14581745D01*
X8866372Y-14581745D02*
X8885420Y-14581745D01*
X8952086Y-14715079D02*
X8952086Y-14581745D01*
X8952086Y-14515079D02*
X8942563Y-14524603D01*
X8942563Y-14524603D02*
X8952086Y-14534126D01*
X8952086Y-14534126D02*
X8961610Y-14524603D01*
X8961610Y-14524603D02*
X8952086Y-14515079D01*
X8952086Y-14515079D02*
X8952086Y-14534126D01*
X9075896Y-14715079D02*
X9056848Y-14705555D01*
X9056848Y-14705555D02*
X9047324Y-14686507D01*
X9047324Y-14686507D02*
X9047324Y-14515079D01*
X9180658Y-14715079D02*
X9161610Y-14705555D01*
X9161610Y-14705555D02*
X9152086Y-14686507D01*
X9152086Y-14686507D02*
X9152086Y-14515079D01*
X9409229Y-14715079D02*
X9409229Y-14515079D01*
X9409229Y-14515079D02*
X9475896Y-14657936D01*
X9475896Y-14657936D02*
X9542563Y-14515079D01*
X9542563Y-14515079D02*
X9542563Y-14715079D01*
X9723515Y-14715079D02*
X9723515Y-14610317D01*
X9723515Y-14610317D02*
X9713991Y-14591269D01*
X9713991Y-14591269D02*
X9694944Y-14581745D01*
X9694944Y-14581745D02*
X9656848Y-14581745D01*
X9656848Y-14581745D02*
X9637801Y-14591269D01*
X9723515Y-14705555D02*
X9704467Y-14715079D01*
X9704467Y-14715079D02*
X9656848Y-14715079D01*
X9656848Y-14715079D02*
X9637801Y-14705555D01*
X9637801Y-14705555D02*
X9628277Y-14686507D01*
X9628277Y-14686507D02*
X9628277Y-14667460D01*
X9628277Y-14667460D02*
X9637801Y-14648412D01*
X9637801Y-14648412D02*
X9656848Y-14638888D01*
X9656848Y-14638888D02*
X9704467Y-14638888D01*
X9704467Y-14638888D02*
X9723515Y-14629365D01*
X9818753Y-14581745D02*
X9818753Y-14781745D01*
X9818753Y-14591269D02*
X9837801Y-14581745D01*
X9837801Y-14581745D02*
X9875896Y-14581745D01*
X9875896Y-14581745D02*
X9894944Y-14591269D01*
X9894944Y-14591269D02*
X9904467Y-14600793D01*
X9904467Y-14600793D02*
X9913991Y-14619841D01*
X9913991Y-14619841D02*
X9913991Y-14676984D01*
X9913991Y-14676984D02*
X9904467Y-14696031D01*
X9904467Y-14696031D02*
X9894944Y-14705555D01*
X9894944Y-14705555D02*
X9875896Y-14715079D01*
X9875896Y-14715079D02*
X9837801Y-14715079D01*
X9837801Y-14715079D02*
X9818753Y-14705555D01*
X9999705Y-14696031D02*
X10009229Y-14705555D01*
X10009229Y-14705555D02*
X9999705Y-14715079D01*
X9999705Y-14715079D02*
X9990182Y-14705555D01*
X9990182Y-14705555D02*
X9999705Y-14696031D01*
X9999705Y-14696031D02*
X9999705Y-14715079D01*
X9999705Y-14591269D02*
X10009229Y-14600793D01*
X10009229Y-14600793D02*
X9999705Y-14610317D01*
X9999705Y-14610317D02*
X9990182Y-14600793D01*
X9990182Y-14600793D02*
X9999705Y-14591269D01*
X9999705Y-14591269D02*
X9999705Y-14610317D01*
D10*
X8327500Y-15023595D02*
X8367500Y-15063595D01*
X8367500Y-15023595D02*
X8327500Y-15063595D01*
D11*
X8666372Y-14935079D02*
X8685420Y-14935079D01*
X8685420Y-14935079D02*
X8704467Y-14944603D01*
X8704467Y-14944603D02*
X8713991Y-14954126D01*
X8713991Y-14954126D02*
X8723515Y-14973174D01*
X8723515Y-14973174D02*
X8733039Y-15011269D01*
X8733039Y-15011269D02*
X8733039Y-15058888D01*
X8733039Y-15058888D02*
X8723515Y-15096984D01*
X8723515Y-15096984D02*
X8713991Y-15116031D01*
X8713991Y-15116031D02*
X8704467Y-15125555D01*
X8704467Y-15125555D02*
X8685420Y-15135079D01*
X8685420Y-15135079D02*
X8666372Y-15135079D01*
X8666372Y-15135079D02*
X8647324Y-15125555D01*
X8647324Y-15125555D02*
X8637801Y-15116031D01*
X8637801Y-15116031D02*
X8628277Y-15096984D01*
X8628277Y-15096984D02*
X8618753Y-15058888D01*
X8618753Y-15058888D02*
X8618753Y-15011269D01*
X8618753Y-15011269D02*
X8628277Y-14973174D01*
X8628277Y-14973174D02*
X8637801Y-14954126D01*
X8637801Y-14954126D02*
X8647324Y-14944603D01*
X8647324Y-14944603D02*
X8666372Y-14935079D01*
X8818753Y-15116031D02*
X8828277Y-15125555D01*
X8828277Y-15125555D02*
X8818753Y-15135079D01*
X8818753Y-15135079D02*
X8809229Y-15125555D01*
X8809229Y-15125555D02*
X8818753Y-15116031D01*
X8818753Y-15116031D02*
X8818753Y-15135079D01*
X8999705Y-15001745D02*
X8999705Y-15135079D01*
X8952086Y-14925555D02*
X8904467Y-15068412D01*
X8904467Y-15068412D02*
X9028277Y-15068412D01*
X9142563Y-14935079D02*
X9161610Y-14935079D01*
X9161610Y-14935079D02*
X9180658Y-14944603D01*
X9180658Y-14944603D02*
X9190182Y-14954126D01*
X9190182Y-14954126D02*
X9199705Y-14973174D01*
X9199705Y-14973174D02*
X9209229Y-15011269D01*
X9209229Y-15011269D02*
X9209229Y-15058888D01*
X9209229Y-15058888D02*
X9199705Y-15096984D01*
X9199705Y-15096984D02*
X9190182Y-15116031D01*
X9190182Y-15116031D02*
X9180658Y-15125555D01*
X9180658Y-15125555D02*
X9161610Y-15135079D01*
X9161610Y-15135079D02*
X9142563Y-15135079D01*
X9142563Y-15135079D02*
X9123515Y-15125555D01*
X9123515Y-15125555D02*
X9113991Y-15116031D01*
X9113991Y-15116031D02*
X9104467Y-15096984D01*
X9104467Y-15096984D02*
X9094944Y-15058888D01*
X9094944Y-15058888D02*
X9094944Y-15011269D01*
X9094944Y-15011269D02*
X9104467Y-14973174D01*
X9104467Y-14973174D02*
X9113991Y-14954126D01*
X9113991Y-14954126D02*
X9123515Y-14944603D01*
X9123515Y-14944603D02*
X9142563Y-14935079D01*
X9333039Y-14935079D02*
X9352086Y-14935079D01*
X9352086Y-14935079D02*
X9371134Y-14944603D01*
X9371134Y-14944603D02*
X9380658Y-14954126D01*
X9380658Y-14954126D02*
X9390182Y-14973174D01*
X9390182Y-14973174D02*
X9399705Y-15011269D01*
X9399705Y-15011269D02*
X9399705Y-15058888D01*
X9399705Y-15058888D02*
X9390182Y-15096984D01*
X9390182Y-15096984D02*
X9380658Y-15116031D01*
X9380658Y-15116031D02*
X9371134Y-15125555D01*
X9371134Y-15125555D02*
X9352086Y-15135079D01*
X9352086Y-15135079D02*
X9333039Y-15135079D01*
X9333039Y-15135079D02*
X9313991Y-15125555D01*
X9313991Y-15125555D02*
X9304467Y-15116031D01*
X9304467Y-15116031D02*
X9294944Y-15096984D01*
X9294944Y-15096984D02*
X9285420Y-15058888D01*
X9285420Y-15058888D02*
X9285420Y-15011269D01*
X9285420Y-15011269D02*
X9294944Y-14973174D01*
X9294944Y-14973174D02*
X9304467Y-14954126D01*
X9304467Y-14954126D02*
X9313991Y-14944603D01*
X9313991Y-14944603D02*
X9333039Y-14935079D01*
X9485420Y-15135079D02*
X9485420Y-15001745D01*
X9485420Y-15020793D02*
X9494944Y-15011269D01*
X9494944Y-15011269D02*
X9513991Y-15001745D01*
X9513991Y-15001745D02*
X9542563Y-15001745D01*
X9542563Y-15001745D02*
X9561610Y-15011269D01*
X9561610Y-15011269D02*
X9571134Y-15030317D01*
X9571134Y-15030317D02*
X9571134Y-15135079D01*
X9571134Y-15030317D02*
X9580658Y-15011269D01*
X9580658Y-15011269D02*
X9599705Y-15001745D01*
X9599705Y-15001745D02*
X9628277Y-15001745D01*
X9628277Y-15001745D02*
X9647325Y-15011269D01*
X9647325Y-15011269D02*
X9656848Y-15030317D01*
X9656848Y-15030317D02*
X9656848Y-15135079D01*
X9752086Y-15135079D02*
X9752086Y-15001745D01*
X9752086Y-15020793D02*
X9761610Y-15011269D01*
X9761610Y-15011269D02*
X9780658Y-15001745D01*
X9780658Y-15001745D02*
X9809229Y-15001745D01*
X9809229Y-15001745D02*
X9828277Y-15011269D01*
X9828277Y-15011269D02*
X9837801Y-15030317D01*
X9837801Y-15030317D02*
X9837801Y-15135079D01*
X9837801Y-15030317D02*
X9847325Y-15011269D01*
X9847325Y-15011269D02*
X9866372Y-15001745D01*
X9866372Y-15001745D02*
X9894944Y-15001745D01*
X9894944Y-15001745D02*
X9913991Y-15011269D01*
X9913991Y-15011269D02*
X9923515Y-15030317D01*
X9923515Y-15030317D02*
X9923515Y-15135079D01*
X10313991Y-14925555D02*
X10142563Y-15182698D01*
X10571134Y-14935079D02*
X10590182Y-14935079D01*
X10590182Y-14935079D02*
X10609229Y-14944603D01*
X10609229Y-14944603D02*
X10618753Y-14954126D01*
X10618753Y-14954126D02*
X10628277Y-14973174D01*
X10628277Y-14973174D02*
X10637801Y-15011269D01*
X10637801Y-15011269D02*
X10637801Y-15058888D01*
X10637801Y-15058888D02*
X10628277Y-15096984D01*
X10628277Y-15096984D02*
X10618753Y-15116031D01*
X10618753Y-15116031D02*
X10609229Y-15125555D01*
X10609229Y-15125555D02*
X10590182Y-15135079D01*
X10590182Y-15135079D02*
X10571134Y-15135079D01*
X10571134Y-15135079D02*
X10552087Y-15125555D01*
X10552087Y-15125555D02*
X10542563Y-15116031D01*
X10542563Y-15116031D02*
X10533039Y-15096984D01*
X10533039Y-15096984D02*
X10523515Y-15058888D01*
X10523515Y-15058888D02*
X10523515Y-15011269D01*
X10523515Y-15011269D02*
X10533039Y-14973174D01*
X10533039Y-14973174D02*
X10542563Y-14954126D01*
X10542563Y-14954126D02*
X10552087Y-14944603D01*
X10552087Y-14944603D02*
X10571134Y-14935079D01*
X10723515Y-15116031D02*
X10733039Y-15125555D01*
X10733039Y-15125555D02*
X10723515Y-15135079D01*
X10723515Y-15135079D02*
X10713991Y-15125555D01*
X10713991Y-15125555D02*
X10723515Y-15116031D01*
X10723515Y-15116031D02*
X10723515Y-15135079D01*
X10856848Y-14935079D02*
X10875896Y-14935079D01*
X10875896Y-14935079D02*
X10894944Y-14944603D01*
X10894944Y-14944603D02*
X10904468Y-14954126D01*
X10904468Y-14954126D02*
X10913991Y-14973174D01*
X10913991Y-14973174D02*
X10923515Y-15011269D01*
X10923515Y-15011269D02*
X10923515Y-15058888D01*
X10923515Y-15058888D02*
X10913991Y-15096984D01*
X10913991Y-15096984D02*
X10904468Y-15116031D01*
X10904468Y-15116031D02*
X10894944Y-15125555D01*
X10894944Y-15125555D02*
X10875896Y-15135079D01*
X10875896Y-15135079D02*
X10856848Y-15135079D01*
X10856848Y-15135079D02*
X10837801Y-15125555D01*
X10837801Y-15125555D02*
X10828277Y-15116031D01*
X10828277Y-15116031D02*
X10818753Y-15096984D01*
X10818753Y-15096984D02*
X10809229Y-15058888D01*
X10809229Y-15058888D02*
X10809229Y-15011269D01*
X10809229Y-15011269D02*
X10818753Y-14973174D01*
X10818753Y-14973174D02*
X10828277Y-14954126D01*
X10828277Y-14954126D02*
X10837801Y-14944603D01*
X10837801Y-14944603D02*
X10856848Y-14935079D01*
X11113991Y-15135079D02*
X10999706Y-15135079D01*
X11056848Y-15135079D02*
X11056848Y-14935079D01*
X11056848Y-14935079D02*
X11037801Y-14963650D01*
X11037801Y-14963650D02*
X11018753Y-14982698D01*
X11018753Y-14982698D02*
X10999706Y-14992222D01*
X11294944Y-14935079D02*
X11199706Y-14935079D01*
X11199706Y-14935079D02*
X11190182Y-15030317D01*
X11190182Y-15030317D02*
X11199706Y-15020793D01*
X11199706Y-15020793D02*
X11218753Y-15011269D01*
X11218753Y-15011269D02*
X11266372Y-15011269D01*
X11266372Y-15011269D02*
X11285420Y-15020793D01*
X11285420Y-15020793D02*
X11294944Y-15030317D01*
X11294944Y-15030317D02*
X11304467Y-15049365D01*
X11304467Y-15049365D02*
X11304467Y-15096984D01*
X11304467Y-15096984D02*
X11294944Y-15116031D01*
X11294944Y-15116031D02*
X11285420Y-15125555D01*
X11285420Y-15125555D02*
X11266372Y-15135079D01*
X11266372Y-15135079D02*
X11218753Y-15135079D01*
X11218753Y-15135079D02*
X11199706Y-15125555D01*
X11199706Y-15125555D02*
X11190182Y-15116031D01*
X11371134Y-14935079D02*
X11504467Y-14935079D01*
X11504467Y-14935079D02*
X11418753Y-15135079D01*
X11571134Y-14935079D02*
X11571134Y-14973174D01*
X11647325Y-14935079D02*
X11647325Y-14973174D01*
X11942563Y-15211269D02*
X11933039Y-15201745D01*
X11933039Y-15201745D02*
X11913991Y-15173174D01*
X11913991Y-15173174D02*
X11904468Y-15154126D01*
X11904468Y-15154126D02*
X11894944Y-15125555D01*
X11894944Y-15125555D02*
X11885420Y-15077936D01*
X11885420Y-15077936D02*
X11885420Y-15039841D01*
X11885420Y-15039841D02*
X11894944Y-14992222D01*
X11894944Y-14992222D02*
X11904468Y-14963650D01*
X11904468Y-14963650D02*
X11913991Y-14944603D01*
X11913991Y-14944603D02*
X11933039Y-14916031D01*
X11933039Y-14916031D02*
X11942563Y-14906507D01*
X12104468Y-15001745D02*
X12104468Y-15135079D01*
X12056848Y-14925555D02*
X12009229Y-15068412D01*
X12009229Y-15068412D02*
X12133039Y-15068412D01*
X12313991Y-15135079D02*
X12199706Y-15135079D01*
X12256848Y-15135079D02*
X12256848Y-14935079D01*
X12256848Y-14935079D02*
X12237801Y-14963650D01*
X12237801Y-14963650D02*
X12218753Y-14982698D01*
X12218753Y-14982698D02*
X12199706Y-14992222D01*
X12552087Y-15135079D02*
X12552087Y-14935079D01*
X12637801Y-15135079D02*
X12637801Y-15030317D01*
X12637801Y-15030317D02*
X12628277Y-15011269D01*
X12628277Y-15011269D02*
X12609230Y-15001745D01*
X12609230Y-15001745D02*
X12580658Y-15001745D01*
X12580658Y-15001745D02*
X12561610Y-15011269D01*
X12561610Y-15011269D02*
X12552087Y-15020793D01*
X12761610Y-15135079D02*
X12742563Y-15125555D01*
X12742563Y-15125555D02*
X12733039Y-15116031D01*
X12733039Y-15116031D02*
X12723515Y-15096984D01*
X12723515Y-15096984D02*
X12723515Y-15039841D01*
X12723515Y-15039841D02*
X12733039Y-15020793D01*
X12733039Y-15020793D02*
X12742563Y-15011269D01*
X12742563Y-15011269D02*
X12761610Y-15001745D01*
X12761610Y-15001745D02*
X12790182Y-15001745D01*
X12790182Y-15001745D02*
X12809230Y-15011269D01*
X12809230Y-15011269D02*
X12818753Y-15020793D01*
X12818753Y-15020793D02*
X12828277Y-15039841D01*
X12828277Y-15039841D02*
X12828277Y-15096984D01*
X12828277Y-15096984D02*
X12818753Y-15116031D01*
X12818753Y-15116031D02*
X12809230Y-15125555D01*
X12809230Y-15125555D02*
X12790182Y-15135079D01*
X12790182Y-15135079D02*
X12761610Y-15135079D01*
X12942563Y-15135079D02*
X12923515Y-15125555D01*
X12923515Y-15125555D02*
X12913991Y-15106507D01*
X12913991Y-15106507D02*
X12913991Y-14935079D01*
X13094944Y-15125555D02*
X13075896Y-15135079D01*
X13075896Y-15135079D02*
X13037801Y-15135079D01*
X13037801Y-15135079D02*
X13018753Y-15125555D01*
X13018753Y-15125555D02*
X13009230Y-15106507D01*
X13009230Y-15106507D02*
X13009230Y-15030317D01*
X13009230Y-15030317D02*
X13018753Y-15011269D01*
X13018753Y-15011269D02*
X13037801Y-15001745D01*
X13037801Y-15001745D02*
X13075896Y-15001745D01*
X13075896Y-15001745D02*
X13094944Y-15011269D01*
X13094944Y-15011269D02*
X13104468Y-15030317D01*
X13104468Y-15030317D02*
X13104468Y-15049365D01*
X13104468Y-15049365D02*
X13009230Y-15068412D01*
X13180658Y-15125555D02*
X13199706Y-15135079D01*
X13199706Y-15135079D02*
X13237801Y-15135079D01*
X13237801Y-15135079D02*
X13256849Y-15125555D01*
X13256849Y-15125555D02*
X13266372Y-15106507D01*
X13266372Y-15106507D02*
X13266372Y-15096984D01*
X13266372Y-15096984D02*
X13256849Y-15077936D01*
X13256849Y-15077936D02*
X13237801Y-15068412D01*
X13237801Y-15068412D02*
X13209230Y-15068412D01*
X13209230Y-15068412D02*
X13190182Y-15058888D01*
X13190182Y-15058888D02*
X13180658Y-15039841D01*
X13180658Y-15039841D02*
X13180658Y-15030317D01*
X13180658Y-15030317D02*
X13190182Y-15011269D01*
X13190182Y-15011269D02*
X13209230Y-15001745D01*
X13209230Y-15001745D02*
X13237801Y-15001745D01*
X13237801Y-15001745D02*
X13256849Y-15011269D01*
X13333039Y-15211269D02*
X13342563Y-15201745D01*
X13342563Y-15201745D02*
X13361611Y-15173174D01*
X13361611Y-15173174D02*
X13371134Y-15154126D01*
X13371134Y-15154126D02*
X13380658Y-15125555D01*
X13380658Y-15125555D02*
X13390182Y-15077936D01*
X13390182Y-15077936D02*
X13390182Y-15039841D01*
X13390182Y-15039841D02*
X13380658Y-14992222D01*
X13380658Y-14992222D02*
X13371134Y-14963650D01*
X13371134Y-14963650D02*
X13361611Y-14944603D01*
X13361611Y-14944603D02*
X13342563Y-14916031D01*
X13342563Y-14916031D02*
X13333039Y-14906507D01*
D10*
X8367500Y-15307595D02*
G75*
G03*
X8367500Y-15307595I-40000J0D01*
G01*
D11*
X8666372Y-15199079D02*
X8685420Y-15199079D01*
X8685420Y-15199079D02*
X8704467Y-15208603D01*
X8704467Y-15208603D02*
X8713991Y-15218126D01*
X8713991Y-15218126D02*
X8723515Y-15237174D01*
X8723515Y-15237174D02*
X8733039Y-15275269D01*
X8733039Y-15275269D02*
X8733039Y-15322888D01*
X8733039Y-15322888D02*
X8723515Y-15360984D01*
X8723515Y-15360984D02*
X8713991Y-15380031D01*
X8713991Y-15380031D02*
X8704467Y-15389555D01*
X8704467Y-15389555D02*
X8685420Y-15399079D01*
X8685420Y-15399079D02*
X8666372Y-15399079D01*
X8666372Y-15399079D02*
X8647324Y-15389555D01*
X8647324Y-15389555D02*
X8637801Y-15380031D01*
X8637801Y-15380031D02*
X8628277Y-15360984D01*
X8628277Y-15360984D02*
X8618753Y-15322888D01*
X8618753Y-15322888D02*
X8618753Y-15275269D01*
X8618753Y-15275269D02*
X8628277Y-15237174D01*
X8628277Y-15237174D02*
X8637801Y-15218126D01*
X8637801Y-15218126D02*
X8647324Y-15208603D01*
X8647324Y-15208603D02*
X8666372Y-15199079D01*
X8818753Y-15380031D02*
X8828277Y-15389555D01*
X8828277Y-15389555D02*
X8818753Y-15399079D01*
X8818753Y-15399079D02*
X8809229Y-15389555D01*
X8809229Y-15389555D02*
X8818753Y-15380031D01*
X8818753Y-15380031D02*
X8818753Y-15399079D01*
X8942563Y-15284793D02*
X8923515Y-15275269D01*
X8923515Y-15275269D02*
X8913991Y-15265745D01*
X8913991Y-15265745D02*
X8904467Y-15246698D01*
X8904467Y-15246698D02*
X8904467Y-15237174D01*
X8904467Y-15237174D02*
X8913991Y-15218126D01*
X8913991Y-15218126D02*
X8923515Y-15208603D01*
X8923515Y-15208603D02*
X8942563Y-15199079D01*
X8942563Y-15199079D02*
X8980658Y-15199079D01*
X8980658Y-15199079D02*
X8999705Y-15208603D01*
X8999705Y-15208603D02*
X9009229Y-15218126D01*
X9009229Y-15218126D02*
X9018753Y-15237174D01*
X9018753Y-15237174D02*
X9018753Y-15246698D01*
X9018753Y-15246698D02*
X9009229Y-15265745D01*
X9009229Y-15265745D02*
X8999705Y-15275269D01*
X8999705Y-15275269D02*
X8980658Y-15284793D01*
X8980658Y-15284793D02*
X8942563Y-15284793D01*
X8942563Y-15284793D02*
X8923515Y-15294317D01*
X8923515Y-15294317D02*
X8913991Y-15303841D01*
X8913991Y-15303841D02*
X8904467Y-15322888D01*
X8904467Y-15322888D02*
X8904467Y-15360984D01*
X8904467Y-15360984D02*
X8913991Y-15380031D01*
X8913991Y-15380031D02*
X8923515Y-15389555D01*
X8923515Y-15389555D02*
X8942563Y-15399079D01*
X8942563Y-15399079D02*
X8980658Y-15399079D01*
X8980658Y-15399079D02*
X8999705Y-15389555D01*
X8999705Y-15389555D02*
X9009229Y-15380031D01*
X9009229Y-15380031D02*
X9018753Y-15360984D01*
X9018753Y-15360984D02*
X9018753Y-15322888D01*
X9018753Y-15322888D02*
X9009229Y-15303841D01*
X9009229Y-15303841D02*
X8999705Y-15294317D01*
X8999705Y-15294317D02*
X8980658Y-15284793D01*
X9142563Y-15199079D02*
X9161610Y-15199079D01*
X9161610Y-15199079D02*
X9180658Y-15208603D01*
X9180658Y-15208603D02*
X9190182Y-15218126D01*
X9190182Y-15218126D02*
X9199705Y-15237174D01*
X9199705Y-15237174D02*
X9209229Y-15275269D01*
X9209229Y-15275269D02*
X9209229Y-15322888D01*
X9209229Y-15322888D02*
X9199705Y-15360984D01*
X9199705Y-15360984D02*
X9190182Y-15380031D01*
X9190182Y-15380031D02*
X9180658Y-15389555D01*
X9180658Y-15389555D02*
X9161610Y-15399079D01*
X9161610Y-15399079D02*
X9142563Y-15399079D01*
X9142563Y-15399079D02*
X9123515Y-15389555D01*
X9123515Y-15389555D02*
X9113991Y-15380031D01*
X9113991Y-15380031D02*
X9104467Y-15360984D01*
X9104467Y-15360984D02*
X9094944Y-15322888D01*
X9094944Y-15322888D02*
X9094944Y-15275269D01*
X9094944Y-15275269D02*
X9104467Y-15237174D01*
X9104467Y-15237174D02*
X9113991Y-15218126D01*
X9113991Y-15218126D02*
X9123515Y-15208603D01*
X9123515Y-15208603D02*
X9142563Y-15199079D01*
X9333039Y-15199079D02*
X9352086Y-15199079D01*
X9352086Y-15199079D02*
X9371134Y-15208603D01*
X9371134Y-15208603D02*
X9380658Y-15218126D01*
X9380658Y-15218126D02*
X9390182Y-15237174D01*
X9390182Y-15237174D02*
X9399705Y-15275269D01*
X9399705Y-15275269D02*
X9399705Y-15322888D01*
X9399705Y-15322888D02*
X9390182Y-15360984D01*
X9390182Y-15360984D02*
X9380658Y-15380031D01*
X9380658Y-15380031D02*
X9371134Y-15389555D01*
X9371134Y-15389555D02*
X9352086Y-15399079D01*
X9352086Y-15399079D02*
X9333039Y-15399079D01*
X9333039Y-15399079D02*
X9313991Y-15389555D01*
X9313991Y-15389555D02*
X9304467Y-15380031D01*
X9304467Y-15380031D02*
X9294944Y-15360984D01*
X9294944Y-15360984D02*
X9285420Y-15322888D01*
X9285420Y-15322888D02*
X9285420Y-15275269D01*
X9285420Y-15275269D02*
X9294944Y-15237174D01*
X9294944Y-15237174D02*
X9304467Y-15218126D01*
X9304467Y-15218126D02*
X9313991Y-15208603D01*
X9313991Y-15208603D02*
X9333039Y-15199079D01*
X9485420Y-15399079D02*
X9485420Y-15265745D01*
X9485420Y-15284793D02*
X9494944Y-15275269D01*
X9494944Y-15275269D02*
X9513991Y-15265745D01*
X9513991Y-15265745D02*
X9542563Y-15265745D01*
X9542563Y-15265745D02*
X9561610Y-15275269D01*
X9561610Y-15275269D02*
X9571134Y-15294317D01*
X9571134Y-15294317D02*
X9571134Y-15399079D01*
X9571134Y-15294317D02*
X9580658Y-15275269D01*
X9580658Y-15275269D02*
X9599705Y-15265745D01*
X9599705Y-15265745D02*
X9628277Y-15265745D01*
X9628277Y-15265745D02*
X9647325Y-15275269D01*
X9647325Y-15275269D02*
X9656848Y-15294317D01*
X9656848Y-15294317D02*
X9656848Y-15399079D01*
X9752086Y-15399079D02*
X9752086Y-15265745D01*
X9752086Y-15284793D02*
X9761610Y-15275269D01*
X9761610Y-15275269D02*
X9780658Y-15265745D01*
X9780658Y-15265745D02*
X9809229Y-15265745D01*
X9809229Y-15265745D02*
X9828277Y-15275269D01*
X9828277Y-15275269D02*
X9837801Y-15294317D01*
X9837801Y-15294317D02*
X9837801Y-15399079D01*
X9837801Y-15294317D02*
X9847325Y-15275269D01*
X9847325Y-15275269D02*
X9866372Y-15265745D01*
X9866372Y-15265745D02*
X9894944Y-15265745D01*
X9894944Y-15265745D02*
X9913991Y-15275269D01*
X9913991Y-15275269D02*
X9923515Y-15294317D01*
X9923515Y-15294317D02*
X9923515Y-15399079D01*
X10313991Y-15189555D02*
X10142563Y-15446698D01*
X10571134Y-15199079D02*
X10590182Y-15199079D01*
X10590182Y-15199079D02*
X10609229Y-15208603D01*
X10609229Y-15208603D02*
X10618753Y-15218126D01*
X10618753Y-15218126D02*
X10628277Y-15237174D01*
X10628277Y-15237174D02*
X10637801Y-15275269D01*
X10637801Y-15275269D02*
X10637801Y-15322888D01*
X10637801Y-15322888D02*
X10628277Y-15360984D01*
X10628277Y-15360984D02*
X10618753Y-15380031D01*
X10618753Y-15380031D02*
X10609229Y-15389555D01*
X10609229Y-15389555D02*
X10590182Y-15399079D01*
X10590182Y-15399079D02*
X10571134Y-15399079D01*
X10571134Y-15399079D02*
X10552087Y-15389555D01*
X10552087Y-15389555D02*
X10542563Y-15380031D01*
X10542563Y-15380031D02*
X10533039Y-15360984D01*
X10533039Y-15360984D02*
X10523515Y-15322888D01*
X10523515Y-15322888D02*
X10523515Y-15275269D01*
X10523515Y-15275269D02*
X10533039Y-15237174D01*
X10533039Y-15237174D02*
X10542563Y-15218126D01*
X10542563Y-15218126D02*
X10552087Y-15208603D01*
X10552087Y-15208603D02*
X10571134Y-15199079D01*
X10723515Y-15380031D02*
X10733039Y-15389555D01*
X10733039Y-15389555D02*
X10723515Y-15399079D01*
X10723515Y-15399079D02*
X10713991Y-15389555D01*
X10713991Y-15389555D02*
X10723515Y-15380031D01*
X10723515Y-15380031D02*
X10723515Y-15399079D01*
X10856848Y-15199079D02*
X10875896Y-15199079D01*
X10875896Y-15199079D02*
X10894944Y-15208603D01*
X10894944Y-15208603D02*
X10904468Y-15218126D01*
X10904468Y-15218126D02*
X10913991Y-15237174D01*
X10913991Y-15237174D02*
X10923515Y-15275269D01*
X10923515Y-15275269D02*
X10923515Y-15322888D01*
X10923515Y-15322888D02*
X10913991Y-15360984D01*
X10913991Y-15360984D02*
X10904468Y-15380031D01*
X10904468Y-15380031D02*
X10894944Y-15389555D01*
X10894944Y-15389555D02*
X10875896Y-15399079D01*
X10875896Y-15399079D02*
X10856848Y-15399079D01*
X10856848Y-15399079D02*
X10837801Y-15389555D01*
X10837801Y-15389555D02*
X10828277Y-15380031D01*
X10828277Y-15380031D02*
X10818753Y-15360984D01*
X10818753Y-15360984D02*
X10809229Y-15322888D01*
X10809229Y-15322888D02*
X10809229Y-15275269D01*
X10809229Y-15275269D02*
X10818753Y-15237174D01*
X10818753Y-15237174D02*
X10828277Y-15218126D01*
X10828277Y-15218126D02*
X10837801Y-15208603D01*
X10837801Y-15208603D02*
X10856848Y-15199079D01*
X10990182Y-15199079D02*
X11113991Y-15199079D01*
X11113991Y-15199079D02*
X11047325Y-15275269D01*
X11047325Y-15275269D02*
X11075896Y-15275269D01*
X11075896Y-15275269D02*
X11094944Y-15284793D01*
X11094944Y-15284793D02*
X11104468Y-15294317D01*
X11104468Y-15294317D02*
X11113991Y-15313365D01*
X11113991Y-15313365D02*
X11113991Y-15360984D01*
X11113991Y-15360984D02*
X11104468Y-15380031D01*
X11104468Y-15380031D02*
X11094944Y-15389555D01*
X11094944Y-15389555D02*
X11075896Y-15399079D01*
X11075896Y-15399079D02*
X11018753Y-15399079D01*
X11018753Y-15399079D02*
X10999706Y-15389555D01*
X10999706Y-15389555D02*
X10990182Y-15380031D01*
X11304467Y-15399079D02*
X11190182Y-15399079D01*
X11247325Y-15399079D02*
X11247325Y-15199079D01*
X11247325Y-15199079D02*
X11228277Y-15227650D01*
X11228277Y-15227650D02*
X11209229Y-15246698D01*
X11209229Y-15246698D02*
X11190182Y-15256222D01*
X11485420Y-15199079D02*
X11390182Y-15199079D01*
X11390182Y-15199079D02*
X11380658Y-15294317D01*
X11380658Y-15294317D02*
X11390182Y-15284793D01*
X11390182Y-15284793D02*
X11409229Y-15275269D01*
X11409229Y-15275269D02*
X11456848Y-15275269D01*
X11456848Y-15275269D02*
X11475896Y-15284793D01*
X11475896Y-15284793D02*
X11485420Y-15294317D01*
X11485420Y-15294317D02*
X11494944Y-15313365D01*
X11494944Y-15313365D02*
X11494944Y-15360984D01*
X11494944Y-15360984D02*
X11485420Y-15380031D01*
X11485420Y-15380031D02*
X11475896Y-15389555D01*
X11475896Y-15389555D02*
X11456848Y-15399079D01*
X11456848Y-15399079D02*
X11409229Y-15399079D01*
X11409229Y-15399079D02*
X11390182Y-15389555D01*
X11390182Y-15389555D02*
X11380658Y-15380031D01*
X11571134Y-15199079D02*
X11571134Y-15237174D01*
X11647325Y-15199079D02*
X11647325Y-15237174D01*
X11942563Y-15475269D02*
X11933039Y-15465745D01*
X11933039Y-15465745D02*
X11913991Y-15437174D01*
X11913991Y-15437174D02*
X11904468Y-15418126D01*
X11904468Y-15418126D02*
X11894944Y-15389555D01*
X11894944Y-15389555D02*
X11885420Y-15341936D01*
X11885420Y-15341936D02*
X11885420Y-15303841D01*
X11885420Y-15303841D02*
X11894944Y-15256222D01*
X11894944Y-15256222D02*
X11904468Y-15227650D01*
X11904468Y-15227650D02*
X11913991Y-15208603D01*
X11913991Y-15208603D02*
X11933039Y-15180031D01*
X11933039Y-15180031D02*
X11942563Y-15170507D01*
X12104468Y-15265745D02*
X12104468Y-15399079D01*
X12056848Y-15189555D02*
X12009229Y-15332412D01*
X12009229Y-15332412D02*
X12133039Y-15332412D01*
X12237801Y-15284793D02*
X12218753Y-15275269D01*
X12218753Y-15275269D02*
X12209229Y-15265745D01*
X12209229Y-15265745D02*
X12199706Y-15246698D01*
X12199706Y-15246698D02*
X12199706Y-15237174D01*
X12199706Y-15237174D02*
X12209229Y-15218126D01*
X12209229Y-15218126D02*
X12218753Y-15208603D01*
X12218753Y-15208603D02*
X12237801Y-15199079D01*
X12237801Y-15199079D02*
X12275896Y-15199079D01*
X12275896Y-15199079D02*
X12294944Y-15208603D01*
X12294944Y-15208603D02*
X12304468Y-15218126D01*
X12304468Y-15218126D02*
X12313991Y-15237174D01*
X12313991Y-15237174D02*
X12313991Y-15246698D01*
X12313991Y-15246698D02*
X12304468Y-15265745D01*
X12304468Y-15265745D02*
X12294944Y-15275269D01*
X12294944Y-15275269D02*
X12275896Y-15284793D01*
X12275896Y-15284793D02*
X12237801Y-15284793D01*
X12237801Y-15284793D02*
X12218753Y-15294317D01*
X12218753Y-15294317D02*
X12209229Y-15303841D01*
X12209229Y-15303841D02*
X12199706Y-15322888D01*
X12199706Y-15322888D02*
X12199706Y-15360984D01*
X12199706Y-15360984D02*
X12209229Y-15380031D01*
X12209229Y-15380031D02*
X12218753Y-15389555D01*
X12218753Y-15389555D02*
X12237801Y-15399079D01*
X12237801Y-15399079D02*
X12275896Y-15399079D01*
X12275896Y-15399079D02*
X12294944Y-15389555D01*
X12294944Y-15389555D02*
X12304468Y-15380031D01*
X12304468Y-15380031D02*
X12313991Y-15360984D01*
X12313991Y-15360984D02*
X12313991Y-15322888D01*
X12313991Y-15322888D02*
X12304468Y-15303841D01*
X12304468Y-15303841D02*
X12294944Y-15294317D01*
X12294944Y-15294317D02*
X12275896Y-15284793D01*
X12552087Y-15399079D02*
X12552087Y-15199079D01*
X12637801Y-15399079D02*
X12637801Y-15294317D01*
X12637801Y-15294317D02*
X12628277Y-15275269D01*
X12628277Y-15275269D02*
X12609230Y-15265745D01*
X12609230Y-15265745D02*
X12580658Y-15265745D01*
X12580658Y-15265745D02*
X12561610Y-15275269D01*
X12561610Y-15275269D02*
X12552087Y-15284793D01*
X12761610Y-15399079D02*
X12742563Y-15389555D01*
X12742563Y-15389555D02*
X12733039Y-15380031D01*
X12733039Y-15380031D02*
X12723515Y-15360984D01*
X12723515Y-15360984D02*
X12723515Y-15303841D01*
X12723515Y-15303841D02*
X12733039Y-15284793D01*
X12733039Y-15284793D02*
X12742563Y-15275269D01*
X12742563Y-15275269D02*
X12761610Y-15265745D01*
X12761610Y-15265745D02*
X12790182Y-15265745D01*
X12790182Y-15265745D02*
X12809230Y-15275269D01*
X12809230Y-15275269D02*
X12818753Y-15284793D01*
X12818753Y-15284793D02*
X12828277Y-15303841D01*
X12828277Y-15303841D02*
X12828277Y-15360984D01*
X12828277Y-15360984D02*
X12818753Y-15380031D01*
X12818753Y-15380031D02*
X12809230Y-15389555D01*
X12809230Y-15389555D02*
X12790182Y-15399079D01*
X12790182Y-15399079D02*
X12761610Y-15399079D01*
X12942563Y-15399079D02*
X12923515Y-15389555D01*
X12923515Y-15389555D02*
X12913991Y-15370507D01*
X12913991Y-15370507D02*
X12913991Y-15199079D01*
X13094944Y-15389555D02*
X13075896Y-15399079D01*
X13075896Y-15399079D02*
X13037801Y-15399079D01*
X13037801Y-15399079D02*
X13018753Y-15389555D01*
X13018753Y-15389555D02*
X13009230Y-15370507D01*
X13009230Y-15370507D02*
X13009230Y-15294317D01*
X13009230Y-15294317D02*
X13018753Y-15275269D01*
X13018753Y-15275269D02*
X13037801Y-15265745D01*
X13037801Y-15265745D02*
X13075896Y-15265745D01*
X13075896Y-15265745D02*
X13094944Y-15275269D01*
X13094944Y-15275269D02*
X13104468Y-15294317D01*
X13104468Y-15294317D02*
X13104468Y-15313365D01*
X13104468Y-15313365D02*
X13009230Y-15332412D01*
X13180658Y-15389555D02*
X13199706Y-15399079D01*
X13199706Y-15399079D02*
X13237801Y-15399079D01*
X13237801Y-15399079D02*
X13256849Y-15389555D01*
X13256849Y-15389555D02*
X13266372Y-15370507D01*
X13266372Y-15370507D02*
X13266372Y-15360984D01*
X13266372Y-15360984D02*
X13256849Y-15341936D01*
X13256849Y-15341936D02*
X13237801Y-15332412D01*
X13237801Y-15332412D02*
X13209230Y-15332412D01*
X13209230Y-15332412D02*
X13190182Y-15322888D01*
X13190182Y-15322888D02*
X13180658Y-15303841D01*
X13180658Y-15303841D02*
X13180658Y-15294317D01*
X13180658Y-15294317D02*
X13190182Y-15275269D01*
X13190182Y-15275269D02*
X13209230Y-15265745D01*
X13209230Y-15265745D02*
X13237801Y-15265745D01*
X13237801Y-15265745D02*
X13256849Y-15275269D01*
X13333039Y-15475269D02*
X13342563Y-15465745D01*
X13342563Y-15465745D02*
X13361611Y-15437174D01*
X13361611Y-15437174D02*
X13371134Y-15418126D01*
X13371134Y-15418126D02*
X13380658Y-15389555D01*
X13380658Y-15389555D02*
X13390182Y-15341936D01*
X13390182Y-15341936D02*
X13390182Y-15303841D01*
X13390182Y-15303841D02*
X13380658Y-15256222D01*
X13380658Y-15256222D02*
X13371134Y-15227650D01*
X13371134Y-15227650D02*
X13361611Y-15208603D01*
X13361611Y-15208603D02*
X13342563Y-15180031D01*
X13342563Y-15180031D02*
X13333039Y-15170507D01*
D10*
X8317500Y-15521595D02*
X8317500Y-15621595D01*
X8267500Y-15571595D02*
X8367500Y-15571595D01*
D11*
X8733039Y-15663079D02*
X8618753Y-15663079D01*
X8675896Y-15663079D02*
X8675896Y-15463079D01*
X8675896Y-15463079D02*
X8656848Y-15491650D01*
X8656848Y-15491650D02*
X8637801Y-15510698D01*
X8637801Y-15510698D02*
X8618753Y-15520222D01*
X8818753Y-15644031D02*
X8828277Y-15653555D01*
X8828277Y-15653555D02*
X8818753Y-15663079D01*
X8818753Y-15663079D02*
X8809229Y-15653555D01*
X8809229Y-15653555D02*
X8818753Y-15644031D01*
X8818753Y-15644031D02*
X8818753Y-15663079D01*
X8952086Y-15463079D02*
X8971134Y-15463079D01*
X8971134Y-15463079D02*
X8990182Y-15472603D01*
X8990182Y-15472603D02*
X8999705Y-15482126D01*
X8999705Y-15482126D02*
X9009229Y-15501174D01*
X9009229Y-15501174D02*
X9018753Y-15539269D01*
X9018753Y-15539269D02*
X9018753Y-15586888D01*
X9018753Y-15586888D02*
X9009229Y-15624984D01*
X9009229Y-15624984D02*
X8999705Y-15644031D01*
X8999705Y-15644031D02*
X8990182Y-15653555D01*
X8990182Y-15653555D02*
X8971134Y-15663079D01*
X8971134Y-15663079D02*
X8952086Y-15663079D01*
X8952086Y-15663079D02*
X8933039Y-15653555D01*
X8933039Y-15653555D02*
X8923515Y-15644031D01*
X8923515Y-15644031D02*
X8913991Y-15624984D01*
X8913991Y-15624984D02*
X8904467Y-15586888D01*
X8904467Y-15586888D02*
X8904467Y-15539269D01*
X8904467Y-15539269D02*
X8913991Y-15501174D01*
X8913991Y-15501174D02*
X8923515Y-15482126D01*
X8923515Y-15482126D02*
X8933039Y-15472603D01*
X8933039Y-15472603D02*
X8952086Y-15463079D01*
X9142563Y-15463079D02*
X9161610Y-15463079D01*
X9161610Y-15463079D02*
X9180658Y-15472603D01*
X9180658Y-15472603D02*
X9190182Y-15482126D01*
X9190182Y-15482126D02*
X9199705Y-15501174D01*
X9199705Y-15501174D02*
X9209229Y-15539269D01*
X9209229Y-15539269D02*
X9209229Y-15586888D01*
X9209229Y-15586888D02*
X9199705Y-15624984D01*
X9199705Y-15624984D02*
X9190182Y-15644031D01*
X9190182Y-15644031D02*
X9180658Y-15653555D01*
X9180658Y-15653555D02*
X9161610Y-15663079D01*
X9161610Y-15663079D02*
X9142563Y-15663079D01*
X9142563Y-15663079D02*
X9123515Y-15653555D01*
X9123515Y-15653555D02*
X9113991Y-15644031D01*
X9113991Y-15644031D02*
X9104467Y-15624984D01*
X9104467Y-15624984D02*
X9094944Y-15586888D01*
X9094944Y-15586888D02*
X9094944Y-15539269D01*
X9094944Y-15539269D02*
X9104467Y-15501174D01*
X9104467Y-15501174D02*
X9113991Y-15482126D01*
X9113991Y-15482126D02*
X9123515Y-15472603D01*
X9123515Y-15472603D02*
X9142563Y-15463079D01*
X9333039Y-15463079D02*
X9352086Y-15463079D01*
X9352086Y-15463079D02*
X9371134Y-15472603D01*
X9371134Y-15472603D02*
X9380658Y-15482126D01*
X9380658Y-15482126D02*
X9390182Y-15501174D01*
X9390182Y-15501174D02*
X9399705Y-15539269D01*
X9399705Y-15539269D02*
X9399705Y-15586888D01*
X9399705Y-15586888D02*
X9390182Y-15624984D01*
X9390182Y-15624984D02*
X9380658Y-15644031D01*
X9380658Y-15644031D02*
X9371134Y-15653555D01*
X9371134Y-15653555D02*
X9352086Y-15663079D01*
X9352086Y-15663079D02*
X9333039Y-15663079D01*
X9333039Y-15663079D02*
X9313991Y-15653555D01*
X9313991Y-15653555D02*
X9304467Y-15644031D01*
X9304467Y-15644031D02*
X9294944Y-15624984D01*
X9294944Y-15624984D02*
X9285420Y-15586888D01*
X9285420Y-15586888D02*
X9285420Y-15539269D01*
X9285420Y-15539269D02*
X9294944Y-15501174D01*
X9294944Y-15501174D02*
X9304467Y-15482126D01*
X9304467Y-15482126D02*
X9313991Y-15472603D01*
X9313991Y-15472603D02*
X9333039Y-15463079D01*
X9485420Y-15663079D02*
X9485420Y-15529745D01*
X9485420Y-15548793D02*
X9494944Y-15539269D01*
X9494944Y-15539269D02*
X9513991Y-15529745D01*
X9513991Y-15529745D02*
X9542563Y-15529745D01*
X9542563Y-15529745D02*
X9561610Y-15539269D01*
X9561610Y-15539269D02*
X9571134Y-15558317D01*
X9571134Y-15558317D02*
X9571134Y-15663079D01*
X9571134Y-15558317D02*
X9580658Y-15539269D01*
X9580658Y-15539269D02*
X9599705Y-15529745D01*
X9599705Y-15529745D02*
X9628277Y-15529745D01*
X9628277Y-15529745D02*
X9647325Y-15539269D01*
X9647325Y-15539269D02*
X9656848Y-15558317D01*
X9656848Y-15558317D02*
X9656848Y-15663079D01*
X9752086Y-15663079D02*
X9752086Y-15529745D01*
X9752086Y-15548793D02*
X9761610Y-15539269D01*
X9761610Y-15539269D02*
X9780658Y-15529745D01*
X9780658Y-15529745D02*
X9809229Y-15529745D01*
X9809229Y-15529745D02*
X9828277Y-15539269D01*
X9828277Y-15539269D02*
X9837801Y-15558317D01*
X9837801Y-15558317D02*
X9837801Y-15663079D01*
X9837801Y-15558317D02*
X9847325Y-15539269D01*
X9847325Y-15539269D02*
X9866372Y-15529745D01*
X9866372Y-15529745D02*
X9894944Y-15529745D01*
X9894944Y-15529745D02*
X9913991Y-15539269D01*
X9913991Y-15539269D02*
X9923515Y-15558317D01*
X9923515Y-15558317D02*
X9923515Y-15663079D01*
X10313991Y-15453555D02*
X10142563Y-15710698D01*
X10571134Y-15463079D02*
X10590182Y-15463079D01*
X10590182Y-15463079D02*
X10609229Y-15472603D01*
X10609229Y-15472603D02*
X10618753Y-15482126D01*
X10618753Y-15482126D02*
X10628277Y-15501174D01*
X10628277Y-15501174D02*
X10637801Y-15539269D01*
X10637801Y-15539269D02*
X10637801Y-15586888D01*
X10637801Y-15586888D02*
X10628277Y-15624984D01*
X10628277Y-15624984D02*
X10618753Y-15644031D01*
X10618753Y-15644031D02*
X10609229Y-15653555D01*
X10609229Y-15653555D02*
X10590182Y-15663079D01*
X10590182Y-15663079D02*
X10571134Y-15663079D01*
X10571134Y-15663079D02*
X10552087Y-15653555D01*
X10552087Y-15653555D02*
X10542563Y-15644031D01*
X10542563Y-15644031D02*
X10533039Y-15624984D01*
X10533039Y-15624984D02*
X10523515Y-15586888D01*
X10523515Y-15586888D02*
X10523515Y-15539269D01*
X10523515Y-15539269D02*
X10533039Y-15501174D01*
X10533039Y-15501174D02*
X10542563Y-15482126D01*
X10542563Y-15482126D02*
X10552087Y-15472603D01*
X10552087Y-15472603D02*
X10571134Y-15463079D01*
X10723515Y-15644031D02*
X10733039Y-15653555D01*
X10733039Y-15653555D02*
X10723515Y-15663079D01*
X10723515Y-15663079D02*
X10713991Y-15653555D01*
X10713991Y-15653555D02*
X10723515Y-15644031D01*
X10723515Y-15644031D02*
X10723515Y-15663079D01*
X10856848Y-15463079D02*
X10875896Y-15463079D01*
X10875896Y-15463079D02*
X10894944Y-15472603D01*
X10894944Y-15472603D02*
X10904468Y-15482126D01*
X10904468Y-15482126D02*
X10913991Y-15501174D01*
X10913991Y-15501174D02*
X10923515Y-15539269D01*
X10923515Y-15539269D02*
X10923515Y-15586888D01*
X10923515Y-15586888D02*
X10913991Y-15624984D01*
X10913991Y-15624984D02*
X10904468Y-15644031D01*
X10904468Y-15644031D02*
X10894944Y-15653555D01*
X10894944Y-15653555D02*
X10875896Y-15663079D01*
X10875896Y-15663079D02*
X10856848Y-15663079D01*
X10856848Y-15663079D02*
X10837801Y-15653555D01*
X10837801Y-15653555D02*
X10828277Y-15644031D01*
X10828277Y-15644031D02*
X10818753Y-15624984D01*
X10818753Y-15624984D02*
X10809229Y-15586888D01*
X10809229Y-15586888D02*
X10809229Y-15539269D01*
X10809229Y-15539269D02*
X10818753Y-15501174D01*
X10818753Y-15501174D02*
X10828277Y-15482126D01*
X10828277Y-15482126D02*
X10837801Y-15472603D01*
X10837801Y-15472603D02*
X10856848Y-15463079D01*
X10990182Y-15463079D02*
X11113991Y-15463079D01*
X11113991Y-15463079D02*
X11047325Y-15539269D01*
X11047325Y-15539269D02*
X11075896Y-15539269D01*
X11075896Y-15539269D02*
X11094944Y-15548793D01*
X11094944Y-15548793D02*
X11104468Y-15558317D01*
X11104468Y-15558317D02*
X11113991Y-15577365D01*
X11113991Y-15577365D02*
X11113991Y-15624984D01*
X11113991Y-15624984D02*
X11104468Y-15644031D01*
X11104468Y-15644031D02*
X11094944Y-15653555D01*
X11094944Y-15653555D02*
X11075896Y-15663079D01*
X11075896Y-15663079D02*
X11018753Y-15663079D01*
X11018753Y-15663079D02*
X10999706Y-15653555D01*
X10999706Y-15653555D02*
X10990182Y-15644031D01*
X11209229Y-15663079D02*
X11247325Y-15663079D01*
X11247325Y-15663079D02*
X11266372Y-15653555D01*
X11266372Y-15653555D02*
X11275896Y-15644031D01*
X11275896Y-15644031D02*
X11294944Y-15615460D01*
X11294944Y-15615460D02*
X11304467Y-15577365D01*
X11304467Y-15577365D02*
X11304467Y-15501174D01*
X11304467Y-15501174D02*
X11294944Y-15482126D01*
X11294944Y-15482126D02*
X11285420Y-15472603D01*
X11285420Y-15472603D02*
X11266372Y-15463079D01*
X11266372Y-15463079D02*
X11228277Y-15463079D01*
X11228277Y-15463079D02*
X11209229Y-15472603D01*
X11209229Y-15472603D02*
X11199706Y-15482126D01*
X11199706Y-15482126D02*
X11190182Y-15501174D01*
X11190182Y-15501174D02*
X11190182Y-15548793D01*
X11190182Y-15548793D02*
X11199706Y-15567841D01*
X11199706Y-15567841D02*
X11209229Y-15577365D01*
X11209229Y-15577365D02*
X11228277Y-15586888D01*
X11228277Y-15586888D02*
X11266372Y-15586888D01*
X11266372Y-15586888D02*
X11285420Y-15577365D01*
X11285420Y-15577365D02*
X11294944Y-15567841D01*
X11294944Y-15567841D02*
X11304467Y-15548793D01*
X11475896Y-15529745D02*
X11475896Y-15663079D01*
X11428277Y-15453555D02*
X11380658Y-15596412D01*
X11380658Y-15596412D02*
X11504467Y-15596412D01*
X11571134Y-15463079D02*
X11571134Y-15501174D01*
X11647325Y-15463079D02*
X11647325Y-15501174D01*
X11942563Y-15739269D02*
X11933039Y-15729745D01*
X11933039Y-15729745D02*
X11913991Y-15701174D01*
X11913991Y-15701174D02*
X11904468Y-15682126D01*
X11904468Y-15682126D02*
X11894944Y-15653555D01*
X11894944Y-15653555D02*
X11885420Y-15605936D01*
X11885420Y-15605936D02*
X11885420Y-15567841D01*
X11885420Y-15567841D02*
X11894944Y-15520222D01*
X11894944Y-15520222D02*
X11904468Y-15491650D01*
X11904468Y-15491650D02*
X11913991Y-15472603D01*
X11913991Y-15472603D02*
X11933039Y-15444031D01*
X11933039Y-15444031D02*
X11942563Y-15434507D01*
X12104468Y-15529745D02*
X12104468Y-15663079D01*
X12056848Y-15453555D02*
X12009229Y-15596412D01*
X12009229Y-15596412D02*
X12133039Y-15596412D01*
X12304468Y-15463079D02*
X12209229Y-15463079D01*
X12209229Y-15463079D02*
X12199706Y-15558317D01*
X12199706Y-15558317D02*
X12209229Y-15548793D01*
X12209229Y-15548793D02*
X12228277Y-15539269D01*
X12228277Y-15539269D02*
X12275896Y-15539269D01*
X12275896Y-15539269D02*
X12294944Y-15548793D01*
X12294944Y-15548793D02*
X12304468Y-15558317D01*
X12304468Y-15558317D02*
X12313991Y-15577365D01*
X12313991Y-15577365D02*
X12313991Y-15624984D01*
X12313991Y-15624984D02*
X12304468Y-15644031D01*
X12304468Y-15644031D02*
X12294944Y-15653555D01*
X12294944Y-15653555D02*
X12275896Y-15663079D01*
X12275896Y-15663079D02*
X12228277Y-15663079D01*
X12228277Y-15663079D02*
X12209229Y-15653555D01*
X12209229Y-15653555D02*
X12199706Y-15644031D01*
X12552087Y-15663079D02*
X12552087Y-15463079D01*
X12637801Y-15663079D02*
X12637801Y-15558317D01*
X12637801Y-15558317D02*
X12628277Y-15539269D01*
X12628277Y-15539269D02*
X12609230Y-15529745D01*
X12609230Y-15529745D02*
X12580658Y-15529745D01*
X12580658Y-15529745D02*
X12561610Y-15539269D01*
X12561610Y-15539269D02*
X12552087Y-15548793D01*
X12761610Y-15663079D02*
X12742563Y-15653555D01*
X12742563Y-15653555D02*
X12733039Y-15644031D01*
X12733039Y-15644031D02*
X12723515Y-15624984D01*
X12723515Y-15624984D02*
X12723515Y-15567841D01*
X12723515Y-15567841D02*
X12733039Y-15548793D01*
X12733039Y-15548793D02*
X12742563Y-15539269D01*
X12742563Y-15539269D02*
X12761610Y-15529745D01*
X12761610Y-15529745D02*
X12790182Y-15529745D01*
X12790182Y-15529745D02*
X12809230Y-15539269D01*
X12809230Y-15539269D02*
X12818753Y-15548793D01*
X12818753Y-15548793D02*
X12828277Y-15567841D01*
X12828277Y-15567841D02*
X12828277Y-15624984D01*
X12828277Y-15624984D02*
X12818753Y-15644031D01*
X12818753Y-15644031D02*
X12809230Y-15653555D01*
X12809230Y-15653555D02*
X12790182Y-15663079D01*
X12790182Y-15663079D02*
X12761610Y-15663079D01*
X12942563Y-15663079D02*
X12923515Y-15653555D01*
X12923515Y-15653555D02*
X12913991Y-15634507D01*
X12913991Y-15634507D02*
X12913991Y-15463079D01*
X13094944Y-15653555D02*
X13075896Y-15663079D01*
X13075896Y-15663079D02*
X13037801Y-15663079D01*
X13037801Y-15663079D02*
X13018753Y-15653555D01*
X13018753Y-15653555D02*
X13009230Y-15634507D01*
X13009230Y-15634507D02*
X13009230Y-15558317D01*
X13009230Y-15558317D02*
X13018753Y-15539269D01*
X13018753Y-15539269D02*
X13037801Y-15529745D01*
X13037801Y-15529745D02*
X13075896Y-15529745D01*
X13075896Y-15529745D02*
X13094944Y-15539269D01*
X13094944Y-15539269D02*
X13104468Y-15558317D01*
X13104468Y-15558317D02*
X13104468Y-15577365D01*
X13104468Y-15577365D02*
X13009230Y-15596412D01*
X13180658Y-15653555D02*
X13199706Y-15663079D01*
X13199706Y-15663079D02*
X13237801Y-15663079D01*
X13237801Y-15663079D02*
X13256849Y-15653555D01*
X13256849Y-15653555D02*
X13266372Y-15634507D01*
X13266372Y-15634507D02*
X13266372Y-15624984D01*
X13266372Y-15624984D02*
X13256849Y-15605936D01*
X13256849Y-15605936D02*
X13237801Y-15596412D01*
X13237801Y-15596412D02*
X13209230Y-15596412D01*
X13209230Y-15596412D02*
X13190182Y-15586888D01*
X13190182Y-15586888D02*
X13180658Y-15567841D01*
X13180658Y-15567841D02*
X13180658Y-15558317D01*
X13180658Y-15558317D02*
X13190182Y-15539269D01*
X13190182Y-15539269D02*
X13209230Y-15529745D01*
X13209230Y-15529745D02*
X13237801Y-15529745D01*
X13237801Y-15529745D02*
X13256849Y-15539269D01*
X13333039Y-15739269D02*
X13342563Y-15729745D01*
X13342563Y-15729745D02*
X13361611Y-15701174D01*
X13361611Y-15701174D02*
X13371134Y-15682126D01*
X13371134Y-15682126D02*
X13380658Y-15653555D01*
X13380658Y-15653555D02*
X13390182Y-15605936D01*
X13390182Y-15605936D02*
X13390182Y-15567841D01*
X13390182Y-15567841D02*
X13380658Y-15520222D01*
X13380658Y-15520222D02*
X13371134Y-15491650D01*
X13371134Y-15491650D02*
X13361611Y-15472603D01*
X13361611Y-15472603D02*
X13342563Y-15444031D01*
X13342563Y-15444031D02*
X13333039Y-15434507D01*
X8338211Y-15906306D02*
X8338211Y-15764884D01*
X8196789Y-15764884D01*
X8196789Y-15906306D01*
X8338211Y-15906306D01*
X8618753Y-15746126D02*
X8628277Y-15736603D01*
X8628277Y-15736603D02*
X8647324Y-15727079D01*
X8647324Y-15727079D02*
X8694944Y-15727079D01*
X8694944Y-15727079D02*
X8713991Y-15736603D01*
X8713991Y-15736603D02*
X8723515Y-15746126D01*
X8723515Y-15746126D02*
X8733039Y-15765174D01*
X8733039Y-15765174D02*
X8733039Y-15784222D01*
X8733039Y-15784222D02*
X8723515Y-15812793D01*
X8723515Y-15812793D02*
X8609229Y-15927079D01*
X8609229Y-15927079D02*
X8733039Y-15927079D01*
X8818753Y-15908031D02*
X8828277Y-15917555D01*
X8828277Y-15917555D02*
X8818753Y-15927079D01*
X8818753Y-15927079D02*
X8809229Y-15917555D01*
X8809229Y-15917555D02*
X8818753Y-15908031D01*
X8818753Y-15908031D02*
X8818753Y-15927079D01*
X8894944Y-15727079D02*
X9028277Y-15727079D01*
X9028277Y-15727079D02*
X8942563Y-15927079D01*
X9085420Y-15727079D02*
X9218753Y-15727079D01*
X9218753Y-15727079D02*
X9133039Y-15927079D01*
X9333039Y-15727079D02*
X9352086Y-15727079D01*
X9352086Y-15727079D02*
X9371134Y-15736603D01*
X9371134Y-15736603D02*
X9380658Y-15746126D01*
X9380658Y-15746126D02*
X9390182Y-15765174D01*
X9390182Y-15765174D02*
X9399705Y-15803269D01*
X9399705Y-15803269D02*
X9399705Y-15850888D01*
X9399705Y-15850888D02*
X9390182Y-15888984D01*
X9390182Y-15888984D02*
X9380658Y-15908031D01*
X9380658Y-15908031D02*
X9371134Y-15917555D01*
X9371134Y-15917555D02*
X9352086Y-15927079D01*
X9352086Y-15927079D02*
X9333039Y-15927079D01*
X9333039Y-15927079D02*
X9313991Y-15917555D01*
X9313991Y-15917555D02*
X9304467Y-15908031D01*
X9304467Y-15908031D02*
X9294944Y-15888984D01*
X9294944Y-15888984D02*
X9285420Y-15850888D01*
X9285420Y-15850888D02*
X9285420Y-15803269D01*
X9285420Y-15803269D02*
X9294944Y-15765174D01*
X9294944Y-15765174D02*
X9304467Y-15746126D01*
X9304467Y-15746126D02*
X9313991Y-15736603D01*
X9313991Y-15736603D02*
X9333039Y-15727079D01*
X9485420Y-15927079D02*
X9485420Y-15793745D01*
X9485420Y-15812793D02*
X9494944Y-15803269D01*
X9494944Y-15803269D02*
X9513991Y-15793745D01*
X9513991Y-15793745D02*
X9542563Y-15793745D01*
X9542563Y-15793745D02*
X9561610Y-15803269D01*
X9561610Y-15803269D02*
X9571134Y-15822317D01*
X9571134Y-15822317D02*
X9571134Y-15927079D01*
X9571134Y-15822317D02*
X9580658Y-15803269D01*
X9580658Y-15803269D02*
X9599705Y-15793745D01*
X9599705Y-15793745D02*
X9628277Y-15793745D01*
X9628277Y-15793745D02*
X9647325Y-15803269D01*
X9647325Y-15803269D02*
X9656848Y-15822317D01*
X9656848Y-15822317D02*
X9656848Y-15927079D01*
X9752086Y-15927079D02*
X9752086Y-15793745D01*
X9752086Y-15812793D02*
X9761610Y-15803269D01*
X9761610Y-15803269D02*
X9780658Y-15793745D01*
X9780658Y-15793745D02*
X9809229Y-15793745D01*
X9809229Y-15793745D02*
X9828277Y-15803269D01*
X9828277Y-15803269D02*
X9837801Y-15822317D01*
X9837801Y-15822317D02*
X9837801Y-15927079D01*
X9837801Y-15822317D02*
X9847325Y-15803269D01*
X9847325Y-15803269D02*
X9866372Y-15793745D01*
X9866372Y-15793745D02*
X9894944Y-15793745D01*
X9894944Y-15793745D02*
X9913991Y-15803269D01*
X9913991Y-15803269D02*
X9923515Y-15822317D01*
X9923515Y-15822317D02*
X9923515Y-15927079D01*
X10313991Y-15717555D02*
X10142563Y-15974698D01*
X10571134Y-15727079D02*
X10590182Y-15727079D01*
X10590182Y-15727079D02*
X10609229Y-15736603D01*
X10609229Y-15736603D02*
X10618753Y-15746126D01*
X10618753Y-15746126D02*
X10628277Y-15765174D01*
X10628277Y-15765174D02*
X10637801Y-15803269D01*
X10637801Y-15803269D02*
X10637801Y-15850888D01*
X10637801Y-15850888D02*
X10628277Y-15888984D01*
X10628277Y-15888984D02*
X10618753Y-15908031D01*
X10618753Y-15908031D02*
X10609229Y-15917555D01*
X10609229Y-15917555D02*
X10590182Y-15927079D01*
X10590182Y-15927079D02*
X10571134Y-15927079D01*
X10571134Y-15927079D02*
X10552087Y-15917555D01*
X10552087Y-15917555D02*
X10542563Y-15908031D01*
X10542563Y-15908031D02*
X10533039Y-15888984D01*
X10533039Y-15888984D02*
X10523515Y-15850888D01*
X10523515Y-15850888D02*
X10523515Y-15803269D01*
X10523515Y-15803269D02*
X10533039Y-15765174D01*
X10533039Y-15765174D02*
X10542563Y-15746126D01*
X10542563Y-15746126D02*
X10552087Y-15736603D01*
X10552087Y-15736603D02*
X10571134Y-15727079D01*
X10723515Y-15908031D02*
X10733039Y-15917555D01*
X10733039Y-15917555D02*
X10723515Y-15927079D01*
X10723515Y-15927079D02*
X10713991Y-15917555D01*
X10713991Y-15917555D02*
X10723515Y-15908031D01*
X10723515Y-15908031D02*
X10723515Y-15927079D01*
X10923515Y-15927079D02*
X10809229Y-15927079D01*
X10866372Y-15927079D02*
X10866372Y-15727079D01*
X10866372Y-15727079D02*
X10847325Y-15755650D01*
X10847325Y-15755650D02*
X10828277Y-15774698D01*
X10828277Y-15774698D02*
X10809229Y-15784222D01*
X11047325Y-15727079D02*
X11066372Y-15727079D01*
X11066372Y-15727079D02*
X11085420Y-15736603D01*
X11085420Y-15736603D02*
X11094944Y-15746126D01*
X11094944Y-15746126D02*
X11104468Y-15765174D01*
X11104468Y-15765174D02*
X11113991Y-15803269D01*
X11113991Y-15803269D02*
X11113991Y-15850888D01*
X11113991Y-15850888D02*
X11104468Y-15888984D01*
X11104468Y-15888984D02*
X11094944Y-15908031D01*
X11094944Y-15908031D02*
X11085420Y-15917555D01*
X11085420Y-15917555D02*
X11066372Y-15927079D01*
X11066372Y-15927079D02*
X11047325Y-15927079D01*
X11047325Y-15927079D02*
X11028277Y-15917555D01*
X11028277Y-15917555D02*
X11018753Y-15908031D01*
X11018753Y-15908031D02*
X11009229Y-15888984D01*
X11009229Y-15888984D02*
X10999706Y-15850888D01*
X10999706Y-15850888D02*
X10999706Y-15803269D01*
X10999706Y-15803269D02*
X11009229Y-15765174D01*
X11009229Y-15765174D02*
X11018753Y-15746126D01*
X11018753Y-15746126D02*
X11028277Y-15736603D01*
X11028277Y-15736603D02*
X11047325Y-15727079D01*
X11209229Y-15927079D02*
X11247325Y-15927079D01*
X11247325Y-15927079D02*
X11266372Y-15917555D01*
X11266372Y-15917555D02*
X11275896Y-15908031D01*
X11275896Y-15908031D02*
X11294944Y-15879460D01*
X11294944Y-15879460D02*
X11304467Y-15841365D01*
X11304467Y-15841365D02*
X11304467Y-15765174D01*
X11304467Y-15765174D02*
X11294944Y-15746126D01*
X11294944Y-15746126D02*
X11285420Y-15736603D01*
X11285420Y-15736603D02*
X11266372Y-15727079D01*
X11266372Y-15727079D02*
X11228277Y-15727079D01*
X11228277Y-15727079D02*
X11209229Y-15736603D01*
X11209229Y-15736603D02*
X11199706Y-15746126D01*
X11199706Y-15746126D02*
X11190182Y-15765174D01*
X11190182Y-15765174D02*
X11190182Y-15812793D01*
X11190182Y-15812793D02*
X11199706Y-15831841D01*
X11199706Y-15831841D02*
X11209229Y-15841365D01*
X11209229Y-15841365D02*
X11228277Y-15850888D01*
X11228277Y-15850888D02*
X11266372Y-15850888D01*
X11266372Y-15850888D02*
X11285420Y-15841365D01*
X11285420Y-15841365D02*
X11294944Y-15831841D01*
X11294944Y-15831841D02*
X11304467Y-15812793D01*
X11494944Y-15927079D02*
X11380658Y-15927079D01*
X11437801Y-15927079D02*
X11437801Y-15727079D01*
X11437801Y-15727079D02*
X11418753Y-15755650D01*
X11418753Y-15755650D02*
X11399706Y-15774698D01*
X11399706Y-15774698D02*
X11380658Y-15784222D01*
X11571134Y-15727079D02*
X11571134Y-15765174D01*
X11647325Y-15727079D02*
X11647325Y-15765174D01*
X11942563Y-16003269D02*
X11933039Y-15993745D01*
X11933039Y-15993745D02*
X11913991Y-15965174D01*
X11913991Y-15965174D02*
X11904468Y-15946126D01*
X11904468Y-15946126D02*
X11894944Y-15917555D01*
X11894944Y-15917555D02*
X11885420Y-15869936D01*
X11885420Y-15869936D02*
X11885420Y-15831841D01*
X11885420Y-15831841D02*
X11894944Y-15784222D01*
X11894944Y-15784222D02*
X11904468Y-15755650D01*
X11904468Y-15755650D02*
X11913991Y-15736603D01*
X11913991Y-15736603D02*
X11933039Y-15708031D01*
X11933039Y-15708031D02*
X11942563Y-15698507D01*
X12009229Y-15746126D02*
X12018753Y-15736603D01*
X12018753Y-15736603D02*
X12037801Y-15727079D01*
X12037801Y-15727079D02*
X12085420Y-15727079D01*
X12085420Y-15727079D02*
X12104468Y-15736603D01*
X12104468Y-15736603D02*
X12113991Y-15746126D01*
X12113991Y-15746126D02*
X12123515Y-15765174D01*
X12123515Y-15765174D02*
X12123515Y-15784222D01*
X12123515Y-15784222D02*
X12113991Y-15812793D01*
X12113991Y-15812793D02*
X11999706Y-15927079D01*
X11999706Y-15927079D02*
X12123515Y-15927079D01*
X12361610Y-15927079D02*
X12361610Y-15727079D01*
X12447325Y-15927079D02*
X12447325Y-15822317D01*
X12447325Y-15822317D02*
X12437801Y-15803269D01*
X12437801Y-15803269D02*
X12418753Y-15793745D01*
X12418753Y-15793745D02*
X12390182Y-15793745D01*
X12390182Y-15793745D02*
X12371134Y-15803269D01*
X12371134Y-15803269D02*
X12361610Y-15812793D01*
X12571134Y-15927079D02*
X12552087Y-15917555D01*
X12552087Y-15917555D02*
X12542563Y-15908031D01*
X12542563Y-15908031D02*
X12533039Y-15888984D01*
X12533039Y-15888984D02*
X12533039Y-15831841D01*
X12533039Y-15831841D02*
X12542563Y-15812793D01*
X12542563Y-15812793D02*
X12552087Y-15803269D01*
X12552087Y-15803269D02*
X12571134Y-15793745D01*
X12571134Y-15793745D02*
X12599706Y-15793745D01*
X12599706Y-15793745D02*
X12618753Y-15803269D01*
X12618753Y-15803269D02*
X12628277Y-15812793D01*
X12628277Y-15812793D02*
X12637801Y-15831841D01*
X12637801Y-15831841D02*
X12637801Y-15888984D01*
X12637801Y-15888984D02*
X12628277Y-15908031D01*
X12628277Y-15908031D02*
X12618753Y-15917555D01*
X12618753Y-15917555D02*
X12599706Y-15927079D01*
X12599706Y-15927079D02*
X12571134Y-15927079D01*
X12752087Y-15927079D02*
X12733039Y-15917555D01*
X12733039Y-15917555D02*
X12723515Y-15898507D01*
X12723515Y-15898507D02*
X12723515Y-15727079D01*
X12904468Y-15917555D02*
X12885420Y-15927079D01*
X12885420Y-15927079D02*
X12847325Y-15927079D01*
X12847325Y-15927079D02*
X12828277Y-15917555D01*
X12828277Y-15917555D02*
X12818753Y-15898507D01*
X12818753Y-15898507D02*
X12818753Y-15822317D01*
X12818753Y-15822317D02*
X12828277Y-15803269D01*
X12828277Y-15803269D02*
X12847325Y-15793745D01*
X12847325Y-15793745D02*
X12885420Y-15793745D01*
X12885420Y-15793745D02*
X12904468Y-15803269D01*
X12904468Y-15803269D02*
X12913991Y-15822317D01*
X12913991Y-15822317D02*
X12913991Y-15841365D01*
X12913991Y-15841365D02*
X12818753Y-15860412D01*
X12990182Y-15917555D02*
X13009230Y-15927079D01*
X13009230Y-15927079D02*
X13047325Y-15927079D01*
X13047325Y-15927079D02*
X13066372Y-15917555D01*
X13066372Y-15917555D02*
X13075896Y-15898507D01*
X13075896Y-15898507D02*
X13075896Y-15888984D01*
X13075896Y-15888984D02*
X13066372Y-15869936D01*
X13066372Y-15869936D02*
X13047325Y-15860412D01*
X13047325Y-15860412D02*
X13018753Y-15860412D01*
X13018753Y-15860412D02*
X12999706Y-15850888D01*
X12999706Y-15850888D02*
X12990182Y-15831841D01*
X12990182Y-15831841D02*
X12990182Y-15822317D01*
X12990182Y-15822317D02*
X12999706Y-15803269D01*
X12999706Y-15803269D02*
X13018753Y-15793745D01*
X13018753Y-15793745D02*
X13047325Y-15793745D01*
X13047325Y-15793745D02*
X13066372Y-15803269D01*
X13142563Y-16003269D02*
X13152087Y-15993745D01*
X13152087Y-15993745D02*
X13171134Y-15965174D01*
X13171134Y-15965174D02*
X13180658Y-15946126D01*
X13180658Y-15946126D02*
X13190182Y-15917555D01*
X13190182Y-15917555D02*
X13199706Y-15869936D01*
X13199706Y-15869936D02*
X13199706Y-15831841D01*
X13199706Y-15831841D02*
X13190182Y-15784222D01*
X13190182Y-15784222D02*
X13180658Y-15755650D01*
X13180658Y-15755650D02*
X13171134Y-15736603D01*
X13171134Y-15736603D02*
X13152087Y-15708031D01*
X13152087Y-15708031D02*
X13142563Y-15698507D01*
M02*
