%TF.GenerationSoftware,KiCad,Pcbnew,7.0.9*%
%TF.CreationDate,2023-12-22T14:38:46+09:00*%
%TF.ProjectId,Dev_IO_Board,4465765f-494f-45f4-926f-6172642e6b69,rev?*%
%TF.SameCoordinates,Original*%
%TF.FileFunction,Drillmap*%
%TF.FilePolarity,Positive*%
%FSLAX45Y45*%
G04 Gerber Fmt 4.5, Leading zero omitted, Abs format (unit mm)*
G04 Created by KiCad (PCBNEW 7.0.9) date 2023-12-22 14:38:46*
%MOMM*%
%LPD*%
G01*
G04 APERTURE LIST*
%ADD10C,0.100000*%
%ADD11C,0.200000*%
G04 APERTURE END LIST*
D10*
X6804000Y-6858000D02*
G75*
G03*
X6604000Y-7058000I0J-200000D01*
G01*
X6604000Y-15421000D02*
G75*
G03*
X6804000Y-15621000I200000J0D01*
G01*
X6604000Y-15421000D02*
X6604000Y-7058000D01*
X19304000Y-7058000D02*
G75*
G03*
X19104000Y-6858000I-200000J0D01*
G01*
X6804000Y-6858000D02*
X19104000Y-6858000D01*
X19104000Y-15621000D02*
G75*
G03*
X19304000Y-15421000I0J200000D01*
G01*
X19104000Y-15621000D02*
X6804000Y-15621000D01*
X19304000Y-7058000D02*
X19304000Y-15421000D01*
D11*
X6859777Y-15937484D02*
X6859777Y-15737484D01*
X6859777Y-15737484D02*
X6907396Y-15737484D01*
X6907396Y-15737484D02*
X6935967Y-15747008D01*
X6935967Y-15747008D02*
X6955015Y-15766055D01*
X6955015Y-15766055D02*
X6964539Y-15785103D01*
X6964539Y-15785103D02*
X6974062Y-15823198D01*
X6974062Y-15823198D02*
X6974062Y-15851769D01*
X6974062Y-15851769D02*
X6964539Y-15889865D01*
X6964539Y-15889865D02*
X6955015Y-15908912D01*
X6955015Y-15908912D02*
X6935967Y-15927960D01*
X6935967Y-15927960D02*
X6907396Y-15937484D01*
X6907396Y-15937484D02*
X6859777Y-15937484D01*
X7059777Y-15937484D02*
X7059777Y-15804150D01*
X7059777Y-15842246D02*
X7069301Y-15823198D01*
X7069301Y-15823198D02*
X7078824Y-15813674D01*
X7078824Y-15813674D02*
X7097872Y-15804150D01*
X7097872Y-15804150D02*
X7116920Y-15804150D01*
X7183586Y-15937484D02*
X7183586Y-15804150D01*
X7183586Y-15737484D02*
X7174062Y-15747008D01*
X7174062Y-15747008D02*
X7183586Y-15756531D01*
X7183586Y-15756531D02*
X7193110Y-15747008D01*
X7193110Y-15747008D02*
X7183586Y-15737484D01*
X7183586Y-15737484D02*
X7183586Y-15756531D01*
X7307396Y-15937484D02*
X7288348Y-15927960D01*
X7288348Y-15927960D02*
X7278824Y-15908912D01*
X7278824Y-15908912D02*
X7278824Y-15737484D01*
X7412158Y-15937484D02*
X7393110Y-15927960D01*
X7393110Y-15927960D02*
X7383586Y-15908912D01*
X7383586Y-15908912D02*
X7383586Y-15737484D01*
X7640729Y-15937484D02*
X7640729Y-15737484D01*
X7640729Y-15737484D02*
X7707396Y-15880341D01*
X7707396Y-15880341D02*
X7774062Y-15737484D01*
X7774062Y-15737484D02*
X7774062Y-15937484D01*
X7955015Y-15937484D02*
X7955015Y-15832722D01*
X7955015Y-15832722D02*
X7945491Y-15813674D01*
X7945491Y-15813674D02*
X7926443Y-15804150D01*
X7926443Y-15804150D02*
X7888348Y-15804150D01*
X7888348Y-15804150D02*
X7869301Y-15813674D01*
X7955015Y-15927960D02*
X7935967Y-15937484D01*
X7935967Y-15937484D02*
X7888348Y-15937484D01*
X7888348Y-15937484D02*
X7869301Y-15927960D01*
X7869301Y-15927960D02*
X7859777Y-15908912D01*
X7859777Y-15908912D02*
X7859777Y-15889865D01*
X7859777Y-15889865D02*
X7869301Y-15870817D01*
X7869301Y-15870817D02*
X7888348Y-15861293D01*
X7888348Y-15861293D02*
X7935967Y-15861293D01*
X7935967Y-15861293D02*
X7955015Y-15851769D01*
X8050253Y-15804150D02*
X8050253Y-16004150D01*
X8050253Y-15813674D02*
X8069301Y-15804150D01*
X8069301Y-15804150D02*
X8107396Y-15804150D01*
X8107396Y-15804150D02*
X8126443Y-15813674D01*
X8126443Y-15813674D02*
X8135967Y-15823198D01*
X8135967Y-15823198D02*
X8145491Y-15842246D01*
X8145491Y-15842246D02*
X8145491Y-15899388D01*
X8145491Y-15899388D02*
X8135967Y-15918436D01*
X8135967Y-15918436D02*
X8126443Y-15927960D01*
X8126443Y-15927960D02*
X8107396Y-15937484D01*
X8107396Y-15937484D02*
X8069301Y-15937484D01*
X8069301Y-15937484D02*
X8050253Y-15927960D01*
X8231205Y-15918436D02*
X8240729Y-15927960D01*
X8240729Y-15927960D02*
X8231205Y-15937484D01*
X8231205Y-15937484D02*
X8221682Y-15927960D01*
X8221682Y-15927960D02*
X8231205Y-15918436D01*
X8231205Y-15918436D02*
X8231205Y-15937484D01*
X8231205Y-15813674D02*
X8240729Y-15823198D01*
X8240729Y-15823198D02*
X8231205Y-15832722D01*
X8231205Y-15832722D02*
X8221682Y-15823198D01*
X8221682Y-15823198D02*
X8231205Y-15813674D01*
X8231205Y-15813674D02*
X8231205Y-15832722D01*
M02*
