%TF.GenerationSoftware,KiCad,Pcbnew,7.0.9*%
%TF.CreationDate,2023-12-22T14:38:42+09:00*%
%TF.ProjectId,Dev_IO_Board,4465765f-494f-45f4-926f-6172642e6b69,rev?*%
%TF.SameCoordinates,Original*%
%TF.FileFunction,Paste,Top*%
%TF.FilePolarity,Positive*%
%FSLAX46Y46*%
G04 Gerber Fmt 4.6, Leading zero omitted, Abs format (unit mm)*
G04 Created by KiCad (PCBNEW 7.0.9) date 2023-12-22 14:38:42*
%MOMM*%
%LPD*%
G01*
G04 APERTURE LIST*
G04 Aperture macros list*
%AMRoundRect*
0 Rectangle with rounded corners*
0 $1 Rounding radius*
0 $2 $3 $4 $5 $6 $7 $8 $9 X,Y pos of 4 corners*
0 Add a 4 corners polygon primitive as box body*
4,1,4,$2,$3,$4,$5,$6,$7,$8,$9,$2,$3,0*
0 Add four circle primitives for the rounded corners*
1,1,$1+$1,$2,$3*
1,1,$1+$1,$4,$5*
1,1,$1+$1,$6,$7*
1,1,$1+$1,$8,$9*
0 Add four rect primitives between the rounded corners*
20,1,$1+$1,$2,$3,$4,$5,0*
20,1,$1+$1,$4,$5,$6,$7,0*
20,1,$1+$1,$6,$7,$8,$9,0*
20,1,$1+$1,$8,$9,$2,$3,0*%
G04 Aperture macros list end*
%ADD10R,1.000000X1.500000*%
%ADD11RoundRect,0.237500X-0.237500X0.250000X-0.237500X-0.250000X0.237500X-0.250000X0.237500X0.250000X0*%
%ADD12R,0.550000X0.350000*%
%ADD13R,0.350000X0.550000*%
%ADD14RoundRect,0.237500X-0.250000X-0.237500X0.250000X-0.237500X0.250000X0.237500X-0.250000X0.237500X0*%
%ADD15RoundRect,0.237500X0.250000X0.237500X-0.250000X0.237500X-0.250000X-0.237500X0.250000X-0.237500X0*%
%ADD16RoundRect,0.150000X-0.587500X-0.150000X0.587500X-0.150000X0.587500X0.150000X-0.587500X0.150000X0*%
%ADD17RoundRect,0.237500X-0.287500X-0.237500X0.287500X-0.237500X0.287500X0.237500X-0.287500X0.237500X0*%
%ADD18RoundRect,0.237500X0.300000X0.237500X-0.300000X0.237500X-0.300000X-0.237500X0.300000X-0.237500X0*%
G04 APERTURE END LIST*
D10*
%TO.C,S8*%
X147030000Y-143070000D03*
X147030000Y-151570000D03*
X142530000Y-143070000D03*
X142530000Y-151570000D03*
%TD*%
%TO.C,S7*%
X136870000Y-143070000D03*
X136870000Y-151570000D03*
X132370000Y-143070000D03*
X132370000Y-151570000D03*
%TD*%
%TO.C,S6*%
X126710000Y-143070000D03*
X126710000Y-151570000D03*
X122210000Y-143070000D03*
X122210000Y-151570000D03*
%TD*%
%TO.C,S5*%
X116550000Y-143070000D03*
X116550000Y-151570000D03*
X112050000Y-143070000D03*
X112050000Y-151570000D03*
%TD*%
%TO.C,S4*%
X106390000Y-143070000D03*
X106390000Y-151570000D03*
X101890000Y-143070000D03*
X101890000Y-151570000D03*
%TD*%
%TO.C,S3*%
X96230000Y-143070000D03*
X96230000Y-151570000D03*
X91730000Y-143070000D03*
X91730000Y-151570000D03*
%TD*%
%TO.C,S2*%
X86070000Y-143070000D03*
X86070000Y-151570000D03*
X81570000Y-143070000D03*
X81570000Y-151570000D03*
%TD*%
%TO.C,S1*%
X75910000Y-143070000D03*
X75910000Y-151570000D03*
X71410000Y-143070000D03*
X71410000Y-151570000D03*
%TD*%
D11*
%TO.C,R29*%
X186055000Y-116562500D03*
X186055000Y-118387500D03*
%TD*%
%TO.C,R28*%
X172085000Y-116562500D03*
X172085000Y-118387500D03*
%TD*%
D12*
%TO.C,U1*%
X165145000Y-121920000D03*
X165145000Y-121420000D03*
X165145000Y-120920000D03*
X165145000Y-122420000D03*
X165145000Y-122920000D03*
D13*
X166370000Y-120695000D03*
X165870000Y-120695000D03*
X166870000Y-120695000D03*
D12*
X167595000Y-121920000D03*
X167595000Y-122420000D03*
X167595000Y-122920000D03*
X167595000Y-121420000D03*
X167595000Y-120920000D03*
D13*
X165870000Y-123145000D03*
X166370000Y-123145000D03*
X166870000Y-123145000D03*
%TD*%
D14*
%TO.C,R27*%
X175260000Y-129540000D03*
X177085000Y-129540000D03*
%TD*%
%TO.C,R26*%
X180340000Y-137160000D03*
X182165000Y-137160000D03*
%TD*%
D11*
%TO.C,R25*%
X147320000Y-137160000D03*
X147320000Y-138985000D03*
%TD*%
%TO.C,R24*%
X137160000Y-137160000D03*
X137160000Y-138985000D03*
%TD*%
%TO.C,R23*%
X127000000Y-137160000D03*
X127000000Y-138985000D03*
%TD*%
%TO.C,R22*%
X116840000Y-137160000D03*
X116840000Y-138985000D03*
%TD*%
%TO.C,R21*%
X106680000Y-137160000D03*
X106680000Y-138985000D03*
%TD*%
%TO.C,R20*%
X96520000Y-137160000D03*
X96520000Y-138985000D03*
%TD*%
%TO.C,R19*%
X86360000Y-137160000D03*
X86360000Y-138985000D03*
%TD*%
%TO.C,R18*%
X76200000Y-137160000D03*
X76200000Y-138985000D03*
%TD*%
%TO.C,R17*%
X162560000Y-133707500D03*
X162560000Y-135532500D03*
%TD*%
D15*
%TO.C,R16*%
X147320000Y-124460000D03*
X145495000Y-124460000D03*
%TD*%
%TO.C,R15*%
X137160000Y-124460000D03*
X135335000Y-124460000D03*
%TD*%
%TO.C,R14*%
X127000000Y-124460000D03*
X125175000Y-124460000D03*
%TD*%
%TO.C,R13*%
X116840000Y-124460000D03*
X115015000Y-124460000D03*
%TD*%
%TO.C,R12*%
X106680000Y-124460000D03*
X104855000Y-124460000D03*
%TD*%
%TO.C,R11*%
X96520000Y-124460000D03*
X94695000Y-124460000D03*
%TD*%
%TO.C,R10*%
X86360000Y-124460000D03*
X84535000Y-124460000D03*
%TD*%
%TO.C,R9*%
X77112500Y-124460000D03*
X75287500Y-124460000D03*
%TD*%
D11*
%TO.C,R8*%
X147320000Y-128627500D03*
X147320000Y-130452500D03*
%TD*%
%TO.C,R7*%
X137160000Y-128627500D03*
X137160000Y-130452500D03*
%TD*%
%TO.C,R6*%
X127000000Y-128627500D03*
X127000000Y-130452500D03*
%TD*%
%TO.C,R5*%
X116840000Y-128627500D03*
X116840000Y-130452500D03*
%TD*%
%TO.C,R4*%
X106680000Y-128627500D03*
X106680000Y-130452500D03*
%TD*%
%TO.C,R3*%
X96520000Y-128627500D03*
X96520000Y-130452500D03*
%TD*%
%TO.C,R2*%
X86360000Y-128627500D03*
X86360000Y-130452500D03*
%TD*%
%TO.C,R1*%
X76200000Y-128627500D03*
X76200000Y-130452500D03*
%TD*%
D16*
%TO.C,Q9*%
X177800000Y-132080000D03*
X177800000Y-133980000D03*
X179675000Y-133030000D03*
%TD*%
%TO.C,Q8*%
X142240000Y-129540000D03*
X142240000Y-131440000D03*
X144115000Y-130490000D03*
%TD*%
%TO.C,Q7*%
X132080000Y-129540000D03*
X132080000Y-131440000D03*
X133955000Y-130490000D03*
%TD*%
%TO.C,Q6*%
X121920000Y-129540000D03*
X121920000Y-131440000D03*
X123795000Y-130490000D03*
%TD*%
%TO.C,Q5*%
X111760000Y-129540000D03*
X111760000Y-131440000D03*
X113635000Y-130490000D03*
%TD*%
%TO.C,Q4*%
X101600000Y-129540000D03*
X101600000Y-131440000D03*
X103475000Y-130490000D03*
%TD*%
%TO.C,Q3*%
X91440000Y-129540000D03*
X91440000Y-131440000D03*
X93315000Y-130490000D03*
%TD*%
%TO.C,Q2*%
X81280000Y-129540000D03*
X81280000Y-131440000D03*
X83155000Y-130490000D03*
%TD*%
%TO.C,Q1*%
X71120000Y-129540000D03*
X71120000Y-131440000D03*
X72995000Y-130490000D03*
%TD*%
D17*
%TO.C,D9*%
X143905000Y-134620000D03*
X145655000Y-134620000D03*
%TD*%
%TO.C,D8*%
X133745000Y-134620000D03*
X135495000Y-134620000D03*
%TD*%
%TO.C,D7*%
X123585000Y-134620000D03*
X125335000Y-134620000D03*
%TD*%
%TO.C,D6*%
X113425000Y-134620000D03*
X115175000Y-134620000D03*
%TD*%
%TO.C,D5*%
X103265000Y-134620000D03*
X105015000Y-134620000D03*
%TD*%
%TO.C,D4*%
X93105000Y-134620000D03*
X94855000Y-134620000D03*
%TD*%
%TO.C,D3*%
X82945000Y-134620000D03*
X84695000Y-134620000D03*
%TD*%
%TO.C,D1*%
X74535000Y-134620000D03*
X72785000Y-134620000D03*
%TD*%
D18*
%TO.C,C9*%
X159157500Y-137160000D03*
X160882500Y-137160000D03*
%TD*%
%TO.C,C8*%
X143102500Y-124460000D03*
X141377500Y-124460000D03*
%TD*%
%TO.C,C7*%
X132942500Y-124460000D03*
X131217500Y-124460000D03*
%TD*%
%TO.C,C6*%
X122782500Y-124460000D03*
X121057500Y-124460000D03*
%TD*%
%TO.C,C5*%
X112622500Y-124460000D03*
X110897500Y-124460000D03*
%TD*%
%TO.C,C4*%
X102462500Y-124460000D03*
X100737500Y-124460000D03*
%TD*%
%TO.C,C3*%
X92302500Y-124460000D03*
X90577500Y-124460000D03*
%TD*%
%TO.C,C2*%
X82142500Y-124460000D03*
X80417500Y-124460000D03*
%TD*%
%TO.C,C1*%
X71982500Y-124460000D03*
X70257500Y-124460000D03*
%TD*%
M02*
