%TF.GenerationSoftware,KiCad,Pcbnew,7.0.9*%
%TF.CreationDate,2023-12-22T14:38:46+09:00*%
%TF.ProjectId,Dev_IO_Board,4465765f-494f-45f4-926f-6172642e6b69,rev?*%
%TF.SameCoordinates,Original*%
%TF.FileFunction,Drillmap*%
%TF.FilePolarity,Positive*%
%FSLAX45Y45*%
G04 Gerber Fmt 4.5, Leading zero omitted, Abs format (unit mm)*
G04 Created by KiCad (PCBNEW 7.0.9) date 2023-12-22 14:38:46*
%MOMM*%
%LPD*%
G01*
G04 APERTURE LIST*
%ADD10C,0.100000*%
%ADD11C,0.200000*%
%ADD12C,0.277000*%
G04 APERTURE END LIST*
D10*
X6804000Y-6858000D02*
G75*
G03*
X6604000Y-7058000I0J-200000D01*
G01*
X6604000Y-15421000D02*
G75*
G03*
X6804000Y-15621000I200000J0D01*
G01*
X6604000Y-15421000D02*
X6604000Y-7058000D01*
X19304000Y-7058000D02*
G75*
G03*
X19104000Y-6858000I-200000J0D01*
G01*
X6804000Y-6858000D02*
X19104000Y-6858000D01*
X19104000Y-15621000D02*
G75*
G03*
X19304000Y-15421000I0J200000D01*
G01*
X19104000Y-15621000D02*
X6804000Y-15621000D01*
X19304000Y-7058000D02*
X19304000Y-15421000D01*
D11*
D10*
X7600000Y-11537000D02*
X7640000Y-11577000D01*
X7640000Y-11537000D02*
X7600000Y-11577000D01*
X7727000Y-12172000D02*
X7767000Y-12212000D01*
X7767000Y-12172000D02*
X7727000Y-12212000D01*
X7981000Y-13823000D02*
X8021000Y-13863000D01*
X8021000Y-13823000D02*
X7981000Y-13863000D01*
X8616000Y-12172000D02*
X8656000Y-12212000D01*
X8656000Y-12172000D02*
X8616000Y-12212000D01*
X9124000Y-13823000D02*
X9164000Y-13863000D01*
X9164000Y-13823000D02*
X9124000Y-13863000D01*
X9632000Y-12172000D02*
X9672000Y-12212000D01*
X9672000Y-12172000D02*
X9632000Y-12212000D01*
X9886000Y-14966000D02*
X9926000Y-15006000D01*
X9926000Y-14966000D02*
X9886000Y-15006000D01*
X10140000Y-13823000D02*
X10180000Y-13863000D01*
X10180000Y-13823000D02*
X10140000Y-13863000D01*
X10394000Y-9124000D02*
X10434000Y-9164000D01*
X10434000Y-9124000D02*
X10394000Y-9164000D01*
X10394000Y-11410000D02*
X10434000Y-11450000D01*
X10434000Y-11410000D02*
X10394000Y-11450000D01*
X10521000Y-12172000D02*
X10561000Y-12212000D01*
X10561000Y-12172000D02*
X10521000Y-12212000D01*
X10648000Y-8997000D02*
X10688000Y-9037000D01*
X10688000Y-8997000D02*
X10648000Y-9037000D01*
X10775000Y-11918000D02*
X10815000Y-11958000D01*
X10815000Y-11918000D02*
X10775000Y-11958000D01*
X10902000Y-8997000D02*
X10942000Y-9037000D01*
X10942000Y-8997000D02*
X10902000Y-9037000D01*
X11156000Y-13823000D02*
X11196000Y-13863000D01*
X11196000Y-13823000D02*
X11156000Y-13863000D01*
X11283000Y-10140000D02*
X11323000Y-10180000D01*
X11323000Y-10140000D02*
X11283000Y-10180000D01*
X11410000Y-8743000D02*
X11450000Y-8783000D01*
X11450000Y-8743000D02*
X11410000Y-8783000D01*
X11410000Y-8997000D02*
X11450000Y-9037000D01*
X11450000Y-8997000D02*
X11410000Y-9037000D01*
X11410000Y-11537000D02*
X11450000Y-11577000D01*
X11450000Y-11537000D02*
X11410000Y-11577000D01*
X11537000Y-12172000D02*
X11577000Y-12212000D01*
X11577000Y-12172000D02*
X11537000Y-12212000D01*
X11918000Y-12045000D02*
X11958000Y-12085000D01*
X11958000Y-12045000D02*
X11918000Y-12085000D01*
X12172000Y-11410000D02*
X12212000Y-11450000D01*
X12212000Y-11410000D02*
X12172000Y-11450000D01*
X12172000Y-13823000D02*
X12212000Y-13863000D01*
X12212000Y-13823000D02*
X12172000Y-13863000D01*
X12426000Y-12172000D02*
X12466000Y-12212000D01*
X12466000Y-12172000D02*
X12426000Y-12212000D01*
X13061000Y-13823000D02*
X13101000Y-13863000D01*
X13101000Y-13823000D02*
X13061000Y-13863000D01*
X13188000Y-8616000D02*
X13228000Y-8656000D01*
X13228000Y-8616000D02*
X13188000Y-8656000D01*
X13188000Y-8870000D02*
X13228000Y-8910000D01*
X13228000Y-8870000D02*
X13188000Y-8910000D01*
X13188000Y-11664000D02*
X13228000Y-11704000D01*
X13228000Y-11664000D02*
X13188000Y-11704000D01*
X13315000Y-12680000D02*
X13355000Y-12720000D01*
X13355000Y-12680000D02*
X13315000Y-12720000D01*
X13823000Y-12680000D02*
X13863000Y-12720000D01*
X13863000Y-12680000D02*
X13823000Y-12720000D01*
X14077000Y-11410000D02*
X14117000Y-11450000D01*
X14117000Y-11410000D02*
X14077000Y-11450000D01*
X14077000Y-13823000D02*
X14117000Y-13863000D01*
X14117000Y-13823000D02*
X14077000Y-13863000D01*
X14204000Y-8997000D02*
X14244000Y-9037000D01*
X14244000Y-8997000D02*
X14204000Y-9037000D01*
X14458000Y-9124000D02*
X14498000Y-9164000D01*
X14498000Y-9124000D02*
X14458000Y-9164000D01*
X14585000Y-12172000D02*
X14625000Y-12212000D01*
X14625000Y-12172000D02*
X14585000Y-12212000D01*
X14712000Y-9251000D02*
X14752000Y-9291000D01*
X14752000Y-9251000D02*
X14712000Y-9291000D01*
X16109000Y-12172000D02*
X16149000Y-12212000D01*
X16149000Y-12172000D02*
X16109000Y-12212000D01*
X16236000Y-11918000D02*
X16276000Y-11958000D01*
X16276000Y-11918000D02*
X16236000Y-11958000D01*
X16299500Y-11600500D02*
X16339500Y-11640500D01*
X16339500Y-11600500D02*
X16299500Y-11640500D01*
X16617000Y-11664000D02*
X16657000Y-11704000D01*
X16657000Y-11664000D02*
X16617000Y-11704000D01*
X16744000Y-12680000D02*
X16784000Y-12720000D01*
X16784000Y-12680000D02*
X16744000Y-12720000D01*
X16740500Y-9830250D02*
G75*
G03*
X16740500Y-9830250I-40000J0D01*
G01*
X16740500Y-11354250D02*
G75*
G03*
X16740500Y-11354250I-40000J0D01*
G01*
X16867500Y-7365500D02*
G75*
G03*
X16867500Y-7365500I-40000J0D01*
G01*
X16867500Y-7619500D02*
G75*
G03*
X16867500Y-7619500I-40000J0D01*
G01*
X16867500Y-7873500D02*
G75*
G03*
X16867500Y-7873500I-40000J0D01*
G01*
X16867500Y-8127500D02*
G75*
G03*
X16867500Y-8127500I-40000J0D01*
G01*
X16867500Y-8381500D02*
G75*
G03*
X16867500Y-8381500I-40000J0D01*
G01*
X16867500Y-8635500D02*
G75*
G03*
X16867500Y-8635500I-40000J0D01*
G01*
X16867500Y-8889500D02*
G75*
G03*
X16867500Y-8889500I-40000J0D01*
G01*
X16994500Y-9830250D02*
G75*
G03*
X16994500Y-9830250I-40000J0D01*
G01*
X16994500Y-11354250D02*
G75*
G03*
X16994500Y-11354250I-40000J0D01*
G01*
X17248500Y-9830250D02*
G75*
G03*
X17248500Y-9830250I-40000J0D01*
G01*
X17248500Y-11354250D02*
G75*
G03*
X17248500Y-11354250I-40000J0D01*
G01*
X17502500Y-9830250D02*
G75*
G03*
X17502500Y-9830250I-40000J0D01*
G01*
X17502500Y-11354250D02*
G75*
G03*
X17502500Y-11354250I-40000J0D01*
G01*
X17629500Y-7365500D02*
G75*
G03*
X17629500Y-7365500I-40000J0D01*
G01*
X17629500Y-7619500D02*
G75*
G03*
X17629500Y-7619500I-40000J0D01*
G01*
X17629500Y-7873500D02*
G75*
G03*
X17629500Y-7873500I-40000J0D01*
G01*
X17629500Y-8127500D02*
G75*
G03*
X17629500Y-8127500I-40000J0D01*
G01*
X17629500Y-8381500D02*
G75*
G03*
X17629500Y-8381500I-40000J0D01*
G01*
X17629500Y-8635500D02*
G75*
G03*
X17629500Y-8635500I-40000J0D01*
G01*
X17629500Y-8889500D02*
G75*
G03*
X17629500Y-8889500I-40000J0D01*
G01*
X17756500Y-9830250D02*
G75*
G03*
X17756500Y-9830250I-40000J0D01*
G01*
X17756500Y-11354250D02*
G75*
G03*
X17756500Y-11354250I-40000J0D01*
G01*
X18137500Y-9830250D02*
G75*
G03*
X18137500Y-9830250I-40000J0D01*
G01*
X18137500Y-11354250D02*
G75*
G03*
X18137500Y-11354250I-40000J0D01*
G01*
X18265500Y-7365500D02*
G75*
G03*
X18265500Y-7365500I-40000J0D01*
G01*
X18265500Y-7619500D02*
G75*
G03*
X18265500Y-7619500I-40000J0D01*
G01*
X18265500Y-7873500D02*
G75*
G03*
X18265500Y-7873500I-40000J0D01*
G01*
X18265500Y-8127500D02*
G75*
G03*
X18265500Y-8127500I-40000J0D01*
G01*
X18265500Y-8381500D02*
G75*
G03*
X18265500Y-8381500I-40000J0D01*
G01*
X18265500Y-8635500D02*
G75*
G03*
X18265500Y-8635500I-40000J0D01*
G01*
X18265500Y-8889500D02*
G75*
G03*
X18265500Y-8889500I-40000J0D01*
G01*
X18391500Y-9830250D02*
G75*
G03*
X18391500Y-9830250I-40000J0D01*
G01*
X18391500Y-11354250D02*
G75*
G03*
X18391500Y-11354250I-40000J0D01*
G01*
X18645500Y-9830250D02*
G75*
G03*
X18645500Y-9830250I-40000J0D01*
G01*
X18645500Y-11354250D02*
G75*
G03*
X18645500Y-11354250I-40000J0D01*
G01*
X18899500Y-9830250D02*
G75*
G03*
X18899500Y-9830250I-40000J0D01*
G01*
X18899500Y-11354250D02*
G75*
G03*
X18899500Y-11354250I-40000J0D01*
G01*
X19027500Y-7365500D02*
G75*
G03*
X19027500Y-7365500I-40000J0D01*
G01*
X19027500Y-7619500D02*
G75*
G03*
X19027500Y-7619500I-40000J0D01*
G01*
X19027500Y-7873500D02*
G75*
G03*
X19027500Y-7873500I-40000J0D01*
G01*
X19027500Y-8127500D02*
G75*
G03*
X19027500Y-8127500I-40000J0D01*
G01*
X19027500Y-8381500D02*
G75*
G03*
X19027500Y-8381500I-40000J0D01*
G01*
X19027500Y-8635500D02*
G75*
G03*
X19027500Y-8635500I-40000J0D01*
G01*
X19027500Y-8889500D02*
G75*
G03*
X19027500Y-8889500I-40000J0D01*
G01*
X19153500Y-9830250D02*
G75*
G03*
X19153500Y-9830250I-40000J0D01*
G01*
X19153500Y-11354250D02*
G75*
G03*
X19153500Y-11354250I-40000J0D01*
G01*
X10414000Y-7443000D02*
X10414000Y-7543000D01*
X10364000Y-7493000D02*
X10464000Y-7493000D01*
X10414000Y-10618000D02*
X10414000Y-10718000D01*
X10364000Y-10668000D02*
X10464000Y-10668000D01*
X10668000Y-7443000D02*
X10668000Y-7543000D01*
X10618000Y-7493000D02*
X10718000Y-7493000D01*
X10668000Y-10618000D02*
X10668000Y-10718000D01*
X10618000Y-10668000D02*
X10718000Y-10668000D01*
X10922000Y-7443000D02*
X10922000Y-7543000D01*
X10872000Y-7493000D02*
X10972000Y-7493000D01*
X10922000Y-10618000D02*
X10922000Y-10718000D01*
X10872000Y-10668000D02*
X10972000Y-10668000D01*
X11176000Y-7443000D02*
X11176000Y-7543000D01*
X11126000Y-7493000D02*
X11226000Y-7493000D01*
X11176000Y-10618000D02*
X11176000Y-10718000D01*
X11126000Y-10668000D02*
X11226000Y-10668000D01*
X11430000Y-7443000D02*
X11430000Y-7543000D01*
X11380000Y-7493000D02*
X11480000Y-7493000D01*
X11430000Y-10618000D02*
X11430000Y-10718000D01*
X11380000Y-10668000D02*
X11480000Y-10668000D01*
X11684000Y-7443000D02*
X11684000Y-7543000D01*
X11634000Y-7493000D02*
X11734000Y-7493000D01*
X11684000Y-10618000D02*
X11684000Y-10718000D01*
X11634000Y-10668000D02*
X11734000Y-10668000D01*
X11938000Y-7443000D02*
X11938000Y-7543000D01*
X11888000Y-7493000D02*
X11988000Y-7493000D01*
X11938000Y-10618000D02*
X11938000Y-10718000D01*
X11888000Y-10668000D02*
X11988000Y-10668000D01*
X12192000Y-7443000D02*
X12192000Y-7543000D01*
X12142000Y-7493000D02*
X12242000Y-7493000D01*
X12192000Y-10618000D02*
X12192000Y-10718000D01*
X12142000Y-10668000D02*
X12242000Y-10668000D01*
X12446000Y-7443000D02*
X12446000Y-7543000D01*
X12396000Y-7493000D02*
X12496000Y-7493000D01*
X12446000Y-10618000D02*
X12446000Y-10718000D01*
X12396000Y-10668000D02*
X12496000Y-10668000D01*
X12700000Y-7443000D02*
X12700000Y-7543000D01*
X12650000Y-7493000D02*
X12750000Y-7493000D01*
X12700000Y-10618000D02*
X12700000Y-10718000D01*
X12650000Y-10668000D02*
X12750000Y-10668000D01*
X12954000Y-7443000D02*
X12954000Y-7543000D01*
X12904000Y-7493000D02*
X13004000Y-7493000D01*
X12954000Y-10618000D02*
X12954000Y-10718000D01*
X12904000Y-10668000D02*
X13004000Y-10668000D01*
X13208000Y-7443000D02*
X13208000Y-7543000D01*
X13158000Y-7493000D02*
X13258000Y-7493000D01*
X13208000Y-10618000D02*
X13208000Y-10718000D01*
X13158000Y-10668000D02*
X13258000Y-10668000D01*
X13462000Y-7443000D02*
X13462000Y-7543000D01*
X13412000Y-7493000D02*
X13512000Y-7493000D01*
X13462000Y-10618000D02*
X13462000Y-10718000D01*
X13412000Y-10668000D02*
X13512000Y-10668000D01*
X13716000Y-7443000D02*
X13716000Y-7543000D01*
X13666000Y-7493000D02*
X13766000Y-7493000D01*
X13716000Y-10618000D02*
X13716000Y-10718000D01*
X13666000Y-10668000D02*
X13766000Y-10668000D01*
X13970000Y-7443000D02*
X13970000Y-7543000D01*
X13920000Y-7493000D02*
X14020000Y-7493000D01*
X13970000Y-10618000D02*
X13970000Y-10718000D01*
X13920000Y-10668000D02*
X14020000Y-10668000D01*
X14224000Y-7443000D02*
X14224000Y-7543000D01*
X14174000Y-7493000D02*
X14274000Y-7493000D01*
X14224000Y-10618000D02*
X14224000Y-10718000D01*
X14174000Y-10668000D02*
X14274000Y-10668000D01*
X14478000Y-7443000D02*
X14478000Y-7543000D01*
X14428000Y-7493000D02*
X14528000Y-7493000D01*
X14478000Y-10618000D02*
X14478000Y-10718000D01*
X14428000Y-10668000D02*
X14528000Y-10668000D01*
X14732000Y-7443000D02*
X14732000Y-7543000D01*
X14682000Y-7493000D02*
X14782000Y-7493000D01*
X14732000Y-10618000D02*
X14732000Y-10718000D01*
X14682000Y-10668000D02*
X14782000Y-10668000D01*
X14986000Y-7443000D02*
X14986000Y-7543000D01*
X14936000Y-7493000D02*
X15036000Y-7493000D01*
X14986000Y-10618000D02*
X14986000Y-10718000D01*
X14936000Y-10668000D02*
X15036000Y-10668000D01*
X15240000Y-7443000D02*
X15240000Y-7543000D01*
X15190000Y-7493000D02*
X15290000Y-7493000D01*
X15240000Y-10618000D02*
X15240000Y-10718000D01*
X15190000Y-10668000D02*
X15290000Y-10668000D01*
X16010000Y-15190000D02*
X16010000Y-15290000D01*
X15960000Y-15240000D02*
X16060000Y-15240000D01*
X16260000Y-15190000D02*
X16260000Y-15290000D01*
X16210000Y-15240000D02*
X16310000Y-15240000D01*
X16510000Y-15190000D02*
X16510000Y-15290000D01*
X16460000Y-15240000D02*
X16560000Y-15240000D01*
X18034000Y-14428000D02*
X18034000Y-14528000D01*
X17984000Y-14478000D02*
X18084000Y-14478000D01*
X18534000Y-14428000D02*
X18534000Y-14528000D01*
X18484000Y-14478000D02*
X18584000Y-14478000D01*
D12*
X15917935Y-14637935D02*
X15917935Y-14442065D01*
X15722065Y-14442065D01*
X15722065Y-14637935D01*
X15917935Y-14637935D01*
X16797935Y-14637935D02*
X16797935Y-14442065D01*
X16602065Y-14442065D01*
X16602065Y-14637935D01*
X16797935Y-14637935D01*
D11*
X6859777Y-15937484D02*
X6859777Y-15737484D01*
X6859777Y-15737484D02*
X6907396Y-15737484D01*
X6907396Y-15737484D02*
X6935967Y-15747008D01*
X6935967Y-15747008D02*
X6955015Y-15766055D01*
X6955015Y-15766055D02*
X6964539Y-15785103D01*
X6964539Y-15785103D02*
X6974062Y-15823198D01*
X6974062Y-15823198D02*
X6974062Y-15851769D01*
X6974062Y-15851769D02*
X6964539Y-15889865D01*
X6964539Y-15889865D02*
X6955015Y-15908912D01*
X6955015Y-15908912D02*
X6935967Y-15927960D01*
X6935967Y-15927960D02*
X6907396Y-15937484D01*
X6907396Y-15937484D02*
X6859777Y-15937484D01*
X7059777Y-15937484D02*
X7059777Y-15804150D01*
X7059777Y-15842246D02*
X7069301Y-15823198D01*
X7069301Y-15823198D02*
X7078824Y-15813674D01*
X7078824Y-15813674D02*
X7097872Y-15804150D01*
X7097872Y-15804150D02*
X7116920Y-15804150D01*
X7183586Y-15937484D02*
X7183586Y-15804150D01*
X7183586Y-15737484D02*
X7174062Y-15747008D01*
X7174062Y-15747008D02*
X7183586Y-15756531D01*
X7183586Y-15756531D02*
X7193110Y-15747008D01*
X7193110Y-15747008D02*
X7183586Y-15737484D01*
X7183586Y-15737484D02*
X7183586Y-15756531D01*
X7307396Y-15937484D02*
X7288348Y-15927960D01*
X7288348Y-15927960D02*
X7278824Y-15908912D01*
X7278824Y-15908912D02*
X7278824Y-15737484D01*
X7412158Y-15937484D02*
X7393110Y-15927960D01*
X7393110Y-15927960D02*
X7383586Y-15908912D01*
X7383586Y-15908912D02*
X7383586Y-15737484D01*
X7640729Y-15937484D02*
X7640729Y-15737484D01*
X7640729Y-15737484D02*
X7707396Y-15880341D01*
X7707396Y-15880341D02*
X7774062Y-15737484D01*
X7774062Y-15737484D02*
X7774062Y-15937484D01*
X7955015Y-15937484D02*
X7955015Y-15832722D01*
X7955015Y-15832722D02*
X7945491Y-15813674D01*
X7945491Y-15813674D02*
X7926443Y-15804150D01*
X7926443Y-15804150D02*
X7888348Y-15804150D01*
X7888348Y-15804150D02*
X7869301Y-15813674D01*
X7955015Y-15927960D02*
X7935967Y-15937484D01*
X7935967Y-15937484D02*
X7888348Y-15937484D01*
X7888348Y-15937484D02*
X7869301Y-15927960D01*
X7869301Y-15927960D02*
X7859777Y-15908912D01*
X7859777Y-15908912D02*
X7859777Y-15889865D01*
X7859777Y-15889865D02*
X7869301Y-15870817D01*
X7869301Y-15870817D02*
X7888348Y-15861293D01*
X7888348Y-15861293D02*
X7935967Y-15861293D01*
X7935967Y-15861293D02*
X7955015Y-15851769D01*
X8050253Y-15804150D02*
X8050253Y-16004150D01*
X8050253Y-15813674D02*
X8069301Y-15804150D01*
X8069301Y-15804150D02*
X8107396Y-15804150D01*
X8107396Y-15804150D02*
X8126443Y-15813674D01*
X8126443Y-15813674D02*
X8135967Y-15823198D01*
X8135967Y-15823198D02*
X8145491Y-15842246D01*
X8145491Y-15842246D02*
X8145491Y-15899388D01*
X8145491Y-15899388D02*
X8135967Y-15918436D01*
X8135967Y-15918436D02*
X8126443Y-15927960D01*
X8126443Y-15927960D02*
X8107396Y-15937484D01*
X8107396Y-15937484D02*
X8069301Y-15937484D01*
X8069301Y-15937484D02*
X8050253Y-15927960D01*
X8231205Y-15918436D02*
X8240729Y-15927960D01*
X8240729Y-15927960D02*
X8231205Y-15937484D01*
X8231205Y-15937484D02*
X8221682Y-15927960D01*
X8221682Y-15927960D02*
X8231205Y-15918436D01*
X8231205Y-15918436D02*
X8231205Y-15937484D01*
X8231205Y-15813674D02*
X8240729Y-15823198D01*
X8240729Y-15823198D02*
X8231205Y-15832722D01*
X8231205Y-15832722D02*
X8221682Y-15823198D01*
X8221682Y-15823198D02*
X8231205Y-15813674D01*
X8231205Y-15813674D02*
X8231205Y-15832722D01*
D10*
X6559000Y-16246000D02*
X6599000Y-16286000D01*
X6599000Y-16246000D02*
X6559000Y-16286000D01*
D11*
X6897872Y-16157484D02*
X6916920Y-16157484D01*
X6916920Y-16157484D02*
X6935967Y-16167008D01*
X6935967Y-16167008D02*
X6945491Y-16176531D01*
X6945491Y-16176531D02*
X6955015Y-16195579D01*
X6955015Y-16195579D02*
X6964539Y-16233674D01*
X6964539Y-16233674D02*
X6964539Y-16281293D01*
X6964539Y-16281293D02*
X6955015Y-16319388D01*
X6955015Y-16319388D02*
X6945491Y-16338436D01*
X6945491Y-16338436D02*
X6935967Y-16347960D01*
X6935967Y-16347960D02*
X6916920Y-16357484D01*
X6916920Y-16357484D02*
X6897872Y-16357484D01*
X6897872Y-16357484D02*
X6878824Y-16347960D01*
X6878824Y-16347960D02*
X6869301Y-16338436D01*
X6869301Y-16338436D02*
X6859777Y-16319388D01*
X6859777Y-16319388D02*
X6850253Y-16281293D01*
X6850253Y-16281293D02*
X6850253Y-16233674D01*
X6850253Y-16233674D02*
X6859777Y-16195579D01*
X6859777Y-16195579D02*
X6869301Y-16176531D01*
X6869301Y-16176531D02*
X6878824Y-16167008D01*
X6878824Y-16167008D02*
X6897872Y-16157484D01*
X7050253Y-16338436D02*
X7059777Y-16347960D01*
X7059777Y-16347960D02*
X7050253Y-16357484D01*
X7050253Y-16357484D02*
X7040729Y-16347960D01*
X7040729Y-16347960D02*
X7050253Y-16338436D01*
X7050253Y-16338436D02*
X7050253Y-16357484D01*
X7231205Y-16224150D02*
X7231205Y-16357484D01*
X7183586Y-16147960D02*
X7135967Y-16290817D01*
X7135967Y-16290817D02*
X7259777Y-16290817D01*
X7374062Y-16157484D02*
X7393110Y-16157484D01*
X7393110Y-16157484D02*
X7412158Y-16167008D01*
X7412158Y-16167008D02*
X7421682Y-16176531D01*
X7421682Y-16176531D02*
X7431205Y-16195579D01*
X7431205Y-16195579D02*
X7440729Y-16233674D01*
X7440729Y-16233674D02*
X7440729Y-16281293D01*
X7440729Y-16281293D02*
X7431205Y-16319388D01*
X7431205Y-16319388D02*
X7421682Y-16338436D01*
X7421682Y-16338436D02*
X7412158Y-16347960D01*
X7412158Y-16347960D02*
X7393110Y-16357484D01*
X7393110Y-16357484D02*
X7374062Y-16357484D01*
X7374062Y-16357484D02*
X7355015Y-16347960D01*
X7355015Y-16347960D02*
X7345491Y-16338436D01*
X7345491Y-16338436D02*
X7335967Y-16319388D01*
X7335967Y-16319388D02*
X7326443Y-16281293D01*
X7326443Y-16281293D02*
X7326443Y-16233674D01*
X7326443Y-16233674D02*
X7335967Y-16195579D01*
X7335967Y-16195579D02*
X7345491Y-16176531D01*
X7345491Y-16176531D02*
X7355015Y-16167008D01*
X7355015Y-16167008D02*
X7374062Y-16157484D01*
X7564539Y-16157484D02*
X7583586Y-16157484D01*
X7583586Y-16157484D02*
X7602634Y-16167008D01*
X7602634Y-16167008D02*
X7612158Y-16176531D01*
X7612158Y-16176531D02*
X7621682Y-16195579D01*
X7621682Y-16195579D02*
X7631205Y-16233674D01*
X7631205Y-16233674D02*
X7631205Y-16281293D01*
X7631205Y-16281293D02*
X7621682Y-16319388D01*
X7621682Y-16319388D02*
X7612158Y-16338436D01*
X7612158Y-16338436D02*
X7602634Y-16347960D01*
X7602634Y-16347960D02*
X7583586Y-16357484D01*
X7583586Y-16357484D02*
X7564539Y-16357484D01*
X7564539Y-16357484D02*
X7545491Y-16347960D01*
X7545491Y-16347960D02*
X7535967Y-16338436D01*
X7535967Y-16338436D02*
X7526443Y-16319388D01*
X7526443Y-16319388D02*
X7516920Y-16281293D01*
X7516920Y-16281293D02*
X7516920Y-16233674D01*
X7516920Y-16233674D02*
X7526443Y-16195579D01*
X7526443Y-16195579D02*
X7535967Y-16176531D01*
X7535967Y-16176531D02*
X7545491Y-16167008D01*
X7545491Y-16167008D02*
X7564539Y-16157484D01*
X7716920Y-16357484D02*
X7716920Y-16224150D01*
X7716920Y-16243198D02*
X7726443Y-16233674D01*
X7726443Y-16233674D02*
X7745491Y-16224150D01*
X7745491Y-16224150D02*
X7774063Y-16224150D01*
X7774063Y-16224150D02*
X7793110Y-16233674D01*
X7793110Y-16233674D02*
X7802634Y-16252722D01*
X7802634Y-16252722D02*
X7802634Y-16357484D01*
X7802634Y-16252722D02*
X7812158Y-16233674D01*
X7812158Y-16233674D02*
X7831205Y-16224150D01*
X7831205Y-16224150D02*
X7859777Y-16224150D01*
X7859777Y-16224150D02*
X7878824Y-16233674D01*
X7878824Y-16233674D02*
X7888348Y-16252722D01*
X7888348Y-16252722D02*
X7888348Y-16357484D01*
X7983586Y-16357484D02*
X7983586Y-16224150D01*
X7983586Y-16243198D02*
X7993110Y-16233674D01*
X7993110Y-16233674D02*
X8012158Y-16224150D01*
X8012158Y-16224150D02*
X8040729Y-16224150D01*
X8040729Y-16224150D02*
X8059777Y-16233674D01*
X8059777Y-16233674D02*
X8069301Y-16252722D01*
X8069301Y-16252722D02*
X8069301Y-16357484D01*
X8069301Y-16252722D02*
X8078824Y-16233674D01*
X8078824Y-16233674D02*
X8097872Y-16224150D01*
X8097872Y-16224150D02*
X8126443Y-16224150D01*
X8126443Y-16224150D02*
X8145491Y-16233674D01*
X8145491Y-16233674D02*
X8155015Y-16252722D01*
X8155015Y-16252722D02*
X8155015Y-16357484D01*
X8545491Y-16147960D02*
X8374063Y-16405103D01*
X8802634Y-16157484D02*
X8821682Y-16157484D01*
X8821682Y-16157484D02*
X8840729Y-16167008D01*
X8840729Y-16167008D02*
X8850253Y-16176531D01*
X8850253Y-16176531D02*
X8859777Y-16195579D01*
X8859777Y-16195579D02*
X8869301Y-16233674D01*
X8869301Y-16233674D02*
X8869301Y-16281293D01*
X8869301Y-16281293D02*
X8859777Y-16319388D01*
X8859777Y-16319388D02*
X8850253Y-16338436D01*
X8850253Y-16338436D02*
X8840729Y-16347960D01*
X8840729Y-16347960D02*
X8821682Y-16357484D01*
X8821682Y-16357484D02*
X8802634Y-16357484D01*
X8802634Y-16357484D02*
X8783587Y-16347960D01*
X8783587Y-16347960D02*
X8774063Y-16338436D01*
X8774063Y-16338436D02*
X8764539Y-16319388D01*
X8764539Y-16319388D02*
X8755015Y-16281293D01*
X8755015Y-16281293D02*
X8755015Y-16233674D01*
X8755015Y-16233674D02*
X8764539Y-16195579D01*
X8764539Y-16195579D02*
X8774063Y-16176531D01*
X8774063Y-16176531D02*
X8783587Y-16167008D01*
X8783587Y-16167008D02*
X8802634Y-16157484D01*
X8955015Y-16338436D02*
X8964539Y-16347960D01*
X8964539Y-16347960D02*
X8955015Y-16357484D01*
X8955015Y-16357484D02*
X8945491Y-16347960D01*
X8945491Y-16347960D02*
X8955015Y-16338436D01*
X8955015Y-16338436D02*
X8955015Y-16357484D01*
X9088348Y-16157484D02*
X9107396Y-16157484D01*
X9107396Y-16157484D02*
X9126444Y-16167008D01*
X9126444Y-16167008D02*
X9135968Y-16176531D01*
X9135968Y-16176531D02*
X9145491Y-16195579D01*
X9145491Y-16195579D02*
X9155015Y-16233674D01*
X9155015Y-16233674D02*
X9155015Y-16281293D01*
X9155015Y-16281293D02*
X9145491Y-16319388D01*
X9145491Y-16319388D02*
X9135968Y-16338436D01*
X9135968Y-16338436D02*
X9126444Y-16347960D01*
X9126444Y-16347960D02*
X9107396Y-16357484D01*
X9107396Y-16357484D02*
X9088348Y-16357484D01*
X9088348Y-16357484D02*
X9069301Y-16347960D01*
X9069301Y-16347960D02*
X9059777Y-16338436D01*
X9059777Y-16338436D02*
X9050253Y-16319388D01*
X9050253Y-16319388D02*
X9040729Y-16281293D01*
X9040729Y-16281293D02*
X9040729Y-16233674D01*
X9040729Y-16233674D02*
X9050253Y-16195579D01*
X9050253Y-16195579D02*
X9059777Y-16176531D01*
X9059777Y-16176531D02*
X9069301Y-16167008D01*
X9069301Y-16167008D02*
X9088348Y-16157484D01*
X9345491Y-16357484D02*
X9231206Y-16357484D01*
X9288348Y-16357484D02*
X9288348Y-16157484D01*
X9288348Y-16157484D02*
X9269301Y-16186055D01*
X9269301Y-16186055D02*
X9250253Y-16205103D01*
X9250253Y-16205103D02*
X9231206Y-16214627D01*
X9526444Y-16157484D02*
X9431206Y-16157484D01*
X9431206Y-16157484D02*
X9421682Y-16252722D01*
X9421682Y-16252722D02*
X9431206Y-16243198D01*
X9431206Y-16243198D02*
X9450253Y-16233674D01*
X9450253Y-16233674D02*
X9497872Y-16233674D01*
X9497872Y-16233674D02*
X9516920Y-16243198D01*
X9516920Y-16243198D02*
X9526444Y-16252722D01*
X9526444Y-16252722D02*
X9535968Y-16271769D01*
X9535968Y-16271769D02*
X9535968Y-16319388D01*
X9535968Y-16319388D02*
X9526444Y-16338436D01*
X9526444Y-16338436D02*
X9516920Y-16347960D01*
X9516920Y-16347960D02*
X9497872Y-16357484D01*
X9497872Y-16357484D02*
X9450253Y-16357484D01*
X9450253Y-16357484D02*
X9431206Y-16347960D01*
X9431206Y-16347960D02*
X9421682Y-16338436D01*
X9602634Y-16157484D02*
X9735968Y-16157484D01*
X9735968Y-16157484D02*
X9650253Y-16357484D01*
X9802634Y-16157484D02*
X9802634Y-16195579D01*
X9878825Y-16157484D02*
X9878825Y-16195579D01*
X10174063Y-16433674D02*
X10164539Y-16424150D01*
X10164539Y-16424150D02*
X10145491Y-16395579D01*
X10145491Y-16395579D02*
X10135968Y-16376531D01*
X10135968Y-16376531D02*
X10126444Y-16347960D01*
X10126444Y-16347960D02*
X10116920Y-16300341D01*
X10116920Y-16300341D02*
X10116920Y-16262246D01*
X10116920Y-16262246D02*
X10126444Y-16214627D01*
X10126444Y-16214627D02*
X10135968Y-16186055D01*
X10135968Y-16186055D02*
X10145491Y-16167008D01*
X10145491Y-16167008D02*
X10164539Y-16138436D01*
X10164539Y-16138436D02*
X10174063Y-16128912D01*
X10335968Y-16224150D02*
X10335968Y-16357484D01*
X10288349Y-16147960D02*
X10240730Y-16290817D01*
X10240730Y-16290817D02*
X10364539Y-16290817D01*
X10545491Y-16357484D02*
X10431206Y-16357484D01*
X10488349Y-16357484D02*
X10488349Y-16157484D01*
X10488349Y-16157484D02*
X10469301Y-16186055D01*
X10469301Y-16186055D02*
X10450253Y-16205103D01*
X10450253Y-16205103D02*
X10431206Y-16214627D01*
X10783587Y-16357484D02*
X10783587Y-16157484D01*
X10869301Y-16357484D02*
X10869301Y-16252722D01*
X10869301Y-16252722D02*
X10859777Y-16233674D01*
X10859777Y-16233674D02*
X10840730Y-16224150D01*
X10840730Y-16224150D02*
X10812158Y-16224150D01*
X10812158Y-16224150D02*
X10793111Y-16233674D01*
X10793111Y-16233674D02*
X10783587Y-16243198D01*
X10993111Y-16357484D02*
X10974063Y-16347960D01*
X10974063Y-16347960D02*
X10964539Y-16338436D01*
X10964539Y-16338436D02*
X10955015Y-16319388D01*
X10955015Y-16319388D02*
X10955015Y-16262246D01*
X10955015Y-16262246D02*
X10964539Y-16243198D01*
X10964539Y-16243198D02*
X10974063Y-16233674D01*
X10974063Y-16233674D02*
X10993111Y-16224150D01*
X10993111Y-16224150D02*
X11021682Y-16224150D01*
X11021682Y-16224150D02*
X11040730Y-16233674D01*
X11040730Y-16233674D02*
X11050253Y-16243198D01*
X11050253Y-16243198D02*
X11059777Y-16262246D01*
X11059777Y-16262246D02*
X11059777Y-16319388D01*
X11059777Y-16319388D02*
X11050253Y-16338436D01*
X11050253Y-16338436D02*
X11040730Y-16347960D01*
X11040730Y-16347960D02*
X11021682Y-16357484D01*
X11021682Y-16357484D02*
X10993111Y-16357484D01*
X11174063Y-16357484D02*
X11155015Y-16347960D01*
X11155015Y-16347960D02*
X11145492Y-16328912D01*
X11145492Y-16328912D02*
X11145492Y-16157484D01*
X11326444Y-16347960D02*
X11307396Y-16357484D01*
X11307396Y-16357484D02*
X11269301Y-16357484D01*
X11269301Y-16357484D02*
X11250253Y-16347960D01*
X11250253Y-16347960D02*
X11240730Y-16328912D01*
X11240730Y-16328912D02*
X11240730Y-16252722D01*
X11240730Y-16252722D02*
X11250253Y-16233674D01*
X11250253Y-16233674D02*
X11269301Y-16224150D01*
X11269301Y-16224150D02*
X11307396Y-16224150D01*
X11307396Y-16224150D02*
X11326444Y-16233674D01*
X11326444Y-16233674D02*
X11335968Y-16252722D01*
X11335968Y-16252722D02*
X11335968Y-16271769D01*
X11335968Y-16271769D02*
X11240730Y-16290817D01*
X11412158Y-16347960D02*
X11431206Y-16357484D01*
X11431206Y-16357484D02*
X11469301Y-16357484D01*
X11469301Y-16357484D02*
X11488349Y-16347960D01*
X11488349Y-16347960D02*
X11497872Y-16328912D01*
X11497872Y-16328912D02*
X11497872Y-16319388D01*
X11497872Y-16319388D02*
X11488349Y-16300341D01*
X11488349Y-16300341D02*
X11469301Y-16290817D01*
X11469301Y-16290817D02*
X11440730Y-16290817D01*
X11440730Y-16290817D02*
X11421682Y-16281293D01*
X11421682Y-16281293D02*
X11412158Y-16262246D01*
X11412158Y-16262246D02*
X11412158Y-16252722D01*
X11412158Y-16252722D02*
X11421682Y-16233674D01*
X11421682Y-16233674D02*
X11440730Y-16224150D01*
X11440730Y-16224150D02*
X11469301Y-16224150D01*
X11469301Y-16224150D02*
X11488349Y-16233674D01*
X11564539Y-16433674D02*
X11574063Y-16424150D01*
X11574063Y-16424150D02*
X11593111Y-16395579D01*
X11593111Y-16395579D02*
X11602634Y-16376531D01*
X11602634Y-16376531D02*
X11612158Y-16347960D01*
X11612158Y-16347960D02*
X11621682Y-16300341D01*
X11621682Y-16300341D02*
X11621682Y-16262246D01*
X11621682Y-16262246D02*
X11612158Y-16214627D01*
X11612158Y-16214627D02*
X11602634Y-16186055D01*
X11602634Y-16186055D02*
X11593111Y-16167008D01*
X11593111Y-16167008D02*
X11574063Y-16138436D01*
X11574063Y-16138436D02*
X11564539Y-16128912D01*
D10*
X6599000Y-16530000D02*
G75*
G03*
X6599000Y-16530000I-40000J0D01*
G01*
D11*
X6897872Y-16421484D02*
X6916920Y-16421484D01*
X6916920Y-16421484D02*
X6935967Y-16431008D01*
X6935967Y-16431008D02*
X6945491Y-16440531D01*
X6945491Y-16440531D02*
X6955015Y-16459579D01*
X6955015Y-16459579D02*
X6964539Y-16497674D01*
X6964539Y-16497674D02*
X6964539Y-16545293D01*
X6964539Y-16545293D02*
X6955015Y-16583388D01*
X6955015Y-16583388D02*
X6945491Y-16602436D01*
X6945491Y-16602436D02*
X6935967Y-16611960D01*
X6935967Y-16611960D02*
X6916920Y-16621484D01*
X6916920Y-16621484D02*
X6897872Y-16621484D01*
X6897872Y-16621484D02*
X6878824Y-16611960D01*
X6878824Y-16611960D02*
X6869301Y-16602436D01*
X6869301Y-16602436D02*
X6859777Y-16583388D01*
X6859777Y-16583388D02*
X6850253Y-16545293D01*
X6850253Y-16545293D02*
X6850253Y-16497674D01*
X6850253Y-16497674D02*
X6859777Y-16459579D01*
X6859777Y-16459579D02*
X6869301Y-16440531D01*
X6869301Y-16440531D02*
X6878824Y-16431008D01*
X6878824Y-16431008D02*
X6897872Y-16421484D01*
X7050253Y-16602436D02*
X7059777Y-16611960D01*
X7059777Y-16611960D02*
X7050253Y-16621484D01*
X7050253Y-16621484D02*
X7040729Y-16611960D01*
X7040729Y-16611960D02*
X7050253Y-16602436D01*
X7050253Y-16602436D02*
X7050253Y-16621484D01*
X7174062Y-16507198D02*
X7155015Y-16497674D01*
X7155015Y-16497674D02*
X7145491Y-16488150D01*
X7145491Y-16488150D02*
X7135967Y-16469103D01*
X7135967Y-16469103D02*
X7135967Y-16459579D01*
X7135967Y-16459579D02*
X7145491Y-16440531D01*
X7145491Y-16440531D02*
X7155015Y-16431008D01*
X7155015Y-16431008D02*
X7174062Y-16421484D01*
X7174062Y-16421484D02*
X7212158Y-16421484D01*
X7212158Y-16421484D02*
X7231205Y-16431008D01*
X7231205Y-16431008D02*
X7240729Y-16440531D01*
X7240729Y-16440531D02*
X7250253Y-16459579D01*
X7250253Y-16459579D02*
X7250253Y-16469103D01*
X7250253Y-16469103D02*
X7240729Y-16488150D01*
X7240729Y-16488150D02*
X7231205Y-16497674D01*
X7231205Y-16497674D02*
X7212158Y-16507198D01*
X7212158Y-16507198D02*
X7174062Y-16507198D01*
X7174062Y-16507198D02*
X7155015Y-16516722D01*
X7155015Y-16516722D02*
X7145491Y-16526246D01*
X7145491Y-16526246D02*
X7135967Y-16545293D01*
X7135967Y-16545293D02*
X7135967Y-16583388D01*
X7135967Y-16583388D02*
X7145491Y-16602436D01*
X7145491Y-16602436D02*
X7155015Y-16611960D01*
X7155015Y-16611960D02*
X7174062Y-16621484D01*
X7174062Y-16621484D02*
X7212158Y-16621484D01*
X7212158Y-16621484D02*
X7231205Y-16611960D01*
X7231205Y-16611960D02*
X7240729Y-16602436D01*
X7240729Y-16602436D02*
X7250253Y-16583388D01*
X7250253Y-16583388D02*
X7250253Y-16545293D01*
X7250253Y-16545293D02*
X7240729Y-16526246D01*
X7240729Y-16526246D02*
X7231205Y-16516722D01*
X7231205Y-16516722D02*
X7212158Y-16507198D01*
X7374062Y-16421484D02*
X7393110Y-16421484D01*
X7393110Y-16421484D02*
X7412158Y-16431008D01*
X7412158Y-16431008D02*
X7421682Y-16440531D01*
X7421682Y-16440531D02*
X7431205Y-16459579D01*
X7431205Y-16459579D02*
X7440729Y-16497674D01*
X7440729Y-16497674D02*
X7440729Y-16545293D01*
X7440729Y-16545293D02*
X7431205Y-16583388D01*
X7431205Y-16583388D02*
X7421682Y-16602436D01*
X7421682Y-16602436D02*
X7412158Y-16611960D01*
X7412158Y-16611960D02*
X7393110Y-16621484D01*
X7393110Y-16621484D02*
X7374062Y-16621484D01*
X7374062Y-16621484D02*
X7355015Y-16611960D01*
X7355015Y-16611960D02*
X7345491Y-16602436D01*
X7345491Y-16602436D02*
X7335967Y-16583388D01*
X7335967Y-16583388D02*
X7326443Y-16545293D01*
X7326443Y-16545293D02*
X7326443Y-16497674D01*
X7326443Y-16497674D02*
X7335967Y-16459579D01*
X7335967Y-16459579D02*
X7345491Y-16440531D01*
X7345491Y-16440531D02*
X7355015Y-16431008D01*
X7355015Y-16431008D02*
X7374062Y-16421484D01*
X7564539Y-16421484D02*
X7583586Y-16421484D01*
X7583586Y-16421484D02*
X7602634Y-16431008D01*
X7602634Y-16431008D02*
X7612158Y-16440531D01*
X7612158Y-16440531D02*
X7621682Y-16459579D01*
X7621682Y-16459579D02*
X7631205Y-16497674D01*
X7631205Y-16497674D02*
X7631205Y-16545293D01*
X7631205Y-16545293D02*
X7621682Y-16583388D01*
X7621682Y-16583388D02*
X7612158Y-16602436D01*
X7612158Y-16602436D02*
X7602634Y-16611960D01*
X7602634Y-16611960D02*
X7583586Y-16621484D01*
X7583586Y-16621484D02*
X7564539Y-16621484D01*
X7564539Y-16621484D02*
X7545491Y-16611960D01*
X7545491Y-16611960D02*
X7535967Y-16602436D01*
X7535967Y-16602436D02*
X7526443Y-16583388D01*
X7526443Y-16583388D02*
X7516920Y-16545293D01*
X7516920Y-16545293D02*
X7516920Y-16497674D01*
X7516920Y-16497674D02*
X7526443Y-16459579D01*
X7526443Y-16459579D02*
X7535967Y-16440531D01*
X7535967Y-16440531D02*
X7545491Y-16431008D01*
X7545491Y-16431008D02*
X7564539Y-16421484D01*
X7716920Y-16621484D02*
X7716920Y-16488150D01*
X7716920Y-16507198D02*
X7726443Y-16497674D01*
X7726443Y-16497674D02*
X7745491Y-16488150D01*
X7745491Y-16488150D02*
X7774063Y-16488150D01*
X7774063Y-16488150D02*
X7793110Y-16497674D01*
X7793110Y-16497674D02*
X7802634Y-16516722D01*
X7802634Y-16516722D02*
X7802634Y-16621484D01*
X7802634Y-16516722D02*
X7812158Y-16497674D01*
X7812158Y-16497674D02*
X7831205Y-16488150D01*
X7831205Y-16488150D02*
X7859777Y-16488150D01*
X7859777Y-16488150D02*
X7878824Y-16497674D01*
X7878824Y-16497674D02*
X7888348Y-16516722D01*
X7888348Y-16516722D02*
X7888348Y-16621484D01*
X7983586Y-16621484D02*
X7983586Y-16488150D01*
X7983586Y-16507198D02*
X7993110Y-16497674D01*
X7993110Y-16497674D02*
X8012158Y-16488150D01*
X8012158Y-16488150D02*
X8040729Y-16488150D01*
X8040729Y-16488150D02*
X8059777Y-16497674D01*
X8059777Y-16497674D02*
X8069301Y-16516722D01*
X8069301Y-16516722D02*
X8069301Y-16621484D01*
X8069301Y-16516722D02*
X8078824Y-16497674D01*
X8078824Y-16497674D02*
X8097872Y-16488150D01*
X8097872Y-16488150D02*
X8126443Y-16488150D01*
X8126443Y-16488150D02*
X8145491Y-16497674D01*
X8145491Y-16497674D02*
X8155015Y-16516722D01*
X8155015Y-16516722D02*
X8155015Y-16621484D01*
X8545491Y-16411960D02*
X8374063Y-16669103D01*
X8802634Y-16421484D02*
X8821682Y-16421484D01*
X8821682Y-16421484D02*
X8840729Y-16431008D01*
X8840729Y-16431008D02*
X8850253Y-16440531D01*
X8850253Y-16440531D02*
X8859777Y-16459579D01*
X8859777Y-16459579D02*
X8869301Y-16497674D01*
X8869301Y-16497674D02*
X8869301Y-16545293D01*
X8869301Y-16545293D02*
X8859777Y-16583388D01*
X8859777Y-16583388D02*
X8850253Y-16602436D01*
X8850253Y-16602436D02*
X8840729Y-16611960D01*
X8840729Y-16611960D02*
X8821682Y-16621484D01*
X8821682Y-16621484D02*
X8802634Y-16621484D01*
X8802634Y-16621484D02*
X8783587Y-16611960D01*
X8783587Y-16611960D02*
X8774063Y-16602436D01*
X8774063Y-16602436D02*
X8764539Y-16583388D01*
X8764539Y-16583388D02*
X8755015Y-16545293D01*
X8755015Y-16545293D02*
X8755015Y-16497674D01*
X8755015Y-16497674D02*
X8764539Y-16459579D01*
X8764539Y-16459579D02*
X8774063Y-16440531D01*
X8774063Y-16440531D02*
X8783587Y-16431008D01*
X8783587Y-16431008D02*
X8802634Y-16421484D01*
X8955015Y-16602436D02*
X8964539Y-16611960D01*
X8964539Y-16611960D02*
X8955015Y-16621484D01*
X8955015Y-16621484D02*
X8945491Y-16611960D01*
X8945491Y-16611960D02*
X8955015Y-16602436D01*
X8955015Y-16602436D02*
X8955015Y-16621484D01*
X9088348Y-16421484D02*
X9107396Y-16421484D01*
X9107396Y-16421484D02*
X9126444Y-16431008D01*
X9126444Y-16431008D02*
X9135968Y-16440531D01*
X9135968Y-16440531D02*
X9145491Y-16459579D01*
X9145491Y-16459579D02*
X9155015Y-16497674D01*
X9155015Y-16497674D02*
X9155015Y-16545293D01*
X9155015Y-16545293D02*
X9145491Y-16583388D01*
X9145491Y-16583388D02*
X9135968Y-16602436D01*
X9135968Y-16602436D02*
X9126444Y-16611960D01*
X9126444Y-16611960D02*
X9107396Y-16621484D01*
X9107396Y-16621484D02*
X9088348Y-16621484D01*
X9088348Y-16621484D02*
X9069301Y-16611960D01*
X9069301Y-16611960D02*
X9059777Y-16602436D01*
X9059777Y-16602436D02*
X9050253Y-16583388D01*
X9050253Y-16583388D02*
X9040729Y-16545293D01*
X9040729Y-16545293D02*
X9040729Y-16497674D01*
X9040729Y-16497674D02*
X9050253Y-16459579D01*
X9050253Y-16459579D02*
X9059777Y-16440531D01*
X9059777Y-16440531D02*
X9069301Y-16431008D01*
X9069301Y-16431008D02*
X9088348Y-16421484D01*
X9221682Y-16421484D02*
X9345491Y-16421484D01*
X9345491Y-16421484D02*
X9278825Y-16497674D01*
X9278825Y-16497674D02*
X9307396Y-16497674D01*
X9307396Y-16497674D02*
X9326444Y-16507198D01*
X9326444Y-16507198D02*
X9335968Y-16516722D01*
X9335968Y-16516722D02*
X9345491Y-16535769D01*
X9345491Y-16535769D02*
X9345491Y-16583388D01*
X9345491Y-16583388D02*
X9335968Y-16602436D01*
X9335968Y-16602436D02*
X9326444Y-16611960D01*
X9326444Y-16611960D02*
X9307396Y-16621484D01*
X9307396Y-16621484D02*
X9250253Y-16621484D01*
X9250253Y-16621484D02*
X9231206Y-16611960D01*
X9231206Y-16611960D02*
X9221682Y-16602436D01*
X9535968Y-16621484D02*
X9421682Y-16621484D01*
X9478825Y-16621484D02*
X9478825Y-16421484D01*
X9478825Y-16421484D02*
X9459777Y-16450055D01*
X9459777Y-16450055D02*
X9440729Y-16469103D01*
X9440729Y-16469103D02*
X9421682Y-16478627D01*
X9716920Y-16421484D02*
X9621682Y-16421484D01*
X9621682Y-16421484D02*
X9612158Y-16516722D01*
X9612158Y-16516722D02*
X9621682Y-16507198D01*
X9621682Y-16507198D02*
X9640729Y-16497674D01*
X9640729Y-16497674D02*
X9688349Y-16497674D01*
X9688349Y-16497674D02*
X9707396Y-16507198D01*
X9707396Y-16507198D02*
X9716920Y-16516722D01*
X9716920Y-16516722D02*
X9726444Y-16535769D01*
X9726444Y-16535769D02*
X9726444Y-16583388D01*
X9726444Y-16583388D02*
X9716920Y-16602436D01*
X9716920Y-16602436D02*
X9707396Y-16611960D01*
X9707396Y-16611960D02*
X9688349Y-16621484D01*
X9688349Y-16621484D02*
X9640729Y-16621484D01*
X9640729Y-16621484D02*
X9621682Y-16611960D01*
X9621682Y-16611960D02*
X9612158Y-16602436D01*
X9802634Y-16421484D02*
X9802634Y-16459579D01*
X9878825Y-16421484D02*
X9878825Y-16459579D01*
X10174063Y-16697674D02*
X10164539Y-16688150D01*
X10164539Y-16688150D02*
X10145491Y-16659579D01*
X10145491Y-16659579D02*
X10135968Y-16640531D01*
X10135968Y-16640531D02*
X10126444Y-16611960D01*
X10126444Y-16611960D02*
X10116920Y-16564341D01*
X10116920Y-16564341D02*
X10116920Y-16526246D01*
X10116920Y-16526246D02*
X10126444Y-16478627D01*
X10126444Y-16478627D02*
X10135968Y-16450055D01*
X10135968Y-16450055D02*
X10145491Y-16431008D01*
X10145491Y-16431008D02*
X10164539Y-16402436D01*
X10164539Y-16402436D02*
X10174063Y-16392912D01*
X10335968Y-16488150D02*
X10335968Y-16621484D01*
X10288349Y-16411960D02*
X10240730Y-16554817D01*
X10240730Y-16554817D02*
X10364539Y-16554817D01*
X10469301Y-16507198D02*
X10450253Y-16497674D01*
X10450253Y-16497674D02*
X10440730Y-16488150D01*
X10440730Y-16488150D02*
X10431206Y-16469103D01*
X10431206Y-16469103D02*
X10431206Y-16459579D01*
X10431206Y-16459579D02*
X10440730Y-16440531D01*
X10440730Y-16440531D02*
X10450253Y-16431008D01*
X10450253Y-16431008D02*
X10469301Y-16421484D01*
X10469301Y-16421484D02*
X10507396Y-16421484D01*
X10507396Y-16421484D02*
X10526444Y-16431008D01*
X10526444Y-16431008D02*
X10535968Y-16440531D01*
X10535968Y-16440531D02*
X10545491Y-16459579D01*
X10545491Y-16459579D02*
X10545491Y-16469103D01*
X10545491Y-16469103D02*
X10535968Y-16488150D01*
X10535968Y-16488150D02*
X10526444Y-16497674D01*
X10526444Y-16497674D02*
X10507396Y-16507198D01*
X10507396Y-16507198D02*
X10469301Y-16507198D01*
X10469301Y-16507198D02*
X10450253Y-16516722D01*
X10450253Y-16516722D02*
X10440730Y-16526246D01*
X10440730Y-16526246D02*
X10431206Y-16545293D01*
X10431206Y-16545293D02*
X10431206Y-16583388D01*
X10431206Y-16583388D02*
X10440730Y-16602436D01*
X10440730Y-16602436D02*
X10450253Y-16611960D01*
X10450253Y-16611960D02*
X10469301Y-16621484D01*
X10469301Y-16621484D02*
X10507396Y-16621484D01*
X10507396Y-16621484D02*
X10526444Y-16611960D01*
X10526444Y-16611960D02*
X10535968Y-16602436D01*
X10535968Y-16602436D02*
X10545491Y-16583388D01*
X10545491Y-16583388D02*
X10545491Y-16545293D01*
X10545491Y-16545293D02*
X10535968Y-16526246D01*
X10535968Y-16526246D02*
X10526444Y-16516722D01*
X10526444Y-16516722D02*
X10507396Y-16507198D01*
X10783587Y-16621484D02*
X10783587Y-16421484D01*
X10869301Y-16621484D02*
X10869301Y-16516722D01*
X10869301Y-16516722D02*
X10859777Y-16497674D01*
X10859777Y-16497674D02*
X10840730Y-16488150D01*
X10840730Y-16488150D02*
X10812158Y-16488150D01*
X10812158Y-16488150D02*
X10793111Y-16497674D01*
X10793111Y-16497674D02*
X10783587Y-16507198D01*
X10993111Y-16621484D02*
X10974063Y-16611960D01*
X10974063Y-16611960D02*
X10964539Y-16602436D01*
X10964539Y-16602436D02*
X10955015Y-16583388D01*
X10955015Y-16583388D02*
X10955015Y-16526246D01*
X10955015Y-16526246D02*
X10964539Y-16507198D01*
X10964539Y-16507198D02*
X10974063Y-16497674D01*
X10974063Y-16497674D02*
X10993111Y-16488150D01*
X10993111Y-16488150D02*
X11021682Y-16488150D01*
X11021682Y-16488150D02*
X11040730Y-16497674D01*
X11040730Y-16497674D02*
X11050253Y-16507198D01*
X11050253Y-16507198D02*
X11059777Y-16526246D01*
X11059777Y-16526246D02*
X11059777Y-16583388D01*
X11059777Y-16583388D02*
X11050253Y-16602436D01*
X11050253Y-16602436D02*
X11040730Y-16611960D01*
X11040730Y-16611960D02*
X11021682Y-16621484D01*
X11021682Y-16621484D02*
X10993111Y-16621484D01*
X11174063Y-16621484D02*
X11155015Y-16611960D01*
X11155015Y-16611960D02*
X11145492Y-16592912D01*
X11145492Y-16592912D02*
X11145492Y-16421484D01*
X11326444Y-16611960D02*
X11307396Y-16621484D01*
X11307396Y-16621484D02*
X11269301Y-16621484D01*
X11269301Y-16621484D02*
X11250253Y-16611960D01*
X11250253Y-16611960D02*
X11240730Y-16592912D01*
X11240730Y-16592912D02*
X11240730Y-16516722D01*
X11240730Y-16516722D02*
X11250253Y-16497674D01*
X11250253Y-16497674D02*
X11269301Y-16488150D01*
X11269301Y-16488150D02*
X11307396Y-16488150D01*
X11307396Y-16488150D02*
X11326444Y-16497674D01*
X11326444Y-16497674D02*
X11335968Y-16516722D01*
X11335968Y-16516722D02*
X11335968Y-16535769D01*
X11335968Y-16535769D02*
X11240730Y-16554817D01*
X11412158Y-16611960D02*
X11431206Y-16621484D01*
X11431206Y-16621484D02*
X11469301Y-16621484D01*
X11469301Y-16621484D02*
X11488349Y-16611960D01*
X11488349Y-16611960D02*
X11497872Y-16592912D01*
X11497872Y-16592912D02*
X11497872Y-16583388D01*
X11497872Y-16583388D02*
X11488349Y-16564341D01*
X11488349Y-16564341D02*
X11469301Y-16554817D01*
X11469301Y-16554817D02*
X11440730Y-16554817D01*
X11440730Y-16554817D02*
X11421682Y-16545293D01*
X11421682Y-16545293D02*
X11412158Y-16526246D01*
X11412158Y-16526246D02*
X11412158Y-16516722D01*
X11412158Y-16516722D02*
X11421682Y-16497674D01*
X11421682Y-16497674D02*
X11440730Y-16488150D01*
X11440730Y-16488150D02*
X11469301Y-16488150D01*
X11469301Y-16488150D02*
X11488349Y-16497674D01*
X11564539Y-16697674D02*
X11574063Y-16688150D01*
X11574063Y-16688150D02*
X11593111Y-16659579D01*
X11593111Y-16659579D02*
X11602634Y-16640531D01*
X11602634Y-16640531D02*
X11612158Y-16611960D01*
X11612158Y-16611960D02*
X11621682Y-16564341D01*
X11621682Y-16564341D02*
X11621682Y-16526246D01*
X11621682Y-16526246D02*
X11612158Y-16478627D01*
X11612158Y-16478627D02*
X11602634Y-16450055D01*
X11602634Y-16450055D02*
X11593111Y-16431008D01*
X11593111Y-16431008D02*
X11574063Y-16402436D01*
X11574063Y-16402436D02*
X11564539Y-16392912D01*
D10*
X6549000Y-16744000D02*
X6549000Y-16844000D01*
X6499000Y-16794000D02*
X6599000Y-16794000D01*
D11*
X6964539Y-16885484D02*
X6850253Y-16885484D01*
X6907396Y-16885484D02*
X6907396Y-16685484D01*
X6907396Y-16685484D02*
X6888348Y-16714055D01*
X6888348Y-16714055D02*
X6869301Y-16733103D01*
X6869301Y-16733103D02*
X6850253Y-16742627D01*
X7050253Y-16866436D02*
X7059777Y-16875960D01*
X7059777Y-16875960D02*
X7050253Y-16885484D01*
X7050253Y-16885484D02*
X7040729Y-16875960D01*
X7040729Y-16875960D02*
X7050253Y-16866436D01*
X7050253Y-16866436D02*
X7050253Y-16885484D01*
X7183586Y-16685484D02*
X7202634Y-16685484D01*
X7202634Y-16685484D02*
X7221682Y-16695008D01*
X7221682Y-16695008D02*
X7231205Y-16704531D01*
X7231205Y-16704531D02*
X7240729Y-16723579D01*
X7240729Y-16723579D02*
X7250253Y-16761674D01*
X7250253Y-16761674D02*
X7250253Y-16809293D01*
X7250253Y-16809293D02*
X7240729Y-16847389D01*
X7240729Y-16847389D02*
X7231205Y-16866436D01*
X7231205Y-16866436D02*
X7221682Y-16875960D01*
X7221682Y-16875960D02*
X7202634Y-16885484D01*
X7202634Y-16885484D02*
X7183586Y-16885484D01*
X7183586Y-16885484D02*
X7164539Y-16875960D01*
X7164539Y-16875960D02*
X7155015Y-16866436D01*
X7155015Y-16866436D02*
X7145491Y-16847389D01*
X7145491Y-16847389D02*
X7135967Y-16809293D01*
X7135967Y-16809293D02*
X7135967Y-16761674D01*
X7135967Y-16761674D02*
X7145491Y-16723579D01*
X7145491Y-16723579D02*
X7155015Y-16704531D01*
X7155015Y-16704531D02*
X7164539Y-16695008D01*
X7164539Y-16695008D02*
X7183586Y-16685484D01*
X7374062Y-16685484D02*
X7393110Y-16685484D01*
X7393110Y-16685484D02*
X7412158Y-16695008D01*
X7412158Y-16695008D02*
X7421682Y-16704531D01*
X7421682Y-16704531D02*
X7431205Y-16723579D01*
X7431205Y-16723579D02*
X7440729Y-16761674D01*
X7440729Y-16761674D02*
X7440729Y-16809293D01*
X7440729Y-16809293D02*
X7431205Y-16847389D01*
X7431205Y-16847389D02*
X7421682Y-16866436D01*
X7421682Y-16866436D02*
X7412158Y-16875960D01*
X7412158Y-16875960D02*
X7393110Y-16885484D01*
X7393110Y-16885484D02*
X7374062Y-16885484D01*
X7374062Y-16885484D02*
X7355015Y-16875960D01*
X7355015Y-16875960D02*
X7345491Y-16866436D01*
X7345491Y-16866436D02*
X7335967Y-16847389D01*
X7335967Y-16847389D02*
X7326443Y-16809293D01*
X7326443Y-16809293D02*
X7326443Y-16761674D01*
X7326443Y-16761674D02*
X7335967Y-16723579D01*
X7335967Y-16723579D02*
X7345491Y-16704531D01*
X7345491Y-16704531D02*
X7355015Y-16695008D01*
X7355015Y-16695008D02*
X7374062Y-16685484D01*
X7564539Y-16685484D02*
X7583586Y-16685484D01*
X7583586Y-16685484D02*
X7602634Y-16695008D01*
X7602634Y-16695008D02*
X7612158Y-16704531D01*
X7612158Y-16704531D02*
X7621682Y-16723579D01*
X7621682Y-16723579D02*
X7631205Y-16761674D01*
X7631205Y-16761674D02*
X7631205Y-16809293D01*
X7631205Y-16809293D02*
X7621682Y-16847389D01*
X7621682Y-16847389D02*
X7612158Y-16866436D01*
X7612158Y-16866436D02*
X7602634Y-16875960D01*
X7602634Y-16875960D02*
X7583586Y-16885484D01*
X7583586Y-16885484D02*
X7564539Y-16885484D01*
X7564539Y-16885484D02*
X7545491Y-16875960D01*
X7545491Y-16875960D02*
X7535967Y-16866436D01*
X7535967Y-16866436D02*
X7526443Y-16847389D01*
X7526443Y-16847389D02*
X7516920Y-16809293D01*
X7516920Y-16809293D02*
X7516920Y-16761674D01*
X7516920Y-16761674D02*
X7526443Y-16723579D01*
X7526443Y-16723579D02*
X7535967Y-16704531D01*
X7535967Y-16704531D02*
X7545491Y-16695008D01*
X7545491Y-16695008D02*
X7564539Y-16685484D01*
X7716920Y-16885484D02*
X7716920Y-16752150D01*
X7716920Y-16771198D02*
X7726443Y-16761674D01*
X7726443Y-16761674D02*
X7745491Y-16752150D01*
X7745491Y-16752150D02*
X7774063Y-16752150D01*
X7774063Y-16752150D02*
X7793110Y-16761674D01*
X7793110Y-16761674D02*
X7802634Y-16780722D01*
X7802634Y-16780722D02*
X7802634Y-16885484D01*
X7802634Y-16780722D02*
X7812158Y-16761674D01*
X7812158Y-16761674D02*
X7831205Y-16752150D01*
X7831205Y-16752150D02*
X7859777Y-16752150D01*
X7859777Y-16752150D02*
X7878824Y-16761674D01*
X7878824Y-16761674D02*
X7888348Y-16780722D01*
X7888348Y-16780722D02*
X7888348Y-16885484D01*
X7983586Y-16885484D02*
X7983586Y-16752150D01*
X7983586Y-16771198D02*
X7993110Y-16761674D01*
X7993110Y-16761674D02*
X8012158Y-16752150D01*
X8012158Y-16752150D02*
X8040729Y-16752150D01*
X8040729Y-16752150D02*
X8059777Y-16761674D01*
X8059777Y-16761674D02*
X8069301Y-16780722D01*
X8069301Y-16780722D02*
X8069301Y-16885484D01*
X8069301Y-16780722D02*
X8078824Y-16761674D01*
X8078824Y-16761674D02*
X8097872Y-16752150D01*
X8097872Y-16752150D02*
X8126443Y-16752150D01*
X8126443Y-16752150D02*
X8145491Y-16761674D01*
X8145491Y-16761674D02*
X8155015Y-16780722D01*
X8155015Y-16780722D02*
X8155015Y-16885484D01*
X8545491Y-16675960D02*
X8374063Y-16933103D01*
X8802634Y-16685484D02*
X8821682Y-16685484D01*
X8821682Y-16685484D02*
X8840729Y-16695008D01*
X8840729Y-16695008D02*
X8850253Y-16704531D01*
X8850253Y-16704531D02*
X8859777Y-16723579D01*
X8859777Y-16723579D02*
X8869301Y-16761674D01*
X8869301Y-16761674D02*
X8869301Y-16809293D01*
X8869301Y-16809293D02*
X8859777Y-16847389D01*
X8859777Y-16847389D02*
X8850253Y-16866436D01*
X8850253Y-16866436D02*
X8840729Y-16875960D01*
X8840729Y-16875960D02*
X8821682Y-16885484D01*
X8821682Y-16885484D02*
X8802634Y-16885484D01*
X8802634Y-16885484D02*
X8783587Y-16875960D01*
X8783587Y-16875960D02*
X8774063Y-16866436D01*
X8774063Y-16866436D02*
X8764539Y-16847389D01*
X8764539Y-16847389D02*
X8755015Y-16809293D01*
X8755015Y-16809293D02*
X8755015Y-16761674D01*
X8755015Y-16761674D02*
X8764539Y-16723579D01*
X8764539Y-16723579D02*
X8774063Y-16704531D01*
X8774063Y-16704531D02*
X8783587Y-16695008D01*
X8783587Y-16695008D02*
X8802634Y-16685484D01*
X8955015Y-16866436D02*
X8964539Y-16875960D01*
X8964539Y-16875960D02*
X8955015Y-16885484D01*
X8955015Y-16885484D02*
X8945491Y-16875960D01*
X8945491Y-16875960D02*
X8955015Y-16866436D01*
X8955015Y-16866436D02*
X8955015Y-16885484D01*
X9088348Y-16685484D02*
X9107396Y-16685484D01*
X9107396Y-16685484D02*
X9126444Y-16695008D01*
X9126444Y-16695008D02*
X9135968Y-16704531D01*
X9135968Y-16704531D02*
X9145491Y-16723579D01*
X9145491Y-16723579D02*
X9155015Y-16761674D01*
X9155015Y-16761674D02*
X9155015Y-16809293D01*
X9155015Y-16809293D02*
X9145491Y-16847389D01*
X9145491Y-16847389D02*
X9135968Y-16866436D01*
X9135968Y-16866436D02*
X9126444Y-16875960D01*
X9126444Y-16875960D02*
X9107396Y-16885484D01*
X9107396Y-16885484D02*
X9088348Y-16885484D01*
X9088348Y-16885484D02*
X9069301Y-16875960D01*
X9069301Y-16875960D02*
X9059777Y-16866436D01*
X9059777Y-16866436D02*
X9050253Y-16847389D01*
X9050253Y-16847389D02*
X9040729Y-16809293D01*
X9040729Y-16809293D02*
X9040729Y-16761674D01*
X9040729Y-16761674D02*
X9050253Y-16723579D01*
X9050253Y-16723579D02*
X9059777Y-16704531D01*
X9059777Y-16704531D02*
X9069301Y-16695008D01*
X9069301Y-16695008D02*
X9088348Y-16685484D01*
X9221682Y-16685484D02*
X9345491Y-16685484D01*
X9345491Y-16685484D02*
X9278825Y-16761674D01*
X9278825Y-16761674D02*
X9307396Y-16761674D01*
X9307396Y-16761674D02*
X9326444Y-16771198D01*
X9326444Y-16771198D02*
X9335968Y-16780722D01*
X9335968Y-16780722D02*
X9345491Y-16799770D01*
X9345491Y-16799770D02*
X9345491Y-16847389D01*
X9345491Y-16847389D02*
X9335968Y-16866436D01*
X9335968Y-16866436D02*
X9326444Y-16875960D01*
X9326444Y-16875960D02*
X9307396Y-16885484D01*
X9307396Y-16885484D02*
X9250253Y-16885484D01*
X9250253Y-16885484D02*
X9231206Y-16875960D01*
X9231206Y-16875960D02*
X9221682Y-16866436D01*
X9440729Y-16885484D02*
X9478825Y-16885484D01*
X9478825Y-16885484D02*
X9497872Y-16875960D01*
X9497872Y-16875960D02*
X9507396Y-16866436D01*
X9507396Y-16866436D02*
X9526444Y-16837865D01*
X9526444Y-16837865D02*
X9535968Y-16799770D01*
X9535968Y-16799770D02*
X9535968Y-16723579D01*
X9535968Y-16723579D02*
X9526444Y-16704531D01*
X9526444Y-16704531D02*
X9516920Y-16695008D01*
X9516920Y-16695008D02*
X9497872Y-16685484D01*
X9497872Y-16685484D02*
X9459777Y-16685484D01*
X9459777Y-16685484D02*
X9440729Y-16695008D01*
X9440729Y-16695008D02*
X9431206Y-16704531D01*
X9431206Y-16704531D02*
X9421682Y-16723579D01*
X9421682Y-16723579D02*
X9421682Y-16771198D01*
X9421682Y-16771198D02*
X9431206Y-16790246D01*
X9431206Y-16790246D02*
X9440729Y-16799770D01*
X9440729Y-16799770D02*
X9459777Y-16809293D01*
X9459777Y-16809293D02*
X9497872Y-16809293D01*
X9497872Y-16809293D02*
X9516920Y-16799770D01*
X9516920Y-16799770D02*
X9526444Y-16790246D01*
X9526444Y-16790246D02*
X9535968Y-16771198D01*
X9707396Y-16752150D02*
X9707396Y-16885484D01*
X9659777Y-16675960D02*
X9612158Y-16818817D01*
X9612158Y-16818817D02*
X9735968Y-16818817D01*
X9802634Y-16685484D02*
X9802634Y-16723579D01*
X9878825Y-16685484D02*
X9878825Y-16723579D01*
X10174063Y-16961674D02*
X10164539Y-16952150D01*
X10164539Y-16952150D02*
X10145491Y-16923579D01*
X10145491Y-16923579D02*
X10135968Y-16904531D01*
X10135968Y-16904531D02*
X10126444Y-16875960D01*
X10126444Y-16875960D02*
X10116920Y-16828341D01*
X10116920Y-16828341D02*
X10116920Y-16790246D01*
X10116920Y-16790246D02*
X10126444Y-16742627D01*
X10126444Y-16742627D02*
X10135968Y-16714055D01*
X10135968Y-16714055D02*
X10145491Y-16695008D01*
X10145491Y-16695008D02*
X10164539Y-16666436D01*
X10164539Y-16666436D02*
X10174063Y-16656912D01*
X10335968Y-16752150D02*
X10335968Y-16885484D01*
X10288349Y-16675960D02*
X10240730Y-16818817D01*
X10240730Y-16818817D02*
X10364539Y-16818817D01*
X10535968Y-16685484D02*
X10440730Y-16685484D01*
X10440730Y-16685484D02*
X10431206Y-16780722D01*
X10431206Y-16780722D02*
X10440730Y-16771198D01*
X10440730Y-16771198D02*
X10459777Y-16761674D01*
X10459777Y-16761674D02*
X10507396Y-16761674D01*
X10507396Y-16761674D02*
X10526444Y-16771198D01*
X10526444Y-16771198D02*
X10535968Y-16780722D01*
X10535968Y-16780722D02*
X10545491Y-16799770D01*
X10545491Y-16799770D02*
X10545491Y-16847389D01*
X10545491Y-16847389D02*
X10535968Y-16866436D01*
X10535968Y-16866436D02*
X10526444Y-16875960D01*
X10526444Y-16875960D02*
X10507396Y-16885484D01*
X10507396Y-16885484D02*
X10459777Y-16885484D01*
X10459777Y-16885484D02*
X10440730Y-16875960D01*
X10440730Y-16875960D02*
X10431206Y-16866436D01*
X10783587Y-16885484D02*
X10783587Y-16685484D01*
X10869301Y-16885484D02*
X10869301Y-16780722D01*
X10869301Y-16780722D02*
X10859777Y-16761674D01*
X10859777Y-16761674D02*
X10840730Y-16752150D01*
X10840730Y-16752150D02*
X10812158Y-16752150D01*
X10812158Y-16752150D02*
X10793111Y-16761674D01*
X10793111Y-16761674D02*
X10783587Y-16771198D01*
X10993111Y-16885484D02*
X10974063Y-16875960D01*
X10974063Y-16875960D02*
X10964539Y-16866436D01*
X10964539Y-16866436D02*
X10955015Y-16847389D01*
X10955015Y-16847389D02*
X10955015Y-16790246D01*
X10955015Y-16790246D02*
X10964539Y-16771198D01*
X10964539Y-16771198D02*
X10974063Y-16761674D01*
X10974063Y-16761674D02*
X10993111Y-16752150D01*
X10993111Y-16752150D02*
X11021682Y-16752150D01*
X11021682Y-16752150D02*
X11040730Y-16761674D01*
X11040730Y-16761674D02*
X11050253Y-16771198D01*
X11050253Y-16771198D02*
X11059777Y-16790246D01*
X11059777Y-16790246D02*
X11059777Y-16847389D01*
X11059777Y-16847389D02*
X11050253Y-16866436D01*
X11050253Y-16866436D02*
X11040730Y-16875960D01*
X11040730Y-16875960D02*
X11021682Y-16885484D01*
X11021682Y-16885484D02*
X10993111Y-16885484D01*
X11174063Y-16885484D02*
X11155015Y-16875960D01*
X11155015Y-16875960D02*
X11145492Y-16856912D01*
X11145492Y-16856912D02*
X11145492Y-16685484D01*
X11326444Y-16875960D02*
X11307396Y-16885484D01*
X11307396Y-16885484D02*
X11269301Y-16885484D01*
X11269301Y-16885484D02*
X11250253Y-16875960D01*
X11250253Y-16875960D02*
X11240730Y-16856912D01*
X11240730Y-16856912D02*
X11240730Y-16780722D01*
X11240730Y-16780722D02*
X11250253Y-16761674D01*
X11250253Y-16761674D02*
X11269301Y-16752150D01*
X11269301Y-16752150D02*
X11307396Y-16752150D01*
X11307396Y-16752150D02*
X11326444Y-16761674D01*
X11326444Y-16761674D02*
X11335968Y-16780722D01*
X11335968Y-16780722D02*
X11335968Y-16799770D01*
X11335968Y-16799770D02*
X11240730Y-16818817D01*
X11412158Y-16875960D02*
X11431206Y-16885484D01*
X11431206Y-16885484D02*
X11469301Y-16885484D01*
X11469301Y-16885484D02*
X11488349Y-16875960D01*
X11488349Y-16875960D02*
X11497872Y-16856912D01*
X11497872Y-16856912D02*
X11497872Y-16847389D01*
X11497872Y-16847389D02*
X11488349Y-16828341D01*
X11488349Y-16828341D02*
X11469301Y-16818817D01*
X11469301Y-16818817D02*
X11440730Y-16818817D01*
X11440730Y-16818817D02*
X11421682Y-16809293D01*
X11421682Y-16809293D02*
X11412158Y-16790246D01*
X11412158Y-16790246D02*
X11412158Y-16780722D01*
X11412158Y-16780722D02*
X11421682Y-16761674D01*
X11421682Y-16761674D02*
X11440730Y-16752150D01*
X11440730Y-16752150D02*
X11469301Y-16752150D01*
X11469301Y-16752150D02*
X11488349Y-16761674D01*
X11564539Y-16961674D02*
X11574063Y-16952150D01*
X11574063Y-16952150D02*
X11593111Y-16923579D01*
X11593111Y-16923579D02*
X11602634Y-16904531D01*
X11602634Y-16904531D02*
X11612158Y-16875960D01*
X11612158Y-16875960D02*
X11621682Y-16828341D01*
X11621682Y-16828341D02*
X11621682Y-16790246D01*
X11621682Y-16790246D02*
X11612158Y-16742627D01*
X11612158Y-16742627D02*
X11602634Y-16714055D01*
X11602634Y-16714055D02*
X11593111Y-16695008D01*
X11593111Y-16695008D02*
X11574063Y-16666436D01*
X11574063Y-16666436D02*
X11564539Y-16656912D01*
X6569711Y-17128711D02*
X6569711Y-16987289D01*
X6428289Y-16987289D01*
X6428289Y-17128711D01*
X6569711Y-17128711D01*
X6850253Y-16968531D02*
X6859777Y-16959008D01*
X6859777Y-16959008D02*
X6878824Y-16949484D01*
X6878824Y-16949484D02*
X6926443Y-16949484D01*
X6926443Y-16949484D02*
X6945491Y-16959008D01*
X6945491Y-16959008D02*
X6955015Y-16968531D01*
X6955015Y-16968531D02*
X6964539Y-16987579D01*
X6964539Y-16987579D02*
X6964539Y-17006627D01*
X6964539Y-17006627D02*
X6955015Y-17035198D01*
X6955015Y-17035198D02*
X6840729Y-17149484D01*
X6840729Y-17149484D02*
X6964539Y-17149484D01*
X7050253Y-17130436D02*
X7059777Y-17139960D01*
X7059777Y-17139960D02*
X7050253Y-17149484D01*
X7050253Y-17149484D02*
X7040729Y-17139960D01*
X7040729Y-17139960D02*
X7050253Y-17130436D01*
X7050253Y-17130436D02*
X7050253Y-17149484D01*
X7126443Y-16949484D02*
X7259777Y-16949484D01*
X7259777Y-16949484D02*
X7174062Y-17149484D01*
X7316920Y-16949484D02*
X7450253Y-16949484D01*
X7450253Y-16949484D02*
X7364539Y-17149484D01*
X7564539Y-16949484D02*
X7583586Y-16949484D01*
X7583586Y-16949484D02*
X7602634Y-16959008D01*
X7602634Y-16959008D02*
X7612158Y-16968531D01*
X7612158Y-16968531D02*
X7621682Y-16987579D01*
X7621682Y-16987579D02*
X7631205Y-17025674D01*
X7631205Y-17025674D02*
X7631205Y-17073293D01*
X7631205Y-17073293D02*
X7621682Y-17111389D01*
X7621682Y-17111389D02*
X7612158Y-17130436D01*
X7612158Y-17130436D02*
X7602634Y-17139960D01*
X7602634Y-17139960D02*
X7583586Y-17149484D01*
X7583586Y-17149484D02*
X7564539Y-17149484D01*
X7564539Y-17149484D02*
X7545491Y-17139960D01*
X7545491Y-17139960D02*
X7535967Y-17130436D01*
X7535967Y-17130436D02*
X7526443Y-17111389D01*
X7526443Y-17111389D02*
X7516920Y-17073293D01*
X7516920Y-17073293D02*
X7516920Y-17025674D01*
X7516920Y-17025674D02*
X7526443Y-16987579D01*
X7526443Y-16987579D02*
X7535967Y-16968531D01*
X7535967Y-16968531D02*
X7545491Y-16959008D01*
X7545491Y-16959008D02*
X7564539Y-16949484D01*
X7716920Y-17149484D02*
X7716920Y-17016150D01*
X7716920Y-17035198D02*
X7726443Y-17025674D01*
X7726443Y-17025674D02*
X7745491Y-17016150D01*
X7745491Y-17016150D02*
X7774063Y-17016150D01*
X7774063Y-17016150D02*
X7793110Y-17025674D01*
X7793110Y-17025674D02*
X7802634Y-17044722D01*
X7802634Y-17044722D02*
X7802634Y-17149484D01*
X7802634Y-17044722D02*
X7812158Y-17025674D01*
X7812158Y-17025674D02*
X7831205Y-17016150D01*
X7831205Y-17016150D02*
X7859777Y-17016150D01*
X7859777Y-17016150D02*
X7878824Y-17025674D01*
X7878824Y-17025674D02*
X7888348Y-17044722D01*
X7888348Y-17044722D02*
X7888348Y-17149484D01*
X7983586Y-17149484D02*
X7983586Y-17016150D01*
X7983586Y-17035198D02*
X7993110Y-17025674D01*
X7993110Y-17025674D02*
X8012158Y-17016150D01*
X8012158Y-17016150D02*
X8040729Y-17016150D01*
X8040729Y-17016150D02*
X8059777Y-17025674D01*
X8059777Y-17025674D02*
X8069301Y-17044722D01*
X8069301Y-17044722D02*
X8069301Y-17149484D01*
X8069301Y-17044722D02*
X8078824Y-17025674D01*
X8078824Y-17025674D02*
X8097872Y-17016150D01*
X8097872Y-17016150D02*
X8126443Y-17016150D01*
X8126443Y-17016150D02*
X8145491Y-17025674D01*
X8145491Y-17025674D02*
X8155015Y-17044722D01*
X8155015Y-17044722D02*
X8155015Y-17149484D01*
X8545491Y-16939960D02*
X8374063Y-17197103D01*
X8802634Y-16949484D02*
X8821682Y-16949484D01*
X8821682Y-16949484D02*
X8840729Y-16959008D01*
X8840729Y-16959008D02*
X8850253Y-16968531D01*
X8850253Y-16968531D02*
X8859777Y-16987579D01*
X8859777Y-16987579D02*
X8869301Y-17025674D01*
X8869301Y-17025674D02*
X8869301Y-17073293D01*
X8869301Y-17073293D02*
X8859777Y-17111389D01*
X8859777Y-17111389D02*
X8850253Y-17130436D01*
X8850253Y-17130436D02*
X8840729Y-17139960D01*
X8840729Y-17139960D02*
X8821682Y-17149484D01*
X8821682Y-17149484D02*
X8802634Y-17149484D01*
X8802634Y-17149484D02*
X8783587Y-17139960D01*
X8783587Y-17139960D02*
X8774063Y-17130436D01*
X8774063Y-17130436D02*
X8764539Y-17111389D01*
X8764539Y-17111389D02*
X8755015Y-17073293D01*
X8755015Y-17073293D02*
X8755015Y-17025674D01*
X8755015Y-17025674D02*
X8764539Y-16987579D01*
X8764539Y-16987579D02*
X8774063Y-16968531D01*
X8774063Y-16968531D02*
X8783587Y-16959008D01*
X8783587Y-16959008D02*
X8802634Y-16949484D01*
X8955015Y-17130436D02*
X8964539Y-17139960D01*
X8964539Y-17139960D02*
X8955015Y-17149484D01*
X8955015Y-17149484D02*
X8945491Y-17139960D01*
X8945491Y-17139960D02*
X8955015Y-17130436D01*
X8955015Y-17130436D02*
X8955015Y-17149484D01*
X9155015Y-17149484D02*
X9040729Y-17149484D01*
X9097872Y-17149484D02*
X9097872Y-16949484D01*
X9097872Y-16949484D02*
X9078825Y-16978055D01*
X9078825Y-16978055D02*
X9059777Y-16997103D01*
X9059777Y-16997103D02*
X9040729Y-17006627D01*
X9278825Y-16949484D02*
X9297872Y-16949484D01*
X9297872Y-16949484D02*
X9316920Y-16959008D01*
X9316920Y-16959008D02*
X9326444Y-16968531D01*
X9326444Y-16968531D02*
X9335968Y-16987579D01*
X9335968Y-16987579D02*
X9345491Y-17025674D01*
X9345491Y-17025674D02*
X9345491Y-17073293D01*
X9345491Y-17073293D02*
X9335968Y-17111389D01*
X9335968Y-17111389D02*
X9326444Y-17130436D01*
X9326444Y-17130436D02*
X9316920Y-17139960D01*
X9316920Y-17139960D02*
X9297872Y-17149484D01*
X9297872Y-17149484D02*
X9278825Y-17149484D01*
X9278825Y-17149484D02*
X9259777Y-17139960D01*
X9259777Y-17139960D02*
X9250253Y-17130436D01*
X9250253Y-17130436D02*
X9240729Y-17111389D01*
X9240729Y-17111389D02*
X9231206Y-17073293D01*
X9231206Y-17073293D02*
X9231206Y-17025674D01*
X9231206Y-17025674D02*
X9240729Y-16987579D01*
X9240729Y-16987579D02*
X9250253Y-16968531D01*
X9250253Y-16968531D02*
X9259777Y-16959008D01*
X9259777Y-16959008D02*
X9278825Y-16949484D01*
X9440729Y-17149484D02*
X9478825Y-17149484D01*
X9478825Y-17149484D02*
X9497872Y-17139960D01*
X9497872Y-17139960D02*
X9507396Y-17130436D01*
X9507396Y-17130436D02*
X9526444Y-17101865D01*
X9526444Y-17101865D02*
X9535968Y-17063770D01*
X9535968Y-17063770D02*
X9535968Y-16987579D01*
X9535968Y-16987579D02*
X9526444Y-16968531D01*
X9526444Y-16968531D02*
X9516920Y-16959008D01*
X9516920Y-16959008D02*
X9497872Y-16949484D01*
X9497872Y-16949484D02*
X9459777Y-16949484D01*
X9459777Y-16949484D02*
X9440729Y-16959008D01*
X9440729Y-16959008D02*
X9431206Y-16968531D01*
X9431206Y-16968531D02*
X9421682Y-16987579D01*
X9421682Y-16987579D02*
X9421682Y-17035198D01*
X9421682Y-17035198D02*
X9431206Y-17054246D01*
X9431206Y-17054246D02*
X9440729Y-17063770D01*
X9440729Y-17063770D02*
X9459777Y-17073293D01*
X9459777Y-17073293D02*
X9497872Y-17073293D01*
X9497872Y-17073293D02*
X9516920Y-17063770D01*
X9516920Y-17063770D02*
X9526444Y-17054246D01*
X9526444Y-17054246D02*
X9535968Y-17035198D01*
X9726444Y-17149484D02*
X9612158Y-17149484D01*
X9669301Y-17149484D02*
X9669301Y-16949484D01*
X9669301Y-16949484D02*
X9650253Y-16978055D01*
X9650253Y-16978055D02*
X9631206Y-16997103D01*
X9631206Y-16997103D02*
X9612158Y-17006627D01*
X9802634Y-16949484D02*
X9802634Y-16987579D01*
X9878825Y-16949484D02*
X9878825Y-16987579D01*
X10174063Y-17225674D02*
X10164539Y-17216150D01*
X10164539Y-17216150D02*
X10145491Y-17187579D01*
X10145491Y-17187579D02*
X10135968Y-17168531D01*
X10135968Y-17168531D02*
X10126444Y-17139960D01*
X10126444Y-17139960D02*
X10116920Y-17092341D01*
X10116920Y-17092341D02*
X10116920Y-17054246D01*
X10116920Y-17054246D02*
X10126444Y-17006627D01*
X10126444Y-17006627D02*
X10135968Y-16978055D01*
X10135968Y-16978055D02*
X10145491Y-16959008D01*
X10145491Y-16959008D02*
X10164539Y-16930436D01*
X10164539Y-16930436D02*
X10174063Y-16920912D01*
X10240730Y-16968531D02*
X10250253Y-16959008D01*
X10250253Y-16959008D02*
X10269301Y-16949484D01*
X10269301Y-16949484D02*
X10316920Y-16949484D01*
X10316920Y-16949484D02*
X10335968Y-16959008D01*
X10335968Y-16959008D02*
X10345491Y-16968531D01*
X10345491Y-16968531D02*
X10355015Y-16987579D01*
X10355015Y-16987579D02*
X10355015Y-17006627D01*
X10355015Y-17006627D02*
X10345491Y-17035198D01*
X10345491Y-17035198D02*
X10231206Y-17149484D01*
X10231206Y-17149484D02*
X10355015Y-17149484D01*
X10593111Y-17149484D02*
X10593111Y-16949484D01*
X10678825Y-17149484D02*
X10678825Y-17044722D01*
X10678825Y-17044722D02*
X10669301Y-17025674D01*
X10669301Y-17025674D02*
X10650253Y-17016150D01*
X10650253Y-17016150D02*
X10621682Y-17016150D01*
X10621682Y-17016150D02*
X10602634Y-17025674D01*
X10602634Y-17025674D02*
X10593111Y-17035198D01*
X10802634Y-17149484D02*
X10783587Y-17139960D01*
X10783587Y-17139960D02*
X10774063Y-17130436D01*
X10774063Y-17130436D02*
X10764539Y-17111389D01*
X10764539Y-17111389D02*
X10764539Y-17054246D01*
X10764539Y-17054246D02*
X10774063Y-17035198D01*
X10774063Y-17035198D02*
X10783587Y-17025674D01*
X10783587Y-17025674D02*
X10802634Y-17016150D01*
X10802634Y-17016150D02*
X10831206Y-17016150D01*
X10831206Y-17016150D02*
X10850253Y-17025674D01*
X10850253Y-17025674D02*
X10859777Y-17035198D01*
X10859777Y-17035198D02*
X10869301Y-17054246D01*
X10869301Y-17054246D02*
X10869301Y-17111389D01*
X10869301Y-17111389D02*
X10859777Y-17130436D01*
X10859777Y-17130436D02*
X10850253Y-17139960D01*
X10850253Y-17139960D02*
X10831206Y-17149484D01*
X10831206Y-17149484D02*
X10802634Y-17149484D01*
X10983587Y-17149484D02*
X10964539Y-17139960D01*
X10964539Y-17139960D02*
X10955015Y-17120912D01*
X10955015Y-17120912D02*
X10955015Y-16949484D01*
X11135968Y-17139960D02*
X11116920Y-17149484D01*
X11116920Y-17149484D02*
X11078825Y-17149484D01*
X11078825Y-17149484D02*
X11059777Y-17139960D01*
X11059777Y-17139960D02*
X11050253Y-17120912D01*
X11050253Y-17120912D02*
X11050253Y-17044722D01*
X11050253Y-17044722D02*
X11059777Y-17025674D01*
X11059777Y-17025674D02*
X11078825Y-17016150D01*
X11078825Y-17016150D02*
X11116920Y-17016150D01*
X11116920Y-17016150D02*
X11135968Y-17025674D01*
X11135968Y-17025674D02*
X11145492Y-17044722D01*
X11145492Y-17044722D02*
X11145492Y-17063770D01*
X11145492Y-17063770D02*
X11050253Y-17082817D01*
X11221682Y-17139960D02*
X11240730Y-17149484D01*
X11240730Y-17149484D02*
X11278825Y-17149484D01*
X11278825Y-17149484D02*
X11297872Y-17139960D01*
X11297872Y-17139960D02*
X11307396Y-17120912D01*
X11307396Y-17120912D02*
X11307396Y-17111389D01*
X11307396Y-17111389D02*
X11297872Y-17092341D01*
X11297872Y-17092341D02*
X11278825Y-17082817D01*
X11278825Y-17082817D02*
X11250253Y-17082817D01*
X11250253Y-17082817D02*
X11231206Y-17073293D01*
X11231206Y-17073293D02*
X11221682Y-17054246D01*
X11221682Y-17054246D02*
X11221682Y-17044722D01*
X11221682Y-17044722D02*
X11231206Y-17025674D01*
X11231206Y-17025674D02*
X11250253Y-17016150D01*
X11250253Y-17016150D02*
X11278825Y-17016150D01*
X11278825Y-17016150D02*
X11297872Y-17025674D01*
X11374063Y-17225674D02*
X11383587Y-17216150D01*
X11383587Y-17216150D02*
X11402634Y-17187579D01*
X11402634Y-17187579D02*
X11412158Y-17168531D01*
X11412158Y-17168531D02*
X11421682Y-17139960D01*
X11421682Y-17139960D02*
X11431206Y-17092341D01*
X11431206Y-17092341D02*
X11431206Y-17054246D01*
X11431206Y-17054246D02*
X11421682Y-17006627D01*
X11421682Y-17006627D02*
X11412158Y-16978055D01*
X11412158Y-16978055D02*
X11402634Y-16959008D01*
X11402634Y-16959008D02*
X11383587Y-16930436D01*
X11383587Y-16930436D02*
X11374063Y-16920912D01*
M02*
