%TF.GenerationSoftware,KiCad,Pcbnew,7.0.9*%
%TF.CreationDate,2023-12-22T14:45:10+09:00*%
%TF.ProjectId,Dev_IO_Board,4465765f-494f-45f4-926f-6172642e6b69,1.0.0*%
%TF.SameCoordinates,Original*%
%TF.FileFunction,Legend,Bot*%
%TF.FilePolarity,Positive*%
%FSLAX46Y46*%
G04 Gerber Fmt 4.6, Leading zero omitted, Abs format (unit mm)*
G04 Created by KiCad (PCBNEW 7.0.9) date 2023-12-22 14:45:10*
%MOMM*%
%LPD*%
G01*
G04 APERTURE LIST*
%ADD10R,1.700000X1.700000*%
%ADD11O,1.700000X1.700000*%
%ADD12R,1.600000X1.600000*%
%ADD13C,1.600000*%
%ADD14O,1.600000X1.600000*%
%ADD15R,1.500000X1.500000*%
%ADD16C,1.500000*%
%ADD17C,4.155000*%
%ADD18R,2.000000X2.000000*%
%ADD19C,2.000000*%
G04 APERTURE END LIST*
%LPC*%
D10*
%TO.C,J1*%
X121825000Y-62705951D03*
D11*
X124365000Y-62705951D03*
X126905000Y-62705951D03*
X129445000Y-62705951D03*
X131985000Y-62705951D03*
X134525000Y-62705951D03*
X137065000Y-62705951D03*
X139605000Y-62705951D03*
X142145000Y-62705951D03*
X144685000Y-62705951D03*
X147225000Y-62705951D03*
X149765000Y-62705951D03*
X152305000Y-62705951D03*
X154845000Y-62705951D03*
X157385000Y-62705951D03*
X159925000Y-62705951D03*
X162465000Y-62705951D03*
X165005000Y-62705951D03*
X167545000Y-62705951D03*
X170085000Y-62705951D03*
%TD*%
D10*
%TO.C,J2*%
X121825000Y-94455951D03*
D11*
X124365000Y-94455951D03*
X126905000Y-94455951D03*
X129445000Y-94455951D03*
X131985000Y-94455951D03*
X134525000Y-94455951D03*
X137065000Y-94455951D03*
X139605000Y-94455951D03*
X142145000Y-94455951D03*
X144685000Y-94455951D03*
X147225000Y-94455951D03*
X149765000Y-94455951D03*
X152305000Y-94455951D03*
X154845000Y-94455951D03*
X157385000Y-94455951D03*
X159925000Y-94455951D03*
X162465000Y-94455951D03*
X165005000Y-94455951D03*
X167545000Y-94455951D03*
X170085000Y-94455951D03*
%TD*%
D12*
%TO.C,U4*%
X184690000Y-101318451D03*
D13*
X187230000Y-101318451D03*
X189770000Y-101318451D03*
X192310000Y-101318451D03*
X194850000Y-101318451D03*
X194850000Y-86078451D03*
X192310000Y-86078451D03*
X189770000Y-86078451D03*
X187230000Y-86078451D03*
X184690000Y-86078451D03*
%TD*%
D12*
%TO.C,U3*%
X199940000Y-61430951D03*
D14*
X199940000Y-63970951D03*
X199940000Y-66510951D03*
X199940000Y-69050951D03*
X199940000Y-71590951D03*
X199940000Y-74130951D03*
X199940000Y-76670951D03*
X207560000Y-76670951D03*
X207560000Y-74130951D03*
X207560000Y-71590951D03*
X207560000Y-69050951D03*
X207560000Y-66510951D03*
X207560000Y-63970951D03*
X207560000Y-61430951D03*
%TD*%
D12*
%TO.C,U5*%
X198660000Y-101318451D03*
D13*
X201200000Y-101318451D03*
X203740000Y-101318451D03*
X206280000Y-101318451D03*
X208820000Y-101318451D03*
X208820000Y-86078451D03*
X206280000Y-86078451D03*
X203740000Y-86078451D03*
X201200000Y-86078451D03*
X198660000Y-86078451D03*
%TD*%
D15*
%TO.C,VR1*%
X177785000Y-140175951D03*
D16*
X180285000Y-140175951D03*
X182785000Y-140175951D03*
D17*
X175885000Y-133175951D03*
X184685000Y-133175951D03*
%TD*%
D18*
%TO.C,BZ1*%
X198025000Y-132555951D03*
D19*
X203025000Y-132555951D03*
%TD*%
D12*
%TO.C,U2*%
X185960000Y-61430951D03*
D14*
X185960000Y-63970951D03*
X185960000Y-66510951D03*
X185960000Y-69050951D03*
X185960000Y-71590951D03*
X185960000Y-74130951D03*
X185960000Y-76670951D03*
X193580000Y-76670951D03*
X193580000Y-74130951D03*
X193580000Y-71590951D03*
X193580000Y-69050951D03*
X193580000Y-66510951D03*
X193580000Y-63970951D03*
X193580000Y-61430951D03*
%TD*%
%LPD*%
M02*
