%TF.GenerationSoftware,KiCad,Pcbnew,7.0.9*%
%TF.CreationDate,2023-12-22T14:45:05+09:00*%
%TF.ProjectId,Dev_IO_Board,4465765f-494f-45f4-926f-6172642e6b69,1.0.0*%
%TF.SameCoordinates,Original*%
%TF.FileFunction,Paste,Top*%
%TF.FilePolarity,Positive*%
%FSLAX46Y46*%
G04 Gerber Fmt 4.6, Leading zero omitted, Abs format (unit mm)*
G04 Created by KiCad (PCBNEW 7.0.9) date 2023-12-22 14:45:05*
%MOMM*%
%LPD*%
G01*
G04 APERTURE LIST*
G04 Aperture macros list*
%AMRoundRect*
0 Rectangle with rounded corners*
0 $1 Rounding radius*
0 $2 $3 $4 $5 $6 $7 $8 $9 X,Y pos of 4 corners*
0 Add a 4 corners polygon primitive as box body*
4,1,4,$2,$3,$4,$5,$6,$7,$8,$9,$2,$3,0*
0 Add four circle primitives for the rounded corners*
1,1,$1+$1,$2,$3*
1,1,$1+$1,$4,$5*
1,1,$1+$1,$6,$7*
1,1,$1+$1,$8,$9*
0 Add four rect primitives between the rounded corners*
20,1,$1+$1,$2,$3,$4,$5,0*
20,1,$1+$1,$4,$5,$6,$7,0*
20,1,$1+$1,$6,$7,$8,$9,0*
20,1,$1+$1,$8,$9,$2,$3,0*%
G04 Aperture macros list end*
%ADD10RoundRect,0.237500X-0.237500X0.250000X-0.237500X-0.250000X0.237500X-0.250000X0.237500X0.250000X0*%
%ADD11RoundRect,0.150000X-0.587500X-0.150000X0.587500X-0.150000X0.587500X0.150000X-0.587500X0.150000X0*%
%ADD12RoundRect,0.237500X0.300000X0.237500X-0.300000X0.237500X-0.300000X-0.237500X0.300000X-0.237500X0*%
%ADD13R,1.000000X1.500000*%
%ADD14RoundRect,0.237500X-0.250000X-0.237500X0.250000X-0.237500X0.250000X0.237500X-0.250000X0.237500X0*%
%ADD15RoundRect,0.237500X-0.287500X-0.237500X0.287500X-0.237500X0.287500X0.237500X-0.287500X0.237500X0*%
%ADD16RoundRect,0.237500X0.250000X0.237500X-0.250000X0.237500X-0.250000X-0.237500X0.250000X-0.237500X0*%
%ADD17R,0.550000X0.350000*%
%ADD18R,0.350000X0.550000*%
G04 APERTURE END LIST*
D10*
%TO.C,R25*%
X165005000Y-124935951D03*
X165005000Y-126760951D03*
%TD*%
D11*
%TO.C,Q1*%
X88805000Y-117315951D03*
X88805000Y-119215951D03*
X90680000Y-118265951D03*
%TD*%
D12*
%TO.C,C5*%
X130307500Y-112235951D03*
X128582500Y-112235951D03*
%TD*%
D13*
%TO.C,S5*%
X134235000Y-130845951D03*
X134235000Y-139345951D03*
X129735000Y-130845951D03*
X129735000Y-139345951D03*
%TD*%
D14*
%TO.C,R26*%
X198025000Y-124935951D03*
X199850000Y-124935951D03*
%TD*%
D10*
%TO.C,R22*%
X134525000Y-124935951D03*
X134525000Y-126760951D03*
%TD*%
D13*
%TO.C,S6*%
X144395000Y-130845951D03*
X144395000Y-139345951D03*
X139895000Y-130845951D03*
X139895000Y-139345951D03*
%TD*%
%TO.C,S3*%
X113915000Y-130845951D03*
X113915000Y-139345951D03*
X109415000Y-130845951D03*
X109415000Y-139345951D03*
%TD*%
D11*
%TO.C,Q9*%
X195485000Y-119855951D03*
X195485000Y-121755951D03*
X197360000Y-120805951D03*
%TD*%
D12*
%TO.C,C7*%
X150627500Y-112235951D03*
X148902500Y-112235951D03*
%TD*%
D10*
%TO.C,R21*%
X124365000Y-124935951D03*
X124365000Y-126760951D03*
%TD*%
D11*
%TO.C,Q4*%
X119285000Y-117315951D03*
X119285000Y-119215951D03*
X121160000Y-118265951D03*
%TD*%
D10*
%TO.C,R6*%
X144685000Y-116403451D03*
X144685000Y-118228451D03*
%TD*%
%TO.C,R19*%
X104045000Y-124935951D03*
X104045000Y-126760951D03*
%TD*%
D15*
%TO.C,D1*%
X90470000Y-122395951D03*
X92220000Y-122395951D03*
%TD*%
D12*
%TO.C,C4*%
X120147500Y-112235951D03*
X118422500Y-112235951D03*
%TD*%
D11*
%TO.C,Q7*%
X149765000Y-117315951D03*
X149765000Y-119215951D03*
X151640000Y-118265951D03*
%TD*%
D16*
%TO.C,R15*%
X154845000Y-112235951D03*
X153020000Y-112235951D03*
%TD*%
D11*
%TO.C,Q5*%
X129445000Y-117315951D03*
X129445000Y-119215951D03*
X131320000Y-118265951D03*
%TD*%
D12*
%TO.C,C9*%
X178567500Y-124935951D03*
X176842500Y-124935951D03*
%TD*%
D11*
%TO.C,Q3*%
X109125000Y-117315951D03*
X109125000Y-119215951D03*
X111000000Y-118265951D03*
%TD*%
D10*
%TO.C,R2*%
X104045000Y-116403451D03*
X104045000Y-118228451D03*
%TD*%
%TO.C,R18*%
X93885000Y-124935951D03*
X93885000Y-126760951D03*
%TD*%
D15*
%TO.C,D9*%
X161590000Y-122395951D03*
X163340000Y-122395951D03*
%TD*%
D16*
%TO.C,R9*%
X94797500Y-112235951D03*
X92972500Y-112235951D03*
%TD*%
D15*
%TO.C,D8*%
X151430000Y-122395951D03*
X153180000Y-122395951D03*
%TD*%
D11*
%TO.C,Q2*%
X98965000Y-117315951D03*
X98965000Y-119215951D03*
X100840000Y-118265951D03*
%TD*%
D16*
%TO.C,R14*%
X144685000Y-112235951D03*
X142860000Y-112235951D03*
%TD*%
D10*
%TO.C,R7*%
X154845000Y-116403451D03*
X154845000Y-118228451D03*
%TD*%
D15*
%TO.C,D4*%
X110790000Y-122395951D03*
X112540000Y-122395951D03*
%TD*%
D11*
%TO.C,Q8*%
X159925000Y-117315951D03*
X159925000Y-119215951D03*
X161800000Y-118265951D03*
%TD*%
D12*
%TO.C,C8*%
X160787500Y-112235951D03*
X159062500Y-112235951D03*
%TD*%
D16*
%TO.C,R12*%
X124365000Y-112235951D03*
X122540000Y-112235951D03*
%TD*%
D17*
%TO.C,U1*%
X182830000Y-108695951D03*
X182830000Y-109195951D03*
X182830000Y-109695951D03*
X182830000Y-110195951D03*
X182830000Y-110695951D03*
D18*
X183555000Y-110920951D03*
X184055000Y-110920951D03*
X184555000Y-110920951D03*
D17*
X185280000Y-110695951D03*
X185280000Y-110195951D03*
X185280000Y-109695951D03*
X185280000Y-109195951D03*
X185280000Y-108695951D03*
D18*
X184555000Y-108470951D03*
X184055000Y-108470951D03*
X183555000Y-108470951D03*
%TD*%
D12*
%TO.C,C6*%
X140467500Y-112235951D03*
X138742500Y-112235951D03*
%TD*%
%TO.C,C1*%
X89667500Y-112235951D03*
X87942500Y-112235951D03*
%TD*%
D15*
%TO.C,D5*%
X120950000Y-122395951D03*
X122700000Y-122395951D03*
%TD*%
%TO.C,D7*%
X141270000Y-122395951D03*
X143020000Y-122395951D03*
%TD*%
D13*
%TO.C,S2*%
X103755000Y-130845951D03*
X103755000Y-139345951D03*
X99255000Y-130845951D03*
X99255000Y-139345951D03*
%TD*%
D10*
%TO.C,R1*%
X93885000Y-116403451D03*
X93885000Y-118228451D03*
%TD*%
D16*
%TO.C,R13*%
X134525000Y-112235951D03*
X132700000Y-112235951D03*
%TD*%
D15*
%TO.C,D6*%
X131110000Y-122395951D03*
X132860000Y-122395951D03*
%TD*%
D12*
%TO.C,C3*%
X109987500Y-112235951D03*
X108262500Y-112235951D03*
%TD*%
D16*
%TO.C,R11*%
X114205000Y-112235951D03*
X112380000Y-112235951D03*
%TD*%
D10*
%TO.C,R20*%
X114205000Y-124935951D03*
X114205000Y-126760951D03*
%TD*%
D13*
%TO.C,S7*%
X154555000Y-130845951D03*
X154555000Y-139345951D03*
X150055000Y-130845951D03*
X150055000Y-139345951D03*
%TD*%
D16*
%TO.C,R10*%
X104045000Y-112235951D03*
X102220000Y-112235951D03*
%TD*%
D11*
%TO.C,Q6*%
X139605000Y-117315951D03*
X139605000Y-119215951D03*
X141480000Y-118265951D03*
%TD*%
D10*
%TO.C,R5*%
X134525000Y-116403451D03*
X134525000Y-118228451D03*
%TD*%
%TO.C,R3*%
X114205000Y-116403451D03*
X114205000Y-118228451D03*
%TD*%
D16*
%TO.C,R16*%
X165005000Y-112235951D03*
X163180000Y-112235951D03*
%TD*%
D14*
%TO.C,R27*%
X192945000Y-117315951D03*
X194770000Y-117315951D03*
%TD*%
D10*
%TO.C,R4*%
X124365000Y-116403451D03*
X124365000Y-118228451D03*
%TD*%
%TO.C,R24*%
X154845000Y-124935951D03*
X154845000Y-126760951D03*
%TD*%
%TO.C,R29*%
X203740000Y-104338451D03*
X203740000Y-106163451D03*
%TD*%
%TO.C,R8*%
X165005000Y-116403451D03*
X165005000Y-118228451D03*
%TD*%
D13*
%TO.C,S1*%
X93595000Y-130845951D03*
X93595000Y-139345951D03*
X89095000Y-130845951D03*
X89095000Y-139345951D03*
%TD*%
D12*
%TO.C,C2*%
X99827500Y-112235951D03*
X98102500Y-112235951D03*
%TD*%
D13*
%TO.C,S8*%
X164715000Y-130845951D03*
X164715000Y-139345951D03*
X160215000Y-130845951D03*
X160215000Y-139345951D03*
%TD*%
D10*
%TO.C,R28*%
X189770000Y-104338451D03*
X189770000Y-106163451D03*
%TD*%
D13*
%TO.C,S4*%
X124075000Y-130845951D03*
X124075000Y-139345951D03*
X119575000Y-130845951D03*
X119575000Y-139345951D03*
%TD*%
D10*
%TO.C,R23*%
X144685000Y-124935951D03*
X144685000Y-126760951D03*
%TD*%
%TO.C,R17*%
X180245000Y-121483451D03*
X180245000Y-123308451D03*
%TD*%
D15*
%TO.C,D3*%
X100630000Y-122395951D03*
X102380000Y-122395951D03*
%TD*%
M02*
