%TF.GenerationSoftware,KiCad,Pcbnew,7.0.9*%
%TF.CreationDate,2023-12-22T14:45:07+09:00*%
%TF.ProjectId,Dev_IO_Board,4465765f-494f-45f4-926f-6172642e6b69,1.0.0*%
%TF.SameCoordinates,Original*%
%TF.FileFunction,Copper,L3,Inr*%
%TF.FilePolarity,Positive*%
%FSLAX46Y46*%
G04 Gerber Fmt 4.6, Leading zero omitted, Abs format (unit mm)*
G04 Created by KiCad (PCBNEW 7.0.9) date 2023-12-22 14:45:07*
%MOMM*%
%LPD*%
G01*
G04 APERTURE LIST*
%TA.AperFunction,ComponentPad*%
%ADD10R,1.700000X1.700000*%
%TD*%
%TA.AperFunction,ComponentPad*%
%ADD11O,1.700000X1.700000*%
%TD*%
%TA.AperFunction,ComponentPad*%
%ADD12R,1.600000X1.600000*%
%TD*%
%TA.AperFunction,ComponentPad*%
%ADD13C,1.600000*%
%TD*%
%TA.AperFunction,ComponentPad*%
%ADD14O,1.600000X1.600000*%
%TD*%
%TA.AperFunction,ComponentPad*%
%ADD15R,1.500000X1.500000*%
%TD*%
%TA.AperFunction,ComponentPad*%
%ADD16C,1.500000*%
%TD*%
%TA.AperFunction,ComponentPad*%
%ADD17C,4.155000*%
%TD*%
%TA.AperFunction,ComponentPad*%
%ADD18R,2.000000X2.000000*%
%TD*%
%TA.AperFunction,ComponentPad*%
%ADD19C,2.000000*%
%TD*%
%TA.AperFunction,ViaPad*%
%ADD20C,0.800000*%
%TD*%
G04 APERTURE END LIST*
D10*
%TO.N,VCC3V3*%
%TO.C,J1*%
X121825000Y-62705951D03*
D11*
%TO.N,GND*%
X124365000Y-62705951D03*
%TO.N,5V*%
X126905000Y-62705951D03*
%TO.N,PC12*%
X129445000Y-62705951D03*
%TO.N,PC11*%
X131985000Y-62705951D03*
%TO.N,PC10*%
X134525000Y-62705951D03*
%TO.N,PA10{slash}USART1_RX*%
X137065000Y-62705951D03*
%TO.N,PA9{slash}USART1_TX*%
X139605000Y-62705951D03*
%TO.N,PA8*%
X142145000Y-62705951D03*
%TO.N,PC9*%
X144685000Y-62705951D03*
%TO.N,PC8*%
X147225000Y-62705951D03*
%TO.N,PC7*%
X149765000Y-62705951D03*
%TO.N,PC6*%
X152305000Y-62705951D03*
%TO.N,PB15{slash}SPI2_MOSI*%
X154845000Y-62705951D03*
%TO.N,PB14{slash}SPI2_MISO*%
X157385000Y-62705951D03*
%TO.N,PB13{slash}SPI2_SCK*%
X159925000Y-62705951D03*
%TO.N,PB12{slash}SPI2_NSS*%
X162465000Y-62705951D03*
%TO.N,PB11*%
X165005000Y-62705951D03*
%TO.N,PB10*%
X167545000Y-62705951D03*
%TO.N,PB1*%
X170085000Y-62705951D03*
%TD*%
D10*
%TO.N,VBAT*%
%TO.C,J2*%
X121825000Y-94455951D03*
D11*
%TO.N,PB6*%
X124365000Y-94455951D03*
%TO.N,PB7*%
X126905000Y-94455951D03*
%TO.N,PB8*%
X129445000Y-94455951D03*
%TO.N,PB9*%
X131985000Y-94455951D03*
%TO.N,PC13*%
X134525000Y-94455951D03*
%TO.N,PA5*%
X137065000Y-94455951D03*
%TO.N,PA6*%
X139605000Y-94455951D03*
%TO.N,PC0*%
X142145000Y-94455951D03*
%TO.N,PC1*%
X144685000Y-94455951D03*
%TO.N,PC2*%
X147225000Y-94455951D03*
%TO.N,PC3*%
X149765000Y-94455951D03*
%TO.N,PA0*%
X152305000Y-94455951D03*
%TO.N,PA1{slash}ADC123_IN1*%
X154845000Y-94455951D03*
%TO.N,PA2*%
X157385000Y-94455951D03*
%TO.N,PA3{slash}TIM9_CH2*%
X159925000Y-94455951D03*
%TO.N,RESET*%
X162465000Y-94455951D03*
%TO.N,VCC3V3*%
X165005000Y-94455951D03*
%TO.N,GND*%
X167545000Y-94455951D03*
X170085000Y-94455951D03*
%TD*%
D12*
%TO.N,Net-(U2-e)*%
%TO.C,U4*%
X184690000Y-101318451D03*
D13*
%TO.N,Net-(U2-d)*%
X187230000Y-101318451D03*
%TO.N,Net-(R28-Pad1)*%
X189770000Y-101318451D03*
%TO.N,Net-(U2-c)*%
X192310000Y-101318451D03*
%TO.N,GND*%
X194850000Y-101318451D03*
%TO.N,Net-(U2-b)*%
X194850000Y-86078451D03*
%TO.N,Net-(U2-a)*%
X192310000Y-86078451D03*
%TO.N,Net-(R28-Pad1)*%
X189770000Y-86078451D03*
%TO.N,Net-(U2-f)*%
X187230000Y-86078451D03*
%TO.N,Net-(U2-g)*%
X184690000Y-86078451D03*
%TD*%
D12*
%TO.N,PB1*%
%TO.C,U3*%
X199940000Y-61430951D03*
D14*
%TO.N,PB10*%
X199940000Y-63970951D03*
%TO.N,VCC3V3*%
X199940000Y-66510951D03*
%TO.N,PB11*%
X199940000Y-69050951D03*
%TO.N,PA8*%
X199940000Y-71590951D03*
%TO.N,Net-(U3-e)*%
X199940000Y-74130951D03*
%TO.N,GND*%
X199940000Y-76670951D03*
%TO.N,Net-(U3-d)*%
X207560000Y-76670951D03*
%TO.N,Net-(U3-c)*%
X207560000Y-74130951D03*
%TO.N,Net-(U3-b)*%
X207560000Y-71590951D03*
%TO.N,Net-(U3-a)*%
X207560000Y-69050951D03*
%TO.N,Net-(U3-g)*%
X207560000Y-66510951D03*
%TO.N,Net-(U3-f)*%
X207560000Y-63970951D03*
%TO.N,VCC3V3*%
X207560000Y-61430951D03*
%TD*%
D12*
%TO.N,Net-(U3-e)*%
%TO.C,U5*%
X198660000Y-101318451D03*
D13*
%TO.N,Net-(U3-d)*%
X201200000Y-101318451D03*
%TO.N,Net-(R29-Pad1)*%
X203740000Y-101318451D03*
%TO.N,Net-(U3-c)*%
X206280000Y-101318451D03*
%TO.N,GND*%
X208820000Y-101318451D03*
%TO.N,Net-(U3-b)*%
X208820000Y-86078451D03*
%TO.N,Net-(U3-a)*%
X206280000Y-86078451D03*
%TO.N,Net-(R29-Pad1)*%
X203740000Y-86078451D03*
%TO.N,Net-(U3-f)*%
X201200000Y-86078451D03*
%TO.N,Net-(U3-g)*%
X198660000Y-86078451D03*
%TD*%
D15*
%TO.N,GND*%
%TO.C,VR1*%
X177785000Y-140175951D03*
D16*
%TO.N,Net-(VR1-WIPER)*%
X180285000Y-140175951D03*
%TO.N,VCC3V3*%
X182785000Y-140175951D03*
D17*
%TO.N,GND*%
X175885000Y-133175951D03*
X184685000Y-133175951D03*
%TD*%
D18*
%TO.N,VCC3V3*%
%TO.C,BZ1*%
X198025000Y-132555951D03*
D19*
%TO.N,Net-(BZ1-+)*%
X203025000Y-132555951D03*
%TD*%
D12*
%TO.N,PA2*%
%TO.C,U2*%
X185960000Y-61430951D03*
D14*
%TO.N,PA5*%
X185960000Y-63970951D03*
%TO.N,VCC3V3*%
X185960000Y-66510951D03*
%TO.N,PA6*%
X185960000Y-69050951D03*
%TO.N,PA0*%
X185960000Y-71590951D03*
%TO.N,Net-(U2-e)*%
X185960000Y-74130951D03*
%TO.N,GND*%
X185960000Y-76670951D03*
%TO.N,Net-(U2-d)*%
X193580000Y-76670951D03*
%TO.N,Net-(U2-c)*%
X193580000Y-74130951D03*
%TO.N,Net-(U2-b)*%
X193580000Y-71590951D03*
%TO.N,Net-(U2-a)*%
X193580000Y-69050951D03*
%TO.N,Net-(U2-g)*%
X193580000Y-66510951D03*
%TO.N,Net-(U2-f)*%
X193580000Y-63970951D03*
%TO.N,VCC3V3*%
X193580000Y-61430951D03*
%TD*%
D20*
%TO.N,VCC3V3*%
X123095000Y-109695951D03*
X163735000Y-109695951D03*
X156115000Y-114775951D03*
X104045000Y-109695951D03*
X180245000Y-107155951D03*
X184055000Y-104615951D03*
X114205000Y-109695951D03*
X133255000Y-109695951D03*
X142145000Y-109695951D03*
X95155000Y-109695951D03*
%TO.N,PC0*%
X130715000Y-89375951D03*
X93885000Y-103345951D03*
%TO.N,GND*%
X129445000Y-126205951D03*
X126905000Y-77945951D03*
X131985000Y-103345951D03*
X116745000Y-137635951D03*
X149765000Y-74135951D03*
X124365000Y-77945951D03*
X149765000Y-76675951D03*
X185325000Y-114775951D03*
X97695000Y-126205951D03*
X158655000Y-102075951D03*
X125635000Y-107155951D03*
X131985000Y-75405951D03*
X158655000Y-126205951D03*
X121825000Y-102075951D03*
X139605000Y-126205951D03*
X119285000Y-126205951D03*
X149765000Y-104615951D03*
X148495000Y-126205951D03*
X137065000Y-108425951D03*
X159925000Y-77945951D03*
X178975000Y-109695951D03*
X121825000Y-79215951D03*
X109125000Y-126205951D03*
X131985000Y-77945951D03*
X165005000Y-80485951D03*
X162465000Y-79215951D03*
X180880000Y-103980951D03*
X139605000Y-102075951D03*
X151035000Y-114775951D03*
%TD*%
%TA.AperFunction,Conductor*%
%TO.N,GND*%
G36*
X169625507Y-94246107D02*
G01*
X169585000Y-94384062D01*
X169585000Y-94527840D01*
X169625507Y-94665795D01*
X169651314Y-94705951D01*
X167978686Y-94705951D01*
X168004493Y-94665795D01*
X168045000Y-94527840D01*
X168045000Y-94384062D01*
X168004493Y-94246107D01*
X167978686Y-94205951D01*
X169651314Y-94205951D01*
X169625507Y-94246107D01*
G37*
%TD.AperFunction*%
%TA.AperFunction,Conductor*%
G36*
X208727019Y-56356584D02*
G01*
X208806372Y-56361784D01*
X208811193Y-56362100D01*
X208990077Y-56374862D01*
X208997734Y-56375894D01*
X209117238Y-56399665D01*
X209258229Y-56430337D01*
X209264957Y-56432205D01*
X209386033Y-56473305D01*
X209473747Y-56506021D01*
X209516275Y-56521884D01*
X209522035Y-56524370D01*
X209639051Y-56582077D01*
X209759432Y-56647812D01*
X209764148Y-56650667D01*
X209821496Y-56688987D01*
X209872426Y-56723018D01*
X209875105Y-56724913D01*
X209983144Y-56805792D01*
X209986835Y-56808784D01*
X210083861Y-56893876D01*
X210085070Y-56894936D01*
X210088022Y-56897701D01*
X210183225Y-56992906D01*
X210185989Y-56995856D01*
X210186995Y-56997003D01*
X210272129Y-57094083D01*
X210275149Y-57097808D01*
X210356002Y-57205818D01*
X210357920Y-57208529D01*
X210430250Y-57316782D01*
X210433116Y-57321516D01*
X210498857Y-57441917D01*
X210556544Y-57558900D01*
X210559030Y-57564659D01*
X210607608Y-57694906D01*
X210648705Y-57815984D01*
X210650580Y-57822739D01*
X210681250Y-57963742D01*
X210705016Y-58083233D01*
X210706050Y-58090913D01*
X210718413Y-58263832D01*
X210724367Y-58354708D01*
X210724500Y-58358763D01*
X210724500Y-141983916D01*
X210724367Y-141987971D01*
X210719173Y-142067255D01*
X210705948Y-142251761D01*
X210704915Y-142259430D01*
X210682387Y-142372703D01*
X210650343Y-142520018D01*
X210648468Y-142526773D01*
X210608734Y-142643835D01*
X210558643Y-142778138D01*
X210556157Y-142783896D01*
X210499956Y-142897868D01*
X210432540Y-143021336D01*
X210429674Y-143026070D01*
X210358987Y-143131864D01*
X210357069Y-143134574D01*
X210274346Y-143245082D01*
X210271326Y-143248807D01*
X210187033Y-143344930D01*
X210184268Y-143347881D01*
X210135595Y-143396556D01*
X210086921Y-143445231D01*
X210083959Y-143448005D01*
X209987859Y-143532284D01*
X209984133Y-143535304D01*
X209873592Y-143618055D01*
X209870883Y-143619973D01*
X209765124Y-143690642D01*
X209760389Y-143693508D01*
X209636915Y-143760932D01*
X209522941Y-143817138D01*
X209517182Y-143819624D01*
X209382877Y-143869719D01*
X209265821Y-143909455D01*
X209259065Y-143911330D01*
X209111741Y-143943379D01*
X208998500Y-143965904D01*
X208990820Y-143966939D01*
X208800557Y-143980547D01*
X208727755Y-143985318D01*
X208723700Y-143985451D01*
X85727023Y-143985451D01*
X85722975Y-143985318D01*
X85695771Y-143983535D01*
X85638900Y-143979807D01*
X85459925Y-143967036D01*
X85452234Y-143966001D01*
X85332910Y-143942266D01*
X85191766Y-143911561D01*
X85185011Y-143909686D01*
X85064025Y-143868616D01*
X84933702Y-143820006D01*
X84927943Y-143817520D01*
X84811008Y-143759853D01*
X84730308Y-143715788D01*
X84690547Y-143694076D01*
X84685826Y-143691218D01*
X84579203Y-143619973D01*
X84577614Y-143618911D01*
X84574903Y-143616993D01*
X84466850Y-143536103D01*
X84463124Y-143533082D01*
X84364949Y-143446983D01*
X84361988Y-143444209D01*
X84334550Y-143416771D01*
X84266733Y-143348952D01*
X84263984Y-143346016D01*
X84177881Y-143247832D01*
X84174861Y-143244107D01*
X84093981Y-143136060D01*
X84092063Y-143133349D01*
X84019756Y-143025131D01*
X84016895Y-143020405D01*
X83951127Y-142899955D01*
X83893458Y-142783010D01*
X83890975Y-142777262D01*
X83842366Y-142646926D01*
X83841317Y-142643835D01*
X83801294Y-142525926D01*
X83799428Y-142519202D01*
X83768732Y-142378084D01*
X83744981Y-142258661D01*
X83743951Y-142251017D01*
X83731576Y-142077948D01*
X83726661Y-142002929D01*
X83725633Y-141987228D01*
X83725500Y-141983173D01*
X83725500Y-140973795D01*
X176535000Y-140973795D01*
X176541401Y-141033323D01*
X176541403Y-141033330D01*
X176591645Y-141168037D01*
X176591649Y-141168044D01*
X176677809Y-141283138D01*
X176677812Y-141283141D01*
X176792906Y-141369301D01*
X176792913Y-141369305D01*
X176927620Y-141419547D01*
X176927627Y-141419549D01*
X176987155Y-141425950D01*
X176987172Y-141425951D01*
X177535000Y-141425951D01*
X177535000Y-140611452D01*
X177642685Y-140660631D01*
X177749237Y-140675951D01*
X177820763Y-140675951D01*
X177927315Y-140660631D01*
X178035000Y-140611452D01*
X178035000Y-141425951D01*
X178582828Y-141425951D01*
X178582844Y-141425950D01*
X178642372Y-141419549D01*
X178642379Y-141419547D01*
X178777086Y-141369305D01*
X178777093Y-141369301D01*
X178892187Y-141283141D01*
X178892190Y-141283138D01*
X178978350Y-141168044D01*
X178978354Y-141168037D01*
X179028596Y-141033330D01*
X179028598Y-141033323D01*
X179034999Y-140973795D01*
X179035000Y-140973778D01*
X179035000Y-140964224D01*
X179054685Y-140897185D01*
X179107489Y-140851430D01*
X179176647Y-140841486D01*
X179240203Y-140870511D01*
X179260569Y-140893093D01*
X179323402Y-140982828D01*
X179478123Y-141137549D01*
X179657361Y-141263053D01*
X179855670Y-141355526D01*
X180067023Y-141412158D01*
X180249926Y-141428159D01*
X180284998Y-141431228D01*
X180285000Y-141431228D01*
X180285002Y-141431228D01*
X180313254Y-141428756D01*
X180502977Y-141412158D01*
X180714330Y-141355526D01*
X180912639Y-141263053D01*
X181091877Y-141137549D01*
X181246598Y-140982828D01*
X181372102Y-140803590D01*
X181422618Y-140695257D01*
X181468790Y-140642818D01*
X181535984Y-140623666D01*
X181602865Y-140643882D01*
X181647381Y-140695257D01*
X181697898Y-140803590D01*
X181823402Y-140982828D01*
X181978123Y-141137549D01*
X182157361Y-141263053D01*
X182355670Y-141355526D01*
X182567023Y-141412158D01*
X182749926Y-141428159D01*
X182784998Y-141431228D01*
X182785000Y-141431228D01*
X182785002Y-141431228D01*
X182813254Y-141428756D01*
X183002977Y-141412158D01*
X183214330Y-141355526D01*
X183412639Y-141263053D01*
X183591877Y-141137549D01*
X183746598Y-140982828D01*
X183872102Y-140803590D01*
X183964575Y-140605281D01*
X184021207Y-140393928D01*
X184040277Y-140175951D01*
X184021207Y-139957974D01*
X183964575Y-139746621D01*
X183872102Y-139548313D01*
X183872100Y-139548310D01*
X183872099Y-139548308D01*
X183746599Y-139369075D01*
X183696095Y-139318571D01*
X183591877Y-139214353D01*
X183412639Y-139088849D01*
X183412640Y-139088849D01*
X183412638Y-139088848D01*
X183313484Y-139042612D01*
X183214330Y-138996376D01*
X183214326Y-138996375D01*
X183214322Y-138996373D01*
X183002977Y-138939744D01*
X182785002Y-138920674D01*
X182784998Y-138920674D01*
X182651516Y-138932352D01*
X182567023Y-138939744D01*
X182567020Y-138939744D01*
X182355677Y-138996373D01*
X182355668Y-138996377D01*
X182157361Y-139088849D01*
X182157357Y-139088851D01*
X181978121Y-139214353D01*
X181823402Y-139369072D01*
X181697900Y-139548308D01*
X181697898Y-139548313D01*
X181647382Y-139656644D01*
X181601209Y-139709083D01*
X181534016Y-139728235D01*
X181467135Y-139708019D01*
X181422618Y-139656644D01*
X181415156Y-139640643D01*
X181372102Y-139548313D01*
X181372099Y-139548309D01*
X181372099Y-139548308D01*
X181246599Y-139369075D01*
X181196095Y-139318571D01*
X181091877Y-139214353D01*
X180912639Y-139088849D01*
X180912640Y-139088849D01*
X180912638Y-139088848D01*
X180813484Y-139042612D01*
X180714330Y-138996376D01*
X180714326Y-138996375D01*
X180714322Y-138996373D01*
X180502977Y-138939744D01*
X180285002Y-138920674D01*
X180284998Y-138920674D01*
X180151516Y-138932352D01*
X180067023Y-138939744D01*
X180067020Y-138939744D01*
X179855677Y-138996373D01*
X179855668Y-138996377D01*
X179657361Y-139088849D01*
X179657357Y-139088851D01*
X179478121Y-139214353D01*
X179323402Y-139369072D01*
X179260575Y-139458800D01*
X179205998Y-139502425D01*
X179136500Y-139509619D01*
X179074145Y-139478096D01*
X179038731Y-139417866D01*
X179035000Y-139387677D01*
X179035000Y-139378123D01*
X179034999Y-139378106D01*
X179028598Y-139318578D01*
X179028596Y-139318571D01*
X178978354Y-139183864D01*
X178978350Y-139183857D01*
X178892190Y-139068763D01*
X178892187Y-139068760D01*
X178777093Y-138982600D01*
X178777086Y-138982596D01*
X178642379Y-138932354D01*
X178642372Y-138932352D01*
X178582844Y-138925951D01*
X178035000Y-138925951D01*
X178035000Y-139740449D01*
X177927315Y-139691271D01*
X177820763Y-139675951D01*
X177749237Y-139675951D01*
X177642685Y-139691271D01*
X177535000Y-139740449D01*
X177535000Y-138925951D01*
X176987155Y-138925951D01*
X176927627Y-138932352D01*
X176927620Y-138932354D01*
X176792913Y-138982596D01*
X176792906Y-138982600D01*
X176677812Y-139068760D01*
X176677809Y-139068763D01*
X176591649Y-139183857D01*
X176591645Y-139183864D01*
X176541403Y-139318571D01*
X176541401Y-139318578D01*
X176535000Y-139378106D01*
X176535000Y-139925951D01*
X177351314Y-139925951D01*
X177325507Y-139966107D01*
X177285000Y-140104062D01*
X177285000Y-140247840D01*
X177325507Y-140385795D01*
X177351314Y-140425951D01*
X176535000Y-140425951D01*
X176535000Y-140973795D01*
X83725500Y-140973795D01*
X83725500Y-133175956D01*
X173302404Y-133175956D01*
X173322767Y-133499625D01*
X173322768Y-133499632D01*
X173383542Y-133818221D01*
X173483763Y-134126669D01*
X173483765Y-134126674D01*
X173621852Y-134420122D01*
X173621855Y-134420128D01*
X173795629Y-134693953D01*
X173894241Y-134813154D01*
X174743605Y-133963790D01*
X174767438Y-134002496D01*
X174923199Y-134179476D01*
X175095723Y-134318779D01*
X174244488Y-135170014D01*
X174501172Y-135356506D01*
X174501182Y-135356513D01*
X174785384Y-135512754D01*
X174785392Y-135512758D01*
X175086930Y-135632145D01*
X175086933Y-135632146D01*
X175401073Y-135712803D01*
X175722825Y-135753450D01*
X175722839Y-135753451D01*
X176047161Y-135753451D01*
X176047174Y-135753450D01*
X176368926Y-135712803D01*
X176683066Y-135632146D01*
X176683069Y-135632145D01*
X176984607Y-135512758D01*
X176984615Y-135512754D01*
X177268817Y-135356513D01*
X177268827Y-135356506D01*
X177525509Y-135170014D01*
X177525510Y-135170014D01*
X176671525Y-134316029D01*
X176758231Y-134257427D01*
X176928441Y-134094294D01*
X177025569Y-133962966D01*
X177875757Y-134813154D01*
X177974367Y-134693958D01*
X178148144Y-134420128D01*
X178148147Y-134420122D01*
X178286234Y-134126674D01*
X178286236Y-134126669D01*
X178386457Y-133818221D01*
X178447231Y-133499632D01*
X178447232Y-133499625D01*
X178467596Y-133175956D01*
X182102404Y-133175956D01*
X182122767Y-133499625D01*
X182122768Y-133499632D01*
X182183542Y-133818221D01*
X182283763Y-134126669D01*
X182283765Y-134126674D01*
X182421852Y-134420122D01*
X182421855Y-134420128D01*
X182595629Y-134693953D01*
X182694241Y-134813154D01*
X183543605Y-133963790D01*
X183567438Y-134002496D01*
X183723199Y-134179476D01*
X183895723Y-134318779D01*
X183044488Y-135170014D01*
X183301172Y-135356506D01*
X183301182Y-135356513D01*
X183585384Y-135512754D01*
X183585392Y-135512758D01*
X183886930Y-135632145D01*
X183886933Y-135632146D01*
X184201073Y-135712803D01*
X184522825Y-135753450D01*
X184522839Y-135753451D01*
X184847161Y-135753451D01*
X184847174Y-135753450D01*
X185168926Y-135712803D01*
X185483066Y-135632146D01*
X185483069Y-135632145D01*
X185784607Y-135512758D01*
X185784615Y-135512754D01*
X186068817Y-135356513D01*
X186068827Y-135356506D01*
X186325509Y-135170014D01*
X186325510Y-135170014D01*
X185471525Y-134316029D01*
X185558231Y-134257427D01*
X185728441Y-134094294D01*
X185825569Y-133962966D01*
X186675757Y-134813154D01*
X186774367Y-134693958D01*
X186948144Y-134420128D01*
X186948147Y-134420122D01*
X187086234Y-134126674D01*
X187086236Y-134126669D01*
X187186457Y-133818221D01*
X187227356Y-133603821D01*
X196524500Y-133603821D01*
X196524501Y-133603827D01*
X196530908Y-133663434D01*
X196581202Y-133798279D01*
X196581206Y-133798286D01*
X196667452Y-133913495D01*
X196667455Y-133913498D01*
X196782664Y-133999744D01*
X196782671Y-133999748D01*
X196917517Y-134050042D01*
X196917516Y-134050042D01*
X196924444Y-134050786D01*
X196977127Y-134056451D01*
X199072872Y-134056450D01*
X199132483Y-134050042D01*
X199267331Y-133999747D01*
X199382546Y-133913497D01*
X199468796Y-133798282D01*
X199519091Y-133663434D01*
X199525500Y-133603824D01*
X199525500Y-132555956D01*
X201519357Y-132555956D01*
X201539890Y-132803763D01*
X201539892Y-132803775D01*
X201600936Y-133044832D01*
X201700826Y-133272557D01*
X201836833Y-133480733D01*
X201854231Y-133499632D01*
X202005256Y-133663689D01*
X202201491Y-133816425D01*
X202420190Y-133934779D01*
X202655386Y-134015522D01*
X202900665Y-134056451D01*
X203149335Y-134056451D01*
X203394614Y-134015522D01*
X203629810Y-133934779D01*
X203848509Y-133816425D01*
X204044744Y-133663689D01*
X204213164Y-133480736D01*
X204349173Y-133272558D01*
X204449063Y-133044832D01*
X204510108Y-132803772D01*
X204530643Y-132555951D01*
X204530163Y-132550164D01*
X204510109Y-132308138D01*
X204510107Y-132308126D01*
X204449063Y-132067069D01*
X204349173Y-131839344D01*
X204213166Y-131631168D01*
X204191557Y-131607695D01*
X204044744Y-131448213D01*
X203848509Y-131295477D01*
X203848507Y-131295476D01*
X203848506Y-131295475D01*
X203629811Y-131177123D01*
X203629802Y-131177120D01*
X203394616Y-131096380D01*
X203149335Y-131055451D01*
X202900665Y-131055451D01*
X202655383Y-131096380D01*
X202420197Y-131177120D01*
X202420188Y-131177123D01*
X202201493Y-131295475D01*
X202005257Y-131448212D01*
X201836833Y-131631168D01*
X201700826Y-131839344D01*
X201600936Y-132067069D01*
X201539892Y-132308126D01*
X201539890Y-132308138D01*
X201519357Y-132555945D01*
X201519357Y-132555956D01*
X199525500Y-132555956D01*
X199525499Y-131508079D01*
X199519091Y-131448468D01*
X199468796Y-131313620D01*
X199468795Y-131313619D01*
X199468793Y-131313615D01*
X199382547Y-131198406D01*
X199382544Y-131198403D01*
X199267335Y-131112157D01*
X199267328Y-131112153D01*
X199132482Y-131061859D01*
X199132483Y-131061859D01*
X199072883Y-131055452D01*
X199072881Y-131055451D01*
X199072873Y-131055451D01*
X199072864Y-131055451D01*
X196977129Y-131055451D01*
X196977123Y-131055452D01*
X196917516Y-131061859D01*
X196782671Y-131112153D01*
X196782664Y-131112157D01*
X196667455Y-131198403D01*
X196667452Y-131198406D01*
X196581206Y-131313615D01*
X196581202Y-131313622D01*
X196530908Y-131448468D01*
X196524501Y-131508067D01*
X196524501Y-131508074D01*
X196524500Y-131508086D01*
X196524500Y-133603821D01*
X187227356Y-133603821D01*
X187247231Y-133499632D01*
X187247232Y-133499625D01*
X187267596Y-133175956D01*
X187267596Y-133175945D01*
X187247232Y-132852276D01*
X187247231Y-132852269D01*
X187186457Y-132533680D01*
X187086236Y-132225232D01*
X187086234Y-132225227D01*
X186948147Y-131931779D01*
X186948144Y-131931773D01*
X186774367Y-131657943D01*
X186675757Y-131538745D01*
X185826392Y-132388109D01*
X185802562Y-132349406D01*
X185646801Y-132172426D01*
X185474275Y-132033121D01*
X186325510Y-131181886D01*
X186325509Y-131181884D01*
X186068835Y-130995400D01*
X186068817Y-130995388D01*
X185784615Y-130839147D01*
X185784607Y-130839143D01*
X185483069Y-130719756D01*
X185483066Y-130719755D01*
X185168926Y-130639098D01*
X184847174Y-130598451D01*
X184522825Y-130598451D01*
X184201073Y-130639098D01*
X183886933Y-130719755D01*
X183886930Y-130719756D01*
X183585392Y-130839143D01*
X183585384Y-130839147D01*
X183301182Y-130995388D01*
X183301164Y-130995400D01*
X183044489Y-131181884D01*
X183044488Y-131181886D01*
X183898474Y-132035872D01*
X183811769Y-132094475D01*
X183641559Y-132257608D01*
X183544430Y-132388934D01*
X182694241Y-131538745D01*
X182595637Y-131657936D01*
X182595634Y-131657940D01*
X182421855Y-131931773D01*
X182421852Y-131931779D01*
X182283765Y-132225227D01*
X182283763Y-132225232D01*
X182183542Y-132533680D01*
X182122768Y-132852269D01*
X182122767Y-132852276D01*
X182102404Y-133175945D01*
X182102404Y-133175956D01*
X178467596Y-133175956D01*
X178467596Y-133175945D01*
X178447232Y-132852276D01*
X178447231Y-132852269D01*
X178386457Y-132533680D01*
X178286236Y-132225232D01*
X178286234Y-132225227D01*
X178148147Y-131931779D01*
X178148144Y-131931773D01*
X177974367Y-131657943D01*
X177875757Y-131538745D01*
X177026392Y-132388109D01*
X177002562Y-132349406D01*
X176846801Y-132172426D01*
X176674275Y-132033121D01*
X177525510Y-131181886D01*
X177525509Y-131181884D01*
X177268835Y-130995400D01*
X177268817Y-130995388D01*
X176984615Y-130839147D01*
X176984607Y-130839143D01*
X176683069Y-130719756D01*
X176683066Y-130719755D01*
X176368926Y-130639098D01*
X176047174Y-130598451D01*
X175722825Y-130598451D01*
X175401073Y-130639098D01*
X175086933Y-130719755D01*
X175086930Y-130719756D01*
X174785392Y-130839143D01*
X174785384Y-130839147D01*
X174501182Y-130995388D01*
X174501164Y-130995400D01*
X174244489Y-131181884D01*
X174244488Y-131181886D01*
X175098474Y-132035872D01*
X175011769Y-132094475D01*
X174841559Y-132257608D01*
X174744430Y-132388934D01*
X173894241Y-131538745D01*
X173795637Y-131657936D01*
X173795634Y-131657940D01*
X173621855Y-131931773D01*
X173621852Y-131931779D01*
X173483765Y-132225227D01*
X173483763Y-132225232D01*
X173383542Y-132533680D01*
X173322768Y-132852269D01*
X173322767Y-132852276D01*
X173302404Y-133175945D01*
X173302404Y-133175956D01*
X83725500Y-133175956D01*
X83725500Y-114775951D01*
X155209540Y-114775951D01*
X155229326Y-114964207D01*
X155229327Y-114964210D01*
X155287818Y-115144228D01*
X155287821Y-115144235D01*
X155382467Y-115308167D01*
X155509129Y-115448839D01*
X155662265Y-115560099D01*
X155662270Y-115560102D01*
X155835192Y-115637093D01*
X155835197Y-115637095D01*
X156020354Y-115676451D01*
X156020355Y-115676451D01*
X156209644Y-115676451D01*
X156209646Y-115676451D01*
X156394803Y-115637095D01*
X156567730Y-115560102D01*
X156720871Y-115448839D01*
X156847533Y-115308167D01*
X156942179Y-115144235D01*
X157000674Y-114964207D01*
X157020460Y-114775951D01*
X157000674Y-114587695D01*
X156942179Y-114407667D01*
X156847533Y-114243735D01*
X156720871Y-114103063D01*
X156720870Y-114103062D01*
X156567734Y-113991802D01*
X156567729Y-113991799D01*
X156394807Y-113914808D01*
X156394802Y-113914806D01*
X156249001Y-113883816D01*
X156209646Y-113875451D01*
X156020354Y-113875451D01*
X155987897Y-113882349D01*
X155835197Y-113914806D01*
X155835192Y-113914808D01*
X155662270Y-113991799D01*
X155662265Y-113991802D01*
X155509129Y-114103062D01*
X155382466Y-114243736D01*
X155287821Y-114407666D01*
X155287818Y-114407673D01*
X155229327Y-114587691D01*
X155229326Y-114587695D01*
X155209540Y-114775951D01*
X83725500Y-114775951D01*
X83725500Y-109695951D01*
X94249540Y-109695951D01*
X94269326Y-109884207D01*
X94269327Y-109884210D01*
X94327818Y-110064228D01*
X94327821Y-110064235D01*
X94422467Y-110228167D01*
X94549129Y-110368839D01*
X94702265Y-110480099D01*
X94702270Y-110480102D01*
X94875192Y-110557093D01*
X94875197Y-110557095D01*
X95060354Y-110596451D01*
X95060355Y-110596451D01*
X95249644Y-110596451D01*
X95249646Y-110596451D01*
X95434803Y-110557095D01*
X95607730Y-110480102D01*
X95760871Y-110368839D01*
X95887533Y-110228167D01*
X95982179Y-110064235D01*
X96040674Y-109884207D01*
X96060460Y-109695951D01*
X103139540Y-109695951D01*
X103159326Y-109884207D01*
X103159327Y-109884210D01*
X103217818Y-110064228D01*
X103217821Y-110064235D01*
X103312467Y-110228167D01*
X103439129Y-110368839D01*
X103592265Y-110480099D01*
X103592270Y-110480102D01*
X103765192Y-110557093D01*
X103765197Y-110557095D01*
X103950354Y-110596451D01*
X103950355Y-110596451D01*
X104139644Y-110596451D01*
X104139646Y-110596451D01*
X104324803Y-110557095D01*
X104497730Y-110480102D01*
X104650871Y-110368839D01*
X104777533Y-110228167D01*
X104872179Y-110064235D01*
X104930674Y-109884207D01*
X104950460Y-109695951D01*
X113299540Y-109695951D01*
X113319326Y-109884207D01*
X113319327Y-109884210D01*
X113377818Y-110064228D01*
X113377821Y-110064235D01*
X113472467Y-110228167D01*
X113599129Y-110368839D01*
X113752265Y-110480099D01*
X113752270Y-110480102D01*
X113925192Y-110557093D01*
X113925197Y-110557095D01*
X114110354Y-110596451D01*
X114110355Y-110596451D01*
X114299644Y-110596451D01*
X114299646Y-110596451D01*
X114484803Y-110557095D01*
X114657730Y-110480102D01*
X114810871Y-110368839D01*
X114937533Y-110228167D01*
X115032179Y-110064235D01*
X115090674Y-109884207D01*
X115110460Y-109695951D01*
X122189540Y-109695951D01*
X122209326Y-109884207D01*
X122209327Y-109884210D01*
X122267818Y-110064228D01*
X122267821Y-110064235D01*
X122362467Y-110228167D01*
X122489129Y-110368839D01*
X122642265Y-110480099D01*
X122642270Y-110480102D01*
X122815192Y-110557093D01*
X122815197Y-110557095D01*
X123000354Y-110596451D01*
X123000355Y-110596451D01*
X123189644Y-110596451D01*
X123189646Y-110596451D01*
X123374803Y-110557095D01*
X123547730Y-110480102D01*
X123700871Y-110368839D01*
X123827533Y-110228167D01*
X123922179Y-110064235D01*
X123980674Y-109884207D01*
X124000460Y-109695951D01*
X132349540Y-109695951D01*
X132369326Y-109884207D01*
X132369327Y-109884210D01*
X132427818Y-110064228D01*
X132427821Y-110064235D01*
X132522467Y-110228167D01*
X132649129Y-110368839D01*
X132802265Y-110480099D01*
X132802270Y-110480102D01*
X132975192Y-110557093D01*
X132975197Y-110557095D01*
X133160354Y-110596451D01*
X133160355Y-110596451D01*
X133349644Y-110596451D01*
X133349646Y-110596451D01*
X133534803Y-110557095D01*
X133707730Y-110480102D01*
X133860871Y-110368839D01*
X133987533Y-110228167D01*
X134082179Y-110064235D01*
X134140674Y-109884207D01*
X134160460Y-109695951D01*
X141239540Y-109695951D01*
X141259326Y-109884207D01*
X141259327Y-109884210D01*
X141317818Y-110064228D01*
X141317821Y-110064235D01*
X141412467Y-110228167D01*
X141539129Y-110368839D01*
X141692265Y-110480099D01*
X141692270Y-110480102D01*
X141865192Y-110557093D01*
X141865197Y-110557095D01*
X142050354Y-110596451D01*
X142050355Y-110596451D01*
X142239644Y-110596451D01*
X142239646Y-110596451D01*
X142424803Y-110557095D01*
X142597730Y-110480102D01*
X142750871Y-110368839D01*
X142877533Y-110228167D01*
X142972179Y-110064235D01*
X143030674Y-109884207D01*
X143050460Y-109695951D01*
X162829540Y-109695951D01*
X162849326Y-109884207D01*
X162849327Y-109884210D01*
X162907818Y-110064228D01*
X162907821Y-110064235D01*
X163002467Y-110228167D01*
X163129129Y-110368839D01*
X163282265Y-110480099D01*
X163282270Y-110480102D01*
X163455192Y-110557093D01*
X163455197Y-110557095D01*
X163640354Y-110596451D01*
X163640355Y-110596451D01*
X163829644Y-110596451D01*
X163829646Y-110596451D01*
X164014803Y-110557095D01*
X164187730Y-110480102D01*
X164340871Y-110368839D01*
X164467533Y-110228167D01*
X164562179Y-110064235D01*
X164620674Y-109884207D01*
X164640460Y-109695951D01*
X164620674Y-109507695D01*
X164562179Y-109327667D01*
X164467533Y-109163735D01*
X164340871Y-109023063D01*
X164340870Y-109023062D01*
X164187734Y-108911802D01*
X164187729Y-108911799D01*
X164014807Y-108834808D01*
X164014802Y-108834806D01*
X163869001Y-108803816D01*
X163829646Y-108795451D01*
X163640354Y-108795451D01*
X163607897Y-108802349D01*
X163455197Y-108834806D01*
X163455192Y-108834808D01*
X163282270Y-108911799D01*
X163282265Y-108911802D01*
X163129129Y-109023062D01*
X163002466Y-109163736D01*
X162907821Y-109327666D01*
X162907818Y-109327673D01*
X162849327Y-109507691D01*
X162849326Y-109507695D01*
X162829540Y-109695951D01*
X143050460Y-109695951D01*
X143030674Y-109507695D01*
X142972179Y-109327667D01*
X142877533Y-109163735D01*
X142750871Y-109023063D01*
X142750870Y-109023062D01*
X142597734Y-108911802D01*
X142597729Y-108911799D01*
X142424807Y-108834808D01*
X142424802Y-108834806D01*
X142279001Y-108803816D01*
X142239646Y-108795451D01*
X142050354Y-108795451D01*
X142017897Y-108802349D01*
X141865197Y-108834806D01*
X141865192Y-108834808D01*
X141692270Y-108911799D01*
X141692265Y-108911802D01*
X141539129Y-109023062D01*
X141412466Y-109163736D01*
X141317821Y-109327666D01*
X141317818Y-109327673D01*
X141259327Y-109507691D01*
X141259326Y-109507695D01*
X141239540Y-109695951D01*
X134160460Y-109695951D01*
X134140674Y-109507695D01*
X134082179Y-109327667D01*
X133987533Y-109163735D01*
X133860871Y-109023063D01*
X133860870Y-109023062D01*
X133707734Y-108911802D01*
X133707729Y-108911799D01*
X133534807Y-108834808D01*
X133534802Y-108834806D01*
X133389001Y-108803816D01*
X133349646Y-108795451D01*
X133160354Y-108795451D01*
X133127897Y-108802349D01*
X132975197Y-108834806D01*
X132975192Y-108834808D01*
X132802270Y-108911799D01*
X132802265Y-108911802D01*
X132649129Y-109023062D01*
X132522466Y-109163736D01*
X132427821Y-109327666D01*
X132427818Y-109327673D01*
X132369327Y-109507691D01*
X132369326Y-109507695D01*
X132349540Y-109695951D01*
X124000460Y-109695951D01*
X123980674Y-109507695D01*
X123922179Y-109327667D01*
X123827533Y-109163735D01*
X123700871Y-109023063D01*
X123700870Y-109023062D01*
X123547734Y-108911802D01*
X123547729Y-108911799D01*
X123374807Y-108834808D01*
X123374802Y-108834806D01*
X123229001Y-108803816D01*
X123189646Y-108795451D01*
X123000354Y-108795451D01*
X122967897Y-108802349D01*
X122815197Y-108834806D01*
X122815192Y-108834808D01*
X122642270Y-108911799D01*
X122642265Y-108911802D01*
X122489129Y-109023062D01*
X122362466Y-109163736D01*
X122267821Y-109327666D01*
X122267818Y-109327673D01*
X122209327Y-109507691D01*
X122209326Y-109507695D01*
X122189540Y-109695951D01*
X115110460Y-109695951D01*
X115090674Y-109507695D01*
X115032179Y-109327667D01*
X114937533Y-109163735D01*
X114810871Y-109023063D01*
X114810870Y-109023062D01*
X114657734Y-108911802D01*
X114657729Y-108911799D01*
X114484807Y-108834808D01*
X114484802Y-108834806D01*
X114339001Y-108803816D01*
X114299646Y-108795451D01*
X114110354Y-108795451D01*
X114077897Y-108802349D01*
X113925197Y-108834806D01*
X113925192Y-108834808D01*
X113752270Y-108911799D01*
X113752265Y-108911802D01*
X113599129Y-109023062D01*
X113472466Y-109163736D01*
X113377821Y-109327666D01*
X113377818Y-109327673D01*
X113319327Y-109507691D01*
X113319326Y-109507695D01*
X113299540Y-109695951D01*
X104950460Y-109695951D01*
X104930674Y-109507695D01*
X104872179Y-109327667D01*
X104777533Y-109163735D01*
X104650871Y-109023063D01*
X104650870Y-109023062D01*
X104497734Y-108911802D01*
X104497729Y-108911799D01*
X104324807Y-108834808D01*
X104324802Y-108834806D01*
X104179001Y-108803816D01*
X104139646Y-108795451D01*
X103950354Y-108795451D01*
X103917897Y-108802349D01*
X103765197Y-108834806D01*
X103765192Y-108834808D01*
X103592270Y-108911799D01*
X103592265Y-108911802D01*
X103439129Y-109023062D01*
X103312466Y-109163736D01*
X103217821Y-109327666D01*
X103217818Y-109327673D01*
X103159327Y-109507691D01*
X103159326Y-109507695D01*
X103139540Y-109695951D01*
X96060460Y-109695951D01*
X96040674Y-109507695D01*
X95982179Y-109327667D01*
X95887533Y-109163735D01*
X95760871Y-109023063D01*
X95760870Y-109023062D01*
X95607734Y-108911802D01*
X95607729Y-108911799D01*
X95434807Y-108834808D01*
X95434802Y-108834806D01*
X95289001Y-108803816D01*
X95249646Y-108795451D01*
X95060354Y-108795451D01*
X95027897Y-108802349D01*
X94875197Y-108834806D01*
X94875192Y-108834808D01*
X94702270Y-108911799D01*
X94702265Y-108911802D01*
X94549129Y-109023062D01*
X94422466Y-109163736D01*
X94327821Y-109327666D01*
X94327818Y-109327673D01*
X94269327Y-109507691D01*
X94269326Y-109507695D01*
X94249540Y-109695951D01*
X83725500Y-109695951D01*
X83725500Y-107155951D01*
X179339540Y-107155951D01*
X179359326Y-107344207D01*
X179359327Y-107344210D01*
X179417818Y-107524228D01*
X179417821Y-107524235D01*
X179512467Y-107688167D01*
X179639129Y-107828839D01*
X179792265Y-107940099D01*
X179792270Y-107940102D01*
X179965192Y-108017093D01*
X179965197Y-108017095D01*
X180150354Y-108056451D01*
X180150355Y-108056451D01*
X180339644Y-108056451D01*
X180339646Y-108056451D01*
X180524803Y-108017095D01*
X180697730Y-107940102D01*
X180850871Y-107828839D01*
X180977533Y-107688167D01*
X181072179Y-107524235D01*
X181130674Y-107344207D01*
X181150460Y-107155951D01*
X181130674Y-106967695D01*
X181072179Y-106787667D01*
X180977533Y-106623735D01*
X180850871Y-106483063D01*
X180850870Y-106483062D01*
X180697734Y-106371802D01*
X180697729Y-106371799D01*
X180524807Y-106294808D01*
X180524802Y-106294806D01*
X180379001Y-106263816D01*
X180339646Y-106255451D01*
X180150354Y-106255451D01*
X180117897Y-106262349D01*
X179965197Y-106294806D01*
X179965192Y-106294808D01*
X179792270Y-106371799D01*
X179792265Y-106371802D01*
X179639129Y-106483062D01*
X179512466Y-106623736D01*
X179417821Y-106787666D01*
X179417818Y-106787673D01*
X179359327Y-106967691D01*
X179359326Y-106967695D01*
X179339540Y-107155951D01*
X83725500Y-107155951D01*
X83725500Y-104615951D01*
X183149540Y-104615951D01*
X183169326Y-104804207D01*
X183169327Y-104804210D01*
X183227818Y-104984228D01*
X183227821Y-104984235D01*
X183322467Y-105148167D01*
X183449129Y-105288839D01*
X183602265Y-105400099D01*
X183602270Y-105400102D01*
X183775192Y-105477093D01*
X183775197Y-105477095D01*
X183960354Y-105516451D01*
X183960355Y-105516451D01*
X184149644Y-105516451D01*
X184149646Y-105516451D01*
X184334803Y-105477095D01*
X184507730Y-105400102D01*
X184660871Y-105288839D01*
X184787533Y-105148167D01*
X184882179Y-104984235D01*
X184940674Y-104804207D01*
X184960460Y-104615951D01*
X184940674Y-104427695D01*
X184882179Y-104247667D01*
X184787533Y-104083735D01*
X184660871Y-103943063D01*
X184660870Y-103943062D01*
X184507734Y-103831802D01*
X184507729Y-103831799D01*
X184334807Y-103754808D01*
X184334802Y-103754806D01*
X184189001Y-103723816D01*
X184149646Y-103715451D01*
X183960354Y-103715451D01*
X183927897Y-103722349D01*
X183775197Y-103754806D01*
X183775192Y-103754808D01*
X183602270Y-103831799D01*
X183602265Y-103831802D01*
X183449129Y-103943062D01*
X183322466Y-104083736D01*
X183227821Y-104247666D01*
X183227818Y-104247673D01*
X183169327Y-104427691D01*
X183169326Y-104427695D01*
X183149540Y-104615951D01*
X83725500Y-104615951D01*
X83725500Y-103345951D01*
X92979540Y-103345951D01*
X92999326Y-103534207D01*
X92999327Y-103534210D01*
X93057818Y-103714228D01*
X93057821Y-103714235D01*
X93152467Y-103878167D01*
X93210899Y-103943062D01*
X93279129Y-104018839D01*
X93432265Y-104130099D01*
X93432270Y-104130102D01*
X93605192Y-104207093D01*
X93605197Y-104207095D01*
X93790354Y-104246451D01*
X93790355Y-104246451D01*
X93979644Y-104246451D01*
X93979646Y-104246451D01*
X94164803Y-104207095D01*
X94337730Y-104130102D01*
X94490871Y-104018839D01*
X94617533Y-103878167D01*
X94712179Y-103714235D01*
X94770674Y-103534207D01*
X94790460Y-103345951D01*
X94770674Y-103157695D01*
X94712179Y-102977667D01*
X94617533Y-102813735D01*
X94490871Y-102673063D01*
X94490870Y-102673062D01*
X94337734Y-102561802D01*
X94337729Y-102561799D01*
X94164807Y-102484808D01*
X94164802Y-102484806D01*
X93996432Y-102449019D01*
X93979646Y-102445451D01*
X93790354Y-102445451D01*
X93773568Y-102449019D01*
X93605197Y-102484806D01*
X93605192Y-102484808D01*
X93432270Y-102561799D01*
X93432265Y-102561802D01*
X93279129Y-102673062D01*
X93152466Y-102813736D01*
X93057821Y-102977666D01*
X93057818Y-102977673D01*
X92999327Y-103157691D01*
X92999326Y-103157695D01*
X92979540Y-103345951D01*
X83725500Y-103345951D01*
X83725500Y-102166321D01*
X183389500Y-102166321D01*
X183389501Y-102166327D01*
X183395908Y-102225934D01*
X183446202Y-102360779D01*
X183446206Y-102360786D01*
X183532452Y-102475995D01*
X183532455Y-102475998D01*
X183647664Y-102562244D01*
X183647671Y-102562248D01*
X183782517Y-102612542D01*
X183782516Y-102612542D01*
X183789444Y-102613286D01*
X183842127Y-102618951D01*
X185537872Y-102618950D01*
X185597483Y-102612542D01*
X185732331Y-102562247D01*
X185847546Y-102475997D01*
X185933796Y-102360782D01*
X185984091Y-102225934D01*
X185987862Y-102190852D01*
X186014599Y-102126306D01*
X186071990Y-102086457D01*
X186141816Y-102083962D01*
X186201905Y-102119614D01*
X186212726Y-102132987D01*
X186229956Y-102157594D01*
X186390858Y-102318496D01*
X186390861Y-102318498D01*
X186577266Y-102449019D01*
X186783504Y-102545190D01*
X187003308Y-102604086D01*
X187165230Y-102618252D01*
X187229998Y-102623919D01*
X187230000Y-102623919D01*
X187230002Y-102623919D01*
X187286807Y-102618949D01*
X187456692Y-102604086D01*
X187676496Y-102545190D01*
X187882734Y-102449019D01*
X188069139Y-102318498D01*
X188230047Y-102157590D01*
X188360568Y-101971185D01*
X188387618Y-101913175D01*
X188433790Y-101860736D01*
X188500983Y-101841584D01*
X188567865Y-101861799D01*
X188612382Y-101913176D01*
X188639429Y-101971179D01*
X188639432Y-101971185D01*
X188769954Y-102157592D01*
X188930858Y-102318496D01*
X188930861Y-102318498D01*
X189117266Y-102449019D01*
X189323504Y-102545190D01*
X189543308Y-102604086D01*
X189705230Y-102618252D01*
X189769998Y-102623919D01*
X189770000Y-102623919D01*
X189770002Y-102623919D01*
X189826807Y-102618949D01*
X189996692Y-102604086D01*
X190216496Y-102545190D01*
X190422734Y-102449019D01*
X190609139Y-102318498D01*
X190770047Y-102157590D01*
X190900568Y-101971185D01*
X190927618Y-101913175D01*
X190973790Y-101860736D01*
X191040983Y-101841584D01*
X191107865Y-101861799D01*
X191152382Y-101913176D01*
X191179429Y-101971179D01*
X191179432Y-101971185D01*
X191309954Y-102157592D01*
X191470858Y-102318496D01*
X191470861Y-102318498D01*
X191657266Y-102449019D01*
X191863504Y-102545190D01*
X192083308Y-102604086D01*
X192245230Y-102618252D01*
X192309998Y-102623919D01*
X192310000Y-102623919D01*
X192310002Y-102623919D01*
X192366807Y-102618949D01*
X192536692Y-102604086D01*
X192756496Y-102545190D01*
X192962734Y-102449019D01*
X193149139Y-102318498D01*
X193310047Y-102157590D01*
X193440568Y-101971185D01*
X193467895Y-101912580D01*
X193514064Y-101860146D01*
X193581257Y-101840993D01*
X193648139Y-101861208D01*
X193692657Y-101912584D01*
X193719865Y-101970932D01*
X193719866Y-101970934D01*
X193770973Y-102043922D01*
X193770974Y-102043923D01*
X194452046Y-101362850D01*
X194464835Y-101443599D01*
X194522359Y-101556496D01*
X194611955Y-101646092D01*
X194724852Y-101703616D01*
X194805599Y-101716404D01*
X194124526Y-102397476D01*
X194124526Y-102397477D01*
X194197512Y-102448582D01*
X194197516Y-102448584D01*
X194403673Y-102544716D01*
X194403682Y-102544720D01*
X194623389Y-102603590D01*
X194623400Y-102603592D01*
X194849998Y-102623417D01*
X194850002Y-102623417D01*
X195076599Y-102603592D01*
X195076610Y-102603590D01*
X195296317Y-102544720D01*
X195296331Y-102544715D01*
X195502478Y-102448587D01*
X195575472Y-102397476D01*
X195344317Y-102166321D01*
X197359500Y-102166321D01*
X197359501Y-102166327D01*
X197365908Y-102225934D01*
X197416202Y-102360779D01*
X197416206Y-102360786D01*
X197502452Y-102475995D01*
X197502455Y-102475998D01*
X197617664Y-102562244D01*
X197617671Y-102562248D01*
X197752517Y-102612542D01*
X197752516Y-102612542D01*
X197759444Y-102613286D01*
X197812127Y-102618951D01*
X199507872Y-102618950D01*
X199567483Y-102612542D01*
X199702331Y-102562247D01*
X199817546Y-102475997D01*
X199903796Y-102360782D01*
X199954091Y-102225934D01*
X199957862Y-102190852D01*
X199984599Y-102126306D01*
X200041990Y-102086457D01*
X200111816Y-102083962D01*
X200171905Y-102119614D01*
X200182726Y-102132987D01*
X200199956Y-102157594D01*
X200360858Y-102318496D01*
X200360861Y-102318498D01*
X200547266Y-102449019D01*
X200753504Y-102545190D01*
X200973308Y-102604086D01*
X201135230Y-102618252D01*
X201199998Y-102623919D01*
X201200000Y-102623919D01*
X201200002Y-102623919D01*
X201256807Y-102618949D01*
X201426692Y-102604086D01*
X201646496Y-102545190D01*
X201852734Y-102449019D01*
X202039139Y-102318498D01*
X202200047Y-102157590D01*
X202330568Y-101971185D01*
X202357618Y-101913175D01*
X202403790Y-101860736D01*
X202470983Y-101841584D01*
X202537865Y-101861799D01*
X202582382Y-101913176D01*
X202609429Y-101971179D01*
X202609432Y-101971185D01*
X202739954Y-102157592D01*
X202900858Y-102318496D01*
X202900861Y-102318498D01*
X203087266Y-102449019D01*
X203293504Y-102545190D01*
X203513308Y-102604086D01*
X203675230Y-102618252D01*
X203739998Y-102623919D01*
X203740000Y-102623919D01*
X203740002Y-102623919D01*
X203796807Y-102618949D01*
X203966692Y-102604086D01*
X204186496Y-102545190D01*
X204392734Y-102449019D01*
X204579139Y-102318498D01*
X204740047Y-102157590D01*
X204870568Y-101971185D01*
X204897618Y-101913175D01*
X204943790Y-101860736D01*
X205010983Y-101841584D01*
X205077865Y-101861799D01*
X205122382Y-101913176D01*
X205149429Y-101971179D01*
X205149432Y-101971185D01*
X205279954Y-102157592D01*
X205440858Y-102318496D01*
X205440861Y-102318498D01*
X205627266Y-102449019D01*
X205833504Y-102545190D01*
X206053308Y-102604086D01*
X206215230Y-102618252D01*
X206279998Y-102623919D01*
X206280000Y-102623919D01*
X206280002Y-102623919D01*
X206336807Y-102618949D01*
X206506692Y-102604086D01*
X206726496Y-102545190D01*
X206932734Y-102449019D01*
X207119139Y-102318498D01*
X207280047Y-102157590D01*
X207410568Y-101971185D01*
X207437895Y-101912580D01*
X207484064Y-101860146D01*
X207551257Y-101840993D01*
X207618139Y-101861208D01*
X207662657Y-101912584D01*
X207689865Y-101970932D01*
X207689866Y-101970934D01*
X207740973Y-102043922D01*
X207740974Y-102043923D01*
X208422046Y-101362850D01*
X208434835Y-101443599D01*
X208492359Y-101556496D01*
X208581955Y-101646092D01*
X208694852Y-101703616D01*
X208775599Y-101716404D01*
X208094526Y-102397476D01*
X208094526Y-102397477D01*
X208167512Y-102448582D01*
X208167516Y-102448584D01*
X208373673Y-102544716D01*
X208373682Y-102544720D01*
X208593389Y-102603590D01*
X208593400Y-102603592D01*
X208819998Y-102623417D01*
X208820002Y-102623417D01*
X209046599Y-102603592D01*
X209046610Y-102603590D01*
X209266317Y-102544720D01*
X209266331Y-102544715D01*
X209472478Y-102448587D01*
X209545472Y-102397476D01*
X208864401Y-101716404D01*
X208945148Y-101703616D01*
X209058045Y-101646092D01*
X209147641Y-101556496D01*
X209205165Y-101443599D01*
X209217953Y-101362851D01*
X209899025Y-102043923D01*
X209950136Y-101970929D01*
X210046264Y-101764782D01*
X210046269Y-101764768D01*
X210105139Y-101545061D01*
X210105141Y-101545050D01*
X210124966Y-101318453D01*
X210124966Y-101318448D01*
X210105141Y-101091851D01*
X210105139Y-101091840D01*
X210046269Y-100872133D01*
X210046265Y-100872124D01*
X209950133Y-100665967D01*
X209950131Y-100665963D01*
X209899026Y-100592977D01*
X209899025Y-100592977D01*
X209217953Y-101274049D01*
X209205165Y-101193303D01*
X209147641Y-101080406D01*
X209058045Y-100990810D01*
X208945148Y-100933286D01*
X208864400Y-100920497D01*
X209545472Y-100239425D01*
X209545471Y-100239424D01*
X209472483Y-100188317D01*
X209472481Y-100188316D01*
X209266326Y-100092185D01*
X209266317Y-100092181D01*
X209046610Y-100033311D01*
X209046599Y-100033309D01*
X208820002Y-100013485D01*
X208819998Y-100013485D01*
X208593400Y-100033309D01*
X208593389Y-100033311D01*
X208373682Y-100092181D01*
X208373673Y-100092185D01*
X208167513Y-100188319D01*
X208094527Y-100239423D01*
X208094526Y-100239424D01*
X208775600Y-100920497D01*
X208694852Y-100933286D01*
X208581955Y-100990810D01*
X208492359Y-101080406D01*
X208434835Y-101193303D01*
X208422046Y-101274050D01*
X207740973Y-100592977D01*
X207740972Y-100592978D01*
X207689869Y-100665962D01*
X207662657Y-100724318D01*
X207616484Y-100776757D01*
X207549290Y-100795908D01*
X207482409Y-100775692D01*
X207437893Y-100724316D01*
X207410684Y-100665967D01*
X207410568Y-100665717D01*
X207280047Y-100479312D01*
X207280045Y-100479309D01*
X207119141Y-100318405D01*
X206932734Y-100187883D01*
X206932732Y-100187882D01*
X206726497Y-100091712D01*
X206726488Y-100091709D01*
X206506697Y-100032817D01*
X206506693Y-100032816D01*
X206506692Y-100032816D01*
X206506691Y-100032815D01*
X206506686Y-100032815D01*
X206280002Y-100012983D01*
X206279998Y-100012983D01*
X206053313Y-100032815D01*
X206053302Y-100032817D01*
X205833511Y-100091709D01*
X205833502Y-100091712D01*
X205627267Y-100187882D01*
X205627265Y-100187883D01*
X205440858Y-100318405D01*
X205279954Y-100479309D01*
X205149432Y-100665716D01*
X205149431Y-100665718D01*
X205122382Y-100723726D01*
X205076209Y-100776165D01*
X205009016Y-100795317D01*
X204942135Y-100775101D01*
X204897618Y-100723726D01*
X204870568Y-100665717D01*
X204740047Y-100479312D01*
X204740045Y-100479309D01*
X204579141Y-100318405D01*
X204392734Y-100187883D01*
X204392732Y-100187882D01*
X204186497Y-100091712D01*
X204186488Y-100091709D01*
X203966697Y-100032817D01*
X203966693Y-100032816D01*
X203966692Y-100032816D01*
X203966691Y-100032815D01*
X203966686Y-100032815D01*
X203740002Y-100012983D01*
X203739998Y-100012983D01*
X203513313Y-100032815D01*
X203513302Y-100032817D01*
X203293511Y-100091709D01*
X203293502Y-100091712D01*
X203087267Y-100187882D01*
X203087265Y-100187883D01*
X202900858Y-100318405D01*
X202739954Y-100479309D01*
X202609432Y-100665716D01*
X202609431Y-100665718D01*
X202582382Y-100723726D01*
X202536209Y-100776165D01*
X202469016Y-100795317D01*
X202402135Y-100775101D01*
X202357618Y-100723726D01*
X202330568Y-100665717D01*
X202200047Y-100479312D01*
X202200045Y-100479309D01*
X202039141Y-100318405D01*
X201852734Y-100187883D01*
X201852732Y-100187882D01*
X201646497Y-100091712D01*
X201646488Y-100091709D01*
X201426697Y-100032817D01*
X201426693Y-100032816D01*
X201426692Y-100032816D01*
X201426691Y-100032815D01*
X201426686Y-100032815D01*
X201200002Y-100012983D01*
X201199998Y-100012983D01*
X200973313Y-100032815D01*
X200973302Y-100032817D01*
X200753511Y-100091709D01*
X200753502Y-100091712D01*
X200547267Y-100187882D01*
X200547265Y-100187883D01*
X200360858Y-100318405D01*
X200199954Y-100479309D01*
X200182725Y-100503915D01*
X200128147Y-100547539D01*
X200058648Y-100554731D01*
X199996294Y-100523208D01*
X199960882Y-100462977D01*
X199957861Y-100446042D01*
X199954091Y-100410967D01*
X199903797Y-100276122D01*
X199903793Y-100276115D01*
X199817547Y-100160906D01*
X199817544Y-100160903D01*
X199702335Y-100074657D01*
X199702328Y-100074653D01*
X199567482Y-100024359D01*
X199567483Y-100024359D01*
X199507883Y-100017952D01*
X199507881Y-100017951D01*
X199507873Y-100017951D01*
X199507864Y-100017951D01*
X197812129Y-100017951D01*
X197812123Y-100017952D01*
X197752516Y-100024359D01*
X197617671Y-100074653D01*
X197617664Y-100074657D01*
X197502455Y-100160903D01*
X197502452Y-100160906D01*
X197416206Y-100276115D01*
X197416202Y-100276122D01*
X197365908Y-100410968D01*
X197359501Y-100470567D01*
X197359500Y-100470586D01*
X197359500Y-102166321D01*
X195344317Y-102166321D01*
X194894401Y-101716404D01*
X194975148Y-101703616D01*
X195088045Y-101646092D01*
X195177641Y-101556496D01*
X195235165Y-101443599D01*
X195247953Y-101362851D01*
X195929025Y-102043923D01*
X195980136Y-101970929D01*
X196076264Y-101764782D01*
X196076269Y-101764768D01*
X196135139Y-101545061D01*
X196135141Y-101545050D01*
X196154966Y-101318453D01*
X196154966Y-101318448D01*
X196135141Y-101091851D01*
X196135139Y-101091840D01*
X196076269Y-100872133D01*
X196076265Y-100872124D01*
X195980133Y-100665967D01*
X195980131Y-100665963D01*
X195929026Y-100592977D01*
X195929025Y-100592977D01*
X195247953Y-101274049D01*
X195235165Y-101193303D01*
X195177641Y-101080406D01*
X195088045Y-100990810D01*
X194975148Y-100933286D01*
X194894400Y-100920497D01*
X195575472Y-100239425D01*
X195575471Y-100239424D01*
X195502483Y-100188317D01*
X195502481Y-100188316D01*
X195296326Y-100092185D01*
X195296317Y-100092181D01*
X195076610Y-100033311D01*
X195076599Y-100033309D01*
X194850002Y-100013485D01*
X194849998Y-100013485D01*
X194623400Y-100033309D01*
X194623389Y-100033311D01*
X194403682Y-100092181D01*
X194403673Y-100092185D01*
X194197513Y-100188319D01*
X194124527Y-100239423D01*
X194124526Y-100239424D01*
X194805600Y-100920497D01*
X194724852Y-100933286D01*
X194611955Y-100990810D01*
X194522359Y-101080406D01*
X194464835Y-101193303D01*
X194452046Y-101274050D01*
X193770973Y-100592977D01*
X193770972Y-100592978D01*
X193719869Y-100665962D01*
X193692657Y-100724318D01*
X193646484Y-100776757D01*
X193579290Y-100795908D01*
X193512409Y-100775692D01*
X193467893Y-100724316D01*
X193440684Y-100665967D01*
X193440568Y-100665717D01*
X193310047Y-100479312D01*
X193310045Y-100479309D01*
X193149141Y-100318405D01*
X192962734Y-100187883D01*
X192962732Y-100187882D01*
X192756497Y-100091712D01*
X192756488Y-100091709D01*
X192536697Y-100032817D01*
X192536693Y-100032816D01*
X192536692Y-100032816D01*
X192536691Y-100032815D01*
X192536686Y-100032815D01*
X192310002Y-100012983D01*
X192309998Y-100012983D01*
X192083313Y-100032815D01*
X192083302Y-100032817D01*
X191863511Y-100091709D01*
X191863502Y-100091712D01*
X191657267Y-100187882D01*
X191657265Y-100187883D01*
X191470858Y-100318405D01*
X191309954Y-100479309D01*
X191179432Y-100665716D01*
X191179431Y-100665718D01*
X191152382Y-100723726D01*
X191106209Y-100776165D01*
X191039016Y-100795317D01*
X190972135Y-100775101D01*
X190927618Y-100723726D01*
X190900568Y-100665717D01*
X190770047Y-100479312D01*
X190770045Y-100479309D01*
X190609141Y-100318405D01*
X190422734Y-100187883D01*
X190422732Y-100187882D01*
X190216497Y-100091712D01*
X190216488Y-100091709D01*
X189996697Y-100032817D01*
X189996693Y-100032816D01*
X189996692Y-100032816D01*
X189996691Y-100032815D01*
X189996686Y-100032815D01*
X189770002Y-100012983D01*
X189769998Y-100012983D01*
X189543313Y-100032815D01*
X189543302Y-100032817D01*
X189323511Y-100091709D01*
X189323502Y-100091712D01*
X189117267Y-100187882D01*
X189117265Y-100187883D01*
X188930858Y-100318405D01*
X188769954Y-100479309D01*
X188639432Y-100665716D01*
X188639431Y-100665718D01*
X188612382Y-100723726D01*
X188566209Y-100776165D01*
X188499016Y-100795317D01*
X188432135Y-100775101D01*
X188387618Y-100723726D01*
X188360568Y-100665717D01*
X188230047Y-100479312D01*
X188230045Y-100479309D01*
X188069141Y-100318405D01*
X187882734Y-100187883D01*
X187882732Y-100187882D01*
X187676497Y-100091712D01*
X187676488Y-100091709D01*
X187456697Y-100032817D01*
X187456693Y-100032816D01*
X187456692Y-100032816D01*
X187456691Y-100032815D01*
X187456686Y-100032815D01*
X187230002Y-100012983D01*
X187229998Y-100012983D01*
X187003313Y-100032815D01*
X187003302Y-100032817D01*
X186783511Y-100091709D01*
X186783502Y-100091712D01*
X186577267Y-100187882D01*
X186577265Y-100187883D01*
X186390858Y-100318405D01*
X186229954Y-100479309D01*
X186212725Y-100503915D01*
X186158147Y-100547539D01*
X186088648Y-100554731D01*
X186026294Y-100523208D01*
X185990882Y-100462977D01*
X185987861Y-100446042D01*
X185984091Y-100410967D01*
X185933797Y-100276122D01*
X185933793Y-100276115D01*
X185847547Y-100160906D01*
X185847544Y-100160903D01*
X185732335Y-100074657D01*
X185732328Y-100074653D01*
X185597482Y-100024359D01*
X185597483Y-100024359D01*
X185537883Y-100017952D01*
X185537881Y-100017951D01*
X185537873Y-100017951D01*
X185537864Y-100017951D01*
X183842129Y-100017951D01*
X183842123Y-100017952D01*
X183782516Y-100024359D01*
X183647671Y-100074653D01*
X183647664Y-100074657D01*
X183532455Y-100160903D01*
X183532452Y-100160906D01*
X183446206Y-100276115D01*
X183446202Y-100276122D01*
X183395908Y-100410968D01*
X183389501Y-100470567D01*
X183389500Y-100470586D01*
X183389500Y-102166321D01*
X83725500Y-102166321D01*
X83725500Y-95353821D01*
X120474500Y-95353821D01*
X120474501Y-95353827D01*
X120480908Y-95413434D01*
X120531202Y-95548279D01*
X120531206Y-95548286D01*
X120617452Y-95663495D01*
X120617455Y-95663498D01*
X120732664Y-95749744D01*
X120732671Y-95749748D01*
X120867517Y-95800042D01*
X120867516Y-95800042D01*
X120874444Y-95800786D01*
X120927127Y-95806451D01*
X122722872Y-95806450D01*
X122782483Y-95800042D01*
X122917331Y-95749747D01*
X123032546Y-95663497D01*
X123118796Y-95548282D01*
X123167810Y-95416867D01*
X123209681Y-95360935D01*
X123275145Y-95336517D01*
X123343418Y-95351368D01*
X123371673Y-95372520D01*
X123493599Y-95494446D01*
X123590384Y-95562216D01*
X123687165Y-95629983D01*
X123687167Y-95629984D01*
X123687170Y-95629986D01*
X123901337Y-95729854D01*
X124129592Y-95791014D01*
X124306034Y-95806451D01*
X124364999Y-95811610D01*
X124365000Y-95811610D01*
X124365001Y-95811610D01*
X124423966Y-95806451D01*
X124600408Y-95791014D01*
X124828663Y-95729854D01*
X125042830Y-95629986D01*
X125236401Y-95494446D01*
X125403495Y-95327352D01*
X125533425Y-95141793D01*
X125588002Y-95098168D01*
X125657500Y-95090974D01*
X125719855Y-95122497D01*
X125736575Y-95141793D01*
X125866281Y-95327033D01*
X125866505Y-95327352D01*
X126033599Y-95494446D01*
X126130384Y-95562216D01*
X126227165Y-95629983D01*
X126227167Y-95629984D01*
X126227170Y-95629986D01*
X126441337Y-95729854D01*
X126669592Y-95791014D01*
X126846034Y-95806451D01*
X126904999Y-95811610D01*
X126905000Y-95811610D01*
X126905001Y-95811610D01*
X126963966Y-95806451D01*
X127140408Y-95791014D01*
X127368663Y-95729854D01*
X127582830Y-95629986D01*
X127776401Y-95494446D01*
X127943495Y-95327352D01*
X128073425Y-95141793D01*
X128128002Y-95098168D01*
X128197500Y-95090974D01*
X128259855Y-95122497D01*
X128276575Y-95141793D01*
X128406281Y-95327033D01*
X128406505Y-95327352D01*
X128573599Y-95494446D01*
X128670384Y-95562216D01*
X128767165Y-95629983D01*
X128767167Y-95629984D01*
X128767170Y-95629986D01*
X128981337Y-95729854D01*
X129209592Y-95791014D01*
X129386034Y-95806451D01*
X129444999Y-95811610D01*
X129445000Y-95811610D01*
X129445001Y-95811610D01*
X129503966Y-95806451D01*
X129680408Y-95791014D01*
X129908663Y-95729854D01*
X130122830Y-95629986D01*
X130316401Y-95494446D01*
X130483495Y-95327352D01*
X130613425Y-95141793D01*
X130668002Y-95098168D01*
X130737500Y-95090974D01*
X130799855Y-95122497D01*
X130816575Y-95141793D01*
X130946281Y-95327033D01*
X130946505Y-95327352D01*
X131113599Y-95494446D01*
X131210384Y-95562216D01*
X131307165Y-95629983D01*
X131307167Y-95629984D01*
X131307170Y-95629986D01*
X131521337Y-95729854D01*
X131749592Y-95791014D01*
X131926034Y-95806451D01*
X131984999Y-95811610D01*
X131985000Y-95811610D01*
X131985001Y-95811610D01*
X132043966Y-95806451D01*
X132220408Y-95791014D01*
X132448663Y-95729854D01*
X132662830Y-95629986D01*
X132856401Y-95494446D01*
X133023495Y-95327352D01*
X133153425Y-95141793D01*
X133208002Y-95098168D01*
X133277500Y-95090974D01*
X133339855Y-95122497D01*
X133356575Y-95141793D01*
X133486281Y-95327033D01*
X133486505Y-95327352D01*
X133653599Y-95494446D01*
X133750384Y-95562216D01*
X133847165Y-95629983D01*
X133847167Y-95629984D01*
X133847170Y-95629986D01*
X134061337Y-95729854D01*
X134289592Y-95791014D01*
X134466034Y-95806451D01*
X134524999Y-95811610D01*
X134525000Y-95811610D01*
X134525001Y-95811610D01*
X134583966Y-95806451D01*
X134760408Y-95791014D01*
X134988663Y-95729854D01*
X135202830Y-95629986D01*
X135396401Y-95494446D01*
X135563495Y-95327352D01*
X135693425Y-95141793D01*
X135748002Y-95098168D01*
X135817500Y-95090974D01*
X135879855Y-95122497D01*
X135896575Y-95141793D01*
X136026281Y-95327033D01*
X136026505Y-95327352D01*
X136193599Y-95494446D01*
X136290384Y-95562216D01*
X136387165Y-95629983D01*
X136387167Y-95629984D01*
X136387170Y-95629986D01*
X136601337Y-95729854D01*
X136829592Y-95791014D01*
X137006034Y-95806451D01*
X137064999Y-95811610D01*
X137065000Y-95811610D01*
X137065001Y-95811610D01*
X137123966Y-95806451D01*
X137300408Y-95791014D01*
X137528663Y-95729854D01*
X137742830Y-95629986D01*
X137936401Y-95494446D01*
X138103495Y-95327352D01*
X138233425Y-95141793D01*
X138288002Y-95098168D01*
X138357500Y-95090974D01*
X138419855Y-95122497D01*
X138436575Y-95141793D01*
X138566281Y-95327033D01*
X138566505Y-95327352D01*
X138733599Y-95494446D01*
X138830384Y-95562216D01*
X138927165Y-95629983D01*
X138927167Y-95629984D01*
X138927170Y-95629986D01*
X139141337Y-95729854D01*
X139369592Y-95791014D01*
X139546034Y-95806451D01*
X139604999Y-95811610D01*
X139605000Y-95811610D01*
X139605001Y-95811610D01*
X139663966Y-95806451D01*
X139840408Y-95791014D01*
X140068663Y-95729854D01*
X140282830Y-95629986D01*
X140476401Y-95494446D01*
X140643495Y-95327352D01*
X140773425Y-95141793D01*
X140828002Y-95098168D01*
X140897500Y-95090974D01*
X140959855Y-95122497D01*
X140976575Y-95141793D01*
X141106281Y-95327033D01*
X141106505Y-95327352D01*
X141273599Y-95494446D01*
X141370384Y-95562216D01*
X141467165Y-95629983D01*
X141467167Y-95629984D01*
X141467170Y-95629986D01*
X141681337Y-95729854D01*
X141909592Y-95791014D01*
X142086034Y-95806451D01*
X142144999Y-95811610D01*
X142145000Y-95811610D01*
X142145001Y-95811610D01*
X142203966Y-95806451D01*
X142380408Y-95791014D01*
X142608663Y-95729854D01*
X142822830Y-95629986D01*
X143016401Y-95494446D01*
X143183495Y-95327352D01*
X143313425Y-95141793D01*
X143368002Y-95098168D01*
X143437500Y-95090974D01*
X143499855Y-95122497D01*
X143516575Y-95141793D01*
X143646281Y-95327033D01*
X143646505Y-95327352D01*
X143813599Y-95494446D01*
X143910384Y-95562216D01*
X144007165Y-95629983D01*
X144007167Y-95629984D01*
X144007170Y-95629986D01*
X144221337Y-95729854D01*
X144449592Y-95791014D01*
X144626034Y-95806451D01*
X144684999Y-95811610D01*
X144685000Y-95811610D01*
X144685001Y-95811610D01*
X144743966Y-95806451D01*
X144920408Y-95791014D01*
X145148663Y-95729854D01*
X145362830Y-95629986D01*
X145556401Y-95494446D01*
X145723495Y-95327352D01*
X145853425Y-95141793D01*
X145908002Y-95098168D01*
X145977500Y-95090974D01*
X146039855Y-95122497D01*
X146056575Y-95141793D01*
X146186281Y-95327033D01*
X146186505Y-95327352D01*
X146353599Y-95494446D01*
X146450384Y-95562216D01*
X146547165Y-95629983D01*
X146547167Y-95629984D01*
X146547170Y-95629986D01*
X146761337Y-95729854D01*
X146989592Y-95791014D01*
X147166034Y-95806451D01*
X147224999Y-95811610D01*
X147225000Y-95811610D01*
X147225001Y-95811610D01*
X147283966Y-95806451D01*
X147460408Y-95791014D01*
X147688663Y-95729854D01*
X147902830Y-95629986D01*
X148096401Y-95494446D01*
X148263495Y-95327352D01*
X148393425Y-95141793D01*
X148448002Y-95098168D01*
X148517500Y-95090974D01*
X148579855Y-95122497D01*
X148596575Y-95141793D01*
X148726281Y-95327033D01*
X148726505Y-95327352D01*
X148893599Y-95494446D01*
X148990384Y-95562216D01*
X149087165Y-95629983D01*
X149087167Y-95629984D01*
X149087170Y-95629986D01*
X149301337Y-95729854D01*
X149529592Y-95791014D01*
X149706034Y-95806451D01*
X149764999Y-95811610D01*
X149765000Y-95811610D01*
X149765001Y-95811610D01*
X149823966Y-95806451D01*
X150000408Y-95791014D01*
X150228663Y-95729854D01*
X150442830Y-95629986D01*
X150636401Y-95494446D01*
X150803495Y-95327352D01*
X150933425Y-95141793D01*
X150988002Y-95098168D01*
X151057500Y-95090974D01*
X151119855Y-95122497D01*
X151136575Y-95141793D01*
X151266281Y-95327033D01*
X151266505Y-95327352D01*
X151433599Y-95494446D01*
X151530384Y-95562216D01*
X151627165Y-95629983D01*
X151627167Y-95629984D01*
X151627170Y-95629986D01*
X151841337Y-95729854D01*
X152069592Y-95791014D01*
X152246034Y-95806451D01*
X152304999Y-95811610D01*
X152305000Y-95811610D01*
X152305001Y-95811610D01*
X152363966Y-95806451D01*
X152540408Y-95791014D01*
X152768663Y-95729854D01*
X152982830Y-95629986D01*
X153176401Y-95494446D01*
X153343495Y-95327352D01*
X153473425Y-95141793D01*
X153528002Y-95098168D01*
X153597500Y-95090974D01*
X153659855Y-95122497D01*
X153676575Y-95141793D01*
X153806281Y-95327033D01*
X153806505Y-95327352D01*
X153973599Y-95494446D01*
X154070384Y-95562216D01*
X154167165Y-95629983D01*
X154167167Y-95629984D01*
X154167170Y-95629986D01*
X154381337Y-95729854D01*
X154609592Y-95791014D01*
X154786034Y-95806451D01*
X154844999Y-95811610D01*
X154845000Y-95811610D01*
X154845001Y-95811610D01*
X154903966Y-95806451D01*
X155080408Y-95791014D01*
X155308663Y-95729854D01*
X155522830Y-95629986D01*
X155716401Y-95494446D01*
X155883495Y-95327352D01*
X156013425Y-95141793D01*
X156068002Y-95098168D01*
X156137500Y-95090974D01*
X156199855Y-95122497D01*
X156216575Y-95141793D01*
X156346281Y-95327033D01*
X156346505Y-95327352D01*
X156513599Y-95494446D01*
X156610384Y-95562216D01*
X156707165Y-95629983D01*
X156707167Y-95629984D01*
X156707170Y-95629986D01*
X156921337Y-95729854D01*
X157149592Y-95791014D01*
X157326034Y-95806451D01*
X157384999Y-95811610D01*
X157385000Y-95811610D01*
X157385001Y-95811610D01*
X157443966Y-95806451D01*
X157620408Y-95791014D01*
X157848663Y-95729854D01*
X158062830Y-95629986D01*
X158256401Y-95494446D01*
X158423495Y-95327352D01*
X158553425Y-95141793D01*
X158608002Y-95098168D01*
X158677500Y-95090974D01*
X158739855Y-95122497D01*
X158756575Y-95141793D01*
X158886281Y-95327033D01*
X158886505Y-95327352D01*
X159053599Y-95494446D01*
X159150384Y-95562216D01*
X159247165Y-95629983D01*
X159247167Y-95629984D01*
X159247170Y-95629986D01*
X159461337Y-95729854D01*
X159689592Y-95791014D01*
X159866034Y-95806451D01*
X159924999Y-95811610D01*
X159925000Y-95811610D01*
X159925001Y-95811610D01*
X159983966Y-95806451D01*
X160160408Y-95791014D01*
X160388663Y-95729854D01*
X160602830Y-95629986D01*
X160796401Y-95494446D01*
X160963495Y-95327352D01*
X161093425Y-95141793D01*
X161148002Y-95098168D01*
X161217500Y-95090974D01*
X161279855Y-95122497D01*
X161296575Y-95141793D01*
X161426281Y-95327033D01*
X161426505Y-95327352D01*
X161593599Y-95494446D01*
X161690384Y-95562216D01*
X161787165Y-95629983D01*
X161787167Y-95629984D01*
X161787170Y-95629986D01*
X162001337Y-95729854D01*
X162229592Y-95791014D01*
X162406034Y-95806451D01*
X162464999Y-95811610D01*
X162465000Y-95811610D01*
X162465001Y-95811610D01*
X162523966Y-95806451D01*
X162700408Y-95791014D01*
X162928663Y-95729854D01*
X163142830Y-95629986D01*
X163336401Y-95494446D01*
X163503495Y-95327352D01*
X163633425Y-95141793D01*
X163688002Y-95098168D01*
X163757500Y-95090974D01*
X163819855Y-95122497D01*
X163836575Y-95141793D01*
X163966281Y-95327033D01*
X163966505Y-95327352D01*
X164133599Y-95494446D01*
X164230384Y-95562216D01*
X164327165Y-95629983D01*
X164327167Y-95629984D01*
X164327170Y-95629986D01*
X164541337Y-95729854D01*
X164769592Y-95791014D01*
X164946034Y-95806451D01*
X165004999Y-95811610D01*
X165005000Y-95811610D01*
X165005001Y-95811610D01*
X165063966Y-95806451D01*
X165240408Y-95791014D01*
X165468663Y-95729854D01*
X165682830Y-95629986D01*
X165876401Y-95494446D01*
X166043495Y-95327352D01*
X166173730Y-95141356D01*
X166228307Y-95097732D01*
X166297805Y-95090538D01*
X166360160Y-95122061D01*
X166376879Y-95141356D01*
X166506890Y-95327029D01*
X166673917Y-95494056D01*
X166867421Y-95629551D01*
X167081507Y-95729380D01*
X167081516Y-95729384D01*
X167295000Y-95786585D01*
X167295000Y-94891452D01*
X167402685Y-94940631D01*
X167509237Y-94955951D01*
X167580763Y-94955951D01*
X167687315Y-94940631D01*
X167795000Y-94891452D01*
X167795000Y-95786584D01*
X168008483Y-95729384D01*
X168008492Y-95729380D01*
X168222578Y-95629551D01*
X168416082Y-95494056D01*
X168583105Y-95327033D01*
X168713425Y-95140919D01*
X168768002Y-95097295D01*
X168837501Y-95090102D01*
X168899855Y-95121624D01*
X168916575Y-95140919D01*
X169046894Y-95327033D01*
X169213917Y-95494056D01*
X169407421Y-95629551D01*
X169621507Y-95729380D01*
X169621516Y-95729384D01*
X169835000Y-95786585D01*
X169835000Y-94891452D01*
X169942685Y-94940631D01*
X170049237Y-94955951D01*
X170120763Y-94955951D01*
X170227315Y-94940631D01*
X170335000Y-94891452D01*
X170335000Y-95786584D01*
X170548483Y-95729384D01*
X170548492Y-95729380D01*
X170762578Y-95629551D01*
X170956082Y-95494056D01*
X171123105Y-95327033D01*
X171258600Y-95133529D01*
X171358429Y-94919443D01*
X171358432Y-94919437D01*
X171415636Y-94705951D01*
X170518686Y-94705951D01*
X170544493Y-94665795D01*
X170585000Y-94527840D01*
X170585000Y-94384062D01*
X170544493Y-94246107D01*
X170518686Y-94205951D01*
X171415636Y-94205951D01*
X171415635Y-94205950D01*
X171358432Y-93992464D01*
X171358429Y-93992458D01*
X171258600Y-93778373D01*
X171258599Y-93778371D01*
X171123113Y-93584877D01*
X171123108Y-93584871D01*
X170956082Y-93417845D01*
X170762578Y-93282350D01*
X170548492Y-93182521D01*
X170548486Y-93182518D01*
X170335000Y-93125315D01*
X170335000Y-94020449D01*
X170227315Y-93971271D01*
X170120763Y-93955951D01*
X170049237Y-93955951D01*
X169942685Y-93971271D01*
X169835000Y-94020449D01*
X169835000Y-93125315D01*
X169834999Y-93125315D01*
X169621513Y-93182518D01*
X169621507Y-93182521D01*
X169407422Y-93282350D01*
X169407420Y-93282351D01*
X169213926Y-93417837D01*
X169213920Y-93417842D01*
X169046891Y-93584871D01*
X169046890Y-93584873D01*
X168916575Y-93770982D01*
X168861998Y-93814606D01*
X168792499Y-93821799D01*
X168730145Y-93790277D01*
X168713425Y-93770982D01*
X168583109Y-93584873D01*
X168583108Y-93584871D01*
X168416082Y-93417845D01*
X168222578Y-93282350D01*
X168008492Y-93182521D01*
X168008486Y-93182518D01*
X167795000Y-93125315D01*
X167795000Y-94020449D01*
X167687315Y-93971271D01*
X167580763Y-93955951D01*
X167509237Y-93955951D01*
X167402685Y-93971271D01*
X167295000Y-94020449D01*
X167295000Y-93125315D01*
X167294999Y-93125315D01*
X167081513Y-93182518D01*
X167081507Y-93182521D01*
X166867422Y-93282350D01*
X166867420Y-93282351D01*
X166673926Y-93417837D01*
X166673920Y-93417842D01*
X166506891Y-93584871D01*
X166506890Y-93584873D01*
X166376880Y-93770546D01*
X166322303Y-93814170D01*
X166252804Y-93821363D01*
X166190450Y-93789841D01*
X166173730Y-93770545D01*
X166043494Y-93584548D01*
X165876402Y-93417457D01*
X165876395Y-93417452D01*
X165682834Y-93281918D01*
X165682830Y-93281916D01*
X165682828Y-93281915D01*
X165468663Y-93182048D01*
X165468659Y-93182047D01*
X165468655Y-93182045D01*
X165240413Y-93120889D01*
X165240403Y-93120887D01*
X165005001Y-93100292D01*
X165004999Y-93100292D01*
X164769596Y-93120887D01*
X164769586Y-93120889D01*
X164541344Y-93182045D01*
X164541335Y-93182049D01*
X164327171Y-93281915D01*
X164327169Y-93281916D01*
X164133597Y-93417456D01*
X163966505Y-93584548D01*
X163836575Y-93770109D01*
X163781998Y-93813734D01*
X163712500Y-93820928D01*
X163650145Y-93789405D01*
X163633425Y-93770109D01*
X163503494Y-93584548D01*
X163336402Y-93417457D01*
X163336395Y-93417452D01*
X163142834Y-93281918D01*
X163142830Y-93281916D01*
X163142828Y-93281915D01*
X162928663Y-93182048D01*
X162928659Y-93182047D01*
X162928655Y-93182045D01*
X162700413Y-93120889D01*
X162700403Y-93120887D01*
X162465001Y-93100292D01*
X162464999Y-93100292D01*
X162229596Y-93120887D01*
X162229586Y-93120889D01*
X162001344Y-93182045D01*
X162001335Y-93182049D01*
X161787171Y-93281915D01*
X161787169Y-93281916D01*
X161593597Y-93417456D01*
X161426505Y-93584548D01*
X161296575Y-93770109D01*
X161241998Y-93813734D01*
X161172500Y-93820928D01*
X161110145Y-93789405D01*
X161093425Y-93770109D01*
X160963494Y-93584548D01*
X160796402Y-93417457D01*
X160796395Y-93417452D01*
X160602834Y-93281918D01*
X160602830Y-93281916D01*
X160602828Y-93281915D01*
X160388663Y-93182048D01*
X160388659Y-93182047D01*
X160388655Y-93182045D01*
X160160413Y-93120889D01*
X160160403Y-93120887D01*
X159925001Y-93100292D01*
X159924999Y-93100292D01*
X159689596Y-93120887D01*
X159689586Y-93120889D01*
X159461344Y-93182045D01*
X159461335Y-93182049D01*
X159247171Y-93281915D01*
X159247169Y-93281916D01*
X159053597Y-93417456D01*
X158886505Y-93584548D01*
X158756575Y-93770109D01*
X158701998Y-93813734D01*
X158632500Y-93820928D01*
X158570145Y-93789405D01*
X158553425Y-93770109D01*
X158423494Y-93584548D01*
X158256402Y-93417457D01*
X158256395Y-93417452D01*
X158062834Y-93281918D01*
X158062830Y-93281916D01*
X158062828Y-93281915D01*
X157848663Y-93182048D01*
X157848659Y-93182047D01*
X157848655Y-93182045D01*
X157620413Y-93120889D01*
X157620403Y-93120887D01*
X157385001Y-93100292D01*
X157384999Y-93100292D01*
X157149596Y-93120887D01*
X157149586Y-93120889D01*
X156921344Y-93182045D01*
X156921335Y-93182049D01*
X156707171Y-93281915D01*
X156707169Y-93281916D01*
X156513597Y-93417456D01*
X156346505Y-93584548D01*
X156216575Y-93770109D01*
X156161998Y-93813734D01*
X156092500Y-93820928D01*
X156030145Y-93789405D01*
X156013425Y-93770109D01*
X155883494Y-93584548D01*
X155716402Y-93417457D01*
X155716395Y-93417452D01*
X155522834Y-93281918D01*
X155522830Y-93281916D01*
X155522828Y-93281915D01*
X155308663Y-93182048D01*
X155308659Y-93182047D01*
X155308655Y-93182045D01*
X155080413Y-93120889D01*
X155080403Y-93120887D01*
X154845001Y-93100292D01*
X154844999Y-93100292D01*
X154609596Y-93120887D01*
X154609586Y-93120889D01*
X154381344Y-93182045D01*
X154381335Y-93182049D01*
X154167171Y-93281915D01*
X154167169Y-93281916D01*
X153973597Y-93417456D01*
X153806505Y-93584548D01*
X153676575Y-93770109D01*
X153621998Y-93813734D01*
X153552500Y-93820928D01*
X153490145Y-93789405D01*
X153473425Y-93770109D01*
X153343494Y-93584548D01*
X153176402Y-93417457D01*
X153176395Y-93417452D01*
X152982834Y-93281918D01*
X152982830Y-93281916D01*
X152982828Y-93281915D01*
X152768663Y-93182048D01*
X152768659Y-93182047D01*
X152768655Y-93182045D01*
X152540413Y-93120889D01*
X152540403Y-93120887D01*
X152305001Y-93100292D01*
X152304999Y-93100292D01*
X152069596Y-93120887D01*
X152069586Y-93120889D01*
X151841344Y-93182045D01*
X151841335Y-93182049D01*
X151627171Y-93281915D01*
X151627169Y-93281916D01*
X151433597Y-93417456D01*
X151266505Y-93584548D01*
X151136575Y-93770109D01*
X151081998Y-93813734D01*
X151012500Y-93820928D01*
X150950145Y-93789405D01*
X150933425Y-93770109D01*
X150803494Y-93584548D01*
X150636402Y-93417457D01*
X150636395Y-93417452D01*
X150442834Y-93281918D01*
X150442830Y-93281916D01*
X150442828Y-93281915D01*
X150228663Y-93182048D01*
X150228659Y-93182047D01*
X150228655Y-93182045D01*
X150000413Y-93120889D01*
X150000403Y-93120887D01*
X149765001Y-93100292D01*
X149764999Y-93100292D01*
X149529596Y-93120887D01*
X149529586Y-93120889D01*
X149301344Y-93182045D01*
X149301335Y-93182049D01*
X149087171Y-93281915D01*
X149087169Y-93281916D01*
X148893597Y-93417456D01*
X148726505Y-93584548D01*
X148596575Y-93770109D01*
X148541998Y-93813734D01*
X148472500Y-93820928D01*
X148410145Y-93789405D01*
X148393425Y-93770109D01*
X148263494Y-93584548D01*
X148096402Y-93417457D01*
X148096395Y-93417452D01*
X147902834Y-93281918D01*
X147902830Y-93281916D01*
X147902828Y-93281915D01*
X147688663Y-93182048D01*
X147688659Y-93182047D01*
X147688655Y-93182045D01*
X147460413Y-93120889D01*
X147460403Y-93120887D01*
X147225001Y-93100292D01*
X147224999Y-93100292D01*
X146989596Y-93120887D01*
X146989586Y-93120889D01*
X146761344Y-93182045D01*
X146761335Y-93182049D01*
X146547171Y-93281915D01*
X146547169Y-93281916D01*
X146353597Y-93417456D01*
X146186505Y-93584548D01*
X146056575Y-93770109D01*
X146001998Y-93813734D01*
X145932500Y-93820928D01*
X145870145Y-93789405D01*
X145853425Y-93770109D01*
X145723494Y-93584548D01*
X145556402Y-93417457D01*
X145556395Y-93417452D01*
X145362834Y-93281918D01*
X145362830Y-93281916D01*
X145362828Y-93281915D01*
X145148663Y-93182048D01*
X145148659Y-93182047D01*
X145148655Y-93182045D01*
X144920413Y-93120889D01*
X144920403Y-93120887D01*
X144685001Y-93100292D01*
X144684999Y-93100292D01*
X144449596Y-93120887D01*
X144449586Y-93120889D01*
X144221344Y-93182045D01*
X144221335Y-93182049D01*
X144007171Y-93281915D01*
X144007169Y-93281916D01*
X143813597Y-93417456D01*
X143646505Y-93584548D01*
X143516575Y-93770109D01*
X143461998Y-93813734D01*
X143392500Y-93820928D01*
X143330145Y-93789405D01*
X143313425Y-93770109D01*
X143183494Y-93584548D01*
X143016402Y-93417457D01*
X143016395Y-93417452D01*
X142822834Y-93281918D01*
X142822830Y-93281916D01*
X142822828Y-93281915D01*
X142608663Y-93182048D01*
X142608659Y-93182047D01*
X142608655Y-93182045D01*
X142380413Y-93120889D01*
X142380403Y-93120887D01*
X142145001Y-93100292D01*
X142144999Y-93100292D01*
X141909596Y-93120887D01*
X141909586Y-93120889D01*
X141681344Y-93182045D01*
X141681335Y-93182049D01*
X141467171Y-93281915D01*
X141467169Y-93281916D01*
X141273597Y-93417456D01*
X141106505Y-93584548D01*
X140976575Y-93770109D01*
X140921998Y-93813734D01*
X140852500Y-93820928D01*
X140790145Y-93789405D01*
X140773425Y-93770109D01*
X140643494Y-93584548D01*
X140476402Y-93417457D01*
X140476395Y-93417452D01*
X140282834Y-93281918D01*
X140282830Y-93281916D01*
X140282828Y-93281915D01*
X140068663Y-93182048D01*
X140068659Y-93182047D01*
X140068655Y-93182045D01*
X139840413Y-93120889D01*
X139840403Y-93120887D01*
X139605001Y-93100292D01*
X139604999Y-93100292D01*
X139369596Y-93120887D01*
X139369586Y-93120889D01*
X139141344Y-93182045D01*
X139141335Y-93182049D01*
X138927171Y-93281915D01*
X138927169Y-93281916D01*
X138733597Y-93417456D01*
X138566505Y-93584548D01*
X138436575Y-93770109D01*
X138381998Y-93813734D01*
X138312500Y-93820928D01*
X138250145Y-93789405D01*
X138233425Y-93770109D01*
X138103494Y-93584548D01*
X137936402Y-93417457D01*
X137936395Y-93417452D01*
X137742834Y-93281918D01*
X137742830Y-93281916D01*
X137742828Y-93281915D01*
X137528663Y-93182048D01*
X137528659Y-93182047D01*
X137528655Y-93182045D01*
X137300413Y-93120889D01*
X137300403Y-93120887D01*
X137065001Y-93100292D01*
X137064999Y-93100292D01*
X136829596Y-93120887D01*
X136829586Y-93120889D01*
X136601344Y-93182045D01*
X136601335Y-93182049D01*
X136387171Y-93281915D01*
X136387169Y-93281916D01*
X136193597Y-93417456D01*
X136026505Y-93584548D01*
X135896575Y-93770109D01*
X135841998Y-93813734D01*
X135772500Y-93820928D01*
X135710145Y-93789405D01*
X135693425Y-93770109D01*
X135563494Y-93584548D01*
X135396402Y-93417457D01*
X135396395Y-93417452D01*
X135202834Y-93281918D01*
X135202830Y-93281916D01*
X135202828Y-93281915D01*
X134988663Y-93182048D01*
X134988659Y-93182047D01*
X134988655Y-93182045D01*
X134760413Y-93120889D01*
X134760403Y-93120887D01*
X134525001Y-93100292D01*
X134524999Y-93100292D01*
X134289596Y-93120887D01*
X134289586Y-93120889D01*
X134061344Y-93182045D01*
X134061335Y-93182049D01*
X133847171Y-93281915D01*
X133847169Y-93281916D01*
X133653597Y-93417456D01*
X133486505Y-93584548D01*
X133356575Y-93770109D01*
X133301998Y-93813734D01*
X133232500Y-93820928D01*
X133170145Y-93789405D01*
X133153425Y-93770109D01*
X133023494Y-93584548D01*
X132856402Y-93417457D01*
X132856395Y-93417452D01*
X132662834Y-93281918D01*
X132662830Y-93281916D01*
X132662828Y-93281915D01*
X132448663Y-93182048D01*
X132448659Y-93182047D01*
X132448655Y-93182045D01*
X132220413Y-93120889D01*
X132220403Y-93120887D01*
X131985001Y-93100292D01*
X131984999Y-93100292D01*
X131749596Y-93120887D01*
X131749586Y-93120889D01*
X131521344Y-93182045D01*
X131521335Y-93182049D01*
X131307171Y-93281915D01*
X131307169Y-93281916D01*
X131113597Y-93417456D01*
X130946505Y-93584548D01*
X130816575Y-93770109D01*
X130761998Y-93813734D01*
X130692500Y-93820928D01*
X130630145Y-93789405D01*
X130613425Y-93770109D01*
X130483494Y-93584548D01*
X130316402Y-93417457D01*
X130316395Y-93417452D01*
X130122834Y-93281918D01*
X130122830Y-93281916D01*
X130122828Y-93281915D01*
X129908663Y-93182048D01*
X129908659Y-93182047D01*
X129908655Y-93182045D01*
X129680413Y-93120889D01*
X129680403Y-93120887D01*
X129445001Y-93100292D01*
X129444999Y-93100292D01*
X129209596Y-93120887D01*
X129209586Y-93120889D01*
X128981344Y-93182045D01*
X128981335Y-93182049D01*
X128767171Y-93281915D01*
X128767169Y-93281916D01*
X128573597Y-93417456D01*
X128406505Y-93584548D01*
X128276575Y-93770109D01*
X128221998Y-93813734D01*
X128152500Y-93820928D01*
X128090145Y-93789405D01*
X128073425Y-93770109D01*
X127943494Y-93584548D01*
X127776402Y-93417457D01*
X127776395Y-93417452D01*
X127582834Y-93281918D01*
X127582830Y-93281916D01*
X127582828Y-93281915D01*
X127368663Y-93182048D01*
X127368659Y-93182047D01*
X127368655Y-93182045D01*
X127140413Y-93120889D01*
X127140403Y-93120887D01*
X126905001Y-93100292D01*
X126904999Y-93100292D01*
X126669596Y-93120887D01*
X126669586Y-93120889D01*
X126441344Y-93182045D01*
X126441335Y-93182049D01*
X126227171Y-93281915D01*
X126227169Y-93281916D01*
X126033597Y-93417456D01*
X125866505Y-93584548D01*
X125736575Y-93770109D01*
X125681998Y-93813734D01*
X125612500Y-93820928D01*
X125550145Y-93789405D01*
X125533425Y-93770109D01*
X125403494Y-93584548D01*
X125236402Y-93417457D01*
X125236395Y-93417452D01*
X125042834Y-93281918D01*
X125042830Y-93281916D01*
X125042828Y-93281915D01*
X124828663Y-93182048D01*
X124828659Y-93182047D01*
X124828655Y-93182045D01*
X124600413Y-93120889D01*
X124600403Y-93120887D01*
X124365001Y-93100292D01*
X124364999Y-93100292D01*
X124129596Y-93120887D01*
X124129586Y-93120889D01*
X123901344Y-93182045D01*
X123901335Y-93182049D01*
X123687171Y-93281915D01*
X123687169Y-93281916D01*
X123493600Y-93417454D01*
X123371673Y-93539381D01*
X123310350Y-93572865D01*
X123240658Y-93567881D01*
X123184725Y-93526009D01*
X123167810Y-93495032D01*
X123118797Y-93363622D01*
X123118793Y-93363615D01*
X123032547Y-93248406D01*
X123032544Y-93248403D01*
X122917335Y-93162157D01*
X122917328Y-93162153D01*
X122782482Y-93111859D01*
X122782483Y-93111859D01*
X122722883Y-93105452D01*
X122722881Y-93105451D01*
X122722873Y-93105451D01*
X122722864Y-93105451D01*
X120927129Y-93105451D01*
X120927123Y-93105452D01*
X120867516Y-93111859D01*
X120732671Y-93162153D01*
X120732664Y-93162157D01*
X120617455Y-93248403D01*
X120617452Y-93248406D01*
X120531206Y-93363615D01*
X120531202Y-93363622D01*
X120480908Y-93498468D01*
X120474501Y-93558067D01*
X120474500Y-93558086D01*
X120474500Y-95353821D01*
X83725500Y-95353821D01*
X83725500Y-89375951D01*
X129809540Y-89375951D01*
X129829326Y-89564207D01*
X129829327Y-89564210D01*
X129887818Y-89744228D01*
X129887821Y-89744235D01*
X129982467Y-89908167D01*
X130109129Y-90048839D01*
X130262265Y-90160099D01*
X130262270Y-90160102D01*
X130435192Y-90237093D01*
X130435197Y-90237095D01*
X130620354Y-90276451D01*
X130620355Y-90276451D01*
X130809644Y-90276451D01*
X130809646Y-90276451D01*
X130994803Y-90237095D01*
X131167730Y-90160102D01*
X131320871Y-90048839D01*
X131447533Y-89908167D01*
X131542179Y-89744235D01*
X131600674Y-89564207D01*
X131620460Y-89375951D01*
X131600674Y-89187695D01*
X131542179Y-89007667D01*
X131447533Y-88843735D01*
X131320871Y-88703063D01*
X131320870Y-88703062D01*
X131167734Y-88591802D01*
X131167729Y-88591799D01*
X130994807Y-88514808D01*
X130994802Y-88514806D01*
X130849001Y-88483816D01*
X130809646Y-88475451D01*
X130620354Y-88475451D01*
X130587897Y-88482349D01*
X130435197Y-88514806D01*
X130435192Y-88514808D01*
X130262270Y-88591799D01*
X130262265Y-88591802D01*
X130109129Y-88703062D01*
X129982466Y-88843736D01*
X129887821Y-89007666D01*
X129887818Y-89007673D01*
X129829327Y-89187691D01*
X129829326Y-89187695D01*
X129809540Y-89375951D01*
X83725500Y-89375951D01*
X83725500Y-86078452D01*
X183384532Y-86078452D01*
X183404364Y-86305137D01*
X183404366Y-86305148D01*
X183463258Y-86524939D01*
X183463261Y-86524948D01*
X183559431Y-86731183D01*
X183559432Y-86731185D01*
X183689954Y-86917592D01*
X183850858Y-87078496D01*
X183850861Y-87078498D01*
X184037266Y-87209019D01*
X184243504Y-87305190D01*
X184463308Y-87364086D01*
X184625230Y-87378252D01*
X184689998Y-87383919D01*
X184690000Y-87383919D01*
X184690002Y-87383919D01*
X184746673Y-87378960D01*
X184916692Y-87364086D01*
X185136496Y-87305190D01*
X185342734Y-87209019D01*
X185529139Y-87078498D01*
X185690047Y-86917590D01*
X185820568Y-86731185D01*
X185847618Y-86673175D01*
X185893790Y-86620736D01*
X185960983Y-86601584D01*
X186027865Y-86621799D01*
X186072382Y-86673176D01*
X186099429Y-86731179D01*
X186099432Y-86731185D01*
X186229954Y-86917592D01*
X186390858Y-87078496D01*
X186390861Y-87078498D01*
X186577266Y-87209019D01*
X186783504Y-87305190D01*
X187003308Y-87364086D01*
X187165230Y-87378252D01*
X187229998Y-87383919D01*
X187230000Y-87383919D01*
X187230002Y-87383919D01*
X187286673Y-87378960D01*
X187456692Y-87364086D01*
X187676496Y-87305190D01*
X187882734Y-87209019D01*
X188069139Y-87078498D01*
X188230047Y-86917590D01*
X188360568Y-86731185D01*
X188387618Y-86673175D01*
X188433790Y-86620736D01*
X188500983Y-86601584D01*
X188567865Y-86621799D01*
X188612382Y-86673176D01*
X188639429Y-86731179D01*
X188639432Y-86731185D01*
X188769954Y-86917592D01*
X188930858Y-87078496D01*
X188930861Y-87078498D01*
X189117266Y-87209019D01*
X189323504Y-87305190D01*
X189543308Y-87364086D01*
X189705230Y-87378252D01*
X189769998Y-87383919D01*
X189770000Y-87383919D01*
X189770002Y-87383919D01*
X189826673Y-87378960D01*
X189996692Y-87364086D01*
X190216496Y-87305190D01*
X190422734Y-87209019D01*
X190609139Y-87078498D01*
X190770047Y-86917590D01*
X190900568Y-86731185D01*
X190927618Y-86673175D01*
X190973790Y-86620736D01*
X191040983Y-86601584D01*
X191107865Y-86621799D01*
X191152382Y-86673176D01*
X191179429Y-86731179D01*
X191179432Y-86731185D01*
X191309954Y-86917592D01*
X191470858Y-87078496D01*
X191470861Y-87078498D01*
X191657266Y-87209019D01*
X191863504Y-87305190D01*
X192083308Y-87364086D01*
X192245230Y-87378252D01*
X192309998Y-87383919D01*
X192310000Y-87383919D01*
X192310002Y-87383919D01*
X192366673Y-87378960D01*
X192536692Y-87364086D01*
X192756496Y-87305190D01*
X192962734Y-87209019D01*
X193149139Y-87078498D01*
X193310047Y-86917590D01*
X193440568Y-86731185D01*
X193467618Y-86673175D01*
X193513790Y-86620736D01*
X193580983Y-86601584D01*
X193647865Y-86621799D01*
X193692382Y-86673176D01*
X193719429Y-86731179D01*
X193719432Y-86731185D01*
X193849954Y-86917592D01*
X194010858Y-87078496D01*
X194010861Y-87078498D01*
X194197266Y-87209019D01*
X194403504Y-87305190D01*
X194623308Y-87364086D01*
X194785230Y-87378252D01*
X194849998Y-87383919D01*
X194850000Y-87383919D01*
X194850002Y-87383919D01*
X194906673Y-87378960D01*
X195076692Y-87364086D01*
X195296496Y-87305190D01*
X195502734Y-87209019D01*
X195689139Y-87078498D01*
X195850047Y-86917590D01*
X195980568Y-86731185D01*
X196076739Y-86524947D01*
X196135635Y-86305143D01*
X196155468Y-86078452D01*
X197354532Y-86078452D01*
X197374364Y-86305137D01*
X197374366Y-86305148D01*
X197433258Y-86524939D01*
X197433261Y-86524948D01*
X197529431Y-86731183D01*
X197529432Y-86731185D01*
X197659954Y-86917592D01*
X197820858Y-87078496D01*
X197820861Y-87078498D01*
X198007266Y-87209019D01*
X198213504Y-87305190D01*
X198433308Y-87364086D01*
X198595230Y-87378252D01*
X198659998Y-87383919D01*
X198660000Y-87383919D01*
X198660002Y-87383919D01*
X198716673Y-87378960D01*
X198886692Y-87364086D01*
X199106496Y-87305190D01*
X199312734Y-87209019D01*
X199499139Y-87078498D01*
X199660047Y-86917590D01*
X199790568Y-86731185D01*
X199817618Y-86673175D01*
X199863790Y-86620736D01*
X199930983Y-86601584D01*
X199997865Y-86621799D01*
X200042382Y-86673176D01*
X200069429Y-86731179D01*
X200069432Y-86731185D01*
X200199954Y-86917592D01*
X200360858Y-87078496D01*
X200360861Y-87078498D01*
X200547266Y-87209019D01*
X200753504Y-87305190D01*
X200973308Y-87364086D01*
X201135230Y-87378252D01*
X201199998Y-87383919D01*
X201200000Y-87383919D01*
X201200002Y-87383919D01*
X201256673Y-87378960D01*
X201426692Y-87364086D01*
X201646496Y-87305190D01*
X201852734Y-87209019D01*
X202039139Y-87078498D01*
X202200047Y-86917590D01*
X202330568Y-86731185D01*
X202357618Y-86673175D01*
X202403790Y-86620736D01*
X202470983Y-86601584D01*
X202537865Y-86621799D01*
X202582382Y-86673176D01*
X202609429Y-86731179D01*
X202609432Y-86731185D01*
X202739954Y-86917592D01*
X202900858Y-87078496D01*
X202900861Y-87078498D01*
X203087266Y-87209019D01*
X203293504Y-87305190D01*
X203513308Y-87364086D01*
X203675230Y-87378252D01*
X203739998Y-87383919D01*
X203740000Y-87383919D01*
X203740002Y-87383919D01*
X203796673Y-87378960D01*
X203966692Y-87364086D01*
X204186496Y-87305190D01*
X204392734Y-87209019D01*
X204579139Y-87078498D01*
X204740047Y-86917590D01*
X204870568Y-86731185D01*
X204897618Y-86673175D01*
X204943790Y-86620736D01*
X205010983Y-86601584D01*
X205077865Y-86621799D01*
X205122382Y-86673176D01*
X205149429Y-86731179D01*
X205149432Y-86731185D01*
X205279954Y-86917592D01*
X205440858Y-87078496D01*
X205440861Y-87078498D01*
X205627266Y-87209019D01*
X205833504Y-87305190D01*
X206053308Y-87364086D01*
X206215230Y-87378252D01*
X206279998Y-87383919D01*
X206280000Y-87383919D01*
X206280002Y-87383919D01*
X206336673Y-87378960D01*
X206506692Y-87364086D01*
X206726496Y-87305190D01*
X206932734Y-87209019D01*
X207119139Y-87078498D01*
X207280047Y-86917590D01*
X207410568Y-86731185D01*
X207437618Y-86673175D01*
X207483790Y-86620736D01*
X207550983Y-86601584D01*
X207617865Y-86621799D01*
X207662382Y-86673176D01*
X207689429Y-86731179D01*
X207689432Y-86731185D01*
X207819954Y-86917592D01*
X207980858Y-87078496D01*
X207980861Y-87078498D01*
X208167266Y-87209019D01*
X208373504Y-87305190D01*
X208593308Y-87364086D01*
X208755230Y-87378252D01*
X208819998Y-87383919D01*
X208820000Y-87383919D01*
X208820002Y-87383919D01*
X208876673Y-87378960D01*
X209046692Y-87364086D01*
X209266496Y-87305190D01*
X209472734Y-87209019D01*
X209659139Y-87078498D01*
X209820047Y-86917590D01*
X209950568Y-86731185D01*
X210046739Y-86524947D01*
X210105635Y-86305143D01*
X210125468Y-86078451D01*
X210105635Y-85851759D01*
X210046739Y-85631955D01*
X209950568Y-85425717D01*
X209820047Y-85239312D01*
X209820045Y-85239309D01*
X209659141Y-85078405D01*
X209472734Y-84947883D01*
X209472732Y-84947882D01*
X209266497Y-84851712D01*
X209266488Y-84851709D01*
X209046697Y-84792817D01*
X209046693Y-84792816D01*
X209046692Y-84792816D01*
X209046691Y-84792815D01*
X209046686Y-84792815D01*
X208820002Y-84772983D01*
X208819998Y-84772983D01*
X208593313Y-84792815D01*
X208593302Y-84792817D01*
X208373511Y-84851709D01*
X208373502Y-84851712D01*
X208167267Y-84947882D01*
X208167265Y-84947883D01*
X207980858Y-85078405D01*
X207819954Y-85239309D01*
X207689432Y-85425716D01*
X207689431Y-85425718D01*
X207662382Y-85483726D01*
X207616209Y-85536165D01*
X207549016Y-85555317D01*
X207482135Y-85535101D01*
X207437618Y-85483726D01*
X207410568Y-85425718D01*
X207410567Y-85425716D01*
X207280045Y-85239309D01*
X207119141Y-85078405D01*
X206932734Y-84947883D01*
X206932732Y-84947882D01*
X206726497Y-84851712D01*
X206726488Y-84851709D01*
X206506697Y-84792817D01*
X206506693Y-84792816D01*
X206506692Y-84792816D01*
X206506691Y-84792815D01*
X206506686Y-84792815D01*
X206280002Y-84772983D01*
X206279998Y-84772983D01*
X206053313Y-84792815D01*
X206053302Y-84792817D01*
X205833511Y-84851709D01*
X205833502Y-84851712D01*
X205627267Y-84947882D01*
X205627265Y-84947883D01*
X205440858Y-85078405D01*
X205279954Y-85239309D01*
X205149432Y-85425716D01*
X205149431Y-85425718D01*
X205122382Y-85483726D01*
X205076209Y-85536165D01*
X205009016Y-85555317D01*
X204942135Y-85535101D01*
X204897618Y-85483726D01*
X204870568Y-85425718D01*
X204870567Y-85425716D01*
X204740045Y-85239309D01*
X204579141Y-85078405D01*
X204392734Y-84947883D01*
X204392732Y-84947882D01*
X204186497Y-84851712D01*
X204186488Y-84851709D01*
X203966697Y-84792817D01*
X203966693Y-84792816D01*
X203966692Y-84792816D01*
X203966691Y-84792815D01*
X203966686Y-84792815D01*
X203740002Y-84772983D01*
X203739998Y-84772983D01*
X203513313Y-84792815D01*
X203513302Y-84792817D01*
X203293511Y-84851709D01*
X203293502Y-84851712D01*
X203087267Y-84947882D01*
X203087265Y-84947883D01*
X202900858Y-85078405D01*
X202739954Y-85239309D01*
X202609432Y-85425716D01*
X202609431Y-85425718D01*
X202582382Y-85483726D01*
X202536209Y-85536165D01*
X202469016Y-85555317D01*
X202402135Y-85535101D01*
X202357618Y-85483726D01*
X202330568Y-85425718D01*
X202330567Y-85425716D01*
X202200045Y-85239309D01*
X202039141Y-85078405D01*
X201852734Y-84947883D01*
X201852732Y-84947882D01*
X201646497Y-84851712D01*
X201646488Y-84851709D01*
X201426697Y-84792817D01*
X201426693Y-84792816D01*
X201426692Y-84792816D01*
X201426691Y-84792815D01*
X201426686Y-84792815D01*
X201200002Y-84772983D01*
X201199998Y-84772983D01*
X200973313Y-84792815D01*
X200973302Y-84792817D01*
X200753511Y-84851709D01*
X200753502Y-84851712D01*
X200547267Y-84947882D01*
X200547265Y-84947883D01*
X200360858Y-85078405D01*
X200199954Y-85239309D01*
X200069432Y-85425716D01*
X200069431Y-85425718D01*
X200042382Y-85483726D01*
X199996209Y-85536165D01*
X199929016Y-85555317D01*
X199862135Y-85535101D01*
X199817618Y-85483726D01*
X199790568Y-85425718D01*
X199790567Y-85425716D01*
X199660045Y-85239309D01*
X199499141Y-85078405D01*
X199312734Y-84947883D01*
X199312732Y-84947882D01*
X199106497Y-84851712D01*
X199106488Y-84851709D01*
X198886697Y-84792817D01*
X198886693Y-84792816D01*
X198886692Y-84792816D01*
X198886691Y-84792815D01*
X198886686Y-84792815D01*
X198660002Y-84772983D01*
X198659998Y-84772983D01*
X198433313Y-84792815D01*
X198433302Y-84792817D01*
X198213511Y-84851709D01*
X198213502Y-84851712D01*
X198007267Y-84947882D01*
X198007265Y-84947883D01*
X197820858Y-85078405D01*
X197659954Y-85239309D01*
X197529432Y-85425716D01*
X197529431Y-85425718D01*
X197433261Y-85631953D01*
X197433258Y-85631962D01*
X197374366Y-85851753D01*
X197374364Y-85851764D01*
X197354532Y-86078449D01*
X197354532Y-86078452D01*
X196155468Y-86078452D01*
X196155468Y-86078451D01*
X196135635Y-85851759D01*
X196076739Y-85631955D01*
X195980568Y-85425717D01*
X195850047Y-85239312D01*
X195850045Y-85239309D01*
X195689141Y-85078405D01*
X195502734Y-84947883D01*
X195502732Y-84947882D01*
X195296497Y-84851712D01*
X195296488Y-84851709D01*
X195076697Y-84792817D01*
X195076693Y-84792816D01*
X195076692Y-84792816D01*
X195076691Y-84792815D01*
X195076686Y-84792815D01*
X194850002Y-84772983D01*
X194849998Y-84772983D01*
X194623313Y-84792815D01*
X194623302Y-84792817D01*
X194403511Y-84851709D01*
X194403502Y-84851712D01*
X194197267Y-84947882D01*
X194197265Y-84947883D01*
X194010858Y-85078405D01*
X193849954Y-85239309D01*
X193719432Y-85425716D01*
X193719431Y-85425718D01*
X193692382Y-85483726D01*
X193646209Y-85536165D01*
X193579016Y-85555317D01*
X193512135Y-85535101D01*
X193467618Y-85483726D01*
X193440568Y-85425718D01*
X193440567Y-85425716D01*
X193310045Y-85239309D01*
X193149141Y-85078405D01*
X192962734Y-84947883D01*
X192962732Y-84947882D01*
X192756497Y-84851712D01*
X192756488Y-84851709D01*
X192536697Y-84792817D01*
X192536693Y-84792816D01*
X192536692Y-84792816D01*
X192536691Y-84792815D01*
X192536686Y-84792815D01*
X192310002Y-84772983D01*
X192309998Y-84772983D01*
X192083313Y-84792815D01*
X192083302Y-84792817D01*
X191863511Y-84851709D01*
X191863502Y-84851712D01*
X191657267Y-84947882D01*
X191657265Y-84947883D01*
X191470858Y-85078405D01*
X191309954Y-85239309D01*
X191179432Y-85425716D01*
X191179431Y-85425718D01*
X191152382Y-85483726D01*
X191106209Y-85536165D01*
X191039016Y-85555317D01*
X190972135Y-85535101D01*
X190927618Y-85483726D01*
X190900568Y-85425718D01*
X190900567Y-85425716D01*
X190770045Y-85239309D01*
X190609141Y-85078405D01*
X190422734Y-84947883D01*
X190422732Y-84947882D01*
X190216497Y-84851712D01*
X190216488Y-84851709D01*
X189996697Y-84792817D01*
X189996693Y-84792816D01*
X189996692Y-84792816D01*
X189996691Y-84792815D01*
X189996686Y-84792815D01*
X189770002Y-84772983D01*
X189769998Y-84772983D01*
X189543313Y-84792815D01*
X189543302Y-84792817D01*
X189323511Y-84851709D01*
X189323502Y-84851712D01*
X189117267Y-84947882D01*
X189117265Y-84947883D01*
X188930858Y-85078405D01*
X188769954Y-85239309D01*
X188639432Y-85425716D01*
X188639431Y-85425718D01*
X188612382Y-85483726D01*
X188566209Y-85536165D01*
X188499016Y-85555317D01*
X188432135Y-85535101D01*
X188387618Y-85483726D01*
X188360568Y-85425718D01*
X188360567Y-85425716D01*
X188230045Y-85239309D01*
X188069141Y-85078405D01*
X187882734Y-84947883D01*
X187882732Y-84947882D01*
X187676497Y-84851712D01*
X187676488Y-84851709D01*
X187456697Y-84792817D01*
X187456693Y-84792816D01*
X187456692Y-84792816D01*
X187456691Y-84792815D01*
X187456686Y-84792815D01*
X187230002Y-84772983D01*
X187229998Y-84772983D01*
X187003313Y-84792815D01*
X187003302Y-84792817D01*
X186783511Y-84851709D01*
X186783502Y-84851712D01*
X186577267Y-84947882D01*
X186577265Y-84947883D01*
X186390858Y-85078405D01*
X186229954Y-85239309D01*
X186099432Y-85425716D01*
X186099431Y-85425718D01*
X186072382Y-85483726D01*
X186026209Y-85536165D01*
X185959016Y-85555317D01*
X185892135Y-85535101D01*
X185847618Y-85483726D01*
X185820568Y-85425718D01*
X185820567Y-85425716D01*
X185690045Y-85239309D01*
X185529141Y-85078405D01*
X185342734Y-84947883D01*
X185342732Y-84947882D01*
X185136497Y-84851712D01*
X185136488Y-84851709D01*
X184916697Y-84792817D01*
X184916693Y-84792816D01*
X184916692Y-84792816D01*
X184916691Y-84792815D01*
X184916686Y-84792815D01*
X184690002Y-84772983D01*
X184689998Y-84772983D01*
X184463313Y-84792815D01*
X184463302Y-84792817D01*
X184243511Y-84851709D01*
X184243502Y-84851712D01*
X184037267Y-84947882D01*
X184037265Y-84947883D01*
X183850858Y-85078405D01*
X183689954Y-85239309D01*
X183559432Y-85425716D01*
X183559431Y-85425718D01*
X183463261Y-85631953D01*
X183463258Y-85631962D01*
X183404366Y-85851753D01*
X183404364Y-85851764D01*
X183384532Y-86078449D01*
X183384532Y-86078452D01*
X83725500Y-86078452D01*
X83725500Y-74130952D01*
X184654532Y-74130952D01*
X184674364Y-74357637D01*
X184674366Y-74357648D01*
X184733258Y-74577439D01*
X184733261Y-74577448D01*
X184829431Y-74783683D01*
X184829432Y-74783685D01*
X184959954Y-74970092D01*
X185120858Y-75130996D01*
X185120861Y-75130998D01*
X185307266Y-75261519D01*
X185365865Y-75288844D01*
X185418305Y-75335016D01*
X185437457Y-75402209D01*
X185417242Y-75469090D01*
X185365867Y-75513608D01*
X185307515Y-75540818D01*
X185121179Y-75671293D01*
X184960342Y-75832130D01*
X184829865Y-76018468D01*
X184733734Y-76224624D01*
X184733730Y-76224633D01*
X184681127Y-76420950D01*
X184681128Y-76420951D01*
X185644314Y-76420951D01*
X185632359Y-76432906D01*
X185574835Y-76545803D01*
X185555014Y-76670951D01*
X185574835Y-76796099D01*
X185632359Y-76908996D01*
X185644314Y-76920951D01*
X184681128Y-76920951D01*
X184733730Y-77117268D01*
X184733734Y-77117277D01*
X184829865Y-77323433D01*
X184960342Y-77509771D01*
X185121179Y-77670608D01*
X185307517Y-77801085D01*
X185513673Y-77897216D01*
X185513682Y-77897220D01*
X185709999Y-77949823D01*
X185710000Y-77949822D01*
X185710000Y-76986637D01*
X185721955Y-76998592D01*
X185834852Y-77056116D01*
X185928519Y-77070951D01*
X185991481Y-77070951D01*
X186085148Y-77056116D01*
X186198045Y-76998592D01*
X186210000Y-76986637D01*
X186210000Y-77949823D01*
X186406317Y-77897220D01*
X186406326Y-77897216D01*
X186612482Y-77801085D01*
X186798820Y-77670608D01*
X186959657Y-77509771D01*
X187090134Y-77323433D01*
X187186265Y-77117277D01*
X187186269Y-77117268D01*
X187238872Y-76920951D01*
X186275686Y-76920951D01*
X186287641Y-76908996D01*
X186345165Y-76796099D01*
X186364986Y-76670952D01*
X192274532Y-76670952D01*
X192294364Y-76897637D01*
X192294366Y-76897648D01*
X192353258Y-77117439D01*
X192353261Y-77117448D01*
X192449431Y-77323683D01*
X192449432Y-77323685D01*
X192579954Y-77510092D01*
X192740858Y-77670996D01*
X192740861Y-77670998D01*
X192927266Y-77801519D01*
X193133504Y-77897690D01*
X193353308Y-77956586D01*
X193515230Y-77970752D01*
X193579998Y-77976419D01*
X193580000Y-77976419D01*
X193580002Y-77976419D01*
X193636673Y-77971460D01*
X193806692Y-77956586D01*
X194026496Y-77897690D01*
X194232734Y-77801519D01*
X194419139Y-77670998D01*
X194580047Y-77510090D01*
X194710568Y-77323685D01*
X194806739Y-77117447D01*
X194865635Y-76897643D01*
X194885468Y-76670951D01*
X194865635Y-76444259D01*
X194806739Y-76224455D01*
X194710568Y-76018217D01*
X194580047Y-75831812D01*
X194580045Y-75831809D01*
X194419141Y-75670905D01*
X194232734Y-75540383D01*
X194232728Y-75540380D01*
X194174725Y-75513333D01*
X194122285Y-75467161D01*
X194103133Y-75399968D01*
X194123348Y-75333086D01*
X194174725Y-75288569D01*
X194232734Y-75261519D01*
X194419139Y-75130998D01*
X194580047Y-74970090D01*
X194710568Y-74783685D01*
X194806739Y-74577447D01*
X194865635Y-74357643D01*
X194885468Y-74130952D01*
X198634532Y-74130952D01*
X198654364Y-74357637D01*
X198654366Y-74357648D01*
X198713258Y-74577439D01*
X198713261Y-74577448D01*
X198809431Y-74783683D01*
X198809432Y-74783685D01*
X198939954Y-74970092D01*
X199100858Y-75130996D01*
X199100861Y-75130998D01*
X199287266Y-75261519D01*
X199345865Y-75288844D01*
X199398305Y-75335016D01*
X199417457Y-75402209D01*
X199397242Y-75469090D01*
X199345867Y-75513608D01*
X199287515Y-75540818D01*
X199101179Y-75671293D01*
X198940342Y-75832130D01*
X198809865Y-76018468D01*
X198713734Y-76224624D01*
X198713730Y-76224633D01*
X198661127Y-76420950D01*
X198661128Y-76420951D01*
X199624314Y-76420951D01*
X199612359Y-76432906D01*
X199554835Y-76545803D01*
X199535014Y-76670951D01*
X199554835Y-76796099D01*
X199612359Y-76908996D01*
X199624314Y-76920951D01*
X198661128Y-76920951D01*
X198713730Y-77117268D01*
X198713734Y-77117277D01*
X198809865Y-77323433D01*
X198940342Y-77509771D01*
X199101179Y-77670608D01*
X199287517Y-77801085D01*
X199493673Y-77897216D01*
X199493682Y-77897220D01*
X199689999Y-77949823D01*
X199690000Y-77949822D01*
X199690000Y-76986637D01*
X199701955Y-76998592D01*
X199814852Y-77056116D01*
X199908519Y-77070951D01*
X199971481Y-77070951D01*
X200065148Y-77056116D01*
X200178045Y-76998592D01*
X200190000Y-76986637D01*
X200190000Y-77949823D01*
X200386317Y-77897220D01*
X200386326Y-77897216D01*
X200592482Y-77801085D01*
X200778820Y-77670608D01*
X200939657Y-77509771D01*
X201070134Y-77323433D01*
X201166265Y-77117277D01*
X201166269Y-77117268D01*
X201218872Y-76920951D01*
X200255686Y-76920951D01*
X200267641Y-76908996D01*
X200325165Y-76796099D01*
X200344986Y-76670952D01*
X206254532Y-76670952D01*
X206274364Y-76897637D01*
X206274366Y-76897648D01*
X206333258Y-77117439D01*
X206333261Y-77117448D01*
X206429431Y-77323683D01*
X206429432Y-77323685D01*
X206559954Y-77510092D01*
X206720858Y-77670996D01*
X206720861Y-77670998D01*
X206907266Y-77801519D01*
X207113504Y-77897690D01*
X207333308Y-77956586D01*
X207495230Y-77970752D01*
X207559998Y-77976419D01*
X207560000Y-77976419D01*
X207560002Y-77976419D01*
X207616673Y-77971460D01*
X207786692Y-77956586D01*
X208006496Y-77897690D01*
X208212734Y-77801519D01*
X208399139Y-77670998D01*
X208560047Y-77510090D01*
X208690568Y-77323685D01*
X208786739Y-77117447D01*
X208845635Y-76897643D01*
X208865468Y-76670951D01*
X208845635Y-76444259D01*
X208786739Y-76224455D01*
X208690568Y-76018217D01*
X208560047Y-75831812D01*
X208560045Y-75831809D01*
X208399141Y-75670905D01*
X208212734Y-75540383D01*
X208212728Y-75540380D01*
X208154725Y-75513333D01*
X208102285Y-75467161D01*
X208083133Y-75399968D01*
X208103348Y-75333086D01*
X208154725Y-75288569D01*
X208212734Y-75261519D01*
X208399139Y-75130998D01*
X208560047Y-74970090D01*
X208690568Y-74783685D01*
X208786739Y-74577447D01*
X208845635Y-74357643D01*
X208865468Y-74130951D01*
X208845635Y-73904259D01*
X208786739Y-73684455D01*
X208690568Y-73478217D01*
X208560047Y-73291812D01*
X208560045Y-73291809D01*
X208399141Y-73130905D01*
X208212734Y-73000383D01*
X208212728Y-73000380D01*
X208154725Y-72973333D01*
X208102285Y-72927161D01*
X208083133Y-72859968D01*
X208103348Y-72793086D01*
X208154725Y-72748569D01*
X208212734Y-72721519D01*
X208399139Y-72590998D01*
X208560047Y-72430090D01*
X208690568Y-72243685D01*
X208786739Y-72037447D01*
X208845635Y-71817643D01*
X208865468Y-71590951D01*
X208845635Y-71364259D01*
X208786739Y-71144455D01*
X208690568Y-70938217D01*
X208560047Y-70751812D01*
X208560045Y-70751809D01*
X208399141Y-70590905D01*
X208212734Y-70460383D01*
X208212728Y-70460380D01*
X208154725Y-70433333D01*
X208102285Y-70387161D01*
X208083133Y-70319968D01*
X208103348Y-70253086D01*
X208154725Y-70208569D01*
X208212734Y-70181519D01*
X208399139Y-70050998D01*
X208560047Y-69890090D01*
X208690568Y-69703685D01*
X208786739Y-69497447D01*
X208845635Y-69277643D01*
X208865468Y-69050951D01*
X208845635Y-68824259D01*
X208786739Y-68604455D01*
X208690568Y-68398217D01*
X208560047Y-68211812D01*
X208560045Y-68211809D01*
X208399141Y-68050905D01*
X208212734Y-67920383D01*
X208212728Y-67920380D01*
X208154725Y-67893333D01*
X208102285Y-67847161D01*
X208083133Y-67779968D01*
X208103348Y-67713086D01*
X208154725Y-67668569D01*
X208212734Y-67641519D01*
X208399139Y-67510998D01*
X208560047Y-67350090D01*
X208690568Y-67163685D01*
X208786739Y-66957447D01*
X208845635Y-66737643D01*
X208865468Y-66510951D01*
X208845635Y-66284259D01*
X208786739Y-66064455D01*
X208690568Y-65858217D01*
X208560047Y-65671812D01*
X208560045Y-65671809D01*
X208399141Y-65510905D01*
X208212734Y-65380383D01*
X208212728Y-65380380D01*
X208154725Y-65353333D01*
X208102285Y-65307161D01*
X208083133Y-65239968D01*
X208103348Y-65173086D01*
X208154725Y-65128569D01*
X208212734Y-65101519D01*
X208399139Y-64970998D01*
X208560047Y-64810090D01*
X208690568Y-64623685D01*
X208786739Y-64417447D01*
X208845635Y-64197643D01*
X208865468Y-63970951D01*
X208845635Y-63744259D01*
X208786739Y-63524455D01*
X208690568Y-63318217D01*
X208560047Y-63131812D01*
X208560045Y-63131809D01*
X208399141Y-62970905D01*
X208212734Y-62840383D01*
X208212728Y-62840380D01*
X208154725Y-62813333D01*
X208102285Y-62767161D01*
X208083133Y-62699968D01*
X208103348Y-62633086D01*
X208154725Y-62588569D01*
X208212734Y-62561519D01*
X208399139Y-62430998D01*
X208560047Y-62270090D01*
X208690568Y-62083685D01*
X208786739Y-61877447D01*
X208845635Y-61657643D01*
X208865468Y-61430951D01*
X208863823Y-61412153D01*
X208845635Y-61204264D01*
X208845635Y-61204259D01*
X208786739Y-60984455D01*
X208690568Y-60778217D01*
X208560047Y-60591812D01*
X208560045Y-60591809D01*
X208399141Y-60430905D01*
X208212734Y-60300383D01*
X208212732Y-60300382D01*
X208006497Y-60204212D01*
X208006488Y-60204209D01*
X207786697Y-60145317D01*
X207786693Y-60145316D01*
X207786692Y-60145316D01*
X207786691Y-60145315D01*
X207786686Y-60145315D01*
X207560002Y-60125483D01*
X207559998Y-60125483D01*
X207333313Y-60145315D01*
X207333302Y-60145317D01*
X207113511Y-60204209D01*
X207113502Y-60204212D01*
X206907267Y-60300382D01*
X206907265Y-60300383D01*
X206720858Y-60430905D01*
X206559954Y-60591809D01*
X206429432Y-60778216D01*
X206429431Y-60778218D01*
X206333261Y-60984453D01*
X206333258Y-60984462D01*
X206274366Y-61204253D01*
X206274364Y-61204264D01*
X206254532Y-61430949D01*
X206254532Y-61430952D01*
X206274364Y-61657637D01*
X206274366Y-61657648D01*
X206333258Y-61877439D01*
X206333261Y-61877448D01*
X206429431Y-62083683D01*
X206429432Y-62083685D01*
X206559954Y-62270092D01*
X206720858Y-62430996D01*
X206720861Y-62430998D01*
X206907266Y-62561519D01*
X206965275Y-62588569D01*
X207017714Y-62634742D01*
X207036866Y-62701935D01*
X207016650Y-62768816D01*
X206965275Y-62813333D01*
X206907267Y-62840382D01*
X206907265Y-62840383D01*
X206720858Y-62970905D01*
X206559954Y-63131809D01*
X206429432Y-63318216D01*
X206429431Y-63318218D01*
X206333261Y-63524453D01*
X206333258Y-63524462D01*
X206274366Y-63744253D01*
X206274364Y-63744264D01*
X206254532Y-63970949D01*
X206254532Y-63970952D01*
X206274364Y-64197637D01*
X206274366Y-64197648D01*
X206333258Y-64417439D01*
X206333261Y-64417448D01*
X206429431Y-64623683D01*
X206429432Y-64623685D01*
X206559954Y-64810092D01*
X206720858Y-64970996D01*
X206720861Y-64970998D01*
X206907266Y-65101519D01*
X206965275Y-65128569D01*
X207017714Y-65174742D01*
X207036866Y-65241935D01*
X207016650Y-65308816D01*
X206965275Y-65353333D01*
X206907267Y-65380382D01*
X206907265Y-65380383D01*
X206720858Y-65510905D01*
X206559954Y-65671809D01*
X206429432Y-65858216D01*
X206429431Y-65858218D01*
X206333261Y-66064453D01*
X206333258Y-66064462D01*
X206274366Y-66284253D01*
X206274364Y-66284264D01*
X206254532Y-66510949D01*
X206254532Y-66510952D01*
X206274364Y-66737637D01*
X206274366Y-66737648D01*
X206333258Y-66957439D01*
X206333261Y-66957448D01*
X206429431Y-67163683D01*
X206429432Y-67163685D01*
X206559954Y-67350092D01*
X206720858Y-67510996D01*
X206720861Y-67510998D01*
X206907266Y-67641519D01*
X206965275Y-67668569D01*
X207017714Y-67714742D01*
X207036866Y-67781935D01*
X207016650Y-67848816D01*
X206965275Y-67893333D01*
X206907267Y-67920382D01*
X206907265Y-67920383D01*
X206720858Y-68050905D01*
X206559954Y-68211809D01*
X206429432Y-68398216D01*
X206429431Y-68398218D01*
X206333261Y-68604453D01*
X206333258Y-68604462D01*
X206274366Y-68824253D01*
X206274364Y-68824264D01*
X206254532Y-69050949D01*
X206254532Y-69050952D01*
X206274364Y-69277637D01*
X206274366Y-69277648D01*
X206333258Y-69497439D01*
X206333261Y-69497448D01*
X206429431Y-69703683D01*
X206429432Y-69703685D01*
X206559954Y-69890092D01*
X206720858Y-70050996D01*
X206720861Y-70050998D01*
X206907266Y-70181519D01*
X206965275Y-70208569D01*
X207017714Y-70254742D01*
X207036866Y-70321935D01*
X207016650Y-70388816D01*
X206965275Y-70433333D01*
X206907267Y-70460382D01*
X206907265Y-70460383D01*
X206720858Y-70590905D01*
X206559954Y-70751809D01*
X206429432Y-70938216D01*
X206429431Y-70938218D01*
X206333261Y-71144453D01*
X206333258Y-71144462D01*
X206274366Y-71364253D01*
X206274364Y-71364264D01*
X206254532Y-71590949D01*
X206254532Y-71590952D01*
X206274364Y-71817637D01*
X206274366Y-71817648D01*
X206333258Y-72037439D01*
X206333261Y-72037448D01*
X206429431Y-72243683D01*
X206429432Y-72243685D01*
X206559954Y-72430092D01*
X206720858Y-72590996D01*
X206720861Y-72590998D01*
X206907266Y-72721519D01*
X206965275Y-72748569D01*
X207017714Y-72794742D01*
X207036866Y-72861935D01*
X207016650Y-72928816D01*
X206965275Y-72973333D01*
X206907267Y-73000382D01*
X206907265Y-73000383D01*
X206720858Y-73130905D01*
X206559954Y-73291809D01*
X206429432Y-73478216D01*
X206429431Y-73478218D01*
X206333261Y-73684453D01*
X206333258Y-73684462D01*
X206274366Y-73904253D01*
X206274364Y-73904264D01*
X206254532Y-74130949D01*
X206254532Y-74130952D01*
X206274364Y-74357637D01*
X206274366Y-74357648D01*
X206333258Y-74577439D01*
X206333261Y-74577448D01*
X206429431Y-74783683D01*
X206429432Y-74783685D01*
X206559954Y-74970092D01*
X206720858Y-75130996D01*
X206720861Y-75130998D01*
X206907266Y-75261519D01*
X206965275Y-75288569D01*
X207017714Y-75334742D01*
X207036866Y-75401935D01*
X207016650Y-75468816D01*
X206965275Y-75513333D01*
X206907267Y-75540382D01*
X206907265Y-75540383D01*
X206720858Y-75670905D01*
X206559954Y-75831809D01*
X206429432Y-76018216D01*
X206429431Y-76018218D01*
X206333261Y-76224453D01*
X206333258Y-76224462D01*
X206274366Y-76444253D01*
X206274364Y-76444264D01*
X206254532Y-76670949D01*
X206254532Y-76670952D01*
X200344986Y-76670952D01*
X200344986Y-76670951D01*
X200325165Y-76545803D01*
X200267641Y-76432906D01*
X200255686Y-76420951D01*
X201218872Y-76420951D01*
X201218872Y-76420950D01*
X201166269Y-76224633D01*
X201166265Y-76224624D01*
X201070134Y-76018468D01*
X200939657Y-75832130D01*
X200778820Y-75671293D01*
X200592482Y-75540816D01*
X200534133Y-75513608D01*
X200481694Y-75467435D01*
X200462542Y-75400242D01*
X200482758Y-75333361D01*
X200534129Y-75288846D01*
X200592734Y-75261519D01*
X200779139Y-75130998D01*
X200940047Y-74970090D01*
X201070568Y-74783685D01*
X201166739Y-74577447D01*
X201225635Y-74357643D01*
X201245468Y-74130951D01*
X201225635Y-73904259D01*
X201166739Y-73684455D01*
X201070568Y-73478217D01*
X200940047Y-73291812D01*
X200940045Y-73291809D01*
X200779141Y-73130905D01*
X200592734Y-73000383D01*
X200592728Y-73000380D01*
X200534725Y-72973333D01*
X200482285Y-72927161D01*
X200463133Y-72859968D01*
X200483348Y-72793086D01*
X200534725Y-72748569D01*
X200592734Y-72721519D01*
X200779139Y-72590998D01*
X200940047Y-72430090D01*
X201070568Y-72243685D01*
X201166739Y-72037447D01*
X201225635Y-71817643D01*
X201245468Y-71590951D01*
X201225635Y-71364259D01*
X201166739Y-71144455D01*
X201070568Y-70938217D01*
X200940047Y-70751812D01*
X200940045Y-70751809D01*
X200779141Y-70590905D01*
X200592734Y-70460383D01*
X200592728Y-70460380D01*
X200534725Y-70433333D01*
X200482285Y-70387161D01*
X200463133Y-70319968D01*
X200483348Y-70253086D01*
X200534725Y-70208569D01*
X200592734Y-70181519D01*
X200779139Y-70050998D01*
X200940047Y-69890090D01*
X201070568Y-69703685D01*
X201166739Y-69497447D01*
X201225635Y-69277643D01*
X201245468Y-69050951D01*
X201225635Y-68824259D01*
X201166739Y-68604455D01*
X201070568Y-68398217D01*
X200940047Y-68211812D01*
X200940045Y-68211809D01*
X200779141Y-68050905D01*
X200592734Y-67920383D01*
X200592728Y-67920380D01*
X200534725Y-67893333D01*
X200482285Y-67847161D01*
X200463133Y-67779968D01*
X200483348Y-67713086D01*
X200534725Y-67668569D01*
X200592734Y-67641519D01*
X200779139Y-67510998D01*
X200940047Y-67350090D01*
X201070568Y-67163685D01*
X201166739Y-66957447D01*
X201225635Y-66737643D01*
X201245468Y-66510951D01*
X201225635Y-66284259D01*
X201166739Y-66064455D01*
X201070568Y-65858217D01*
X200940047Y-65671812D01*
X200940045Y-65671809D01*
X200779141Y-65510905D01*
X200592734Y-65380383D01*
X200592728Y-65380380D01*
X200534725Y-65353333D01*
X200482285Y-65307161D01*
X200463133Y-65239968D01*
X200483348Y-65173086D01*
X200534725Y-65128569D01*
X200592734Y-65101519D01*
X200779139Y-64970998D01*
X200940047Y-64810090D01*
X201070568Y-64623685D01*
X201166739Y-64417447D01*
X201225635Y-64197643D01*
X201245468Y-63970951D01*
X201225635Y-63744259D01*
X201166739Y-63524455D01*
X201070568Y-63318217D01*
X200940047Y-63131812D01*
X200940045Y-63131809D01*
X200779143Y-62970907D01*
X200754536Y-62953677D01*
X200710912Y-62899100D01*
X200703719Y-62829601D01*
X200735241Y-62767247D01*
X200795471Y-62731833D01*
X200812404Y-62728812D01*
X200847483Y-62725042D01*
X200982331Y-62674747D01*
X201097546Y-62588497D01*
X201183796Y-62473282D01*
X201234091Y-62338434D01*
X201240500Y-62278824D01*
X201240499Y-60583079D01*
X201234091Y-60523468D01*
X201199567Y-60430905D01*
X201183797Y-60388622D01*
X201183793Y-60388615D01*
X201097547Y-60273406D01*
X201097544Y-60273403D01*
X200982335Y-60187157D01*
X200982328Y-60187153D01*
X200847482Y-60136859D01*
X200847483Y-60136859D01*
X200787883Y-60130452D01*
X200787881Y-60130451D01*
X200787873Y-60130451D01*
X200787864Y-60130451D01*
X199092129Y-60130451D01*
X199092123Y-60130452D01*
X199032516Y-60136859D01*
X198897671Y-60187153D01*
X198897664Y-60187157D01*
X198782455Y-60273403D01*
X198782452Y-60273406D01*
X198696206Y-60388615D01*
X198696202Y-60388622D01*
X198645908Y-60523468D01*
X198639501Y-60583067D01*
X198639501Y-60583074D01*
X198639500Y-60583086D01*
X198639500Y-62278821D01*
X198639501Y-62278827D01*
X198645908Y-62338434D01*
X198696202Y-62473279D01*
X198696206Y-62473286D01*
X198782452Y-62588495D01*
X198782455Y-62588498D01*
X198897664Y-62674744D01*
X198897671Y-62674748D01*
X198942618Y-62691512D01*
X199032517Y-62725042D01*
X199067596Y-62728813D01*
X199132144Y-62755550D01*
X199171993Y-62812942D01*
X199174488Y-62882767D01*
X199138836Y-62942856D01*
X199125464Y-62953676D01*
X199100858Y-62970905D01*
X198939954Y-63131809D01*
X198809432Y-63318216D01*
X198809431Y-63318218D01*
X198713261Y-63524453D01*
X198713258Y-63524462D01*
X198654366Y-63744253D01*
X198654364Y-63744264D01*
X198634532Y-63970949D01*
X198634532Y-63970952D01*
X198654364Y-64197637D01*
X198654366Y-64197648D01*
X198713258Y-64417439D01*
X198713261Y-64417448D01*
X198809431Y-64623683D01*
X198809432Y-64623685D01*
X198939954Y-64810092D01*
X199100858Y-64970996D01*
X199100861Y-64970998D01*
X199287266Y-65101519D01*
X199345275Y-65128569D01*
X199397714Y-65174742D01*
X199416866Y-65241935D01*
X199396650Y-65308816D01*
X199345275Y-65353333D01*
X199287267Y-65380382D01*
X199287265Y-65380383D01*
X199100858Y-65510905D01*
X198939954Y-65671809D01*
X198809432Y-65858216D01*
X198809431Y-65858218D01*
X198713261Y-66064453D01*
X198713258Y-66064462D01*
X198654366Y-66284253D01*
X198654364Y-66284264D01*
X198634532Y-66510949D01*
X198634532Y-66510952D01*
X198654364Y-66737637D01*
X198654366Y-66737648D01*
X198713258Y-66957439D01*
X198713261Y-66957448D01*
X198809431Y-67163683D01*
X198809432Y-67163685D01*
X198939954Y-67350092D01*
X199100858Y-67510996D01*
X199100861Y-67510998D01*
X199287266Y-67641519D01*
X199345275Y-67668569D01*
X199397714Y-67714742D01*
X199416866Y-67781935D01*
X199396650Y-67848816D01*
X199345275Y-67893333D01*
X199287267Y-67920382D01*
X199287265Y-67920383D01*
X199100858Y-68050905D01*
X198939954Y-68211809D01*
X198809432Y-68398216D01*
X198809431Y-68398218D01*
X198713261Y-68604453D01*
X198713258Y-68604462D01*
X198654366Y-68824253D01*
X198654364Y-68824264D01*
X198634532Y-69050949D01*
X198634532Y-69050952D01*
X198654364Y-69277637D01*
X198654366Y-69277648D01*
X198713258Y-69497439D01*
X198713261Y-69497448D01*
X198809431Y-69703683D01*
X198809432Y-69703685D01*
X198939954Y-69890092D01*
X199100858Y-70050996D01*
X199100861Y-70050998D01*
X199287266Y-70181519D01*
X199345275Y-70208569D01*
X199397714Y-70254742D01*
X199416866Y-70321935D01*
X199396650Y-70388816D01*
X199345275Y-70433333D01*
X199287267Y-70460382D01*
X199287265Y-70460383D01*
X199100858Y-70590905D01*
X198939954Y-70751809D01*
X198809432Y-70938216D01*
X198809431Y-70938218D01*
X198713261Y-71144453D01*
X198713258Y-71144462D01*
X198654366Y-71364253D01*
X198654364Y-71364264D01*
X198634532Y-71590949D01*
X198634532Y-71590952D01*
X198654364Y-71817637D01*
X198654366Y-71817648D01*
X198713258Y-72037439D01*
X198713261Y-72037448D01*
X198809431Y-72243683D01*
X198809432Y-72243685D01*
X198939954Y-72430092D01*
X199100858Y-72590996D01*
X199100861Y-72590998D01*
X199287266Y-72721519D01*
X199345275Y-72748569D01*
X199397714Y-72794742D01*
X199416866Y-72861935D01*
X199396650Y-72928816D01*
X199345275Y-72973333D01*
X199287267Y-73000382D01*
X199287265Y-73000383D01*
X199100858Y-73130905D01*
X198939954Y-73291809D01*
X198809432Y-73478216D01*
X198809431Y-73478218D01*
X198713261Y-73684453D01*
X198713258Y-73684462D01*
X198654366Y-73904253D01*
X198654364Y-73904264D01*
X198634532Y-74130949D01*
X198634532Y-74130952D01*
X194885468Y-74130952D01*
X194885468Y-74130951D01*
X194865635Y-73904259D01*
X194806739Y-73684455D01*
X194710568Y-73478217D01*
X194580047Y-73291812D01*
X194580045Y-73291809D01*
X194419141Y-73130905D01*
X194232734Y-73000383D01*
X194232728Y-73000380D01*
X194174725Y-72973333D01*
X194122285Y-72927161D01*
X194103133Y-72859968D01*
X194123348Y-72793086D01*
X194174725Y-72748569D01*
X194232734Y-72721519D01*
X194419139Y-72590998D01*
X194580047Y-72430090D01*
X194710568Y-72243685D01*
X194806739Y-72037447D01*
X194865635Y-71817643D01*
X194885468Y-71590951D01*
X194865635Y-71364259D01*
X194806739Y-71144455D01*
X194710568Y-70938217D01*
X194580047Y-70751812D01*
X194580045Y-70751809D01*
X194419141Y-70590905D01*
X194232734Y-70460383D01*
X194232728Y-70460380D01*
X194174725Y-70433333D01*
X194122285Y-70387161D01*
X194103133Y-70319968D01*
X194123348Y-70253086D01*
X194174725Y-70208569D01*
X194232734Y-70181519D01*
X194419139Y-70050998D01*
X194580047Y-69890090D01*
X194710568Y-69703685D01*
X194806739Y-69497447D01*
X194865635Y-69277643D01*
X194885468Y-69050951D01*
X194865635Y-68824259D01*
X194806739Y-68604455D01*
X194710568Y-68398217D01*
X194580047Y-68211812D01*
X194580045Y-68211809D01*
X194419141Y-68050905D01*
X194232734Y-67920383D01*
X194232728Y-67920380D01*
X194174725Y-67893333D01*
X194122285Y-67847161D01*
X194103133Y-67779968D01*
X194123348Y-67713086D01*
X194174725Y-67668569D01*
X194232734Y-67641519D01*
X194419139Y-67510998D01*
X194580047Y-67350090D01*
X194710568Y-67163685D01*
X194806739Y-66957447D01*
X194865635Y-66737643D01*
X194885468Y-66510951D01*
X194865635Y-66284259D01*
X194806739Y-66064455D01*
X194710568Y-65858217D01*
X194580047Y-65671812D01*
X194580045Y-65671809D01*
X194419141Y-65510905D01*
X194232734Y-65380383D01*
X194232728Y-65380380D01*
X194174725Y-65353333D01*
X194122285Y-65307161D01*
X194103133Y-65239968D01*
X194123348Y-65173086D01*
X194174725Y-65128569D01*
X194232734Y-65101519D01*
X194419139Y-64970998D01*
X194580047Y-64810090D01*
X194710568Y-64623685D01*
X194806739Y-64417447D01*
X194865635Y-64197643D01*
X194885468Y-63970951D01*
X194865635Y-63744259D01*
X194806739Y-63524455D01*
X194710568Y-63318217D01*
X194580047Y-63131812D01*
X194580045Y-63131809D01*
X194419141Y-62970905D01*
X194232734Y-62840383D01*
X194232728Y-62840380D01*
X194174725Y-62813333D01*
X194122285Y-62767161D01*
X194103133Y-62699968D01*
X194123348Y-62633086D01*
X194174725Y-62588569D01*
X194232734Y-62561519D01*
X194419139Y-62430998D01*
X194580047Y-62270090D01*
X194710568Y-62083685D01*
X194806739Y-61877447D01*
X194865635Y-61657643D01*
X194885468Y-61430951D01*
X194883823Y-61412153D01*
X194865635Y-61204264D01*
X194865635Y-61204259D01*
X194806739Y-60984455D01*
X194710568Y-60778217D01*
X194580047Y-60591812D01*
X194580045Y-60591809D01*
X194419141Y-60430905D01*
X194232734Y-60300383D01*
X194232732Y-60300382D01*
X194026497Y-60204212D01*
X194026488Y-60204209D01*
X193806697Y-60145317D01*
X193806693Y-60145316D01*
X193806692Y-60145316D01*
X193806691Y-60145315D01*
X193806686Y-60145315D01*
X193580002Y-60125483D01*
X193579998Y-60125483D01*
X193353313Y-60145315D01*
X193353302Y-60145317D01*
X193133511Y-60204209D01*
X193133502Y-60204212D01*
X192927267Y-60300382D01*
X192927265Y-60300383D01*
X192740858Y-60430905D01*
X192579954Y-60591809D01*
X192449432Y-60778216D01*
X192449431Y-60778218D01*
X192353261Y-60984453D01*
X192353258Y-60984462D01*
X192294366Y-61204253D01*
X192294364Y-61204264D01*
X192274532Y-61430949D01*
X192274532Y-61430952D01*
X192294364Y-61657637D01*
X192294366Y-61657648D01*
X192353258Y-61877439D01*
X192353261Y-61877448D01*
X192449431Y-62083683D01*
X192449432Y-62083685D01*
X192579954Y-62270092D01*
X192740858Y-62430996D01*
X192740861Y-62430998D01*
X192927266Y-62561519D01*
X192985275Y-62588569D01*
X193037714Y-62634742D01*
X193056866Y-62701935D01*
X193036650Y-62768816D01*
X192985275Y-62813333D01*
X192927267Y-62840382D01*
X192927265Y-62840383D01*
X192740858Y-62970905D01*
X192579954Y-63131809D01*
X192449432Y-63318216D01*
X192449431Y-63318218D01*
X192353261Y-63524453D01*
X192353258Y-63524462D01*
X192294366Y-63744253D01*
X192294364Y-63744264D01*
X192274532Y-63970949D01*
X192274532Y-63970952D01*
X192294364Y-64197637D01*
X192294366Y-64197648D01*
X192353258Y-64417439D01*
X192353261Y-64417448D01*
X192449431Y-64623683D01*
X192449432Y-64623685D01*
X192579954Y-64810092D01*
X192740858Y-64970996D01*
X192740861Y-64970998D01*
X192927266Y-65101519D01*
X192985275Y-65128569D01*
X193037714Y-65174742D01*
X193056866Y-65241935D01*
X193036650Y-65308816D01*
X192985275Y-65353333D01*
X192927267Y-65380382D01*
X192927265Y-65380383D01*
X192740858Y-65510905D01*
X192579954Y-65671809D01*
X192449432Y-65858216D01*
X192449431Y-65858218D01*
X192353261Y-66064453D01*
X192353258Y-66064462D01*
X192294366Y-66284253D01*
X192294364Y-66284264D01*
X192274532Y-66510949D01*
X192274532Y-66510952D01*
X192294364Y-66737637D01*
X192294366Y-66737648D01*
X192353258Y-66957439D01*
X192353261Y-66957448D01*
X192449431Y-67163683D01*
X192449432Y-67163685D01*
X192579954Y-67350092D01*
X192740858Y-67510996D01*
X192740861Y-67510998D01*
X192927266Y-67641519D01*
X192985275Y-67668569D01*
X193037714Y-67714742D01*
X193056866Y-67781935D01*
X193036650Y-67848816D01*
X192985275Y-67893333D01*
X192927267Y-67920382D01*
X192927265Y-67920383D01*
X192740858Y-68050905D01*
X192579954Y-68211809D01*
X192449432Y-68398216D01*
X192449431Y-68398218D01*
X192353261Y-68604453D01*
X192353258Y-68604462D01*
X192294366Y-68824253D01*
X192294364Y-68824264D01*
X192274532Y-69050949D01*
X192274532Y-69050952D01*
X192294364Y-69277637D01*
X192294366Y-69277648D01*
X192353258Y-69497439D01*
X192353261Y-69497448D01*
X192449431Y-69703683D01*
X192449432Y-69703685D01*
X192579954Y-69890092D01*
X192740858Y-70050996D01*
X192740861Y-70050998D01*
X192927266Y-70181519D01*
X192985275Y-70208569D01*
X193037714Y-70254742D01*
X193056866Y-70321935D01*
X193036650Y-70388816D01*
X192985275Y-70433333D01*
X192927267Y-70460382D01*
X192927265Y-70460383D01*
X192740858Y-70590905D01*
X192579954Y-70751809D01*
X192449432Y-70938216D01*
X192449431Y-70938218D01*
X192353261Y-71144453D01*
X192353258Y-71144462D01*
X192294366Y-71364253D01*
X192294364Y-71364264D01*
X192274532Y-71590949D01*
X192274532Y-71590952D01*
X192294364Y-71817637D01*
X192294366Y-71817648D01*
X192353258Y-72037439D01*
X192353261Y-72037448D01*
X192449431Y-72243683D01*
X192449432Y-72243685D01*
X192579954Y-72430092D01*
X192740858Y-72590996D01*
X192740861Y-72590998D01*
X192927266Y-72721519D01*
X192985275Y-72748569D01*
X193037714Y-72794742D01*
X193056866Y-72861935D01*
X193036650Y-72928816D01*
X192985275Y-72973333D01*
X192927267Y-73000382D01*
X192927265Y-73000383D01*
X192740858Y-73130905D01*
X192579954Y-73291809D01*
X192449432Y-73478216D01*
X192449431Y-73478218D01*
X192353261Y-73684453D01*
X192353258Y-73684462D01*
X192294366Y-73904253D01*
X192294364Y-73904264D01*
X192274532Y-74130949D01*
X192274532Y-74130952D01*
X192294364Y-74357637D01*
X192294366Y-74357648D01*
X192353258Y-74577439D01*
X192353261Y-74577448D01*
X192449431Y-74783683D01*
X192449432Y-74783685D01*
X192579954Y-74970092D01*
X192740858Y-75130996D01*
X192740861Y-75130998D01*
X192927266Y-75261519D01*
X192985275Y-75288569D01*
X193037714Y-75334742D01*
X193056866Y-75401935D01*
X193036650Y-75468816D01*
X192985275Y-75513333D01*
X192927267Y-75540382D01*
X192927265Y-75540383D01*
X192740858Y-75670905D01*
X192579954Y-75831809D01*
X192449432Y-76018216D01*
X192449431Y-76018218D01*
X192353261Y-76224453D01*
X192353258Y-76224462D01*
X192294366Y-76444253D01*
X192294364Y-76444264D01*
X192274532Y-76670949D01*
X192274532Y-76670952D01*
X186364986Y-76670952D01*
X186364986Y-76670951D01*
X186345165Y-76545803D01*
X186287641Y-76432906D01*
X186275686Y-76420951D01*
X187238872Y-76420951D01*
X187238872Y-76420950D01*
X187186269Y-76224633D01*
X187186265Y-76224624D01*
X187090134Y-76018468D01*
X186959657Y-75832130D01*
X186798820Y-75671293D01*
X186612482Y-75540816D01*
X186554133Y-75513608D01*
X186501694Y-75467435D01*
X186482542Y-75400242D01*
X186502758Y-75333361D01*
X186554129Y-75288846D01*
X186612734Y-75261519D01*
X186799139Y-75130998D01*
X186960047Y-74970090D01*
X187090568Y-74783685D01*
X187186739Y-74577447D01*
X187245635Y-74357643D01*
X187265468Y-74130951D01*
X187245635Y-73904259D01*
X187186739Y-73684455D01*
X187090568Y-73478217D01*
X186960047Y-73291812D01*
X186960045Y-73291809D01*
X186799141Y-73130905D01*
X186612734Y-73000383D01*
X186612728Y-73000380D01*
X186554725Y-72973333D01*
X186502285Y-72927161D01*
X186483133Y-72859968D01*
X186503348Y-72793086D01*
X186554725Y-72748569D01*
X186612734Y-72721519D01*
X186799139Y-72590998D01*
X186960047Y-72430090D01*
X187090568Y-72243685D01*
X187186739Y-72037447D01*
X187245635Y-71817643D01*
X187265468Y-71590951D01*
X187245635Y-71364259D01*
X187186739Y-71144455D01*
X187090568Y-70938217D01*
X186960047Y-70751812D01*
X186960045Y-70751809D01*
X186799141Y-70590905D01*
X186612734Y-70460383D01*
X186612728Y-70460380D01*
X186554725Y-70433333D01*
X186502285Y-70387161D01*
X186483133Y-70319968D01*
X186503348Y-70253086D01*
X186554725Y-70208569D01*
X186612734Y-70181519D01*
X186799139Y-70050998D01*
X186960047Y-69890090D01*
X187090568Y-69703685D01*
X187186739Y-69497447D01*
X187245635Y-69277643D01*
X187265468Y-69050951D01*
X187245635Y-68824259D01*
X187186739Y-68604455D01*
X187090568Y-68398217D01*
X186960047Y-68211812D01*
X186960045Y-68211809D01*
X186799141Y-68050905D01*
X186612734Y-67920383D01*
X186612728Y-67920380D01*
X186554725Y-67893333D01*
X186502285Y-67847161D01*
X186483133Y-67779968D01*
X186503348Y-67713086D01*
X186554725Y-67668569D01*
X186612734Y-67641519D01*
X186799139Y-67510998D01*
X186960047Y-67350090D01*
X187090568Y-67163685D01*
X187186739Y-66957447D01*
X187245635Y-66737643D01*
X187265468Y-66510951D01*
X187245635Y-66284259D01*
X187186739Y-66064455D01*
X187090568Y-65858217D01*
X186960047Y-65671812D01*
X186960045Y-65671809D01*
X186799141Y-65510905D01*
X186612734Y-65380383D01*
X186612728Y-65380380D01*
X186554725Y-65353333D01*
X186502285Y-65307161D01*
X186483133Y-65239968D01*
X186503348Y-65173086D01*
X186554725Y-65128569D01*
X186612734Y-65101519D01*
X186799139Y-64970998D01*
X186960047Y-64810090D01*
X187090568Y-64623685D01*
X187186739Y-64417447D01*
X187245635Y-64197643D01*
X187265468Y-63970951D01*
X187245635Y-63744259D01*
X187186739Y-63524455D01*
X187090568Y-63318217D01*
X186960047Y-63131812D01*
X186960045Y-63131809D01*
X186799143Y-62970907D01*
X186774536Y-62953677D01*
X186730912Y-62899100D01*
X186723719Y-62829601D01*
X186755241Y-62767247D01*
X186815471Y-62731833D01*
X186832404Y-62728812D01*
X186867483Y-62725042D01*
X187002331Y-62674747D01*
X187117546Y-62588497D01*
X187203796Y-62473282D01*
X187254091Y-62338434D01*
X187260500Y-62278824D01*
X187260499Y-60583079D01*
X187254091Y-60523468D01*
X187219567Y-60430905D01*
X187203797Y-60388622D01*
X187203793Y-60388615D01*
X187117547Y-60273406D01*
X187117544Y-60273403D01*
X187002335Y-60187157D01*
X187002328Y-60187153D01*
X186867482Y-60136859D01*
X186867483Y-60136859D01*
X186807883Y-60130452D01*
X186807881Y-60130451D01*
X186807873Y-60130451D01*
X186807864Y-60130451D01*
X185112129Y-60130451D01*
X185112123Y-60130452D01*
X185052516Y-60136859D01*
X184917671Y-60187153D01*
X184917664Y-60187157D01*
X184802455Y-60273403D01*
X184802452Y-60273406D01*
X184716206Y-60388615D01*
X184716202Y-60388622D01*
X184665908Y-60523468D01*
X184659501Y-60583067D01*
X184659501Y-60583074D01*
X184659500Y-60583086D01*
X184659500Y-62278821D01*
X184659501Y-62278827D01*
X184665908Y-62338434D01*
X184716202Y-62473279D01*
X184716206Y-62473286D01*
X184802452Y-62588495D01*
X184802455Y-62588498D01*
X184917664Y-62674744D01*
X184917671Y-62674748D01*
X184962618Y-62691512D01*
X185052517Y-62725042D01*
X185087596Y-62728813D01*
X185152144Y-62755550D01*
X185191993Y-62812942D01*
X185194488Y-62882767D01*
X185158836Y-62942856D01*
X185145464Y-62953676D01*
X185120858Y-62970905D01*
X184959954Y-63131809D01*
X184829432Y-63318216D01*
X184829431Y-63318218D01*
X184733261Y-63524453D01*
X184733258Y-63524462D01*
X184674366Y-63744253D01*
X184674364Y-63744264D01*
X184654532Y-63970949D01*
X184654532Y-63970952D01*
X184674364Y-64197637D01*
X184674366Y-64197648D01*
X184733258Y-64417439D01*
X184733261Y-64417448D01*
X184829431Y-64623683D01*
X184829432Y-64623685D01*
X184959954Y-64810092D01*
X185120858Y-64970996D01*
X185120861Y-64970998D01*
X185307266Y-65101519D01*
X185365275Y-65128569D01*
X185417714Y-65174742D01*
X185436866Y-65241935D01*
X185416650Y-65308816D01*
X185365275Y-65353333D01*
X185307267Y-65380382D01*
X185307265Y-65380383D01*
X185120858Y-65510905D01*
X184959954Y-65671809D01*
X184829432Y-65858216D01*
X184829431Y-65858218D01*
X184733261Y-66064453D01*
X184733258Y-66064462D01*
X184674366Y-66284253D01*
X184674364Y-66284264D01*
X184654532Y-66510949D01*
X184654532Y-66510952D01*
X184674364Y-66737637D01*
X184674366Y-66737648D01*
X184733258Y-66957439D01*
X184733261Y-66957448D01*
X184829431Y-67163683D01*
X184829432Y-67163685D01*
X184959954Y-67350092D01*
X185120858Y-67510996D01*
X185120861Y-67510998D01*
X185307266Y-67641519D01*
X185365275Y-67668569D01*
X185417714Y-67714742D01*
X185436866Y-67781935D01*
X185416650Y-67848816D01*
X185365275Y-67893333D01*
X185307267Y-67920382D01*
X185307265Y-67920383D01*
X185120858Y-68050905D01*
X184959954Y-68211809D01*
X184829432Y-68398216D01*
X184829431Y-68398218D01*
X184733261Y-68604453D01*
X184733258Y-68604462D01*
X184674366Y-68824253D01*
X184674364Y-68824264D01*
X184654532Y-69050949D01*
X184654532Y-69050952D01*
X184674364Y-69277637D01*
X184674366Y-69277648D01*
X184733258Y-69497439D01*
X184733261Y-69497448D01*
X184829431Y-69703683D01*
X184829432Y-69703685D01*
X184959954Y-69890092D01*
X185120858Y-70050996D01*
X185120861Y-70050998D01*
X185307266Y-70181519D01*
X185365275Y-70208569D01*
X185417714Y-70254742D01*
X185436866Y-70321935D01*
X185416650Y-70388816D01*
X185365275Y-70433333D01*
X185307267Y-70460382D01*
X185307265Y-70460383D01*
X185120858Y-70590905D01*
X184959954Y-70751809D01*
X184829432Y-70938216D01*
X184829431Y-70938218D01*
X184733261Y-71144453D01*
X184733258Y-71144462D01*
X184674366Y-71364253D01*
X184674364Y-71364264D01*
X184654532Y-71590949D01*
X184654532Y-71590952D01*
X184674364Y-71817637D01*
X184674366Y-71817648D01*
X184733258Y-72037439D01*
X184733261Y-72037448D01*
X184829431Y-72243683D01*
X184829432Y-72243685D01*
X184959954Y-72430092D01*
X185120858Y-72590996D01*
X185120861Y-72590998D01*
X185307266Y-72721519D01*
X185365275Y-72748569D01*
X185417714Y-72794742D01*
X185436866Y-72861935D01*
X185416650Y-72928816D01*
X185365275Y-72973333D01*
X185307267Y-73000382D01*
X185307265Y-73000383D01*
X185120858Y-73130905D01*
X184959954Y-73291809D01*
X184829432Y-73478216D01*
X184829431Y-73478218D01*
X184733261Y-73684453D01*
X184733258Y-73684462D01*
X184674366Y-73904253D01*
X184674364Y-73904264D01*
X184654532Y-74130949D01*
X184654532Y-74130952D01*
X83725500Y-74130952D01*
X83725500Y-63603821D01*
X120474500Y-63603821D01*
X120474501Y-63603827D01*
X120480908Y-63663434D01*
X120531202Y-63798279D01*
X120531206Y-63798286D01*
X120617452Y-63913495D01*
X120617455Y-63913498D01*
X120732664Y-63999744D01*
X120732671Y-63999748D01*
X120867517Y-64050042D01*
X120867516Y-64050042D01*
X120874444Y-64050786D01*
X120927127Y-64056451D01*
X122722872Y-64056450D01*
X122782483Y-64050042D01*
X122917331Y-63999747D01*
X123032546Y-63913497D01*
X123118796Y-63798282D01*
X123168002Y-63666352D01*
X123209872Y-63610419D01*
X123275337Y-63586001D01*
X123343610Y-63600852D01*
X123371865Y-63622004D01*
X123493917Y-63744056D01*
X123687421Y-63879551D01*
X123901507Y-63979380D01*
X123901516Y-63979384D01*
X124115000Y-64036585D01*
X124115000Y-63141452D01*
X124222685Y-63190631D01*
X124329237Y-63205951D01*
X124400763Y-63205951D01*
X124507315Y-63190631D01*
X124615000Y-63141452D01*
X124615000Y-64036584D01*
X124828483Y-63979384D01*
X124828492Y-63979380D01*
X125042578Y-63879551D01*
X125236082Y-63744056D01*
X125403105Y-63577033D01*
X125533119Y-63391356D01*
X125587696Y-63347732D01*
X125657195Y-63340539D01*
X125719549Y-63372061D01*
X125736269Y-63391356D01*
X125866505Y-63577352D01*
X126033599Y-63744446D01*
X126130384Y-63812216D01*
X126227165Y-63879983D01*
X126227167Y-63879984D01*
X126227170Y-63879986D01*
X126441337Y-63979854D01*
X126669592Y-64041014D01*
X126846034Y-64056451D01*
X126904999Y-64061610D01*
X126905000Y-64061610D01*
X126905001Y-64061610D01*
X126963966Y-64056451D01*
X127140408Y-64041014D01*
X127368663Y-63979854D01*
X127582830Y-63879986D01*
X127776401Y-63744446D01*
X127943495Y-63577352D01*
X128073425Y-63391793D01*
X128128002Y-63348168D01*
X128197500Y-63340974D01*
X128259855Y-63372497D01*
X128276575Y-63391793D01*
X128406500Y-63577346D01*
X128406505Y-63577352D01*
X128573599Y-63744446D01*
X128670384Y-63812216D01*
X128767165Y-63879983D01*
X128767167Y-63879984D01*
X128767170Y-63879986D01*
X128981337Y-63979854D01*
X129209592Y-64041014D01*
X129386034Y-64056451D01*
X129444999Y-64061610D01*
X129445000Y-64061610D01*
X129445001Y-64061610D01*
X129503966Y-64056451D01*
X129680408Y-64041014D01*
X129908663Y-63979854D01*
X130122830Y-63879986D01*
X130316401Y-63744446D01*
X130483495Y-63577352D01*
X130613425Y-63391793D01*
X130668002Y-63348168D01*
X130737500Y-63340974D01*
X130799855Y-63372497D01*
X130816575Y-63391793D01*
X130946500Y-63577346D01*
X130946505Y-63577352D01*
X131113599Y-63744446D01*
X131210384Y-63812216D01*
X131307165Y-63879983D01*
X131307167Y-63879984D01*
X131307170Y-63879986D01*
X131521337Y-63979854D01*
X131749592Y-64041014D01*
X131926034Y-64056451D01*
X131984999Y-64061610D01*
X131985000Y-64061610D01*
X131985001Y-64061610D01*
X132043966Y-64056451D01*
X132220408Y-64041014D01*
X132448663Y-63979854D01*
X132662830Y-63879986D01*
X132856401Y-63744446D01*
X133023495Y-63577352D01*
X133153425Y-63391793D01*
X133208002Y-63348168D01*
X133277500Y-63340974D01*
X133339855Y-63372497D01*
X133356575Y-63391793D01*
X133486500Y-63577346D01*
X133486505Y-63577352D01*
X133653599Y-63744446D01*
X133750384Y-63812216D01*
X133847165Y-63879983D01*
X133847167Y-63879984D01*
X133847170Y-63879986D01*
X134061337Y-63979854D01*
X134289592Y-64041014D01*
X134466034Y-64056451D01*
X134524999Y-64061610D01*
X134525000Y-64061610D01*
X134525001Y-64061610D01*
X134583966Y-64056451D01*
X134760408Y-64041014D01*
X134988663Y-63979854D01*
X135202830Y-63879986D01*
X135396401Y-63744446D01*
X135563495Y-63577352D01*
X135693425Y-63391793D01*
X135748002Y-63348168D01*
X135817500Y-63340974D01*
X135879855Y-63372497D01*
X135896575Y-63391793D01*
X136026500Y-63577346D01*
X136026505Y-63577352D01*
X136193599Y-63744446D01*
X136290384Y-63812216D01*
X136387165Y-63879983D01*
X136387167Y-63879984D01*
X136387170Y-63879986D01*
X136601337Y-63979854D01*
X136829592Y-64041014D01*
X137006034Y-64056451D01*
X137064999Y-64061610D01*
X137065000Y-64061610D01*
X137065001Y-64061610D01*
X137123966Y-64056451D01*
X137300408Y-64041014D01*
X137528663Y-63979854D01*
X137742830Y-63879986D01*
X137936401Y-63744446D01*
X138103495Y-63577352D01*
X138233425Y-63391793D01*
X138288002Y-63348168D01*
X138357500Y-63340974D01*
X138419855Y-63372497D01*
X138436575Y-63391793D01*
X138566500Y-63577346D01*
X138566505Y-63577352D01*
X138733599Y-63744446D01*
X138830384Y-63812216D01*
X138927165Y-63879983D01*
X138927167Y-63879984D01*
X138927170Y-63879986D01*
X139141337Y-63979854D01*
X139369592Y-64041014D01*
X139546034Y-64056451D01*
X139604999Y-64061610D01*
X139605000Y-64061610D01*
X139605001Y-64061610D01*
X139663966Y-64056451D01*
X139840408Y-64041014D01*
X140068663Y-63979854D01*
X140282830Y-63879986D01*
X140476401Y-63744446D01*
X140643495Y-63577352D01*
X140773425Y-63391793D01*
X140828002Y-63348168D01*
X140897500Y-63340974D01*
X140959855Y-63372497D01*
X140976575Y-63391793D01*
X141106500Y-63577346D01*
X141106505Y-63577352D01*
X141273599Y-63744446D01*
X141370384Y-63812216D01*
X141467165Y-63879983D01*
X141467167Y-63879984D01*
X141467170Y-63879986D01*
X141681337Y-63979854D01*
X141909592Y-64041014D01*
X142086034Y-64056451D01*
X142144999Y-64061610D01*
X142145000Y-64061610D01*
X142145001Y-64061610D01*
X142203966Y-64056451D01*
X142380408Y-64041014D01*
X142608663Y-63979854D01*
X142822830Y-63879986D01*
X143016401Y-63744446D01*
X143183495Y-63577352D01*
X143313425Y-63391793D01*
X143368002Y-63348168D01*
X143437500Y-63340974D01*
X143499855Y-63372497D01*
X143516575Y-63391793D01*
X143646500Y-63577346D01*
X143646505Y-63577352D01*
X143813599Y-63744446D01*
X143910384Y-63812216D01*
X144007165Y-63879983D01*
X144007167Y-63879984D01*
X144007170Y-63879986D01*
X144221337Y-63979854D01*
X144449592Y-64041014D01*
X144626034Y-64056451D01*
X144684999Y-64061610D01*
X144685000Y-64061610D01*
X144685001Y-64061610D01*
X144743966Y-64056451D01*
X144920408Y-64041014D01*
X145148663Y-63979854D01*
X145362830Y-63879986D01*
X145556401Y-63744446D01*
X145723495Y-63577352D01*
X145853425Y-63391793D01*
X145908002Y-63348168D01*
X145977500Y-63340974D01*
X146039855Y-63372497D01*
X146056575Y-63391793D01*
X146186500Y-63577346D01*
X146186505Y-63577352D01*
X146353599Y-63744446D01*
X146450384Y-63812216D01*
X146547165Y-63879983D01*
X146547167Y-63879984D01*
X146547170Y-63879986D01*
X146761337Y-63979854D01*
X146989592Y-64041014D01*
X147166034Y-64056451D01*
X147224999Y-64061610D01*
X147225000Y-64061610D01*
X147225001Y-64061610D01*
X147283966Y-64056451D01*
X147460408Y-64041014D01*
X147688663Y-63979854D01*
X147902830Y-63879986D01*
X148096401Y-63744446D01*
X148263495Y-63577352D01*
X148393425Y-63391793D01*
X148448002Y-63348168D01*
X148517500Y-63340974D01*
X148579855Y-63372497D01*
X148596575Y-63391793D01*
X148726500Y-63577346D01*
X148726505Y-63577352D01*
X148893599Y-63744446D01*
X148990384Y-63812216D01*
X149087165Y-63879983D01*
X149087167Y-63879984D01*
X149087170Y-63879986D01*
X149301337Y-63979854D01*
X149529592Y-64041014D01*
X149706034Y-64056451D01*
X149764999Y-64061610D01*
X149765000Y-64061610D01*
X149765001Y-64061610D01*
X149823966Y-64056451D01*
X150000408Y-64041014D01*
X150228663Y-63979854D01*
X150442830Y-63879986D01*
X150636401Y-63744446D01*
X150803495Y-63577352D01*
X150933425Y-63391793D01*
X150988002Y-63348168D01*
X151057500Y-63340974D01*
X151119855Y-63372497D01*
X151136575Y-63391793D01*
X151266500Y-63577346D01*
X151266505Y-63577352D01*
X151433599Y-63744446D01*
X151530384Y-63812216D01*
X151627165Y-63879983D01*
X151627167Y-63879984D01*
X151627170Y-63879986D01*
X151841337Y-63979854D01*
X152069592Y-64041014D01*
X152246034Y-64056451D01*
X152304999Y-64061610D01*
X152305000Y-64061610D01*
X152305001Y-64061610D01*
X152363966Y-64056451D01*
X152540408Y-64041014D01*
X152768663Y-63979854D01*
X152982830Y-63879986D01*
X153176401Y-63744446D01*
X153343495Y-63577352D01*
X153473425Y-63391793D01*
X153528002Y-63348168D01*
X153597500Y-63340974D01*
X153659855Y-63372497D01*
X153676575Y-63391793D01*
X153806500Y-63577346D01*
X153806505Y-63577352D01*
X153973599Y-63744446D01*
X154070384Y-63812216D01*
X154167165Y-63879983D01*
X154167167Y-63879984D01*
X154167170Y-63879986D01*
X154381337Y-63979854D01*
X154609592Y-64041014D01*
X154786034Y-64056451D01*
X154844999Y-64061610D01*
X154845000Y-64061610D01*
X154845001Y-64061610D01*
X154903966Y-64056451D01*
X155080408Y-64041014D01*
X155308663Y-63979854D01*
X155522830Y-63879986D01*
X155716401Y-63744446D01*
X155883495Y-63577352D01*
X156013425Y-63391793D01*
X156068002Y-63348168D01*
X156137500Y-63340974D01*
X156199855Y-63372497D01*
X156216575Y-63391793D01*
X156346500Y-63577346D01*
X156346505Y-63577352D01*
X156513599Y-63744446D01*
X156610384Y-63812216D01*
X156707165Y-63879983D01*
X156707167Y-63879984D01*
X156707170Y-63879986D01*
X156921337Y-63979854D01*
X157149592Y-64041014D01*
X157326034Y-64056451D01*
X157384999Y-64061610D01*
X157385000Y-64061610D01*
X157385001Y-64061610D01*
X157443966Y-64056451D01*
X157620408Y-64041014D01*
X157848663Y-63979854D01*
X158062830Y-63879986D01*
X158256401Y-63744446D01*
X158423495Y-63577352D01*
X158553425Y-63391793D01*
X158608002Y-63348168D01*
X158677500Y-63340974D01*
X158739855Y-63372497D01*
X158756575Y-63391793D01*
X158886500Y-63577346D01*
X158886505Y-63577352D01*
X159053599Y-63744446D01*
X159150384Y-63812216D01*
X159247165Y-63879983D01*
X159247167Y-63879984D01*
X159247170Y-63879986D01*
X159461337Y-63979854D01*
X159689592Y-64041014D01*
X159866034Y-64056451D01*
X159924999Y-64061610D01*
X159925000Y-64061610D01*
X159925001Y-64061610D01*
X159983966Y-64056451D01*
X160160408Y-64041014D01*
X160388663Y-63979854D01*
X160602830Y-63879986D01*
X160796401Y-63744446D01*
X160963495Y-63577352D01*
X161093425Y-63391793D01*
X161148002Y-63348168D01*
X161217500Y-63340974D01*
X161279855Y-63372497D01*
X161296575Y-63391793D01*
X161426500Y-63577346D01*
X161426505Y-63577352D01*
X161593599Y-63744446D01*
X161690384Y-63812216D01*
X161787165Y-63879983D01*
X161787167Y-63879984D01*
X161787170Y-63879986D01*
X162001337Y-63979854D01*
X162229592Y-64041014D01*
X162406034Y-64056451D01*
X162464999Y-64061610D01*
X162465000Y-64061610D01*
X162465001Y-64061610D01*
X162523966Y-64056451D01*
X162700408Y-64041014D01*
X162928663Y-63979854D01*
X163142830Y-63879986D01*
X163336401Y-63744446D01*
X163503495Y-63577352D01*
X163633425Y-63391793D01*
X163688002Y-63348168D01*
X163757500Y-63340974D01*
X163819855Y-63372497D01*
X163836575Y-63391793D01*
X163966500Y-63577346D01*
X163966505Y-63577352D01*
X164133599Y-63744446D01*
X164230384Y-63812216D01*
X164327165Y-63879983D01*
X164327167Y-63879984D01*
X164327170Y-63879986D01*
X164541337Y-63979854D01*
X164769592Y-64041014D01*
X164946034Y-64056451D01*
X165004999Y-64061610D01*
X165005000Y-64061610D01*
X165005001Y-64061610D01*
X165063966Y-64056451D01*
X165240408Y-64041014D01*
X165468663Y-63979854D01*
X165682830Y-63879986D01*
X165876401Y-63744446D01*
X166043495Y-63577352D01*
X166173425Y-63391793D01*
X166228002Y-63348168D01*
X166297500Y-63340974D01*
X166359855Y-63372497D01*
X166376575Y-63391793D01*
X166506500Y-63577346D01*
X166506505Y-63577352D01*
X166673599Y-63744446D01*
X166770384Y-63812216D01*
X166867165Y-63879983D01*
X166867167Y-63879984D01*
X166867170Y-63879986D01*
X167081337Y-63979854D01*
X167309592Y-64041014D01*
X167486034Y-64056451D01*
X167544999Y-64061610D01*
X167545000Y-64061610D01*
X167545001Y-64061610D01*
X167603966Y-64056451D01*
X167780408Y-64041014D01*
X168008663Y-63979854D01*
X168222830Y-63879986D01*
X168416401Y-63744446D01*
X168583495Y-63577352D01*
X168713425Y-63391793D01*
X168768002Y-63348168D01*
X168837500Y-63340974D01*
X168899855Y-63372497D01*
X168916575Y-63391793D01*
X169046500Y-63577346D01*
X169046505Y-63577352D01*
X169213599Y-63744446D01*
X169310384Y-63812216D01*
X169407165Y-63879983D01*
X169407167Y-63879984D01*
X169407170Y-63879986D01*
X169621337Y-63979854D01*
X169849592Y-64041014D01*
X170026034Y-64056451D01*
X170084999Y-64061610D01*
X170085000Y-64061610D01*
X170085001Y-64061610D01*
X170143966Y-64056451D01*
X170320408Y-64041014D01*
X170548663Y-63979854D01*
X170762830Y-63879986D01*
X170956401Y-63744446D01*
X171123495Y-63577352D01*
X171259035Y-63383781D01*
X171358903Y-63169614D01*
X171420063Y-62941359D01*
X171440659Y-62705951D01*
X171420063Y-62470543D01*
X171368695Y-62278834D01*
X171358905Y-62242295D01*
X171358904Y-62242294D01*
X171358903Y-62242288D01*
X171259035Y-62028122D01*
X171253731Y-62020546D01*
X171123494Y-61834548D01*
X170956402Y-61667457D01*
X170956395Y-61667452D01*
X170942386Y-61657643D01*
X170879518Y-61613622D01*
X170762834Y-61531918D01*
X170762830Y-61531916D01*
X170762828Y-61531915D01*
X170548663Y-61432048D01*
X170548659Y-61432047D01*
X170548655Y-61432045D01*
X170320413Y-61370889D01*
X170320403Y-61370887D01*
X170085001Y-61350292D01*
X170084999Y-61350292D01*
X169849596Y-61370887D01*
X169849586Y-61370889D01*
X169621344Y-61432045D01*
X169621335Y-61432049D01*
X169407171Y-61531915D01*
X169407169Y-61531916D01*
X169213597Y-61667456D01*
X169046505Y-61834548D01*
X168916575Y-62020109D01*
X168861998Y-62063734D01*
X168792500Y-62070928D01*
X168730145Y-62039405D01*
X168713425Y-62020109D01*
X168583494Y-61834548D01*
X168416402Y-61667457D01*
X168416395Y-61667452D01*
X168402386Y-61657643D01*
X168339518Y-61613622D01*
X168222834Y-61531918D01*
X168222830Y-61531916D01*
X168222828Y-61531915D01*
X168008663Y-61432048D01*
X168008659Y-61432047D01*
X168008655Y-61432045D01*
X167780413Y-61370889D01*
X167780403Y-61370887D01*
X167545001Y-61350292D01*
X167544999Y-61350292D01*
X167309596Y-61370887D01*
X167309586Y-61370889D01*
X167081344Y-61432045D01*
X167081335Y-61432049D01*
X166867171Y-61531915D01*
X166867169Y-61531916D01*
X166673597Y-61667456D01*
X166506505Y-61834548D01*
X166376575Y-62020109D01*
X166321998Y-62063734D01*
X166252500Y-62070928D01*
X166190145Y-62039405D01*
X166173425Y-62020109D01*
X166043494Y-61834548D01*
X165876402Y-61667457D01*
X165876395Y-61667452D01*
X165862386Y-61657643D01*
X165799518Y-61613622D01*
X165682834Y-61531918D01*
X165682830Y-61531916D01*
X165682828Y-61531915D01*
X165468663Y-61432048D01*
X165468659Y-61432047D01*
X165468655Y-61432045D01*
X165240413Y-61370889D01*
X165240403Y-61370887D01*
X165005001Y-61350292D01*
X165004999Y-61350292D01*
X164769596Y-61370887D01*
X164769586Y-61370889D01*
X164541344Y-61432045D01*
X164541335Y-61432049D01*
X164327171Y-61531915D01*
X164327169Y-61531916D01*
X164133597Y-61667456D01*
X163966505Y-61834548D01*
X163836575Y-62020109D01*
X163781998Y-62063734D01*
X163712500Y-62070928D01*
X163650145Y-62039405D01*
X163633425Y-62020109D01*
X163503494Y-61834548D01*
X163336402Y-61667457D01*
X163336395Y-61667452D01*
X163322386Y-61657643D01*
X163259518Y-61613622D01*
X163142834Y-61531918D01*
X163142830Y-61531916D01*
X163142828Y-61531915D01*
X162928663Y-61432048D01*
X162928659Y-61432047D01*
X162928655Y-61432045D01*
X162700413Y-61370889D01*
X162700403Y-61370887D01*
X162465001Y-61350292D01*
X162464999Y-61350292D01*
X162229596Y-61370887D01*
X162229586Y-61370889D01*
X162001344Y-61432045D01*
X162001335Y-61432049D01*
X161787171Y-61531915D01*
X161787169Y-61531916D01*
X161593597Y-61667456D01*
X161426505Y-61834548D01*
X161296575Y-62020109D01*
X161241998Y-62063734D01*
X161172500Y-62070928D01*
X161110145Y-62039405D01*
X161093425Y-62020109D01*
X160963494Y-61834548D01*
X160796402Y-61667457D01*
X160796395Y-61667452D01*
X160782386Y-61657643D01*
X160719518Y-61613622D01*
X160602834Y-61531918D01*
X160602830Y-61531916D01*
X160602828Y-61531915D01*
X160388663Y-61432048D01*
X160388659Y-61432047D01*
X160388655Y-61432045D01*
X160160413Y-61370889D01*
X160160403Y-61370887D01*
X159925001Y-61350292D01*
X159924999Y-61350292D01*
X159689596Y-61370887D01*
X159689586Y-61370889D01*
X159461344Y-61432045D01*
X159461335Y-61432049D01*
X159247171Y-61531915D01*
X159247169Y-61531916D01*
X159053597Y-61667456D01*
X158886505Y-61834548D01*
X158756575Y-62020109D01*
X158701998Y-62063734D01*
X158632500Y-62070928D01*
X158570145Y-62039405D01*
X158553425Y-62020109D01*
X158423494Y-61834548D01*
X158256402Y-61667457D01*
X158256395Y-61667452D01*
X158242386Y-61657643D01*
X158179518Y-61613622D01*
X158062834Y-61531918D01*
X158062830Y-61531916D01*
X158062828Y-61531915D01*
X157848663Y-61432048D01*
X157848659Y-61432047D01*
X157848655Y-61432045D01*
X157620413Y-61370889D01*
X157620403Y-61370887D01*
X157385001Y-61350292D01*
X157384999Y-61350292D01*
X157149596Y-61370887D01*
X157149586Y-61370889D01*
X156921344Y-61432045D01*
X156921335Y-61432049D01*
X156707171Y-61531915D01*
X156707169Y-61531916D01*
X156513597Y-61667456D01*
X156346505Y-61834548D01*
X156216575Y-62020109D01*
X156161998Y-62063734D01*
X156092500Y-62070928D01*
X156030145Y-62039405D01*
X156013425Y-62020109D01*
X155883494Y-61834548D01*
X155716402Y-61667457D01*
X155716395Y-61667452D01*
X155702386Y-61657643D01*
X155639518Y-61613622D01*
X155522834Y-61531918D01*
X155522830Y-61531916D01*
X155522828Y-61531915D01*
X155308663Y-61432048D01*
X155308659Y-61432047D01*
X155308655Y-61432045D01*
X155080413Y-61370889D01*
X155080403Y-61370887D01*
X154845001Y-61350292D01*
X154844999Y-61350292D01*
X154609596Y-61370887D01*
X154609586Y-61370889D01*
X154381344Y-61432045D01*
X154381335Y-61432049D01*
X154167171Y-61531915D01*
X154167169Y-61531916D01*
X153973597Y-61667456D01*
X153806505Y-61834548D01*
X153676575Y-62020109D01*
X153621998Y-62063734D01*
X153552500Y-62070928D01*
X153490145Y-62039405D01*
X153473425Y-62020109D01*
X153343494Y-61834548D01*
X153176402Y-61667457D01*
X153176395Y-61667452D01*
X153162386Y-61657643D01*
X153099518Y-61613622D01*
X152982834Y-61531918D01*
X152982830Y-61531916D01*
X152982828Y-61531915D01*
X152768663Y-61432048D01*
X152768659Y-61432047D01*
X152768655Y-61432045D01*
X152540413Y-61370889D01*
X152540403Y-61370887D01*
X152305001Y-61350292D01*
X152304999Y-61350292D01*
X152069596Y-61370887D01*
X152069586Y-61370889D01*
X151841344Y-61432045D01*
X151841335Y-61432049D01*
X151627171Y-61531915D01*
X151627169Y-61531916D01*
X151433597Y-61667456D01*
X151266505Y-61834548D01*
X151136575Y-62020109D01*
X151081998Y-62063734D01*
X151012500Y-62070928D01*
X150950145Y-62039405D01*
X150933425Y-62020109D01*
X150803494Y-61834548D01*
X150636402Y-61667457D01*
X150636395Y-61667452D01*
X150622386Y-61657643D01*
X150559518Y-61613622D01*
X150442834Y-61531918D01*
X150442830Y-61531916D01*
X150442828Y-61531915D01*
X150228663Y-61432048D01*
X150228659Y-61432047D01*
X150228655Y-61432045D01*
X150000413Y-61370889D01*
X150000403Y-61370887D01*
X149765001Y-61350292D01*
X149764999Y-61350292D01*
X149529596Y-61370887D01*
X149529586Y-61370889D01*
X149301344Y-61432045D01*
X149301335Y-61432049D01*
X149087171Y-61531915D01*
X149087169Y-61531916D01*
X148893597Y-61667456D01*
X148726505Y-61834548D01*
X148596575Y-62020109D01*
X148541998Y-62063734D01*
X148472500Y-62070928D01*
X148410145Y-62039405D01*
X148393425Y-62020109D01*
X148263494Y-61834548D01*
X148096402Y-61667457D01*
X148096395Y-61667452D01*
X148082386Y-61657643D01*
X148019518Y-61613622D01*
X147902834Y-61531918D01*
X147902830Y-61531916D01*
X147902828Y-61531915D01*
X147688663Y-61432048D01*
X147688659Y-61432047D01*
X147688655Y-61432045D01*
X147460413Y-61370889D01*
X147460403Y-61370887D01*
X147225001Y-61350292D01*
X147224999Y-61350292D01*
X146989596Y-61370887D01*
X146989586Y-61370889D01*
X146761344Y-61432045D01*
X146761335Y-61432049D01*
X146547171Y-61531915D01*
X146547169Y-61531916D01*
X146353597Y-61667456D01*
X146186505Y-61834548D01*
X146056575Y-62020109D01*
X146001998Y-62063734D01*
X145932500Y-62070928D01*
X145870145Y-62039405D01*
X145853425Y-62020109D01*
X145723494Y-61834548D01*
X145556402Y-61667457D01*
X145556395Y-61667452D01*
X145542386Y-61657643D01*
X145479518Y-61613622D01*
X145362834Y-61531918D01*
X145362830Y-61531916D01*
X145362828Y-61531915D01*
X145148663Y-61432048D01*
X145148659Y-61432047D01*
X145148655Y-61432045D01*
X144920413Y-61370889D01*
X144920403Y-61370887D01*
X144685001Y-61350292D01*
X144684999Y-61350292D01*
X144449596Y-61370887D01*
X144449586Y-61370889D01*
X144221344Y-61432045D01*
X144221335Y-61432049D01*
X144007171Y-61531915D01*
X144007169Y-61531916D01*
X143813597Y-61667456D01*
X143646505Y-61834548D01*
X143516575Y-62020109D01*
X143461998Y-62063734D01*
X143392500Y-62070928D01*
X143330145Y-62039405D01*
X143313425Y-62020109D01*
X143183494Y-61834548D01*
X143016402Y-61667457D01*
X143016395Y-61667452D01*
X143002386Y-61657643D01*
X142939518Y-61613622D01*
X142822834Y-61531918D01*
X142822830Y-61531916D01*
X142822828Y-61531915D01*
X142608663Y-61432048D01*
X142608659Y-61432047D01*
X142608655Y-61432045D01*
X142380413Y-61370889D01*
X142380403Y-61370887D01*
X142145001Y-61350292D01*
X142144999Y-61350292D01*
X141909596Y-61370887D01*
X141909586Y-61370889D01*
X141681344Y-61432045D01*
X141681335Y-61432049D01*
X141467171Y-61531915D01*
X141467169Y-61531916D01*
X141273597Y-61667456D01*
X141106505Y-61834548D01*
X140976575Y-62020109D01*
X140921998Y-62063734D01*
X140852500Y-62070928D01*
X140790145Y-62039405D01*
X140773425Y-62020109D01*
X140643494Y-61834548D01*
X140476402Y-61667457D01*
X140476395Y-61667452D01*
X140462386Y-61657643D01*
X140399518Y-61613622D01*
X140282834Y-61531918D01*
X140282830Y-61531916D01*
X140282828Y-61531915D01*
X140068663Y-61432048D01*
X140068659Y-61432047D01*
X140068655Y-61432045D01*
X139840413Y-61370889D01*
X139840403Y-61370887D01*
X139605001Y-61350292D01*
X139604999Y-61350292D01*
X139369596Y-61370887D01*
X139369586Y-61370889D01*
X139141344Y-61432045D01*
X139141335Y-61432049D01*
X138927171Y-61531915D01*
X138927169Y-61531916D01*
X138733597Y-61667456D01*
X138566505Y-61834548D01*
X138436575Y-62020109D01*
X138381998Y-62063734D01*
X138312500Y-62070928D01*
X138250145Y-62039405D01*
X138233425Y-62020109D01*
X138103494Y-61834548D01*
X137936402Y-61667457D01*
X137936395Y-61667452D01*
X137922386Y-61657643D01*
X137859518Y-61613622D01*
X137742834Y-61531918D01*
X137742830Y-61531916D01*
X137742828Y-61531915D01*
X137528663Y-61432048D01*
X137528659Y-61432047D01*
X137528655Y-61432045D01*
X137300413Y-61370889D01*
X137300403Y-61370887D01*
X137065001Y-61350292D01*
X137064999Y-61350292D01*
X136829596Y-61370887D01*
X136829586Y-61370889D01*
X136601344Y-61432045D01*
X136601335Y-61432049D01*
X136387171Y-61531915D01*
X136387169Y-61531916D01*
X136193597Y-61667456D01*
X136026505Y-61834548D01*
X135896575Y-62020109D01*
X135841998Y-62063734D01*
X135772500Y-62070928D01*
X135710145Y-62039405D01*
X135693425Y-62020109D01*
X135563494Y-61834548D01*
X135396402Y-61667457D01*
X135396395Y-61667452D01*
X135382386Y-61657643D01*
X135319518Y-61613622D01*
X135202834Y-61531918D01*
X135202830Y-61531916D01*
X135202828Y-61531915D01*
X134988663Y-61432048D01*
X134988659Y-61432047D01*
X134988655Y-61432045D01*
X134760413Y-61370889D01*
X134760403Y-61370887D01*
X134525001Y-61350292D01*
X134524999Y-61350292D01*
X134289596Y-61370887D01*
X134289586Y-61370889D01*
X134061344Y-61432045D01*
X134061335Y-61432049D01*
X133847171Y-61531915D01*
X133847169Y-61531916D01*
X133653597Y-61667456D01*
X133486505Y-61834548D01*
X133356575Y-62020109D01*
X133301998Y-62063734D01*
X133232500Y-62070928D01*
X133170145Y-62039405D01*
X133153425Y-62020109D01*
X133023494Y-61834548D01*
X132856402Y-61667457D01*
X132856395Y-61667452D01*
X132842386Y-61657643D01*
X132779518Y-61613622D01*
X132662834Y-61531918D01*
X132662830Y-61531916D01*
X132662828Y-61531915D01*
X132448663Y-61432048D01*
X132448659Y-61432047D01*
X132448655Y-61432045D01*
X132220413Y-61370889D01*
X132220403Y-61370887D01*
X131985001Y-61350292D01*
X131984999Y-61350292D01*
X131749596Y-61370887D01*
X131749586Y-61370889D01*
X131521344Y-61432045D01*
X131521335Y-61432049D01*
X131307171Y-61531915D01*
X131307169Y-61531916D01*
X131113597Y-61667456D01*
X130946505Y-61834548D01*
X130816575Y-62020109D01*
X130761998Y-62063734D01*
X130692500Y-62070928D01*
X130630145Y-62039405D01*
X130613425Y-62020109D01*
X130483494Y-61834548D01*
X130316402Y-61667457D01*
X130316395Y-61667452D01*
X130302386Y-61657643D01*
X130239518Y-61613622D01*
X130122834Y-61531918D01*
X130122830Y-61531916D01*
X130122828Y-61531915D01*
X129908663Y-61432048D01*
X129908659Y-61432047D01*
X129908655Y-61432045D01*
X129680413Y-61370889D01*
X129680403Y-61370887D01*
X129445001Y-61350292D01*
X129444999Y-61350292D01*
X129209596Y-61370887D01*
X129209586Y-61370889D01*
X128981344Y-61432045D01*
X128981335Y-61432049D01*
X128767171Y-61531915D01*
X128767169Y-61531916D01*
X128573597Y-61667456D01*
X128406505Y-61834548D01*
X128276575Y-62020109D01*
X128221998Y-62063734D01*
X128152500Y-62070928D01*
X128090145Y-62039405D01*
X128073425Y-62020109D01*
X127943494Y-61834548D01*
X127776402Y-61667457D01*
X127776395Y-61667452D01*
X127762386Y-61657643D01*
X127699518Y-61613622D01*
X127582834Y-61531918D01*
X127582830Y-61531916D01*
X127582828Y-61531915D01*
X127368663Y-61432048D01*
X127368659Y-61432047D01*
X127368655Y-61432045D01*
X127140413Y-61370889D01*
X127140403Y-61370887D01*
X126905001Y-61350292D01*
X126904999Y-61350292D01*
X126669596Y-61370887D01*
X126669586Y-61370889D01*
X126441344Y-61432045D01*
X126441335Y-61432049D01*
X126227171Y-61531915D01*
X126227169Y-61531916D01*
X126033597Y-61667456D01*
X125866508Y-61834545D01*
X125736269Y-62020546D01*
X125681692Y-62064170D01*
X125612193Y-62071363D01*
X125549839Y-62039841D01*
X125533119Y-62020545D01*
X125403113Y-61834877D01*
X125403108Y-61834871D01*
X125236082Y-61667845D01*
X125042578Y-61532350D01*
X124828492Y-61432521D01*
X124828486Y-61432518D01*
X124615000Y-61375315D01*
X124615000Y-62270449D01*
X124507315Y-62221271D01*
X124400763Y-62205951D01*
X124329237Y-62205951D01*
X124222685Y-62221271D01*
X124115000Y-62270449D01*
X124115000Y-61375315D01*
X124114999Y-61375315D01*
X123901513Y-61432518D01*
X123901507Y-61432521D01*
X123687422Y-61532350D01*
X123687420Y-61532351D01*
X123493926Y-61667837D01*
X123371865Y-61789898D01*
X123310542Y-61823382D01*
X123240850Y-61818398D01*
X123184917Y-61776526D01*
X123168002Y-61745549D01*
X123118797Y-61613622D01*
X123118793Y-61613615D01*
X123032547Y-61498406D01*
X123032544Y-61498403D01*
X122917335Y-61412157D01*
X122917328Y-61412153D01*
X122782482Y-61361859D01*
X122782483Y-61361859D01*
X122722883Y-61355452D01*
X122722881Y-61355451D01*
X122722873Y-61355451D01*
X122722864Y-61355451D01*
X120927129Y-61355451D01*
X120927123Y-61355452D01*
X120867516Y-61361859D01*
X120732671Y-61412153D01*
X120732664Y-61412157D01*
X120617455Y-61498403D01*
X120617452Y-61498406D01*
X120531206Y-61613615D01*
X120531202Y-61613622D01*
X120480908Y-61748468D01*
X120474501Y-61808067D01*
X120474500Y-61808086D01*
X120474500Y-63603821D01*
X83725500Y-63603821D01*
X83725500Y-58357983D01*
X83725633Y-58353929D01*
X83726915Y-58334353D01*
X83730828Y-58274625D01*
X83744054Y-58090110D01*
X83745082Y-58082475D01*
X83767593Y-57969293D01*
X83799665Y-57821845D01*
X83801528Y-57815132D01*
X83841244Y-57698127D01*
X83891376Y-57563710D01*
X83893835Y-57558014D01*
X83950026Y-57444064D01*
X84017483Y-57320522D01*
X84020315Y-57315843D01*
X84091021Y-57210021D01*
X84092868Y-57207411D01*
X84175706Y-57096748D01*
X84178658Y-57093108D01*
X84262965Y-56996971D01*
X84265699Y-56994053D01*
X84363133Y-56896617D01*
X84366032Y-56893901D01*
X84462151Y-56809605D01*
X84465832Y-56806621D01*
X84576468Y-56723798D01*
X84579082Y-56721949D01*
X84684871Y-56651262D01*
X84689596Y-56648400D01*
X84813111Y-56580954D01*
X84927067Y-56524756D01*
X84932775Y-56522292D01*
X85067135Y-56472176D01*
X85184198Y-56432438D01*
X85190888Y-56430581D01*
X85338315Y-56398509D01*
X85451512Y-56375992D01*
X85459127Y-56374966D01*
X85649879Y-56361323D01*
X85694242Y-56358415D01*
X85722193Y-56356584D01*
X85726248Y-56356451D01*
X208722963Y-56356451D01*
X208727019Y-56356584D01*
G37*
%TD.AperFunction*%
%TD*%
M02*
