%TF.GenerationSoftware,KiCad,Pcbnew,7.0.9*%
%TF.CreationDate,2023-12-22T14:39:17+09:00*%
%TF.ProjectId,Dev_IO_Board,4465765f-494f-45f4-926f-6172642e6b69,rev?*%
%TF.SameCoordinates,Original*%
%TF.FileFunction,Other,Comment*%
%FSLAX46Y46*%
G04 Gerber Fmt 4.6, Leading zero omitted, Abs format (unit mm)*
G04 Created by KiCad (PCBNEW 7.0.9) date 2023-12-22 14:39:17*
%MOMM*%
%LPD*%
G01*
G04 APERTURE LIST*
%ADD10C,0.150000*%
G04 APERTURE END LIST*
D10*
X97364819Y-77215475D02*
X97364819Y-76596428D01*
X97364819Y-76596428D02*
X97745771Y-76929761D01*
X97745771Y-76929761D02*
X97745771Y-76786904D01*
X97745771Y-76786904D02*
X97793390Y-76691666D01*
X97793390Y-76691666D02*
X97841009Y-76644047D01*
X97841009Y-76644047D02*
X97936247Y-76596428D01*
X97936247Y-76596428D02*
X98174342Y-76596428D01*
X98174342Y-76596428D02*
X98269580Y-76644047D01*
X98269580Y-76644047D02*
X98317200Y-76691666D01*
X98317200Y-76691666D02*
X98364819Y-76786904D01*
X98364819Y-76786904D02*
X98364819Y-77072618D01*
X98364819Y-77072618D02*
X98317200Y-77167856D01*
X98317200Y-77167856D02*
X98269580Y-77215475D01*
X98269580Y-76167856D02*
X98317200Y-76120237D01*
X98317200Y-76120237D02*
X98364819Y-76167856D01*
X98364819Y-76167856D02*
X98317200Y-76215475D01*
X98317200Y-76215475D02*
X98269580Y-76167856D01*
X98269580Y-76167856D02*
X98364819Y-76167856D01*
X97793390Y-75548809D02*
X97745771Y-75644047D01*
X97745771Y-75644047D02*
X97698152Y-75691666D01*
X97698152Y-75691666D02*
X97602914Y-75739285D01*
X97602914Y-75739285D02*
X97555295Y-75739285D01*
X97555295Y-75739285D02*
X97460057Y-75691666D01*
X97460057Y-75691666D02*
X97412438Y-75644047D01*
X97412438Y-75644047D02*
X97364819Y-75548809D01*
X97364819Y-75548809D02*
X97364819Y-75358333D01*
X97364819Y-75358333D02*
X97412438Y-75263095D01*
X97412438Y-75263095D02*
X97460057Y-75215476D01*
X97460057Y-75215476D02*
X97555295Y-75167857D01*
X97555295Y-75167857D02*
X97602914Y-75167857D01*
X97602914Y-75167857D02*
X97698152Y-75215476D01*
X97698152Y-75215476D02*
X97745771Y-75263095D01*
X97745771Y-75263095D02*
X97793390Y-75358333D01*
X97793390Y-75358333D02*
X97793390Y-75548809D01*
X97793390Y-75548809D02*
X97841009Y-75644047D01*
X97841009Y-75644047D02*
X97888628Y-75691666D01*
X97888628Y-75691666D02*
X97983866Y-75739285D01*
X97983866Y-75739285D02*
X98174342Y-75739285D01*
X98174342Y-75739285D02*
X98269580Y-75691666D01*
X98269580Y-75691666D02*
X98317200Y-75644047D01*
X98317200Y-75644047D02*
X98364819Y-75548809D01*
X98364819Y-75548809D02*
X98364819Y-75358333D01*
X98364819Y-75358333D02*
X98317200Y-75263095D01*
X98317200Y-75263095D02*
X98269580Y-75215476D01*
X98269580Y-75215476D02*
X98174342Y-75167857D01*
X98174342Y-75167857D02*
X97983866Y-75167857D01*
X97983866Y-75167857D02*
X97888628Y-75215476D01*
X97888628Y-75215476D02*
X97841009Y-75263095D01*
X97841009Y-75263095D02*
X97793390Y-75358333D01*
X98364819Y-74215476D02*
X98364819Y-74786904D01*
X98364819Y-74501190D02*
X97364819Y-74501190D01*
X97364819Y-74501190D02*
X97507676Y-74596428D01*
X97507676Y-74596428D02*
X97602914Y-74691666D01*
X97602914Y-74691666D02*
X97650533Y-74786904D01*
X97364819Y-73596428D02*
X97364819Y-73501190D01*
X97364819Y-73501190D02*
X97412438Y-73405952D01*
X97412438Y-73405952D02*
X97460057Y-73358333D01*
X97460057Y-73358333D02*
X97555295Y-73310714D01*
X97555295Y-73310714D02*
X97745771Y-73263095D01*
X97745771Y-73263095D02*
X97983866Y-73263095D01*
X97983866Y-73263095D02*
X98174342Y-73310714D01*
X98174342Y-73310714D02*
X98269580Y-73358333D01*
X98269580Y-73358333D02*
X98317200Y-73405952D01*
X98317200Y-73405952D02*
X98364819Y-73501190D01*
X98364819Y-73501190D02*
X98364819Y-73596428D01*
X98364819Y-73596428D02*
X98317200Y-73691666D01*
X98317200Y-73691666D02*
X98269580Y-73739285D01*
X98269580Y-73739285D02*
X98174342Y-73786904D01*
X98174342Y-73786904D02*
X97983866Y-73834523D01*
X97983866Y-73834523D02*
X97745771Y-73834523D01*
X97745771Y-73834523D02*
X97555295Y-73786904D01*
X97555295Y-73786904D02*
X97460057Y-73739285D01*
X97460057Y-73739285D02*
X97412438Y-73691666D01*
X97412438Y-73691666D02*
X97364819Y-73596428D01*
X97364819Y-72644047D02*
X97364819Y-72548809D01*
X97364819Y-72548809D02*
X97412438Y-72453571D01*
X97412438Y-72453571D02*
X97460057Y-72405952D01*
X97460057Y-72405952D02*
X97555295Y-72358333D01*
X97555295Y-72358333D02*
X97745771Y-72310714D01*
X97745771Y-72310714D02*
X97983866Y-72310714D01*
X97983866Y-72310714D02*
X98174342Y-72358333D01*
X98174342Y-72358333D02*
X98269580Y-72405952D01*
X98269580Y-72405952D02*
X98317200Y-72453571D01*
X98317200Y-72453571D02*
X98364819Y-72548809D01*
X98364819Y-72548809D02*
X98364819Y-72644047D01*
X98364819Y-72644047D02*
X98317200Y-72739285D01*
X98317200Y-72739285D02*
X98269580Y-72786904D01*
X98269580Y-72786904D02*
X98174342Y-72834523D01*
X98174342Y-72834523D02*
X97983866Y-72882142D01*
X97983866Y-72882142D02*
X97745771Y-72882142D01*
X97745771Y-72882142D02*
X97555295Y-72834523D01*
X97555295Y-72834523D02*
X97460057Y-72786904D01*
X97460057Y-72786904D02*
X97412438Y-72739285D01*
X97412438Y-72739285D02*
X97364819Y-72644047D01*
X98364819Y-71120237D02*
X97698152Y-71120237D01*
X97793390Y-71120237D02*
X97745771Y-71072618D01*
X97745771Y-71072618D02*
X97698152Y-70977380D01*
X97698152Y-70977380D02*
X97698152Y-70834523D01*
X97698152Y-70834523D02*
X97745771Y-70739285D01*
X97745771Y-70739285D02*
X97841009Y-70691666D01*
X97841009Y-70691666D02*
X98364819Y-70691666D01*
X97841009Y-70691666D02*
X97745771Y-70644047D01*
X97745771Y-70644047D02*
X97698152Y-70548809D01*
X97698152Y-70548809D02*
X97698152Y-70405952D01*
X97698152Y-70405952D02*
X97745771Y-70310713D01*
X97745771Y-70310713D02*
X97841009Y-70263094D01*
X97841009Y-70263094D02*
X98364819Y-70263094D01*
X98364819Y-69786904D02*
X97698152Y-69786904D01*
X97793390Y-69786904D02*
X97745771Y-69739285D01*
X97745771Y-69739285D02*
X97698152Y-69644047D01*
X97698152Y-69644047D02*
X97698152Y-69501190D01*
X97698152Y-69501190D02*
X97745771Y-69405952D01*
X97745771Y-69405952D02*
X97841009Y-69358333D01*
X97841009Y-69358333D02*
X98364819Y-69358333D01*
X97841009Y-69358333D02*
X97745771Y-69310714D01*
X97745771Y-69310714D02*
X97698152Y-69215476D01*
X97698152Y-69215476D02*
X97698152Y-69072619D01*
X97698152Y-69072619D02*
X97745771Y-68977380D01*
X97745771Y-68977380D02*
X97841009Y-68929761D01*
X97841009Y-68929761D02*
X98364819Y-68929761D01*
X103640000Y-74930000D02*
X98473580Y-74930000D01*
X103640000Y-71120000D02*
X98473580Y-71120000D01*
X99060000Y-74930000D02*
X99060000Y-71120000D01*
X99060000Y-74930000D02*
X99060000Y-71120000D01*
X99060000Y-74930000D02*
X98473579Y-73803496D01*
X99060000Y-74930000D02*
X99646421Y-73803496D01*
X99060000Y-71120000D02*
X99646421Y-72246504D01*
X99060000Y-71120000D02*
X98473579Y-72246504D01*
X118761429Y-111128390D02*
X118666191Y-111080771D01*
X118666191Y-111080771D02*
X118618572Y-111033152D01*
X118618572Y-111033152D02*
X118570953Y-110937914D01*
X118570953Y-110937914D02*
X118570953Y-110890295D01*
X118570953Y-110890295D02*
X118618572Y-110795057D01*
X118618572Y-110795057D02*
X118666191Y-110747438D01*
X118666191Y-110747438D02*
X118761429Y-110699819D01*
X118761429Y-110699819D02*
X118951905Y-110699819D01*
X118951905Y-110699819D02*
X119047143Y-110747438D01*
X119047143Y-110747438D02*
X119094762Y-110795057D01*
X119094762Y-110795057D02*
X119142381Y-110890295D01*
X119142381Y-110890295D02*
X119142381Y-110937914D01*
X119142381Y-110937914D02*
X119094762Y-111033152D01*
X119094762Y-111033152D02*
X119047143Y-111080771D01*
X119047143Y-111080771D02*
X118951905Y-111128390D01*
X118951905Y-111128390D02*
X118761429Y-111128390D01*
X118761429Y-111128390D02*
X118666191Y-111176009D01*
X118666191Y-111176009D02*
X118618572Y-111223628D01*
X118618572Y-111223628D02*
X118570953Y-111318866D01*
X118570953Y-111318866D02*
X118570953Y-111509342D01*
X118570953Y-111509342D02*
X118618572Y-111604580D01*
X118618572Y-111604580D02*
X118666191Y-111652200D01*
X118666191Y-111652200D02*
X118761429Y-111699819D01*
X118761429Y-111699819D02*
X118951905Y-111699819D01*
X118951905Y-111699819D02*
X119047143Y-111652200D01*
X119047143Y-111652200D02*
X119094762Y-111604580D01*
X119094762Y-111604580D02*
X119142381Y-111509342D01*
X119142381Y-111509342D02*
X119142381Y-111318866D01*
X119142381Y-111318866D02*
X119094762Y-111223628D01*
X119094762Y-111223628D02*
X119047143Y-111176009D01*
X119047143Y-111176009D02*
X118951905Y-111128390D01*
X119475715Y-110699819D02*
X120094762Y-110699819D01*
X120094762Y-110699819D02*
X119761429Y-111080771D01*
X119761429Y-111080771D02*
X119904286Y-111080771D01*
X119904286Y-111080771D02*
X119999524Y-111128390D01*
X119999524Y-111128390D02*
X120047143Y-111176009D01*
X120047143Y-111176009D02*
X120094762Y-111271247D01*
X120094762Y-111271247D02*
X120094762Y-111509342D01*
X120094762Y-111509342D02*
X120047143Y-111604580D01*
X120047143Y-111604580D02*
X119999524Y-111652200D01*
X119999524Y-111652200D02*
X119904286Y-111699819D01*
X119904286Y-111699819D02*
X119618572Y-111699819D01*
X119618572Y-111699819D02*
X119523334Y-111652200D01*
X119523334Y-111652200D02*
X119475715Y-111604580D01*
X120523334Y-111604580D02*
X120570953Y-111652200D01*
X120570953Y-111652200D02*
X120523334Y-111699819D01*
X120523334Y-111699819D02*
X120475715Y-111652200D01*
X120475715Y-111652200D02*
X120523334Y-111604580D01*
X120523334Y-111604580D02*
X120523334Y-111699819D01*
X121142381Y-111128390D02*
X121047143Y-111080771D01*
X121047143Y-111080771D02*
X120999524Y-111033152D01*
X120999524Y-111033152D02*
X120951905Y-110937914D01*
X120951905Y-110937914D02*
X120951905Y-110890295D01*
X120951905Y-110890295D02*
X120999524Y-110795057D01*
X120999524Y-110795057D02*
X121047143Y-110747438D01*
X121047143Y-110747438D02*
X121142381Y-110699819D01*
X121142381Y-110699819D02*
X121332857Y-110699819D01*
X121332857Y-110699819D02*
X121428095Y-110747438D01*
X121428095Y-110747438D02*
X121475714Y-110795057D01*
X121475714Y-110795057D02*
X121523333Y-110890295D01*
X121523333Y-110890295D02*
X121523333Y-110937914D01*
X121523333Y-110937914D02*
X121475714Y-111033152D01*
X121475714Y-111033152D02*
X121428095Y-111080771D01*
X121428095Y-111080771D02*
X121332857Y-111128390D01*
X121332857Y-111128390D02*
X121142381Y-111128390D01*
X121142381Y-111128390D02*
X121047143Y-111176009D01*
X121047143Y-111176009D02*
X120999524Y-111223628D01*
X120999524Y-111223628D02*
X120951905Y-111318866D01*
X120951905Y-111318866D02*
X120951905Y-111509342D01*
X120951905Y-111509342D02*
X120999524Y-111604580D01*
X120999524Y-111604580D02*
X121047143Y-111652200D01*
X121047143Y-111652200D02*
X121142381Y-111699819D01*
X121142381Y-111699819D02*
X121332857Y-111699819D01*
X121332857Y-111699819D02*
X121428095Y-111652200D01*
X121428095Y-111652200D02*
X121475714Y-111604580D01*
X121475714Y-111604580D02*
X121523333Y-111509342D01*
X121523333Y-111509342D02*
X121523333Y-111318866D01*
X121523333Y-111318866D02*
X121475714Y-111223628D01*
X121475714Y-111223628D02*
X121428095Y-111176009D01*
X121428095Y-111176009D02*
X121332857Y-111128390D01*
X121904286Y-110795057D02*
X121951905Y-110747438D01*
X121951905Y-110747438D02*
X122047143Y-110699819D01*
X122047143Y-110699819D02*
X122285238Y-110699819D01*
X122285238Y-110699819D02*
X122380476Y-110747438D01*
X122380476Y-110747438D02*
X122428095Y-110795057D01*
X122428095Y-110795057D02*
X122475714Y-110890295D01*
X122475714Y-110890295D02*
X122475714Y-110985533D01*
X122475714Y-110985533D02*
X122428095Y-111128390D01*
X122428095Y-111128390D02*
X121856667Y-111699819D01*
X121856667Y-111699819D02*
X122475714Y-111699819D01*
X123094762Y-110699819D02*
X123190000Y-110699819D01*
X123190000Y-110699819D02*
X123285238Y-110747438D01*
X123285238Y-110747438D02*
X123332857Y-110795057D01*
X123332857Y-110795057D02*
X123380476Y-110890295D01*
X123380476Y-110890295D02*
X123428095Y-111080771D01*
X123428095Y-111080771D02*
X123428095Y-111318866D01*
X123428095Y-111318866D02*
X123380476Y-111509342D01*
X123380476Y-111509342D02*
X123332857Y-111604580D01*
X123332857Y-111604580D02*
X123285238Y-111652200D01*
X123285238Y-111652200D02*
X123190000Y-111699819D01*
X123190000Y-111699819D02*
X123094762Y-111699819D01*
X123094762Y-111699819D02*
X122999524Y-111652200D01*
X122999524Y-111652200D02*
X122951905Y-111604580D01*
X122951905Y-111604580D02*
X122904286Y-111509342D01*
X122904286Y-111509342D02*
X122856667Y-111318866D01*
X122856667Y-111318866D02*
X122856667Y-111080771D01*
X122856667Y-111080771D02*
X122904286Y-110890295D01*
X122904286Y-110890295D02*
X122951905Y-110795057D01*
X122951905Y-110795057D02*
X122999524Y-110747438D01*
X122999524Y-110747438D02*
X123094762Y-110699819D01*
X124047143Y-110699819D02*
X124142381Y-110699819D01*
X124142381Y-110699819D02*
X124237619Y-110747438D01*
X124237619Y-110747438D02*
X124285238Y-110795057D01*
X124285238Y-110795057D02*
X124332857Y-110890295D01*
X124332857Y-110890295D02*
X124380476Y-111080771D01*
X124380476Y-111080771D02*
X124380476Y-111318866D01*
X124380476Y-111318866D02*
X124332857Y-111509342D01*
X124332857Y-111509342D02*
X124285238Y-111604580D01*
X124285238Y-111604580D02*
X124237619Y-111652200D01*
X124237619Y-111652200D02*
X124142381Y-111699819D01*
X124142381Y-111699819D02*
X124047143Y-111699819D01*
X124047143Y-111699819D02*
X123951905Y-111652200D01*
X123951905Y-111652200D02*
X123904286Y-111604580D01*
X123904286Y-111604580D02*
X123856667Y-111509342D01*
X123856667Y-111509342D02*
X123809048Y-111318866D01*
X123809048Y-111318866D02*
X123809048Y-111080771D01*
X123809048Y-111080771D02*
X123856667Y-110890295D01*
X123856667Y-110890295D02*
X123904286Y-110795057D01*
X123904286Y-110795057D02*
X123951905Y-110747438D01*
X123951905Y-110747438D02*
X124047143Y-110699819D01*
X125570953Y-111699819D02*
X125570953Y-111033152D01*
X125570953Y-111128390D02*
X125618572Y-111080771D01*
X125618572Y-111080771D02*
X125713810Y-111033152D01*
X125713810Y-111033152D02*
X125856667Y-111033152D01*
X125856667Y-111033152D02*
X125951905Y-111080771D01*
X125951905Y-111080771D02*
X125999524Y-111176009D01*
X125999524Y-111176009D02*
X125999524Y-111699819D01*
X125999524Y-111176009D02*
X126047143Y-111080771D01*
X126047143Y-111080771D02*
X126142381Y-111033152D01*
X126142381Y-111033152D02*
X126285238Y-111033152D01*
X126285238Y-111033152D02*
X126380477Y-111080771D01*
X126380477Y-111080771D02*
X126428096Y-111176009D01*
X126428096Y-111176009D02*
X126428096Y-111699819D01*
X126904286Y-111699819D02*
X126904286Y-111033152D01*
X126904286Y-111128390D02*
X126951905Y-111080771D01*
X126951905Y-111080771D02*
X127047143Y-111033152D01*
X127047143Y-111033152D02*
X127190000Y-111033152D01*
X127190000Y-111033152D02*
X127285238Y-111080771D01*
X127285238Y-111080771D02*
X127332857Y-111176009D01*
X127332857Y-111176009D02*
X127332857Y-111699819D01*
X127332857Y-111176009D02*
X127380476Y-111080771D01*
X127380476Y-111080771D02*
X127475714Y-111033152D01*
X127475714Y-111033152D02*
X127618571Y-111033152D01*
X127618571Y-111033152D02*
X127713810Y-111080771D01*
X127713810Y-111080771D02*
X127761429Y-111176009D01*
X127761429Y-111176009D02*
X127761429Y-111699819D01*
X81280000Y-107180000D02*
X81280000Y-112981420D01*
X165100000Y-107180000D02*
X165100000Y-112981420D01*
X81280000Y-112395000D02*
X165100000Y-112395000D01*
X81280000Y-112395000D02*
X165100000Y-112395000D01*
X81280000Y-112395000D02*
X82406504Y-111808579D01*
X81280000Y-112395000D02*
X82406504Y-112981421D01*
X165100000Y-112395000D02*
X163973496Y-112981421D01*
X165100000Y-112395000D02*
X163973496Y-111808579D01*
X88090953Y-108255057D02*
X88138572Y-108207438D01*
X88138572Y-108207438D02*
X88233810Y-108159819D01*
X88233810Y-108159819D02*
X88471905Y-108159819D01*
X88471905Y-108159819D02*
X88567143Y-108207438D01*
X88567143Y-108207438D02*
X88614762Y-108255057D01*
X88614762Y-108255057D02*
X88662381Y-108350295D01*
X88662381Y-108350295D02*
X88662381Y-108445533D01*
X88662381Y-108445533D02*
X88614762Y-108588390D01*
X88614762Y-108588390D02*
X88043334Y-109159819D01*
X88043334Y-109159819D02*
X88662381Y-109159819D01*
X89043334Y-108255057D02*
X89090953Y-108207438D01*
X89090953Y-108207438D02*
X89186191Y-108159819D01*
X89186191Y-108159819D02*
X89424286Y-108159819D01*
X89424286Y-108159819D02*
X89519524Y-108207438D01*
X89519524Y-108207438D02*
X89567143Y-108255057D01*
X89567143Y-108255057D02*
X89614762Y-108350295D01*
X89614762Y-108350295D02*
X89614762Y-108445533D01*
X89614762Y-108445533D02*
X89567143Y-108588390D01*
X89567143Y-108588390D02*
X88995715Y-109159819D01*
X88995715Y-109159819D02*
X89614762Y-109159819D01*
X90043334Y-109064580D02*
X90090953Y-109112200D01*
X90090953Y-109112200D02*
X90043334Y-109159819D01*
X90043334Y-109159819D02*
X89995715Y-109112200D01*
X89995715Y-109112200D02*
X90043334Y-109064580D01*
X90043334Y-109064580D02*
X90043334Y-109159819D01*
X90662381Y-108588390D02*
X90567143Y-108540771D01*
X90567143Y-108540771D02*
X90519524Y-108493152D01*
X90519524Y-108493152D02*
X90471905Y-108397914D01*
X90471905Y-108397914D02*
X90471905Y-108350295D01*
X90471905Y-108350295D02*
X90519524Y-108255057D01*
X90519524Y-108255057D02*
X90567143Y-108207438D01*
X90567143Y-108207438D02*
X90662381Y-108159819D01*
X90662381Y-108159819D02*
X90852857Y-108159819D01*
X90852857Y-108159819D02*
X90948095Y-108207438D01*
X90948095Y-108207438D02*
X90995714Y-108255057D01*
X90995714Y-108255057D02*
X91043333Y-108350295D01*
X91043333Y-108350295D02*
X91043333Y-108397914D01*
X91043333Y-108397914D02*
X90995714Y-108493152D01*
X90995714Y-108493152D02*
X90948095Y-108540771D01*
X90948095Y-108540771D02*
X90852857Y-108588390D01*
X90852857Y-108588390D02*
X90662381Y-108588390D01*
X90662381Y-108588390D02*
X90567143Y-108636009D01*
X90567143Y-108636009D02*
X90519524Y-108683628D01*
X90519524Y-108683628D02*
X90471905Y-108778866D01*
X90471905Y-108778866D02*
X90471905Y-108969342D01*
X90471905Y-108969342D02*
X90519524Y-109064580D01*
X90519524Y-109064580D02*
X90567143Y-109112200D01*
X90567143Y-109112200D02*
X90662381Y-109159819D01*
X90662381Y-109159819D02*
X90852857Y-109159819D01*
X90852857Y-109159819D02*
X90948095Y-109112200D01*
X90948095Y-109112200D02*
X90995714Y-109064580D01*
X90995714Y-109064580D02*
X91043333Y-108969342D01*
X91043333Y-108969342D02*
X91043333Y-108778866D01*
X91043333Y-108778866D02*
X90995714Y-108683628D01*
X90995714Y-108683628D02*
X90948095Y-108636009D01*
X90948095Y-108636009D02*
X90852857Y-108588390D01*
X91900476Y-108159819D02*
X91710000Y-108159819D01*
X91710000Y-108159819D02*
X91614762Y-108207438D01*
X91614762Y-108207438D02*
X91567143Y-108255057D01*
X91567143Y-108255057D02*
X91471905Y-108397914D01*
X91471905Y-108397914D02*
X91424286Y-108588390D01*
X91424286Y-108588390D02*
X91424286Y-108969342D01*
X91424286Y-108969342D02*
X91471905Y-109064580D01*
X91471905Y-109064580D02*
X91519524Y-109112200D01*
X91519524Y-109112200D02*
X91614762Y-109159819D01*
X91614762Y-109159819D02*
X91805238Y-109159819D01*
X91805238Y-109159819D02*
X91900476Y-109112200D01*
X91900476Y-109112200D02*
X91948095Y-109064580D01*
X91948095Y-109064580D02*
X91995714Y-108969342D01*
X91995714Y-108969342D02*
X91995714Y-108731247D01*
X91995714Y-108731247D02*
X91948095Y-108636009D01*
X91948095Y-108636009D02*
X91900476Y-108588390D01*
X91900476Y-108588390D02*
X91805238Y-108540771D01*
X91805238Y-108540771D02*
X91614762Y-108540771D01*
X91614762Y-108540771D02*
X91519524Y-108588390D01*
X91519524Y-108588390D02*
X91471905Y-108636009D01*
X91471905Y-108636009D02*
X91424286Y-108731247D01*
X92614762Y-108159819D02*
X92710000Y-108159819D01*
X92710000Y-108159819D02*
X92805238Y-108207438D01*
X92805238Y-108207438D02*
X92852857Y-108255057D01*
X92852857Y-108255057D02*
X92900476Y-108350295D01*
X92900476Y-108350295D02*
X92948095Y-108540771D01*
X92948095Y-108540771D02*
X92948095Y-108778866D01*
X92948095Y-108778866D02*
X92900476Y-108969342D01*
X92900476Y-108969342D02*
X92852857Y-109064580D01*
X92852857Y-109064580D02*
X92805238Y-109112200D01*
X92805238Y-109112200D02*
X92710000Y-109159819D01*
X92710000Y-109159819D02*
X92614762Y-109159819D01*
X92614762Y-109159819D02*
X92519524Y-109112200D01*
X92519524Y-109112200D02*
X92471905Y-109064580D01*
X92471905Y-109064580D02*
X92424286Y-108969342D01*
X92424286Y-108969342D02*
X92376667Y-108778866D01*
X92376667Y-108778866D02*
X92376667Y-108540771D01*
X92376667Y-108540771D02*
X92424286Y-108350295D01*
X92424286Y-108350295D02*
X92471905Y-108255057D01*
X92471905Y-108255057D02*
X92519524Y-108207438D01*
X92519524Y-108207438D02*
X92614762Y-108159819D01*
X93567143Y-108159819D02*
X93662381Y-108159819D01*
X93662381Y-108159819D02*
X93757619Y-108207438D01*
X93757619Y-108207438D02*
X93805238Y-108255057D01*
X93805238Y-108255057D02*
X93852857Y-108350295D01*
X93852857Y-108350295D02*
X93900476Y-108540771D01*
X93900476Y-108540771D02*
X93900476Y-108778866D01*
X93900476Y-108778866D02*
X93852857Y-108969342D01*
X93852857Y-108969342D02*
X93805238Y-109064580D01*
X93805238Y-109064580D02*
X93757619Y-109112200D01*
X93757619Y-109112200D02*
X93662381Y-109159819D01*
X93662381Y-109159819D02*
X93567143Y-109159819D01*
X93567143Y-109159819D02*
X93471905Y-109112200D01*
X93471905Y-109112200D02*
X93424286Y-109064580D01*
X93424286Y-109064580D02*
X93376667Y-108969342D01*
X93376667Y-108969342D02*
X93329048Y-108778866D01*
X93329048Y-108778866D02*
X93329048Y-108540771D01*
X93329048Y-108540771D02*
X93376667Y-108350295D01*
X93376667Y-108350295D02*
X93424286Y-108255057D01*
X93424286Y-108255057D02*
X93471905Y-108207438D01*
X93471905Y-108207438D02*
X93567143Y-108159819D01*
X95090953Y-109159819D02*
X95090953Y-108493152D01*
X95090953Y-108588390D02*
X95138572Y-108540771D01*
X95138572Y-108540771D02*
X95233810Y-108493152D01*
X95233810Y-108493152D02*
X95376667Y-108493152D01*
X95376667Y-108493152D02*
X95471905Y-108540771D01*
X95471905Y-108540771D02*
X95519524Y-108636009D01*
X95519524Y-108636009D02*
X95519524Y-109159819D01*
X95519524Y-108636009D02*
X95567143Y-108540771D01*
X95567143Y-108540771D02*
X95662381Y-108493152D01*
X95662381Y-108493152D02*
X95805238Y-108493152D01*
X95805238Y-108493152D02*
X95900477Y-108540771D01*
X95900477Y-108540771D02*
X95948096Y-108636009D01*
X95948096Y-108636009D02*
X95948096Y-109159819D01*
X96424286Y-109159819D02*
X96424286Y-108493152D01*
X96424286Y-108588390D02*
X96471905Y-108540771D01*
X96471905Y-108540771D02*
X96567143Y-108493152D01*
X96567143Y-108493152D02*
X96710000Y-108493152D01*
X96710000Y-108493152D02*
X96805238Y-108540771D01*
X96805238Y-108540771D02*
X96852857Y-108636009D01*
X96852857Y-108636009D02*
X96852857Y-109159819D01*
X96852857Y-108636009D02*
X96900476Y-108540771D01*
X96900476Y-108540771D02*
X96995714Y-108493152D01*
X96995714Y-108493152D02*
X97138571Y-108493152D01*
X97138571Y-108493152D02*
X97233810Y-108540771D01*
X97233810Y-108540771D02*
X97281429Y-108636009D01*
X97281429Y-108636009D02*
X97281429Y-109159819D01*
X104140000Y-107180000D02*
X104140000Y-110441420D01*
X81280000Y-107180000D02*
X81280000Y-110441420D01*
X104140000Y-109855000D02*
X81280000Y-109855000D01*
X104140000Y-109855000D02*
X81280000Y-109855000D01*
X104140000Y-109855000D02*
X103013496Y-110441421D01*
X104140000Y-109855000D02*
X103013496Y-109268579D01*
X81280000Y-109855000D02*
X82406504Y-109268579D01*
X81280000Y-109855000D02*
X82406504Y-110441421D01*
X97364819Y-95471665D02*
X97364819Y-94852618D01*
X97364819Y-94852618D02*
X97745771Y-95185951D01*
X97745771Y-95185951D02*
X97745771Y-95043094D01*
X97745771Y-95043094D02*
X97793390Y-94947856D01*
X97793390Y-94947856D02*
X97841009Y-94900237D01*
X97841009Y-94900237D02*
X97936247Y-94852618D01*
X97936247Y-94852618D02*
X98174342Y-94852618D01*
X98174342Y-94852618D02*
X98269580Y-94900237D01*
X98269580Y-94900237D02*
X98317200Y-94947856D01*
X98317200Y-94947856D02*
X98364819Y-95043094D01*
X98364819Y-95043094D02*
X98364819Y-95328808D01*
X98364819Y-95328808D02*
X98317200Y-95424046D01*
X98317200Y-95424046D02*
X98269580Y-95471665D01*
X98364819Y-93900237D02*
X98364819Y-94471665D01*
X98364819Y-94185951D02*
X97364819Y-94185951D01*
X97364819Y-94185951D02*
X97507676Y-94281189D01*
X97507676Y-94281189D02*
X97602914Y-94376427D01*
X97602914Y-94376427D02*
X97650533Y-94471665D01*
X98269580Y-93471665D02*
X98317200Y-93424046D01*
X98317200Y-93424046D02*
X98364819Y-93471665D01*
X98364819Y-93471665D02*
X98317200Y-93519284D01*
X98317200Y-93519284D02*
X98269580Y-93471665D01*
X98269580Y-93471665D02*
X98364819Y-93471665D01*
X97364819Y-93090713D02*
X97364819Y-92424047D01*
X97364819Y-92424047D02*
X98364819Y-92852618D01*
X97364819Y-91566904D02*
X97364819Y-92043094D01*
X97364819Y-92043094D02*
X97841009Y-92090713D01*
X97841009Y-92090713D02*
X97793390Y-92043094D01*
X97793390Y-92043094D02*
X97745771Y-91947856D01*
X97745771Y-91947856D02*
X97745771Y-91709761D01*
X97745771Y-91709761D02*
X97793390Y-91614523D01*
X97793390Y-91614523D02*
X97841009Y-91566904D01*
X97841009Y-91566904D02*
X97936247Y-91519285D01*
X97936247Y-91519285D02*
X98174342Y-91519285D01*
X98174342Y-91519285D02*
X98269580Y-91566904D01*
X98269580Y-91566904D02*
X98317200Y-91614523D01*
X98317200Y-91614523D02*
X98364819Y-91709761D01*
X98364819Y-91709761D02*
X98364819Y-91947856D01*
X98364819Y-91947856D02*
X98317200Y-92043094D01*
X98317200Y-92043094D02*
X98269580Y-92090713D01*
X97364819Y-90900237D02*
X97364819Y-90804999D01*
X97364819Y-90804999D02*
X97412438Y-90709761D01*
X97412438Y-90709761D02*
X97460057Y-90662142D01*
X97460057Y-90662142D02*
X97555295Y-90614523D01*
X97555295Y-90614523D02*
X97745771Y-90566904D01*
X97745771Y-90566904D02*
X97983866Y-90566904D01*
X97983866Y-90566904D02*
X98174342Y-90614523D01*
X98174342Y-90614523D02*
X98269580Y-90662142D01*
X98269580Y-90662142D02*
X98317200Y-90709761D01*
X98317200Y-90709761D02*
X98364819Y-90804999D01*
X98364819Y-90804999D02*
X98364819Y-90900237D01*
X98364819Y-90900237D02*
X98317200Y-90995475D01*
X98317200Y-90995475D02*
X98269580Y-91043094D01*
X98269580Y-91043094D02*
X98174342Y-91090713D01*
X98174342Y-91090713D02*
X97983866Y-91138332D01*
X97983866Y-91138332D02*
X97745771Y-91138332D01*
X97745771Y-91138332D02*
X97555295Y-91090713D01*
X97555295Y-91090713D02*
X97460057Y-91043094D01*
X97460057Y-91043094D02*
X97412438Y-90995475D01*
X97412438Y-90995475D02*
X97364819Y-90900237D01*
X97364819Y-89947856D02*
X97364819Y-89852618D01*
X97364819Y-89852618D02*
X97412438Y-89757380D01*
X97412438Y-89757380D02*
X97460057Y-89709761D01*
X97460057Y-89709761D02*
X97555295Y-89662142D01*
X97555295Y-89662142D02*
X97745771Y-89614523D01*
X97745771Y-89614523D02*
X97983866Y-89614523D01*
X97983866Y-89614523D02*
X98174342Y-89662142D01*
X98174342Y-89662142D02*
X98269580Y-89709761D01*
X98269580Y-89709761D02*
X98317200Y-89757380D01*
X98317200Y-89757380D02*
X98364819Y-89852618D01*
X98364819Y-89852618D02*
X98364819Y-89947856D01*
X98364819Y-89947856D02*
X98317200Y-90043094D01*
X98317200Y-90043094D02*
X98269580Y-90090713D01*
X98269580Y-90090713D02*
X98174342Y-90138332D01*
X98174342Y-90138332D02*
X97983866Y-90185951D01*
X97983866Y-90185951D02*
X97745771Y-90185951D01*
X97745771Y-90185951D02*
X97555295Y-90138332D01*
X97555295Y-90138332D02*
X97460057Y-90090713D01*
X97460057Y-90090713D02*
X97412438Y-90043094D01*
X97412438Y-90043094D02*
X97364819Y-89947856D01*
X98364819Y-88424046D02*
X97698152Y-88424046D01*
X97793390Y-88424046D02*
X97745771Y-88376427D01*
X97745771Y-88376427D02*
X97698152Y-88281189D01*
X97698152Y-88281189D02*
X97698152Y-88138332D01*
X97698152Y-88138332D02*
X97745771Y-88043094D01*
X97745771Y-88043094D02*
X97841009Y-87995475D01*
X97841009Y-87995475D02*
X98364819Y-87995475D01*
X97841009Y-87995475D02*
X97745771Y-87947856D01*
X97745771Y-87947856D02*
X97698152Y-87852618D01*
X97698152Y-87852618D02*
X97698152Y-87709761D01*
X97698152Y-87709761D02*
X97745771Y-87614522D01*
X97745771Y-87614522D02*
X97841009Y-87566903D01*
X97841009Y-87566903D02*
X98364819Y-87566903D01*
X98364819Y-87090713D02*
X97698152Y-87090713D01*
X97793390Y-87090713D02*
X97745771Y-87043094D01*
X97745771Y-87043094D02*
X97698152Y-86947856D01*
X97698152Y-86947856D02*
X97698152Y-86804999D01*
X97698152Y-86804999D02*
X97745771Y-86709761D01*
X97745771Y-86709761D02*
X97841009Y-86662142D01*
X97841009Y-86662142D02*
X98364819Y-86662142D01*
X97841009Y-86662142D02*
X97745771Y-86614523D01*
X97745771Y-86614523D02*
X97698152Y-86519285D01*
X97698152Y-86519285D02*
X97698152Y-86376428D01*
X97698152Y-86376428D02*
X97745771Y-86281189D01*
X97745771Y-86281189D02*
X97841009Y-86233570D01*
X97841009Y-86233570D02*
X98364819Y-86233570D01*
X103640000Y-106680000D02*
X98473580Y-106680000D01*
X103640000Y-74930000D02*
X98473580Y-74930000D01*
X99060000Y-106680000D02*
X99060000Y-74930000D01*
X99060000Y-106680000D02*
X99060000Y-74930000D01*
X99060000Y-106680000D02*
X98473579Y-105553496D01*
X99060000Y-106680000D02*
X99646421Y-105553496D01*
X99060000Y-74930000D02*
X99646421Y-76056504D01*
X99060000Y-74930000D02*
X98473579Y-76056504D01*
M02*
