M48
; DRILL file {KiCad 7.0.9} date Fri Dec 22 14:45:17 2023
; FORMAT={-:-/ absolute / inch / decimal}
; #@! TF.CreationDate,2023-12-22T14:45:17+09:00
; #@! TF.GenerationSoftware,Kicad,Pcbnew,7.0.9
; #@! TF.FileFunction,Plated,1,4,PTH
FMAT,2
INCH
; #@! TA.AperFunction,Plated,PTH,ViaDrill
T1C0.0157
; #@! TA.AperFunction,Plated,PTH,ComponentDrill
T2C0.0315
; #@! TA.AperFunction,Plated,PTH,ComponentDrill
T3C0.0394
; #@! TA.AperFunction,Plated,PTH,ComponentDrill
T4C0.1091
%
G90
G05
T1
X3.6963Y-4.0687
X3.7463Y-4.3187
X3.8463Y-4.9687
X4.0963Y-4.3187
X4.2963Y-4.9687
X4.4963Y-4.3187
X4.5963Y-5.4187
X4.6963Y-4.9687
X4.7963Y-3.1187
X4.7963Y-4.0187
X4.8463Y-4.3187
X4.8963Y-3.0687
X4.9463Y-4.2187
X4.9963Y-3.0687
X5.0963Y-4.9687
X5.1463Y-3.5187
X5.1963Y-2.9687
X5.1963Y-3.0687
X5.1963Y-4.0687
X5.2463Y-4.3187
X5.3963Y-4.2687
X5.4963Y-4.0187
X5.4963Y-4.9687
X5.5963Y-4.3187
X5.8463Y-4.9687
X5.8963Y-2.9187
X5.8963Y-3.0187
X5.8963Y-4.1187
X5.9463Y-4.5187
X6.1463Y-4.5187
X6.2463Y-4.0187
X6.2463Y-4.9687
X6.2963Y-3.0687
X6.3963Y-3.1187
X6.4463Y-4.3187
X6.4963Y-3.1687
X7.0463Y-4.3187
X7.0963Y-4.2187
X7.1213Y-4.0937
X7.2463Y-4.1187
X7.2963Y-4.5187
T2
X7.2713Y-3.3889
X7.2713Y-3.9889
X7.3213Y-2.4185
X7.3213Y-2.5185
X7.3213Y-2.6185
X7.3213Y-2.7185
X7.3213Y-2.8185
X7.3213Y-2.9185
X7.3213Y-3.0185
X7.3713Y-3.3889
X7.3713Y-3.9889
X7.4713Y-3.3889
X7.4713Y-3.9889
X7.5713Y-3.3889
X7.5713Y-3.9889
X7.6213Y-2.4185
X7.6213Y-2.5185
X7.6213Y-2.6185
X7.6213Y-2.7185
X7.6213Y-2.8185
X7.6213Y-2.9185
X7.6213Y-3.0185
X7.6713Y-3.3889
X7.6713Y-3.9889
X7.8213Y-3.3889
X7.8213Y-3.9889
X7.8717Y-2.4185
X7.8717Y-2.5185
X7.8717Y-2.6185
X7.8717Y-2.7185
X7.8717Y-2.8185
X7.8717Y-2.9185
X7.8717Y-3.0185
X7.9213Y-3.3889
X7.9213Y-3.9889
X8.0213Y-3.3889
X8.0213Y-3.9889
X8.1213Y-3.3889
X8.1213Y-3.9889
X8.1717Y-2.4185
X8.1717Y-2.5185
X8.1717Y-2.6185
X8.1717Y-2.7185
X8.1717Y-2.8185
X8.1717Y-2.9185
X8.1717Y-3.0185
X8.2213Y-3.3889
X8.2213Y-3.9889
T3
X4.7963Y-2.4687
X4.7963Y-3.7187
X4.8963Y-2.4687
X4.8963Y-3.7187
X4.9963Y-2.4687
X4.9963Y-3.7187
X5.0963Y-2.4687
X5.0963Y-3.7187
X5.1963Y-2.4687
X5.1963Y-3.7187
X5.2963Y-2.4687
X5.2963Y-3.7187
X5.3963Y-2.4687
X5.3963Y-3.7187
X5.4963Y-2.4687
X5.4963Y-3.7187
X5.5963Y-2.4687
X5.5963Y-3.7187
X5.6963Y-2.4687
X5.6963Y-3.7187
X5.7963Y-2.4687
X5.7963Y-3.7187
X5.8963Y-2.4687
X5.8963Y-3.7187
X5.9963Y-2.4687
X5.9963Y-3.7187
X6.0963Y-2.4687
X6.0963Y-3.7187
X6.1963Y-2.4687
X6.1963Y-3.7187
X6.2963Y-2.4687
X6.2963Y-3.7187
X6.3963Y-2.4687
X6.3963Y-3.7187
X6.4963Y-2.4687
X6.4963Y-3.7187
X6.5963Y-2.4687
X6.5963Y-3.7187
X6.6963Y-2.4687
X6.6963Y-3.7187
X6.9994Y-5.5187
X7.0978Y-5.5187
X7.1963Y-5.5187
X7.7963Y-5.2187
X7.9931Y-5.2187
T4
X6.9246Y-5.2431
X7.2711Y-5.2431
T0
M30
