%TF.GenerationSoftware,KiCad,Pcbnew,7.0.9*%
%TF.CreationDate,2023-12-22T14:45:04+09:00*%
%TF.ProjectId,Dev_IO_Board,4465765f-494f-45f4-926f-6172642e6b69,1.0.0*%
%TF.SameCoordinates,Original*%
%TF.FileFunction,Legend,Top*%
%TF.FilePolarity,Positive*%
%FSLAX46Y46*%
G04 Gerber Fmt 4.6, Leading zero omitted, Abs format (unit mm)*
G04 Created by KiCad (PCBNEW 7.0.9) date 2023-12-22 14:45:04*
%MOMM*%
%LPD*%
G01*
G04 APERTURE LIST*
G04 Aperture macros list*
%AMRoundRect*
0 Rectangle with rounded corners*
0 $1 Rounding radius*
0 $2 $3 $4 $5 $6 $7 $8 $9 X,Y pos of 4 corners*
0 Add a 4 corners polygon primitive as box body*
4,1,4,$2,$3,$4,$5,$6,$7,$8,$9,$2,$3,0*
0 Add four circle primitives for the rounded corners*
1,1,$1+$1,$2,$3*
1,1,$1+$1,$4,$5*
1,1,$1+$1,$6,$7*
1,1,$1+$1,$8,$9*
0 Add four rect primitives between the rounded corners*
20,1,$1+$1,$2,$3,$4,$5,0*
20,1,$1+$1,$4,$5,$6,$7,0*
20,1,$1+$1,$6,$7,$8,$9,0*
20,1,$1+$1,$8,$9,$2,$3,0*%
G04 Aperture macros list end*
%ADD10C,0.150000*%
%ADD11C,0.254000*%
%ADD12C,0.120000*%
%ADD13C,0.100000*%
%ADD14C,0.200000*%
%ADD15RoundRect,0.237500X-0.237500X0.250000X-0.237500X-0.250000X0.237500X-0.250000X0.237500X0.250000X0*%
%ADD16R,1.700000X1.700000*%
%ADD17O,1.700000X1.700000*%
%ADD18RoundRect,0.150000X-0.587500X-0.150000X0.587500X-0.150000X0.587500X0.150000X-0.587500X0.150000X0*%
%ADD19RoundRect,0.237500X0.300000X0.237500X-0.300000X0.237500X-0.300000X-0.237500X0.300000X-0.237500X0*%
%ADD20R,1.000000X1.500000*%
%ADD21RoundRect,0.237500X-0.250000X-0.237500X0.250000X-0.237500X0.250000X0.237500X-0.250000X0.237500X0*%
%ADD22R,1.600000X1.600000*%
%ADD23C,1.600000*%
%ADD24RoundRect,0.237500X-0.287500X-0.237500X0.287500X-0.237500X0.287500X0.237500X-0.287500X0.237500X0*%
%ADD25RoundRect,0.237500X0.250000X0.237500X-0.250000X0.237500X-0.250000X-0.237500X0.250000X-0.237500X0*%
%ADD26R,0.550000X0.350000*%
%ADD27R,0.350000X0.550000*%
%ADD28O,1.600000X1.600000*%
%ADD29R,1.500000X1.500000*%
%ADD30C,1.500000*%
%ADD31C,4.155000*%
%ADD32R,2.000000X2.000000*%
%ADD33C,2.000000*%
G04 APERTURE END LIST*
D10*
X98965000Y-58895951D02*
X182785000Y-58895951D01*
X182785000Y-98265951D01*
X98965000Y-98265951D01*
X98965000Y-58895951D01*
X87017200Y-90991790D02*
X87064819Y-90848933D01*
X87064819Y-90848933D02*
X87064819Y-90610838D01*
X87064819Y-90610838D02*
X87017200Y-90515600D01*
X87017200Y-90515600D02*
X86969580Y-90467981D01*
X86969580Y-90467981D02*
X86874342Y-90420362D01*
X86874342Y-90420362D02*
X86779104Y-90420362D01*
X86779104Y-90420362D02*
X86683866Y-90467981D01*
X86683866Y-90467981D02*
X86636247Y-90515600D01*
X86636247Y-90515600D02*
X86588628Y-90610838D01*
X86588628Y-90610838D02*
X86541009Y-90801314D01*
X86541009Y-90801314D02*
X86493390Y-90896552D01*
X86493390Y-90896552D02*
X86445771Y-90944171D01*
X86445771Y-90944171D02*
X86350533Y-90991790D01*
X86350533Y-90991790D02*
X86255295Y-90991790D01*
X86255295Y-90991790D02*
X86160057Y-90944171D01*
X86160057Y-90944171D02*
X86112438Y-90896552D01*
X86112438Y-90896552D02*
X86064819Y-90801314D01*
X86064819Y-90801314D02*
X86064819Y-90563219D01*
X86064819Y-90563219D02*
X86112438Y-90420362D01*
X86064819Y-90134647D02*
X86064819Y-89563219D01*
X87064819Y-89848933D02*
X86064819Y-89848933D01*
X87064819Y-89229885D02*
X86064819Y-89229885D01*
X86064819Y-89229885D02*
X86779104Y-88896552D01*
X86779104Y-88896552D02*
X86064819Y-88563219D01*
X86064819Y-88563219D02*
X87064819Y-88563219D01*
X86064819Y-88182266D02*
X86064819Y-87563219D01*
X86064819Y-87563219D02*
X86445771Y-87896552D01*
X86445771Y-87896552D02*
X86445771Y-87753695D01*
X86445771Y-87753695D02*
X86493390Y-87658457D01*
X86493390Y-87658457D02*
X86541009Y-87610838D01*
X86541009Y-87610838D02*
X86636247Y-87563219D01*
X86636247Y-87563219D02*
X86874342Y-87563219D01*
X86874342Y-87563219D02*
X86969580Y-87610838D01*
X86969580Y-87610838D02*
X87017200Y-87658457D01*
X87017200Y-87658457D02*
X87064819Y-87753695D01*
X87064819Y-87753695D02*
X87064819Y-88039409D01*
X87064819Y-88039409D02*
X87017200Y-88134647D01*
X87017200Y-88134647D02*
X86969580Y-88182266D01*
X86160057Y-87182266D02*
X86112438Y-87134647D01*
X86112438Y-87134647D02*
X86064819Y-87039409D01*
X86064819Y-87039409D02*
X86064819Y-86801314D01*
X86064819Y-86801314D02*
X86112438Y-86706076D01*
X86112438Y-86706076D02*
X86160057Y-86658457D01*
X86160057Y-86658457D02*
X86255295Y-86610838D01*
X86255295Y-86610838D02*
X86350533Y-86610838D01*
X86350533Y-86610838D02*
X86493390Y-86658457D01*
X86493390Y-86658457D02*
X87064819Y-87229885D01*
X87064819Y-87229885D02*
X87064819Y-86610838D01*
X86541009Y-85420361D02*
X86541009Y-85087028D01*
X87064819Y-84944171D02*
X87064819Y-85420361D01*
X87064819Y-85420361D02*
X86064819Y-85420361D01*
X86064819Y-85420361D02*
X86064819Y-84944171D01*
X87064819Y-84087028D02*
X86064819Y-84087028D01*
X87017200Y-84087028D02*
X87064819Y-84182266D01*
X87064819Y-84182266D02*
X87064819Y-84372742D01*
X87064819Y-84372742D02*
X87017200Y-84467980D01*
X87017200Y-84467980D02*
X86969580Y-84515599D01*
X86969580Y-84515599D02*
X86874342Y-84563218D01*
X86874342Y-84563218D02*
X86588628Y-84563218D01*
X86588628Y-84563218D02*
X86493390Y-84515599D01*
X86493390Y-84515599D02*
X86445771Y-84467980D01*
X86445771Y-84467980D02*
X86398152Y-84372742D01*
X86398152Y-84372742D02*
X86398152Y-84182266D01*
X86398152Y-84182266D02*
X86445771Y-84087028D01*
X86398152Y-83182266D02*
X87064819Y-83182266D01*
X86398152Y-83610837D02*
X86921961Y-83610837D01*
X86921961Y-83610837D02*
X87017200Y-83563218D01*
X87017200Y-83563218D02*
X87064819Y-83467980D01*
X87064819Y-83467980D02*
X87064819Y-83325123D01*
X87064819Y-83325123D02*
X87017200Y-83229885D01*
X87017200Y-83229885D02*
X86969580Y-83182266D01*
X87017200Y-82277504D02*
X87064819Y-82372742D01*
X87064819Y-82372742D02*
X87064819Y-82563218D01*
X87064819Y-82563218D02*
X87017200Y-82658456D01*
X87017200Y-82658456D02*
X86969580Y-82706075D01*
X86969580Y-82706075D02*
X86874342Y-82753694D01*
X86874342Y-82753694D02*
X86588628Y-82753694D01*
X86588628Y-82753694D02*
X86493390Y-82706075D01*
X86493390Y-82706075D02*
X86445771Y-82658456D01*
X86445771Y-82658456D02*
X86398152Y-82563218D01*
X86398152Y-82563218D02*
X86398152Y-82372742D01*
X86398152Y-82372742D02*
X86445771Y-82277504D01*
X87064819Y-81420361D02*
X86541009Y-81420361D01*
X86541009Y-81420361D02*
X86445771Y-81467980D01*
X86445771Y-81467980D02*
X86398152Y-81563218D01*
X86398152Y-81563218D02*
X86398152Y-81753694D01*
X86398152Y-81753694D02*
X86445771Y-81848932D01*
X87017200Y-81420361D02*
X87064819Y-81515599D01*
X87064819Y-81515599D02*
X87064819Y-81753694D01*
X87064819Y-81753694D02*
X87017200Y-81848932D01*
X87017200Y-81848932D02*
X86921961Y-81896551D01*
X86921961Y-81896551D02*
X86826723Y-81896551D01*
X86826723Y-81896551D02*
X86731485Y-81848932D01*
X86731485Y-81848932D02*
X86683866Y-81753694D01*
X86683866Y-81753694D02*
X86683866Y-81515599D01*
X86683866Y-81515599D02*
X86636247Y-81420361D01*
X86398152Y-81087027D02*
X86398152Y-80706075D01*
X86064819Y-80944170D02*
X86921961Y-80944170D01*
X86921961Y-80944170D02*
X87017200Y-80896551D01*
X87017200Y-80896551D02*
X87064819Y-80801313D01*
X87064819Y-80801313D02*
X87064819Y-80706075D01*
X87064819Y-80372741D02*
X86398152Y-80372741D01*
X86064819Y-80372741D02*
X86112438Y-80420360D01*
X86112438Y-80420360D02*
X86160057Y-80372741D01*
X86160057Y-80372741D02*
X86112438Y-80325122D01*
X86112438Y-80325122D02*
X86064819Y-80372741D01*
X86064819Y-80372741D02*
X86160057Y-80372741D01*
X87064819Y-79753694D02*
X87017200Y-79848932D01*
X87017200Y-79848932D02*
X86969580Y-79896551D01*
X86969580Y-79896551D02*
X86874342Y-79944170D01*
X86874342Y-79944170D02*
X86588628Y-79944170D01*
X86588628Y-79944170D02*
X86493390Y-79896551D01*
X86493390Y-79896551D02*
X86445771Y-79848932D01*
X86445771Y-79848932D02*
X86398152Y-79753694D01*
X86398152Y-79753694D02*
X86398152Y-79610837D01*
X86398152Y-79610837D02*
X86445771Y-79515599D01*
X86445771Y-79515599D02*
X86493390Y-79467980D01*
X86493390Y-79467980D02*
X86588628Y-79420361D01*
X86588628Y-79420361D02*
X86874342Y-79420361D01*
X86874342Y-79420361D02*
X86969580Y-79467980D01*
X86969580Y-79467980D02*
X87017200Y-79515599D01*
X87017200Y-79515599D02*
X87064819Y-79610837D01*
X87064819Y-79610837D02*
X87064819Y-79753694D01*
X86398152Y-78991789D02*
X87064819Y-78991789D01*
X86493390Y-78991789D02*
X86445771Y-78944170D01*
X86445771Y-78944170D02*
X86398152Y-78848932D01*
X86398152Y-78848932D02*
X86398152Y-78706075D01*
X86398152Y-78706075D02*
X86445771Y-78610837D01*
X86445771Y-78610837D02*
X86541009Y-78563218D01*
X86541009Y-78563218D02*
X87064819Y-78563218D01*
X87064819Y-77277503D02*
X87064819Y-77325123D01*
X87064819Y-77325123D02*
X87017200Y-77420361D01*
X87017200Y-77420361D02*
X86874342Y-77563218D01*
X86874342Y-77563218D02*
X86588628Y-77801313D01*
X86588628Y-77801313D02*
X86445771Y-77896551D01*
X86445771Y-77896551D02*
X86302914Y-77944170D01*
X86302914Y-77944170D02*
X86207676Y-77944170D01*
X86207676Y-77944170D02*
X86112438Y-77896551D01*
X86112438Y-77896551D02*
X86064819Y-77801313D01*
X86064819Y-77801313D02*
X86064819Y-77753694D01*
X86064819Y-77753694D02*
X86112438Y-77658456D01*
X86112438Y-77658456D02*
X86207676Y-77610837D01*
X86207676Y-77610837D02*
X86255295Y-77610837D01*
X86255295Y-77610837D02*
X86350533Y-77658456D01*
X86350533Y-77658456D02*
X86398152Y-77706075D01*
X86398152Y-77706075D02*
X86588628Y-77991789D01*
X86588628Y-77991789D02*
X86636247Y-78039408D01*
X86636247Y-78039408D02*
X86731485Y-78087027D01*
X86731485Y-78087027D02*
X86874342Y-78087027D01*
X86874342Y-78087027D02*
X86969580Y-78039408D01*
X86969580Y-78039408D02*
X87017200Y-77991789D01*
X87017200Y-77991789D02*
X87064819Y-77896551D01*
X87064819Y-77896551D02*
X87064819Y-77753694D01*
X87064819Y-77753694D02*
X87017200Y-77658456D01*
X87017200Y-77658456D02*
X86969580Y-77610837D01*
X86969580Y-77610837D02*
X86779104Y-77467980D01*
X86779104Y-77467980D02*
X86636247Y-77420361D01*
X86636247Y-77420361D02*
X86541009Y-77420361D01*
X87064819Y-76848932D02*
X86064819Y-76848932D01*
X86064819Y-76848932D02*
X86064819Y-76610837D01*
X86064819Y-76610837D02*
X86112438Y-76467980D01*
X86112438Y-76467980D02*
X86207676Y-76372742D01*
X86207676Y-76372742D02*
X86302914Y-76325123D01*
X86302914Y-76325123D02*
X86493390Y-76277504D01*
X86493390Y-76277504D02*
X86636247Y-76277504D01*
X86636247Y-76277504D02*
X86826723Y-76325123D01*
X86826723Y-76325123D02*
X86921961Y-76372742D01*
X86921961Y-76372742D02*
X87017200Y-76467980D01*
X87017200Y-76467980D02*
X87064819Y-76610837D01*
X87064819Y-76610837D02*
X87064819Y-76848932D01*
X87017200Y-75467980D02*
X87064819Y-75563218D01*
X87064819Y-75563218D02*
X87064819Y-75753694D01*
X87064819Y-75753694D02*
X87017200Y-75848932D01*
X87017200Y-75848932D02*
X86921961Y-75896551D01*
X86921961Y-75896551D02*
X86541009Y-75896551D01*
X86541009Y-75896551D02*
X86445771Y-75848932D01*
X86445771Y-75848932D02*
X86398152Y-75753694D01*
X86398152Y-75753694D02*
X86398152Y-75563218D01*
X86398152Y-75563218D02*
X86445771Y-75467980D01*
X86445771Y-75467980D02*
X86541009Y-75420361D01*
X86541009Y-75420361D02*
X86636247Y-75420361D01*
X86636247Y-75420361D02*
X86731485Y-75896551D01*
X86398152Y-75087027D02*
X87064819Y-74848932D01*
X87064819Y-74848932D02*
X86398152Y-74610837D01*
X87017200Y-73848932D02*
X87064819Y-73944170D01*
X87064819Y-73944170D02*
X87064819Y-74134646D01*
X87064819Y-74134646D02*
X87017200Y-74229884D01*
X87017200Y-74229884D02*
X86921961Y-74277503D01*
X86921961Y-74277503D02*
X86541009Y-74277503D01*
X86541009Y-74277503D02*
X86445771Y-74229884D01*
X86445771Y-74229884D02*
X86398152Y-74134646D01*
X86398152Y-74134646D02*
X86398152Y-73944170D01*
X86398152Y-73944170D02*
X86445771Y-73848932D01*
X86445771Y-73848932D02*
X86541009Y-73801313D01*
X86541009Y-73801313D02*
X86636247Y-73801313D01*
X86636247Y-73801313D02*
X86731485Y-74277503D01*
X87064819Y-73229884D02*
X87017200Y-73325122D01*
X87017200Y-73325122D02*
X86921961Y-73372741D01*
X86921961Y-73372741D02*
X86064819Y-73372741D01*
X87064819Y-72706074D02*
X87017200Y-72801312D01*
X87017200Y-72801312D02*
X86969580Y-72848931D01*
X86969580Y-72848931D02*
X86874342Y-72896550D01*
X86874342Y-72896550D02*
X86588628Y-72896550D01*
X86588628Y-72896550D02*
X86493390Y-72848931D01*
X86493390Y-72848931D02*
X86445771Y-72801312D01*
X86445771Y-72801312D02*
X86398152Y-72706074D01*
X86398152Y-72706074D02*
X86398152Y-72563217D01*
X86398152Y-72563217D02*
X86445771Y-72467979D01*
X86445771Y-72467979D02*
X86493390Y-72420360D01*
X86493390Y-72420360D02*
X86588628Y-72372741D01*
X86588628Y-72372741D02*
X86874342Y-72372741D01*
X86874342Y-72372741D02*
X86969580Y-72420360D01*
X86969580Y-72420360D02*
X87017200Y-72467979D01*
X87017200Y-72467979D02*
X87064819Y-72563217D01*
X87064819Y-72563217D02*
X87064819Y-72706074D01*
X86398152Y-71944169D02*
X87398152Y-71944169D01*
X86445771Y-71944169D02*
X86398152Y-71848931D01*
X86398152Y-71848931D02*
X86398152Y-71658455D01*
X86398152Y-71658455D02*
X86445771Y-71563217D01*
X86445771Y-71563217D02*
X86493390Y-71515598D01*
X86493390Y-71515598D02*
X86588628Y-71467979D01*
X86588628Y-71467979D02*
X86874342Y-71467979D01*
X86874342Y-71467979D02*
X86969580Y-71515598D01*
X86969580Y-71515598D02*
X87017200Y-71563217D01*
X87017200Y-71563217D02*
X87064819Y-71658455D01*
X87064819Y-71658455D02*
X87064819Y-71848931D01*
X87064819Y-71848931D02*
X87017200Y-71944169D01*
X87064819Y-71039407D02*
X86398152Y-71039407D01*
X86493390Y-71039407D02*
X86445771Y-70991788D01*
X86445771Y-70991788D02*
X86398152Y-70896550D01*
X86398152Y-70896550D02*
X86398152Y-70753693D01*
X86398152Y-70753693D02*
X86445771Y-70658455D01*
X86445771Y-70658455D02*
X86541009Y-70610836D01*
X86541009Y-70610836D02*
X87064819Y-70610836D01*
X86541009Y-70610836D02*
X86445771Y-70563217D01*
X86445771Y-70563217D02*
X86398152Y-70467979D01*
X86398152Y-70467979D02*
X86398152Y-70325122D01*
X86398152Y-70325122D02*
X86445771Y-70229883D01*
X86445771Y-70229883D02*
X86541009Y-70182264D01*
X86541009Y-70182264D02*
X87064819Y-70182264D01*
X87017200Y-69325122D02*
X87064819Y-69420360D01*
X87064819Y-69420360D02*
X87064819Y-69610836D01*
X87064819Y-69610836D02*
X87017200Y-69706074D01*
X87017200Y-69706074D02*
X86921961Y-69753693D01*
X86921961Y-69753693D02*
X86541009Y-69753693D01*
X86541009Y-69753693D02*
X86445771Y-69706074D01*
X86445771Y-69706074D02*
X86398152Y-69610836D01*
X86398152Y-69610836D02*
X86398152Y-69420360D01*
X86398152Y-69420360D02*
X86445771Y-69325122D01*
X86445771Y-69325122D02*
X86541009Y-69277503D01*
X86541009Y-69277503D02*
X86636247Y-69277503D01*
X86636247Y-69277503D02*
X86731485Y-69753693D01*
X86398152Y-68848931D02*
X87064819Y-68848931D01*
X86493390Y-68848931D02*
X86445771Y-68801312D01*
X86445771Y-68801312D02*
X86398152Y-68706074D01*
X86398152Y-68706074D02*
X86398152Y-68563217D01*
X86398152Y-68563217D02*
X86445771Y-68467979D01*
X86445771Y-68467979D02*
X86541009Y-68420360D01*
X86541009Y-68420360D02*
X87064819Y-68420360D01*
X86398152Y-68087026D02*
X86398152Y-67706074D01*
X86064819Y-67944169D02*
X86921961Y-67944169D01*
X86921961Y-67944169D02*
X87017200Y-67896550D01*
X87017200Y-67896550D02*
X87064819Y-67801312D01*
X87064819Y-67801312D02*
X87064819Y-67706074D01*
X87064819Y-66610835D02*
X86064819Y-66610835D01*
X86017200Y-65420360D02*
X87302914Y-66277502D01*
X86064819Y-64896550D02*
X86064819Y-64706074D01*
X86064819Y-64706074D02*
X86112438Y-64610836D01*
X86112438Y-64610836D02*
X86207676Y-64515598D01*
X86207676Y-64515598D02*
X86398152Y-64467979D01*
X86398152Y-64467979D02*
X86731485Y-64467979D01*
X86731485Y-64467979D02*
X86921961Y-64515598D01*
X86921961Y-64515598D02*
X87017200Y-64610836D01*
X87017200Y-64610836D02*
X87064819Y-64706074D01*
X87064819Y-64706074D02*
X87064819Y-64896550D01*
X87064819Y-64896550D02*
X87017200Y-64991788D01*
X87017200Y-64991788D02*
X86921961Y-65087026D01*
X86921961Y-65087026D02*
X86731485Y-65134645D01*
X86731485Y-65134645D02*
X86398152Y-65134645D01*
X86398152Y-65134645D02*
X86207676Y-65087026D01*
X86207676Y-65087026D02*
X86112438Y-64991788D01*
X86112438Y-64991788D02*
X86064819Y-64896550D01*
X86541009Y-62944169D02*
X86588628Y-62801312D01*
X86588628Y-62801312D02*
X86636247Y-62753693D01*
X86636247Y-62753693D02*
X86731485Y-62706074D01*
X86731485Y-62706074D02*
X86874342Y-62706074D01*
X86874342Y-62706074D02*
X86969580Y-62753693D01*
X86969580Y-62753693D02*
X87017200Y-62801312D01*
X87017200Y-62801312D02*
X87064819Y-62896550D01*
X87064819Y-62896550D02*
X87064819Y-63277502D01*
X87064819Y-63277502D02*
X86064819Y-63277502D01*
X86064819Y-63277502D02*
X86064819Y-62944169D01*
X86064819Y-62944169D02*
X86112438Y-62848931D01*
X86112438Y-62848931D02*
X86160057Y-62801312D01*
X86160057Y-62801312D02*
X86255295Y-62753693D01*
X86255295Y-62753693D02*
X86350533Y-62753693D01*
X86350533Y-62753693D02*
X86445771Y-62801312D01*
X86445771Y-62801312D02*
X86493390Y-62848931D01*
X86493390Y-62848931D02*
X86541009Y-62944169D01*
X86541009Y-62944169D02*
X86541009Y-63277502D01*
X87064819Y-62134645D02*
X87017200Y-62229883D01*
X87017200Y-62229883D02*
X86969580Y-62277502D01*
X86969580Y-62277502D02*
X86874342Y-62325121D01*
X86874342Y-62325121D02*
X86588628Y-62325121D01*
X86588628Y-62325121D02*
X86493390Y-62277502D01*
X86493390Y-62277502D02*
X86445771Y-62229883D01*
X86445771Y-62229883D02*
X86398152Y-62134645D01*
X86398152Y-62134645D02*
X86398152Y-61991788D01*
X86398152Y-61991788D02*
X86445771Y-61896550D01*
X86445771Y-61896550D02*
X86493390Y-61848931D01*
X86493390Y-61848931D02*
X86588628Y-61801312D01*
X86588628Y-61801312D02*
X86874342Y-61801312D01*
X86874342Y-61801312D02*
X86969580Y-61848931D01*
X86969580Y-61848931D02*
X87017200Y-61896550D01*
X87017200Y-61896550D02*
X87064819Y-61991788D01*
X87064819Y-61991788D02*
X87064819Y-62134645D01*
X87064819Y-60944169D02*
X86541009Y-60944169D01*
X86541009Y-60944169D02*
X86445771Y-60991788D01*
X86445771Y-60991788D02*
X86398152Y-61087026D01*
X86398152Y-61087026D02*
X86398152Y-61277502D01*
X86398152Y-61277502D02*
X86445771Y-61372740D01*
X87017200Y-60944169D02*
X87064819Y-61039407D01*
X87064819Y-61039407D02*
X87064819Y-61277502D01*
X87064819Y-61277502D02*
X87017200Y-61372740D01*
X87017200Y-61372740D02*
X86921961Y-61420359D01*
X86921961Y-61420359D02*
X86826723Y-61420359D01*
X86826723Y-61420359D02*
X86731485Y-61372740D01*
X86731485Y-61372740D02*
X86683866Y-61277502D01*
X86683866Y-61277502D02*
X86683866Y-61039407D01*
X86683866Y-61039407D02*
X86636247Y-60944169D01*
X87064819Y-60467978D02*
X86398152Y-60467978D01*
X86588628Y-60467978D02*
X86493390Y-60420359D01*
X86493390Y-60420359D02*
X86445771Y-60372740D01*
X86445771Y-60372740D02*
X86398152Y-60277502D01*
X86398152Y-60277502D02*
X86398152Y-60182264D01*
X87064819Y-59420359D02*
X86064819Y-59420359D01*
X87017200Y-59420359D02*
X87064819Y-59515597D01*
X87064819Y-59515597D02*
X87064819Y-59706073D01*
X87064819Y-59706073D02*
X87017200Y-59801311D01*
X87017200Y-59801311D02*
X86969580Y-59848930D01*
X86969580Y-59848930D02*
X86874342Y-59896549D01*
X86874342Y-59896549D02*
X86588628Y-59896549D01*
X86588628Y-59896549D02*
X86493390Y-59848930D01*
X86493390Y-59848930D02*
X86445771Y-59801311D01*
X86445771Y-59801311D02*
X86398152Y-59706073D01*
X86398152Y-59706073D02*
X86398152Y-59515597D01*
X86398152Y-59515597D02*
X86445771Y-59420359D01*
X88674819Y-90944171D02*
X87674819Y-90944171D01*
X87674819Y-90944171D02*
X88389104Y-90610838D01*
X88389104Y-90610838D02*
X87674819Y-90277505D01*
X87674819Y-90277505D02*
X88674819Y-90277505D01*
X88674819Y-89372743D02*
X88151009Y-89372743D01*
X88151009Y-89372743D02*
X88055771Y-89420362D01*
X88055771Y-89420362D02*
X88008152Y-89515600D01*
X88008152Y-89515600D02*
X88008152Y-89706076D01*
X88008152Y-89706076D02*
X88055771Y-89801314D01*
X88627200Y-89372743D02*
X88674819Y-89467981D01*
X88674819Y-89467981D02*
X88674819Y-89706076D01*
X88674819Y-89706076D02*
X88627200Y-89801314D01*
X88627200Y-89801314D02*
X88531961Y-89848933D01*
X88531961Y-89848933D02*
X88436723Y-89848933D01*
X88436723Y-89848933D02*
X88341485Y-89801314D01*
X88341485Y-89801314D02*
X88293866Y-89706076D01*
X88293866Y-89706076D02*
X88293866Y-89467981D01*
X88293866Y-89467981D02*
X88246247Y-89372743D01*
X88674819Y-88467981D02*
X87674819Y-88467981D01*
X88627200Y-88467981D02*
X88674819Y-88563219D01*
X88674819Y-88563219D02*
X88674819Y-88753695D01*
X88674819Y-88753695D02*
X88627200Y-88848933D01*
X88627200Y-88848933D02*
X88579580Y-88896552D01*
X88579580Y-88896552D02*
X88484342Y-88944171D01*
X88484342Y-88944171D02*
X88198628Y-88944171D01*
X88198628Y-88944171D02*
X88103390Y-88896552D01*
X88103390Y-88896552D02*
X88055771Y-88848933D01*
X88055771Y-88848933D02*
X88008152Y-88753695D01*
X88008152Y-88753695D02*
X88008152Y-88563219D01*
X88008152Y-88563219D02*
X88055771Y-88467981D01*
X88627200Y-87610838D02*
X88674819Y-87706076D01*
X88674819Y-87706076D02*
X88674819Y-87896552D01*
X88674819Y-87896552D02*
X88627200Y-87991790D01*
X88627200Y-87991790D02*
X88531961Y-88039409D01*
X88531961Y-88039409D02*
X88151009Y-88039409D01*
X88151009Y-88039409D02*
X88055771Y-87991790D01*
X88055771Y-87991790D02*
X88008152Y-87896552D01*
X88008152Y-87896552D02*
X88008152Y-87706076D01*
X88008152Y-87706076D02*
X88055771Y-87610838D01*
X88055771Y-87610838D02*
X88151009Y-87563219D01*
X88151009Y-87563219D02*
X88246247Y-87563219D01*
X88246247Y-87563219D02*
X88341485Y-88039409D01*
X88674819Y-86372742D02*
X87674819Y-86372742D01*
X88055771Y-86372742D02*
X88008152Y-86277504D01*
X88008152Y-86277504D02*
X88008152Y-86087028D01*
X88008152Y-86087028D02*
X88055771Y-85991790D01*
X88055771Y-85991790D02*
X88103390Y-85944171D01*
X88103390Y-85944171D02*
X88198628Y-85896552D01*
X88198628Y-85896552D02*
X88484342Y-85896552D01*
X88484342Y-85896552D02*
X88579580Y-85944171D01*
X88579580Y-85944171D02*
X88627200Y-85991790D01*
X88627200Y-85991790D02*
X88674819Y-86087028D01*
X88674819Y-86087028D02*
X88674819Y-86277504D01*
X88674819Y-86277504D02*
X88627200Y-86372742D01*
X88008152Y-85563218D02*
X88674819Y-85325123D01*
X88008152Y-85087028D02*
X88674819Y-85325123D01*
X88674819Y-85325123D02*
X88912914Y-85420361D01*
X88912914Y-85420361D02*
X88960533Y-85467980D01*
X88960533Y-85467980D02*
X89008152Y-85563218D01*
X87674819Y-83658456D02*
X88389104Y-83658456D01*
X88389104Y-83658456D02*
X88531961Y-83706075D01*
X88531961Y-83706075D02*
X88627200Y-83801313D01*
X88627200Y-83801313D02*
X88674819Y-83944170D01*
X88674819Y-83944170D02*
X88674819Y-84039408D01*
X88674819Y-83039408D02*
X88627200Y-83134646D01*
X88627200Y-83134646D02*
X88579580Y-83182265D01*
X88579580Y-83182265D02*
X88484342Y-83229884D01*
X88484342Y-83229884D02*
X88198628Y-83229884D01*
X88198628Y-83229884D02*
X88103390Y-83182265D01*
X88103390Y-83182265D02*
X88055771Y-83134646D01*
X88055771Y-83134646D02*
X88008152Y-83039408D01*
X88008152Y-83039408D02*
X88008152Y-82896551D01*
X88008152Y-82896551D02*
X88055771Y-82801313D01*
X88055771Y-82801313D02*
X88103390Y-82753694D01*
X88103390Y-82753694D02*
X88198628Y-82706075D01*
X88198628Y-82706075D02*
X88484342Y-82706075D01*
X88484342Y-82706075D02*
X88579580Y-82753694D01*
X88579580Y-82753694D02*
X88627200Y-82801313D01*
X88627200Y-82801313D02*
X88674819Y-82896551D01*
X88674819Y-82896551D02*
X88674819Y-83039408D01*
X88008152Y-82277503D02*
X88674819Y-82277503D01*
X88103390Y-82277503D02*
X88055771Y-82229884D01*
X88055771Y-82229884D02*
X88008152Y-82134646D01*
X88008152Y-82134646D02*
X88008152Y-81991789D01*
X88008152Y-81991789D02*
X88055771Y-81896551D01*
X88055771Y-81896551D02*
X88151009Y-81848932D01*
X88151009Y-81848932D02*
X88674819Y-81848932D01*
X88008152Y-80944170D02*
X88817676Y-80944170D01*
X88817676Y-80944170D02*
X88912914Y-80991789D01*
X88912914Y-80991789D02*
X88960533Y-81039408D01*
X88960533Y-81039408D02*
X89008152Y-81134646D01*
X89008152Y-81134646D02*
X89008152Y-81277503D01*
X89008152Y-81277503D02*
X88960533Y-81372741D01*
X88627200Y-80944170D02*
X88674819Y-81039408D01*
X88674819Y-81039408D02*
X88674819Y-81229884D01*
X88674819Y-81229884D02*
X88627200Y-81325122D01*
X88627200Y-81325122D02*
X88579580Y-81372741D01*
X88579580Y-81372741D02*
X88484342Y-81420360D01*
X88484342Y-81420360D02*
X88198628Y-81420360D01*
X88198628Y-81420360D02*
X88103390Y-81372741D01*
X88103390Y-81372741D02*
X88055771Y-81325122D01*
X88055771Y-81325122D02*
X88008152Y-81229884D01*
X88008152Y-81229884D02*
X88008152Y-81039408D01*
X88008152Y-81039408D02*
X88055771Y-80944170D01*
X88674819Y-80467979D02*
X87674819Y-80467979D01*
X88674819Y-80039408D02*
X88151009Y-80039408D01*
X88151009Y-80039408D02*
X88055771Y-80087027D01*
X88055771Y-80087027D02*
X88008152Y-80182265D01*
X88008152Y-80182265D02*
X88008152Y-80325122D01*
X88008152Y-80325122D02*
X88055771Y-80420360D01*
X88055771Y-80420360D02*
X88103390Y-80467979D01*
X88627200Y-79182265D02*
X88674819Y-79277503D01*
X88674819Y-79277503D02*
X88674819Y-79467979D01*
X88674819Y-79467979D02*
X88627200Y-79563217D01*
X88627200Y-79563217D02*
X88531961Y-79610836D01*
X88531961Y-79610836D02*
X88151009Y-79610836D01*
X88151009Y-79610836D02*
X88055771Y-79563217D01*
X88055771Y-79563217D02*
X88008152Y-79467979D01*
X88008152Y-79467979D02*
X88008152Y-79277503D01*
X88008152Y-79277503D02*
X88055771Y-79182265D01*
X88055771Y-79182265D02*
X88151009Y-79134646D01*
X88151009Y-79134646D02*
X88246247Y-79134646D01*
X88246247Y-79134646D02*
X88341485Y-79610836D01*
X88627200Y-78325122D02*
X88674819Y-78420360D01*
X88674819Y-78420360D02*
X88674819Y-78610836D01*
X88674819Y-78610836D02*
X88627200Y-78706074D01*
X88627200Y-78706074D02*
X88531961Y-78753693D01*
X88531961Y-78753693D02*
X88151009Y-78753693D01*
X88151009Y-78753693D02*
X88055771Y-78706074D01*
X88055771Y-78706074D02*
X88008152Y-78610836D01*
X88008152Y-78610836D02*
X88008152Y-78420360D01*
X88008152Y-78420360D02*
X88055771Y-78325122D01*
X88055771Y-78325122D02*
X88151009Y-78277503D01*
X88151009Y-78277503D02*
X88246247Y-78277503D01*
X88246247Y-78277503D02*
X88341485Y-78753693D01*
X88627200Y-77134645D02*
X88674819Y-76991788D01*
X88674819Y-76991788D02*
X88674819Y-76753693D01*
X88674819Y-76753693D02*
X88627200Y-76658455D01*
X88627200Y-76658455D02*
X88579580Y-76610836D01*
X88579580Y-76610836D02*
X88484342Y-76563217D01*
X88484342Y-76563217D02*
X88389104Y-76563217D01*
X88389104Y-76563217D02*
X88293866Y-76610836D01*
X88293866Y-76610836D02*
X88246247Y-76658455D01*
X88246247Y-76658455D02*
X88198628Y-76753693D01*
X88198628Y-76753693D02*
X88151009Y-76944169D01*
X88151009Y-76944169D02*
X88103390Y-77039407D01*
X88103390Y-77039407D02*
X88055771Y-77087026D01*
X88055771Y-77087026D02*
X87960533Y-77134645D01*
X87960533Y-77134645D02*
X87865295Y-77134645D01*
X87865295Y-77134645D02*
X87770057Y-77087026D01*
X87770057Y-77087026D02*
X87722438Y-77039407D01*
X87722438Y-77039407D02*
X87674819Y-76944169D01*
X87674819Y-76944169D02*
X87674819Y-76706074D01*
X87674819Y-76706074D02*
X87722438Y-76563217D01*
X88674819Y-75991788D02*
X88627200Y-76087026D01*
X88627200Y-76087026D02*
X88579580Y-76134645D01*
X88579580Y-76134645D02*
X88484342Y-76182264D01*
X88484342Y-76182264D02*
X88198628Y-76182264D01*
X88198628Y-76182264D02*
X88103390Y-76134645D01*
X88103390Y-76134645D02*
X88055771Y-76087026D01*
X88055771Y-76087026D02*
X88008152Y-75991788D01*
X88008152Y-75991788D02*
X88008152Y-75848931D01*
X88008152Y-75848931D02*
X88055771Y-75753693D01*
X88055771Y-75753693D02*
X88103390Y-75706074D01*
X88103390Y-75706074D02*
X88198628Y-75658455D01*
X88198628Y-75658455D02*
X88484342Y-75658455D01*
X88484342Y-75658455D02*
X88579580Y-75706074D01*
X88579580Y-75706074D02*
X88627200Y-75753693D01*
X88627200Y-75753693D02*
X88674819Y-75848931D01*
X88674819Y-75848931D02*
X88674819Y-75991788D01*
X88008152Y-75229883D02*
X88674819Y-75229883D01*
X88103390Y-75229883D02*
X88055771Y-75182264D01*
X88055771Y-75182264D02*
X88008152Y-75087026D01*
X88008152Y-75087026D02*
X88008152Y-74944169D01*
X88008152Y-74944169D02*
X88055771Y-74848931D01*
X88055771Y-74848931D02*
X88151009Y-74801312D01*
X88151009Y-74801312D02*
X88674819Y-74801312D01*
X166889819Y-126491308D02*
X166413628Y-126824641D01*
X166889819Y-127062736D02*
X165889819Y-127062736D01*
X165889819Y-127062736D02*
X165889819Y-126681784D01*
X165889819Y-126681784D02*
X165937438Y-126586546D01*
X165937438Y-126586546D02*
X165985057Y-126538927D01*
X165985057Y-126538927D02*
X166080295Y-126491308D01*
X166080295Y-126491308D02*
X166223152Y-126491308D01*
X166223152Y-126491308D02*
X166318390Y-126538927D01*
X166318390Y-126538927D02*
X166366009Y-126586546D01*
X166366009Y-126586546D02*
X166413628Y-126681784D01*
X166413628Y-126681784D02*
X166413628Y-127062736D01*
X165985057Y-126110355D02*
X165937438Y-126062736D01*
X165937438Y-126062736D02*
X165889819Y-125967498D01*
X165889819Y-125967498D02*
X165889819Y-125729403D01*
X165889819Y-125729403D02*
X165937438Y-125634165D01*
X165937438Y-125634165D02*
X165985057Y-125586546D01*
X165985057Y-125586546D02*
X166080295Y-125538927D01*
X166080295Y-125538927D02*
X166175533Y-125538927D01*
X166175533Y-125538927D02*
X166318390Y-125586546D01*
X166318390Y-125586546D02*
X166889819Y-126157974D01*
X166889819Y-126157974D02*
X166889819Y-125538927D01*
X165889819Y-124634165D02*
X165889819Y-125110355D01*
X165889819Y-125110355D02*
X166366009Y-125157974D01*
X166366009Y-125157974D02*
X166318390Y-125110355D01*
X166318390Y-125110355D02*
X166270771Y-125015117D01*
X166270771Y-125015117D02*
X166270771Y-124777022D01*
X166270771Y-124777022D02*
X166318390Y-124681784D01*
X166318390Y-124681784D02*
X166366009Y-124634165D01*
X166366009Y-124634165D02*
X166461247Y-124586546D01*
X166461247Y-124586546D02*
X166699342Y-124586546D01*
X166699342Y-124586546D02*
X166794580Y-124634165D01*
X166794580Y-124634165D02*
X166842200Y-124681784D01*
X166842200Y-124681784D02*
X166889819Y-124777022D01*
X166889819Y-124777022D02*
X166889819Y-125015117D01*
X166889819Y-125015117D02*
X166842200Y-125110355D01*
X166842200Y-125110355D02*
X166794580Y-125157974D01*
X118509819Y-63039284D02*
X119224104Y-63039284D01*
X119224104Y-63039284D02*
X119366961Y-63086903D01*
X119366961Y-63086903D02*
X119462200Y-63182141D01*
X119462200Y-63182141D02*
X119509819Y-63324998D01*
X119509819Y-63324998D02*
X119509819Y-63420236D01*
X119509819Y-62039284D02*
X119509819Y-62610712D01*
X119509819Y-62324998D02*
X118509819Y-62324998D01*
X118509819Y-62324998D02*
X118652676Y-62420236D01*
X118652676Y-62420236D02*
X118747914Y-62515474D01*
X118747914Y-62515474D02*
X118795533Y-62610712D01*
X89647261Y-116416008D02*
X89552023Y-116368389D01*
X89552023Y-116368389D02*
X89456785Y-116273151D01*
X89456785Y-116273151D02*
X89313928Y-116130293D01*
X89313928Y-116130293D02*
X89218690Y-116082674D01*
X89218690Y-116082674D02*
X89123452Y-116082674D01*
X89171071Y-116320770D02*
X89075833Y-116273151D01*
X89075833Y-116273151D02*
X88980595Y-116177912D01*
X88980595Y-116177912D02*
X88932976Y-115987436D01*
X88932976Y-115987436D02*
X88932976Y-115654103D01*
X88932976Y-115654103D02*
X88980595Y-115463627D01*
X88980595Y-115463627D02*
X89075833Y-115368389D01*
X89075833Y-115368389D02*
X89171071Y-115320770D01*
X89171071Y-115320770D02*
X89361547Y-115320770D01*
X89361547Y-115320770D02*
X89456785Y-115368389D01*
X89456785Y-115368389D02*
X89552023Y-115463627D01*
X89552023Y-115463627D02*
X89599642Y-115654103D01*
X89599642Y-115654103D02*
X89599642Y-115987436D01*
X89599642Y-115987436D02*
X89552023Y-116177912D01*
X89552023Y-116177912D02*
X89456785Y-116273151D01*
X89456785Y-116273151D02*
X89361547Y-116320770D01*
X89361547Y-116320770D02*
X89171071Y-116320770D01*
X90552023Y-116320770D02*
X89980595Y-116320770D01*
X90266309Y-116320770D02*
X90266309Y-115320770D01*
X90266309Y-115320770D02*
X90171071Y-115463627D01*
X90171071Y-115463627D02*
X90075833Y-115558865D01*
X90075833Y-115558865D02*
X89980595Y-115606484D01*
X129278333Y-114025531D02*
X129230714Y-114073151D01*
X129230714Y-114073151D02*
X129087857Y-114120770D01*
X129087857Y-114120770D02*
X128992619Y-114120770D01*
X128992619Y-114120770D02*
X128849762Y-114073151D01*
X128849762Y-114073151D02*
X128754524Y-113977912D01*
X128754524Y-113977912D02*
X128706905Y-113882674D01*
X128706905Y-113882674D02*
X128659286Y-113692198D01*
X128659286Y-113692198D02*
X128659286Y-113549341D01*
X128659286Y-113549341D02*
X128706905Y-113358865D01*
X128706905Y-113358865D02*
X128754524Y-113263627D01*
X128754524Y-113263627D02*
X128849762Y-113168389D01*
X128849762Y-113168389D02*
X128992619Y-113120770D01*
X128992619Y-113120770D02*
X129087857Y-113120770D01*
X129087857Y-113120770D02*
X129230714Y-113168389D01*
X129230714Y-113168389D02*
X129278333Y-113216008D01*
X130183095Y-113120770D02*
X129706905Y-113120770D01*
X129706905Y-113120770D02*
X129659286Y-113596960D01*
X129659286Y-113596960D02*
X129706905Y-113549341D01*
X129706905Y-113549341D02*
X129802143Y-113501722D01*
X129802143Y-113501722D02*
X130040238Y-113501722D01*
X130040238Y-113501722D02*
X130135476Y-113549341D01*
X130135476Y-113549341D02*
X130183095Y-113596960D01*
X130183095Y-113596960D02*
X130230714Y-113692198D01*
X130230714Y-113692198D02*
X130230714Y-113930293D01*
X130230714Y-113930293D02*
X130183095Y-114025531D01*
X130183095Y-114025531D02*
X130135476Y-114073151D01*
X130135476Y-114073151D02*
X130040238Y-114120770D01*
X130040238Y-114120770D02*
X129802143Y-114120770D01*
X129802143Y-114120770D02*
X129706905Y-114073151D01*
X129706905Y-114073151D02*
X129659286Y-114025531D01*
D11*
X131192380Y-135609793D02*
X131373809Y-135670269D01*
X131373809Y-135670269D02*
X131676190Y-135670269D01*
X131676190Y-135670269D02*
X131797142Y-135609793D01*
X131797142Y-135609793D02*
X131857618Y-135549316D01*
X131857618Y-135549316D02*
X131918095Y-135428364D01*
X131918095Y-135428364D02*
X131918095Y-135307412D01*
X131918095Y-135307412D02*
X131857618Y-135186459D01*
X131857618Y-135186459D02*
X131797142Y-135125983D01*
X131797142Y-135125983D02*
X131676190Y-135065507D01*
X131676190Y-135065507D02*
X131434285Y-135005031D01*
X131434285Y-135005031D02*
X131313333Y-134944554D01*
X131313333Y-134944554D02*
X131252856Y-134884078D01*
X131252856Y-134884078D02*
X131192380Y-134763126D01*
X131192380Y-134763126D02*
X131192380Y-134642173D01*
X131192380Y-134642173D02*
X131252856Y-134521221D01*
X131252856Y-134521221D02*
X131313333Y-134460745D01*
X131313333Y-134460745D02*
X131434285Y-134400269D01*
X131434285Y-134400269D02*
X131736666Y-134400269D01*
X131736666Y-134400269D02*
X131918095Y-134460745D01*
X133067142Y-134400269D02*
X132462380Y-134400269D01*
X132462380Y-134400269D02*
X132401904Y-135005031D01*
X132401904Y-135005031D02*
X132462380Y-134944554D01*
X132462380Y-134944554D02*
X132583333Y-134884078D01*
X132583333Y-134884078D02*
X132885714Y-134884078D01*
X132885714Y-134884078D02*
X133006666Y-134944554D01*
X133006666Y-134944554D02*
X133067142Y-135005031D01*
X133067142Y-135005031D02*
X133127619Y-135125983D01*
X133127619Y-135125983D02*
X133127619Y-135428364D01*
X133127619Y-135428364D02*
X133067142Y-135549316D01*
X133067142Y-135549316D02*
X133006666Y-135609793D01*
X133006666Y-135609793D02*
X132885714Y-135670269D01*
X132885714Y-135670269D02*
X132583333Y-135670269D01*
X132583333Y-135670269D02*
X132462380Y-135609793D01*
X132462380Y-135609793D02*
X132401904Y-135549316D01*
D10*
X198294642Y-123960770D02*
X197961309Y-123484579D01*
X197723214Y-123960770D02*
X197723214Y-122960770D01*
X197723214Y-122960770D02*
X198104166Y-122960770D01*
X198104166Y-122960770D02*
X198199404Y-123008389D01*
X198199404Y-123008389D02*
X198247023Y-123056008D01*
X198247023Y-123056008D02*
X198294642Y-123151246D01*
X198294642Y-123151246D02*
X198294642Y-123294103D01*
X198294642Y-123294103D02*
X198247023Y-123389341D01*
X198247023Y-123389341D02*
X198199404Y-123436960D01*
X198199404Y-123436960D02*
X198104166Y-123484579D01*
X198104166Y-123484579D02*
X197723214Y-123484579D01*
X198675595Y-123056008D02*
X198723214Y-123008389D01*
X198723214Y-123008389D02*
X198818452Y-122960770D01*
X198818452Y-122960770D02*
X199056547Y-122960770D01*
X199056547Y-122960770D02*
X199151785Y-123008389D01*
X199151785Y-123008389D02*
X199199404Y-123056008D01*
X199199404Y-123056008D02*
X199247023Y-123151246D01*
X199247023Y-123151246D02*
X199247023Y-123246484D01*
X199247023Y-123246484D02*
X199199404Y-123389341D01*
X199199404Y-123389341D02*
X198627976Y-123960770D01*
X198627976Y-123960770D02*
X199247023Y-123960770D01*
X200104166Y-122960770D02*
X199913690Y-122960770D01*
X199913690Y-122960770D02*
X199818452Y-123008389D01*
X199818452Y-123008389D02*
X199770833Y-123056008D01*
X199770833Y-123056008D02*
X199675595Y-123198865D01*
X199675595Y-123198865D02*
X199627976Y-123389341D01*
X199627976Y-123389341D02*
X199627976Y-123770293D01*
X199627976Y-123770293D02*
X199675595Y-123865531D01*
X199675595Y-123865531D02*
X199723214Y-123913151D01*
X199723214Y-123913151D02*
X199818452Y-123960770D01*
X199818452Y-123960770D02*
X200008928Y-123960770D01*
X200008928Y-123960770D02*
X200104166Y-123913151D01*
X200104166Y-123913151D02*
X200151785Y-123865531D01*
X200151785Y-123865531D02*
X200199404Y-123770293D01*
X200199404Y-123770293D02*
X200199404Y-123532198D01*
X200199404Y-123532198D02*
X200151785Y-123436960D01*
X200151785Y-123436960D02*
X200104166Y-123389341D01*
X200104166Y-123389341D02*
X200008928Y-123341722D01*
X200008928Y-123341722D02*
X199818452Y-123341722D01*
X199818452Y-123341722D02*
X199723214Y-123389341D01*
X199723214Y-123389341D02*
X199675595Y-123436960D01*
X199675595Y-123436960D02*
X199627976Y-123532198D01*
X136409819Y-126491308D02*
X135933628Y-126824641D01*
X136409819Y-127062736D02*
X135409819Y-127062736D01*
X135409819Y-127062736D02*
X135409819Y-126681784D01*
X135409819Y-126681784D02*
X135457438Y-126586546D01*
X135457438Y-126586546D02*
X135505057Y-126538927D01*
X135505057Y-126538927D02*
X135600295Y-126491308D01*
X135600295Y-126491308D02*
X135743152Y-126491308D01*
X135743152Y-126491308D02*
X135838390Y-126538927D01*
X135838390Y-126538927D02*
X135886009Y-126586546D01*
X135886009Y-126586546D02*
X135933628Y-126681784D01*
X135933628Y-126681784D02*
X135933628Y-127062736D01*
X135505057Y-126110355D02*
X135457438Y-126062736D01*
X135457438Y-126062736D02*
X135409819Y-125967498D01*
X135409819Y-125967498D02*
X135409819Y-125729403D01*
X135409819Y-125729403D02*
X135457438Y-125634165D01*
X135457438Y-125634165D02*
X135505057Y-125586546D01*
X135505057Y-125586546D02*
X135600295Y-125538927D01*
X135600295Y-125538927D02*
X135695533Y-125538927D01*
X135695533Y-125538927D02*
X135838390Y-125586546D01*
X135838390Y-125586546D02*
X136409819Y-126157974D01*
X136409819Y-126157974D02*
X136409819Y-125538927D01*
X135505057Y-125157974D02*
X135457438Y-125110355D01*
X135457438Y-125110355D02*
X135409819Y-125015117D01*
X135409819Y-125015117D02*
X135409819Y-124777022D01*
X135409819Y-124777022D02*
X135457438Y-124681784D01*
X135457438Y-124681784D02*
X135505057Y-124634165D01*
X135505057Y-124634165D02*
X135600295Y-124586546D01*
X135600295Y-124586546D02*
X135695533Y-124586546D01*
X135695533Y-124586546D02*
X135838390Y-124634165D01*
X135838390Y-124634165D02*
X136409819Y-125205593D01*
X136409819Y-125205593D02*
X136409819Y-124586546D01*
D11*
X141352380Y-135609793D02*
X141533809Y-135670269D01*
X141533809Y-135670269D02*
X141836190Y-135670269D01*
X141836190Y-135670269D02*
X141957142Y-135609793D01*
X141957142Y-135609793D02*
X142017618Y-135549316D01*
X142017618Y-135549316D02*
X142078095Y-135428364D01*
X142078095Y-135428364D02*
X142078095Y-135307412D01*
X142078095Y-135307412D02*
X142017618Y-135186459D01*
X142017618Y-135186459D02*
X141957142Y-135125983D01*
X141957142Y-135125983D02*
X141836190Y-135065507D01*
X141836190Y-135065507D02*
X141594285Y-135005031D01*
X141594285Y-135005031D02*
X141473333Y-134944554D01*
X141473333Y-134944554D02*
X141412856Y-134884078D01*
X141412856Y-134884078D02*
X141352380Y-134763126D01*
X141352380Y-134763126D02*
X141352380Y-134642173D01*
X141352380Y-134642173D02*
X141412856Y-134521221D01*
X141412856Y-134521221D02*
X141473333Y-134460745D01*
X141473333Y-134460745D02*
X141594285Y-134400269D01*
X141594285Y-134400269D02*
X141896666Y-134400269D01*
X141896666Y-134400269D02*
X142078095Y-134460745D01*
X143166666Y-134400269D02*
X142924761Y-134400269D01*
X142924761Y-134400269D02*
X142803809Y-134460745D01*
X142803809Y-134460745D02*
X142743333Y-134521221D01*
X142743333Y-134521221D02*
X142622380Y-134702650D01*
X142622380Y-134702650D02*
X142561904Y-134944554D01*
X142561904Y-134944554D02*
X142561904Y-135428364D01*
X142561904Y-135428364D02*
X142622380Y-135549316D01*
X142622380Y-135549316D02*
X142682857Y-135609793D01*
X142682857Y-135609793D02*
X142803809Y-135670269D01*
X142803809Y-135670269D02*
X143045714Y-135670269D01*
X143045714Y-135670269D02*
X143166666Y-135609793D01*
X143166666Y-135609793D02*
X143227142Y-135549316D01*
X143227142Y-135549316D02*
X143287619Y-135428364D01*
X143287619Y-135428364D02*
X143287619Y-135125983D01*
X143287619Y-135125983D02*
X143227142Y-135005031D01*
X143227142Y-135005031D02*
X143166666Y-134944554D01*
X143166666Y-134944554D02*
X143045714Y-134884078D01*
X143045714Y-134884078D02*
X142803809Y-134884078D01*
X142803809Y-134884078D02*
X142682857Y-134944554D01*
X142682857Y-134944554D02*
X142622380Y-135005031D01*
X142622380Y-135005031D02*
X142561904Y-135125983D01*
X110872380Y-135609793D02*
X111053809Y-135670269D01*
X111053809Y-135670269D02*
X111356190Y-135670269D01*
X111356190Y-135670269D02*
X111477142Y-135609793D01*
X111477142Y-135609793D02*
X111537618Y-135549316D01*
X111537618Y-135549316D02*
X111598095Y-135428364D01*
X111598095Y-135428364D02*
X111598095Y-135307412D01*
X111598095Y-135307412D02*
X111537618Y-135186459D01*
X111537618Y-135186459D02*
X111477142Y-135125983D01*
X111477142Y-135125983D02*
X111356190Y-135065507D01*
X111356190Y-135065507D02*
X111114285Y-135005031D01*
X111114285Y-135005031D02*
X110993333Y-134944554D01*
X110993333Y-134944554D02*
X110932856Y-134884078D01*
X110932856Y-134884078D02*
X110872380Y-134763126D01*
X110872380Y-134763126D02*
X110872380Y-134642173D01*
X110872380Y-134642173D02*
X110932856Y-134521221D01*
X110932856Y-134521221D02*
X110993333Y-134460745D01*
X110993333Y-134460745D02*
X111114285Y-134400269D01*
X111114285Y-134400269D02*
X111416666Y-134400269D01*
X111416666Y-134400269D02*
X111598095Y-134460745D01*
X112021428Y-134400269D02*
X112807619Y-134400269D01*
X112807619Y-134400269D02*
X112384285Y-134884078D01*
X112384285Y-134884078D02*
X112565714Y-134884078D01*
X112565714Y-134884078D02*
X112686666Y-134944554D01*
X112686666Y-134944554D02*
X112747142Y-135005031D01*
X112747142Y-135005031D02*
X112807619Y-135125983D01*
X112807619Y-135125983D02*
X112807619Y-135428364D01*
X112807619Y-135428364D02*
X112747142Y-135549316D01*
X112747142Y-135549316D02*
X112686666Y-135609793D01*
X112686666Y-135609793D02*
X112565714Y-135670269D01*
X112565714Y-135670269D02*
X112202857Y-135670269D01*
X112202857Y-135670269D02*
X112081904Y-135609793D01*
X112081904Y-135609793D02*
X112021428Y-135549316D01*
D10*
X196327261Y-118956008D02*
X196232023Y-118908389D01*
X196232023Y-118908389D02*
X196136785Y-118813151D01*
X196136785Y-118813151D02*
X195993928Y-118670293D01*
X195993928Y-118670293D02*
X195898690Y-118622674D01*
X195898690Y-118622674D02*
X195803452Y-118622674D01*
X195851071Y-118860770D02*
X195755833Y-118813151D01*
X195755833Y-118813151D02*
X195660595Y-118717912D01*
X195660595Y-118717912D02*
X195612976Y-118527436D01*
X195612976Y-118527436D02*
X195612976Y-118194103D01*
X195612976Y-118194103D02*
X195660595Y-118003627D01*
X195660595Y-118003627D02*
X195755833Y-117908389D01*
X195755833Y-117908389D02*
X195851071Y-117860770D01*
X195851071Y-117860770D02*
X196041547Y-117860770D01*
X196041547Y-117860770D02*
X196136785Y-117908389D01*
X196136785Y-117908389D02*
X196232023Y-118003627D01*
X196232023Y-118003627D02*
X196279642Y-118194103D01*
X196279642Y-118194103D02*
X196279642Y-118527436D01*
X196279642Y-118527436D02*
X196232023Y-118717912D01*
X196232023Y-118717912D02*
X196136785Y-118813151D01*
X196136785Y-118813151D02*
X196041547Y-118860770D01*
X196041547Y-118860770D02*
X195851071Y-118860770D01*
X196755833Y-118860770D02*
X196946309Y-118860770D01*
X196946309Y-118860770D02*
X197041547Y-118813151D01*
X197041547Y-118813151D02*
X197089166Y-118765531D01*
X197089166Y-118765531D02*
X197184404Y-118622674D01*
X197184404Y-118622674D02*
X197232023Y-118432198D01*
X197232023Y-118432198D02*
X197232023Y-118051246D01*
X197232023Y-118051246D02*
X197184404Y-117956008D01*
X197184404Y-117956008D02*
X197136785Y-117908389D01*
X197136785Y-117908389D02*
X197041547Y-117860770D01*
X197041547Y-117860770D02*
X196851071Y-117860770D01*
X196851071Y-117860770D02*
X196755833Y-117908389D01*
X196755833Y-117908389D02*
X196708214Y-117956008D01*
X196708214Y-117956008D02*
X196660595Y-118051246D01*
X196660595Y-118051246D02*
X196660595Y-118289341D01*
X196660595Y-118289341D02*
X196708214Y-118384579D01*
X196708214Y-118384579D02*
X196755833Y-118432198D01*
X196755833Y-118432198D02*
X196851071Y-118479817D01*
X196851071Y-118479817D02*
X197041547Y-118479817D01*
X197041547Y-118479817D02*
X197136785Y-118432198D01*
X197136785Y-118432198D02*
X197184404Y-118384579D01*
X197184404Y-118384579D02*
X197232023Y-118289341D01*
X149598333Y-114025531D02*
X149550714Y-114073151D01*
X149550714Y-114073151D02*
X149407857Y-114120770D01*
X149407857Y-114120770D02*
X149312619Y-114120770D01*
X149312619Y-114120770D02*
X149169762Y-114073151D01*
X149169762Y-114073151D02*
X149074524Y-113977912D01*
X149074524Y-113977912D02*
X149026905Y-113882674D01*
X149026905Y-113882674D02*
X148979286Y-113692198D01*
X148979286Y-113692198D02*
X148979286Y-113549341D01*
X148979286Y-113549341D02*
X149026905Y-113358865D01*
X149026905Y-113358865D02*
X149074524Y-113263627D01*
X149074524Y-113263627D02*
X149169762Y-113168389D01*
X149169762Y-113168389D02*
X149312619Y-113120770D01*
X149312619Y-113120770D02*
X149407857Y-113120770D01*
X149407857Y-113120770D02*
X149550714Y-113168389D01*
X149550714Y-113168389D02*
X149598333Y-113216008D01*
X149931667Y-113120770D02*
X150598333Y-113120770D01*
X150598333Y-113120770D02*
X150169762Y-114120770D01*
X118509819Y-94789284D02*
X119224104Y-94789284D01*
X119224104Y-94789284D02*
X119366961Y-94836903D01*
X119366961Y-94836903D02*
X119462200Y-94932141D01*
X119462200Y-94932141D02*
X119509819Y-95074998D01*
X119509819Y-95074998D02*
X119509819Y-95170236D01*
X118605057Y-94360712D02*
X118557438Y-94313093D01*
X118557438Y-94313093D02*
X118509819Y-94217855D01*
X118509819Y-94217855D02*
X118509819Y-93979760D01*
X118509819Y-93979760D02*
X118557438Y-93884522D01*
X118557438Y-93884522D02*
X118605057Y-93836903D01*
X118605057Y-93836903D02*
X118700295Y-93789284D01*
X118700295Y-93789284D02*
X118795533Y-93789284D01*
X118795533Y-93789284D02*
X118938390Y-93836903D01*
X118938390Y-93836903D02*
X119509819Y-94408331D01*
X119509819Y-94408331D02*
X119509819Y-93789284D01*
X126249819Y-126491308D02*
X125773628Y-126824641D01*
X126249819Y-127062736D02*
X125249819Y-127062736D01*
X125249819Y-127062736D02*
X125249819Y-126681784D01*
X125249819Y-126681784D02*
X125297438Y-126586546D01*
X125297438Y-126586546D02*
X125345057Y-126538927D01*
X125345057Y-126538927D02*
X125440295Y-126491308D01*
X125440295Y-126491308D02*
X125583152Y-126491308D01*
X125583152Y-126491308D02*
X125678390Y-126538927D01*
X125678390Y-126538927D02*
X125726009Y-126586546D01*
X125726009Y-126586546D02*
X125773628Y-126681784D01*
X125773628Y-126681784D02*
X125773628Y-127062736D01*
X125345057Y-126110355D02*
X125297438Y-126062736D01*
X125297438Y-126062736D02*
X125249819Y-125967498D01*
X125249819Y-125967498D02*
X125249819Y-125729403D01*
X125249819Y-125729403D02*
X125297438Y-125634165D01*
X125297438Y-125634165D02*
X125345057Y-125586546D01*
X125345057Y-125586546D02*
X125440295Y-125538927D01*
X125440295Y-125538927D02*
X125535533Y-125538927D01*
X125535533Y-125538927D02*
X125678390Y-125586546D01*
X125678390Y-125586546D02*
X126249819Y-126157974D01*
X126249819Y-126157974D02*
X126249819Y-125538927D01*
X126249819Y-124586546D02*
X126249819Y-125157974D01*
X126249819Y-124872260D02*
X125249819Y-124872260D01*
X125249819Y-124872260D02*
X125392676Y-124967498D01*
X125392676Y-124967498D02*
X125487914Y-125062736D01*
X125487914Y-125062736D02*
X125535533Y-125157974D01*
X120127261Y-116416008D02*
X120032023Y-116368389D01*
X120032023Y-116368389D02*
X119936785Y-116273151D01*
X119936785Y-116273151D02*
X119793928Y-116130293D01*
X119793928Y-116130293D02*
X119698690Y-116082674D01*
X119698690Y-116082674D02*
X119603452Y-116082674D01*
X119651071Y-116320770D02*
X119555833Y-116273151D01*
X119555833Y-116273151D02*
X119460595Y-116177912D01*
X119460595Y-116177912D02*
X119412976Y-115987436D01*
X119412976Y-115987436D02*
X119412976Y-115654103D01*
X119412976Y-115654103D02*
X119460595Y-115463627D01*
X119460595Y-115463627D02*
X119555833Y-115368389D01*
X119555833Y-115368389D02*
X119651071Y-115320770D01*
X119651071Y-115320770D02*
X119841547Y-115320770D01*
X119841547Y-115320770D02*
X119936785Y-115368389D01*
X119936785Y-115368389D02*
X120032023Y-115463627D01*
X120032023Y-115463627D02*
X120079642Y-115654103D01*
X120079642Y-115654103D02*
X120079642Y-115987436D01*
X120079642Y-115987436D02*
X120032023Y-116177912D01*
X120032023Y-116177912D02*
X119936785Y-116273151D01*
X119936785Y-116273151D02*
X119841547Y-116320770D01*
X119841547Y-116320770D02*
X119651071Y-116320770D01*
X120936785Y-115654103D02*
X120936785Y-116320770D01*
X120698690Y-115273151D02*
X120460595Y-115987436D01*
X120460595Y-115987436D02*
X121079642Y-115987436D01*
X181664819Y-102050355D02*
X182474342Y-102050355D01*
X182474342Y-102050355D02*
X182569580Y-102002736D01*
X182569580Y-102002736D02*
X182617200Y-101955117D01*
X182617200Y-101955117D02*
X182664819Y-101859879D01*
X182664819Y-101859879D02*
X182664819Y-101669403D01*
X182664819Y-101669403D02*
X182617200Y-101574165D01*
X182617200Y-101574165D02*
X182569580Y-101526546D01*
X182569580Y-101526546D02*
X182474342Y-101478927D01*
X182474342Y-101478927D02*
X181664819Y-101478927D01*
X181998152Y-100574165D02*
X182664819Y-100574165D01*
X181617200Y-100812260D02*
X182331485Y-101050355D01*
X182331485Y-101050355D02*
X182331485Y-100431308D01*
X146569819Y-117482617D02*
X146093628Y-117815950D01*
X146569819Y-118054045D02*
X145569819Y-118054045D01*
X145569819Y-118054045D02*
X145569819Y-117673093D01*
X145569819Y-117673093D02*
X145617438Y-117577855D01*
X145617438Y-117577855D02*
X145665057Y-117530236D01*
X145665057Y-117530236D02*
X145760295Y-117482617D01*
X145760295Y-117482617D02*
X145903152Y-117482617D01*
X145903152Y-117482617D02*
X145998390Y-117530236D01*
X145998390Y-117530236D02*
X146046009Y-117577855D01*
X146046009Y-117577855D02*
X146093628Y-117673093D01*
X146093628Y-117673093D02*
X146093628Y-118054045D01*
X145569819Y-116625474D02*
X145569819Y-116815950D01*
X145569819Y-116815950D02*
X145617438Y-116911188D01*
X145617438Y-116911188D02*
X145665057Y-116958807D01*
X145665057Y-116958807D02*
X145807914Y-117054045D01*
X145807914Y-117054045D02*
X145998390Y-117101664D01*
X145998390Y-117101664D02*
X146379342Y-117101664D01*
X146379342Y-117101664D02*
X146474580Y-117054045D01*
X146474580Y-117054045D02*
X146522200Y-117006426D01*
X146522200Y-117006426D02*
X146569819Y-116911188D01*
X146569819Y-116911188D02*
X146569819Y-116720712D01*
X146569819Y-116720712D02*
X146522200Y-116625474D01*
X146522200Y-116625474D02*
X146474580Y-116577855D01*
X146474580Y-116577855D02*
X146379342Y-116530236D01*
X146379342Y-116530236D02*
X146141247Y-116530236D01*
X146141247Y-116530236D02*
X146046009Y-116577855D01*
X146046009Y-116577855D02*
X145998390Y-116625474D01*
X145998390Y-116625474D02*
X145950771Y-116720712D01*
X145950771Y-116720712D02*
X145950771Y-116911188D01*
X145950771Y-116911188D02*
X145998390Y-117006426D01*
X145998390Y-117006426D02*
X146046009Y-117054045D01*
X146046009Y-117054045D02*
X146141247Y-117101664D01*
X105929819Y-126491308D02*
X105453628Y-126824641D01*
X105929819Y-127062736D02*
X104929819Y-127062736D01*
X104929819Y-127062736D02*
X104929819Y-126681784D01*
X104929819Y-126681784D02*
X104977438Y-126586546D01*
X104977438Y-126586546D02*
X105025057Y-126538927D01*
X105025057Y-126538927D02*
X105120295Y-126491308D01*
X105120295Y-126491308D02*
X105263152Y-126491308D01*
X105263152Y-126491308D02*
X105358390Y-126538927D01*
X105358390Y-126538927D02*
X105406009Y-126586546D01*
X105406009Y-126586546D02*
X105453628Y-126681784D01*
X105453628Y-126681784D02*
X105453628Y-127062736D01*
X105929819Y-125538927D02*
X105929819Y-126110355D01*
X105929819Y-125824641D02*
X104929819Y-125824641D01*
X104929819Y-125824641D02*
X105072676Y-125919879D01*
X105072676Y-125919879D02*
X105167914Y-126015117D01*
X105167914Y-126015117D02*
X105215533Y-126110355D01*
X105929819Y-125062736D02*
X105929819Y-124872260D01*
X105929819Y-124872260D02*
X105882200Y-124777022D01*
X105882200Y-124777022D02*
X105834580Y-124729403D01*
X105834580Y-124729403D02*
X105691723Y-124634165D01*
X105691723Y-124634165D02*
X105501247Y-124586546D01*
X105501247Y-124586546D02*
X105120295Y-124586546D01*
X105120295Y-124586546D02*
X105025057Y-124634165D01*
X105025057Y-124634165D02*
X104977438Y-124681784D01*
X104977438Y-124681784D02*
X104929819Y-124777022D01*
X104929819Y-124777022D02*
X104929819Y-124967498D01*
X104929819Y-124967498D02*
X104977438Y-125062736D01*
X104977438Y-125062736D02*
X105025057Y-125110355D01*
X105025057Y-125110355D02*
X105120295Y-125157974D01*
X105120295Y-125157974D02*
X105358390Y-125157974D01*
X105358390Y-125157974D02*
X105453628Y-125110355D01*
X105453628Y-125110355D02*
X105501247Y-125062736D01*
X105501247Y-125062736D02*
X105548866Y-124967498D01*
X105548866Y-124967498D02*
X105548866Y-124777022D01*
X105548866Y-124777022D02*
X105501247Y-124681784D01*
X105501247Y-124681784D02*
X105453628Y-124634165D01*
X105453628Y-124634165D02*
X105358390Y-124586546D01*
X90606905Y-121420770D02*
X90606905Y-120420770D01*
X90606905Y-120420770D02*
X90845000Y-120420770D01*
X90845000Y-120420770D02*
X90987857Y-120468389D01*
X90987857Y-120468389D02*
X91083095Y-120563627D01*
X91083095Y-120563627D02*
X91130714Y-120658865D01*
X91130714Y-120658865D02*
X91178333Y-120849341D01*
X91178333Y-120849341D02*
X91178333Y-120992198D01*
X91178333Y-120992198D02*
X91130714Y-121182674D01*
X91130714Y-121182674D02*
X91083095Y-121277912D01*
X91083095Y-121277912D02*
X90987857Y-121373151D01*
X90987857Y-121373151D02*
X90845000Y-121420770D01*
X90845000Y-121420770D02*
X90606905Y-121420770D01*
X92130714Y-121420770D02*
X91559286Y-121420770D01*
X91845000Y-121420770D02*
X91845000Y-120420770D01*
X91845000Y-120420770D02*
X91749762Y-120563627D01*
X91749762Y-120563627D02*
X91654524Y-120658865D01*
X91654524Y-120658865D02*
X91559286Y-120706484D01*
X119118333Y-114025531D02*
X119070714Y-114073151D01*
X119070714Y-114073151D02*
X118927857Y-114120770D01*
X118927857Y-114120770D02*
X118832619Y-114120770D01*
X118832619Y-114120770D02*
X118689762Y-114073151D01*
X118689762Y-114073151D02*
X118594524Y-113977912D01*
X118594524Y-113977912D02*
X118546905Y-113882674D01*
X118546905Y-113882674D02*
X118499286Y-113692198D01*
X118499286Y-113692198D02*
X118499286Y-113549341D01*
X118499286Y-113549341D02*
X118546905Y-113358865D01*
X118546905Y-113358865D02*
X118594524Y-113263627D01*
X118594524Y-113263627D02*
X118689762Y-113168389D01*
X118689762Y-113168389D02*
X118832619Y-113120770D01*
X118832619Y-113120770D02*
X118927857Y-113120770D01*
X118927857Y-113120770D02*
X119070714Y-113168389D01*
X119070714Y-113168389D02*
X119118333Y-113216008D01*
X119975476Y-113454103D02*
X119975476Y-114120770D01*
X119737381Y-113073151D02*
X119499286Y-113787436D01*
X119499286Y-113787436D02*
X120118333Y-113787436D01*
X150607261Y-116416008D02*
X150512023Y-116368389D01*
X150512023Y-116368389D02*
X150416785Y-116273151D01*
X150416785Y-116273151D02*
X150273928Y-116130293D01*
X150273928Y-116130293D02*
X150178690Y-116082674D01*
X150178690Y-116082674D02*
X150083452Y-116082674D01*
X150131071Y-116320770D02*
X150035833Y-116273151D01*
X150035833Y-116273151D02*
X149940595Y-116177912D01*
X149940595Y-116177912D02*
X149892976Y-115987436D01*
X149892976Y-115987436D02*
X149892976Y-115654103D01*
X149892976Y-115654103D02*
X149940595Y-115463627D01*
X149940595Y-115463627D02*
X150035833Y-115368389D01*
X150035833Y-115368389D02*
X150131071Y-115320770D01*
X150131071Y-115320770D02*
X150321547Y-115320770D01*
X150321547Y-115320770D02*
X150416785Y-115368389D01*
X150416785Y-115368389D02*
X150512023Y-115463627D01*
X150512023Y-115463627D02*
X150559642Y-115654103D01*
X150559642Y-115654103D02*
X150559642Y-115987436D01*
X150559642Y-115987436D02*
X150512023Y-116177912D01*
X150512023Y-116177912D02*
X150416785Y-116273151D01*
X150416785Y-116273151D02*
X150321547Y-116320770D01*
X150321547Y-116320770D02*
X150131071Y-116320770D01*
X150892976Y-115320770D02*
X151559642Y-115320770D01*
X151559642Y-115320770D02*
X151131071Y-116320770D01*
X153289642Y-114120770D02*
X152956309Y-113644579D01*
X152718214Y-114120770D02*
X152718214Y-113120770D01*
X152718214Y-113120770D02*
X153099166Y-113120770D01*
X153099166Y-113120770D02*
X153194404Y-113168389D01*
X153194404Y-113168389D02*
X153242023Y-113216008D01*
X153242023Y-113216008D02*
X153289642Y-113311246D01*
X153289642Y-113311246D02*
X153289642Y-113454103D01*
X153289642Y-113454103D02*
X153242023Y-113549341D01*
X153242023Y-113549341D02*
X153194404Y-113596960D01*
X153194404Y-113596960D02*
X153099166Y-113644579D01*
X153099166Y-113644579D02*
X152718214Y-113644579D01*
X154242023Y-114120770D02*
X153670595Y-114120770D01*
X153956309Y-114120770D02*
X153956309Y-113120770D01*
X153956309Y-113120770D02*
X153861071Y-113263627D01*
X153861071Y-113263627D02*
X153765833Y-113358865D01*
X153765833Y-113358865D02*
X153670595Y-113406484D01*
X155146785Y-113120770D02*
X154670595Y-113120770D01*
X154670595Y-113120770D02*
X154622976Y-113596960D01*
X154622976Y-113596960D02*
X154670595Y-113549341D01*
X154670595Y-113549341D02*
X154765833Y-113501722D01*
X154765833Y-113501722D02*
X155003928Y-113501722D01*
X155003928Y-113501722D02*
X155099166Y-113549341D01*
X155099166Y-113549341D02*
X155146785Y-113596960D01*
X155146785Y-113596960D02*
X155194404Y-113692198D01*
X155194404Y-113692198D02*
X155194404Y-113930293D01*
X155194404Y-113930293D02*
X155146785Y-114025531D01*
X155146785Y-114025531D02*
X155099166Y-114073151D01*
X155099166Y-114073151D02*
X155003928Y-114120770D01*
X155003928Y-114120770D02*
X154765833Y-114120770D01*
X154765833Y-114120770D02*
X154670595Y-114073151D01*
X154670595Y-114073151D02*
X154622976Y-114025531D01*
X130287261Y-116416008D02*
X130192023Y-116368389D01*
X130192023Y-116368389D02*
X130096785Y-116273151D01*
X130096785Y-116273151D02*
X129953928Y-116130293D01*
X129953928Y-116130293D02*
X129858690Y-116082674D01*
X129858690Y-116082674D02*
X129763452Y-116082674D01*
X129811071Y-116320770D02*
X129715833Y-116273151D01*
X129715833Y-116273151D02*
X129620595Y-116177912D01*
X129620595Y-116177912D02*
X129572976Y-115987436D01*
X129572976Y-115987436D02*
X129572976Y-115654103D01*
X129572976Y-115654103D02*
X129620595Y-115463627D01*
X129620595Y-115463627D02*
X129715833Y-115368389D01*
X129715833Y-115368389D02*
X129811071Y-115320770D01*
X129811071Y-115320770D02*
X130001547Y-115320770D01*
X130001547Y-115320770D02*
X130096785Y-115368389D01*
X130096785Y-115368389D02*
X130192023Y-115463627D01*
X130192023Y-115463627D02*
X130239642Y-115654103D01*
X130239642Y-115654103D02*
X130239642Y-115987436D01*
X130239642Y-115987436D02*
X130192023Y-116177912D01*
X130192023Y-116177912D02*
X130096785Y-116273151D01*
X130096785Y-116273151D02*
X130001547Y-116320770D01*
X130001547Y-116320770D02*
X129811071Y-116320770D01*
X131144404Y-115320770D02*
X130668214Y-115320770D01*
X130668214Y-115320770D02*
X130620595Y-115796960D01*
X130620595Y-115796960D02*
X130668214Y-115749341D01*
X130668214Y-115749341D02*
X130763452Y-115701722D01*
X130763452Y-115701722D02*
X131001547Y-115701722D01*
X131001547Y-115701722D02*
X131096785Y-115749341D01*
X131096785Y-115749341D02*
X131144404Y-115796960D01*
X131144404Y-115796960D02*
X131192023Y-115892198D01*
X131192023Y-115892198D02*
X131192023Y-116130293D01*
X131192023Y-116130293D02*
X131144404Y-116225531D01*
X131144404Y-116225531D02*
X131096785Y-116273151D01*
X131096785Y-116273151D02*
X131001547Y-116320770D01*
X131001547Y-116320770D02*
X130763452Y-116320770D01*
X130763452Y-116320770D02*
X130668214Y-116273151D01*
X130668214Y-116273151D02*
X130620595Y-116225531D01*
X177538333Y-126725531D02*
X177490714Y-126773151D01*
X177490714Y-126773151D02*
X177347857Y-126820770D01*
X177347857Y-126820770D02*
X177252619Y-126820770D01*
X177252619Y-126820770D02*
X177109762Y-126773151D01*
X177109762Y-126773151D02*
X177014524Y-126677912D01*
X177014524Y-126677912D02*
X176966905Y-126582674D01*
X176966905Y-126582674D02*
X176919286Y-126392198D01*
X176919286Y-126392198D02*
X176919286Y-126249341D01*
X176919286Y-126249341D02*
X176966905Y-126058865D01*
X176966905Y-126058865D02*
X177014524Y-125963627D01*
X177014524Y-125963627D02*
X177109762Y-125868389D01*
X177109762Y-125868389D02*
X177252619Y-125820770D01*
X177252619Y-125820770D02*
X177347857Y-125820770D01*
X177347857Y-125820770D02*
X177490714Y-125868389D01*
X177490714Y-125868389D02*
X177538333Y-125916008D01*
X178014524Y-126820770D02*
X178205000Y-126820770D01*
X178205000Y-126820770D02*
X178300238Y-126773151D01*
X178300238Y-126773151D02*
X178347857Y-126725531D01*
X178347857Y-126725531D02*
X178443095Y-126582674D01*
X178443095Y-126582674D02*
X178490714Y-126392198D01*
X178490714Y-126392198D02*
X178490714Y-126011246D01*
X178490714Y-126011246D02*
X178443095Y-125916008D01*
X178443095Y-125916008D02*
X178395476Y-125868389D01*
X178395476Y-125868389D02*
X178300238Y-125820770D01*
X178300238Y-125820770D02*
X178109762Y-125820770D01*
X178109762Y-125820770D02*
X178014524Y-125868389D01*
X178014524Y-125868389D02*
X177966905Y-125916008D01*
X177966905Y-125916008D02*
X177919286Y-126011246D01*
X177919286Y-126011246D02*
X177919286Y-126249341D01*
X177919286Y-126249341D02*
X177966905Y-126344579D01*
X177966905Y-126344579D02*
X178014524Y-126392198D01*
X178014524Y-126392198D02*
X178109762Y-126439817D01*
X178109762Y-126439817D02*
X178300238Y-126439817D01*
X178300238Y-126439817D02*
X178395476Y-126392198D01*
X178395476Y-126392198D02*
X178443095Y-126344579D01*
X178443095Y-126344579D02*
X178490714Y-126249341D01*
X109967261Y-116416008D02*
X109872023Y-116368389D01*
X109872023Y-116368389D02*
X109776785Y-116273151D01*
X109776785Y-116273151D02*
X109633928Y-116130293D01*
X109633928Y-116130293D02*
X109538690Y-116082674D01*
X109538690Y-116082674D02*
X109443452Y-116082674D01*
X109491071Y-116320770D02*
X109395833Y-116273151D01*
X109395833Y-116273151D02*
X109300595Y-116177912D01*
X109300595Y-116177912D02*
X109252976Y-115987436D01*
X109252976Y-115987436D02*
X109252976Y-115654103D01*
X109252976Y-115654103D02*
X109300595Y-115463627D01*
X109300595Y-115463627D02*
X109395833Y-115368389D01*
X109395833Y-115368389D02*
X109491071Y-115320770D01*
X109491071Y-115320770D02*
X109681547Y-115320770D01*
X109681547Y-115320770D02*
X109776785Y-115368389D01*
X109776785Y-115368389D02*
X109872023Y-115463627D01*
X109872023Y-115463627D02*
X109919642Y-115654103D01*
X109919642Y-115654103D02*
X109919642Y-115987436D01*
X109919642Y-115987436D02*
X109872023Y-116177912D01*
X109872023Y-116177912D02*
X109776785Y-116273151D01*
X109776785Y-116273151D02*
X109681547Y-116320770D01*
X109681547Y-116320770D02*
X109491071Y-116320770D01*
X110252976Y-115320770D02*
X110872023Y-115320770D01*
X110872023Y-115320770D02*
X110538690Y-115701722D01*
X110538690Y-115701722D02*
X110681547Y-115701722D01*
X110681547Y-115701722D02*
X110776785Y-115749341D01*
X110776785Y-115749341D02*
X110824404Y-115796960D01*
X110824404Y-115796960D02*
X110872023Y-115892198D01*
X110872023Y-115892198D02*
X110872023Y-116130293D01*
X110872023Y-116130293D02*
X110824404Y-116225531D01*
X110824404Y-116225531D02*
X110776785Y-116273151D01*
X110776785Y-116273151D02*
X110681547Y-116320770D01*
X110681547Y-116320770D02*
X110395833Y-116320770D01*
X110395833Y-116320770D02*
X110300595Y-116273151D01*
X110300595Y-116273151D02*
X110252976Y-116225531D01*
X105929819Y-117482617D02*
X105453628Y-117815950D01*
X105929819Y-118054045D02*
X104929819Y-118054045D01*
X104929819Y-118054045D02*
X104929819Y-117673093D01*
X104929819Y-117673093D02*
X104977438Y-117577855D01*
X104977438Y-117577855D02*
X105025057Y-117530236D01*
X105025057Y-117530236D02*
X105120295Y-117482617D01*
X105120295Y-117482617D02*
X105263152Y-117482617D01*
X105263152Y-117482617D02*
X105358390Y-117530236D01*
X105358390Y-117530236D02*
X105406009Y-117577855D01*
X105406009Y-117577855D02*
X105453628Y-117673093D01*
X105453628Y-117673093D02*
X105453628Y-118054045D01*
X105025057Y-117101664D02*
X104977438Y-117054045D01*
X104977438Y-117054045D02*
X104929819Y-116958807D01*
X104929819Y-116958807D02*
X104929819Y-116720712D01*
X104929819Y-116720712D02*
X104977438Y-116625474D01*
X104977438Y-116625474D02*
X105025057Y-116577855D01*
X105025057Y-116577855D02*
X105120295Y-116530236D01*
X105120295Y-116530236D02*
X105215533Y-116530236D01*
X105215533Y-116530236D02*
X105358390Y-116577855D01*
X105358390Y-116577855D02*
X105929819Y-117149283D01*
X105929819Y-117149283D02*
X105929819Y-116530236D01*
X95769819Y-126491308D02*
X95293628Y-126824641D01*
X95769819Y-127062736D02*
X94769819Y-127062736D01*
X94769819Y-127062736D02*
X94769819Y-126681784D01*
X94769819Y-126681784D02*
X94817438Y-126586546D01*
X94817438Y-126586546D02*
X94865057Y-126538927D01*
X94865057Y-126538927D02*
X94960295Y-126491308D01*
X94960295Y-126491308D02*
X95103152Y-126491308D01*
X95103152Y-126491308D02*
X95198390Y-126538927D01*
X95198390Y-126538927D02*
X95246009Y-126586546D01*
X95246009Y-126586546D02*
X95293628Y-126681784D01*
X95293628Y-126681784D02*
X95293628Y-127062736D01*
X95769819Y-125538927D02*
X95769819Y-126110355D01*
X95769819Y-125824641D02*
X94769819Y-125824641D01*
X94769819Y-125824641D02*
X94912676Y-125919879D01*
X94912676Y-125919879D02*
X95007914Y-126015117D01*
X95007914Y-126015117D02*
X95055533Y-126110355D01*
X95198390Y-124967498D02*
X95150771Y-125062736D01*
X95150771Y-125062736D02*
X95103152Y-125110355D01*
X95103152Y-125110355D02*
X95007914Y-125157974D01*
X95007914Y-125157974D02*
X94960295Y-125157974D01*
X94960295Y-125157974D02*
X94865057Y-125110355D01*
X94865057Y-125110355D02*
X94817438Y-125062736D01*
X94817438Y-125062736D02*
X94769819Y-124967498D01*
X94769819Y-124967498D02*
X94769819Y-124777022D01*
X94769819Y-124777022D02*
X94817438Y-124681784D01*
X94817438Y-124681784D02*
X94865057Y-124634165D01*
X94865057Y-124634165D02*
X94960295Y-124586546D01*
X94960295Y-124586546D02*
X95007914Y-124586546D01*
X95007914Y-124586546D02*
X95103152Y-124634165D01*
X95103152Y-124634165D02*
X95150771Y-124681784D01*
X95150771Y-124681784D02*
X95198390Y-124777022D01*
X95198390Y-124777022D02*
X95198390Y-124967498D01*
X95198390Y-124967498D02*
X95246009Y-125062736D01*
X95246009Y-125062736D02*
X95293628Y-125110355D01*
X95293628Y-125110355D02*
X95388866Y-125157974D01*
X95388866Y-125157974D02*
X95579342Y-125157974D01*
X95579342Y-125157974D02*
X95674580Y-125110355D01*
X95674580Y-125110355D02*
X95722200Y-125062736D01*
X95722200Y-125062736D02*
X95769819Y-124967498D01*
X95769819Y-124967498D02*
X95769819Y-124777022D01*
X95769819Y-124777022D02*
X95722200Y-124681784D01*
X95722200Y-124681784D02*
X95674580Y-124634165D01*
X95674580Y-124634165D02*
X95579342Y-124586546D01*
X95579342Y-124586546D02*
X95388866Y-124586546D01*
X95388866Y-124586546D02*
X95293628Y-124634165D01*
X95293628Y-124634165D02*
X95246009Y-124681784D01*
X95246009Y-124681784D02*
X95198390Y-124777022D01*
X161726905Y-121420770D02*
X161726905Y-120420770D01*
X161726905Y-120420770D02*
X161965000Y-120420770D01*
X161965000Y-120420770D02*
X162107857Y-120468389D01*
X162107857Y-120468389D02*
X162203095Y-120563627D01*
X162203095Y-120563627D02*
X162250714Y-120658865D01*
X162250714Y-120658865D02*
X162298333Y-120849341D01*
X162298333Y-120849341D02*
X162298333Y-120992198D01*
X162298333Y-120992198D02*
X162250714Y-121182674D01*
X162250714Y-121182674D02*
X162203095Y-121277912D01*
X162203095Y-121277912D02*
X162107857Y-121373151D01*
X162107857Y-121373151D02*
X161965000Y-121420770D01*
X161965000Y-121420770D02*
X161726905Y-121420770D01*
X162774524Y-121420770D02*
X162965000Y-121420770D01*
X162965000Y-121420770D02*
X163060238Y-121373151D01*
X163060238Y-121373151D02*
X163107857Y-121325531D01*
X163107857Y-121325531D02*
X163203095Y-121182674D01*
X163203095Y-121182674D02*
X163250714Y-120992198D01*
X163250714Y-120992198D02*
X163250714Y-120611246D01*
X163250714Y-120611246D02*
X163203095Y-120516008D01*
X163203095Y-120516008D02*
X163155476Y-120468389D01*
X163155476Y-120468389D02*
X163060238Y-120420770D01*
X163060238Y-120420770D02*
X162869762Y-120420770D01*
X162869762Y-120420770D02*
X162774524Y-120468389D01*
X162774524Y-120468389D02*
X162726905Y-120516008D01*
X162726905Y-120516008D02*
X162679286Y-120611246D01*
X162679286Y-120611246D02*
X162679286Y-120849341D01*
X162679286Y-120849341D02*
X162726905Y-120944579D01*
X162726905Y-120944579D02*
X162774524Y-120992198D01*
X162774524Y-120992198D02*
X162869762Y-121039817D01*
X162869762Y-121039817D02*
X163060238Y-121039817D01*
X163060238Y-121039817D02*
X163155476Y-120992198D01*
X163155476Y-120992198D02*
X163203095Y-120944579D01*
X163203095Y-120944579D02*
X163250714Y-120849341D01*
X93718333Y-114120770D02*
X93385000Y-113644579D01*
X93146905Y-114120770D02*
X93146905Y-113120770D01*
X93146905Y-113120770D02*
X93527857Y-113120770D01*
X93527857Y-113120770D02*
X93623095Y-113168389D01*
X93623095Y-113168389D02*
X93670714Y-113216008D01*
X93670714Y-113216008D02*
X93718333Y-113311246D01*
X93718333Y-113311246D02*
X93718333Y-113454103D01*
X93718333Y-113454103D02*
X93670714Y-113549341D01*
X93670714Y-113549341D02*
X93623095Y-113596960D01*
X93623095Y-113596960D02*
X93527857Y-113644579D01*
X93527857Y-113644579D02*
X93146905Y-113644579D01*
X94194524Y-114120770D02*
X94385000Y-114120770D01*
X94385000Y-114120770D02*
X94480238Y-114073151D01*
X94480238Y-114073151D02*
X94527857Y-114025531D01*
X94527857Y-114025531D02*
X94623095Y-113882674D01*
X94623095Y-113882674D02*
X94670714Y-113692198D01*
X94670714Y-113692198D02*
X94670714Y-113311246D01*
X94670714Y-113311246D02*
X94623095Y-113216008D01*
X94623095Y-113216008D02*
X94575476Y-113168389D01*
X94575476Y-113168389D02*
X94480238Y-113120770D01*
X94480238Y-113120770D02*
X94289762Y-113120770D01*
X94289762Y-113120770D02*
X94194524Y-113168389D01*
X94194524Y-113168389D02*
X94146905Y-113216008D01*
X94146905Y-113216008D02*
X94099286Y-113311246D01*
X94099286Y-113311246D02*
X94099286Y-113549341D01*
X94099286Y-113549341D02*
X94146905Y-113644579D01*
X94146905Y-113644579D02*
X94194524Y-113692198D01*
X94194524Y-113692198D02*
X94289762Y-113739817D01*
X94289762Y-113739817D02*
X94480238Y-113739817D01*
X94480238Y-113739817D02*
X94575476Y-113692198D01*
X94575476Y-113692198D02*
X94623095Y-113644579D01*
X94623095Y-113644579D02*
X94670714Y-113549341D01*
X151566905Y-121420770D02*
X151566905Y-120420770D01*
X151566905Y-120420770D02*
X151805000Y-120420770D01*
X151805000Y-120420770D02*
X151947857Y-120468389D01*
X151947857Y-120468389D02*
X152043095Y-120563627D01*
X152043095Y-120563627D02*
X152090714Y-120658865D01*
X152090714Y-120658865D02*
X152138333Y-120849341D01*
X152138333Y-120849341D02*
X152138333Y-120992198D01*
X152138333Y-120992198D02*
X152090714Y-121182674D01*
X152090714Y-121182674D02*
X152043095Y-121277912D01*
X152043095Y-121277912D02*
X151947857Y-121373151D01*
X151947857Y-121373151D02*
X151805000Y-121420770D01*
X151805000Y-121420770D02*
X151566905Y-121420770D01*
X152709762Y-120849341D02*
X152614524Y-120801722D01*
X152614524Y-120801722D02*
X152566905Y-120754103D01*
X152566905Y-120754103D02*
X152519286Y-120658865D01*
X152519286Y-120658865D02*
X152519286Y-120611246D01*
X152519286Y-120611246D02*
X152566905Y-120516008D01*
X152566905Y-120516008D02*
X152614524Y-120468389D01*
X152614524Y-120468389D02*
X152709762Y-120420770D01*
X152709762Y-120420770D02*
X152900238Y-120420770D01*
X152900238Y-120420770D02*
X152995476Y-120468389D01*
X152995476Y-120468389D02*
X153043095Y-120516008D01*
X153043095Y-120516008D02*
X153090714Y-120611246D01*
X153090714Y-120611246D02*
X153090714Y-120658865D01*
X153090714Y-120658865D02*
X153043095Y-120754103D01*
X153043095Y-120754103D02*
X152995476Y-120801722D01*
X152995476Y-120801722D02*
X152900238Y-120849341D01*
X152900238Y-120849341D02*
X152709762Y-120849341D01*
X152709762Y-120849341D02*
X152614524Y-120896960D01*
X152614524Y-120896960D02*
X152566905Y-120944579D01*
X152566905Y-120944579D02*
X152519286Y-121039817D01*
X152519286Y-121039817D02*
X152519286Y-121230293D01*
X152519286Y-121230293D02*
X152566905Y-121325531D01*
X152566905Y-121325531D02*
X152614524Y-121373151D01*
X152614524Y-121373151D02*
X152709762Y-121420770D01*
X152709762Y-121420770D02*
X152900238Y-121420770D01*
X152900238Y-121420770D02*
X152995476Y-121373151D01*
X152995476Y-121373151D02*
X153043095Y-121325531D01*
X153043095Y-121325531D02*
X153090714Y-121230293D01*
X153090714Y-121230293D02*
X153090714Y-121039817D01*
X153090714Y-121039817D02*
X153043095Y-120944579D01*
X153043095Y-120944579D02*
X152995476Y-120896960D01*
X152995476Y-120896960D02*
X152900238Y-120849341D01*
X99807261Y-116416008D02*
X99712023Y-116368389D01*
X99712023Y-116368389D02*
X99616785Y-116273151D01*
X99616785Y-116273151D02*
X99473928Y-116130293D01*
X99473928Y-116130293D02*
X99378690Y-116082674D01*
X99378690Y-116082674D02*
X99283452Y-116082674D01*
X99331071Y-116320770D02*
X99235833Y-116273151D01*
X99235833Y-116273151D02*
X99140595Y-116177912D01*
X99140595Y-116177912D02*
X99092976Y-115987436D01*
X99092976Y-115987436D02*
X99092976Y-115654103D01*
X99092976Y-115654103D02*
X99140595Y-115463627D01*
X99140595Y-115463627D02*
X99235833Y-115368389D01*
X99235833Y-115368389D02*
X99331071Y-115320770D01*
X99331071Y-115320770D02*
X99521547Y-115320770D01*
X99521547Y-115320770D02*
X99616785Y-115368389D01*
X99616785Y-115368389D02*
X99712023Y-115463627D01*
X99712023Y-115463627D02*
X99759642Y-115654103D01*
X99759642Y-115654103D02*
X99759642Y-115987436D01*
X99759642Y-115987436D02*
X99712023Y-116177912D01*
X99712023Y-116177912D02*
X99616785Y-116273151D01*
X99616785Y-116273151D02*
X99521547Y-116320770D01*
X99521547Y-116320770D02*
X99331071Y-116320770D01*
X100140595Y-115416008D02*
X100188214Y-115368389D01*
X100188214Y-115368389D02*
X100283452Y-115320770D01*
X100283452Y-115320770D02*
X100521547Y-115320770D01*
X100521547Y-115320770D02*
X100616785Y-115368389D01*
X100616785Y-115368389D02*
X100664404Y-115416008D01*
X100664404Y-115416008D02*
X100712023Y-115511246D01*
X100712023Y-115511246D02*
X100712023Y-115606484D01*
X100712023Y-115606484D02*
X100664404Y-115749341D01*
X100664404Y-115749341D02*
X100092976Y-116320770D01*
X100092976Y-116320770D02*
X100712023Y-116320770D01*
X143129642Y-114120770D02*
X142796309Y-113644579D01*
X142558214Y-114120770D02*
X142558214Y-113120770D01*
X142558214Y-113120770D02*
X142939166Y-113120770D01*
X142939166Y-113120770D02*
X143034404Y-113168389D01*
X143034404Y-113168389D02*
X143082023Y-113216008D01*
X143082023Y-113216008D02*
X143129642Y-113311246D01*
X143129642Y-113311246D02*
X143129642Y-113454103D01*
X143129642Y-113454103D02*
X143082023Y-113549341D01*
X143082023Y-113549341D02*
X143034404Y-113596960D01*
X143034404Y-113596960D02*
X142939166Y-113644579D01*
X142939166Y-113644579D02*
X142558214Y-113644579D01*
X144082023Y-114120770D02*
X143510595Y-114120770D01*
X143796309Y-114120770D02*
X143796309Y-113120770D01*
X143796309Y-113120770D02*
X143701071Y-113263627D01*
X143701071Y-113263627D02*
X143605833Y-113358865D01*
X143605833Y-113358865D02*
X143510595Y-113406484D01*
X144939166Y-113454103D02*
X144939166Y-114120770D01*
X144701071Y-113073151D02*
X144462976Y-113787436D01*
X144462976Y-113787436D02*
X145082023Y-113787436D01*
X156729819Y-117482617D02*
X156253628Y-117815950D01*
X156729819Y-118054045D02*
X155729819Y-118054045D01*
X155729819Y-118054045D02*
X155729819Y-117673093D01*
X155729819Y-117673093D02*
X155777438Y-117577855D01*
X155777438Y-117577855D02*
X155825057Y-117530236D01*
X155825057Y-117530236D02*
X155920295Y-117482617D01*
X155920295Y-117482617D02*
X156063152Y-117482617D01*
X156063152Y-117482617D02*
X156158390Y-117530236D01*
X156158390Y-117530236D02*
X156206009Y-117577855D01*
X156206009Y-117577855D02*
X156253628Y-117673093D01*
X156253628Y-117673093D02*
X156253628Y-118054045D01*
X155729819Y-117149283D02*
X155729819Y-116482617D01*
X155729819Y-116482617D02*
X156729819Y-116911188D01*
X110926905Y-121420770D02*
X110926905Y-120420770D01*
X110926905Y-120420770D02*
X111165000Y-120420770D01*
X111165000Y-120420770D02*
X111307857Y-120468389D01*
X111307857Y-120468389D02*
X111403095Y-120563627D01*
X111403095Y-120563627D02*
X111450714Y-120658865D01*
X111450714Y-120658865D02*
X111498333Y-120849341D01*
X111498333Y-120849341D02*
X111498333Y-120992198D01*
X111498333Y-120992198D02*
X111450714Y-121182674D01*
X111450714Y-121182674D02*
X111403095Y-121277912D01*
X111403095Y-121277912D02*
X111307857Y-121373151D01*
X111307857Y-121373151D02*
X111165000Y-121420770D01*
X111165000Y-121420770D02*
X110926905Y-121420770D01*
X112355476Y-120754103D02*
X112355476Y-121420770D01*
X112117381Y-120373151D02*
X111879286Y-121087436D01*
X111879286Y-121087436D02*
X112498333Y-121087436D01*
X160767261Y-116416008D02*
X160672023Y-116368389D01*
X160672023Y-116368389D02*
X160576785Y-116273151D01*
X160576785Y-116273151D02*
X160433928Y-116130293D01*
X160433928Y-116130293D02*
X160338690Y-116082674D01*
X160338690Y-116082674D02*
X160243452Y-116082674D01*
X160291071Y-116320770D02*
X160195833Y-116273151D01*
X160195833Y-116273151D02*
X160100595Y-116177912D01*
X160100595Y-116177912D02*
X160052976Y-115987436D01*
X160052976Y-115987436D02*
X160052976Y-115654103D01*
X160052976Y-115654103D02*
X160100595Y-115463627D01*
X160100595Y-115463627D02*
X160195833Y-115368389D01*
X160195833Y-115368389D02*
X160291071Y-115320770D01*
X160291071Y-115320770D02*
X160481547Y-115320770D01*
X160481547Y-115320770D02*
X160576785Y-115368389D01*
X160576785Y-115368389D02*
X160672023Y-115463627D01*
X160672023Y-115463627D02*
X160719642Y-115654103D01*
X160719642Y-115654103D02*
X160719642Y-115987436D01*
X160719642Y-115987436D02*
X160672023Y-116177912D01*
X160672023Y-116177912D02*
X160576785Y-116273151D01*
X160576785Y-116273151D02*
X160481547Y-116320770D01*
X160481547Y-116320770D02*
X160291071Y-116320770D01*
X161291071Y-115749341D02*
X161195833Y-115701722D01*
X161195833Y-115701722D02*
X161148214Y-115654103D01*
X161148214Y-115654103D02*
X161100595Y-115558865D01*
X161100595Y-115558865D02*
X161100595Y-115511246D01*
X161100595Y-115511246D02*
X161148214Y-115416008D01*
X161148214Y-115416008D02*
X161195833Y-115368389D01*
X161195833Y-115368389D02*
X161291071Y-115320770D01*
X161291071Y-115320770D02*
X161481547Y-115320770D01*
X161481547Y-115320770D02*
X161576785Y-115368389D01*
X161576785Y-115368389D02*
X161624404Y-115416008D01*
X161624404Y-115416008D02*
X161672023Y-115511246D01*
X161672023Y-115511246D02*
X161672023Y-115558865D01*
X161672023Y-115558865D02*
X161624404Y-115654103D01*
X161624404Y-115654103D02*
X161576785Y-115701722D01*
X161576785Y-115701722D02*
X161481547Y-115749341D01*
X161481547Y-115749341D02*
X161291071Y-115749341D01*
X161291071Y-115749341D02*
X161195833Y-115796960D01*
X161195833Y-115796960D02*
X161148214Y-115844579D01*
X161148214Y-115844579D02*
X161100595Y-115939817D01*
X161100595Y-115939817D02*
X161100595Y-116130293D01*
X161100595Y-116130293D02*
X161148214Y-116225531D01*
X161148214Y-116225531D02*
X161195833Y-116273151D01*
X161195833Y-116273151D02*
X161291071Y-116320770D01*
X161291071Y-116320770D02*
X161481547Y-116320770D01*
X161481547Y-116320770D02*
X161576785Y-116273151D01*
X161576785Y-116273151D02*
X161624404Y-116225531D01*
X161624404Y-116225531D02*
X161672023Y-116130293D01*
X161672023Y-116130293D02*
X161672023Y-115939817D01*
X161672023Y-115939817D02*
X161624404Y-115844579D01*
X161624404Y-115844579D02*
X161576785Y-115796960D01*
X161576785Y-115796960D02*
X161481547Y-115749341D01*
X159758333Y-114025531D02*
X159710714Y-114073151D01*
X159710714Y-114073151D02*
X159567857Y-114120770D01*
X159567857Y-114120770D02*
X159472619Y-114120770D01*
X159472619Y-114120770D02*
X159329762Y-114073151D01*
X159329762Y-114073151D02*
X159234524Y-113977912D01*
X159234524Y-113977912D02*
X159186905Y-113882674D01*
X159186905Y-113882674D02*
X159139286Y-113692198D01*
X159139286Y-113692198D02*
X159139286Y-113549341D01*
X159139286Y-113549341D02*
X159186905Y-113358865D01*
X159186905Y-113358865D02*
X159234524Y-113263627D01*
X159234524Y-113263627D02*
X159329762Y-113168389D01*
X159329762Y-113168389D02*
X159472619Y-113120770D01*
X159472619Y-113120770D02*
X159567857Y-113120770D01*
X159567857Y-113120770D02*
X159710714Y-113168389D01*
X159710714Y-113168389D02*
X159758333Y-113216008D01*
X160329762Y-113549341D02*
X160234524Y-113501722D01*
X160234524Y-113501722D02*
X160186905Y-113454103D01*
X160186905Y-113454103D02*
X160139286Y-113358865D01*
X160139286Y-113358865D02*
X160139286Y-113311246D01*
X160139286Y-113311246D02*
X160186905Y-113216008D01*
X160186905Y-113216008D02*
X160234524Y-113168389D01*
X160234524Y-113168389D02*
X160329762Y-113120770D01*
X160329762Y-113120770D02*
X160520238Y-113120770D01*
X160520238Y-113120770D02*
X160615476Y-113168389D01*
X160615476Y-113168389D02*
X160663095Y-113216008D01*
X160663095Y-113216008D02*
X160710714Y-113311246D01*
X160710714Y-113311246D02*
X160710714Y-113358865D01*
X160710714Y-113358865D02*
X160663095Y-113454103D01*
X160663095Y-113454103D02*
X160615476Y-113501722D01*
X160615476Y-113501722D02*
X160520238Y-113549341D01*
X160520238Y-113549341D02*
X160329762Y-113549341D01*
X160329762Y-113549341D02*
X160234524Y-113596960D01*
X160234524Y-113596960D02*
X160186905Y-113644579D01*
X160186905Y-113644579D02*
X160139286Y-113739817D01*
X160139286Y-113739817D02*
X160139286Y-113930293D01*
X160139286Y-113930293D02*
X160186905Y-114025531D01*
X160186905Y-114025531D02*
X160234524Y-114073151D01*
X160234524Y-114073151D02*
X160329762Y-114120770D01*
X160329762Y-114120770D02*
X160520238Y-114120770D01*
X160520238Y-114120770D02*
X160615476Y-114073151D01*
X160615476Y-114073151D02*
X160663095Y-114025531D01*
X160663095Y-114025531D02*
X160710714Y-113930293D01*
X160710714Y-113930293D02*
X160710714Y-113739817D01*
X160710714Y-113739817D02*
X160663095Y-113644579D01*
X160663095Y-113644579D02*
X160615476Y-113596960D01*
X160615476Y-113596960D02*
X160520238Y-113549341D01*
X122809642Y-114120770D02*
X122476309Y-113644579D01*
X122238214Y-114120770D02*
X122238214Y-113120770D01*
X122238214Y-113120770D02*
X122619166Y-113120770D01*
X122619166Y-113120770D02*
X122714404Y-113168389D01*
X122714404Y-113168389D02*
X122762023Y-113216008D01*
X122762023Y-113216008D02*
X122809642Y-113311246D01*
X122809642Y-113311246D02*
X122809642Y-113454103D01*
X122809642Y-113454103D02*
X122762023Y-113549341D01*
X122762023Y-113549341D02*
X122714404Y-113596960D01*
X122714404Y-113596960D02*
X122619166Y-113644579D01*
X122619166Y-113644579D02*
X122238214Y-113644579D01*
X123762023Y-114120770D02*
X123190595Y-114120770D01*
X123476309Y-114120770D02*
X123476309Y-113120770D01*
X123476309Y-113120770D02*
X123381071Y-113263627D01*
X123381071Y-113263627D02*
X123285833Y-113358865D01*
X123285833Y-113358865D02*
X123190595Y-113406484D01*
X124142976Y-113216008D02*
X124190595Y-113168389D01*
X124190595Y-113168389D02*
X124285833Y-113120770D01*
X124285833Y-113120770D02*
X124523928Y-113120770D01*
X124523928Y-113120770D02*
X124619166Y-113168389D01*
X124619166Y-113168389D02*
X124666785Y-113216008D01*
X124666785Y-113216008D02*
X124714404Y-113311246D01*
X124714404Y-113311246D02*
X124714404Y-113406484D01*
X124714404Y-113406484D02*
X124666785Y-113549341D01*
X124666785Y-113549341D02*
X124095357Y-114120770D01*
X124095357Y-114120770D02*
X124714404Y-114120770D01*
X183293095Y-106150770D02*
X183293095Y-106960293D01*
X183293095Y-106960293D02*
X183340714Y-107055531D01*
X183340714Y-107055531D02*
X183388333Y-107103151D01*
X183388333Y-107103151D02*
X183483571Y-107150770D01*
X183483571Y-107150770D02*
X183674047Y-107150770D01*
X183674047Y-107150770D02*
X183769285Y-107103151D01*
X183769285Y-107103151D02*
X183816904Y-107055531D01*
X183816904Y-107055531D02*
X183864523Y-106960293D01*
X183864523Y-106960293D02*
X183864523Y-106150770D01*
X184864523Y-107150770D02*
X184293095Y-107150770D01*
X184578809Y-107150770D02*
X184578809Y-106150770D01*
X184578809Y-106150770D02*
X184483571Y-106293627D01*
X184483571Y-106293627D02*
X184388333Y-106388865D01*
X184388333Y-106388865D02*
X184293095Y-106436484D01*
X202988095Y-58555770D02*
X202988095Y-59365293D01*
X202988095Y-59365293D02*
X203035714Y-59460531D01*
X203035714Y-59460531D02*
X203083333Y-59508151D01*
X203083333Y-59508151D02*
X203178571Y-59555770D01*
X203178571Y-59555770D02*
X203369047Y-59555770D01*
X203369047Y-59555770D02*
X203464285Y-59508151D01*
X203464285Y-59508151D02*
X203511904Y-59460531D01*
X203511904Y-59460531D02*
X203559523Y-59365293D01*
X203559523Y-59365293D02*
X203559523Y-58555770D01*
X203940476Y-58555770D02*
X204559523Y-58555770D01*
X204559523Y-58555770D02*
X204226190Y-58936722D01*
X204226190Y-58936722D02*
X204369047Y-58936722D01*
X204369047Y-58936722D02*
X204464285Y-58984341D01*
X204464285Y-58984341D02*
X204511904Y-59031960D01*
X204511904Y-59031960D02*
X204559523Y-59127198D01*
X204559523Y-59127198D02*
X204559523Y-59365293D01*
X204559523Y-59365293D02*
X204511904Y-59460531D01*
X204511904Y-59460531D02*
X204464285Y-59508151D01*
X204464285Y-59508151D02*
X204369047Y-59555770D01*
X204369047Y-59555770D02*
X204083333Y-59555770D01*
X204083333Y-59555770D02*
X203988095Y-59508151D01*
X203988095Y-59508151D02*
X203940476Y-59460531D01*
X139438333Y-114025531D02*
X139390714Y-114073151D01*
X139390714Y-114073151D02*
X139247857Y-114120770D01*
X139247857Y-114120770D02*
X139152619Y-114120770D01*
X139152619Y-114120770D02*
X139009762Y-114073151D01*
X139009762Y-114073151D02*
X138914524Y-113977912D01*
X138914524Y-113977912D02*
X138866905Y-113882674D01*
X138866905Y-113882674D02*
X138819286Y-113692198D01*
X138819286Y-113692198D02*
X138819286Y-113549341D01*
X138819286Y-113549341D02*
X138866905Y-113358865D01*
X138866905Y-113358865D02*
X138914524Y-113263627D01*
X138914524Y-113263627D02*
X139009762Y-113168389D01*
X139009762Y-113168389D02*
X139152619Y-113120770D01*
X139152619Y-113120770D02*
X139247857Y-113120770D01*
X139247857Y-113120770D02*
X139390714Y-113168389D01*
X139390714Y-113168389D02*
X139438333Y-113216008D01*
X140295476Y-113120770D02*
X140105000Y-113120770D01*
X140105000Y-113120770D02*
X140009762Y-113168389D01*
X140009762Y-113168389D02*
X139962143Y-113216008D01*
X139962143Y-113216008D02*
X139866905Y-113358865D01*
X139866905Y-113358865D02*
X139819286Y-113549341D01*
X139819286Y-113549341D02*
X139819286Y-113930293D01*
X139819286Y-113930293D02*
X139866905Y-114025531D01*
X139866905Y-114025531D02*
X139914524Y-114073151D01*
X139914524Y-114073151D02*
X140009762Y-114120770D01*
X140009762Y-114120770D02*
X140200238Y-114120770D01*
X140200238Y-114120770D02*
X140295476Y-114073151D01*
X140295476Y-114073151D02*
X140343095Y-114025531D01*
X140343095Y-114025531D02*
X140390714Y-113930293D01*
X140390714Y-113930293D02*
X140390714Y-113692198D01*
X140390714Y-113692198D02*
X140343095Y-113596960D01*
X140343095Y-113596960D02*
X140295476Y-113549341D01*
X140295476Y-113549341D02*
X140200238Y-113501722D01*
X140200238Y-113501722D02*
X140009762Y-113501722D01*
X140009762Y-113501722D02*
X139914524Y-113549341D01*
X139914524Y-113549341D02*
X139866905Y-113596960D01*
X139866905Y-113596960D02*
X139819286Y-113692198D01*
X197574819Y-106171904D02*
X198384342Y-106171904D01*
X198384342Y-106171904D02*
X198479580Y-106124285D01*
X198479580Y-106124285D02*
X198527200Y-106076666D01*
X198527200Y-106076666D02*
X198574819Y-105981428D01*
X198574819Y-105981428D02*
X198574819Y-105790952D01*
X198574819Y-105790952D02*
X198527200Y-105695714D01*
X198527200Y-105695714D02*
X198479580Y-105648095D01*
X198479580Y-105648095D02*
X198384342Y-105600476D01*
X198384342Y-105600476D02*
X197574819Y-105600476D01*
X197574819Y-104648095D02*
X197574819Y-105124285D01*
X197574819Y-105124285D02*
X198051009Y-105171904D01*
X198051009Y-105171904D02*
X198003390Y-105124285D01*
X198003390Y-105124285D02*
X197955771Y-105029047D01*
X197955771Y-105029047D02*
X197955771Y-104790952D01*
X197955771Y-104790952D02*
X198003390Y-104695714D01*
X198003390Y-104695714D02*
X198051009Y-104648095D01*
X198051009Y-104648095D02*
X198146247Y-104600476D01*
X198146247Y-104600476D02*
X198384342Y-104600476D01*
X198384342Y-104600476D02*
X198479580Y-104648095D01*
X198479580Y-104648095D02*
X198527200Y-104695714D01*
X198527200Y-104695714D02*
X198574819Y-104790952D01*
X198574819Y-104790952D02*
X198574819Y-105029047D01*
X198574819Y-105029047D02*
X198527200Y-105124285D01*
X198527200Y-105124285D02*
X198479580Y-105171904D01*
X88638333Y-114025531D02*
X88590714Y-114073151D01*
X88590714Y-114073151D02*
X88447857Y-114120770D01*
X88447857Y-114120770D02*
X88352619Y-114120770D01*
X88352619Y-114120770D02*
X88209762Y-114073151D01*
X88209762Y-114073151D02*
X88114524Y-113977912D01*
X88114524Y-113977912D02*
X88066905Y-113882674D01*
X88066905Y-113882674D02*
X88019286Y-113692198D01*
X88019286Y-113692198D02*
X88019286Y-113549341D01*
X88019286Y-113549341D02*
X88066905Y-113358865D01*
X88066905Y-113358865D02*
X88114524Y-113263627D01*
X88114524Y-113263627D02*
X88209762Y-113168389D01*
X88209762Y-113168389D02*
X88352619Y-113120770D01*
X88352619Y-113120770D02*
X88447857Y-113120770D01*
X88447857Y-113120770D02*
X88590714Y-113168389D01*
X88590714Y-113168389D02*
X88638333Y-113216008D01*
X89590714Y-114120770D02*
X89019286Y-114120770D01*
X89305000Y-114120770D02*
X89305000Y-113120770D01*
X89305000Y-113120770D02*
X89209762Y-113263627D01*
X89209762Y-113263627D02*
X89114524Y-113358865D01*
X89114524Y-113358865D02*
X89019286Y-113406484D01*
X121086905Y-121420770D02*
X121086905Y-120420770D01*
X121086905Y-120420770D02*
X121325000Y-120420770D01*
X121325000Y-120420770D02*
X121467857Y-120468389D01*
X121467857Y-120468389D02*
X121563095Y-120563627D01*
X121563095Y-120563627D02*
X121610714Y-120658865D01*
X121610714Y-120658865D02*
X121658333Y-120849341D01*
X121658333Y-120849341D02*
X121658333Y-120992198D01*
X121658333Y-120992198D02*
X121610714Y-121182674D01*
X121610714Y-121182674D02*
X121563095Y-121277912D01*
X121563095Y-121277912D02*
X121467857Y-121373151D01*
X121467857Y-121373151D02*
X121325000Y-121420770D01*
X121325000Y-121420770D02*
X121086905Y-121420770D01*
X122563095Y-120420770D02*
X122086905Y-120420770D01*
X122086905Y-120420770D02*
X122039286Y-120896960D01*
X122039286Y-120896960D02*
X122086905Y-120849341D01*
X122086905Y-120849341D02*
X122182143Y-120801722D01*
X122182143Y-120801722D02*
X122420238Y-120801722D01*
X122420238Y-120801722D02*
X122515476Y-120849341D01*
X122515476Y-120849341D02*
X122563095Y-120896960D01*
X122563095Y-120896960D02*
X122610714Y-120992198D01*
X122610714Y-120992198D02*
X122610714Y-121230293D01*
X122610714Y-121230293D02*
X122563095Y-121325531D01*
X122563095Y-121325531D02*
X122515476Y-121373151D01*
X122515476Y-121373151D02*
X122420238Y-121420770D01*
X122420238Y-121420770D02*
X122182143Y-121420770D01*
X122182143Y-121420770D02*
X122086905Y-121373151D01*
X122086905Y-121373151D02*
X122039286Y-121325531D01*
X141406905Y-121420770D02*
X141406905Y-120420770D01*
X141406905Y-120420770D02*
X141645000Y-120420770D01*
X141645000Y-120420770D02*
X141787857Y-120468389D01*
X141787857Y-120468389D02*
X141883095Y-120563627D01*
X141883095Y-120563627D02*
X141930714Y-120658865D01*
X141930714Y-120658865D02*
X141978333Y-120849341D01*
X141978333Y-120849341D02*
X141978333Y-120992198D01*
X141978333Y-120992198D02*
X141930714Y-121182674D01*
X141930714Y-121182674D02*
X141883095Y-121277912D01*
X141883095Y-121277912D02*
X141787857Y-121373151D01*
X141787857Y-121373151D02*
X141645000Y-121420770D01*
X141645000Y-121420770D02*
X141406905Y-121420770D01*
X142311667Y-120420770D02*
X142978333Y-120420770D01*
X142978333Y-120420770D02*
X142549762Y-121420770D01*
D11*
X100712380Y-135609793D02*
X100893809Y-135670269D01*
X100893809Y-135670269D02*
X101196190Y-135670269D01*
X101196190Y-135670269D02*
X101317142Y-135609793D01*
X101317142Y-135609793D02*
X101377618Y-135549316D01*
X101377618Y-135549316D02*
X101438095Y-135428364D01*
X101438095Y-135428364D02*
X101438095Y-135307412D01*
X101438095Y-135307412D02*
X101377618Y-135186459D01*
X101377618Y-135186459D02*
X101317142Y-135125983D01*
X101317142Y-135125983D02*
X101196190Y-135065507D01*
X101196190Y-135065507D02*
X100954285Y-135005031D01*
X100954285Y-135005031D02*
X100833333Y-134944554D01*
X100833333Y-134944554D02*
X100772856Y-134884078D01*
X100772856Y-134884078D02*
X100712380Y-134763126D01*
X100712380Y-134763126D02*
X100712380Y-134642173D01*
X100712380Y-134642173D02*
X100772856Y-134521221D01*
X100772856Y-134521221D02*
X100833333Y-134460745D01*
X100833333Y-134460745D02*
X100954285Y-134400269D01*
X100954285Y-134400269D02*
X101256666Y-134400269D01*
X101256666Y-134400269D02*
X101438095Y-134460745D01*
X101921904Y-134521221D02*
X101982380Y-134460745D01*
X101982380Y-134460745D02*
X102103333Y-134400269D01*
X102103333Y-134400269D02*
X102405714Y-134400269D01*
X102405714Y-134400269D02*
X102526666Y-134460745D01*
X102526666Y-134460745D02*
X102587142Y-134521221D01*
X102587142Y-134521221D02*
X102647619Y-134642173D01*
X102647619Y-134642173D02*
X102647619Y-134763126D01*
X102647619Y-134763126D02*
X102587142Y-134944554D01*
X102587142Y-134944554D02*
X101861428Y-135670269D01*
X101861428Y-135670269D02*
X102647619Y-135670269D01*
D10*
X95769819Y-117482617D02*
X95293628Y-117815950D01*
X95769819Y-118054045D02*
X94769819Y-118054045D01*
X94769819Y-118054045D02*
X94769819Y-117673093D01*
X94769819Y-117673093D02*
X94817438Y-117577855D01*
X94817438Y-117577855D02*
X94865057Y-117530236D01*
X94865057Y-117530236D02*
X94960295Y-117482617D01*
X94960295Y-117482617D02*
X95103152Y-117482617D01*
X95103152Y-117482617D02*
X95198390Y-117530236D01*
X95198390Y-117530236D02*
X95246009Y-117577855D01*
X95246009Y-117577855D02*
X95293628Y-117673093D01*
X95293628Y-117673093D02*
X95293628Y-118054045D01*
X95769819Y-116530236D02*
X95769819Y-117101664D01*
X95769819Y-116815950D02*
X94769819Y-116815950D01*
X94769819Y-116815950D02*
X94912676Y-116911188D01*
X94912676Y-116911188D02*
X95007914Y-117006426D01*
X95007914Y-117006426D02*
X95055533Y-117101664D01*
X132969642Y-114120770D02*
X132636309Y-113644579D01*
X132398214Y-114120770D02*
X132398214Y-113120770D01*
X132398214Y-113120770D02*
X132779166Y-113120770D01*
X132779166Y-113120770D02*
X132874404Y-113168389D01*
X132874404Y-113168389D02*
X132922023Y-113216008D01*
X132922023Y-113216008D02*
X132969642Y-113311246D01*
X132969642Y-113311246D02*
X132969642Y-113454103D01*
X132969642Y-113454103D02*
X132922023Y-113549341D01*
X132922023Y-113549341D02*
X132874404Y-113596960D01*
X132874404Y-113596960D02*
X132779166Y-113644579D01*
X132779166Y-113644579D02*
X132398214Y-113644579D01*
X133922023Y-114120770D02*
X133350595Y-114120770D01*
X133636309Y-114120770D02*
X133636309Y-113120770D01*
X133636309Y-113120770D02*
X133541071Y-113263627D01*
X133541071Y-113263627D02*
X133445833Y-113358865D01*
X133445833Y-113358865D02*
X133350595Y-113406484D01*
X134255357Y-113120770D02*
X134874404Y-113120770D01*
X134874404Y-113120770D02*
X134541071Y-113501722D01*
X134541071Y-113501722D02*
X134683928Y-113501722D01*
X134683928Y-113501722D02*
X134779166Y-113549341D01*
X134779166Y-113549341D02*
X134826785Y-113596960D01*
X134826785Y-113596960D02*
X134874404Y-113692198D01*
X134874404Y-113692198D02*
X134874404Y-113930293D01*
X134874404Y-113930293D02*
X134826785Y-114025531D01*
X134826785Y-114025531D02*
X134779166Y-114073151D01*
X134779166Y-114073151D02*
X134683928Y-114120770D01*
X134683928Y-114120770D02*
X134398214Y-114120770D01*
X134398214Y-114120770D02*
X134302976Y-114073151D01*
X134302976Y-114073151D02*
X134255357Y-114025531D01*
X131246905Y-121420770D02*
X131246905Y-120420770D01*
X131246905Y-120420770D02*
X131485000Y-120420770D01*
X131485000Y-120420770D02*
X131627857Y-120468389D01*
X131627857Y-120468389D02*
X131723095Y-120563627D01*
X131723095Y-120563627D02*
X131770714Y-120658865D01*
X131770714Y-120658865D02*
X131818333Y-120849341D01*
X131818333Y-120849341D02*
X131818333Y-120992198D01*
X131818333Y-120992198D02*
X131770714Y-121182674D01*
X131770714Y-121182674D02*
X131723095Y-121277912D01*
X131723095Y-121277912D02*
X131627857Y-121373151D01*
X131627857Y-121373151D02*
X131485000Y-121420770D01*
X131485000Y-121420770D02*
X131246905Y-121420770D01*
X132675476Y-120420770D02*
X132485000Y-120420770D01*
X132485000Y-120420770D02*
X132389762Y-120468389D01*
X132389762Y-120468389D02*
X132342143Y-120516008D01*
X132342143Y-120516008D02*
X132246905Y-120658865D01*
X132246905Y-120658865D02*
X132199286Y-120849341D01*
X132199286Y-120849341D02*
X132199286Y-121230293D01*
X132199286Y-121230293D02*
X132246905Y-121325531D01*
X132246905Y-121325531D02*
X132294524Y-121373151D01*
X132294524Y-121373151D02*
X132389762Y-121420770D01*
X132389762Y-121420770D02*
X132580238Y-121420770D01*
X132580238Y-121420770D02*
X132675476Y-121373151D01*
X132675476Y-121373151D02*
X132723095Y-121325531D01*
X132723095Y-121325531D02*
X132770714Y-121230293D01*
X132770714Y-121230293D02*
X132770714Y-120992198D01*
X132770714Y-120992198D02*
X132723095Y-120896960D01*
X132723095Y-120896960D02*
X132675476Y-120849341D01*
X132675476Y-120849341D02*
X132580238Y-120801722D01*
X132580238Y-120801722D02*
X132389762Y-120801722D01*
X132389762Y-120801722D02*
X132294524Y-120849341D01*
X132294524Y-120849341D02*
X132246905Y-120896960D01*
X132246905Y-120896960D02*
X132199286Y-120992198D01*
X108958333Y-114025531D02*
X108910714Y-114073151D01*
X108910714Y-114073151D02*
X108767857Y-114120770D01*
X108767857Y-114120770D02*
X108672619Y-114120770D01*
X108672619Y-114120770D02*
X108529762Y-114073151D01*
X108529762Y-114073151D02*
X108434524Y-113977912D01*
X108434524Y-113977912D02*
X108386905Y-113882674D01*
X108386905Y-113882674D02*
X108339286Y-113692198D01*
X108339286Y-113692198D02*
X108339286Y-113549341D01*
X108339286Y-113549341D02*
X108386905Y-113358865D01*
X108386905Y-113358865D02*
X108434524Y-113263627D01*
X108434524Y-113263627D02*
X108529762Y-113168389D01*
X108529762Y-113168389D02*
X108672619Y-113120770D01*
X108672619Y-113120770D02*
X108767857Y-113120770D01*
X108767857Y-113120770D02*
X108910714Y-113168389D01*
X108910714Y-113168389D02*
X108958333Y-113216008D01*
X109291667Y-113120770D02*
X109910714Y-113120770D01*
X109910714Y-113120770D02*
X109577381Y-113501722D01*
X109577381Y-113501722D02*
X109720238Y-113501722D01*
X109720238Y-113501722D02*
X109815476Y-113549341D01*
X109815476Y-113549341D02*
X109863095Y-113596960D01*
X109863095Y-113596960D02*
X109910714Y-113692198D01*
X109910714Y-113692198D02*
X109910714Y-113930293D01*
X109910714Y-113930293D02*
X109863095Y-114025531D01*
X109863095Y-114025531D02*
X109815476Y-114073151D01*
X109815476Y-114073151D02*
X109720238Y-114120770D01*
X109720238Y-114120770D02*
X109434524Y-114120770D01*
X109434524Y-114120770D02*
X109339286Y-114073151D01*
X109339286Y-114073151D02*
X109291667Y-114025531D01*
X112649642Y-114120770D02*
X112316309Y-113644579D01*
X112078214Y-114120770D02*
X112078214Y-113120770D01*
X112078214Y-113120770D02*
X112459166Y-113120770D01*
X112459166Y-113120770D02*
X112554404Y-113168389D01*
X112554404Y-113168389D02*
X112602023Y-113216008D01*
X112602023Y-113216008D02*
X112649642Y-113311246D01*
X112649642Y-113311246D02*
X112649642Y-113454103D01*
X112649642Y-113454103D02*
X112602023Y-113549341D01*
X112602023Y-113549341D02*
X112554404Y-113596960D01*
X112554404Y-113596960D02*
X112459166Y-113644579D01*
X112459166Y-113644579D02*
X112078214Y-113644579D01*
X113602023Y-114120770D02*
X113030595Y-114120770D01*
X113316309Y-114120770D02*
X113316309Y-113120770D01*
X113316309Y-113120770D02*
X113221071Y-113263627D01*
X113221071Y-113263627D02*
X113125833Y-113358865D01*
X113125833Y-113358865D02*
X113030595Y-113406484D01*
X114554404Y-114120770D02*
X113982976Y-114120770D01*
X114268690Y-114120770D02*
X114268690Y-113120770D01*
X114268690Y-113120770D02*
X114173452Y-113263627D01*
X114173452Y-113263627D02*
X114078214Y-113358865D01*
X114078214Y-113358865D02*
X113982976Y-113406484D01*
X116089819Y-126491308D02*
X115613628Y-126824641D01*
X116089819Y-127062736D02*
X115089819Y-127062736D01*
X115089819Y-127062736D02*
X115089819Y-126681784D01*
X115089819Y-126681784D02*
X115137438Y-126586546D01*
X115137438Y-126586546D02*
X115185057Y-126538927D01*
X115185057Y-126538927D02*
X115280295Y-126491308D01*
X115280295Y-126491308D02*
X115423152Y-126491308D01*
X115423152Y-126491308D02*
X115518390Y-126538927D01*
X115518390Y-126538927D02*
X115566009Y-126586546D01*
X115566009Y-126586546D02*
X115613628Y-126681784D01*
X115613628Y-126681784D02*
X115613628Y-127062736D01*
X115185057Y-126110355D02*
X115137438Y-126062736D01*
X115137438Y-126062736D02*
X115089819Y-125967498D01*
X115089819Y-125967498D02*
X115089819Y-125729403D01*
X115089819Y-125729403D02*
X115137438Y-125634165D01*
X115137438Y-125634165D02*
X115185057Y-125586546D01*
X115185057Y-125586546D02*
X115280295Y-125538927D01*
X115280295Y-125538927D02*
X115375533Y-125538927D01*
X115375533Y-125538927D02*
X115518390Y-125586546D01*
X115518390Y-125586546D02*
X116089819Y-126157974D01*
X116089819Y-126157974D02*
X116089819Y-125538927D01*
X115089819Y-124919879D02*
X115089819Y-124824641D01*
X115089819Y-124824641D02*
X115137438Y-124729403D01*
X115137438Y-124729403D02*
X115185057Y-124681784D01*
X115185057Y-124681784D02*
X115280295Y-124634165D01*
X115280295Y-124634165D02*
X115470771Y-124586546D01*
X115470771Y-124586546D02*
X115708866Y-124586546D01*
X115708866Y-124586546D02*
X115899342Y-124634165D01*
X115899342Y-124634165D02*
X115994580Y-124681784D01*
X115994580Y-124681784D02*
X116042200Y-124729403D01*
X116042200Y-124729403D02*
X116089819Y-124824641D01*
X116089819Y-124824641D02*
X116089819Y-124919879D01*
X116089819Y-124919879D02*
X116042200Y-125015117D01*
X116042200Y-125015117D02*
X115994580Y-125062736D01*
X115994580Y-125062736D02*
X115899342Y-125110355D01*
X115899342Y-125110355D02*
X115708866Y-125157974D01*
X115708866Y-125157974D02*
X115470771Y-125157974D01*
X115470771Y-125157974D02*
X115280295Y-125110355D01*
X115280295Y-125110355D02*
X115185057Y-125062736D01*
X115185057Y-125062736D02*
X115137438Y-125015117D01*
X115137438Y-125015117D02*
X115089819Y-124919879D01*
D11*
X178621905Y-133530269D02*
X179045238Y-134800269D01*
X179045238Y-134800269D02*
X179468572Y-133530269D01*
X180617619Y-134800269D02*
X180194285Y-134195507D01*
X179891904Y-134800269D02*
X179891904Y-133530269D01*
X179891904Y-133530269D02*
X180375714Y-133530269D01*
X180375714Y-133530269D02*
X180496666Y-133590745D01*
X180496666Y-133590745D02*
X180557143Y-133651221D01*
X180557143Y-133651221D02*
X180617619Y-133772173D01*
X180617619Y-133772173D02*
X180617619Y-133953602D01*
X180617619Y-133953602D02*
X180557143Y-134074554D01*
X180557143Y-134074554D02*
X180496666Y-134135031D01*
X180496666Y-134135031D02*
X180375714Y-134195507D01*
X180375714Y-134195507D02*
X179891904Y-134195507D01*
X181827143Y-134800269D02*
X181101428Y-134800269D01*
X181464285Y-134800269D02*
X181464285Y-133530269D01*
X181464285Y-133530269D02*
X181343333Y-133711697D01*
X181343333Y-133711697D02*
X181222381Y-133832650D01*
X181222381Y-133832650D02*
X181101428Y-133893126D01*
D10*
X199644047Y-140106960D02*
X199786904Y-140154579D01*
X199786904Y-140154579D02*
X199834523Y-140202198D01*
X199834523Y-140202198D02*
X199882142Y-140297436D01*
X199882142Y-140297436D02*
X199882142Y-140440293D01*
X199882142Y-140440293D02*
X199834523Y-140535531D01*
X199834523Y-140535531D02*
X199786904Y-140583151D01*
X199786904Y-140583151D02*
X199691666Y-140630770D01*
X199691666Y-140630770D02*
X199310714Y-140630770D01*
X199310714Y-140630770D02*
X199310714Y-139630770D01*
X199310714Y-139630770D02*
X199644047Y-139630770D01*
X199644047Y-139630770D02*
X199739285Y-139678389D01*
X199739285Y-139678389D02*
X199786904Y-139726008D01*
X199786904Y-139726008D02*
X199834523Y-139821246D01*
X199834523Y-139821246D02*
X199834523Y-139916484D01*
X199834523Y-139916484D02*
X199786904Y-140011722D01*
X199786904Y-140011722D02*
X199739285Y-140059341D01*
X199739285Y-140059341D02*
X199644047Y-140106960D01*
X199644047Y-140106960D02*
X199310714Y-140106960D01*
X200215476Y-139630770D02*
X200882142Y-139630770D01*
X200882142Y-139630770D02*
X200215476Y-140630770D01*
X200215476Y-140630770D02*
X200882142Y-140630770D01*
X201786904Y-140630770D02*
X201215476Y-140630770D01*
X201501190Y-140630770D02*
X201501190Y-139630770D01*
X201501190Y-139630770D02*
X201405952Y-139773627D01*
X201405952Y-139773627D02*
X201310714Y-139868865D01*
X201310714Y-139868865D02*
X201215476Y-139916484D01*
D11*
X151512380Y-135609793D02*
X151693809Y-135670269D01*
X151693809Y-135670269D02*
X151996190Y-135670269D01*
X151996190Y-135670269D02*
X152117142Y-135609793D01*
X152117142Y-135609793D02*
X152177618Y-135549316D01*
X152177618Y-135549316D02*
X152238095Y-135428364D01*
X152238095Y-135428364D02*
X152238095Y-135307412D01*
X152238095Y-135307412D02*
X152177618Y-135186459D01*
X152177618Y-135186459D02*
X152117142Y-135125983D01*
X152117142Y-135125983D02*
X151996190Y-135065507D01*
X151996190Y-135065507D02*
X151754285Y-135005031D01*
X151754285Y-135005031D02*
X151633333Y-134944554D01*
X151633333Y-134944554D02*
X151572856Y-134884078D01*
X151572856Y-134884078D02*
X151512380Y-134763126D01*
X151512380Y-134763126D02*
X151512380Y-134642173D01*
X151512380Y-134642173D02*
X151572856Y-134521221D01*
X151572856Y-134521221D02*
X151633333Y-134460745D01*
X151633333Y-134460745D02*
X151754285Y-134400269D01*
X151754285Y-134400269D02*
X152056666Y-134400269D01*
X152056666Y-134400269D02*
X152238095Y-134460745D01*
X152661428Y-134400269D02*
X153508095Y-134400269D01*
X153508095Y-134400269D02*
X152963809Y-135670269D01*
D10*
X102489642Y-114120770D02*
X102156309Y-113644579D01*
X101918214Y-114120770D02*
X101918214Y-113120770D01*
X101918214Y-113120770D02*
X102299166Y-113120770D01*
X102299166Y-113120770D02*
X102394404Y-113168389D01*
X102394404Y-113168389D02*
X102442023Y-113216008D01*
X102442023Y-113216008D02*
X102489642Y-113311246D01*
X102489642Y-113311246D02*
X102489642Y-113454103D01*
X102489642Y-113454103D02*
X102442023Y-113549341D01*
X102442023Y-113549341D02*
X102394404Y-113596960D01*
X102394404Y-113596960D02*
X102299166Y-113644579D01*
X102299166Y-113644579D02*
X101918214Y-113644579D01*
X103442023Y-114120770D02*
X102870595Y-114120770D01*
X103156309Y-114120770D02*
X103156309Y-113120770D01*
X103156309Y-113120770D02*
X103061071Y-113263627D01*
X103061071Y-113263627D02*
X102965833Y-113358865D01*
X102965833Y-113358865D02*
X102870595Y-113406484D01*
X104061071Y-113120770D02*
X104156309Y-113120770D01*
X104156309Y-113120770D02*
X104251547Y-113168389D01*
X104251547Y-113168389D02*
X104299166Y-113216008D01*
X104299166Y-113216008D02*
X104346785Y-113311246D01*
X104346785Y-113311246D02*
X104394404Y-113501722D01*
X104394404Y-113501722D02*
X104394404Y-113739817D01*
X104394404Y-113739817D02*
X104346785Y-113930293D01*
X104346785Y-113930293D02*
X104299166Y-114025531D01*
X104299166Y-114025531D02*
X104251547Y-114073151D01*
X104251547Y-114073151D02*
X104156309Y-114120770D01*
X104156309Y-114120770D02*
X104061071Y-114120770D01*
X104061071Y-114120770D02*
X103965833Y-114073151D01*
X103965833Y-114073151D02*
X103918214Y-114025531D01*
X103918214Y-114025531D02*
X103870595Y-113930293D01*
X103870595Y-113930293D02*
X103822976Y-113739817D01*
X103822976Y-113739817D02*
X103822976Y-113501722D01*
X103822976Y-113501722D02*
X103870595Y-113311246D01*
X103870595Y-113311246D02*
X103918214Y-113216008D01*
X103918214Y-113216008D02*
X103965833Y-113168389D01*
X103965833Y-113168389D02*
X104061071Y-113120770D01*
X140447261Y-116416008D02*
X140352023Y-116368389D01*
X140352023Y-116368389D02*
X140256785Y-116273151D01*
X140256785Y-116273151D02*
X140113928Y-116130293D01*
X140113928Y-116130293D02*
X140018690Y-116082674D01*
X140018690Y-116082674D02*
X139923452Y-116082674D01*
X139971071Y-116320770D02*
X139875833Y-116273151D01*
X139875833Y-116273151D02*
X139780595Y-116177912D01*
X139780595Y-116177912D02*
X139732976Y-115987436D01*
X139732976Y-115987436D02*
X139732976Y-115654103D01*
X139732976Y-115654103D02*
X139780595Y-115463627D01*
X139780595Y-115463627D02*
X139875833Y-115368389D01*
X139875833Y-115368389D02*
X139971071Y-115320770D01*
X139971071Y-115320770D02*
X140161547Y-115320770D01*
X140161547Y-115320770D02*
X140256785Y-115368389D01*
X140256785Y-115368389D02*
X140352023Y-115463627D01*
X140352023Y-115463627D02*
X140399642Y-115654103D01*
X140399642Y-115654103D02*
X140399642Y-115987436D01*
X140399642Y-115987436D02*
X140352023Y-116177912D01*
X140352023Y-116177912D02*
X140256785Y-116273151D01*
X140256785Y-116273151D02*
X140161547Y-116320770D01*
X140161547Y-116320770D02*
X139971071Y-116320770D01*
X141256785Y-115320770D02*
X141066309Y-115320770D01*
X141066309Y-115320770D02*
X140971071Y-115368389D01*
X140971071Y-115368389D02*
X140923452Y-115416008D01*
X140923452Y-115416008D02*
X140828214Y-115558865D01*
X140828214Y-115558865D02*
X140780595Y-115749341D01*
X140780595Y-115749341D02*
X140780595Y-116130293D01*
X140780595Y-116130293D02*
X140828214Y-116225531D01*
X140828214Y-116225531D02*
X140875833Y-116273151D01*
X140875833Y-116273151D02*
X140971071Y-116320770D01*
X140971071Y-116320770D02*
X141161547Y-116320770D01*
X141161547Y-116320770D02*
X141256785Y-116273151D01*
X141256785Y-116273151D02*
X141304404Y-116225531D01*
X141304404Y-116225531D02*
X141352023Y-116130293D01*
X141352023Y-116130293D02*
X141352023Y-115892198D01*
X141352023Y-115892198D02*
X141304404Y-115796960D01*
X141304404Y-115796960D02*
X141256785Y-115749341D01*
X141256785Y-115749341D02*
X141161547Y-115701722D01*
X141161547Y-115701722D02*
X140971071Y-115701722D01*
X140971071Y-115701722D02*
X140875833Y-115749341D01*
X140875833Y-115749341D02*
X140828214Y-115796960D01*
X140828214Y-115796960D02*
X140780595Y-115892198D01*
X189008095Y-58555770D02*
X189008095Y-59365293D01*
X189008095Y-59365293D02*
X189055714Y-59460531D01*
X189055714Y-59460531D02*
X189103333Y-59508151D01*
X189103333Y-59508151D02*
X189198571Y-59555770D01*
X189198571Y-59555770D02*
X189389047Y-59555770D01*
X189389047Y-59555770D02*
X189484285Y-59508151D01*
X189484285Y-59508151D02*
X189531904Y-59460531D01*
X189531904Y-59460531D02*
X189579523Y-59365293D01*
X189579523Y-59365293D02*
X189579523Y-58555770D01*
X190008095Y-58651008D02*
X190055714Y-58603389D01*
X190055714Y-58603389D02*
X190150952Y-58555770D01*
X190150952Y-58555770D02*
X190389047Y-58555770D01*
X190389047Y-58555770D02*
X190484285Y-58603389D01*
X190484285Y-58603389D02*
X190531904Y-58651008D01*
X190531904Y-58651008D02*
X190579523Y-58746246D01*
X190579523Y-58746246D02*
X190579523Y-58841484D01*
X190579523Y-58841484D02*
X190531904Y-58984341D01*
X190531904Y-58984341D02*
X189960476Y-59555770D01*
X189960476Y-59555770D02*
X190579523Y-59555770D01*
X136409819Y-117482617D02*
X135933628Y-117815950D01*
X136409819Y-118054045D02*
X135409819Y-118054045D01*
X135409819Y-118054045D02*
X135409819Y-117673093D01*
X135409819Y-117673093D02*
X135457438Y-117577855D01*
X135457438Y-117577855D02*
X135505057Y-117530236D01*
X135505057Y-117530236D02*
X135600295Y-117482617D01*
X135600295Y-117482617D02*
X135743152Y-117482617D01*
X135743152Y-117482617D02*
X135838390Y-117530236D01*
X135838390Y-117530236D02*
X135886009Y-117577855D01*
X135886009Y-117577855D02*
X135933628Y-117673093D01*
X135933628Y-117673093D02*
X135933628Y-118054045D01*
X135409819Y-116577855D02*
X135409819Y-117054045D01*
X135409819Y-117054045D02*
X135886009Y-117101664D01*
X135886009Y-117101664D02*
X135838390Y-117054045D01*
X135838390Y-117054045D02*
X135790771Y-116958807D01*
X135790771Y-116958807D02*
X135790771Y-116720712D01*
X135790771Y-116720712D02*
X135838390Y-116625474D01*
X135838390Y-116625474D02*
X135886009Y-116577855D01*
X135886009Y-116577855D02*
X135981247Y-116530236D01*
X135981247Y-116530236D02*
X136219342Y-116530236D01*
X136219342Y-116530236D02*
X136314580Y-116577855D01*
X136314580Y-116577855D02*
X136362200Y-116625474D01*
X136362200Y-116625474D02*
X136409819Y-116720712D01*
X136409819Y-116720712D02*
X136409819Y-116958807D01*
X136409819Y-116958807D02*
X136362200Y-117054045D01*
X136362200Y-117054045D02*
X136314580Y-117101664D01*
X116089819Y-117482617D02*
X115613628Y-117815950D01*
X116089819Y-118054045D02*
X115089819Y-118054045D01*
X115089819Y-118054045D02*
X115089819Y-117673093D01*
X115089819Y-117673093D02*
X115137438Y-117577855D01*
X115137438Y-117577855D02*
X115185057Y-117530236D01*
X115185057Y-117530236D02*
X115280295Y-117482617D01*
X115280295Y-117482617D02*
X115423152Y-117482617D01*
X115423152Y-117482617D02*
X115518390Y-117530236D01*
X115518390Y-117530236D02*
X115566009Y-117577855D01*
X115566009Y-117577855D02*
X115613628Y-117673093D01*
X115613628Y-117673093D02*
X115613628Y-118054045D01*
X115089819Y-117149283D02*
X115089819Y-116530236D01*
X115089819Y-116530236D02*
X115470771Y-116863569D01*
X115470771Y-116863569D02*
X115470771Y-116720712D01*
X115470771Y-116720712D02*
X115518390Y-116625474D01*
X115518390Y-116625474D02*
X115566009Y-116577855D01*
X115566009Y-116577855D02*
X115661247Y-116530236D01*
X115661247Y-116530236D02*
X115899342Y-116530236D01*
X115899342Y-116530236D02*
X115994580Y-116577855D01*
X115994580Y-116577855D02*
X116042200Y-116625474D01*
X116042200Y-116625474D02*
X116089819Y-116720712D01*
X116089819Y-116720712D02*
X116089819Y-117006426D01*
X116089819Y-117006426D02*
X116042200Y-117101664D01*
X116042200Y-117101664D02*
X115994580Y-117149283D01*
X163449642Y-114120770D02*
X163116309Y-113644579D01*
X162878214Y-114120770D02*
X162878214Y-113120770D01*
X162878214Y-113120770D02*
X163259166Y-113120770D01*
X163259166Y-113120770D02*
X163354404Y-113168389D01*
X163354404Y-113168389D02*
X163402023Y-113216008D01*
X163402023Y-113216008D02*
X163449642Y-113311246D01*
X163449642Y-113311246D02*
X163449642Y-113454103D01*
X163449642Y-113454103D02*
X163402023Y-113549341D01*
X163402023Y-113549341D02*
X163354404Y-113596960D01*
X163354404Y-113596960D02*
X163259166Y-113644579D01*
X163259166Y-113644579D02*
X162878214Y-113644579D01*
X164402023Y-114120770D02*
X163830595Y-114120770D01*
X164116309Y-114120770D02*
X164116309Y-113120770D01*
X164116309Y-113120770D02*
X164021071Y-113263627D01*
X164021071Y-113263627D02*
X163925833Y-113358865D01*
X163925833Y-113358865D02*
X163830595Y-113406484D01*
X165259166Y-113120770D02*
X165068690Y-113120770D01*
X165068690Y-113120770D02*
X164973452Y-113168389D01*
X164973452Y-113168389D02*
X164925833Y-113216008D01*
X164925833Y-113216008D02*
X164830595Y-113358865D01*
X164830595Y-113358865D02*
X164782976Y-113549341D01*
X164782976Y-113549341D02*
X164782976Y-113930293D01*
X164782976Y-113930293D02*
X164830595Y-114025531D01*
X164830595Y-114025531D02*
X164878214Y-114073151D01*
X164878214Y-114073151D02*
X164973452Y-114120770D01*
X164973452Y-114120770D02*
X165163928Y-114120770D01*
X165163928Y-114120770D02*
X165259166Y-114073151D01*
X165259166Y-114073151D02*
X165306785Y-114025531D01*
X165306785Y-114025531D02*
X165354404Y-113930293D01*
X165354404Y-113930293D02*
X165354404Y-113692198D01*
X165354404Y-113692198D02*
X165306785Y-113596960D01*
X165306785Y-113596960D02*
X165259166Y-113549341D01*
X165259166Y-113549341D02*
X165163928Y-113501722D01*
X165163928Y-113501722D02*
X164973452Y-113501722D01*
X164973452Y-113501722D02*
X164878214Y-113549341D01*
X164878214Y-113549341D02*
X164830595Y-113596960D01*
X164830595Y-113596960D02*
X164782976Y-113692198D01*
X193214642Y-116340770D02*
X192881309Y-115864579D01*
X192643214Y-116340770D02*
X192643214Y-115340770D01*
X192643214Y-115340770D02*
X193024166Y-115340770D01*
X193024166Y-115340770D02*
X193119404Y-115388389D01*
X193119404Y-115388389D02*
X193167023Y-115436008D01*
X193167023Y-115436008D02*
X193214642Y-115531246D01*
X193214642Y-115531246D02*
X193214642Y-115674103D01*
X193214642Y-115674103D02*
X193167023Y-115769341D01*
X193167023Y-115769341D02*
X193119404Y-115816960D01*
X193119404Y-115816960D02*
X193024166Y-115864579D01*
X193024166Y-115864579D02*
X192643214Y-115864579D01*
X193595595Y-115436008D02*
X193643214Y-115388389D01*
X193643214Y-115388389D02*
X193738452Y-115340770D01*
X193738452Y-115340770D02*
X193976547Y-115340770D01*
X193976547Y-115340770D02*
X194071785Y-115388389D01*
X194071785Y-115388389D02*
X194119404Y-115436008D01*
X194119404Y-115436008D02*
X194167023Y-115531246D01*
X194167023Y-115531246D02*
X194167023Y-115626484D01*
X194167023Y-115626484D02*
X194119404Y-115769341D01*
X194119404Y-115769341D02*
X193547976Y-116340770D01*
X193547976Y-116340770D02*
X194167023Y-116340770D01*
X194500357Y-115340770D02*
X195167023Y-115340770D01*
X195167023Y-115340770D02*
X194738452Y-116340770D01*
X126249819Y-117482617D02*
X125773628Y-117815950D01*
X126249819Y-118054045D02*
X125249819Y-118054045D01*
X125249819Y-118054045D02*
X125249819Y-117673093D01*
X125249819Y-117673093D02*
X125297438Y-117577855D01*
X125297438Y-117577855D02*
X125345057Y-117530236D01*
X125345057Y-117530236D02*
X125440295Y-117482617D01*
X125440295Y-117482617D02*
X125583152Y-117482617D01*
X125583152Y-117482617D02*
X125678390Y-117530236D01*
X125678390Y-117530236D02*
X125726009Y-117577855D01*
X125726009Y-117577855D02*
X125773628Y-117673093D01*
X125773628Y-117673093D02*
X125773628Y-118054045D01*
X125583152Y-116625474D02*
X126249819Y-116625474D01*
X125202200Y-116863569D02*
X125916485Y-117101664D01*
X125916485Y-117101664D02*
X125916485Y-116482617D01*
X156729819Y-126491308D02*
X156253628Y-126824641D01*
X156729819Y-127062736D02*
X155729819Y-127062736D01*
X155729819Y-127062736D02*
X155729819Y-126681784D01*
X155729819Y-126681784D02*
X155777438Y-126586546D01*
X155777438Y-126586546D02*
X155825057Y-126538927D01*
X155825057Y-126538927D02*
X155920295Y-126491308D01*
X155920295Y-126491308D02*
X156063152Y-126491308D01*
X156063152Y-126491308D02*
X156158390Y-126538927D01*
X156158390Y-126538927D02*
X156206009Y-126586546D01*
X156206009Y-126586546D02*
X156253628Y-126681784D01*
X156253628Y-126681784D02*
X156253628Y-127062736D01*
X155825057Y-126110355D02*
X155777438Y-126062736D01*
X155777438Y-126062736D02*
X155729819Y-125967498D01*
X155729819Y-125967498D02*
X155729819Y-125729403D01*
X155729819Y-125729403D02*
X155777438Y-125634165D01*
X155777438Y-125634165D02*
X155825057Y-125586546D01*
X155825057Y-125586546D02*
X155920295Y-125538927D01*
X155920295Y-125538927D02*
X156015533Y-125538927D01*
X156015533Y-125538927D02*
X156158390Y-125586546D01*
X156158390Y-125586546D02*
X156729819Y-126157974D01*
X156729819Y-126157974D02*
X156729819Y-125538927D01*
X156063152Y-124681784D02*
X156729819Y-124681784D01*
X155682200Y-124919879D02*
X156396485Y-125157974D01*
X156396485Y-125157974D02*
X156396485Y-124538927D01*
X205624819Y-105893808D02*
X205148628Y-106227141D01*
X205624819Y-106465236D02*
X204624819Y-106465236D01*
X204624819Y-106465236D02*
X204624819Y-106084284D01*
X204624819Y-106084284D02*
X204672438Y-105989046D01*
X204672438Y-105989046D02*
X204720057Y-105941427D01*
X204720057Y-105941427D02*
X204815295Y-105893808D01*
X204815295Y-105893808D02*
X204958152Y-105893808D01*
X204958152Y-105893808D02*
X205053390Y-105941427D01*
X205053390Y-105941427D02*
X205101009Y-105989046D01*
X205101009Y-105989046D02*
X205148628Y-106084284D01*
X205148628Y-106084284D02*
X205148628Y-106465236D01*
X204720057Y-105512855D02*
X204672438Y-105465236D01*
X204672438Y-105465236D02*
X204624819Y-105369998D01*
X204624819Y-105369998D02*
X204624819Y-105131903D01*
X204624819Y-105131903D02*
X204672438Y-105036665D01*
X204672438Y-105036665D02*
X204720057Y-104989046D01*
X204720057Y-104989046D02*
X204815295Y-104941427D01*
X204815295Y-104941427D02*
X204910533Y-104941427D01*
X204910533Y-104941427D02*
X205053390Y-104989046D01*
X205053390Y-104989046D02*
X205624819Y-105560474D01*
X205624819Y-105560474D02*
X205624819Y-104941427D01*
X205624819Y-104465236D02*
X205624819Y-104274760D01*
X205624819Y-104274760D02*
X205577200Y-104179522D01*
X205577200Y-104179522D02*
X205529580Y-104131903D01*
X205529580Y-104131903D02*
X205386723Y-104036665D01*
X205386723Y-104036665D02*
X205196247Y-103989046D01*
X205196247Y-103989046D02*
X204815295Y-103989046D01*
X204815295Y-103989046D02*
X204720057Y-104036665D01*
X204720057Y-104036665D02*
X204672438Y-104084284D01*
X204672438Y-104084284D02*
X204624819Y-104179522D01*
X204624819Y-104179522D02*
X204624819Y-104369998D01*
X204624819Y-104369998D02*
X204672438Y-104465236D01*
X204672438Y-104465236D02*
X204720057Y-104512855D01*
X204720057Y-104512855D02*
X204815295Y-104560474D01*
X204815295Y-104560474D02*
X205053390Y-104560474D01*
X205053390Y-104560474D02*
X205148628Y-104512855D01*
X205148628Y-104512855D02*
X205196247Y-104465236D01*
X205196247Y-104465236D02*
X205243866Y-104369998D01*
X205243866Y-104369998D02*
X205243866Y-104179522D01*
X205243866Y-104179522D02*
X205196247Y-104084284D01*
X205196247Y-104084284D02*
X205148628Y-104036665D01*
X205148628Y-104036665D02*
X205053390Y-103989046D01*
X166889819Y-117482617D02*
X166413628Y-117815950D01*
X166889819Y-118054045D02*
X165889819Y-118054045D01*
X165889819Y-118054045D02*
X165889819Y-117673093D01*
X165889819Y-117673093D02*
X165937438Y-117577855D01*
X165937438Y-117577855D02*
X165985057Y-117530236D01*
X165985057Y-117530236D02*
X166080295Y-117482617D01*
X166080295Y-117482617D02*
X166223152Y-117482617D01*
X166223152Y-117482617D02*
X166318390Y-117530236D01*
X166318390Y-117530236D02*
X166366009Y-117577855D01*
X166366009Y-117577855D02*
X166413628Y-117673093D01*
X166413628Y-117673093D02*
X166413628Y-118054045D01*
X166318390Y-116911188D02*
X166270771Y-117006426D01*
X166270771Y-117006426D02*
X166223152Y-117054045D01*
X166223152Y-117054045D02*
X166127914Y-117101664D01*
X166127914Y-117101664D02*
X166080295Y-117101664D01*
X166080295Y-117101664D02*
X165985057Y-117054045D01*
X165985057Y-117054045D02*
X165937438Y-117006426D01*
X165937438Y-117006426D02*
X165889819Y-116911188D01*
X165889819Y-116911188D02*
X165889819Y-116720712D01*
X165889819Y-116720712D02*
X165937438Y-116625474D01*
X165937438Y-116625474D02*
X165985057Y-116577855D01*
X165985057Y-116577855D02*
X166080295Y-116530236D01*
X166080295Y-116530236D02*
X166127914Y-116530236D01*
X166127914Y-116530236D02*
X166223152Y-116577855D01*
X166223152Y-116577855D02*
X166270771Y-116625474D01*
X166270771Y-116625474D02*
X166318390Y-116720712D01*
X166318390Y-116720712D02*
X166318390Y-116911188D01*
X166318390Y-116911188D02*
X166366009Y-117006426D01*
X166366009Y-117006426D02*
X166413628Y-117054045D01*
X166413628Y-117054045D02*
X166508866Y-117101664D01*
X166508866Y-117101664D02*
X166699342Y-117101664D01*
X166699342Y-117101664D02*
X166794580Y-117054045D01*
X166794580Y-117054045D02*
X166842200Y-117006426D01*
X166842200Y-117006426D02*
X166889819Y-116911188D01*
X166889819Y-116911188D02*
X166889819Y-116720712D01*
X166889819Y-116720712D02*
X166842200Y-116625474D01*
X166842200Y-116625474D02*
X166794580Y-116577855D01*
X166794580Y-116577855D02*
X166699342Y-116530236D01*
X166699342Y-116530236D02*
X166508866Y-116530236D01*
X166508866Y-116530236D02*
X166413628Y-116577855D01*
X166413628Y-116577855D02*
X166366009Y-116625474D01*
X166366009Y-116625474D02*
X166318390Y-116720712D01*
D11*
X90552380Y-135609793D02*
X90733809Y-135670269D01*
X90733809Y-135670269D02*
X91036190Y-135670269D01*
X91036190Y-135670269D02*
X91157142Y-135609793D01*
X91157142Y-135609793D02*
X91217618Y-135549316D01*
X91217618Y-135549316D02*
X91278095Y-135428364D01*
X91278095Y-135428364D02*
X91278095Y-135307412D01*
X91278095Y-135307412D02*
X91217618Y-135186459D01*
X91217618Y-135186459D02*
X91157142Y-135125983D01*
X91157142Y-135125983D02*
X91036190Y-135065507D01*
X91036190Y-135065507D02*
X90794285Y-135005031D01*
X90794285Y-135005031D02*
X90673333Y-134944554D01*
X90673333Y-134944554D02*
X90612856Y-134884078D01*
X90612856Y-134884078D02*
X90552380Y-134763126D01*
X90552380Y-134763126D02*
X90552380Y-134642173D01*
X90552380Y-134642173D02*
X90612856Y-134521221D01*
X90612856Y-134521221D02*
X90673333Y-134460745D01*
X90673333Y-134460745D02*
X90794285Y-134400269D01*
X90794285Y-134400269D02*
X91096666Y-134400269D01*
X91096666Y-134400269D02*
X91278095Y-134460745D01*
X92487619Y-135670269D02*
X91761904Y-135670269D01*
X92124761Y-135670269D02*
X92124761Y-134400269D01*
X92124761Y-134400269D02*
X92003809Y-134581697D01*
X92003809Y-134581697D02*
X91882857Y-134702650D01*
X91882857Y-134702650D02*
X91761904Y-134763126D01*
D10*
X98798333Y-114025531D02*
X98750714Y-114073151D01*
X98750714Y-114073151D02*
X98607857Y-114120770D01*
X98607857Y-114120770D02*
X98512619Y-114120770D01*
X98512619Y-114120770D02*
X98369762Y-114073151D01*
X98369762Y-114073151D02*
X98274524Y-113977912D01*
X98274524Y-113977912D02*
X98226905Y-113882674D01*
X98226905Y-113882674D02*
X98179286Y-113692198D01*
X98179286Y-113692198D02*
X98179286Y-113549341D01*
X98179286Y-113549341D02*
X98226905Y-113358865D01*
X98226905Y-113358865D02*
X98274524Y-113263627D01*
X98274524Y-113263627D02*
X98369762Y-113168389D01*
X98369762Y-113168389D02*
X98512619Y-113120770D01*
X98512619Y-113120770D02*
X98607857Y-113120770D01*
X98607857Y-113120770D02*
X98750714Y-113168389D01*
X98750714Y-113168389D02*
X98798333Y-113216008D01*
X99179286Y-113216008D02*
X99226905Y-113168389D01*
X99226905Y-113168389D02*
X99322143Y-113120770D01*
X99322143Y-113120770D02*
X99560238Y-113120770D01*
X99560238Y-113120770D02*
X99655476Y-113168389D01*
X99655476Y-113168389D02*
X99703095Y-113216008D01*
X99703095Y-113216008D02*
X99750714Y-113311246D01*
X99750714Y-113311246D02*
X99750714Y-113406484D01*
X99750714Y-113406484D02*
X99703095Y-113549341D01*
X99703095Y-113549341D02*
X99131667Y-114120770D01*
X99131667Y-114120770D02*
X99750714Y-114120770D01*
D11*
X161672380Y-135609793D02*
X161853809Y-135670269D01*
X161853809Y-135670269D02*
X162156190Y-135670269D01*
X162156190Y-135670269D02*
X162277142Y-135609793D01*
X162277142Y-135609793D02*
X162337618Y-135549316D01*
X162337618Y-135549316D02*
X162398095Y-135428364D01*
X162398095Y-135428364D02*
X162398095Y-135307412D01*
X162398095Y-135307412D02*
X162337618Y-135186459D01*
X162337618Y-135186459D02*
X162277142Y-135125983D01*
X162277142Y-135125983D02*
X162156190Y-135065507D01*
X162156190Y-135065507D02*
X161914285Y-135005031D01*
X161914285Y-135005031D02*
X161793333Y-134944554D01*
X161793333Y-134944554D02*
X161732856Y-134884078D01*
X161732856Y-134884078D02*
X161672380Y-134763126D01*
X161672380Y-134763126D02*
X161672380Y-134642173D01*
X161672380Y-134642173D02*
X161732856Y-134521221D01*
X161732856Y-134521221D02*
X161793333Y-134460745D01*
X161793333Y-134460745D02*
X161914285Y-134400269D01*
X161914285Y-134400269D02*
X162216666Y-134400269D01*
X162216666Y-134400269D02*
X162398095Y-134460745D01*
X163123809Y-134944554D02*
X163002857Y-134884078D01*
X163002857Y-134884078D02*
X162942380Y-134823602D01*
X162942380Y-134823602D02*
X162881904Y-134702650D01*
X162881904Y-134702650D02*
X162881904Y-134642173D01*
X162881904Y-134642173D02*
X162942380Y-134521221D01*
X162942380Y-134521221D02*
X163002857Y-134460745D01*
X163002857Y-134460745D02*
X163123809Y-134400269D01*
X163123809Y-134400269D02*
X163365714Y-134400269D01*
X163365714Y-134400269D02*
X163486666Y-134460745D01*
X163486666Y-134460745D02*
X163547142Y-134521221D01*
X163547142Y-134521221D02*
X163607619Y-134642173D01*
X163607619Y-134642173D02*
X163607619Y-134702650D01*
X163607619Y-134702650D02*
X163547142Y-134823602D01*
X163547142Y-134823602D02*
X163486666Y-134884078D01*
X163486666Y-134884078D02*
X163365714Y-134944554D01*
X163365714Y-134944554D02*
X163123809Y-134944554D01*
X163123809Y-134944554D02*
X163002857Y-135005031D01*
X163002857Y-135005031D02*
X162942380Y-135065507D01*
X162942380Y-135065507D02*
X162881904Y-135186459D01*
X162881904Y-135186459D02*
X162881904Y-135428364D01*
X162881904Y-135428364D02*
X162942380Y-135549316D01*
X162942380Y-135549316D02*
X163002857Y-135609793D01*
X163002857Y-135609793D02*
X163123809Y-135670269D01*
X163123809Y-135670269D02*
X163365714Y-135670269D01*
X163365714Y-135670269D02*
X163486666Y-135609793D01*
X163486666Y-135609793D02*
X163547142Y-135549316D01*
X163547142Y-135549316D02*
X163607619Y-135428364D01*
X163607619Y-135428364D02*
X163607619Y-135186459D01*
X163607619Y-135186459D02*
X163547142Y-135065507D01*
X163547142Y-135065507D02*
X163486666Y-135005031D01*
X163486666Y-135005031D02*
X163365714Y-134944554D01*
D10*
X191654819Y-105893808D02*
X191178628Y-106227141D01*
X191654819Y-106465236D02*
X190654819Y-106465236D01*
X190654819Y-106465236D02*
X190654819Y-106084284D01*
X190654819Y-106084284D02*
X190702438Y-105989046D01*
X190702438Y-105989046D02*
X190750057Y-105941427D01*
X190750057Y-105941427D02*
X190845295Y-105893808D01*
X190845295Y-105893808D02*
X190988152Y-105893808D01*
X190988152Y-105893808D02*
X191083390Y-105941427D01*
X191083390Y-105941427D02*
X191131009Y-105989046D01*
X191131009Y-105989046D02*
X191178628Y-106084284D01*
X191178628Y-106084284D02*
X191178628Y-106465236D01*
X190750057Y-105512855D02*
X190702438Y-105465236D01*
X190702438Y-105465236D02*
X190654819Y-105369998D01*
X190654819Y-105369998D02*
X190654819Y-105131903D01*
X190654819Y-105131903D02*
X190702438Y-105036665D01*
X190702438Y-105036665D02*
X190750057Y-104989046D01*
X190750057Y-104989046D02*
X190845295Y-104941427D01*
X190845295Y-104941427D02*
X190940533Y-104941427D01*
X190940533Y-104941427D02*
X191083390Y-104989046D01*
X191083390Y-104989046D02*
X191654819Y-105560474D01*
X191654819Y-105560474D02*
X191654819Y-104941427D01*
X191083390Y-104369998D02*
X191035771Y-104465236D01*
X191035771Y-104465236D02*
X190988152Y-104512855D01*
X190988152Y-104512855D02*
X190892914Y-104560474D01*
X190892914Y-104560474D02*
X190845295Y-104560474D01*
X190845295Y-104560474D02*
X190750057Y-104512855D01*
X190750057Y-104512855D02*
X190702438Y-104465236D01*
X190702438Y-104465236D02*
X190654819Y-104369998D01*
X190654819Y-104369998D02*
X190654819Y-104179522D01*
X190654819Y-104179522D02*
X190702438Y-104084284D01*
X190702438Y-104084284D02*
X190750057Y-104036665D01*
X190750057Y-104036665D02*
X190845295Y-103989046D01*
X190845295Y-103989046D02*
X190892914Y-103989046D01*
X190892914Y-103989046D02*
X190988152Y-104036665D01*
X190988152Y-104036665D02*
X191035771Y-104084284D01*
X191035771Y-104084284D02*
X191083390Y-104179522D01*
X191083390Y-104179522D02*
X191083390Y-104369998D01*
X191083390Y-104369998D02*
X191131009Y-104465236D01*
X191131009Y-104465236D02*
X191178628Y-104512855D01*
X191178628Y-104512855D02*
X191273866Y-104560474D01*
X191273866Y-104560474D02*
X191464342Y-104560474D01*
X191464342Y-104560474D02*
X191559580Y-104512855D01*
X191559580Y-104512855D02*
X191607200Y-104465236D01*
X191607200Y-104465236D02*
X191654819Y-104369998D01*
X191654819Y-104369998D02*
X191654819Y-104179522D01*
X191654819Y-104179522D02*
X191607200Y-104084284D01*
X191607200Y-104084284D02*
X191559580Y-104036665D01*
X191559580Y-104036665D02*
X191464342Y-103989046D01*
X191464342Y-103989046D02*
X191273866Y-103989046D01*
X191273866Y-103989046D02*
X191178628Y-104036665D01*
X191178628Y-104036665D02*
X191131009Y-104084284D01*
X191131009Y-104084284D02*
X191083390Y-104179522D01*
D11*
X121032380Y-135609793D02*
X121213809Y-135670269D01*
X121213809Y-135670269D02*
X121516190Y-135670269D01*
X121516190Y-135670269D02*
X121637142Y-135609793D01*
X121637142Y-135609793D02*
X121697618Y-135549316D01*
X121697618Y-135549316D02*
X121758095Y-135428364D01*
X121758095Y-135428364D02*
X121758095Y-135307412D01*
X121758095Y-135307412D02*
X121697618Y-135186459D01*
X121697618Y-135186459D02*
X121637142Y-135125983D01*
X121637142Y-135125983D02*
X121516190Y-135065507D01*
X121516190Y-135065507D02*
X121274285Y-135005031D01*
X121274285Y-135005031D02*
X121153333Y-134944554D01*
X121153333Y-134944554D02*
X121092856Y-134884078D01*
X121092856Y-134884078D02*
X121032380Y-134763126D01*
X121032380Y-134763126D02*
X121032380Y-134642173D01*
X121032380Y-134642173D02*
X121092856Y-134521221D01*
X121092856Y-134521221D02*
X121153333Y-134460745D01*
X121153333Y-134460745D02*
X121274285Y-134400269D01*
X121274285Y-134400269D02*
X121576666Y-134400269D01*
X121576666Y-134400269D02*
X121758095Y-134460745D01*
X122846666Y-134823602D02*
X122846666Y-135670269D01*
X122544285Y-134339793D02*
X122241904Y-135246935D01*
X122241904Y-135246935D02*
X123028095Y-135246935D01*
D10*
X146569819Y-126491308D02*
X146093628Y-126824641D01*
X146569819Y-127062736D02*
X145569819Y-127062736D01*
X145569819Y-127062736D02*
X145569819Y-126681784D01*
X145569819Y-126681784D02*
X145617438Y-126586546D01*
X145617438Y-126586546D02*
X145665057Y-126538927D01*
X145665057Y-126538927D02*
X145760295Y-126491308D01*
X145760295Y-126491308D02*
X145903152Y-126491308D01*
X145903152Y-126491308D02*
X145998390Y-126538927D01*
X145998390Y-126538927D02*
X146046009Y-126586546D01*
X146046009Y-126586546D02*
X146093628Y-126681784D01*
X146093628Y-126681784D02*
X146093628Y-127062736D01*
X145665057Y-126110355D02*
X145617438Y-126062736D01*
X145617438Y-126062736D02*
X145569819Y-125967498D01*
X145569819Y-125967498D02*
X145569819Y-125729403D01*
X145569819Y-125729403D02*
X145617438Y-125634165D01*
X145617438Y-125634165D02*
X145665057Y-125586546D01*
X145665057Y-125586546D02*
X145760295Y-125538927D01*
X145760295Y-125538927D02*
X145855533Y-125538927D01*
X145855533Y-125538927D02*
X145998390Y-125586546D01*
X145998390Y-125586546D02*
X146569819Y-126157974D01*
X146569819Y-126157974D02*
X146569819Y-125538927D01*
X145569819Y-125205593D02*
X145569819Y-124586546D01*
X145569819Y-124586546D02*
X145950771Y-124919879D01*
X145950771Y-124919879D02*
X145950771Y-124777022D01*
X145950771Y-124777022D02*
X145998390Y-124681784D01*
X145998390Y-124681784D02*
X146046009Y-124634165D01*
X146046009Y-124634165D02*
X146141247Y-124586546D01*
X146141247Y-124586546D02*
X146379342Y-124586546D01*
X146379342Y-124586546D02*
X146474580Y-124634165D01*
X146474580Y-124634165D02*
X146522200Y-124681784D01*
X146522200Y-124681784D02*
X146569819Y-124777022D01*
X146569819Y-124777022D02*
X146569819Y-125062736D01*
X146569819Y-125062736D02*
X146522200Y-125157974D01*
X146522200Y-125157974D02*
X146474580Y-125205593D01*
X182129819Y-123038808D02*
X181653628Y-123372141D01*
X182129819Y-123610236D02*
X181129819Y-123610236D01*
X181129819Y-123610236D02*
X181129819Y-123229284D01*
X181129819Y-123229284D02*
X181177438Y-123134046D01*
X181177438Y-123134046D02*
X181225057Y-123086427D01*
X181225057Y-123086427D02*
X181320295Y-123038808D01*
X181320295Y-123038808D02*
X181463152Y-123038808D01*
X181463152Y-123038808D02*
X181558390Y-123086427D01*
X181558390Y-123086427D02*
X181606009Y-123134046D01*
X181606009Y-123134046D02*
X181653628Y-123229284D01*
X181653628Y-123229284D02*
X181653628Y-123610236D01*
X182129819Y-122086427D02*
X182129819Y-122657855D01*
X182129819Y-122372141D02*
X181129819Y-122372141D01*
X181129819Y-122372141D02*
X181272676Y-122467379D01*
X181272676Y-122467379D02*
X181367914Y-122562617D01*
X181367914Y-122562617D02*
X181415533Y-122657855D01*
X181129819Y-121753093D02*
X181129819Y-121086427D01*
X181129819Y-121086427D02*
X182129819Y-121514998D01*
X100766905Y-121420770D02*
X100766905Y-120420770D01*
X100766905Y-120420770D02*
X101005000Y-120420770D01*
X101005000Y-120420770D02*
X101147857Y-120468389D01*
X101147857Y-120468389D02*
X101243095Y-120563627D01*
X101243095Y-120563627D02*
X101290714Y-120658865D01*
X101290714Y-120658865D02*
X101338333Y-120849341D01*
X101338333Y-120849341D02*
X101338333Y-120992198D01*
X101338333Y-120992198D02*
X101290714Y-121182674D01*
X101290714Y-121182674D02*
X101243095Y-121277912D01*
X101243095Y-121277912D02*
X101147857Y-121373151D01*
X101147857Y-121373151D02*
X101005000Y-121420770D01*
X101005000Y-121420770D02*
X100766905Y-121420770D01*
X101671667Y-120420770D02*
X102290714Y-120420770D01*
X102290714Y-120420770D02*
X101957381Y-120801722D01*
X101957381Y-120801722D02*
X102100238Y-120801722D01*
X102100238Y-120801722D02*
X102195476Y-120849341D01*
X102195476Y-120849341D02*
X102243095Y-120896960D01*
X102243095Y-120896960D02*
X102290714Y-120992198D01*
X102290714Y-120992198D02*
X102290714Y-121230293D01*
X102290714Y-121230293D02*
X102243095Y-121325531D01*
X102243095Y-121325531D02*
X102195476Y-121373151D01*
X102195476Y-121373151D02*
X102100238Y-121420770D01*
X102100238Y-121420770D02*
X101814524Y-121420770D01*
X101814524Y-121420770D02*
X101719286Y-121373151D01*
X101719286Y-121373151D02*
X101671667Y-121325531D01*
D12*
%TO.C,R25*%
X165527500Y-125593727D02*
X165527500Y-126103175D01*
X164482500Y-125593727D02*
X164482500Y-126103175D01*
%TO.C,J1*%
X123095000Y-64035951D02*
X171415000Y-64035951D01*
X123095000Y-64035951D02*
X123095000Y-61375951D01*
X171415000Y-64035951D02*
X171415000Y-61375951D01*
X120495000Y-62705951D02*
X120495000Y-61375951D01*
X120495000Y-61375951D02*
X121825000Y-61375951D01*
X123095000Y-61375951D02*
X171415000Y-61375951D01*
%TO.C,Q1*%
X89742500Y-116705951D02*
X88067500Y-116705951D01*
X89742500Y-116705951D02*
X90392500Y-116705951D01*
X89742500Y-119825951D02*
X89092500Y-119825951D01*
X89742500Y-119825951D02*
X90392500Y-119825951D01*
%TO.C,C5*%
X129591267Y-112745951D02*
X129298733Y-112745951D01*
X129591267Y-111725951D02*
X129298733Y-111725951D01*
D13*
%TO.C,S5*%
X128985000Y-132095951D02*
X128985000Y-132095951D01*
X128985000Y-132095951D02*
X128985000Y-138095951D01*
X128985000Y-138095951D02*
X128985000Y-132095951D01*
X128985000Y-138095951D02*
X128985000Y-138095951D01*
X130985000Y-132095951D02*
X130985000Y-132095951D01*
X130985000Y-132095951D02*
X132985000Y-132095951D01*
X130985000Y-138095951D02*
X130985000Y-138095951D01*
X130985000Y-138095951D02*
X132985000Y-138095951D01*
X132985000Y-132095951D02*
X130985000Y-132095951D01*
X132985000Y-132095951D02*
X132985000Y-132095951D01*
X132985000Y-138095951D02*
X130985000Y-138095951D01*
X132985000Y-138095951D02*
X132985000Y-138095951D01*
X134985000Y-132095951D02*
X134985000Y-132095951D01*
X134985000Y-132095951D02*
X134985000Y-138095951D01*
X134985000Y-138095951D02*
X134985000Y-132095951D01*
X134985000Y-138095951D02*
X134985000Y-138095951D01*
D14*
X135285000Y-130695951D02*
X135285000Y-130695951D01*
X135285000Y-130695951D02*
X135285000Y-130695951D01*
X135285000Y-130795951D02*
X135285000Y-130795951D01*
X135285000Y-130795951D02*
G75*
G03*
X135285000Y-130695951I0J50000D01*
G01*
X135285000Y-130695951D02*
G75*
G03*
X135285000Y-130795951I0J-50000D01*
G01*
X135285000Y-130695951D02*
G75*
G03*
X135285000Y-130795951I0J-50000D01*
G01*
D12*
%TO.C,R26*%
X198682776Y-124413451D02*
X199192224Y-124413451D01*
X198682776Y-125458451D02*
X199192224Y-125458451D01*
%TO.C,R22*%
X135047500Y-125593727D02*
X135047500Y-126103175D01*
X134002500Y-125593727D02*
X134002500Y-126103175D01*
D13*
%TO.C,S6*%
X139145000Y-132095951D02*
X139145000Y-132095951D01*
X139145000Y-132095951D02*
X139145000Y-138095951D01*
X139145000Y-138095951D02*
X139145000Y-132095951D01*
X139145000Y-138095951D02*
X139145000Y-138095951D01*
X141145000Y-132095951D02*
X141145000Y-132095951D01*
X141145000Y-132095951D02*
X143145000Y-132095951D01*
X141145000Y-138095951D02*
X141145000Y-138095951D01*
X141145000Y-138095951D02*
X143145000Y-138095951D01*
X143145000Y-132095951D02*
X141145000Y-132095951D01*
X143145000Y-132095951D02*
X143145000Y-132095951D01*
X143145000Y-138095951D02*
X141145000Y-138095951D01*
X143145000Y-138095951D02*
X143145000Y-138095951D01*
X145145000Y-132095951D02*
X145145000Y-132095951D01*
X145145000Y-132095951D02*
X145145000Y-138095951D01*
X145145000Y-138095951D02*
X145145000Y-132095951D01*
X145145000Y-138095951D02*
X145145000Y-138095951D01*
D14*
X145445000Y-130695951D02*
X145445000Y-130695951D01*
X145445000Y-130695951D02*
X145445000Y-130695951D01*
X145445000Y-130795951D02*
X145445000Y-130795951D01*
X145445000Y-130795951D02*
G75*
G03*
X145445000Y-130695951I0J50000D01*
G01*
X145445000Y-130695951D02*
G75*
G03*
X145445000Y-130795951I0J-50000D01*
G01*
X145445000Y-130695951D02*
G75*
G03*
X145445000Y-130795951I0J-50000D01*
G01*
D13*
%TO.C,S3*%
X108665000Y-132095951D02*
X108665000Y-132095951D01*
X108665000Y-132095951D02*
X108665000Y-138095951D01*
X108665000Y-138095951D02*
X108665000Y-132095951D01*
X108665000Y-138095951D02*
X108665000Y-138095951D01*
X110665000Y-132095951D02*
X110665000Y-132095951D01*
X110665000Y-132095951D02*
X112665000Y-132095951D01*
X110665000Y-138095951D02*
X110665000Y-138095951D01*
X110665000Y-138095951D02*
X112665000Y-138095951D01*
X112665000Y-132095951D02*
X110665000Y-132095951D01*
X112665000Y-132095951D02*
X112665000Y-132095951D01*
X112665000Y-138095951D02*
X110665000Y-138095951D01*
X112665000Y-138095951D02*
X112665000Y-138095951D01*
X114665000Y-132095951D02*
X114665000Y-132095951D01*
X114665000Y-132095951D02*
X114665000Y-138095951D01*
X114665000Y-138095951D02*
X114665000Y-132095951D01*
X114665000Y-138095951D02*
X114665000Y-138095951D01*
D14*
X114965000Y-130695951D02*
X114965000Y-130695951D01*
X114965000Y-130695951D02*
X114965000Y-130695951D01*
X114965000Y-130795951D02*
X114965000Y-130795951D01*
X114965000Y-130795951D02*
G75*
G03*
X114965000Y-130695951I0J50000D01*
G01*
X114965000Y-130695951D02*
G75*
G03*
X114965000Y-130795951I0J-50000D01*
G01*
X114965000Y-130695951D02*
G75*
G03*
X114965000Y-130795951I0J-50000D01*
G01*
D12*
%TO.C,Q9*%
X196422500Y-119245951D02*
X194747500Y-119245951D01*
X196422500Y-119245951D02*
X197072500Y-119245951D01*
X196422500Y-122365951D02*
X195772500Y-122365951D01*
X196422500Y-122365951D02*
X197072500Y-122365951D01*
%TO.C,C7*%
X149911267Y-112745951D02*
X149618733Y-112745951D01*
X149911267Y-111725951D02*
X149618733Y-111725951D01*
%TO.C,J2*%
X123095000Y-95785951D02*
X171415000Y-95785951D01*
X123095000Y-95785951D02*
X123095000Y-93125951D01*
X171415000Y-95785951D02*
X171415000Y-93125951D01*
X120495000Y-94455951D02*
X120495000Y-93125951D01*
X120495000Y-93125951D02*
X121825000Y-93125951D01*
X123095000Y-93125951D02*
X171415000Y-93125951D01*
%TO.C,R21*%
X124887500Y-125593727D02*
X124887500Y-126103175D01*
X123842500Y-125593727D02*
X123842500Y-126103175D01*
%TO.C,Q4*%
X120222500Y-116705951D02*
X118547500Y-116705951D01*
X120222500Y-116705951D02*
X120872500Y-116705951D01*
X120222500Y-119825951D02*
X119572500Y-119825951D01*
X120222500Y-119825951D02*
X120872500Y-119825951D01*
%TO.C,U4*%
X183890000Y-103658451D02*
X185500000Y-103658451D01*
X183410000Y-103308451D02*
X196130000Y-103308451D01*
X188027200Y-98574651D02*
X191710200Y-98574651D01*
X187849400Y-93672451D02*
X187849400Y-98574651D01*
X191888000Y-93672451D02*
X191888000Y-98574651D01*
X188027200Y-93570851D02*
X191710200Y-93570851D01*
X187849400Y-88135251D02*
X187849400Y-93494651D01*
X191888000Y-88135251D02*
X191888000Y-93494651D01*
X188027200Y-88109851D02*
X191710200Y-88109851D01*
X183410000Y-84088451D02*
X183410000Y-103308451D01*
X183410000Y-84088451D02*
X196130000Y-84088451D01*
X196130000Y-84088451D02*
X196130000Y-103308451D01*
X193232467Y-98760918D02*
G75*
G03*
X193232467Y-98760918I-472467J0D01*
G01*
%TO.C,R6*%
X145207500Y-117061227D02*
X145207500Y-117570675D01*
X144162500Y-117061227D02*
X144162500Y-117570675D01*
%TO.C,R19*%
X104567500Y-125593727D02*
X104567500Y-126103175D01*
X103522500Y-125593727D02*
X103522500Y-126103175D01*
%TO.C,D1*%
X89685000Y-121660951D02*
X89685000Y-123130951D01*
X89685000Y-123130951D02*
X92145000Y-123130951D01*
X92145000Y-121660951D02*
X89685000Y-121660951D01*
%TO.C,C4*%
X119431267Y-112745951D02*
X119138733Y-112745951D01*
X119431267Y-111725951D02*
X119138733Y-111725951D01*
%TO.C,Q7*%
X150702500Y-116705951D02*
X149027500Y-116705951D01*
X150702500Y-116705951D02*
X151352500Y-116705951D01*
X150702500Y-119825951D02*
X150052500Y-119825951D01*
X150702500Y-119825951D02*
X151352500Y-119825951D01*
%TO.C,R15*%
X154187224Y-112758451D02*
X153677776Y-112758451D01*
X154187224Y-111713451D02*
X153677776Y-111713451D01*
%TO.C,Q5*%
X130382500Y-116705951D02*
X128707500Y-116705951D01*
X130382500Y-116705951D02*
X131032500Y-116705951D01*
X130382500Y-119825951D02*
X129732500Y-119825951D01*
X130382500Y-119825951D02*
X131032500Y-119825951D01*
%TO.C,C9*%
X177851267Y-125445951D02*
X177558733Y-125445951D01*
X177851267Y-124425951D02*
X177558733Y-124425951D01*
%TO.C,Q3*%
X110062500Y-116705951D02*
X108387500Y-116705951D01*
X110062500Y-116705951D02*
X110712500Y-116705951D01*
X110062500Y-119825951D02*
X109412500Y-119825951D01*
X110062500Y-119825951D02*
X110712500Y-119825951D01*
%TO.C,R2*%
X104567500Y-117061227D02*
X104567500Y-117570675D01*
X103522500Y-117061227D02*
X103522500Y-117570675D01*
%TO.C,R18*%
X94407500Y-125593727D02*
X94407500Y-126103175D01*
X93362500Y-125593727D02*
X93362500Y-126103175D01*
%TO.C,D9*%
X160805000Y-121660951D02*
X160805000Y-123130951D01*
X160805000Y-123130951D02*
X163265000Y-123130951D01*
X163265000Y-121660951D02*
X160805000Y-121660951D01*
%TO.C,R9*%
X94139724Y-112758451D02*
X93630276Y-112758451D01*
X94139724Y-111713451D02*
X93630276Y-111713451D01*
%TO.C,D8*%
X150645000Y-121660951D02*
X150645000Y-123130951D01*
X150645000Y-123130951D02*
X153105000Y-123130951D01*
X153105000Y-121660951D02*
X150645000Y-121660951D01*
%TO.C,Q2*%
X99902500Y-116705951D02*
X98227500Y-116705951D01*
X99902500Y-116705951D02*
X100552500Y-116705951D01*
X99902500Y-119825951D02*
X99252500Y-119825951D01*
X99902500Y-119825951D02*
X100552500Y-119825951D01*
%TO.C,R14*%
X144027224Y-112758451D02*
X143517776Y-112758451D01*
X144027224Y-111713451D02*
X143517776Y-111713451D01*
%TO.C,R7*%
X155367500Y-117061227D02*
X155367500Y-117570675D01*
X154322500Y-117061227D02*
X154322500Y-117570675D01*
%TO.C,D4*%
X110005000Y-121660951D02*
X110005000Y-123130951D01*
X110005000Y-123130951D02*
X112465000Y-123130951D01*
X112465000Y-121660951D02*
X110005000Y-121660951D01*
%TO.C,Q8*%
X160862500Y-116705951D02*
X159187500Y-116705951D01*
X160862500Y-116705951D02*
X161512500Y-116705951D01*
X160862500Y-119825951D02*
X160212500Y-119825951D01*
X160862500Y-119825951D02*
X161512500Y-119825951D01*
%TO.C,C8*%
X160071267Y-112745951D02*
X159778733Y-112745951D01*
X160071267Y-111725951D02*
X159778733Y-111725951D01*
%TO.C,R12*%
X123707224Y-112758451D02*
X123197776Y-112758451D01*
X123707224Y-111713451D02*
X123197776Y-111713451D01*
D13*
%TO.C,U1*%
X182455000Y-108395951D02*
X182455000Y-108795951D01*
X182455000Y-108795951D02*
X182355000Y-108795951D01*
X182455000Y-110595951D02*
X182455000Y-111295951D01*
X182455000Y-111295951D02*
X182855000Y-111295951D01*
X182755000Y-108095951D02*
X182455000Y-108395951D01*
X183055000Y-108095951D02*
X182755000Y-108095951D01*
X185155000Y-111295951D02*
X185655000Y-111295951D01*
X185255000Y-108095951D02*
X185655000Y-108095951D01*
X185655000Y-108095951D02*
X185655000Y-108795951D01*
X185655000Y-111295951D02*
X185655000Y-110495951D01*
D12*
%TO.C,U3*%
X198610000Y-60040951D02*
X198610000Y-78060951D01*
X198610000Y-78060951D02*
X208890000Y-78060951D01*
X201100000Y-60100951D02*
X201100000Y-78000951D01*
X201100000Y-78000951D02*
X206400000Y-78000951D01*
X202750000Y-60100951D02*
X201100000Y-60100951D01*
X206400000Y-60100951D02*
X204750000Y-60100951D01*
X206400000Y-78000951D02*
X206400000Y-60100951D01*
X208890000Y-60040951D02*
X198610000Y-60040951D01*
X208890000Y-78060951D02*
X208890000Y-60040951D01*
X202750000Y-60100951D02*
G75*
G03*
X204750000Y-60100951I1000000J0D01*
G01*
%TO.C,C6*%
X139751267Y-112745951D02*
X139458733Y-112745951D01*
X139751267Y-111725951D02*
X139458733Y-111725951D01*
%TO.C,U5*%
X197860000Y-103658451D02*
X199470000Y-103658451D01*
X197380000Y-103308451D02*
X210100000Y-103308451D01*
X201997200Y-98574651D02*
X205680200Y-98574651D01*
X201819400Y-93672451D02*
X201819400Y-98574651D01*
X205858000Y-93672451D02*
X205858000Y-98574651D01*
X201997200Y-93570851D02*
X205680200Y-93570851D01*
X201819400Y-88135251D02*
X201819400Y-93494651D01*
X205858000Y-88135251D02*
X205858000Y-93494651D01*
X201997200Y-88109851D02*
X205680200Y-88109851D01*
X197380000Y-84088451D02*
X197380000Y-103308451D01*
X197380000Y-84088451D02*
X210100000Y-84088451D01*
X210100000Y-84088451D02*
X210100000Y-103308451D01*
X207202467Y-98760918D02*
G75*
G03*
X207202467Y-98760918I-472467J0D01*
G01*
%TO.C,C1*%
X88951267Y-112745951D02*
X88658733Y-112745951D01*
X88951267Y-111725951D02*
X88658733Y-111725951D01*
%TO.C,D5*%
X120165000Y-121660951D02*
X120165000Y-123130951D01*
X120165000Y-123130951D02*
X122625000Y-123130951D01*
X122625000Y-121660951D02*
X120165000Y-121660951D01*
%TO.C,D7*%
X140485000Y-121660951D02*
X140485000Y-123130951D01*
X140485000Y-123130951D02*
X142945000Y-123130951D01*
X142945000Y-121660951D02*
X140485000Y-121660951D01*
D13*
%TO.C,S2*%
X98505000Y-132095951D02*
X98505000Y-132095951D01*
X98505000Y-132095951D02*
X98505000Y-138095951D01*
X98505000Y-138095951D02*
X98505000Y-132095951D01*
X98505000Y-138095951D02*
X98505000Y-138095951D01*
X100505000Y-132095951D02*
X100505000Y-132095951D01*
X100505000Y-132095951D02*
X102505000Y-132095951D01*
X100505000Y-138095951D02*
X100505000Y-138095951D01*
X100505000Y-138095951D02*
X102505000Y-138095951D01*
X102505000Y-132095951D02*
X100505000Y-132095951D01*
X102505000Y-132095951D02*
X102505000Y-132095951D01*
X102505000Y-138095951D02*
X100505000Y-138095951D01*
X102505000Y-138095951D02*
X102505000Y-138095951D01*
X104505000Y-132095951D02*
X104505000Y-132095951D01*
X104505000Y-132095951D02*
X104505000Y-138095951D01*
X104505000Y-138095951D02*
X104505000Y-132095951D01*
X104505000Y-138095951D02*
X104505000Y-138095951D01*
D14*
X104805000Y-130695951D02*
X104805000Y-130695951D01*
X104805000Y-130695951D02*
X104805000Y-130695951D01*
X104805000Y-130795951D02*
X104805000Y-130795951D01*
X104805000Y-130795951D02*
G75*
G03*
X104805000Y-130695951I0J50000D01*
G01*
X104805000Y-130695951D02*
G75*
G03*
X104805000Y-130795951I0J-50000D01*
G01*
X104805000Y-130695951D02*
G75*
G03*
X104805000Y-130795951I0J-50000D01*
G01*
D12*
%TO.C,R1*%
X94407500Y-117061227D02*
X94407500Y-117570675D01*
X93362500Y-117061227D02*
X93362500Y-117570675D01*
%TO.C,R13*%
X133867224Y-112758451D02*
X133357776Y-112758451D01*
X133867224Y-111713451D02*
X133357776Y-111713451D01*
%TO.C,D6*%
X130325000Y-121660951D02*
X130325000Y-123130951D01*
X130325000Y-123130951D02*
X132785000Y-123130951D01*
X132785000Y-121660951D02*
X130325000Y-121660951D01*
%TO.C,C3*%
X109271267Y-112745951D02*
X108978733Y-112745951D01*
X109271267Y-111725951D02*
X108978733Y-111725951D01*
%TO.C,R11*%
X113547224Y-112758451D02*
X113037776Y-112758451D01*
X113547224Y-111713451D02*
X113037776Y-111713451D01*
%TO.C,R20*%
X114727500Y-125593727D02*
X114727500Y-126103175D01*
X113682500Y-125593727D02*
X113682500Y-126103175D01*
D14*
%TO.C,VR1*%
X175385000Y-127675951D02*
X185185000Y-127675951D01*
X175385000Y-130775951D02*
X175385000Y-127675951D01*
X175385000Y-135575951D02*
X175385000Y-139175951D01*
X175385000Y-139175951D02*
X185185000Y-139175951D01*
D13*
X177785000Y-141175951D02*
X177785000Y-141175951D01*
X177785000Y-141275951D02*
X177785000Y-141275951D01*
D14*
X185185000Y-127675951D02*
X185185000Y-130775951D01*
X185185000Y-139175951D02*
X185185000Y-135575951D01*
D13*
X177785000Y-141275951D02*
G75*
G03*
X177785000Y-141175951I0J50000D01*
G01*
X177785000Y-141175951D02*
G75*
G03*
X177785000Y-141275951I0J-50000D01*
G01*
D12*
%TO.C,BZ1*%
X194125000Y-131055951D02*
G75*
G03*
X194125000Y-134055950I6400000J-1500000D01*
G01*
X206755000Y-132555951D02*
G75*
G03*
X206755000Y-132555951I-6230000J0D01*
G01*
D13*
%TO.C,S7*%
X149305000Y-132095951D02*
X149305000Y-132095951D01*
X149305000Y-132095951D02*
X149305000Y-138095951D01*
X149305000Y-138095951D02*
X149305000Y-132095951D01*
X149305000Y-138095951D02*
X149305000Y-138095951D01*
X151305000Y-132095951D02*
X151305000Y-132095951D01*
X151305000Y-132095951D02*
X153305000Y-132095951D01*
X151305000Y-138095951D02*
X151305000Y-138095951D01*
X151305000Y-138095951D02*
X153305000Y-138095951D01*
X153305000Y-132095951D02*
X151305000Y-132095951D01*
X153305000Y-132095951D02*
X153305000Y-132095951D01*
X153305000Y-138095951D02*
X151305000Y-138095951D01*
X153305000Y-138095951D02*
X153305000Y-138095951D01*
X155305000Y-132095951D02*
X155305000Y-132095951D01*
X155305000Y-132095951D02*
X155305000Y-138095951D01*
X155305000Y-138095951D02*
X155305000Y-132095951D01*
X155305000Y-138095951D02*
X155305000Y-138095951D01*
D14*
X155605000Y-130695951D02*
X155605000Y-130695951D01*
X155605000Y-130695951D02*
X155605000Y-130695951D01*
X155605000Y-130795951D02*
X155605000Y-130795951D01*
X155605000Y-130795951D02*
G75*
G03*
X155605000Y-130695951I0J50000D01*
G01*
X155605000Y-130695951D02*
G75*
G03*
X155605000Y-130795951I0J-50000D01*
G01*
X155605000Y-130695951D02*
G75*
G03*
X155605000Y-130795951I0J-50000D01*
G01*
D12*
%TO.C,R10*%
X103387224Y-112758451D02*
X102877776Y-112758451D01*
X103387224Y-111713451D02*
X102877776Y-111713451D01*
%TO.C,Q6*%
X140542500Y-116705951D02*
X138867500Y-116705951D01*
X140542500Y-116705951D02*
X141192500Y-116705951D01*
X140542500Y-119825951D02*
X139892500Y-119825951D01*
X140542500Y-119825951D02*
X141192500Y-119825951D01*
%TO.C,U2*%
X184630000Y-60040951D02*
X184630000Y-78060951D01*
X184630000Y-78060951D02*
X194910000Y-78060951D01*
X187120000Y-60100951D02*
X187120000Y-78000951D01*
X187120000Y-78000951D02*
X192420000Y-78000951D01*
X188770000Y-60100951D02*
X187120000Y-60100951D01*
X192420000Y-60100951D02*
X190770000Y-60100951D01*
X192420000Y-78000951D02*
X192420000Y-60100951D01*
X194910000Y-60040951D02*
X184630000Y-60040951D01*
X194910000Y-78060951D02*
X194910000Y-60040951D01*
X188770000Y-60100951D02*
G75*
G03*
X190770000Y-60100951I1000000J0D01*
G01*
%TO.C,R5*%
X135047500Y-117061227D02*
X135047500Y-117570675D01*
X134002500Y-117061227D02*
X134002500Y-117570675D01*
%TO.C,R3*%
X114727500Y-117061227D02*
X114727500Y-117570675D01*
X113682500Y-117061227D02*
X113682500Y-117570675D01*
%TO.C,R16*%
X164347224Y-112758451D02*
X163837776Y-112758451D01*
X164347224Y-111713451D02*
X163837776Y-111713451D01*
%TO.C,R27*%
X193602776Y-116793451D02*
X194112224Y-116793451D01*
X193602776Y-117838451D02*
X194112224Y-117838451D01*
%TO.C,R4*%
X124887500Y-117061227D02*
X124887500Y-117570675D01*
X123842500Y-117061227D02*
X123842500Y-117570675D01*
%TO.C,R24*%
X155367500Y-125593727D02*
X155367500Y-126103175D01*
X154322500Y-125593727D02*
X154322500Y-126103175D01*
%TO.C,R29*%
X204262500Y-104996227D02*
X204262500Y-105505675D01*
X203217500Y-104996227D02*
X203217500Y-105505675D01*
%TO.C,R8*%
X165527500Y-117061227D02*
X165527500Y-117570675D01*
X164482500Y-117061227D02*
X164482500Y-117570675D01*
D13*
%TO.C,S1*%
X88345000Y-132095951D02*
X88345000Y-132095951D01*
X88345000Y-132095951D02*
X88345000Y-138095951D01*
X88345000Y-138095951D02*
X88345000Y-132095951D01*
X88345000Y-138095951D02*
X88345000Y-138095951D01*
X90345000Y-132095951D02*
X90345000Y-132095951D01*
X90345000Y-132095951D02*
X92345000Y-132095951D01*
X90345000Y-138095951D02*
X90345000Y-138095951D01*
X90345000Y-138095951D02*
X92345000Y-138095951D01*
X92345000Y-132095951D02*
X90345000Y-132095951D01*
X92345000Y-132095951D02*
X92345000Y-132095951D01*
X92345000Y-138095951D02*
X90345000Y-138095951D01*
X92345000Y-138095951D02*
X92345000Y-138095951D01*
X94345000Y-132095951D02*
X94345000Y-132095951D01*
X94345000Y-132095951D02*
X94345000Y-138095951D01*
X94345000Y-138095951D02*
X94345000Y-132095951D01*
X94345000Y-138095951D02*
X94345000Y-138095951D01*
D14*
X94645000Y-130695951D02*
X94645000Y-130695951D01*
X94645000Y-130695951D02*
X94645000Y-130695951D01*
X94645000Y-130795951D02*
X94645000Y-130795951D01*
X94645000Y-130795951D02*
G75*
G03*
X94645000Y-130695951I0J50000D01*
G01*
X94645000Y-130695951D02*
G75*
G03*
X94645000Y-130795951I0J-50000D01*
G01*
X94645000Y-130695951D02*
G75*
G03*
X94645000Y-130795951I0J-50000D01*
G01*
D12*
%TO.C,C2*%
X99111267Y-112745951D02*
X98818733Y-112745951D01*
X99111267Y-111725951D02*
X98818733Y-111725951D01*
D13*
%TO.C,S8*%
X159465000Y-132095951D02*
X159465000Y-132095951D01*
X159465000Y-132095951D02*
X159465000Y-138095951D01*
X159465000Y-138095951D02*
X159465000Y-132095951D01*
X159465000Y-138095951D02*
X159465000Y-138095951D01*
X161465000Y-132095951D02*
X161465000Y-132095951D01*
X161465000Y-132095951D02*
X163465000Y-132095951D01*
X161465000Y-138095951D02*
X161465000Y-138095951D01*
X161465000Y-138095951D02*
X163465000Y-138095951D01*
X163465000Y-132095951D02*
X161465000Y-132095951D01*
X163465000Y-132095951D02*
X163465000Y-132095951D01*
X163465000Y-138095951D02*
X161465000Y-138095951D01*
X163465000Y-138095951D02*
X163465000Y-138095951D01*
X165465000Y-132095951D02*
X165465000Y-132095951D01*
X165465000Y-132095951D02*
X165465000Y-138095951D01*
X165465000Y-138095951D02*
X165465000Y-132095951D01*
X165465000Y-138095951D02*
X165465000Y-138095951D01*
D14*
X165765000Y-130695951D02*
X165765000Y-130695951D01*
X165765000Y-130695951D02*
X165765000Y-130695951D01*
X165765000Y-130795951D02*
X165765000Y-130795951D01*
X165765000Y-130795951D02*
G75*
G03*
X165765000Y-130695951I0J50000D01*
G01*
X165765000Y-130695951D02*
G75*
G03*
X165765000Y-130795951I0J-50000D01*
G01*
X165765000Y-130695951D02*
G75*
G03*
X165765000Y-130795951I0J-50000D01*
G01*
D12*
%TO.C,R28*%
X190292500Y-104996227D02*
X190292500Y-105505675D01*
X189247500Y-104996227D02*
X189247500Y-105505675D01*
D13*
%TO.C,S4*%
X118825000Y-132095951D02*
X118825000Y-132095951D01*
X118825000Y-132095951D02*
X118825000Y-138095951D01*
X118825000Y-138095951D02*
X118825000Y-132095951D01*
X118825000Y-138095951D02*
X118825000Y-138095951D01*
X120825000Y-132095951D02*
X120825000Y-132095951D01*
X120825000Y-132095951D02*
X122825000Y-132095951D01*
X120825000Y-138095951D02*
X120825000Y-138095951D01*
X120825000Y-138095951D02*
X122825000Y-138095951D01*
X122825000Y-132095951D02*
X120825000Y-132095951D01*
X122825000Y-132095951D02*
X122825000Y-132095951D01*
X122825000Y-138095951D02*
X120825000Y-138095951D01*
X122825000Y-138095951D02*
X122825000Y-138095951D01*
X124825000Y-132095951D02*
X124825000Y-132095951D01*
X124825000Y-132095951D02*
X124825000Y-138095951D01*
X124825000Y-138095951D02*
X124825000Y-132095951D01*
X124825000Y-138095951D02*
X124825000Y-138095951D01*
D14*
X125125000Y-130695951D02*
X125125000Y-130695951D01*
X125125000Y-130695951D02*
X125125000Y-130695951D01*
X125125000Y-130795951D02*
X125125000Y-130795951D01*
X125125000Y-130795951D02*
G75*
G03*
X125125000Y-130695951I0J50000D01*
G01*
X125125000Y-130695951D02*
G75*
G03*
X125125000Y-130795951I0J-50000D01*
G01*
X125125000Y-130695951D02*
G75*
G03*
X125125000Y-130795951I0J-50000D01*
G01*
D12*
%TO.C,R23*%
X145207500Y-125593727D02*
X145207500Y-126103175D01*
X144162500Y-125593727D02*
X144162500Y-126103175D01*
%TO.C,R17*%
X180767500Y-122141227D02*
X180767500Y-122650675D01*
X179722500Y-122141227D02*
X179722500Y-122650675D01*
%TO.C,D3*%
X99845000Y-121660951D02*
X99845000Y-123130951D01*
X99845000Y-123130951D02*
X102305000Y-123130951D01*
X102305000Y-121660951D02*
X99845000Y-121660951D01*
%TD*%
%LPC*%
D15*
%TO.C,R25*%
X165005000Y-124935951D03*
X165005000Y-126760951D03*
%TD*%
D16*
%TO.C,J1*%
X121825000Y-62705951D03*
D17*
X124365000Y-62705951D03*
X126905000Y-62705951D03*
X129445000Y-62705951D03*
X131985000Y-62705951D03*
X134525000Y-62705951D03*
X137065000Y-62705951D03*
X139605000Y-62705951D03*
X142145000Y-62705951D03*
X144685000Y-62705951D03*
X147225000Y-62705951D03*
X149765000Y-62705951D03*
X152305000Y-62705951D03*
X154845000Y-62705951D03*
X157385000Y-62705951D03*
X159925000Y-62705951D03*
X162465000Y-62705951D03*
X165005000Y-62705951D03*
X167545000Y-62705951D03*
X170085000Y-62705951D03*
%TD*%
D18*
%TO.C,Q1*%
X88805000Y-117315951D03*
X88805000Y-119215951D03*
X90680000Y-118265951D03*
%TD*%
D19*
%TO.C,C5*%
X130307500Y-112235951D03*
X128582500Y-112235951D03*
%TD*%
D20*
%TO.C,S5*%
X134235000Y-130845951D03*
X134235000Y-139345951D03*
X129735000Y-130845951D03*
X129735000Y-139345951D03*
%TD*%
D21*
%TO.C,R26*%
X198025000Y-124935951D03*
X199850000Y-124935951D03*
%TD*%
D15*
%TO.C,R22*%
X134525000Y-124935951D03*
X134525000Y-126760951D03*
%TD*%
D20*
%TO.C,S6*%
X144395000Y-130845951D03*
X144395000Y-139345951D03*
X139895000Y-130845951D03*
X139895000Y-139345951D03*
%TD*%
%TO.C,S3*%
X113915000Y-130845951D03*
X113915000Y-139345951D03*
X109415000Y-130845951D03*
X109415000Y-139345951D03*
%TD*%
D18*
%TO.C,Q9*%
X195485000Y-119855951D03*
X195485000Y-121755951D03*
X197360000Y-120805951D03*
%TD*%
D19*
%TO.C,C7*%
X150627500Y-112235951D03*
X148902500Y-112235951D03*
%TD*%
D16*
%TO.C,J2*%
X121825000Y-94455951D03*
D17*
X124365000Y-94455951D03*
X126905000Y-94455951D03*
X129445000Y-94455951D03*
X131985000Y-94455951D03*
X134525000Y-94455951D03*
X137065000Y-94455951D03*
X139605000Y-94455951D03*
X142145000Y-94455951D03*
X144685000Y-94455951D03*
X147225000Y-94455951D03*
X149765000Y-94455951D03*
X152305000Y-94455951D03*
X154845000Y-94455951D03*
X157385000Y-94455951D03*
X159925000Y-94455951D03*
X162465000Y-94455951D03*
X165005000Y-94455951D03*
X167545000Y-94455951D03*
X170085000Y-94455951D03*
%TD*%
D15*
%TO.C,R21*%
X124365000Y-124935951D03*
X124365000Y-126760951D03*
%TD*%
D18*
%TO.C,Q4*%
X119285000Y-117315951D03*
X119285000Y-119215951D03*
X121160000Y-118265951D03*
%TD*%
D22*
%TO.C,U4*%
X184690000Y-101318451D03*
D23*
X187230000Y-101318451D03*
X189770000Y-101318451D03*
X192310000Y-101318451D03*
X194850000Y-101318451D03*
X194850000Y-86078451D03*
X192310000Y-86078451D03*
X189770000Y-86078451D03*
X187230000Y-86078451D03*
X184690000Y-86078451D03*
%TD*%
D15*
%TO.C,R6*%
X144685000Y-116403451D03*
X144685000Y-118228451D03*
%TD*%
%TO.C,R19*%
X104045000Y-124935951D03*
X104045000Y-126760951D03*
%TD*%
D24*
%TO.C,D1*%
X90470000Y-122395951D03*
X92220000Y-122395951D03*
%TD*%
D19*
%TO.C,C4*%
X120147500Y-112235951D03*
X118422500Y-112235951D03*
%TD*%
D18*
%TO.C,Q7*%
X149765000Y-117315951D03*
X149765000Y-119215951D03*
X151640000Y-118265951D03*
%TD*%
D25*
%TO.C,R15*%
X154845000Y-112235951D03*
X153020000Y-112235951D03*
%TD*%
D18*
%TO.C,Q5*%
X129445000Y-117315951D03*
X129445000Y-119215951D03*
X131320000Y-118265951D03*
%TD*%
D19*
%TO.C,C9*%
X178567500Y-124935951D03*
X176842500Y-124935951D03*
%TD*%
D18*
%TO.C,Q3*%
X109125000Y-117315951D03*
X109125000Y-119215951D03*
X111000000Y-118265951D03*
%TD*%
D15*
%TO.C,R2*%
X104045000Y-116403451D03*
X104045000Y-118228451D03*
%TD*%
%TO.C,R18*%
X93885000Y-124935951D03*
X93885000Y-126760951D03*
%TD*%
D24*
%TO.C,D9*%
X161590000Y-122395951D03*
X163340000Y-122395951D03*
%TD*%
D25*
%TO.C,R9*%
X94797500Y-112235951D03*
X92972500Y-112235951D03*
%TD*%
D24*
%TO.C,D8*%
X151430000Y-122395951D03*
X153180000Y-122395951D03*
%TD*%
D18*
%TO.C,Q2*%
X98965000Y-117315951D03*
X98965000Y-119215951D03*
X100840000Y-118265951D03*
%TD*%
D25*
%TO.C,R14*%
X144685000Y-112235951D03*
X142860000Y-112235951D03*
%TD*%
D15*
%TO.C,R7*%
X154845000Y-116403451D03*
X154845000Y-118228451D03*
%TD*%
D24*
%TO.C,D4*%
X110790000Y-122395951D03*
X112540000Y-122395951D03*
%TD*%
D18*
%TO.C,Q8*%
X159925000Y-117315951D03*
X159925000Y-119215951D03*
X161800000Y-118265951D03*
%TD*%
D19*
%TO.C,C8*%
X160787500Y-112235951D03*
X159062500Y-112235951D03*
%TD*%
D25*
%TO.C,R12*%
X124365000Y-112235951D03*
X122540000Y-112235951D03*
%TD*%
D26*
%TO.C,U1*%
X182830000Y-108695951D03*
X182830000Y-109195951D03*
X182830000Y-109695951D03*
X182830000Y-110195951D03*
X182830000Y-110695951D03*
D27*
X183555000Y-110920951D03*
X184055000Y-110920951D03*
X184555000Y-110920951D03*
D26*
X185280000Y-110695951D03*
X185280000Y-110195951D03*
X185280000Y-109695951D03*
X185280000Y-109195951D03*
X185280000Y-108695951D03*
D27*
X184555000Y-108470951D03*
X184055000Y-108470951D03*
X183555000Y-108470951D03*
%TD*%
D22*
%TO.C,U3*%
X199940000Y-61430951D03*
D28*
X199940000Y-63970951D03*
X199940000Y-66510951D03*
X199940000Y-69050951D03*
X199940000Y-71590951D03*
X199940000Y-74130951D03*
X199940000Y-76670951D03*
X207560000Y-76670951D03*
X207560000Y-74130951D03*
X207560000Y-71590951D03*
X207560000Y-69050951D03*
X207560000Y-66510951D03*
X207560000Y-63970951D03*
X207560000Y-61430951D03*
%TD*%
D19*
%TO.C,C6*%
X140467500Y-112235951D03*
X138742500Y-112235951D03*
%TD*%
D22*
%TO.C,U5*%
X198660000Y-101318451D03*
D23*
X201200000Y-101318451D03*
X203740000Y-101318451D03*
X206280000Y-101318451D03*
X208820000Y-101318451D03*
X208820000Y-86078451D03*
X206280000Y-86078451D03*
X203740000Y-86078451D03*
X201200000Y-86078451D03*
X198660000Y-86078451D03*
%TD*%
D19*
%TO.C,C1*%
X89667500Y-112235951D03*
X87942500Y-112235951D03*
%TD*%
D24*
%TO.C,D5*%
X120950000Y-122395951D03*
X122700000Y-122395951D03*
%TD*%
%TO.C,D7*%
X141270000Y-122395951D03*
X143020000Y-122395951D03*
%TD*%
D20*
%TO.C,S2*%
X103755000Y-130845951D03*
X103755000Y-139345951D03*
X99255000Y-130845951D03*
X99255000Y-139345951D03*
%TD*%
D15*
%TO.C,R1*%
X93885000Y-116403451D03*
X93885000Y-118228451D03*
%TD*%
D25*
%TO.C,R13*%
X134525000Y-112235951D03*
X132700000Y-112235951D03*
%TD*%
D24*
%TO.C,D6*%
X131110000Y-122395951D03*
X132860000Y-122395951D03*
%TD*%
D19*
%TO.C,C3*%
X109987500Y-112235951D03*
X108262500Y-112235951D03*
%TD*%
D25*
%TO.C,R11*%
X114205000Y-112235951D03*
X112380000Y-112235951D03*
%TD*%
D15*
%TO.C,R20*%
X114205000Y-124935951D03*
X114205000Y-126760951D03*
%TD*%
D29*
%TO.C,VR1*%
X177785000Y-140175951D03*
D30*
X180285000Y-140175951D03*
X182785000Y-140175951D03*
D31*
X175885000Y-133175951D03*
X184685000Y-133175951D03*
%TD*%
D32*
%TO.C,BZ1*%
X198025000Y-132555951D03*
D33*
X203025000Y-132555951D03*
%TD*%
D20*
%TO.C,S7*%
X154555000Y-130845951D03*
X154555000Y-139345951D03*
X150055000Y-130845951D03*
X150055000Y-139345951D03*
%TD*%
D25*
%TO.C,R10*%
X104045000Y-112235951D03*
X102220000Y-112235951D03*
%TD*%
D18*
%TO.C,Q6*%
X139605000Y-117315951D03*
X139605000Y-119215951D03*
X141480000Y-118265951D03*
%TD*%
D22*
%TO.C,U2*%
X185960000Y-61430951D03*
D28*
X185960000Y-63970951D03*
X185960000Y-66510951D03*
X185960000Y-69050951D03*
X185960000Y-71590951D03*
X185960000Y-74130951D03*
X185960000Y-76670951D03*
X193580000Y-76670951D03*
X193580000Y-74130951D03*
X193580000Y-71590951D03*
X193580000Y-69050951D03*
X193580000Y-66510951D03*
X193580000Y-63970951D03*
X193580000Y-61430951D03*
%TD*%
D15*
%TO.C,R5*%
X134525000Y-116403451D03*
X134525000Y-118228451D03*
%TD*%
%TO.C,R3*%
X114205000Y-116403451D03*
X114205000Y-118228451D03*
%TD*%
D25*
%TO.C,R16*%
X165005000Y-112235951D03*
X163180000Y-112235951D03*
%TD*%
D21*
%TO.C,R27*%
X192945000Y-117315951D03*
X194770000Y-117315951D03*
%TD*%
D15*
%TO.C,R4*%
X124365000Y-116403451D03*
X124365000Y-118228451D03*
%TD*%
%TO.C,R24*%
X154845000Y-124935951D03*
X154845000Y-126760951D03*
%TD*%
%TO.C,R29*%
X203740000Y-104338451D03*
X203740000Y-106163451D03*
%TD*%
%TO.C,R8*%
X165005000Y-116403451D03*
X165005000Y-118228451D03*
%TD*%
D20*
%TO.C,S1*%
X93595000Y-130845951D03*
X93595000Y-139345951D03*
X89095000Y-130845951D03*
X89095000Y-139345951D03*
%TD*%
D19*
%TO.C,C2*%
X99827500Y-112235951D03*
X98102500Y-112235951D03*
%TD*%
D20*
%TO.C,S8*%
X164715000Y-130845951D03*
X164715000Y-139345951D03*
X160215000Y-130845951D03*
X160215000Y-139345951D03*
%TD*%
D15*
%TO.C,R28*%
X189770000Y-104338451D03*
X189770000Y-106163451D03*
%TD*%
D20*
%TO.C,S4*%
X124075000Y-130845951D03*
X124075000Y-139345951D03*
X119575000Y-130845951D03*
X119575000Y-139345951D03*
%TD*%
D15*
%TO.C,R23*%
X144685000Y-124935951D03*
X144685000Y-126760951D03*
%TD*%
%TO.C,R17*%
X180245000Y-121483451D03*
X180245000Y-123308451D03*
%TD*%
D24*
%TO.C,D3*%
X100630000Y-122395951D03*
X102380000Y-122395951D03*
%TD*%
%LPD*%
M02*
